<?xml version="1.0" standalone="no"?>
<!DOCTYPE svg PUBLIC "-//W3C//DTD SVG 1.1//EN" "http://www.w3.org/Graphics/SVG/1.1/DTD/svg11.dtd" >
<svg xmlns="http://www.w3.org/2000/svg">
<metadata>
This is a custom SVG webfont generated by Font Squirrel.
Copyright   : Copyright c 2007 by Leftloft  Molotro All rights reserved
Designer    : Leftloft  Molotro
Foundry     : Leftloft  Molotro
Foundry URL : httpwwwmolotrocom
</metadata>
<defs>
<font id="BreraCondensedSemiBold" horiz-adv-x="1042" >
<font-face units-per-em="2048" ascent="1554" descent="-494" />
<missing-glyph horiz-adv-x="370" />
<glyph unicode=" "  horiz-adv-x="370" />
<glyph unicode="&#x09;" horiz-adv-x="370" />
<glyph unicode="&#xa0;" horiz-adv-x="370" />
<glyph unicode="!" horiz-adv-x="516" d="M143 842v618h232v-618l-25 -457h-182zM150 0h212v246h-212v-246z" />
<glyph unicode="&#x22;" horiz-adv-x="690" d="M98 1468h195l-37 -454h-123zM401 1468h195l-37 -454h-123z" />
<glyph unicode="#" horiz-adv-x="1527" d="M78 418l35 153h256l67 301h-256l37 156h256l100 424h197l-96 -424h315l103 424h196l-96 -424h260l-39 -156h-260l-68 -301h261l-37 -153h-262l-97 -418h-198l92 418h-316l-96 -418h-196l94 418h-252zM565 571h318l69 301h-317z" />
<glyph unicode="$" horiz-adv-x="1034" d="M88 145l76 179q231 -129 377 -129q184 0 184 186q0 82 -56.5 133t-215.5 135q-90 47 -136.5 76t-104.5 76t-83 103.5t-25 125.5q0 150 85 253t231 132v174h209v-172q135 -18 315 -110l-84 -179q-201 102 -346 103q-86 0 -138 -46t-52 -134q0 -33 10 -56.5t45 -49 t58.5 -39t91.5 -47.5l106 -52q166 -86 239.5 -177t73.5 -222q0 -160 -86 -265.5t-231 -134.5v-184h-211v184q-166 28 -332 137z" />
<glyph unicode="%" horiz-adv-x="1800" d="M72 1071q0 -416 340 -416q346 0 346 416q0 199 -86 312.5t-260 113.5t-257 -113.5t-83 -312.5zM272 1071q0 262 140 262q145 0 145 -262q0 -252 -145 -252q-78 0 -109 64.5t-31 187.5zM475 0l662 1497h215l-662 -1497h-215zM1063 391q0 -414 342 -414q346 0 346 414 q0 197 -86 311.5t-260 114.5t-258 -113.5t-84 -312.5zM1266 391q0 260 139 260q143 0 143 -260q0 -252 -143 -252q-78 0 -108.5 64.5t-30.5 187.5z" />
<glyph unicode="&#x26;" horiz-adv-x="1271" d="M68 334q0 135 85 236.5t275 211.5q-98 125 -138 207t-40 172q0 125 93 206t253 81q168 0 256 -81t88 -202q0 -119 -69.5 -207t-217.5 -192l260 -363q82 109 134 213l163 -88q-70 -139 -184 -266l203 -264h-238l-96 133q-170 -156 -408 -156q-184 0 -301.5 96.5 t-117.5 262.5zM276 358q0 -94 67 -153.5t161 -59.5q137 0 293 127l-281 392q-115 -80 -177.5 -151t-62.5 -155zM453 1133q0 -96 118 -265q158 123 158 271q0 166 -137 166q-68 0 -103.5 -48t-35.5 -124z" />
<glyph unicode="'" horiz-adv-x="372" d="M90 1468h195l-37 -454h-123z" />
<glyph unicode="(" horiz-adv-x="679" d="M145 702q10 500 256 854l185 -22q-224 -378 -224 -881v-53q6 -479 224 -862l-185 -27q-257 400 -257 928q0 31 1 63z" />
<glyph unicode=")" horiz-adv-x="679" d="M96 1534l183 22q246 -354 256 -854q16 -567 -256 -991l-183 27q213 381 223 862q10 543 -223 934z" />
<glyph unicode="*" horiz-adv-x="1034" d="M125 989l276 76l-227 188l100 109l205 -195l45 269l154 -33l-70 -262l256 96l56 -137l-273 -88l221 -189l-110 -104l-195 196l-47 -274l-154 33l70 268l-256 -98z" />
<glyph unicode="+" horiz-adv-x="1034" d="M137 530v166h338v367h178v-367h342v-166h-342v-370h-178v370h-338z" />
<glyph unicode="," horiz-adv-x="376" d="M41 -195l63 437h201l-137 -459z" />
<glyph unicode="-" horiz-adv-x="917" d="M158 530v164h587v-164h-587z" />
<glyph unicode="." horiz-adv-x="382" d="M96 0v242h191v-242h-191z" />
<glyph unicode="/" horiz-adv-x="854" d="M141 0l312 1468h225l-311 -1468h-226z" />
<glyph unicode="0" d="M59 721q0 162 22.5 288t74 228t144.5 156.5t224 54.5t222.5 -54.5t142.5 -156.5t72.5 -227t21.5 -289q0 -743 -459 -744q-465 1 -465 744zM283 721q0 -129 9 -223.5t33.5 -179.5t75 -129t124 -44t121.5 44t71.5 129t33 178.5t9.5 224.5q0 127 -9.5 217t-33 173t-71.5 126 t-121.5 43t-124 -43t-75 -126t-33.5 -174t-9 -216z" />
<glyph unicode="1" d="M193 1196q211 102 339 234h154v-1270l115 8h92v-168h-649v166h110l119 -6v719l2 286q-88 -80 -235 -133z" />
<glyph unicode="2" d="M115 1251q66 76 184.5 136.5t237.5 60.5q186 0 294.5 -103.5t108.5 -291.5q0 -221 -235 -498l-310 -383l242 10h313v-182h-809v160l361 450q111 137 162 233.5t51 196.5q0 213 -207 213q-139 0 -295 -155z" />
<glyph unicode="3" d="M94 84l62 160q147 -90 307 -90q125 0 196.5 70.5t71.5 185.5q0 119 -75.5 179t-204.5 64l-134 -26l-26 157q387 55 387 283q0 100 -59.5 150.5t-163.5 50.5q-125 0 -289 -88l-60 151q47 43 159 80t222 37q178 0 293 -91t115 -265q0 -111 -63.5 -201t-169.5 -141v-7 q137 -23 214.5 -114.5t77.5 -233.5q0 -193 -127 -308.5t-342 -115.5q-109 0 -215 34t-176 79z" />
<glyph unicode="4" d="M53 236v163l453 1031h221l-344 -777l-133 -241h389l8 440l187 16v-456h165l-14 -176h-151v-252l-195 -15v267h-586z" />
<glyph unicode="5" d="M76 100l78 164q145 -104 313 -104q127 0 198.5 86t71.5 219t-58 209t-167 76q-121 0 -209 -95l-170 17l57 758h713l-12 -179h-524l-43 -422h8q96 92 239 93q176 0 284 -123t108 -322q0 -227 -137.5 -367.5t-342.5 -140.5q-237 0 -407 131z" />
<glyph unicode="6" d="M66 633q0 371 129 593t391 222q113 0 212 -34t148 -79l-65 -151q-154 84 -275 84q-307 0 -317 -504q115 154 305 154q174 0 274.5 -114t100.5 -312q0 -244 -121 -380.5t-334 -136.5q-221 0 -334.5 180.5t-113.5 477.5zM289 616q0 -467 237 -467q106 0 164 94.5t58 250.5 q0 127 -53.5 199.5t-162.5 72.5q-147 0 -243 -150z" />
<glyph unicode="7" d="M131 1233v197h836v-183q-203 -281 -324 -602t-121 -645h-241q8 309 140 646t329 575v12h-619z" />
<glyph unicode="8" d="M55 371q0 135 72 232t190 149v6q-100 47 -161.5 132t-61.5 189q0 174 122 271.5t304 97.5t305 -92t123 -264q0 -229 -225 -336v-6q264 -115 264 -357q0 -186 -123 -303t-344 -117q-221 2 -343 109t-122 289zM272 391q0 -111 68 -180.5t182 -69.5q111 0 177.5 75 t66.5 185.5t-85 177t-212 97.5q-90 -31 -143.5 -109t-53.5 -176zM307 1083q0 -197 273 -264q72 35 114.5 103.5t42.5 156.5q0 100 -61.5 156.5t-155.5 56.5q-92 0 -152.5 -56.5t-60.5 -152.5z" />
<glyph unicode="9" d="M94 934q0 244 121 380t334 136q221 0 334.5 -180t113.5 -477q0 -371 -129 -593.5t-391 -222.5q-113 0 -212 34t-148 79l65 152q154 -84 275 -84q307 0 317 504q-115 -154 -305 -154q-174 0 -274.5 113.5t-100.5 312.5zM315 932q0 -127 53.5 -200t161.5 -73q147 0 244 150 q0 467 -237 467q-106 0 -164 -94t-58 -250z" />
<glyph unicode=":" horiz-adv-x="385" d="M96 0v242h191v-242h-191zM96 707v241h191v-241h-191z" />
<glyph unicode=";" horiz-adv-x="382" d="M41 -195l63 437h201l-137 -459zM104 707v241h191v-241h-191z" />
<glyph unicode="&#x3c;" horiz-adv-x="1034" d="M66 608v119l886 518v-201l-682 -376l682 -383v-201z" />
<glyph unicode="=" horiz-adv-x="1034" d="M78 295v176h883v-176h-883zM78 745v177h883v-177h-883z" />
<glyph unicode="&#x3e;" horiz-adv-x="1034" d="M82 84v201l682 383l-682 376v201l887 -518v-119z" />
<glyph unicode="?" horiz-adv-x="983" d="M63 1298q176 170 404 170q197 0 311.5 -103t114.5 -294q0 -90 -40 -166t-96 -126l-112 -95q-55 -45 -95 -97t-40 -108q0 -31 8 -88h-190q-18 78 -19 133q0 76 37 138.5t89 106.5l104 86q51 42 88 95.5t37 114.5q0 102 -55.5 156.5t-157.5 54.5q-145 0 -291 -131zM311 0 h215v242h-215v-242z" />
<glyph unicode="@" horiz-adv-x="1871" d="M59 422q0 438 282 715.5t722 277.5q348 0 548.5 -204.5t200.5 -542.5q0 -279 -123.5 -467.5t-312.5 -188.5q-109 0 -176 64.5t-84 150.5q-109 -217 -293 -217q-145 0 -225 95.5t-80 283.5q0 264 127 448.5t336 184.5q129 0 197 -92l30 69h156l-102 -649q-4 -23 -4 -44 q0 -50 20 -91q29 -59 104 -59q98 0 173 149.5t75 358.5q0 274 -142 431.5t-446 157.5q-332 0 -561 -242.5t-229 -588.5q0 -168 47 -296t127 -203t176 -111.5t207 -36.5q201 0 410 82v-166q-227 -76 -431 -76q-147 0 -276 49t-231.5 145.5t-162 254t-59.5 358.5zM727 391 q0 -236 139 -235q74 0 127.5 71.5t71.5 139.5l78 452q-41 66 -139 66q-119 0 -198 -147.5t-79 -346.5z" />
<glyph unicode="A" horiz-adv-x="1124" d="M20 0l398 1468h287l399 -1468h-236l-90 348h-436l-88 -348h-234zM375 516h368l-127 543q-18 72 -47 227h-10q-18 -98 -47 -227z" />
<glyph unicode="B" horiz-adv-x="1128" d="M131 0v1468h444q207 0 327 -96t120 -295q0 -111 -56.5 -191.5t-156.5 -117.5v-6q252 -76 252 -350q0 -203 -124 -307.5t-337 -104.5h-469zM356 186h201q131 0 201.5 63.5t70.5 188.5q0 236 -288 236h-185v-488zM356 829h189q113 0 180.5 60.5t67.5 167.5q0 225 -254 225 h-183v-453z" />
<glyph unicode="C" horiz-adv-x="1005" d="M76 752q0 745 516 745q92 0 193.5 -29.5t148.5 -68.5l-51 -170q-137 74 -271 74q-299 0 -299 -551q0 -184 24.5 -308.5t93.5 -203t183 -78.5q131 0 283 88l55 -170q-66 -47 -169 -80t-197 -33q-150 0 -251.5 55.5t-157.5 164t-78.5 245t-22.5 320.5z" />
<glyph unicode="D" horiz-adv-x="1193" d="M131 0v1468h387q598 0 598 -723q0 -745 -596 -745h-389zM356 186h158q201 0 282 141.5t81 417.5q0 270 -82 403.5t-281 133.5h-158v-1096z" />
<glyph unicode="E" horiz-adv-x="958" d="M131 0v1468h743l-16 -186h-502v-448h449v-170h-449v-478h529v-186h-754z" />
<glyph unicode="F" horiz-adv-x="923" d="M131 0v1468h746l-17 -186h-502v-487h441v-177h-441v-618h-227z" />
<glyph unicode="G" horiz-adv-x="1136" d="M76 739q0 352 135 555t407 203q127 0 239 -33.5t169 -79.5l-49 -172q-184 90 -340 91q-162 0 -243 -152t-81 -410q0 -580 314 -579q125 0 217 55v365h-211l2 159h405v-655q-188 -119 -419 -119q-545 0 -545 772z" />
<glyph unicode="H" horiz-adv-x="1185" d="M131 0v1468h225v-624h471v624h228v-1468h-228v659h-471v-659h-225z" />
<glyph unicode="I" horiz-adv-x="487" d="M131 0v1468h225v-1468h-225z" />
<glyph unicode="J" horiz-adv-x="608" d="M14 -10l17 182q33 -10 84 -10q90 0 121.5 59.5t31.5 218.5v1028h228v-1034q0 -248 -62.5 -355.5t-261.5 -107.5q-76 1 -158 19z" />
<glyph unicode="K" horiz-adv-x="1097" d="M131 0v1468h225v-1468h-225zM373 733v12l418 723h247l-436 -727l449 -741h-254z" />
<glyph unicode="L" horiz-adv-x="905" d="M131 0v1468h225v-1288h510l-14 -180h-721z" />
<glyph unicode="M" horiz-adv-x="1492" d="M131 0v1468h307l328 -1077h8l301 1077h287v-1468h-207v1116h-8l-299 -1069h-176l-328 1069h-8v-1116h-205z" />
<glyph unicode="N" horiz-adv-x="1236" d="M131 0v1468h275l495 -1120h10l-10 1120h205l2 -1468h-264l-508 1133h-8l10 -1133h-207z" />
<glyph unicode="O" horiz-adv-x="1216" d="M76 731q0 766 534 766q147 0 253 -57.5t165 -164t85 -239.5t26 -305q0 -358 -121 -561t-408 -203q-534 0 -534 764zM315 731q0 -281 68 -425t227 -144q158 0 223.5 143.5t65.5 425.5q0 281 -65.5 426.5t-223 145.5t-226.5 -146.5t-69 -425.5z" />
<glyph unicode="P" horiz-adv-x="1073" d="M131 0v1468h318q291 0 432 -106.5t141 -370.5q0 -256 -132 -373.5t-392 -117.5h-142v-500h-225zM356 670h131q158 0 232 75.5t74 243.5q0 162 -77 231.5t-231 69.5h-129v-620z" />
<glyph unicode="Q" horiz-adv-x="1216" d="M76 739q0 135 16.5 247t54 208t98 161.5t152.5 103.5t213 38t212 -38t150.5 -103.5t97.5 -162.5t53.5 -206.5t15.5 -247.5q0 -582 -277 -708l250 -168l-160 -142l-274 254q-41 -8 -68 -8q-534 0 -534 772zM315 739q0 -287 68 -432t227.5 -145t224 144.5t64.5 432.5 q0 285 -64.5 424.5t-224 139.5t-227.5 -140.5t-68 -423.5z" />
<glyph unicode="R" horiz-adv-x="1089" d="M131 0v1468h340q270 0 409.5 -104t139.5 -348q0 -154 -64.5 -260.5t-179.5 -155.5l90 -186l170 -414h-237l-228 559q-41 -4 -213 -4v-555h-227zM358 715h172q127 0 192.5 76.5t65.5 216.5q0 145 -68.5 213.5t-215.5 68.5h-146v-575z" />
<glyph unicode="S" horiz-adv-x="999" d="M57 113l78 178q195 -131 377 -131q96 0 149.5 55t53.5 145q0 86 -58.5 138.5t-230.5 146.5q-190 102 -271 193.5t-81 246.5q0 178 118.5 295t305.5 117q127 0 248.5 -39t183.5 -86l-84 -176q-178 106 -352 107q-90 0 -144.5 -49.5t-54.5 -147.5q0 -20 3 -37.5t13 -34.5 l19 -29q8 -13 28 -30l34 -27q13 -10 44 -27l49 -28l59 -33l64 -37q176 -96 253 -188t77 -238q0 -201 -120 -315.5t-312 -114.5q-133 0 -254 44.5t-195 101.5z" />
<glyph unicode="T" horiz-adv-x="991" d="M43 1282v186h905v-186h-330v-1282h-227v1282h-348z" />
<glyph unicode="U" horiz-adv-x="1144" d="M113 485v983h221v-999q0 -307 239 -307q236 0 236 321v985h223v-974q0 -520 -459 -521q-460 0 -460 512z" />
<glyph unicode="V" horiz-adv-x="1048" d="M20 1468h248q121 -698 260 -1280h9q139 594 254 1280h237q-186 -909 -342 -1468h-324q-178 647 -342 1468z" />
<glyph unicode="W" horiz-adv-x="1568" d="M20 1468h236q123 -819 219 -1278h8q139 543 215 947l-69 331h223q201 -1143 231 -1278h9q47 217 121.5 637t105.5 641h229q-35 -225 -137 -691t-180 -777h-285q-100 420 -160 741h-8q-45 -242 -184 -741h-272q-63 256 -161 735t-141 733z" />
<glyph unicode="X" horiz-adv-x="1079" d="M18 0q33 70 385 741q-49 84 -191 362.5t-179 364.5h248l270 -559h8l254 559h231q-45 -129 -362 -739l206 -385q140 -266 173 -344h-242l-282 565h-11l-270 -565h-238z" />
<glyph unicode="Y" horiz-adv-x="1040" d="M18 1468h238l260 -671h8l260 671h240q-231 -535 -391 -860v-608h-227v608q-202 411 -388 860z" />
<glyph unicode="Z" horiz-adv-x="940" d="M25 0v156l620 1126h-588v186h852v-153l-633 -1129h637v-186h-888z" />
<glyph unicode="[" horiz-adv-x="667" d="M156 -307v1966h448v-184h-239v-1598h239v-184h-448z" />
<glyph unicode="\" horiz-adv-x="854" d="M156 1468h225l311 -1468h-225z" />
<glyph unicode="]" horiz-adv-x="679" d="M63 -123h240v1598h-240v184h449v-1966h-449v184z" />
<glyph unicode="^" horiz-adv-x="1034" d="M23 870l397 727h198l394 -727h-232l-262 543l-262 -543h-233z" />
<glyph unicode="_" horiz-adv-x="1024" d="M0 -164h1024v-76h-1024v76z" />
<glyph unicode="`" horiz-adv-x="1024" d="M313 1499l213 45l197 -338h-127z" />
<glyph unicode="a" horiz-adv-x="952" d="M53 287q0 193 138.5 269.5t437.5 98.5v88q0 190 -176 191q-137 0 -330 -86l-49 158q53 35 181 68.5t228 33.5q180 0 266.5 -86t86.5 -270v-494q0 -23 3 -69l7 -104q4 -58 6 -81l-188 -12q-20 68 -27 164q-121 -178 -287 -179q-139 0 -218 83.5t-79 226.5zM264 309 q0 -178 150 -178q117 0 215 168v229q-84 -6 -143.5 -16t-113 -33.5t-81 -66t-27.5 -103.5z" />
<glyph unicode="b" horiz-adv-x="999" d="M117 29v1464l211 25v-363l-17 -186q135 139 254 139q375 0 375 -533q0 -307 -105.5 -453.5t-357.5 -146.5q-129 1 -360 54zM328 162q90 -23 145 -23q141 0 194.5 99.5t53.5 324.5q0 190 -46 281.5t-159 91.5q-45 0 -99.5 -37t-88.5 -84v-653z" />
<glyph unicode="c" horiz-adv-x="786" d="M59 542.5q0 278.5 92.5 422t313.5 143.5q84 0 167 -23.5t116 -52.5l-54 -158q-100 55 -198 56q-119 0 -168 -101.5t-49 -285.5q0 -190 47 -288.5t168 -98.5q96 0 206 51l50 -156q-39 -27 -128.5 -50.5t-158.5 -23.5q-219 0 -311.5 143.5t-92.5 422z" />
<glyph unicode="d" horiz-adv-x="997" d="M59 551q0 266 98.5 411.5t291.5 145.5q117 0 235 -78l-12 172v291l209 25v-1518h-185l-12 141q-96 -164 -264 -164q-361 1 -361 574zM279 549q0 -190 43 -294.5t149 -104.5q70 0 124 48t77 121v560q-78 66 -170 65q-223 0 -223 -395z" />
<glyph unicode="e" horiz-adv-x="931" d="M59 541q0 268 103.5 417.5t316.5 149.5q209 0 302 -119t93 -346q0 -100 -12 -162h-586q4 -334 246 -334q133 0 291 72l51 -156q-61 -35 -167.5 -60.5t-200.5 -25.5q-437 1 -437 564zM276 612l386 2q2 14 2 52q0 141 -39 211.5t-146 70.5q-199 0 -203 -336z" />
<glyph unicode="f" horiz-adv-x="608" d="M29 922v127l100 30v113q0 340 293 340q131 0 194 -37l-28 -156q-51 23 -121 23q-72 0 -100.5 -46t-28.5 -142v-91h237v-161h-237v-922h-209v922h-100z" />
<glyph unicode="g" horiz-adv-x="974" d="M35 -129q0 156 184 238q-84 51 -84 122q0 84 107 138q-178 94 -179 338q0 190 103.5 295.5t282.5 105.5q150 0 249 -84l232 84l24 -164l-168 -37q55 -90 56 -200q0 -385 -385 -385q-53 0 -103 12q-43 -20 -43 -60q0 -29 51.5 -42t225.5 -27q184 -14 271 -80t87 -209 q0 -164 -134 -247t-345 -83q-197 0 -314.5 74t-117.5 211zM223 -102q0 -82 64.5 -125t177.5 -43q127 0 198.5 41t71.5 118.5t-47 111.5t-176 46q-12 2 -74.5 8t-95.5 8q-49 -23 -84 -68.5t-35 -96.5zM274 711q0 -127 40 -188.5t137 -61.5q98 0 139 61.5t41 188.5 q0 248 -180 247q-177 1 -177 -247z" />
<glyph unicode="h" horiz-adv-x="1003" d="M117 0v1493l211 25v-324l-15 -244q133 158 279 158q166 0 237.5 -98.5t71.5 -284.5v-725h-209v727q0 106 -35.5 157.5t-126.5 51.5q-102 0 -202 -141v-795h-211z" />
<glyph unicode="i" horiz-adv-x="444" d="M113 1245v217h219v-217h-219zM117 0v1083h211v-1083h-211z" />
<glyph unicode="j" horiz-adv-x="444" d="M-49 -317q94 92 130 177t36 197v1026h211v-1024q0 -297 -226 -489zM113 1245v217h217v-217h-217z" />
<glyph unicode="k" horiz-adv-x="919" d="M117 0v1493l211 25v-1518h-211zM354 571v15l297 497h244l-317 -485l333 -598h-235z" />
<glyph unicode="l" horiz-adv-x="444" d="M117 0v1493l211 25v-1518h-211z" />
<glyph unicode="m" horiz-adv-x="1517" d="M117 0v1083h205l-9 -137q137 162 275 162q182 0 252 -160q139 160 282 160q293 0 293 -369v-739h-211v733q0 203 -139 203q-98 0 -191 -123v-813h-208v731q0 205 -138 205q-96 0 -200 -135v-801h-211z" />
<glyph unicode="n" horiz-adv-x="1003" d="M117 0v1083h202l-8 -149q133 174 291 174q162 0 230.5 -96.5t68.5 -280.5v-731h-211v694q0 121 -31.5 181.5t-115.5 60.5q-61 0 -118.5 -44t-96.5 -110v-782h-211z" />
<glyph unicode="o" horiz-adv-x="980" d="M59 539q0 569 430 569q432 0 433 -569q0 -563 -433 -564q-430 1 -430 564zM279 538.5q0 -198.5 46 -298t164 -99.5q117 0 165 100.5t48 297.5q0 199 -47 302t-166 103q-117 0 -163.5 -103.5t-46.5 -302z" />
<glyph unicode="p" horiz-adv-x="999" d="M117 1083h207l-15 -149l4 -2q45 74 118 125t155 51q133 0 215 -75t110.5 -191.5t28.5 -286.5q0 -270 -95 -425t-298 -155q-123 0 -232 74l13 -135v-303l-211 -17v1489zM328 203q74 -63 161 -64q231 0 232 416q0 186 -43 283.5t-156 97.5q-59 0 -113.5 -48t-80.5 -112 v-573z" />
<glyph unicode="q" horiz-adv-x="997" d="M59 547q0 143 32 262t121 208t226 89h11q64 0 128 -24q69 -26 111 -66h4l13 67h176v-1472l-211 -17v357l8 170q-100 -145 -244 -146q-109 0 -184.5 44t-115.5 125t-57.5 178.5t-17.5 224.5zM279 545q0 -125 14 -206t62 -136.5t132 -55.5q49 0 100.5 40t82.5 94v587 q-80 74 -176 74q-215 0 -215 -397z" />
<glyph unicode="r" horiz-adv-x="645" d="M117 0v1083h205l-17 -225l4 -2q31 111 96.5 181.5t151.5 70.5q43 0 72 -16l-19 -211q-31 14 -75 14q-82 0 -144.5 -76t-62.5 -178v-641h-211z" />
<glyph unicode="s" horiz-adv-x="817" d="M43 80l57 160q184 -92 299 -93q66 0 113 39t47 99q0 68 -45 102.5t-180 83.5q-133 51 -197.5 123t-64.5 197q0 152 93 234.5t251 82.5q90 0 198.5 -29.5t149.5 -62.5l-55 -156q-57 29 -140.5 53.5t-136.5 24.5q-66 0 -109.5 -37t-43.5 -96q0 -57 45 -91t165 -81 q152 -57 216.5 -123t64.5 -205q0 -156 -97.5 -242t-258.5 -86q-94 0 -211 35t-160 68z" />
<glyph unicode="t" horiz-adv-x="618" d="M20 922v133l115 26v256l207 35v-289h219v-161h-219v-631q0 -76 18.5 -108.5t65.5 -32.5q66 0 137 22l25 -156q-100 -39 -223 -39q-125 0 -179.5 73t-54.5 224v648h-111z" />
<glyph unicode="u" horiz-adv-x="1007" d="M106 350v733h209v-721q0 -213 158 -212q57 0 114.5 43t92.5 102v788h209v-1083h-180l-17 143q-123 -166 -289 -166q-297 0 -297 373z" />
<glyph unicode="v" horiz-adv-x="884" d="M23 1083h229q109 -575 186 -899h8q84 342 187 899h229q-51 -252 -133 -575.5t-143 -507.5h-285q-61 178 -142 498.5t-136 584.5z" />
<glyph unicode="w" horiz-adv-x="1355" d="M23 1083h223q131 -788 157 -905h11q35 106 94 336.5t80 331.5l-49 237h221q117 -635 182 -903h12q39 158 156 903h223q-139 -752 -237 -1083h-267q-90 293 -157 604q-57 -285 -162 -604h-252q-112 389 -235 1083z" />
<glyph unicode="x" horiz-adv-x="856" d="M23 0q141 297 274 545l-268 538h237l174 -409l162 409h225q-137 -289 -270 -536q133 -244 277 -547h-232l-184 408l-176 -408h-219z" />
<glyph unicode="y" horiz-adv-x="903" d="M39 1083h227q92 -498 191 -901h10q86 356 184 901h230q-137 -655 -271 -1083q-70 -223 -150.5 -319.5t-236.5 -96.5q-39 0 -99.5 12.5t-78.5 26.5l37 158q66 -29 129 -29q76 0 117 57.5t75 190.5h-86q-102 305 -278 1083z" />
<glyph unicode="z" horiz-adv-x="784" d="M43 0v152l442 770h-426v161h672v-143l-446 -776h458v-164h-700z" />
<glyph unicode="{" horiz-adv-x="679" d="M16 588v178q2 0 23.5 5t39 10t43 21.5t43 38t30 61.5t12.5 91v221q0 227 101.5 336t318.5 109h35v-170h-35q-129 0 -182.5 -67.5t-53.5 -213.5v-235q0 -121 -56 -197t-153 -100q96 -25 152.5 -99.5t56.5 -193.5v-240q0 -143 52.5 -207.5t183.5 -64.5h35v-178h-35 q-217 0 -318.5 108.5t-101.5 335.5v225q0 61 -16.5 104.5t-44 66t-49 32.5t-52.5 17z" />
<glyph unicode="|" horiz-adv-x="1024" d="M399 -520v2048h226v-2048h-226z" />
<glyph unicode="}" horiz-adv-x="679" d="M18 -129h35q131 0 183.5 64.5t52.5 207.5v240q0 119 56 193.5t153 99.5q-96 25 -152.5 100.5t-56.5 196.5v235q0 145 -53.5 213t-182.5 68h-35v170h35q217 0 318.5 -108.5t101.5 -336.5v-221q0 -51 12.5 -91t29.5 -61.5t43 -38t43 -21.5t39 -10t24 -5v-178l-29 -6 q-31 -6 -52.5 -16.5t-49 -33t-44 -65.5t-16.5 -105v-225q0 -227 -101.5 -335.5t-318.5 -108.5h-35v178z" />
<glyph unicode="~" horiz-adv-x="1034" d="M45 465q76 238 272 237q66 0 200 -58t190 -60q84 0 143 121l137 -48q-35 -117 -104.5 -179t-159.5 -62q-72 0 -202 57t-193 57q-84 0 -140 -116z" />
<glyph unicode="&#xa1;" horiz-adv-x="507" d="M139 0h232v618l-25 457h-182l-25 -457v-618zM145 1214v246h213v-246h-213z" />
<glyph unicode="&#xa2;" d="M190 731q0 238 67 377t220 176v184h176l-2 -176q160 -16 228 -71l-52 -158q-100 53 -200 53q-121 0 -169 -100.5t-48 -286.5q0 -188 47 -285.5t168 -97.5q96 0 206 51l52 -157q-72 -51 -232 -70l2 -170h-176v178q-154 35 -220.5 174t-66.5 379z" />
<glyph unicode="&#xa3;" d="M86 0v166h156v516h-156v129l156 31v174q0 219 80.5 328.5t279.5 109.5q217 0 350 -84q-8 -16 -30.5 -80.5t-28.5 -79.5q-109 61 -244 62q-98 0 -148 -57.5t-50 -198.5v-174h393l-21 -160h-372v-516h495v-166h-860z" />
<glyph unicode="&#xa5;" d="M31 1448h237l250 -651h8l250 651h240l-309 -686h237v-164h-307v-158h307v-164h-307v-276h-229v276h-306v164h306v158h-306v164h236z" />
<glyph unicode="&#xa6;" horiz-adv-x="1024" d="M408 283h208v-799h-208v799zM408 725v799h208v-799h-208z" />
<glyph unicode="&#xa7;" d="M70 -297l77 166q229 -123 377 -123q96 0 149.5 52t53.5 141q0 84 -60.5 132t-230.5 119q-195 82 -271.5 167t-76.5 231q0 150 135 254q-125 104 -125 266q0 168 118 278.5t304 110.5q188 0 432 -119l-84 -164q-215 102 -354 103q-90 0 -144.5 -47t-54.5 -142 q0 -78 68 -128t246 -123q182 -76 261 -165t79 -231q0 -156 -127 -262q106 -96 106 -248q0 -195 -119.5 -300t-310.5 -105q-215 0 -448 137zM307 608q0 -74 49.5 -118t184.5 -97q92 -43 133 -65q74 45 74 121q0 78 -51.5 128t-164.5 95q-119 51 -141 63q-84 -49 -84 -127z " />
<glyph unicode="&#xa8;" horiz-adv-x="1024" d="M281 1251v222h184v-222h-184zM559 1251v222h184v-222h-184z" />
<glyph unicode="&#xa9;" horiz-adv-x="1646" d="M61 727q0 315 222.5 537.5t538 222.5t539.5 -222.5t224 -537.5t-224 -537.5t-539.5 -222.5t-538 222.5t-222.5 537.5zM215 727q0 -256 177 -431t429 -175t431.5 177t179.5 429q0 248 -180.5 427t-430.5 179t-428 -178t-178 -428zM508 727q0 -190 71.5 -292.5 t247.5 -102.5q123 0 232 65l-43 111q-94 -49 -172 -49q-170 0 -170 268q0 250 170 250q78 0 164 -41l39 111q-31 23 -94.5 40t-121.5 17q-323 0 -323 -377z" />
<glyph unicode="&#xaa;" horiz-adv-x="831" d="M84 971q0 127 102.5 181t317.5 67v51q0 115 -129 114q-86 0 -238 -59l-41 117q39 25 132.5 48t166.5 23q270 0 271 -239v-320q0 -92 10 -172l-146 -10q-6 23 -18 94q-84 -102 -209 -102q-102 0 -160.5 55.5t-58.5 151.5zM248 987q0 -109 100 -108q41 0 85 30.5t71 73.5 v135q-123 -8 -189.5 -34.5t-66.5 -96.5z" />
<glyph unicode="&#xab;" horiz-adv-x="1013" d="M98 545v20l277 439h200l-282 -449l282 -449h-200zM471 545v20l277 439h200l-282 -449l282 -449h-200z" />
<glyph unicode="&#xad;" horiz-adv-x="917" d="M158 530v164h587v-164h-587z" />
<glyph unicode="&#xae;" horiz-adv-x="1644" d="M61 727q0 315 222.5 537.5t538 222.5t538.5 -222.5t223 -537.5t-223 -537.5t-538.5 -222.5t-538 222.5t-222.5 537.5zM213 725q0 -254 177 -431t431 -177t432.5 177t178.5 431t-178.5 431t-432.5 177t-431 -177t-177 -431zM586 356h139v271l102 2l131 -273h160l-108 215 l-45 82q141 53 141 211q0 229 -326 230h-194v-738zM725 731v250h74q162 0 162 -123q0 -127 -146 -127h-90z" />
<glyph unicode="&#xaf;" horiz-adv-x="1024" d="M207 1311v100h610v-100h-610z" />
<glyph unicode="&#xb0;" horiz-adv-x="686" d="M80 1399q0 109 71.5 179.5t182.5 70.5q113 0 185.5 -71t72.5 -179q0 -106 -73 -175t-185.5 -69t-183 69t-70.5 175zM211 1399q0 -59 32.5 -94t90 -35t91.5 34.5t34 94t-34 97.5t-91 38q-55 0 -89 -37t-34 -98z" />
<glyph unicode="&#xb1;" d="M94 0v162h338v368h-338v166h338v367h178v-367h342v-166h-342v-368h342v-162h-858z" />
<glyph unicode="&#xb2;" horiz-adv-x="874" d="M80 1360q49 51 141 94t178 43q137 0 220 -70.5t83 -195.5q0 -152 -172 -334l-225 -238l131 7h283v-134h-619v113l326 356q102 113 102 222q0 63 -39.5 97t-109.5 34q-106 0 -221 -103z" />
<glyph unicode="&#xb3;" horiz-adv-x="880" d="M90 594l47 117q113 -61 232 -62q86 0 136 45t50 117q0 74 -53 112t-140 42l-110 -19l-21 117q285 39 285 178q0 121 -154 121q-96 0 -215 -59l-49 112q35 29 122 55.5t167 26.5q129 0 214 -62.5t85 -179.5q0 -68 -41 -127t-110 -96q90 -20 141 -80.5t51 -150.5 q0 -129 -93 -207t-249 -78q-78 0 -162 23.5t-133 54.5z" />
<glyph unicode="&#xb4;" horiz-adv-x="1024" d="M313 1206l197 338l213 -45l-283 -293h-127z" />
<glyph unicode="&#xb5;" horiz-adv-x="1019" d="M119 1083h209v-721q0 -213 157 -212q57 0 114.5 43t92.5 102v788h209v-1083h-180l-19 141q-90 -129 -210 -141q-29 -5 -56 -5q-58 0 -108 23v-407l-209 -17v1489z" />
<glyph unicode="&#x3bc;" horiz-adv-x="1019" d="M119 1083h209v-721q0 -213 157 -212q57 0 114.5 43t92.5 102v788h209v-1083h-180l-19 141q-90 -129 -210 -141q-29 -5 -56 -5q-58 0 -108 23v-407l-209 -17v1489z" />
<glyph unicode="&#xb6;" horiz-adv-x="1169" d="M86 991q0 229 114.5 353t348.5 124h207v-1468h-154v500h-102q-207 0 -310.5 134t-103.5 357zM862 0v1468h178v-1468h-178z" />
<glyph unicode="&#xb7;" horiz-adv-x="512" d="M147 449v241h191v-241h-191z" />
<glyph unicode="&#xb8;" horiz-adv-x="1024" d="M168 -430v102h158q100 0 100 64q0 39 -26.5 52t-92.5 13h-80v199h99v-98q113 0 168 -38t55 -124q0 -92 -57.5 -131t-169.5 -39h-154z" />
<glyph unicode="&#xb9;" horiz-adv-x="778" d="M84 1307q166 66 258 155h119v-817l76 6h81v-123h-497v121h94l80 -4v438l2 187q-80 -53 -176 -82z" />
<glyph unicode="&#xba;" horiz-adv-x="866" d="M84 1135q0 379 311 378q315 0 316 -378q0 -373 -316 -373q-311 0 -311 373zM254 1135q0 -125 30.5 -187.5t110.5 -62.5t113 62.5t33 187.5q0 127 -32 191.5t-114 64.5q-80 0 -110.5 -64.5t-30.5 -191.5z" />
<glyph unicode="&#xbb;" horiz-adv-x="1013" d="M66 106l282 449l-282 449h200l277 -439v-20l-277 -439h-200zM438 106l283 449l-283 449h201l276 -439v-20l-276 -439h-201z" />
<glyph unicode="&#xbc;" horiz-adv-x="1951" d="M102 1307q166 66 258 155h119v-817l76 6h82v-123h-498v121h94l80 -4v438l2 187q-80 -53 -176 -82zM596 0l592 1468h160l-592 -1468h-160zM1149 154v114l324 678h172l-252 -518l-86 -147h260l6 288l143 11v-299h119l-10 -127h-109v-164l-149 -10v174h-418z" />
<glyph unicode="&#xbd;" horiz-adv-x="1955" d="M102 1307q166 66 258 155h119v-817l76 6h82v-123h-498v121h94l80 -4v438l2 187q-80 -53 -176 -82zM596 0l592 1468h160l-592 -1468h-160zM1241 827q49 51 141.5 94.5t178.5 43.5q137 0 220 -71t83 -196q0 -152 -172 -333l-226 -238l131 6h283v-133h-618v113l325 356 q102 113 103 221q0 63 -40 97t-110 34q-106 0 -221 -102z" />
<glyph unicode="&#xbe;" horiz-adv-x="1961" d="M111 594l47 117q113 -61 231 -62q86 0 136 45t50 117q0 74 -53 112t-139 42l-111 -19l-20 117q285 39 285 178q0 121 -154 121q-96 0 -215 -59l-49 112q35 29 122 55.5t167 26.5q129 0 214 -62.5t85 -179.5q0 -68 -41 -127t-111 -96q90 -20 141.5 -80.5t51.5 -150.5 q0 -129 -93.5 -207t-248.5 -78q-78 0 -162 23.5t-133 54.5zM618 0l592 1468h160l-592 -1468h-160zM1171 154v116l324 676h174l-252 -518l-88 -145h258l8 286l144 11v-297h119l-11 -129h-108v-164l-152 -10v174h-416z" />
<glyph unicode="&#xbf;" horiz-adv-x="983" d="M90 397q0 90 40 166t96 126l112 95q55 45 95 97.5t40 107.5q0 31 -8 88h190q18 -78 19 -133q0 -76 -37 -138.5t-89 -106.5l-104 -86q-51 -42 -88 -95t-37 -115q0 -102 55.5 -156t157.5 -54q145 0 291 131l97 -154q-176 -170 -404 -170q-197 0 -311.5 103.5t-114.5 293.5z M457 1227v241h215v-241h-215z" />
<glyph unicode="&#xc0;" horiz-adv-x="1124" d="M20 0l398 1468h287l399 -1468h-236l-90 348h-436l-88 -348h-234zM266 1884l213 45l197 -338h-127zM375 516h368l-127 543q-18 72 -47 227h-10q-18 -98 -47 -227z" />
<glyph unicode="&#xc1;" horiz-adv-x="1124" d="M20 0l398 1468h287l399 -1468h-236l-90 348h-436l-88 -348h-234zM375 516h368l-127 543q-18 72 -47 227h-10q-18 -98 -47 -227zM434 1591l197 338l213 -45l-283 -293h-127z" />
<glyph unicode="&#xc2;" horiz-adv-x="1124" d="M20 0l398 1468h287l399 -1468h-236l-90 348h-436l-88 -348h-234zM301 1591l191 338h143l188 -338h-108l-152 226l-151 -226h-111zM375 516h368l-127 543q-18 72 -47 227h-10q-18 -98 -47 -227z" />
<glyph unicode="&#xc3;" horiz-adv-x="1124" d="M20 0l398 1468h287l399 -1468h-236l-90 348h-436l-88 -348h-234zM283 1686q45 156 170 155q53 0 136 -31.5t105 -31.5q51 0 90 65l72 -33q-45 -158 -158 -157q-55 0 -138 30.5t-103 30.5q-53 0 -92 -63zM375 516h368l-127 543q-18 72 -47 227h-10q-18 -98 -47 -227z" />
<glyph unicode="&#xc4;" horiz-adv-x="1124" d="M20 0l398 1468h287l399 -1468h-236l-90 348h-436l-88 -348h-234zM330 1636v222h184v-222h-184zM375 516h368l-127 543q-18 72 -47 227h-10q-18 -98 -47 -227zM608 1636v222h185v-222h-185z" />
<glyph unicode="&#xc5;" horiz-adv-x="1124" d="M20 0l398 1468h287l399 -1468h-236l-90 348h-436l-88 -348h-234zM375 516h368l-127 543q-18 72 -47 227h-10q-18 -98 -47 -227zM375 1775.5q0 75.5 55 131t129 55.5q78 0 132 -54.5t54 -132t-54 -131t-132 -53.5q-76 0 -130 54.5t-54 130zM473 1776q0 -35 25.5 -60.5 t60.5 -25.5q37 0 63.5 25.5t26.5 60.5q0 37 -26.5 63.5t-63.5 26.5q-35 0 -60.5 -26.5t-25.5 -63.5z" />
<glyph unicode="&#xc6;" horiz-adv-x="1585" d="M20 0l551 1468h932l-18 -188h-504v-436h451v-174h-451v-482h532v-188h-757v346h-377l-123 -346h-236zM432 516h324v774h-54z" />
<glyph unicode="&#xc7;" horiz-adv-x="1005" d="M76 752q0 745 516 745q92 0 193.5 -29.5t148.5 -68.5l-51 -170q-137 74 -271 74q-299 0 -299 -551q0 -184 24.5 -308.5t93.5 -203t183 -78.5q131 0 283 88l55 -170q-63 -47 -165.5 -79t-198.5 -34v-65q113 0 168 -38t55 -124q0 -92 -57.5 -131t-169.5 -39h-154v102h158 q100 0 100 64q0 39 -26.5 52t-92.5 13h-80v172q-119 16 -201.5 80t-127.5 169.5t-64.5 232.5t-19.5 297z" />
<glyph unicode="&#xc8;" horiz-adv-x="958" d="M131 0v1468h743l-16 -186h-502v-448h449v-170h-449v-478h529v-186h-754zM274 1884l213 45l197 -338h-127z" />
<glyph unicode="&#xc9;" horiz-adv-x="958" d="M131 0v1468h743l-16 -186h-502v-448h449v-170h-449v-478h529v-186h-754zM354 1591l197 338l213 -45l-283 -293h-127z" />
<glyph unicode="&#xca;" horiz-adv-x="958" d="M131 0v1468h743l-16 -186h-502v-448h449v-170h-449v-478h529v-186h-754zM248 1591l190 338h144l188 -338h-108l-152 226l-152 -226h-110z" />
<glyph unicode="&#xcb;" horiz-adv-x="958" d="M131 0v1468h743l-16 -186h-502v-448h449v-170h-449v-478h529v-186h-754zM260 1636v222h184v-222h-184zM539 1636v222h184v-222h-184z" />
<glyph unicode="&#xcc;" horiz-adv-x="487" d="M-8 1884l213 45l196 -338h-127zM131 0v1468h225v-1468h-225z" />
<glyph unicode="&#xcd;" horiz-adv-x="487" d="M131 0v1468h225v-1468h-225zM135 1591l197 338l213 -45l-283 -293h-127z" />
<glyph unicode="&#xce;" horiz-adv-x="487" d="M-16 1591l190 338h143l189 -338h-109l-151 226l-152 -226h-110zM131 0v1468h225v-1468h-225z" />
<glyph unicode="&#xcf;" horiz-adv-x="487" d="M14 1636v222h185v-222h-185zM131 0v1468h225v-1468h-225zM293 1636v222h184v-222h-184z" />
<glyph unicode="&#xd0;" horiz-adv-x="1193" d="M-16 655v150h147v663h387q598 0 598 -723q0 -745 -596 -745h-389v655h-147zM356 186h158q201 0 283 141.5t82 417.5q0 270 -83 403.5t-282 133.5h-158v-477h246v-150h-246v-469z" />
<glyph unicode="&#xd1;" horiz-adv-x="1236" d="M131 0v1468h275l495 -1120h10l-10 1120h205l2 -1468h-264l-508 1133h-8l10 -1133h-207zM358 1686q45 156 170 155q53 0 136.5 -31.5t105.5 -31.5q51 0 90 65l72 -33q-45 -158 -158 -157q-55 0 -138 30.5t-104 30.5q-53 0 -92 -63z" />
<glyph unicode="&#xd2;" horiz-adv-x="1216" d="M76 731q0 766 534 766q147 0 253 -57.5t165 -164t85 -239.5t26 -305q0 -358 -121 -561t-408 -203q-534 0 -534 764zM315 731q0 -281 68 -425t227 -144q158 0 223.5 143.5t65.5 425.5q0 281 -65.5 426.5t-223 145.5t-226.5 -146.5t-69 -425.5zM352 1884l213 45l197 -338 h-127z" />
<glyph unicode="&#xd3;" horiz-adv-x="1216" d="M76 731q0 -764 534 -764q287 0 408 203t121 561q0 172 -26 305t-85 239.5t-164.5 164t-253.5 57.5q-534 0 -534 -766zM315 731q0 279 69 425.5t226.5 146.5t223 -145.5t65.5 -426.5q0 -283 -65.5 -426t-223.5 -143q-160 0 -227.5 144t-67.5 425zM467 1591l197 338 l213 -45l-283 -293h-127z" />
<glyph unicode="&#xd4;" horiz-adv-x="1216" d="M76 731q0 -764 534 -764q287 0 408 203t121 561q0 172 -26 305t-85 239.5t-164.5 164t-253.5 57.5q-534 0 -534 -766zM315 731q0 279 69 425.5t226.5 146.5t223 -145.5t65.5 -426.5q0 -283 -65.5 -426t-223.5 -143q-160 0 -227.5 144t-67.5 425zM344 1591l191 338h143 l188 -338h-108l-152 226l-151 -226h-111z" />
<glyph unicode="&#xd5;" horiz-adv-x="1216" d="M76 731q0 -764 534 -764q287 0 408 203t121 561q0 172 -26 305t-85 239.5t-164.5 164t-253.5 57.5q-534 0 -534 -766zM315 731q0 279 69 425.5t226.5 146.5t223 -145.5t65.5 -426.5q0 -283 -65.5 -426t-223.5 -143q-160 0 -227.5 144t-67.5 425zM317 1685q45 156 170 156 q53 0 136.5 -31.5t105.5 -31.5q51 0 90 65l72 -33q-45 -158 -158 -157q-55 0 -138 30.5t-103 30.5q-53 0 -93 -63z" />
<glyph unicode="&#xd6;" horiz-adv-x="1216" d="M76 731q0 766 534 766q147 0 253 -57.5t165 -164t85 -239.5t26 -305q0 -358 -121 -561t-408 -203q-534 0 -534 764zM315 731q0 -281 68 -425t227 -144q158 0 223.5 143.5t65.5 425.5q0 281 -65.5 426.5t-223 145.5t-226.5 -146.5t-69 -425.5zM375 1636v222h184v-222h-184 zM653 1636v222h185v-222h-185z" />
<glyph unicode="&#xd7;" horiz-adv-x="1034" d="M98 305l295 297l-293 295l119 119l293 -295l295 297l127 -125l-297 -297l301 -299l-119 -119l-301 299l-295 -297z" />
<glyph unicode="&#xd8;" horiz-adv-x="1216" d="M76 731q0 766 534 766q147 0 258 -61l66 147h123l-96 -219q178 -184 178 -633q0 -358 -121 -561t-408 -203q-137 0 -243 51l-78 -178h-123l106 242q-196 180 -196 649zM313 731q0 -279 64 -414l403 918q-68 68 -170 68q-160 0 -228.5 -145.5t-68.5 -426.5zM453 213 q59 -51 157 -51q160 0 225.5 143.5t65.5 425.5q0 250 -49 385z" />
<glyph unicode="&#xd9;" horiz-adv-x="1144" d="M113 485v983h221v-999q0 -307 239 -307q236 0 236 321v985h223v-974q0 -520 -459 -521q-460 0 -460 512zM276 1884l213 45l197 -338h-127z" />
<glyph unicode="&#xda;" horiz-adv-x="1144" d="M113 485q0 -512 460 -512q459 0 459 521v974h-223v-985q0 -322 -236 -321q-240 0 -239 307v999h-221v-983zM446 1591l197 338l213 -45l-283 -293h-127z" />
<glyph unicode="&#xdb;" horiz-adv-x="1144" d="M113 485q0 -512 460 -512q459 0 459 521v974h-223v-985q0 -322 -236 -321q-240 0 -239 307v999h-221v-983zM305 1591l191 338h143l188 -338h-108l-152 226l-151 -226h-111z" />
<glyph unicode="&#xdc;" horiz-adv-x="1144" d="M113 485v983h221v-999q0 -307 239 -307q236 0 236 321v985h223v-974q0 -520 -459 -521q-460 0 -460 512zM336 1636v222h184v-222h-184zM614 1636v222h185v-222h-185z" />
<glyph unicode="&#xdd;" horiz-adv-x="1040" d="M18 1468q186 -449 388 -860v-608h227v608q160 326 391 860h-240l-260 -671h-8l-260 671h-238zM428 1591l197 338l213 -45l-283 -293h-127z" />
<glyph unicode="&#xde;" horiz-adv-x="1081" d="M131 0v1464h229v-235h170q494 0 494 -477q0 -256 -133 -374t-393 -118h-140v-260h-227zM358 430h127q162 0 236 77t74 243q0 162 -78 230.5t-230 68.5h-129v-619z" />
<glyph unicode="&#xdf;" horiz-adv-x="1073" d="M117 0v1112q0 188 102.5 286.5t288.5 98.5q197 0 306.5 -97t109.5 -274q0 -272 -291 -352q215 -35 298 -137t83 -270q0 -186 -94.5 -292t-249.5 -106q-150 0 -275 74l43 160q90 -59 183 -60q94 0 142 71t48 175q0 125 -84 193.5t-276 95.5v170q258 37 258 256 q0 236 -205 235q-176 0 -176 -219v-1120h-211z" />
<glyph unicode="&#xe0;" horiz-adv-x="950" d="M53 287q0 193 138.5 269.5t437.5 98.5v88q0 190 -176 191q-137 0 -330 -86l-49 158q53 35 181 68.5t228 33.5q180 0 266.5 -86t86.5 -270v-494q0 -23 3 -69l7 -104q4 -58 6 -81l-188 -12q-20 68 -27 164q-121 -178 -287 -179q-139 0 -218 83.5t-79 226.5zM217 1499 l213 45l197 -338h-127zM264 309q0 -178 150 -178q117 0 215 168v229q-84 -6 -143.5 -16t-113 -33.5t-81 -66t-27.5 -103.5z" />
<glyph unicode="&#xe1;" horiz-adv-x="950" d="M53 287q0 193 138.5 269.5t437.5 98.5v88q0 190 -176 191q-137 0 -330 -86l-49 158q53 35 181 68.5t228 33.5q180 0 266.5 -86t86.5 -270v-494q0 -23 3 -69l7 -104q4 -58 6 -81l-188 -12q-20 68 -27 164q-121 -178 -287 -179q-139 0 -218 83.5t-79 226.5zM264 309 q0 -178 150 -178q117 0 215 168v229q-84 -6 -143.5 -16t-113 -33.5t-81 -66t-27.5 -103.5zM311 1206l197 338l213 -45l-283 -293h-127z" />
<glyph unicode="&#xe2;" horiz-adv-x="950" d="M53 287q0 193 138.5 269.5t437.5 98.5v88q0 190 -176 191q-137 0 -330 -86l-49 158q53 35 181 68.5t228 33.5q180 0 266.5 -86t86.5 -270v-494q0 -23 3 -69l7 -104q4 -58 6 -81l-188 -12q-20 68 -27 164q-121 -178 -287 -179q-139 0 -218 83.5t-79 226.5zM203 1206 l190 338h144l188 -338h-109l-151 226l-152 -226h-110zM264 309q0 -178 150 -178q117 0 215 168v229q-84 -6 -143.5 -16t-113 -33.5t-81 -66t-27.5 -103.5z" />
<glyph unicode="&#xe3;" horiz-adv-x="950" d="M53 287q0 193 138.5 269.5t437.5 98.5v88q0 190 -176 191q-137 0 -330 -86l-49 158q53 35 181 68.5t228 33.5q180 0 266.5 -86t86.5 -270v-494q0 -23 3 -69l7 -104q4 -58 6 -81l-188 -12q-20 68 -27 164q-121 -178 -287 -179q-139 0 -218 83.5t-79 226.5zM178 1300 q45 156 170 156q53 0 136 -31.5t106 -31.5q51 0 90 65l72 -33q-45 -158 -158 -157q-55 0 -138 30.5t-104 30.5q-53 0 -92 -63zM264 309q0 -178 150 -178q117 0 215 168v229q-84 -6 -143.5 -16t-113 -33.5t-81 -66t-27.5 -103.5z" />
<glyph unicode="&#xe4;" horiz-adv-x="950" d="M53 287q0 193 138.5 269.5t437.5 98.5v88q0 190 -176 191q-137 0 -330 -86l-49 158q53 35 181 68.5t228 33.5q180 0 266.5 -86t86.5 -270v-494q0 -23 3 -69l7 -104q4 -58 6 -81l-188 -12q-20 68 -27 164q-121 -178 -287 -179q-139 0 -218 83.5t-79 226.5zM233 1251v222 h185v-222h-185zM264 309q0 -178 150 -178q117 0 215 168v229q-84 -6 -143.5 -16t-113 -33.5t-81 -66t-27.5 -103.5zM512 1251v222h184v-222h-184z" />
<glyph unicode="&#xe5;" horiz-adv-x="950" d="M53 287q0 193 138.5 269.5t437.5 98.5v88q0 190 -176 191q-137 0 -330 -86l-49 158q53 35 181 68.5t228 33.5q180 0 266.5 -86t86.5 -270v-494q0 -23 3 -69l7 -104q4 -58 6 -81l-188 -12q-20 68 -27 164q-121 -178 -287 -179q-139 0 -218 83.5t-79 226.5zM264 309 q0 -178 150 -178q117 0 215 168v229q-84 -6 -143.5 -16t-113 -33.5t-81 -66t-27.5 -103.5zM299 1390.5q0 75.5 55.5 131t128.5 55.5q78 0 132.5 -54.5t54.5 -132t-54.5 -131t-132.5 -53.5q-76 0 -130 54.5t-54 130zM397 1391q0 -35 26 -60.5t60 -25.5q37 0 63.5 25.5 t26.5 60.5q0 37 -26.5 63.5t-63.5 26.5q-35 0 -60.5 -26.5t-25.5 -63.5z" />
<glyph unicode="&#xe6;" horiz-adv-x="1501" d="M53 287q0 193 138.5 269.5t437.5 98.5v88q0 188 -176 189q-141 0 -330 -84l-49 158q47 33 158.5 64.5t205.5 35.5h23q93 0 174 -30q90 -34 115 -111q100 143 299 143q207 0 300 -119t93 -346q0 -86 -10 -162h-588q4 -334 246 -334q133 0 290 72l52 -156 q-63 -37 -169 -62.5t-198 -25.5q-252 0 -358 199q-123 -197 -338 -197q-145 0 -230.5 83.5t-85.5 226.5zM264 309q0 -86 41 -133q39 -45 107 -45h6q139 2 211 201l-2 196q-174 -10 -268.5 -56t-94.5 -163zM844 612l389 2q2 14 2 52q0 141 -40 211.5t-146 70.5 q-201 0 -205 -336z" />
<glyph unicode="&#xe7;" horiz-adv-x="792" d="M59 543q0 279 92.5 422t313.5 143q84 0 167 -23.5t116 -52.5l-54 -158q-100 55 -198 56q-119 0 -168 -101.5t-49 -285.5q0 -190 47 -288.5t168 -98.5q96 0 206 51l50 -156q-37 -27 -118 -48t-151 -26v-75q113 0 168.5 -38t55.5 -124q0 -92 -57.5 -131t-170.5 -39h-153 v102h157q100 0 101 64q0 39 -27 52t-92 13h-80v183q-176 25 -250 166t-74 393z" />
<glyph unicode="&#xe8;" horiz-adv-x="931" d="M59 541q0 268 103.5 417.5t316.5 149.5q209 0 302 -119t93 -346q0 -100 -12 -162h-586q4 -334 246 -334q133 0 291 72l51 -156q-61 -35 -167.5 -60.5t-200.5 -25.5q-437 1 -437 564zM233 1499l213 45l197 -338h-127zM276 612l386 2q2 14 2 52q0 141 -39 211.5t-146 70.5 q-199 0 -203 -336z" />
<glyph unicode="&#xe9;" horiz-adv-x="931" d="M59 541q0 268 103.5 417.5t316.5 149.5q209 0 302 -119t93 -346q0 -100 -12 -162h-586q4 -334 246 -334q133 0 291 72l51 -156q-61 -35 -167.5 -60.5t-200.5 -25.5q-437 1 -437 564zM276 612l386 2q2 14 2 52q0 141 -39 211.5t-146 70.5q-199 0 -203 -336zM363 1206 l196 338l213 -45l-283 -293h-126z" />
<glyph unicode="&#xea;" horiz-adv-x="931" d="M59 541q0 268 103.5 417.5t316.5 149.5q209 0 302 -119t93 -346q0 -100 -12 -162h-586q4 -334 246 -334q133 0 291 72l51 -156q-61 -35 -167.5 -60.5t-200.5 -25.5q-437 1 -437 564zM215 1206l191 338h143l188 -338h-108l-152 226l-151 -226h-111zM276 612l386 2 q2 14 2 52q0 141 -39 211.5t-146 70.5q-199 0 -203 -336z" />
<glyph unicode="&#xeb;" horiz-adv-x="931" d="M59 541q0 268 103.5 417.5t316.5 149.5q209 0 302 -119t93 -346q0 -100 -12 -162h-586q4 -334 246 -334q133 0 291 72l51 -156q-61 -35 -167.5 -60.5t-200.5 -25.5q-437 1 -437 564zM276 612l386 2q2 14 2 52q0 141 -39 211.5t-146 70.5q-199 0 -203 -336zM276 1251v222 h185v-222h-185zM555 1251v222h184v-222h-184z" />
<glyph unicode="&#xec;" horiz-adv-x="444" d="M-102 1499l213 45l196 -338h-127zM117 0v1083h211v-1083h-211z" />
<glyph unicode="&#xed;" horiz-adv-x="444" d="M104 1206l197 338l213 -45l-283 -293h-127zM117 0v1083h211v-1083h-211z" />
<glyph unicode="&#xee;" horiz-adv-x="444" d="M-35 1206l191 338h143l188 -338h-108l-152 226l-151 -226h-111zM117 0v1083h211v-1083h-211z" />
<glyph unicode="&#xef;" horiz-adv-x="444" d="M-27 1251v222h185v-222h-185zM117 0v1083h211v-1083h-211zM252 1251v222h184v-222h-184z" />
<glyph unicode="&#xf0;" horiz-adv-x="1021" d="M49 492q0 201 102.5 323.5t274.5 122.5q174 0 305 -174q-8 176 -98 358l-217 -75l-58 157l189 66q-70 106 -170 203l186 57q86 -88 162 -197l199 70l55 -158l-164 -57q141 -270 141 -555q0 -299 -113.5 -478.5t-336.5 -179.5q-213 0 -335 136.5t-122 380.5zM270 494 q0 -156 58.5 -250t165.5 -94q238 0 237 466q-113 170 -244 170q-109 0 -163 -81.5t-54 -210.5z" />
<glyph unicode="&#xf1;" horiz-adv-x="1003" d="M117 0v1083h202l-8 -149q133 174 291 174q162 0 230.5 -96.5t68.5 -280.5v-731h-211v694q0 121 -31.5 181.5t-115.5 60.5q-61 0 -118.5 -44t-96.5 -110v-782h-211zM205 1300q45 156 170 156q53 0 136 -31.5t105 -31.5q51 0 91 65l71 -33q-45 -158 -157 -157 q-55 0 -138.5 30.5t-103.5 30.5q-53 0 -92 -63z" />
<glyph unicode="&#xf2;" horiz-adv-x="980" d="M59 539q0 569 430 569q432 0 433 -569q0 -563 -433 -564q-430 1 -430 564zM262 1499l213 45l197 -338h-127zM279 538.5q0 -198.5 46 -298t164 -99.5q117 0 165 100.5t48 297.5q0 199 -47 302t-166 103q-117 0 -163.5 -103.5t-46.5 -302z" />
<glyph unicode="&#xf3;" horiz-adv-x="980" d="M59 539q0 -563 430 -564q432 0 433 564q0 569 -433 569q-430 0 -430 -569zM279 538.5q0 198.5 47 302t163 103.5q119 0 166 -103.5t47 -301.5q0 -197 -48 -297.5t-165 -100.5q-119 0 -164.5 99.5t-45.5 298zM406 1206l196 338l213 -45l-283 -293h-126z" />
<glyph unicode="&#xf4;" horiz-adv-x="980" d="M59 539q0 -563 430 -564q432 0 433 564q0 569 -433 569q-430 0 -430 -569zM231 1206l191 338h143l189 -338h-109l-151 226l-152 -226h-111zM279 538.5q0 198.5 47 302t163 103.5q119 0 166 -103.5t47 -301.5q0 -197 -48 -297.5t-165 -100.5q-119 0 -164.5 99.5t-45.5 298 z" />
<glyph unicode="&#xf5;" horiz-adv-x="980" d="M59 539q0 -563 430 -564q432 0 433 564q0 569 -433 569q-430 0 -430 -569zM231 1300q45 156 170 156q53 0 136.5 -31.5t105.5 -31.5q51 0 90 65l72 -33q-45 -158 -158 -157q-55 0 -138 30.5t-103 30.5q-53 0 -93 -63zM279 538.5q0 198.5 47 302t163 103.5 q119 0 166 -103.5t47 -301.5q0 -197 -48 -297.5t-165 -100.5q-119 0 -164.5 99.5t-45.5 298z" />
<glyph unicode="&#xf6;" horiz-adv-x="980" d="M59 539q0 569 430 569q432 0 433 -569q0 -563 -433 -564q-430 1 -430 564zM262 1251v222h184v-222h-184zM279 538.5q0 -198.5 46 -298t164 -99.5q117 0 165 100.5t48 297.5q0 199 -47 302t-166 103q-117 0 -163.5 -103.5t-46.5 -302zM541 1251v222h184v-222h-184z" />
<glyph unicode="&#xf7;" horiz-adv-x="1034" d="M115 530v164h798v-164h-798zM416 154v241h190v-241h-190zM416 838v241h190v-241h-190z" />
<glyph unicode="&#xf8;" horiz-adv-x="980" d="M59 539q0 569 430 569q74 0 136 -18l49 161h114l-61 -207q195 -127 195 -505q0 -563 -433 -564q-43 0 -79 7l-41 -142h-115l49 168q-244 103 -244 531zM279 539q0 -264 79 -346l217 731q-41 20 -86 20q-117 0 -163.5 -103t-46.5 -302zM459 143q10 -2 30 -2 q117 0 165 100.5t48 297.5q0 184 -40 286z" />
<glyph unicode="&#xf9;" horiz-adv-x="1007" d="M106 350v733h209v-721q0 -213 158 -212q57 0 114.5 43t92.5 102v788h209v-1083h-180l-17 143q-123 -166 -289 -166q-297 0 -297 373zM231 1499l213 45l197 -338h-127z" />
<glyph unicode="&#xfa;" horiz-adv-x="1007" d="M106 350v733h209v-721q0 -213 158 -212q57 0 114.5 43t92.5 102v788h209v-1083h-180l-17 143q-123 -166 -289 -166q-297 0 -297 373zM354 1206l197 338l213 -45l-283 -293h-127z" />
<glyph unicode="&#xfb;" horiz-adv-x="1007" d="M106 350v733h209v-721q0 -213 158 -212q57 0 114.5 43t92.5 102v788h209v-1083h-180l-17 143q-123 -166 -289 -166q-297 0 -297 373zM225 1206l191 338h143l189 -338h-109l-152 226l-151 -226h-111z" />
<glyph unicode="&#xfc;" horiz-adv-x="1007" d="M106 350v733h209v-721q0 -213 158 -212q57 0 114.5 43t92.5 102v788h209v-1083h-180l-17 143q-123 -166 -289 -166q-297 0 -297 373zM256 1251v222h184v-222h-184zM535 1251v222h184v-222h-184z" />
<glyph unicode="&#xfd;" horiz-adv-x="903" d="M39 1083h227q92 -498 191 -901h10q86 356 184 901h230q-137 -655 -271 -1083q-70 -223 -150.5 -319.5t-236.5 -96.5q-39 0 -99.5 12.5t-78.5 26.5l37 158q66 -29 129 -29q76 0 117 57.5t75 190.5h-86q-102 305 -278 1083zM375 1206l196 338l213 -45l-282 -293h-127z" />
<glyph unicode="&#xfe;" horiz-adv-x="997" d="M117 -406v1899l205 29v-439l-13 -149l4 -2q45 74 116 125t153 51q197 0 277.5 -146.5t80.5 -406.5q0 -270 -95 -425t-298 -155q-123 0 -232 74l13 -135v-303zM328 203q74 -61 161 -62q231 0 232 414q0 186 -43 284.5t-156 98.5q-59 0 -113.5 -48t-80.5 -114v-573z" />
<glyph unicode="&#xff;" horiz-adv-x="903" d="M39 1083h227q92 -498 191 -901h10q86 356 184 901h230q-137 -655 -271 -1083q-70 -223 -150.5 -319.5t-236.5 -96.5q-39 0 -99.5 12.5t-78.5 26.5l37 158q66 -29 129 -29q76 0 117 57.5t75 190.5h-86q-102 305 -278 1083zM233 1251v222h185v-222h-185zM512 1251v222h184 v-222h-184z" />
<glyph unicode="&#x152;" horiz-adv-x="1763" d="M76 731q0 764 534 764q229 0 338 -186v159h731l-18 -188h-502v-446h449v-170h-449v-476h531v-188h-742v158q-111 -190 -338 -191q-534 0 -534 764zM313 731.5q0 -280.5 69 -425t228.5 -144.5t225 143.5t65.5 426t-65.5 425.5t-225 143t-228.5 -144t-69 -424.5z" />
<glyph unicode="&#x153;" horiz-adv-x="1579" d="M59 539q0 569 430 569q219 0 326 -172q98 172 309 172q209 0 302.5 -119t93.5 -346q0 -86 -11 -162h-587q2 -158 57 -246t188 -88t291 72l51 -156q-61 -35 -167.5 -60.5t-198.5 -25.5q-229 0 -328 168q-106 -170 -326 -170q-430 1 -430 564zM279 538.5q0 -198.5 46 -299 t164.5 -100.5t167 102.5t48.5 301.5q0 197 -49.5 299t-166 102t-163.5 -103.5t-47 -302zM922 612l387 2q2 14 2 52q0 141 -40 211.5t-147 70.5q-198 0 -202 -336z" />
<glyph unicode="&#x178;" horiz-adv-x="1040" d="M18 1468h238l260 -671h8l260 671h240q-231 -535 -391 -860v-608h-227v608q-202 411 -388 860zM291 1636v222h184v-222h-184zM569 1636v222h185v-222h-185z" />
<glyph unicode="&#x2c6;" horiz-adv-x="1024" d="M250 1206l190 338h144l188 -338h-108l-152 226l-152 -226h-110z" />
<glyph unicode="&#x2dc;" horiz-adv-x="1024" d="M225 1300q45 156 170 156q53 0 136 -31.5t106 -31.5q51 0 90 65l72 -33q-45 -158 -158 -157q-55 0 -138 30.5t-104 30.5q-53 0 -92 -63z" />
<glyph unicode="&#x2013;" horiz-adv-x="1024" d="M0 524v150h1024v-150h-1024z" />
<glyph unicode="&#x2014;" horiz-adv-x="2048" d="M0 524v150h2046v-150h-2046z" />
<glyph unicode="&#x2018;" horiz-adv-x="403" d="M80 1059l137 459l127 -23l-63 -436h-201z" />
<glyph unicode="&#x2019;" horiz-adv-x="403" d="M80 1034l63 436h201l-137 -458z" />
<glyph unicode="&#x201a;" horiz-adv-x="403" d="M57 -195l64 437h201l-138 -459z" />
<glyph unicode="&#x201c;" horiz-adv-x="716" d="M205 1059l137 459l68 -13l4 13l127 -23l-64 -436h-272z" />
<glyph unicode="&#x201d;" horiz-adv-x="716" d="M203 1034l63 436h271l-138 -458l-67 10l-2 -10z" />
<glyph unicode="&#x201e;" horiz-adv-x="716" d="M178 -195l64 437h270l-137 -459l-68 12l-2 -12z" />
<glyph unicode="&#x2022;" horiz-adv-x="798" />
<glyph unicode="&#x2026;" horiz-adv-x="1425" d="M96 0v242h191v-242h-191zM618 0v242h191v-242h-191zM1141 0v242h190v-242h-190z" />
<glyph unicode="&#x2039;" horiz-adv-x="636" d="M96 545v20l277 439h200l-282 -449l282 -449h-200z" />
<glyph unicode="&#x203a;" horiz-adv-x="636" d="M66 106l282 449l-282 449h200l277 -439v-20l-277 -439h-200z" />
<glyph unicode="&#x20ac;" horiz-adv-x="1034" d="M-12 565v113h137v74v22h-137v113h141q45 610 512 610q92 0 193.5 -29.5t148.5 -68.5l-51 -170q-137 74 -270 74q-262 0 -295 -416h518l-29 -113h-494v-22v-74h474l-29 -113h-438q37 -403 295 -403q131 0 282 88l55 -170q-66 -47 -169 -80t-197 -33q-250 0 -366.5 153.5 t-137.5 444.5h-143z" />
<glyph unicode="&#x2122;" horiz-adv-x="1744" d="M76 1335v133h864l219 -610l201 610h221v-886h-170v606l-188 -578h-142l-207 564v-592h-161v753h-219v-753h-181v753h-237z" />
<glyph unicode="&#xe000;" horiz-adv-x="1085" d="M0 1085h1085v-1085h-1085v1085z" />
<glyph unicode="&#xfb01;" horiz-adv-x="997" d="M27 924l2 125l98 30v101q0 354 334 354q207 0 368 -100l-59 -148q-158 76 -285 76q-150 0 -149 -186v-93h545v-1083h-207v924h-338v-924h-209v924h-100z" />
<glyph unicode="&#xfb02;" horiz-adv-x="1011" d="M27 924v125l100 30v115q0 338 305 338q125 0 281 -35l182 19v-1516h-209v1327q-102 35 -211 35q-139 0 -139 -186v-93h213v-159h-213v-924h-209v924h-100z" />
<glyph unicode="&#xfb03;" horiz-adv-x="1660" d="M29 922v127l100 30v113q0 340 293 340q131 0 194 -37l-28 -156q-51 23 -121 23q-72 0 -100.5 -46t-28.5 -142v-91h237v-161h-237v-922h-209v922h-100zM637 922v127l100 30v113q0 340 293 340q131 0 195 -37l-29 -156q-51 23 -121 23q-72 0 -100.5 -46t-28.5 -142v-91h238 v-161h-238v-922h-209v922h-100zM1329 1245v217h219v-217h-219zM1333 0v1083h211v-1083h-211z" />
<glyph unicode="&#xfb04;" horiz-adv-x="1660" d="M29 922v127l100 30v113q0 340 293 340q131 0 194 -37l-28 -156q-51 23 -121 23q-72 0 -100.5 -46t-28.5 -142v-91h237v-161h-237v-922h-209v922h-100zM637 922v127l100 30v113q0 340 293 340q131 0 195 -37l-29 -156q-51 23 -121 23q-72 0 -100.5 -46t-28.5 -142v-91h238 v-161h-238v-922h-209v922h-100zM1333 0v1493l211 25v-1518h-211z" />
<glyph horiz-adv-x="0" />
</font>
</defs>
</svg>
