<?xml version="1.0" standalone="no"?>
<!DOCTYPE svg PUBLIC "-//W3C//DTD SVG 1.1//EN" "http://www.w3.org/Graphics/SVG/1.1/DTD/svg11.dtd" >
<svg xmlns="http://www.w3.org/2000/svg">
<metadata>
This is a custom SVG webfont generated by Font Squirrel.
Copyright   : Copyright c 2007 by Leftloft  Molotro All rights reserved
Designer    : Leftloft  Molotro
Foundry     : Leftloft  Molotro
</metadata>
<defs>
<font id="BreraCondensedSemiBoldItalic" horiz-adv-x="520" >
<font-face units-per-em="1000" ascent="759" descent="-241" />
<missing-glyph horiz-adv-x="162" />
<glyph unicode=" "  horiz-adv-x="162" />
<glyph unicode="&#x09;" horiz-adv-x="162" />
<glyph unicode="&#xa0;" horiz-adv-x="162" />
<glyph unicode="!" horiz-adv-x="247" d="M70 0l14 122h107l-15 -122h-106zM266 710l-37 -297l-38 -226h-90q15 222 16 226l36 297h113z" />
<glyph unicode="&#x22;" horiz-adv-x="323" d="M235 717h93l-45 -219h-58zM92 717h93l-45 -219h-58z" />
<glyph unicode="#" horiz-adv-x="709" d="M734 504l-29 -76h-121l-52 -150h121l-27 -75h-122l-71 -203h-96l68 203h-136l-70 -203h-96l69 203h-119l27 75h120l52 150h-119l27 76h120l74 205h96l-72 -205h136l74 205h97l-72 -205h121zM487 428h-138l-52 -150h137z" />
<glyph unicode="$" d="M308 775h100l-11 -85q55 -12 128 -55l-47 -83q-90 49 -150 49q-39 0 -67 -21t-28 -65q0 -32 30.5 -60t108.5 -77q113 -73 113 -172q0 -81 -48 -133.5t-123 -66.5l-10 -89h-100l10 88q-63 11 -142 68l45 83q49 -33 84.5 -47t78.5 -14q46 0 71.5 27.5t25.5 66.5 q0 32 -23.5 62.5t-93.5 70.5q-73 42 -103.5 86t-30.5 102q0 74 47 122.5t124 60.5z" />
<glyph unicode="%" horiz-adv-x="824" d="M638 64q83 0 83 180q0 75 -51 75q-82 0 -82 -181q0 -36 10 -55t40 -19zM629 -13q-65 0 -99 39.5t-34 106.5q0 145 57 211q47 53 126 53q69 0 102 -41.5t33 -112.5q0 -143 -60 -208q-43 -48 -125 -48zM196 -1l396 732h105l-396 -732h-105zM213 398q83 0 83 180 q0 75 -51 75q-82 0 -82 -181q0 -36 10 -55t40 -19zM204 321q-65 0 -99 39.5t-34 106.5q0 145 57 211q47 53 126 53q69 0 102 -41.5t33 -112.5q0 -143 -60 -208q-43 -48 -125 -48z" />
<glyph unicode="&#x26;" horiz-adv-x="585" d="M519 298l73 -43q-42 -72 -104 -132l75 -125l-108 1l-32 60q-35 -31 -87 -51t-102 -20q-80 0 -128.5 40t-48.5 111q0 68 43.5 123.5t148.5 121.5q-59 100 -59 171q0 66 49.5 109t128.5 43q66 0 103 -34.5t37 -82.5q0 -67 -43.5 -118t-114.5 -98l93 -181q42 46 76 105z M161 158q0 -39 23.5 -62t67.5 -23q68 0 135 57l-103 193q-123 -89 -123 -165zM406 581q0 56 -49 56q-34 0 -53.5 -26t-19.5 -69q0 -49 36 -118q86 65 86 157z" />
<glyph unicode="'" horiz-adv-x="180" d="M92 717h93l-45 -219h-58z" />
<glyph unicode="(" horiz-adv-x="333" d="M283 754l88 -11q-169 -243 -169 -555q0 -176 62 -319l-91 -12q-76 146 -76 354q0 138 48.5 283.5t137.5 259.5z" />
<glyph unicode=")" horiz-adv-x="326" d="M132 743l91 11q78 -139 78 -324q0 -152 -49 -302t-140 -271l-88 12q81 121 126.5 271t45.5 282q0 186 -64 321z" />
<glyph unicode="*" horiz-adv-x="473" d="M194 329l51 131l-132 -49l-16 72l140 37l-99 93l54 52l90 -97l36 133l74 -16l-50 -130l132 49l18 -69l-139 -41l97 -92l-60 -51l-82 97l-40 -135z" />
<glyph unicode="+" d="M85 256l10 77h158l22 177h82l-22 -177h160l-9 -77h-160l-22 -180h-82l22 180h-159z" />
<glyph unicode="," horiz-adv-x="177" d="M10 -91l57 209h97l-94 -221z" />
<glyph unicode="-" horiz-adv-x="424" d="M108 256l9 77h272l-10 -77h-271z" />
<glyph unicode="." horiz-adv-x="174" d="M41 0l14 118h90l-14 -118h-90z" />
<glyph unicode="/" horiz-adv-x="366" d="M376 717l-208 -717h-108l208 717h108z" />
<glyph unicode="0" d="M255 -10q-94 0 -133 59t-39 168t21 217.5t58 168.5q34 54 77.5 78.5t103.5 24.5q170 0 170 -219q0 -119 -26 -246t-80 -185q-62 -66 -152 -66zM334 627q-45 0 -74 -43q-33 -48 -52 -169t-19 -214q0 -31 2 -50.5t9 -40.5t23.5 -31t41.5 -10q54 0 85 67q23 49 40 171.5 t17 189.5q0 32 -2 51t-8.5 39.5t-22 30t-40.5 9.5z" />
<glyph unicode="1" d="M346 698h72l-76 -621l57 5h40l-10 -82h-297l10 81h40l58 -4l43 352l20 137q-46 -36 -106 -57l-13 80q96 46 162 109z" />
<glyph unicode="2" d="M75 0l9 78l202 234q110 127 110 218q0 41 -19.5 60.5t-62.5 19.5q-57 0 -144 -74l-36 76q33 33 92 63.5t114 30.5q77 0 121.5 -40.5t44.5 -112.5q0 -121 -128 -269l-173 -200l125 4h128l-11 -88h-372z" />
<glyph unicode="3" d="M324 706q75 0 123 -37.5t48 -110.5q0 -64 -38 -115.5t-99 -77.5l-1 -3q123 -26 123 -147q0 -99 -69.5 -163.5t-177.5 -64.5q-51 0 -102 18t-80 40l40 76q73 -46 140 -46q62 0 101 40t39 105q0 96 -118 99q-32 -8 -66 -14l-4 76q203 29 203 154q0 83 -87 83 q-58 0 -148 -43l-19 73q97 58 192 58z" />
<glyph unicode="4" d="M345 698h107l-219 -404l-59 -94h170l31 218l90 8l-28 -226h85l-17 -85h-78l-15 -123l-95 -6l16 129h-261l10 80z" />
<glyph unicode="5" d="M261 612l-46 -205h3q42 42 107 42q72 0 114.5 -48t42.5 -128q0 -115 -71 -201.5t-186 -86.5q-104 0 -174 56l45 82q59 -45 132 -45q66 0 105.5 52.5t39.5 125.5q0 109 -89 109q-23 0 -48.5 -13t-41.5 -30l-80 8l72 368h322l-18 -86h-229z" />
<glyph unicode="6" d="M538 649l-37 -71q-68 40 -121 40q-75 0 -115 -62.5t-57 -174.5q57 66 142 66q70 0 108 -44t38 -120t-23 -140t-79.5 -109t-138.5 -45q-84 0 -125.5 62t-41.5 168q0 90 24.5 200t69.5 178q73 109 198 109q50 0 95 -17.5t63 -39.5zM200 307q-6 -56 -6 -100q0 -31 2 -51.5 t9.5 -41.5t24 -31t42.5 -10q41 0 69 36t38.5 80t10.5 90q0 95 -79 95q-62 0 -111 -67z" />
<glyph unicode="7" d="M123 603l12 95h412l-11 -88q-110 -132 -182.5 -290t-90.5 -320h-118q21 154 101 318.5t184 279.5l1 5h-308z" />
<glyph unicode="8" d="M526 559q0 -62 -32.5 -111.5t-90.5 -79.5v-3q99 -50 99 -147q0 -103 -66 -167t-175 -64q-91 0 -140.5 46t-49.5 119q0 148 144 216v2q-40 20 -62 57t-22 82q0 89 63 143t156 54q77 0 126.5 -39t49.5 -108zM272 68q52 0 87 44.5t35 100.5q0 86 -113 116q-45 -17 -75 -61 t-30 -97q0 -103 96 -103zM337 400q35 21 60.5 60t25.5 83q0 43 -22 65.5t-60 22.5q-46 0 -76.5 -33t-30.5 -85q0 -41 23 -68t80 -45z" />
<glyph unicode="9" d="M55 47l37 72q72 -41 121 -41q75 0 115 63t57 175q-55 -66 -142 -66q-70 0 -108 44t-38 119q0 56 14 106.5t41.5 93.5t75.5 68.5t111 25.5q84 0 125.5 -62t41.5 -168q0 -90 -24.5 -200t-70.5 -178q-72 -109 -197 -109q-51 0 -96 17.5t-63 39.5zM393 389q6 56 6 101 q0 31 -2 51t-9.5 41t-23.5 31t-42 10q-41 0 -69.5 -36t-39 -80t-10.5 -89q0 -96 80 -96q59 0 110 67z" />
<glyph unicode=":" horiz-adv-x="171" d="M83 345l14 118h90l-14 -118h-90zM41 0l14 118h90l-14 -118h-90z" />
<glyph unicode=";" horiz-adv-x="173" d="M2 -91l57 209h97l-94 -221zM89 345l14 118h90l-14 -118h-90z" />
<glyph unicode="&#x3c;" d="M89 297l6 59l434 252l-12 -101l-327 -182l281 -188l-12 -96z" />
<glyph unicode="=" d="M68 147l9 77h415l-9 -77h-415zM96 371l9 77h415l-10 -77h-414z" />
<glyph unicode="&#x3e;" d="M503 356l-6 -59l-429 -256l13 100l323 191l-285 179l12 98z" />
<glyph unicode="?" horiz-adv-x="454" d="M282 624q-66 0 -147 -59l-32 74q32 28 86 53t113 25q80 0 129 -42.5t49 -117.5q0 -54 -22 -97.5t-54 -70.5t-63.5 -51t-53.5 -52t-22 -60q0 -22 1 -35h-93q-3 24 -3 53q0 40 20.5 73.5t49.5 57.5l58 47t49.5 54t20.5 66q0 82 -86 82zM149 0l14 118h105l-14 -118h-105z " />
<glyph unicode="@" horiz-adv-x="879" d="M895 389q0 -92 -30.5 -179t-89.5 -145.5t-131 -58.5q-48 0 -74.5 27.5t-34.5 62.5q0 2 -0.5 7t-0.5 8q-10 -18 -16 -27t-20.5 -26.5t-28 -27t-35 -17.5t-45.5 -8q-123 0 -123 140q0 55 17 115t48 114.5t82 89.5t112 35q56 0 82 -46l19 35h76l-83 -295q-11 -40 -11 -60 q0 -56 48 -56q33 0 68 44t58 114.5t23 140.5q0 118 -54 177t-184 59q-125 0 -224 -68t-150 -175t-51 -230q0 -127 62 -188t163 -61t202 54l5 -78q-111 -54 -227 -54q-127 0 -213.5 84t-86.5 240q0 157 68 284t188 199t267 72q160 0 242.5 -82t82.5 -220zM419 76 q35 0 63.5 36.5t35.5 63.5l65 224q-4 13 -19.5 22t-35.5 9q-46 0 -83.5 -48t-56 -111t-18.5 -120q0 -76 49 -76z" />
<glyph unicode="A" horiz-adv-x="513" d="M273 717h138l91 -717h-113l-19 170h-188l-58 -170h-113zM301 522l-94 -270h158l-23 270q-5 65 -5 108h-6q-15 -65 -30 -108z" />
<glyph unicode="B" d="M515 227q0 -107 -68.5 -167t-180.5 -60h-204l87 717h196q90 0 140 -39t50 -117q0 -139 -121 -186l-1 -3q102 -32 102 -145zM220 405h77q57 0 91.5 37t34.5 94q0 48 -25.5 68.5t-74.5 20.5h-76zM263 92q65 0 103.5 38t38.5 104q0 94 -109 94h-85l-29 -236h81z" />
<glyph unicode="C" horiz-adv-x="428" d="M407 109l10 -84q-26 -16 -74 -28.5t-86 -12.5q-102 0 -143 57t-41 166q0 524 273 524q44 0 89 -13t61 -26l-34 -83q-56 27 -108 27q-46 0 -73 -27q-36 -37 -64 -133t-28 -251q0 -70 20.5 -108t76.5 -38q48 0 121 30z" />
<glyph unicode="D" horiz-adv-x="547" d="M62 0l87 717h170q129 0 185 -65t56 -193q0 -64 -8 -124t-29.5 -122.5t-55 -108t-90 -75t-128.5 -29.5h-187zM182 91h62q80 0 124 52q36 43 56 134.5t20 180.5q0 88 -27.5 128t-106.5 40h-63z" />
<glyph unicode="E" horiz-adv-x="421" d="M408 91l-11 -91h-335l87 717h331l-19 -91h-214l-27 -221h190l-10 -81h-190l-28 -233h226z" />
<glyph unicode="F" horiz-adv-x="396" d="M172 0h-110l87 717h323l-18 -91h-206l-30 -242h183l-11 -86h-182z" />
<glyph unicode="G" horiz-adv-x="512" d="M310 284l11 78h188l-41 -329q-90 -49 -191 -49q-50 0 -86.5 13.5t-59 36.5t-35.5 58t-18 71.5t-5 83.5q0 57 6 111t18.5 110t35.5 102t54 83t77 57.5t102 20.5q59 0 108.5 -14.5t70.5 -34.5l-29 -83q-87 37 -153 37q-51 0 -88.5 -43.5t-54.5 -110.5t-24.5 -124t-7.5 -106 q0 -83 22 -128t81 -45q51 0 90 21l23 184h-94z" />
<glyph unicode="H" horiz-adv-x="541" d="M479 0h-109l39 321h-199l-39 -321h-109l87 717h109l-37 -307h199l37 307h109z" />
<glyph unicode="I" horiz-adv-x="233" d="M149 717h109l-87 -717h-109z" />
<glyph unicode="J" horiz-adv-x="285" d="M148 222l61 495h109l-61 -500q-8 -66 -17 -103t-28 -69t-51.5 -45t-83.5 -13q-40 0 -69 7l15 88q17 -3 34 -3q43 0 62 29t29 114z" />
<glyph unicode="K" horiz-adv-x="483" d="M328 359l151 -359h-118l-138 357l1 7l225 353h118zM258 717l-87 -717h-109l87 717h109z" />
<glyph unicode="L" horiz-adv-x="408" d="M258 717l-77 -631h225l-18 -86h-326l87 717h109z" />
<glyph unicode="M" horiz-adv-x="684" d="M394 24h-87l-80 522h-3l-67 -546h-95l87 717h147l78 -521h4l194 521h138l-87 -717h-96l66 546h-4z" />
<glyph unicode="N" horiz-adv-x="573" d="M599 717l-87 -717h-131l-155 552h-5l-61 -552h-98l87 717h136l150 -544h5l61 544h98z" />
<glyph unicode="O" horiz-adv-x="547" d="M355 636q-67 0 -102 -62q-32 -56 -49 -156.5t-17 -185.5q0 -74 20.5 -113.5t75.5 -39.5q67 0 101 64q31 55 46.5 155.5t15.5 189.5q0 72 -18.5 110t-72.5 38zM280 -16q-114 0 -160.5 64.5t-46.5 177.5q0 297 100 421q67 84 190 84q109 0 154 -65t45 -184 q0 -128 -25 -242.5t-79 -178.5q-67 -77 -178 -77z" />
<glyph unicode="P" horiz-adv-x="493" d="M420 519q0 60 -28 86t-88 26h-56l-38 -305h53q82 0 119.5 53t37.5 140zM200 245l-29 -245h-109l87 717h137q128 0 186.5 -40.5t58.5 -142.5q0 -154 -74 -221.5t-211 -67.5h-46z" />
<glyph unicode="Q" horiz-adv-x="547" d="M266 -16q-194 0 -194 244q0 130 25.5 246.5t78.5 176.5q69 80 188 80q113 0 155.5 -62.5t42.5 -181.5q0 -65 -7 -130t-24.5 -138t-53.5 -128.5t-87 -76.5l111 -82l-82 -70l-119 125q-10 -3 -34 -3zM352 636q-58 0 -91 -47q-38 -50 -56.5 -160t-18.5 -199q0 -73 20.5 -112 t77.5 -39q60 0 96 60q30 51 48.5 153t18.5 196q0 77 -20.5 112.5t-74.5 35.5z" />
<glyph unicode="R" horiz-adv-x="497" d="M416 530q0 53 -24.5 77t-87.5 24h-57l-34 -280h74q65 0 97 53t32 126zM171 0h-109l87 717h139q122 0 181 -40t59 -135q0 -82 -35 -149.5t-100 -96.5l79 -296h-114l-66 277q-10 -2 -88 -2z" />
<glyph unicode="S" horiz-adv-x="463" d="M499 674l-34 -88q-87 50 -157 50q-49 0 -77.5 -28t-28.5 -74q0 -37 27 -63t112 -81q69 -45 95.5 -88t26.5 -98q0 -37 -11 -73.5t-34.5 -70.5t-67.5 -55t-102 -21q-103 0 -216 70l45 88q100 -63 163 -63q50 0 79 31t29 78q0 37 -23 62.5t-97 70.5t-105.5 88t-31.5 108 q0 89 55 151.5t154 62.5q48 0 106.5 -17t92.5 -40z" />
<glyph unicode="T" horiz-adv-x="456" d="M107 717h412l-11 -90h-147l-76 -627h-110l76 627h-156z" />
<glyph unicode="U" horiz-adv-x="526" d="M142 717h107l-59 -469q-6 -54 -6 -79q0 -90 89 -90q60 0 85.5 39t34.5 112l60 487h107l-59 -478q-15 -125 -68.5 -188t-170.5 -63q-183 0 -183 177q0 39 7 98z" />
<glyph unicode="V" horiz-adv-x="479" d="M443 717h112q-131 -432 -236 -717h-157q-44 323 -63 717h119q12 -391 35 -630h5q95 288 185 630z" />
<glyph unicode="W" horiz-adv-x="734" d="M376 717h106q2 -45 7 -193.5t10.5 -263t10.5 -171.5h5q34 101 94.5 308t87.5 320h109q-27 -107 -103 -333.5l-133 -383.5h-137q-20 188 -30 347h-5q-34 -125 -123 -347h-130q-13 127 -28.5 362.5t-17.5 354.5h112q6 -444 20 -628h4q65 178 153 469z" />
<glyph unicode="X" horiz-adv-x="497" d="M103 717h118l88 -269h4l145 269h110q-21 -48 -211 -363q21 -51 73.5 -189.5t59.5 -164.5h-114l-97 274h-5l-154 -274h-115q19 36 116 193l106 172q-100 259 -124 352z" />
<glyph unicode="Y" horiz-adv-x="466" d="M92 717h115l69 -332h4l153 332h116q-135 -265 -225 -418l-36 -299h-110l36 299q-60 179 -122 418z" />
<glyph unicode="Z" horiz-adv-x="436" d="M106 626l11 91h394l-10 -77l-357 -549h295l-11 -91h-414l9 77l353 549h-270z" />
<glyph unicode="[" horiz-adv-x="319" d="M261 -150h-199l118 960h199l-11 -89h-97l-96 -782h97z" />
<glyph unicode="\" horiz-adv-x="428" d="M303 0l-208 717h108l208 -717h-108z" />
<glyph unicode="]" horiz-adv-x="326" d="M221 -150h-199l11 89h97l96 782h-97l11 89h199z" />
<glyph unicode="^" horiz-adv-x="494" d="M523 427h-112l-77 263l-147 -263h-112l220 353h98z" />
<glyph unicode="_" horiz-adv-x="500" d="M-14 -117l5 37h499l-5 -37h-499z" />
<glyph unicode="`" horiz-adv-x="500" d="M422 589h-60l-114 143l105 22z" />
<glyph unicode="a" horiz-adv-x="433" d="M443 514l-45 -367q-8 -64 -8 -145l-82 -4q0 7 -0.5 38.5t-1 53t0.5 40.5q-50 -140 -134 -140q-62 0 -90.5 53.5t-28.5 143.5q0 67 12.5 125.5t40.5 111.5t81.5 84t127.5 31q70 0 127 -25zM283 462q-38 0 -65 -27.5t-40.5 -71t-19 -85t-5.5 -82.5q0 -118 57 -118 q29 0 58 51t42 97l31 227q-23 9 -58 9z" />
<glyph unicode="b" horiz-adv-x="453" d="M222 68q51 0 80 33q27 30 42 110t15 140q0 52 -14 80t-58 28q-17 0 -42.5 -16t-42.5 -36l-41 -331q29 -8 61 -8zM141 730l102 11l-21 -174l-19 -86q66 60 115 60q146 0 146 -168q0 -111 -26 -207.5t-83 -137.5q-51 -39 -135 -39q-62 0 -167 23z" />
<glyph unicode="c" horiz-adv-x="343" d="M394 507l-34 -76q-37 23 -80 23q-46 0 -72 -37q-27 -38 -38 -108.5t-11 -126.5q0 -54 16 -80t58 -26q43 0 86 18l15 -75q-17 -11 -58 -20.5t-70 -9.5q-82 0 -117.5 44.5t-35.5 129.5q0 97 20.5 187t58.5 133q50 58 138 58q42 0 76.5 -10t47.5 -24z" />
<glyph unicode="d" horiz-adv-x="457" d="M489 741l-90 -741h-87l3 76q-56 -87 -128 -87q-133 0 -133 179q0 99 20.5 185t61.5 131q50 57 131 57q50 0 99 -36l4 83l18 142zM222 71q32 0 58 29t39 67l32 265q-29 30 -67 30q-30 0 -53 -18q-39 -29 -56 -112t-17 -148q0 -57 13.5 -85t50.5 -28z" />
<glyph unicode="e" horiz-adv-x="404" d="M288 541q72 0 108.5 -33.5t36.5 -89.5q0 -94 -69.5 -134.5t-204.5 -50.5q-3 -25 -3 -50q0 -56 19.5 -84t70.5 -28q60 0 136 38l16 -80q-29 -17 -79.5 -28.5t-95.5 -11.5q-86 0 -127.5 51t-41.5 142q0 50 6 96.5t22 96t41.5 85t67.5 58.5t97 23zM277 464q-90 0 -111 -166 q171 9 171 107q0 59 -60 59z" />
<glyph unicode="f" horiz-adv-x="273" d="M219 452l-56 -452h-100l56 452h-47l7 60l48 16l7 56q11 84 47.5 124.5t109.5 40.5q58 0 85 -19l-23 -74q-27 10 -52 10q-33 0 -47.5 -22t-20.5 -68l-5 -47h105l-9 -77h-105z" />
<glyph unicode="g" horiz-adv-x="439" d="M8 -83q0 50 24 80.5t75 54.5q-32 22 -32 53q0 44 56 72q-65 35 -65 128q0 116 63 182q52 54 140 54q69 0 109 -41l114 39l1 -80l-79 -17q14 -32 14 -67q0 -57 -19 -106.5t-50 -74.5q-50 -38 -133 -38q-22 0 -42 5q-23 -12 -23 -31q0 -13 23 -19t102 -13q76 -6 110 -32 t34 -81q0 -96 -68.5 -141t-174.5 -45q-83 0 -131 30.5t-48 87.5zM232 224q34 0 56 19q18 19 29 64t11 84q0 78 -66 78q-34 0 -54 -22q-40 -37 -40 -152q0 -35 13 -53t51 -18zM163 30q-63 -32 -63 -93q0 -70 93 -70q133 0 133 93q0 29 -18.5 43t-70.5 20z" />
<glyph unicode="h" horiz-adv-x="459" d="M243 741l-20 -162l-20 -110q64 72 127 72q68 0 96 -33.5t28 -100.5q0 -25 -5 -64l-42 -343h-100l43 354q4 27 4 43q0 32 -13 47t-49 15q-41 0 -92 -63l-48 -396h-100l89 730z" />
<glyph unicode="i" horiz-adv-x="216" d="M59 0l64 529h100l-64 -529h-100zM247 714l-13 -106h-104l13 106h104z" />
<glyph unicode="j" horiz-adv-x="216" d="M61 23l62 506h100l-62 -508q-8 -74 -37 -128t-90 -103l-70 51q51 47 70.5 87t26.5 95zM130 608l13 106h104l-13 -106h-104z" />
<glyph unicode="k" horiz-adv-x="420" d="M242 741l-90 -741h-100l89 730zM304 284l112 -284h-112l-104 280l1 6l157 243h117z" />
<glyph unicode="l" horiz-adv-x="248" d="M245 741l-74 -587q-5 -32 -5 -46q0 -33 30 -33q12 0 43 7l-1 -81q-35 -12 -69 -12q-59 0 -81.5 26t-22.5 73q0 20 7 71l72 571z" />
<glyph unicode="m" horiz-adv-x="683" d="M215 529l-12 -64q71 76 129 76q45 0 68.5 -17t35.5 -55q70 72 134 72q63 0 85.5 -30.5t22.5 -93.5q0 -29 -6 -75l-41 -342h-100l41 331q5 45 5 67q0 29 -9.5 45t-36.5 16q-18 0 -35.5 -9t-27 -17.5t-23.5 -24.5l-50 -408h-100l41 336q6 52 6 62q0 60 -46 60 q-19 0 -38.5 -10.5t-28.5 -19.5l-28 -28l-49 -400h-100l65 529h98z" />
<glyph unicode="n" horiz-adv-x="458" d="M214 529l-13 -70q66 82 137 82q65 0 90 -32.5t25 -96.5q0 -28 -4 -54l-43 -358h-100l40 325q6 57 6 72q0 62 -52 62q-55 0 -100 -71l-48 -388h-100l65 529h97z" />
<glyph unicode="o" horiz-adv-x="444" d="M227 67q27 0 47 16q39 31 57 117t18 152q0 55 -15.5 83t-57.5 28q-36 0 -60 -27q-30 -34 -45 -117t-15 -146q0 -52 14 -79t57 -27zM218 -11q-166 0 -166 184q0 196 71 291q57 77 162 77q167 0 167 -194q0 -211 -87 -302q-53 -56 -147 -56z" />
<glyph unicode="p" horiz-adv-x="456" d="M30 -197l89 726h100l-19 -70l3 -1q22 34 59 58.5t74 24.5q75 0 103 -44t28 -127q0 -98 -24 -193.5t-75 -142.5q-50 -45 -120 -45q-52 0 -96 30l-2 -56l-19 -152zM298 459q-30 0 -56 -21.5t-40 -52.5l-36 -290q26 -27 64 -27q48 0 77 41q28 40 41.5 115t13.5 135 q0 50 -13 75t-51 25z" />
<glyph unicode="q" horiz-adv-x="455" d="M279 461q-52 0 -79 -54q-20 -40 -31.5 -109t-11.5 -122q0 -51 15.5 -78t60.5 -27q20 0 43.5 15.5t35.5 36.5l38 303q-28 35 -71 35zM375 -189l-102 -8l21 167l14 79q-51 -60 -114 -60q-142 0 -142 186q0 44 5 89t19.5 96t36.5 90t61 64.5t88 25.5q73 0 108 -43l1 -1 l10 33h82z" />
<glyph unicode="r" horiz-adv-x="293" d="M214 529l-22 -109l2 1q18 53 53 86.5t74 33.5q19 0 29 -8l-20 -103q-11 8 -31 8q-39 0 -70.5 -36t-37.5 -87l-39 -315h-100l65 529h97z" />
<glyph unicode="s" horiz-adv-x="368" d="M402 498l-36 -75q-61 35 -112 35q-33 0 -56 -18t-23 -48q0 -46 89 -93q51 -28 75 -60t24 -77q0 -63 -47.5 -118t-135.5 -55q-42 0 -93.5 17t-67.5 31l37 77q75 -42 126 -42q30 0 54.5 22t24.5 55q0 25 -19 42.5t-68 41.5q-51 25 -76 58.5t-25 85.5q0 67 48.5 115.5 t132.5 48.5q39 0 87 -14t61 -29z" />
<glyph unicode="t" horiz-adv-x="285" d="M80 147l38 305h-52l7 63l55 13l15 125l101 16l-17 -140h94l-9 -77h-94l-37 -303q-4 -32 -4 -48q0 -29 26 -29q33 0 68 11l2 -73q-48 -21 -107 -21q-49 0 -70 23t-21 73q0 21 5 62z" />
<glyph unicode="u" horiz-adv-x="467" d="M327 0l-4 65q-61 -76 -136 -76q-117 0 -117 137q0 30 9 90l39 313h100l-38 -307q-8 -54 -8 -80q0 -35 13.5 -53t46.5 -18q24 0 51 19t43 46l48 393h100l-64 -529h-83z" />
<glyph unicode="v" horiz-adv-x="400" d="M209 88q91 290 131 441h109q-33 -112 -91.5 -280t-92.5 -249h-137q-15 78 -32 244t-23 285h110q3 -165 22 -441h4z" />
<glyph unicode="w" horiz-adv-x="618" d="M443 84q34 102 117 445h106q-105 -379 -164 -529h-129q-26 155 -35 289q-35 -119 -107 -289h-123q-24 167 -36 529h108q0 -272 9 -446h6q20 50 64 175t53 160l-7 111h105q15 -330 28 -445h5z" />
<glyph unicode="x" horiz-adv-x="386" d="M213 198l-98 -198h-103l152 266q-56 160 -88 264h113l50 -203l91 203h108l-149 -266q46 -131 88 -264h-110z" />
<glyph unicode="y" horiz-adv-x="397" d="M205 85q67 194 132 444h110q-36 -116 -93.5 -285t-89.5 -249q-43 -106 -86.5 -151.5t-118.5 -45.5q-17 0 -43.5 6.5t-32.5 12.5l26 74q28 -13 56 -13q35 0 56.5 27.5t46.5 94.5l-44 -1q-33 181 -56 530h109q7 -222 24 -444h4z" />
<glyph unicode="z" horiz-adv-x="351" d="M81 452l10 77h303l-9 -69l-247 -382h206l-9 -78h-315l8 72l242 380h-189z" />
<glyph unicode="{" horiz-adv-x="342" d="M311 -150h-17q-87 0 -132.5 39t-45.5 113q0 16 4 62l12 93q3 21 3 45q0 23 -6.5 39t-18.5 24.5t-21 12.5t-21 6l-13 3l11 87l14 3q14 3 25.5 8.5t26.5 16t25.5 32t14.5 51.5l14 108q14 118 65 167.5t161 49.5h17l-10 -83h-17q-65 0 -92 -30.5t-36 -106.5l-13 -115 q-7 -60 -39 -96.5t-81 -48.5q39 -12 62 -40.5t23 -69.5q0 -18 -4 -50l-10 -90q-4 -52 -4 -60q0 -44 21.5 -64.5t75.5 -20.5h16z" />
<glyph unicode="|" horiz-adv-x="500" d="M284 733h110l-122 -1000h-110z" />
<glyph unicode="}" horiz-adv-x="346" d="M11 -150h-16l10 87h17q67 0 93 29t34 105l14 116q14 118 119 143q-38 11 -61 40.5t-24 70.5q0 14 5 59l9 76q6 50 6 73q0 80 -98 80h-17l10 81h17q178 0 178 -152q0 -26 -8 -95l-4 -31q-7 -49 -7 -76q0 -74 81 -82l-11 -87q-43 -3 -71.5 -31t-35.5 -79l-13 -107 q-15 -121 -66 -170.5t-161 -49.5z" />
<glyph unicode="~" horiz-adv-x="517" d="M464 344l65 -23q-25 -58 -62.5 -88t-81.5 -30q-36 0 -95 28t-91 28q-43 0 -75 -57l-67 25q51 116 149 116q29 0 91.5 -29t89.5 -29q41 0 77 59z" />
<glyph unicode="&#xa1;" horiz-adv-x="244" d="M139 588l15 122h106l-15 -122h-106zM214 298l-36 -298h-113l36 298l40 225h89z" />
<glyph unicode="&#xa2;" d="M485 599l-34 -76q-37 23 -80 23q-46 0 -72 -37q-27 -38 -38 -108.5t-11 -126.5q0 -54 16 -80t58 -26q43 0 86 18l15 -75q-34 -22 -104 -29l-9 -82h-79l12 87q-101 25 -101 168q0 97 20.5 187t58.5 133q36 40 88 52l10 90h78l-11 -85q70 -6 97 -33z" />
<glyph unicode="&#xa3;" d="M118 396l71 15l12 97q11 98 53 150t131 52q85 0 165 -43l-37 -74q-51 28 -111 28q-44 0 -68.5 -27t-33.5 -98l-11 -85h178l-20 -78h-167l-31 -252h227l-10 -81h-397l10 81h69l31 252h-69z" />
<glyph unicode="&#xa5;" d="M129 704h116l65 -319h4l143 319h116l-180 -336h112l-10 -77h-140l-9 -74h140l-9 -76h-140l-17 -141h-110l17 141h-139l9 76h139l9 74h-139l10 77h110z" />
<glyph unicode="&#xa6;" horiz-adv-x="500" d="M342 345h-100l48 390h100zM266 -271h-99l48 390h99z" />
<glyph unicode="&#xa7;" horiz-adv-x="476" d="M516 668l-50 -74q-93 48 -153 48q-43 0 -72.5 -27t-29.5 -80q0 -34 28.5 -55.5t106.5 -58.5q70 -33 99.5 -72t29.5 -95q0 -80 -67 -147q25 -36 25 -93q0 -99 -58 -162.5t-166 -63.5q-94 0 -193 74l44 72q79 -58 159 -58q49 0 77.5 30.5t28.5 79.5q0 35 -26 59t-92 51 q-79 33 -108.5 68.5t-29.5 95.5q0 82 66 151q-31 44 -31 108q0 86 57.5 149t168.5 63q86 0 186 -63zM343 158q23 26 23 74q0 31 -25.5 52.5t-81.5 45.5q-33 13 -54 31q-30 -28 -30 -73q0 -28 20.5 -47t82.5 -46q37 -17 65 -37z" />
<glyph unicode="&#xa8;" horiz-adv-x="500" d="M342 611l13 108h87l-13 -108h-87zM220 611l13 108h87l-13 -108h-87z" />
<glyph unicode="&#xa9;" horiz-adv-x="797" d="M518 240l10 -55q-46 -24 -102 -24q-70 0 -96 33.5t-26 97.5q0 247 172 247q23 0 51.5 -7.5t38.5 -15.5l-23 -55q-45 15 -67 15q-27 0 -46.5 -17.5t-28 -46t-11.5 -53t-3 -50.5q0 -44 11.5 -64.5t45.5 -20.5q28 0 74 16zM64 316q0 172 123 291t293 119q142 0 240.5 -94 t98.5 -232q0 -172 -120.5 -294t-297.5 -122q-143 0 -240 96.5t-97 235.5zM478 658q-142 0 -241 -101.5t-99 -240.5q0 -112 76.5 -188t193.5 -76q134 0 235 100t101 239q0 115 -75 191t-191 76z" />
<glyph unicode="&#xaa;" horiz-adv-x="402" d="M411 718l-31 -241q-5 -55 -5 -96l-66 -3v86q-12 -33 -36 -62t-57 -29q-46 0 -73.5 35t-27.5 97q0 92 50.5 162.5t145.5 70.5q53 0 100 -20zM284 680q-46 0 -68 -54t-22 -115q0 -72 41 -72q19 0 43.5 35t33.5 62l17 136q-18 8 -45 8z" />
<glyph unicode="&#xab;" horiz-adv-x="477" d="M328 490l-155 -221l101 -217h-94l-94 214l1 10l147 214h94zM502 490l-155 -221l101 -217h-94l-94 214l1 10l147 214h94z" />
<glyph unicode="&#xae;" horiz-adv-x="797" d="M520 432q0 50 -69 50h-42l-15 -122h52q33 0 53.5 20t20.5 52zM370 173h-66l45 364h92q146 0 146 -94q0 -41 -21 -74t-55 -48l50 -148h-76l-41 137l-56 -1zM64 316q0 172 123 291t293 119q142 0 240.5 -94t98.5 -232q0 -172 -120.5 -294t-297.5 -122q-143 0 -240 96.5 t-97 235.5zM478 658q-142 0 -241 -101.5t-99 -240.5q0 -112 76.5 -188t193.5 -76q134 0 235 100t101 239q0 115 -75 191t-191 76z" />
<glyph unicode="&#xaf;" horiz-adv-x="500" d="M477 640h-298l6 49h298z" />
<glyph unicode="&#xb0;" horiz-adv-x="254" d="M152 620q30 0 49.5 21.5t19.5 51.5q0 56 -53 56q-32 0 -50.5 -23.5t-18.5 -53.5q0 -52 53 -52zM145 564q-48 0 -79.5 28.5t-31.5 73.5q0 61 41 100t100 39q49 0 80.5 -29.5t31.5 -75.5q0 -59 -41.5 -97.5t-100.5 -38.5z" />
<glyph unicode="&#xb1;" d="M88 255l10 77h158l22 177h82l-22 -177h160l-9 -77h-160l-22 -179h159l-9 -76h-400l9 76h159l22 179h-159z" />
<glyph unicode="&#xb2;" horiz-adv-x="500" d="M100 261l6 54l181 182q21 22 37 54t16 59q0 51 -63 51q-24 0 -54.5 -15t-49.5 -31l-29 53q19 20 65.5 41.5t86.5 21.5q60 0 94 -29t34 -82q0 -81 -94 -173l-125 -125l61 2h130l-8 -63h-288z" />
<glyph unicode="&#xb3;" horiz-adv-x="500" d="M280 731q54 0 87.5 -26.5t33.5 -74.5q0 -77 -85 -126q79 -24 79 -99q0 -66 -49.5 -109t-126.5 -43q-75 0 -130 36l31 55q47 -27 100 -27q39 0 65.5 26t26.5 61q0 64 -79 67l-51 -9l-3 58q139 17 139 94q0 51 -60 51q-36 0 -100 -26l-16 54q15 12 57.5 25t80.5 13z" />
<glyph unicode="&#xb4;" horiz-adv-x="500" d="M291 589h-60l109 165l100 -22z" />
<glyph unicode="&#xb5;" horiz-adv-x="462" d="M17 -198l89 727h100l-40 -322q-1 -13 -2.5 -28.5t-2.5 -23.5t-1 -12q0 -71 60 -71q24 0 50.5 19t43.5 45l48 393h100l-65 -529h-82l-4 66q-50 -75 -118 -75q-41 0 -57 27l-8 -109l-11 -99z" />
<glyph unicode="&#xb6;" horiz-adv-x="544" d="M268 0l30 245h-34q-84 0 -125 49t-41 132q0 138 59.5 214.5t182.5 76.5h89l-87 -717h-74zM480 717h90l-87 -717h-90z" />
<glyph unicode="&#xb7;" horiz-adv-x="256" d="M105 219l15 118h91l-15 -118h-91z" />
<glyph unicode="&#xb8;" horiz-adv-x="500" d="M131 -210l7 50h76q54 0 54 36q0 16 -12.5 21.5t-42.5 5.5h-39l12 97h49l-7 -48q52 0 75.5 -16.5t23.5 -52.5q0 -93 -123 -93h-73z" />
<glyph unicode="&#xb9;" horiz-adv-x="500" d="M290 715h58l-48 -398l37 3h33l-8 -59h-226l7 58h37l39 -2l25 211l13 91q-42 -25 -81 -35l-10 57q79 33 124 74z" />
<glyph unicode="&#xba;" horiz-adv-x="369" d="M233 430q35 0 53 30q13 21 20.5 66t7.5 82t-9.5 55t-40.5 18q-33 0 -49 -28q-14 -22 -22 -68.5t-8 -88.5q0 -33 9.5 -49.5t38.5 -16.5zM226 373q-121 0 -121 127q0 239 167 239q122 0 122 -133q0 -233 -168 -233z" />
<glyph unicode="&#xbb;" horiz-adv-x="484" d="M196 275l-105 215h94l98 -214l-1 -10l-144 -214h-94zM372 275l-105 215h94l98 -214l-1 -10l-144 -214h-94z" />
<glyph unicode="&#xbc;" horiz-adv-x="1000" d="M774 462h82l-157 -270l-35 -56h112l21 143l70 5l-18 -148h56l-11 -61h-53l-10 -80l-72 -5l10 85h-186l7 56zM742 717l-354 -717h-76l354 717h76zM270 715h58l-48 -398l37 3h33l-8 -59h-226l7 58h37l39 -2l25 211l13 91q-42 -25 -81 -35l-10 57q79 33 124 74z" />
<glyph unicode="&#xbd;" horiz-adv-x="1000" d="M709 717l-355 -717h-76l355 717h76zM573 0l6 54l181 182q21 22 37 54t16 59q0 51 -63 51q-24 0 -54.5 -15t-49.5 -31l-29 53q19 20 65.5 41.5t86.5 21.5q60 0 94 -29t34 -82q0 -81 -94 -173l-125 -125l61 2h130l-8 -63h-288zM244 715h58l-48 -398l37 3h33l-8 -59h-226 l7 58h37l39 -2l25 211l13 91q-42 -25 -81 -35l-10 57q79 33 124 74z" />
<glyph unicode="&#xbe;" horiz-adv-x="1000" d="M736 717l-354 -717h-77l355 717h76zM763 462h84l-157 -270l-37 -55h112l21 142l70 5l-18 -147h56l-11 -62h-52l-10 -80l-74 -5l10 85h-185l8 57zM272 731q54 0 87.5 -26.5t33.5 -74.5q0 -77 -85 -126q79 -24 79 -99q0 -66 -49.5 -109t-126.5 -43q-75 0 -130 36l31 55 q47 -27 100 -27q39 0 65.5 26t26.5 61q0 64 -79 67l-51 -9l-3 58q139 17 139 94q0 51 -60 51q-36 0 -100 -26l-16 54q15 12 57.5 25t80.5 13z" />
<glyph unicode="&#xbf;" horiz-adv-x="454" d="M260 88q66 0 147 59l32 -74q-32 -28 -86 -53t-113 -25q-80 0 -129 42.5t-49 117.5q0 54 22 97.5t54 70.5t63.5 51t53.5 52t22 60q0 22 -1 35h93q3 -24 3 -53q0 -40 -20.5 -73.5t-49.5 -57.5l-58 -47t-49.5 -54t-20.5 -66q0 -82 86 -82zM393 712l-14 -118h-105l14 118h105 z" />
<glyph unicode="&#xc0;" horiz-adv-x="513" d="M273 717h138l91 -717h-113l-19 170h-188l-58 -170h-113zM301 522l-94 -270h158l-23 270q-5 65 -5 108h-6q-15 -65 -30 -108zM401 777h-60l-114 143l105 22z" />
<glyph unicode="&#xc1;" horiz-adv-x="513" d="M273 717h138l91 -717h-113l-19 170h-188l-58 -170h-113zM301 522l-94 -270h158l-23 270q-5 65 -5 108h-6q-15 -65 -30 -108zM348 777h-60l109 165l100 -22z" />
<glyph unicode="&#xc2;" horiz-adv-x="513" d="M273 717h138l91 -717h-113l-19 170h-188l-58 -170h-113zM301 522l-94 -270h158l-23 270q-5 65 -5 108h-6q-15 -65 -30 -108zM327 942h70l67 -165h-53l-55 110l-82 -110h-54z" />
<glyph unicode="&#xc3;" horiz-adv-x="513" d="M273 717h138l91 -717h-113l-19 170h-188l-58 -170h-113zM301 522l-94 -270h158l-23 270q-5 65 -5 108h-6q-15 -65 -30 -108zM451 900l33 -16q-33 -77 -86 -77q-26 0 -61.5 15t-45.5 15q-24 0 -47 -32l-38 18q32 76 92 76q26 0 62 -15.5t44 -15.5q23 0 47 32z" />
<glyph unicode="&#xc4;" horiz-adv-x="513" d="M273 717h138l91 -717h-113l-19 170h-188l-58 -170h-113zM301 522l-94 -270h158l-23 270q-5 65 -5 108h-6q-15 -65 -30 -108zM366 799l13 108h87l-13 -108h-87zM244 799l13 108h87l-13 -108h-87z" />
<glyph unicode="&#xc5;" horiz-adv-x="513" d="M273 717h138l91 -717h-113l-19 170h-188l-58 -170h-113zM301 522l-94 -270h158l-23 270q-5 65 -5 108h-6q-15 -65 -30 -108zM313 862q0 -16 10 -27t28 -11q19 0 33 14t14 35q0 38 -38 38q-18 0 -32.5 -13.5t-14.5 -35.5zM264 857q0 42 29 71.5t72 29.5q34 0 58 -23.5 t24 -56.5q0 -43 -28 -72t-73 -29q-33 0 -57.5 23.5t-24.5 56.5z" />
<glyph unicode="&#xc6;" horiz-adv-x="698" d="M685 92l-11 -92h-333l21 169h-164l-74 -169h-113l331 717h415l-20 -92h-211l-26 -213h188l-11 -86h-188l-28 -234h224zM231 252h141l46 378h-22z" />
<glyph unicode="&#xc7;" horiz-adv-x="428" d="M175 -210l7 50h76q54 0 54 36q0 16 -12.5 21.5t-42.5 5.5h-39l10 83q-86 8 -120.5 64t-34.5 157q0 524 273 524q44 0 89 -13t61 -26l-34 -83q-56 27 -108 27q-46 0 -73 -27q-36 -37 -64 -133t-28 -251q0 -70 20.5 -108t76.5 -38q48 0 121 30l10 -84q-53 -33 -140 -40 l-5 -33q52 0 75.5 -16.5t23.5 -52.5q0 -93 -123 -93h-73z" />
<glyph unicode="&#xc8;" horiz-adv-x="421" d="M408 91l-11 -91h-335l87 717h331l-19 -91h-214l-27 -221h190l-10 -81h-190l-28 -233h226zM363 777h-60l-114 143l105 22z" />
<glyph unicode="&#xc9;" horiz-adv-x="421" d="M408 91l-11 -91h-335l87 717h331l-19 -91h-214l-27 -221h190l-10 -81h-190l-28 -233h226zM333 777h-60l109 165l100 -22z" />
<glyph unicode="&#xca;" horiz-adv-x="421" d="M408 91l-11 -91h-335l87 717h331l-19 -91h-214l-27 -221h190l-10 -81h-190l-28 -233h226zM299 942h70l67 -165h-53l-55 110l-82 -110h-54z" />
<glyph unicode="&#xcb;" horiz-adv-x="421" d="M408 91l-11 -91h-335l87 717h331l-19 -91h-214l-27 -221h190l-10 -81h-190l-28 -233h226zM346 799l13 108h87l-13 -108h-87zM224 799l13 108h87l-13 -108h-87z" />
<glyph unicode="&#xcc;" horiz-adv-x="233" d="M149 717h109l-87 -717h-109zM260 777h-60l-114 143l105 22z" />
<glyph unicode="&#xcd;" horiz-adv-x="233" d="M149 717h109l-87 -717h-109zM218 777h-60l109 165l100 -22z" />
<glyph unicode="&#xce;" horiz-adv-x="233" d="M149 717h109l-87 -717h-109zM196 942h70l67 -165h-53l-55 110l-82 -110h-54z" />
<glyph unicode="&#xcf;" horiz-adv-x="233" d="M149 717h109l-87 -717h-109zM230 799l13 108h87l-13 -108h-87zM108 799l13 108h87l-13 -108h-87z" />
<glyph unicode="&#xd0;" horiz-adv-x="573" d="M60 320l9 73h68l39 324h170q129 0 185 -65t56 -193q0 -64 -8 -124t-29.5 -122.5t-55 -108t-90 -75t-128.5 -29.5h-187l39 320h-68zM209 91h62q80 0 124 52q36 43 56 134.5t20 180.5q0 88 -27.5 128t-106.5 40h-63l-28 -233h105l-9 -73h-105z" />
<glyph unicode="&#xd1;" horiz-adv-x="573" d="M599 717l-87 -717h-131l-155 552h-5l-61 -552h-98l87 717h136l150 -544h5l61 544h98zM507 900l33 -16q-33 -77 -86 -77q-26 0 -61.5 15t-45.5 15q-24 0 -47 -32l-38 18q32 76 92 76q26 0 62 -15.5t44 -15.5q23 0 47 32z" />
<glyph unicode="&#xd2;" horiz-adv-x="547" d="M355 636q-67 0 -102 -62q-32 -56 -49 -156.5t-17 -185.5q0 -74 20.5 -113.5t75.5 -39.5q67 0 101 64q31 55 46.5 155.5t15.5 189.5q0 72 -18.5 110t-72.5 38zM280 -16q-114 0 -160.5 64.5t-46.5 177.5q0 297 100 421q67 84 190 84q109 0 154 -65t45 -184 q0 -128 -25 -242.5t-79 -178.5q-67 -77 -178 -77zM406 777h-60l-114 143l105 22z" />
<glyph unicode="&#xd3;" horiz-adv-x="547" d="M355 636q-67 0 -102 -62q-32 -56 -49 -156.5t-17 -185.5q0 -74 20.5 -113.5t75.5 -39.5q67 0 101 64q31 55 46.5 155.5t15.5 189.5q0 72 -18.5 110t-72.5 38zM280 -16q-114 0 -160.5 64.5t-46.5 177.5q0 297 100 421q67 84 190 84q109 0 154 -65t45 -184 q0 -128 -25 -242.5t-79 -178.5q-67 -77 -178 -77zM398 777h-60l109 165l100 -22z" />
<glyph unicode="&#xd4;" horiz-adv-x="547" d="M355 636q-67 0 -102 -62q-32 -56 -49 -156.5t-17 -185.5q0 -74 20.5 -113.5t75.5 -39.5q67 0 101 64q31 55 46.5 155.5t15.5 189.5q0 72 -18.5 110t-72.5 38zM280 -16q-114 0 -160.5 64.5t-46.5 177.5q0 297 100 421q67 84 190 84q109 0 154 -65t45 -184 q0 -128 -25 -242.5t-79 -178.5q-67 -77 -178 -77zM358 942h70l67 -165h-53l-55 110l-82 -110h-54z" />
<glyph unicode="&#xd5;" horiz-adv-x="547" d="M355 636q-67 0 -102 -62q-32 -56 -49 -156.5t-17 -185.5q0 -74 20.5 -113.5t75.5 -39.5q67 0 101 64q31 55 46.5 155.5t15.5 189.5q0 72 -18.5 110t-72.5 38zM280 -16q-114 0 -160.5 64.5t-46.5 177.5q0 297 100 421q67 84 190 84q109 0 154 -65t45 -184 q0 -128 -25 -242.5t-79 -178.5q-67 -77 -178 -77zM484 900l33 -16q-33 -77 -86 -77q-26 0 -61.5 15t-45.5 15q-24 0 -47 -32l-38 18q32 76 92 76q27 0 62 -15.5t44 -15.5q23 0 47 32z" />
<glyph unicode="&#xd6;" horiz-adv-x="547" d="M355 636q-67 0 -102 -62q-32 -56 -49 -156.5t-17 -185.5q0 -74 20.5 -113.5t75.5 -39.5q67 0 101 64q31 55 46.5 155.5t15.5 189.5q0 72 -18.5 110t-72.5 38zM280 -16q-114 0 -160.5 64.5t-46.5 177.5q0 297 100 421q67 84 190 84q109 0 154 -65t45 -184 q0 -128 -25 -242.5t-79 -178.5q-67 -77 -178 -77zM392 799l13 108h87l-13 -108h-87zM270 799l13 108h87l-13 -108h-87z" />
<glyph unicode="&#xd7;" d="M472 150l-62 -55l-126 143l-158 -141l-52 58l158 141l-121 139l61 56l122 -139l159 141l51 -58l-158 -142z" />
<glyph unicode="&#xd8;" horiz-adv-x="547" d="M280 -16q-72 0 -119 28l-48 -90h-56l65 123q-49 58 -49 181q0 297 100 421q67 84 190 84q68 0 111 -26l36 68h57l-54 -102q49 -60 49 -189q0 -128 -25 -242.5t-79 -178.5q-67 -77 -178 -77zM446 488q0 29 -3 53l-230 -431q23 -31 70 -31q67 0 101 64q31 55 46.5 155.5 t15.5 189.5zM355 636q-67 0 -102 -62q-32 -56 -49 -156.5t-17 -185.5q0 -32 3 -59l231 433q-21 30 -66 30z" />
<glyph unicode="&#xd9;" horiz-adv-x="526" d="M142 717h107l-59 -469q-6 -54 -6 -79q0 -90 89 -90q60 0 85.5 39t34.5 112l60 487h107l-59 -478q-15 -125 -68.5 -188t-170.5 -63q-183 0 -183 177q0 39 7 98zM401 777h-60l-114 143l105 22z" />
<glyph unicode="&#xda;" horiz-adv-x="526" d="M142 717h107l-59 -469q-6 -54 -6 -79q0 -90 89 -90q60 0 85.5 39t34.5 112l60 487h107l-59 -478q-15 -125 -68.5 -188t-170.5 -63q-183 0 -183 177q0 39 7 98zM380 777h-60l109 165l100 -22z" />
<glyph unicode="&#xdb;" horiz-adv-x="526" d="M142 717h107l-59 -469q-6 -54 -6 -79q0 -90 89 -90q60 0 85.5 39t34.5 112l60 487h107l-59 -478q-15 -125 -68.5 -188t-170.5 -63q-183 0 -183 177q0 39 7 98zM349 942h70l67 -165h-53l-55 110l-82 -110h-54z" />
<glyph unicode="&#xdc;" horiz-adv-x="526" d="M142 717h107l-59 -469q-6 -54 -6 -79q0 -90 89 -90q60 0 85.5 39t34.5 112l60 487h107l-59 -478q-15 -125 -68.5 -188t-170.5 -63q-183 0 -183 177q0 39 7 98zM380 799l13 108h87l-13 -108h-87zM258 799l13 108h87l-13 -108h-87z" />
<glyph unicode="&#xdd;" horiz-adv-x="466" d="M92 717h115l69 -332h4l153 332h116q-135 -265 -225 -418l-36 -299h-110l36 299q-60 179 -122 418zM348 777h-60l109 165l100 -22z" />
<glyph unicode="&#xde;" horiz-adv-x="494" d="M172 1h-110l87 714h111l-14 -117h71q201 0 201 -179q0 -176 -95 -245q-65 -48 -190 -48h-46zM250 207q61 0 98 29q58 48 58 167q0 58 -28 83.5t-89 25.5h-55l-38 -305h54z" />
<glyph unicode="&#xdf;" horiz-adv-x="490" d="M223 551l-68 -551h-100l67 548q22 183 196 183q80 0 127 -39t47 -111q0 -80 -41.5 -131t-114.5 -72q86 -15 118.5 -55t32.5 -106q0 -90 -46.5 -161t-135.5 -71q-66 0 -118 33l27 77q37 -26 77 -26q50 0 75.5 44.5t25.5 105.5q0 46 -34.5 73.5t-113.5 39.5l11 82 q131 19 131 155q0 86 -79 86q-73 0 -84 -104z" />
<glyph unicode="&#xe0;" horiz-adv-x="433" d="M443 514l-45 -367q-8 -64 -8 -145l-82 -4q0 7 -0.5 38.5t-1 53t0.5 40.5q-50 -140 -134 -140q-62 0 -90.5 53.5t-28.5 143.5q0 67 12.5 125.5t40.5 111.5t81.5 84t127.5 31q70 0 127 -25zM283 462q-38 0 -65 -27.5t-40.5 -71t-19 -85t-5.5 -82.5q0 -118 57 -118 q29 0 58 51t42 97l31 227q-23 9 -58 9zM353 589h-60l-114 143l105 22z" />
<glyph unicode="&#xe1;" horiz-adv-x="433" d="M443 514l-45 -367q-8 -64 -8 -145l-82 -4q0 7 -0.5 38.5t-1 53t0.5 40.5q-50 -140 -134 -140q-62 0 -90.5 53.5t-28.5 143.5q0 67 12.5 125.5t40.5 111.5t81.5 84t127.5 31q70 0 127 -25zM283 462q-38 0 -65 -27.5t-40.5 -71t-19 -85t-5.5 -82.5q0 -118 57 -118 q29 0 58 51t42 97l31 227q-23 9 -58 9zM322 589h-60l109 165l100 -22z" />
<glyph unicode="&#xe2;" horiz-adv-x="433" d="M443 514l-45 -367q-8 -64 -8 -145l-82 -4q0 7 -0.5 38.5t-1 53t0.5 40.5q-50 -140 -134 -140q-62 0 -90.5 53.5t-28.5 143.5q0 67 12.5 125.5t40.5 111.5t81.5 84t127.5 31q70 0 127 -25zM283 462q-38 0 -65 -27.5t-40.5 -71t-19 -85t-5.5 -82.5q0 -118 57 -118 q29 0 58 51t42 97l31 227q-23 9 -58 9zM280 754h70l67 -165h-53l-55 110l-82 -110h-54z" />
<glyph unicode="&#xe3;" horiz-adv-x="433" d="M443 514l-45 -367q-8 -64 -8 -145l-82 -4q0 7 -0.5 38.5t-1 53t0.5 40.5q-50 -140 -134 -140q-62 0 -90.5 53.5t-28.5 143.5q0 67 12.5 125.5t40.5 111.5t81.5 84t127.5 31q70 0 127 -25zM283 462q-38 0 -65 -27.5t-40.5 -71t-19 -85t-5.5 -82.5q0 -118 57 -118 q29 0 58 51t42 97l31 227q-23 9 -58 9zM410 712l33 -16q-33 -77 -86 -77q-26 0 -61.5 15t-45.5 15q-24 0 -47 -32l-38 18q32 76 92 76q27 0 62 -15.5t44 -15.5q23 0 47 32z" />
<glyph unicode="&#xe4;" horiz-adv-x="433" d="M443 514l-45 -367q-8 -64 -8 -145l-82 -4q0 7 -0.5 38.5t-1 53t0.5 40.5q-50 -140 -134 -140q-62 0 -90.5 53.5t-28.5 143.5q0 67 12.5 125.5t40.5 111.5t81.5 84t127.5 31q70 0 127 -25zM283 462q-38 0 -65 -27.5t-40.5 -71t-19 -85t-5.5 -82.5q0 -118 57 -118 q29 0 58 51t42 97l31 227q-23 9 -58 9zM320 611l13 108h87l-13 -108h-87zM198 611l13 108h87l-13 -108h-87z" />
<glyph unicode="&#xe5;" horiz-adv-x="433" d="M443 514l-45 -367q-8 -64 -8 -145l-82 -4q0 7 -0.5 38.5t-1 53t0.5 40.5q-50 -140 -134 -140q-62 0 -90.5 53.5t-28.5 143.5q0 67 12.5 125.5t40.5 111.5t81.5 84t127.5 31q70 0 127 -25zM283 462q-38 0 -65 -27.5t-40.5 -71t-19 -85t-5.5 -82.5q0 -118 57 -118 q29 0 58 51t42 97l31 227q-23 9 -58 9zM275 674q0 -16 10 -27t28 -11q19 0 33 14t14 35q0 38 -38 38q-18 0 -32.5 -13.5t-14.5 -35.5zM226 669q0 42 29 71.5t72 29.5q34 0 58 -23.5t24 -56.5q0 -43 -28 -72t-73 -29q-33 0 -57.5 23.5t-24.5 56.5z" />
<glyph unicode="&#xe6;" horiz-adv-x="669" d="M283 464q-38 0 -65 -27.5t-40.5 -71.5t-19 -86t-5.5 -83q0 -118 58 -118q28 0 57 51t42 97l31 229q-23 9 -58 9zM326 124q-13 -25 -22 -39.5t-29.5 -41t-45.5 -40.5t-54 -14q-62 0 -91.5 54t-29.5 144q0 53 7 101t26 95t47.5 81.5t75 55.5t106.5 21q66 0 118 -20l-7 -51 q22 31 57 51t75 20q63 0 99 -34t36 -89q0 -94 -69 -134.5t-204 -50.5q-4 -23 -4 -50q0 -56 19.5 -84t71.5 -28q60 0 136 38l15 -80q-28 -17 -78.5 -28.5t-95.5 -11.5q-68 0 -109 37t-50 98zM539 464q-90 0 -111 -166q171 9 171 107q0 59 -60 59z" />
<glyph unicode="&#xe7;" horiz-adv-x="343" d="M118 -210l7 50h76q54 0 54 36q0 16 -12.5 21.5t-42.5 5.5h-39l11 89q-119 16 -119 171q0 97 20.5 187t58.5 133q50 58 138 58q42 0 76.5 -10t47.5 -24l-34 -76q-37 23 -80 23q-46 0 -72 -37q-27 -38 -38 -108.5t-11 -126.5q0 -54 16 -80t58 -26q43 0 86 18l15 -75 q-37 -23 -114 -29l-5 -38q52 0 75.5 -16.5t23.5 -52.5q0 -93 -123 -93h-73z" />
<glyph unicode="&#xe8;" horiz-adv-x="408" d="M288 541q72 0 108.5 -33.5t36.5 -89.5q0 -94 -69.5 -134.5t-204.5 -50.5q-3 -25 -3 -50q0 -56 19.5 -84t70.5 -28q60 0 136 38l16 -80q-29 -17 -79.5 -28.5t-95.5 -11.5q-86 0 -127.5 51t-41.5 142q0 50 6 96.5t22 96t41.5 85t67.5 58.5t97 23zM277 464q-90 0 -111 -166 q171 9 171 107q0 59 -60 59zM320 589h-60l-114 143l105 22z" />
<glyph unicode="&#xe9;" horiz-adv-x="408" d="M288 541q72 0 108.5 -33.5t36.5 -89.5q0 -94 -69.5 -134.5t-204.5 -50.5q-3 -25 -3 -50q0 -56 19.5 -84t70.5 -28q60 0 136 38l16 -80q-29 -17 -79.5 -28.5t-95.5 -11.5q-86 0 -127.5 51t-41.5 142q0 50 6 96.5t22 96t41.5 85t67.5 58.5t97 23zM277 464q-90 0 -111 -166 q171 9 171 107q0 59 -60 59zM303 589h-60l109 165l100 -22z" />
<glyph unicode="&#xea;" horiz-adv-x="408" d="M288 541q72 0 108.5 -33.5t36.5 -89.5q0 -94 -69.5 -134.5t-204.5 -50.5q-3 -25 -3 -50q0 -56 19.5 -84t70.5 -28q60 0 136 38l16 -80q-29 -17 -79.5 -28.5t-95.5 -11.5q-86 0 -127.5 51t-41.5 142q0 50 6 96.5t22 96t41.5 85t67.5 58.5t97 23zM277 464q-90 0 -111 -166 q171 9 171 107q0 59 -60 59zM269 754h70l67 -165h-53l-55 110l-82 -110h-54z" />
<glyph unicode="&#xeb;" horiz-adv-x="408" d="M288 541q72 0 108.5 -33.5t36.5 -89.5q0 -94 -69.5 -134.5t-204.5 -50.5q-3 -25 -3 -50q0 -56 19.5 -84t70.5 -28q60 0 136 38l16 -80q-29 -17 -79.5 -28.5t-95.5 -11.5q-86 0 -127.5 51t-41.5 142q0 50 6 96.5t22 96t41.5 85t67.5 58.5t97 23zM277 464q-90 0 -111 -166 q171 9 171 107q0 59 -60 59zM310 611l13 108h87l-13 -108h-87zM188 611l13 108h87l-13 -108h-87z" />
<glyph unicode="&#xec;" horiz-adv-x="216" d="M59 0l64 529h101l-65 -529h-100zM221 589h-60l-114 143l105 22z" />
<glyph unicode="&#xed;" horiz-adv-x="216" d="M59 0l64 529h101l-65 -529h-100zM194 589h-60l109 165l100 -22z" />
<glyph unicode="&#xee;" horiz-adv-x="216" d="M59 0l64 529h101l-65 -529h-100zM161 754h70l67 -165h-53l-55 110l-82 -110h-54z" />
<glyph unicode="&#xef;" horiz-adv-x="216" d="M59 0l64 529h101l-65 -529h-100zM199 611l13 108h87l-13 -108h-87zM77 611l13 108h87l-13 -108h-87z" />
<glyph unicode="&#xf0;" horiz-adv-x="467" d="M241 589l82 26q-30 59 -69 105l96 27q40 -55 64 -103l95 30l17 -77l-80 -26q33 -90 33 -188q0 -52 -7 -104t-25 -105.5t-45 -94t-71 -66t-99 -25.5q-88 0 -134 50t-46 143q0 115 51 195.5t148 80.5q44 0 72 -19.5t51 -58.5q1 13 1 44q-1 56 -22 118l-95 -30zM365 307 q-36 77 -92 77q-34 0 -57.5 -19t-35 -50t-16.5 -61t-5 -62q0 -119 77 -119q32 0 55.5 18t37.5 54t21.5 72.5t14.5 89.5z" />
<glyph unicode="&#xf1;" horiz-adv-x="458" d="M214 529l-13 -70q66 82 137 82q65 0 90 -32.5t25 -96.5q0 -28 -4 -54l-43 -358h-100l40 325q6 57 6 72q0 62 -52 62q-55 0 -100 -71l-48 -388h-100l65 529h97zM421 712l33 -16q-33 -77 -86 -77q-26 0 -61.5 15t-45.5 15q-24 0 -47 -32l-38 18q32 76 92 76q26 0 62 -15.5 t44 -15.5q23 0 47 32z" />
<glyph unicode="&#xf2;" horiz-adv-x="444" d="M227 67q27 0 47 16q39 31 57 117t18 152q0 55 -15.5 83t-57.5 28q-36 0 -60 -27q-30 -34 -45 -117t-15 -146q0 -52 14 -79t57 -27zM218 -11q-166 0 -166 184q0 196 71 291q57 77 162 77q167 0 167 -194q0 -211 -87 -302q-53 -56 -147 -56zM318 589h-60l-114 143l105 22z " />
<glyph unicode="&#xf3;" horiz-adv-x="444" d="M227 67q27 0 47 16q39 31 57 117t18 152q0 55 -15.5 83t-57.5 28q-36 0 -60 -27q-30 -34 -45 -117t-15 -146q0 -52 14 -79t57 -27zM218 -11q-166 0 -166 184q0 196 71 291q57 77 162 77q167 0 167 -194q0 -211 -87 -302q-53 -56 -147 -56zM317 589h-60l109 165l100 -22z " />
<glyph unicode="&#xf4;" horiz-adv-x="444" d="M227 67q27 0 47 16q39 31 57 117t18 152q0 55 -15.5 83t-57.5 28q-36 0 -60 -27q-30 -34 -45 -117t-15 -146q0 -52 14 -79t57 -27zM218 -11q-166 0 -166 184q0 196 71 291q57 77 162 77q167 0 167 -194q0 -211 -87 -302q-53 -56 -147 -56zM280 754h70l67 -165h-53 l-55 110l-82 -110h-54z" />
<glyph unicode="&#xf5;" horiz-adv-x="444" d="M227 67q27 0 47 16q39 31 57 117t18 152q0 55 -15.5 83t-57.5 28q-36 0 -60 -27q-30 -34 -45 -117t-15 -146q0 -52 14 -79t57 -27zM218 -11q-166 0 -166 184q0 196 71 291q57 77 162 77q167 0 167 -194q0 -211 -87 -302q-53 -56 -147 -56zM412 712l33 -16 q-33 -77 -86 -77q-26 0 -61.5 15t-45.5 15q-24 0 -47 -32l-38 18q32 76 92 76q27 0 62 -15.5t44 -15.5q23 0 47 32z" />
<glyph unicode="&#xf6;" horiz-adv-x="444" d="M227 67q27 0 47 16q39 31 57 117t18 152q0 55 -15.5 83t-57.5 28q-36 0 -60 -27q-30 -34 -45 -117t-15 -146q0 -52 14 -79t57 -27zM218 -11q-166 0 -166 184q0 196 71 291q57 77 162 77q167 0 167 -194q0 -211 -87 -302q-53 -56 -147 -56zM310 611l13 108h87l-13 -108 h-87zM188 611l13 108h87l-13 -108h-87z" />
<glyph unicode="&#xf7;" d="M257 404l14 118h90l-14 -118h-90zM216 69l14 118h90l-14 -118h-90zM91 255l10 77h384l-10 -77h-384z" />
<glyph unicode="&#xf8;" horiz-adv-x="444" d="M218 -11q-17 0 -43 4l-27 -71h-51l32 85q-77 40 -77 166q0 196 71 291q57 77 162 77q22 0 45 -5l29 75h51l-35 -91q77 -45 77 -173q0 -211 -87 -302q-53 -56 -147 -56zM156 173q0 -47 10 -70l135 356q-14 4 -25 4q-36 0 -60 -27q-30 -34 -45 -117t-15 -146zM227 67 q27 0 47 16q39 31 57 117t18 152q0 45 -10 72l-135 -355q12 -2 23 -2z" />
<glyph unicode="&#xf9;" horiz-adv-x="467" d="M327 0l-4 65q-61 -76 -136 -76q-117 0 -117 137q0 30 9 90l39 313h100l-38 -307q-8 -54 -8 -80q0 -35 13.5 -53t46.5 -18q24 0 51 19t43 46l48 393h100l-64 -529h-83zM341 589h-60l-114 143l105 22z" />
<glyph unicode="&#xfa;" horiz-adv-x="467" d="M327 0l-4 65q-61 -76 -136 -76q-117 0 -117 137q0 30 9 90l39 313h100l-38 -307q-8 -54 -8 -80q0 -35 13.5 -53t46.5 -18q24 0 51 19t43 46l48 393h100l-64 -529h-83zM333 589h-60l109 165l100 -22z" />
<glyph unicode="&#xfb;" horiz-adv-x="467" d="M327 0l-4 65q-61 -76 -136 -76q-117 0 -117 137q0 30 9 90l39 313h100l-38 -307q-8 -54 -8 -80q0 -35 13.5 -53t46.5 -18q24 0 51 19t43 46l48 393h100l-64 -529h-83zM285 754h70l67 -165h-53l-55 110l-82 -110h-54z" />
<glyph unicode="&#xfc;" horiz-adv-x="467" d="M327 0l-4 65q-61 -76 -136 -76q-117 0 -117 137q0 30 9 90l39 313h100l-38 -307q-8 -54 -8 -80q0 -35 13.5 -53t46.5 -18q24 0 51 19t43 46l48 393h100l-64 -529h-83zM325 611l13 108h87l-13 -108h-87zM203 611l13 108h87l-13 -108h-87z" />
<glyph unicode="&#xfd;" horiz-adv-x="397" d="M205 85q67 194 132 444h110q-36 -116 -93.5 -285t-89.5 -249q-43 -106 -86.5 -151.5t-118.5 -45.5q-17 0 -43.5 6.5t-32.5 12.5l26 74q28 -13 56 -13q35 0 56.5 27.5t46.5 94.5l-44 -1q-33 181 -56 530h109q7 -222 24 -444h4zM291 589h-60l109 165l100 -22z" />
<glyph unicode="&#xfe;" horiz-adv-x="452" d="M30 -197l114 926l100 15l-26 -215l-17 -70l2 -1q23 35 58 59t72 24q36 0 62 -12t40 -29t21.5 -43t9.5 -46.5t2 -46.5q0 -96 -22.5 -182.5t-66.5 -135.5q-50 -57 -131 -57q-50 0 -96 30l-2 -56l-18 -152zM295 459q-28 0 -54 -21.5t-39 -52.5l-36 -290q27 -28 64 -28 q65 0 97 79q15 35 25 95t10 109q0 57 -12.5 83t-54.5 26z" />
<glyph unicode="&#xff;" horiz-adv-x="397" d="M205 85q67 194 132 444h110q-36 -116 -93.5 -285t-89.5 -249q-43 -106 -86.5 -151.5t-118.5 -45.5q-17 0 -43.5 6.5t-32.5 12.5l26 74q28 -13 56 -13q35 0 56.5 27.5t46.5 94.5l-44 -1q-33 181 -56 530h109q7 -222 24 -444h4zM286 611l13 108h87l-13 -108h-87zM164 611 l13 108h87l-13 -108h-87z" />
<glyph unicode="&#x152;" horiz-adv-x="771" d="M758 91l-11 -92h-322l8 71q-59 -87 -161 -87q-111 0 -155 65.5t-44 184.5q0 114 24 230t75 180q70 87 187 87q53 0 90.5 -22.5t54.5 -62.5l9 72h317l-19 -92h-212l-27 -220h188l-10 -82h-188l-28 -232h224zM352 635q-71 0 -110 -77q-24 -50 -40 -145t-16 -182 q0 -77 21 -115t77 -38q79 0 116 95q21 51 34.5 144.5t13.5 166.5q0 76 -20.5 113.5t-75.5 37.5z" />
<glyph unicode="&#x153;" horiz-adv-x="693" d="M573 541q72 0 108.5 -33.5t36.5 -89.5q0 -94 -69.5 -134.5t-204.5 -50.5q-3 -25 -3 -50q0 -56 19.5 -84t70.5 -28q61 0 137 38l15 -80q-28 -17 -79 -28.5t-95 -11.5q-94 0 -136 70q-35 -38 -70.5 -54t-84.5 -16q-166 0 -166 184q0 196 71 291q57 77 162 77q94 0 135 -75 q65 75 153 75zM227 67q27 0 47 16q39 31 57 117t18 152q0 55 -15.5 83t-57.5 28q-36 0 -60 -27q-30 -34 -45 -117t-15 -146q0 -52 14 -79t57 -27zM563 464q-91 0 -112 -166q171 9 171 107q0 59 -59 59z" />
<glyph unicode="&#x178;" horiz-adv-x="466" d="M92 717h115l69 -332h4l153 332h116q-135 -265 -225 -418l-36 -299h-110l36 299q-60 179 -122 418zM348 799l13 108h87l-13 -108h-87zM226 799l13 108h87l-13 -108h-87z" />
<glyph unicode="&#x2c6;" horiz-adv-x="500" d="M307 754h70l67 -165h-53l-55 110l-82 -110h-54z" />
<glyph unicode="&#x2dc;" horiz-adv-x="500" d="M437 712l33 -16q-33 -77 -86 -77q-26 0 -61.5 15t-45.5 15q-24 0 -47 -32l-38 18q32 76 92 76q26 0 62 -15.5t44 -15.5q23 0 47 32z" />
<glyph unicode="&#x2013;" horiz-adv-x="500" d="M31 256l9 73h500l-9 -73h-500z" />
<glyph unicode="&#x2014;" horiz-adv-x="1000" d="M31 256l9 73h1000l-10 -73h-999z" />
<glyph unicode="&#x2018;" horiz-adv-x="193" d="M249 724l-57 -209h-97l94 221z" />
<glyph unicode="&#x2019;" horiz-adv-x="189" d="M96 506l57 209h97l-94 -221z" />
<glyph unicode="&#x201a;" horiz-adv-x="195" d="M18 -91l57 209h97l-94 -221z" />
<glyph unicode="&#x201c;" horiz-adv-x="336" d="M392 724l-57 -209h-97l94 221zM249 724l-57 -209h-97l94 221z" />
<glyph unicode="&#x201d;" horiz-adv-x="335" d="M95 506l57 209h97l-94 -221zM237 506l57 209h97l-94 -221z" />
<glyph unicode="&#x201e;" horiz-adv-x="332" d="M18 -91l57 209h97l-94 -221zM155 -91l57 209h97l-94 -221z" />
<glyph unicode="&#x2022;" horiz-adv-x="317" d="M82 321q0 56 38 93.5t92 37.5q45 0 75 -29t30 -74q0 -56 -38 -93.5t-93 -37.5q-45 0 -74.5 29t-29.5 74z" />
<glyph unicode="&#x2026;" horiz-adv-x="642" d="M41 0l14 118h90l-14 -118h-90zM274 0l15 118h90l-14 -118h-91zM508 0l14 118h91l-14 -118h-91z" />
<glyph unicode="&#x2039;" horiz-adv-x="303" d="M328 490l-155 -221l101 -217h-94l-94 214l1 10l147 214h94z" />
<glyph unicode="&#x203a;" horiz-adv-x="307" d="M196 275l-105 215h94l98 -214l-1 -10l-144 -214h-94z" />
<glyph unicode="&#x20ac;" d="M101 378l6 55h62q51 298 257 298q44 0 89 -13t61 -26l-34 -83q-56 27 -108 27q-46 0 -73 -27q-49 -51 -74 -176h225l-18 -55h-216q-4 -29 -5 -47h207l-18 -55h-192q-1 -17 -1 -51q0 -70 20.5 -108t76.5 -38q48 0 121 30l10 -84q-26 -16 -74 -28.5t-86 -12.5 q-102 0 -143 57t-41 166q0 45 1 69h-66l7 55h62q2 32 4 47h-60z" />
<glyph unicode="&#x2122;" horiz-adv-x="782" d="M101 717h294l-8 -64h-100l-46 -369h-87l46 369h-107zM611 299h-70l-57 272l-35 -287h-76l54 433h109l58 -294l122 294h107l-53 -433h-80l36 294z" />
<glyph unicode="&#xe000;" horiz-adv-x="530" d="M0 530h530v-530h-530v530z" />
<glyph unicode="&#xfb01;" horiz-adv-x="475" d="M220 451l-55 -451h-102l55 451h-49l8 61l50 15l6 49q12 91 54.5 132t120.5 41q105 0 168 -51l-39 -70q-74 37 -127 37q-63 0 -75 -91l-6 -45h253l-64 -529h-102l55 451h-151z" />
<glyph unicode="&#xfb02;" horiz-adv-x="517" d="M341 159l61 489q-50 18 -96 18q-62 0 -73 -91l-5 -46h102l-10 -77h-102l-55 -452h-100l55 452h-48l7 60l50 15l7 56q21 166 160 166q38 0 121 -22l99 14l-74 -587q-5 -32 -5 -46q0 -33 30 -33q11 0 43 7l-1 -81q-35 -12 -69 -12q-59 0 -81.5 26t-22.5 73q0 20 7 71z" />
<glyph unicode="&#xfb03;" horiz-adv-x="762" d="M605 0l64 529h100l-64 -529h-100zM793 714l-13 -106h-104l13 106h104zM492 452l-56 -452h-100l56 452h-47l7 60l48 16l7 56q11 84 47.5 124.5t109.5 40.5q58 0 85 -19l-23 -74q-27 10 -52 10q-33 0 -47.5 -22t-20.5 -68l-5 -47h105l-9 -77h-105zM219 452l-56 -452h-100 l56 452h-47l7 60l48 16l7 56q11 84 47.5 124.5t109.5 40.5q58 0 85 -19l-23 -74q-27 10 -52 10q-33 0 -47.5 -22t-20.5 -68l-5 -47h105l-9 -77h-105z" />
<glyph unicode="&#xfb04;" horiz-adv-x="794" d="M791 741l-74 -587q-5 -32 -5 -46q0 -33 30 -33q12 0 43 7l-1 -81q-35 -12 -69 -12q-59 0 -81.5 26t-22.5 73q0 20 7 71l72 571zM492 452l-56 -452h-100l56 452h-47l7 60l48 16l7 56q11 84 47.5 124.5t109.5 40.5q58 0 85 -19l-23 -74q-27 10 -52 10q-33 0 -47.5 -22 t-20.5 -68l-5 -47h105l-9 -77h-105zM219 452l-56 -452h-100l56 452h-47l7 60l48 16l7 56q11 84 47.5 124.5t109.5 40.5q58 0 85 -19l-23 -74q-27 10 -52 10q-33 0 -47.5 -22t-20.5 -68l-5 -47h105l-9 -77h-105z" />
<glyph horiz-adv-x="0" />
</font>
</defs>
</svg>
