<?xml version="1.0" standalone="no"?>
<!DOCTYPE svg PUBLIC "-//W3C//DTD SVG 1.1//EN" "http://www.w3.org/Graphics/SVG/1.1/DTD/svg11.dtd" >
<svg xmlns="http://www.w3.org/2000/svg">
<metadata>
This is a custom SVG webfont generated by Font Squirrel.
Copyright   : Copyright c 2007 by Leftloft  Molotro All rights reserved
Designer    : Leftloft  Molotro
Foundry     : Leftloft  Molotro
Foundry URL : httpwwwmolotrocom
</metadata>
<defs>
<font id="BreraCondensedRegular" horiz-adv-x="1040" >
<font-face units-per-em="2048" ascent="1554" descent="-494" />
<missing-glyph horiz-adv-x="364" />
<glyph unicode=" "  horiz-adv-x="364" />
<glyph unicode="&#x09;" horiz-adv-x="364" />
<glyph unicode="&#xa0;" horiz-adv-x="364" />
<glyph unicode="!" horiz-adv-x="501" d="M152 831v627h198v-627l-18 -458h-160zM154 0h190v233h-190v-233z" />
<glyph unicode="&#x22;" horiz-adv-x="655" d="M102 1466h174l-34 -438h-107zM383 1466h174l-35 -438h-106z" />
<glyph unicode="#" horiz-adv-x="1529" d="M90 428l31 135h264l70 318h-262l32 137h264l101 430h170l-98 -430h337l103 430h172l-98 -430h266l-35 -137h-266l-70 -318h266l-32 -135h-271l-98 -428h-170l92 428h-336l-98 -428h-170l96 428h-260zM555 563h340l72 318h-340z" />
<glyph unicode="$" horiz-adv-x="1034" d="M96 145l72 156q217 -129 375 -129q100 0 151 54.5t51 150.5q0 90 -59 144t-221 136l-110 59q-36 19 -91 58t-81.5 73t-47 84t-20.5 107q0 147 85 250t230 127v170h182v-168q145 -18 320 -112l-76 -156q-195 102 -344 102q-92 0 -149.5 -50t-57.5 -146q0 -35 12.5 -62.5 t47 -53.5t61.5 -41t94 -49l107 -54q162 -84 237.5 -174.5t75.5 -221.5q0 -164 -89 -266t-237 -125v-184h-182v184q-166 24 -336 137z" />
<glyph unicode="%" horiz-adv-x="1755" d="M74 1075q0 -410 334 -409q338 0 337 409q0 195 -82.5 307.5t-254.5 112.5q-170 0 -252 -112.5t-82 -307.5zM252 1075q0 272 156 273q160 0 159 -273q0 -264 -159 -264q-156 0 -156 264zM457 0l669 1495h189l-670 -1495h-188zM1026 385q0 -408 334 -408q338 0 338 408 q0 193 -84 306.5t-254 113.5t-252 -112.5t-82 -307.5zM1204 385q0 272 156 272q160 0 160 -272q0 -264 -160 -264q-156 0 -156 264z" />
<glyph unicode="&#x26;" horiz-adv-x="1253" d="M70 330q0 135 87 238.5t279 215.5q-96 127 -137 209t-41 172q0 121 90 201t242 80q164 0 248 -80t84 -196.5t-70 -208t-213 -193.5l276 -387q86 109 136 209l145 -78q-70 -135 -180 -258l192 -256h-209l-102 141q-174 -164 -416 -164q-178 0 -294.5 95.5t-116.5 259.5z M252 354q0 -102 71.5 -164.5t176.5 -62.5q82 0 152.5 31.5t158.5 105.5l-297 414q-80 -57 -129 -98t-91 -103t-42 -123zM436 1139q0 -100 131 -277q168 131 168 285q0 170 -147 170q-74 0 -113 -50t-39 -128z" />
<glyph unicode="'" horiz-adv-x="362" d="M94 1466h174l-35 -438h-106z" />
<glyph unicode="(" horiz-adv-x="673" d="M147 684q10 508 265 866l155 -26q-229 -381 -229 -877v-43q6 -477 229 -866l-155 -31q-265 401 -265 937v40z" />
<glyph unicode=")" horiz-adv-x="673" d="M106 1524l156 26q252 -360 262 -866q12 -559 -262 -977l-156 31q219 383 230 866q6 533 -230 920z" />
<glyph unicode="*" horiz-adv-x="1034" d="M131 987l285 76l-232 192l90 99l211 -201l47 277l138 -29l-72 -271l266 97l47 -123l-278 -86l225 -195l-98 -94l-201 203l-49 -281l-137 29l71 276l-266 -100z" />
<glyph unicode="+" horiz-adv-x="1034" d="M154 541v145h340v369h155v-369h344v-145h-344v-371h-155v371h-340z" />
<glyph unicode="," horiz-adv-x="362" d="M43 -190l63 417h181l-131 -440z" />
<glyph unicode="-" horiz-adv-x="931" d="M166 541v145h584v-145h-584z" />
<glyph unicode="." horiz-adv-x="370" d="M100 0v227h174v-227h-174z" />
<glyph unicode="/" horiz-adv-x="837" d="M150 0l313 1466h196l-315 -1466h-194z" />
<glyph unicode="0" d="M63 719q0 729 459 729q129 0 221.5 -56.5t140.5 -161t69.5 -228t21.5 -283.5q0 -741 -453 -742q-459 1 -459 742zM260 719q0 -127 10.5 -223.5t37 -184.5t80.5 -136t134 -48t133.5 47t79 137t35.5 185.5t10 222.5q0 125 -10 218t-35.5 180t-79 133t-133.5 46t-134 -46 t-80.5 -132t-37 -180t-10.5 -219z" />
<glyph unicode="1" d="M203 1194q217 102 336 233h133v-1286l114 9h93v-150h-619v147h107l120 -6v750l2 301q-84 -80 -239 -141z" />
<glyph unicode="2" d="M123 1245q63 78 178 140.5t234 62.5q182 0 288.5 -101.5t106.5 -285.5q0 -215 -240 -500l-323 -411l237 12h336v-162h-793v141l367 469q115 143 167 240.5t52 200.5q0 111 -57.5 169t-163.5 58q-145 0 -301 -164z" />
<glyph unicode="3" d="M98 88l56 139q152 -94 317 -94q131 0 208 76t77 197q0 127 -83 191.5t-220 66.5l-131 -27l-23 141q174 23 286.5 96.5t112.5 198.5q0 106 -63.5 160.5t-171.5 54.5q-137 0 -293 -90l-55 131q47 43 158.5 81t218.5 38q174 0 286.5 -91t112.5 -263q0 -109 -66.5 -201 t-175.5 -141v-7q139 -20 220 -113t81 -237q0 -190 -125 -306t-338 -116q-109 0 -215 34t-174 81z" />
<glyph unicode="4" d="M59 238v143l467 1046h193l-354 -792l-134 -242h420l6 459l164 16v-475h168l-12 -155h-156v-256l-170 -15v271h-592z" />
<glyph unicode="5" d="M84 100l72 144q150 -106 315 -107q135 0 211 93.5t76 232.5t-63.5 220t-178.5 81q-129 0 -223 -98l-152 14l60 747h696l-12 -155h-529l-47 -449h8q100 94 248 95q176 0 282.5 -125t106.5 -320q0 -223 -134 -362.5t-339 -139.5q-227 0 -397 129z" />
<glyph unicode="6" d="M72 633q0 238 50 416t168 288.5t294 110.5q106 0 203.5 -35t146.5 -82l-62 -131q-147 88 -272 88q-319 0 -334 -534q123 160 316 159q174 0 274 -114.5t100 -311.5q0 -240 -118.5 -376t-325.5 -136q-217 0 -328.5 181.5t-111.5 476.5zM266 614q0 -485 256 -485 q117 0 180.5 98.5t63.5 264.5q0 131 -58.5 208.5t-177.5 77.5q-158 0 -264 -164z" />
<glyph unicode="7" d="M137 1255v172h819v-159q-455 -643 -456 -1268h-209q8 315 141 654t332 591v10h-627z" />
<glyph unicode="8" d="M59 369q0 135 74 234t197 151v6q-102 45 -165 131t-63 192q0 168 120 266.5t298 98.5t298 -94t120 -262q0 -233 -229 -336v-6q270 -115 270 -359q0 -184 -122 -300t-339 -116q-215 0 -337 108t-122 286zM250 385q0 -115 73.5 -187.5t196.5 -72.5q121 0 193.5 78t72.5 194 q0 213 -319 291q-98 -33 -157.5 -115t-59.5 -188zM287 1085q0 -207 291 -274q80 35 128 106.5t48 165.5q0 106 -66.5 165t-169 59t-167 -60t-64.5 -162z" />
<glyph unicode="9" d="M106 936q0 240 119 376t326 136q217 0 328.5 -181.5t111.5 -475.5q0 -238 -50 -416t-168 -289t-294 -111q-106 0 -203.5 35t-146.5 82l61 131q147 -88 273 -88q319 0 334 535q-123 -160 -316 -160q-174 0 -274.5 114.5t-100.5 311.5zM297 932q0 -131 58.5 -209t176.5 -78 q158 0 265 164q0 485 -256 485q-117 0 -180.5 -98t-63.5 -264z" />
<glyph unicode=":" horiz-adv-x="372" d="M100 0v227h174v-227h-174zM100 705v227h174v-227h-174z" />
<glyph unicode=";" horiz-adv-x="370" d="M43 -190l63 417h181l-131 -440zM106 705v227h175v-227h-175z" />
<glyph unicode="&#x3c;" horiz-adv-x="1034" d="M63 614v107l887 518v-178l-702 -393l702 -400v-180z" />
<glyph unicode="=" horiz-adv-x="1034" d="M82 307v146h874v-146h-874zM82 766v145h874v-145h-874z" />
<glyph unicode="&#x3e;" horiz-adv-x="1034" d="M84 88v180l702 400l-702 393v178l887 -518v-107z" />
<glyph unicode="?" horiz-adv-x="966" d="M68 1294q61 61 164.5 114.5t224.5 53.5q190 0 301.5 -100t111.5 -287q0 -88 -38.5 -162.5t-95.5 -125.5l-112 -96q-56 -46 -95.5 -99t-39.5 -111q0 -31 9 -96h-166q-18 82 -19 137q0 74 37 136.5t89 106.5l105 87q52 43 89 98.5t37 116.5q0 111 -58.5 169t-167.5 58 q-147 0 -290 -133zM315 0h191v227h-191v-227z" />
<glyph unicode="@" horiz-adv-x="1853" d="M61 424q0 289 130.5 514t355.5 347t504 122q346 0 543.5 -201.5t197.5 -537.5q0 -279 -124 -465.5t-306 -186.5q-109 0 -174.5 67t-79.5 153q-106 -223 -297 -224q-137 0 -217 92.5t-80 282.5q0 266 127 450.5t338 184.5q125 0 197 -90l30 67h133l-102 -643 q-3 -23 -3 -44q0 -56 22 -102q32 -65 114 -65q102 0 181 149.5t79 371.5q0 281 -147.5 439.5t-448.5 158.5q-330 0 -566.5 -242t-236.5 -598q0 -172 47.5 -304t129 -208t180 -114t211.5 -38q205 0 415 86v-149q-229 -78 -432 -78q-143 0 -270 48t-229.5 142.5t-162 253 t-59.5 361.5zM696 389q0 -246 150 -246q84 0 142.5 78t76.5 152l78 456q-16 29 -59.5 48.5t-90.5 19.5q-131 0 -214 -149.5t-83 -358.5z" />
<glyph unicode="A" horiz-adv-x="1112" d="M23 0l409 1466h248l407 -1466h-204l-97 360h-462l-97 -360h-204zM354 510h400l-140 563q-27 109 -49 230h-12q-16 -90 -51 -230z" />
<glyph unicode="B" horiz-adv-x="1124" d="M139 0v1466h432q205 0 323 -96t118 -291q0 -111 -57.5 -192.5t-159.5 -120.5v-4q119 -35 188.5 -124t69.5 -226q0 -203 -124 -307.5t-337 -104.5h-453zM336 823h209q119 0 192.5 63.5t73.5 176.5q0 242 -272 242h-203v-482zM336 164h219q139 0 217 67.5t78 200.5 q0 141 -85 195.5t-228 54.5h-201v-518z" />
<glyph unicode="C" horiz-adv-x="1007" d="M82 750q0 352 124 548.5t388 196.5q94 0 192.5 -29.5t147.5 -70.5l-49 -148q-135 76 -275 76q-322 0 -321 -573q0 -137 14 -240.5t49 -192t99.5 -134.5t158.5 -46q139 0 289 94l53 -147q-66 -49 -167 -83t-197 -34q-119 0 -208 40t-145.5 107.5t-91 169t-48 213.5 t-13.5 253z" />
<glyph unicode="D" horiz-adv-x="1191" d="M139 0v1466h375q594 0 594 -721q0 -348 -143.5 -546.5t-448.5 -198.5h-377zM336 164h172q215 0 304 150.5t89 430.5q0 274 -90 416t-303 142h-172v-1139z" />
<glyph unicode="E" horiz-adv-x="956" d="M139 0v1466h731l-16 -163h-518v-478h463v-149h-463v-512h545v-164h-742z" />
<glyph unicode="F" horiz-adv-x="919" d="M139 0v1466h731l-14 -163h-520v-512h459v-158h-459v-633h-197z" />
<glyph unicode="G" horiz-adv-x="1140" d="M82 737q0 344 135 551t404 207q125 0 236.5 -35t166.5 -80l-45 -149q-178 92 -344 92q-174 0 -260 -161t-86 -423q0 -274 82 -438t256 -164q137 0 239 60v391h-227l2 143h401v-649q-186 -115 -419 -115q-541 0 -541 770z" />
<glyph unicode="H" horiz-adv-x="1181" d="M139 0v1466h197v-630h510v630h196v-1466h-196v674h-510v-674h-197z" />
<glyph unicode="I" horiz-adv-x="475" d="M139 0v1466h197v-1466h-197z" />
<glyph unicode="J" horiz-adv-x="604" d="M16 -12l17 162q43 -12 92 -13q96 0 130 64.5t34 224.5v1040h196v-1034q0 -242 -61.5 -351.5t-255.5 -109.5q-80 1 -152 17z" />
<glyph unicode="K" horiz-adv-x="1083" d="M139 0v1466h197v-1466h-197zM358 735v13l443 718h217l-457 -723l471 -743h-223z" />
<glyph unicode="L" horiz-adv-x="907" d="M139 0v1466h197v-1306h530l-14 -160h-713z" />
<glyph unicode="M" horiz-adv-x="1488" d="M139 0v1466h269l356 -1122h6l328 1122h254v-1466h-183v1163h-8l-321 -1114h-160l-354 1114h-7v-1163h-180z" />
<glyph unicode="N" horiz-adv-x="1234" d="M139 0v1466h246l530 -1169h9l-9 1169h183v-1466h-236l-538 1182h-11l9 -1182h-183z" />
<glyph unicode="O" horiz-adv-x="1218" d="M82 731q0 764 530 764q524 0 525 -766q0 -762 -525 -762q-530 0 -530 764zM291 731q0 -285 73.5 -439.5t247.5 -154.5q172 0 244 153.5t72 438.5q0 283 -72 438.5t-244 155.5q-321 0 -321 -592z" />
<glyph unicode="P" horiz-adv-x="1062" d="M139 0v1466h310q281 0 421 -105.5t140 -363.5q0 -487 -523 -487h-151v-510h-197zM336 662h141q172 0 251 78.5t79 254.5q0 170 -84 242t-246 72h-141v-647z" />
<glyph unicode="Q" horiz-adv-x="1218" d="M82 739q0 756 530 756q524 0 525 -756q0 -590 -291 -714l252 -177l-144 -122l-270 249q-31 -8 -72 -8q-530 0 -530 772zM291 739q0 -289 73.5 -445.5t247.5 -156.5t245 156t71 446q0 287 -71 435.5t-245 148.5t-247.5 -149.5t-73.5 -434.5z" />
<glyph unicode="R" horiz-adv-x="1079" d="M139 0v1466h336q258 0 394.5 -104.5t136.5 -337.5q0 -156 -67 -263.5t-187 -154.5l96 -190l170 -416h-207l-238 571q-41 -4 -237 -4v-567h-197zM336 711h192q133 0 205 79.5t72 225.5q0 152 -75 222.5t-230 70.5h-164v-598z" />
<glyph unicode="S" horiz-adv-x="993" d="M63 113l72 155q197 -131 377 -131q104 0 161.5 60.5t57.5 162.5q0 94 -62.5 150.5t-232.5 148.5q-190 100 -273 190.5t-83 244.5q0 172 116.5 286.5t297.5 114.5q123 0 242.5 -40t181.5 -87l-78 -156q-178 113 -351 113q-96 0 -155.5 -55.5t-59.5 -161.5q0 -23 3.5 -42 t14.5 -37.5t20.5 -32t29.5 -31t34.5 -27.5t46.5 -28.5t49 -30t59 -33.5l65 -35q174 -96 252 -186t78 -236q0 -197 -118 -309.5t-302 -112.5q-129 0 -248 43.5t-195 102.5z" />
<glyph unicode="T" horiz-adv-x="987" d="M47 1305v161h893v-161h-338v-1305h-199v1305h-356z" />
<glyph unicode="U" horiz-adv-x="1138" d="M119 481v985h192v-995q0 -330 258 -330t258 344v981h193v-974q0 -516 -450.5 -516.5t-450.5 505.5z" />
<glyph unicode="V" horiz-adv-x="1028" d="M23 1466h215q129 -700 278 -1296h8q158 641 275 1296h207q-190 -895 -353 -1466h-280q-178 647 -350 1466z" />
<glyph unicode="W" horiz-adv-x="1536" d="M23 1466h202q135 -852 234 -1294h8q158 594 229 983l-65 311h194q184 -1026 246 -1294h8q147 690 234 1294h198q-39 -244 -137 -706.5t-174 -759.5h-248q-109 444 -178 809h-8q-20 -111 -90 -386.5t-113 -422.5h-237q-174 723 -303 1466z" />
<glyph unicode="X" horiz-adv-x="1060" d="M20 0q23 49 392 739q-39 70 -191.5 366t-181.5 361h215l285 -577h8l272 577h203q-14 -41 -93 -199l-175 -345l-99 -191q2 -2 102 -187l182 -344q83 -159 101 -200h-211l-301 588h-8l-293 -588h-207z" />
<glyph unicode="Y" horiz-adv-x="1019" d="M20 1466h209l277 -680h8l279 680h206q-213 -485 -391 -848v-618h-198v618q-183 375 -390 848z" />
<glyph unicode="Z" horiz-adv-x="933" d="M27 0v141l647 1162h-615v163h842v-137l-657 -1165h663v-164h-880z" />
<glyph unicode="[" horiz-adv-x="657" d="M166 -307v1966h426v-162h-244v-1642h244v-162h-426z" />
<glyph unicode="\" horiz-adv-x="837" d="M164 1466h196l314 -1466h-195z" />
<glyph unicode="]" horiz-adv-x="671" d="M66 -145h243v1642h-243v162h426v-1966h-426v162z" />
<glyph unicode="^" horiz-adv-x="1034" d="M29 872l399 725h178l400 -725h-203l-287 564l-285 -564h-202z" />
<glyph unicode="_" horiz-adv-x="1024" d="M0 -164h1024v-76h-1024v76z" />
<glyph unicode="`" horiz-adv-x="1024" d="M319 1497l195 41l197 -332h-115z" />
<glyph unicode="a" horiz-adv-x="946" d="M55 285q0 82 28 142t75 99t122.5 65.5t160.5 39t200 20.5v94q0 104 -45 154.5t-141 50.5q-137 0 -330 -88l-47 139q53 37 178 70t221 33q176 0 261 -84t85 -264v-496q0 -59 17 -256l-166 -12q-20 84 -25 172q-125 -186 -297 -187q-137 0 -217 83.5t-80 224.5zM242 305 q0 -90 41 -140t120 -50q131 0 238 188v232q-90 -4 -153.5 -15.5t-124 -35t-91 -68.5t-30.5 -111z" />
<glyph unicode="b" horiz-adv-x="991" d="M123 29v1464l184 20v-376l-14 -179q137 145 262 146q375 0 375 -531q0 -303 -105.5 -449.5t-353.5 -146.5q-135 1 -348 52zM307 145q84 -23 160 -22q154 0 212 104.5t58 335.5q0 193 -50 291t-173 98q-49 0 -109.5 -42t-97.5 -93v-672z" />
<glyph unicode="c" horiz-adv-x="784" d="M61 541q0 274 92.5 418.5t309.5 144.5q82 0 164 -23.5t114 -52.5l-47 -139q-104 57 -209 57q-231 0 -231 -405q0 -195 51 -300.5t180 -105.5q106 0 213 55l47 -137q-41 -29 -128 -52.5t-156 -23.5q-217 0 -308.5 144t-91.5 420z" />
<glyph unicode="d" horiz-adv-x="991" d="M61 549q0 260 100.5 407.5t293.5 147.5q123 0 241 -82l-12 164v307l184 20v-1513h-161l-11 147q-96 -170 -272 -170q-363 1 -363 572zM254 547q0 -418 211 -418q78 0 137.5 54.5t81.5 133.5v568q-82 74 -186 73q-244 1 -244 -411z" />
<glyph unicode="e" horiz-adv-x="925" d="M61 539q0 266 102.5 415.5t311.5 149.5q387 0 387 -459q0 -109 -10 -160h-600q4 -358 262 -358q129 0 289 74l47 -138q-63 -37 -164.5 -61.5t-191.5 -24.5q-433 1 -433 562zM252 606l424 2q2 14 2 54q0 147 -43 224t-160 77q-215 -1 -223 -357z" />
<glyph unicode="f" horiz-adv-x="595" d="M33 936v113l100 26v117q0 338 285 338q121 0 188 -37l-26 -137q-59 25 -125 24q-78 0 -108 -50t-30 -154v-97h244v-143h-244v-936h-184v936h-100z" />
<glyph unicode="g" horiz-adv-x="968" d="M39 -129q0 158 188 244q-82 45 -82 118q0 78 101 132q-178 96 -178 342q0 186 101 291.5t275 105.5q152 0 252 -88l224 84l24 -148l-172 -41q57 -90 57 -204q0 -387 -376 -388q-55 0 -103 13q-49 -20 -49 -64q0 -31 51 -44t228 -27q182 -14 269 -80t87 -209 q0 -162 -133 -244t-340 -82q-193 0 -308.5 75t-115.5 214zM207 -109q0 -86 68.5 -132t185.5 -46q133 0 212 44t79 128t-51.5 121t-182.5 49q-27 4 -91 11l-87 8q-57 -27 -95 -76.5t-38 -106.5zM252 709q0 -131 44 -197t150 -66q109 0 154 66t45 197q0 123 -49 192.5 t-150 69.5q-98 0 -146 -70.5t-48 -191.5z" />
<glyph unicode="h" horiz-adv-x="999" d="M123 0v1493l184 20v-331l-12 -246q135 168 289 168q307 0 307 -375v-729h-184v729q0 115 -38 169t-134 54q-119 0 -228 -161v-791h-184z" />
<glyph unicode="i" horiz-adv-x="430" d="M119 1251v207h192v-207h-192zM123 0v1079h184v-1079h-184z" />
<glyph unicode="j" horiz-adv-x="430" d="M-47 -326q98 90 134 175t36 200v1030h184v-1028q0 -152 -53 -266.5t-172 -214.5zM119 1251v207h192v-207h-192z" />
<glyph unicode="k" horiz-adv-x="903" d="M123 0v1493l184 20v-1513h-184zM340 573v17l317 489h215l-335 -481l358 -598h-209z" />
<glyph unicode="l" horiz-adv-x="430" d="M123 0v1493l184 20v-1513h-184z" />
<glyph unicode="m" horiz-adv-x="1511" d="M123 0v1079h182l-10 -145q141 170 280 170q184 0 254 -164q57 70 133 117t152 47q287 0 287 -363v-741h-182v733q0 219 -150 219q-111 0 -209 -139v-813h-184v731q0 219 -148 219q-106 0 -221 -151v-799h-184z" />
<glyph unicode="n" horiz-adv-x="997" d="M123 0v1079h180l-10 -157q137 182 299 182q160 0 228.5 -95.5t68.5 -273.5v-735h-182v705q0 119 -35 183t-125 64q-70 0 -133.5 -50t-106.5 -124v-778h-184z" />
<glyph unicode="o" horiz-adv-x="972" d="M61 535q0 569 424 569q426 0 426 -569q0 -557 -426 -558q-424 1 -424 558zM254 535q0 -203 51 -307.5t180 -104.5q127 0 180.5 105.5t53.5 306.5q0 203 -53.5 313t-180.5 110t-179 -109t-52 -314z" />
<glyph unicode="p" horiz-adv-x="991" d="M123 1079h182l-14 -159h2q47 78 120.5 131t159.5 53q100 0 172 -41t111 -118t56.5 -172t17.5 -220q0 -266 -98.5 -421t-296.5 -155q-127 0 -240 78l12 -135v-317l-184 -17v1493zM307 195q82 -72 182 -72q248 0 248 430q0 188 -46 293.5t-169 105.5q-68 0 -126 -53 t-89 -127v-577z" />
<glyph unicode="q" horiz-adv-x="991" d="M61 547q0 104 20.5 197.5t63.5 176.5t120 132t181 49h13q143 0 241 -92h2l13 69h151v-1476l-182 -17v367l8 176q-106 -152 -252 -152q-109 0 -185.5 43t-117.5 125t-58.5 178.5t-17.5 223.5zM254 545q0 -199 48 -307.5t181 -108.5q55 0 111.5 45t89.5 105v595 q-86 82 -192 82q-238 1 -238 -411z" />
<glyph unicode="r" horiz-adv-x="632" d="M123 0v1079h178l-14 -233h4q31 113 98.5 185.5t155.5 72.5q43 0 69 -14l-14 -187q-31 14 -74 15q-86 0 -152.5 -84t-66.5 -191v-643h-184z" />
<glyph unicode="s" horiz-adv-x="806" d="M47 82l55 139q176 -92 295 -92q74 0 124 42t50 110q0 76 -47 112.5t-180 85.5q-135 51 -201.5 121t-66.5 195q0 145 93 227t245 82q88 0 191.5 -30t144.5 -62l-50 -135q-152 76 -274 75q-72 0 -120 -41t-48 -104q0 -66 47 -102.5t168 -81.5q152 -57 217.5 -123t65.5 -201 q0 -152 -96.5 -237t-251.5 -85q-92 0 -205 35t-156 70z" />
<glyph unicode="t" horiz-adv-x="604" d="M23 936v117l116 24v260l180 29v-287h226v-143h-226v-653q0 -82 19.5 -118t69.5 -36q72 0 141 25l22 -138q-88 -39 -213 -39q-121 0 -172 71t-51 220v668h-112z" />
<glyph unicode="u" horiz-adv-x="1001" d="M113 350v729h182v-719q0 -231 170 -231q63 0 127.5 49t101.5 117v784h185v-1079h-160l-14 150q-127 -172 -297 -173q-295 0 -295 373z" />
<glyph unicode="v" horiz-adv-x="868" d="M27 1079h200q113 -569 203 -917h8q88 326 205 917h199q-143 -674 -283 -1079h-250q-143 422 -282 1079z" />
<glyph unicode="w" horiz-adv-x="1335" d="M27 1079h194q123 -723 172 -919h10q37 111 99.5 347t85.5 345l-47 227h192q127 -637 199 -919h12q33 119 170 919h195q-143 -756 -242 -1079h-236q-90 295 -167 639q-72 -330 -175 -639h-225q-122 428 -237 1079z" />
<glyph unicode="x" horiz-adv-x="839" d="M27 0q131 268 280 545q-162 303 -272 534h207l188 -420l178 420h199q-123 -256 -275 -534q137 -248 281 -545h-203l-198 422l-193 -422h-192z" />
<glyph unicode="y" horiz-adv-x="890" d="M43 -383l35 139q68 -27 125 -26q78 0 122 63.5t83 206.5h-78q-96 283 -285 1079h201q109 -553 207 -919h8q88 328 205 919h198q-141 -643 -276 -1079q-70 -225 -149 -322.5t-226 -97.5q-37 0 -94.5 12.5t-75.5 24.5z" />
<glyph unicode="z" horiz-adv-x="774" d="M45 0v135l461 799h-447v145h662v-129l-465 -805h475v-145h-686z" />
<glyph unicode="{" horiz-adv-x="671" d="M20 594v166q2 0 22.5 5t39 11t43.5 23.5t43 40t30.5 62.5t12.5 91v221q0 231 94 338t311 107h35v-150h-35q-141 0 -193 -70.5t-52 -230.5v-235q0 -121 -54.5 -197t-150.5 -100q205 -51 205 -293v-242q0 -158 52 -225.5t193 -67.5h35v-155h-35q-217 0 -311 106.5 t-94 335.5v227q0 51 -12.5 91.5t-30.5 63t-43 38.5t-43.5 22.5t-39 11.5t-22.5 5z" />
<glyph unicode="|" horiz-adv-x="1024" d="M414 -524v2048h196v-2048h-196z" />
<glyph unicode="}" horiz-adv-x="671" d="M20 -152h35q141 0 193.5 68t52.5 225v242q0 242 205 293q-96 25 -150.5 100.5t-54.5 196.5v235q0 160 -52 230.5t-194 70.5h-35v150h35q217 0 311.5 -106.5t94.5 -338.5v-221q0 -51 12 -91t30.5 -62.5t43 -40t43 -23.5t39 -11t22.5 -5v-166q-2 0 -22.5 -5t-39 -11.5 t-43 -22.5t-43 -38.5t-30.5 -62.5t-12 -92v-227q0 -229 -94.5 -335.5t-311.5 -106.5h-35v155z" />
<glyph unicode="~" horiz-adv-x="1034" d="M57 473q72 223 262 223q66 0 201 -59t191 -62q80 0 141 121l123 -41q-35 -113 -100.5 -171t-151.5 -58q-72 0 -203 59.5t-194 59.5q-86 0 -140 -117z" />
<glyph unicode="&#xa1;" horiz-adv-x="497" d="M150 0h198v627l-18 458h-160l-20 -458v-627zM152 1225v233h190v-233h-190z" />
<glyph unicode="&#xa2;" d="M193 731.5q0 237.5 66.5 377.5t223.5 175v182h158l-2 -172q162 -16 233 -75l-47 -138q-100 55 -209 56q-127 0 -179 -106.5t-52 -299.5q0 -195 51 -299t180 -104q94 0 213 53l48 -137q-84 -57 -238 -72l2 -172h-158v180q-158 35 -224 174.5t-66 377z" />
<glyph unicode="&#xa3;" d="M98 0v147h152v562h-152v112l152 29v180q0 213 82 318.5t278 105.5q195 0 330 -86q-8 -16 -28.5 -71.5t-26.5 -67.5q-113 66 -246 65q-102 0 -154.5 -61.5t-52.5 -202.5v-180h402l-21 -141h-381v-562h504v-147h-838z" />
<glyph unicode="&#xa5;" d="M43 1444h209l264 -658h8l267 658h208l-317 -688h254v-146h-318v-168h318v-147h-318v-295h-196v295h-313v147h313v168h-313v146h249z" />
<glyph unicode="&#xa6;" horiz-adv-x="1024" d="M420 279h184v-799h-184v799zM420 721v799h184v-799h-184z" />
<glyph unicode="&#xa7;" d="M76 -295l69 145q225 -125 377 -124q104 0 162.5 59t58.5 156q0 92 -64.5 143t-232.5 119q-195 80 -273.5 165t-78.5 228q0 147 144 250q-131 106 -132 266q0 166 115 274.5t295 108.5q188 0 424 -121l-78 -145q-207 106 -350 106q-96 0 -155.5 -52t-59.5 -155 q0 -86 70.5 -140t250.5 -124q182 -72 262.5 -161t80.5 -232q0 -152 -132 -258q109 -98 109 -246q0 -193 -119 -297t-301 -104q-219 0 -442 139zM285 610q0 -82 54 -129t206 -106q86 -35 137 -64q84 49 84 133q0 86 -55.5 140.5t-175.5 103.5q-113 45 -150 64 q-100 -52 -100 -142z" />
<glyph unicode="&#xa8;" horiz-adv-x="1024" d="M299 1257v209h164v-209h-164zM561 1257v209h164v-209h-164z" />
<glyph unicode="&#xa9;" horiz-adv-x="1652" d="M63 727q0 315 223.5 537.5t539 222.5t538.5 -222.5t223 -537.5t-223 -537.5t-538.5 -222.5t-539 222.5t-223.5 537.5zM203 727q0 -262 181 -441.5t441 -179.5q258 0 441.5 181.5t183.5 439.5q0 256 -184.5 438.5t-440.5 182.5q-258 0 -440 -182.5t-182 -438.5zM510 727 q0 -395 319 -395q125 0 230 65l-43 103q-92 -51 -172 -51q-186 0 -187 278q0 258 185 258q80 0 168 -41l37 100q-80 57 -216 58q-162 0 -241.5 -99.5t-79.5 -275.5z" />
<glyph unicode="&#xaa;" horiz-adv-x="835" d="M86 969q0 129 106.5 182t319.5 66v55q0 121 -137 121q-96 0 -240 -60l-37 107q39 25 131.5 48t161.5 23q264 0 264 -235v-322q0 -80 13 -172l-129 -8q-6 20 -19 98q-37 -47 -95 -77.5t-120 -30.5q-102 0 -160.5 55.5t-58.5 149.5zM231 983q0 -115 109 -115q47 0 94 34 t78 83v137q-86 -4 -140.5 -13t-97.5 -41t-43 -85z" />
<glyph unicode="&#xab;" horiz-adv-x="1007" d="M106 545v20l285 439h182l-292 -449l292 -449h-182zM473 545v20l285 439h182l-293 -449l293 -449h-182z" />
<glyph unicode="&#xad;" horiz-adv-x="931" d="M166 541v145h584v-145h-584z" />
<glyph unicode="&#xae;" horiz-adv-x="1650" d="M63 727q0 315 223.5 537.5t539 222.5t537.5 -222.5t222 -537.5t-222 -537.5t-537.5 -222.5t-539 222.5t-223.5 537.5zM201 725q0 -260 182 -441.5t442 -181.5t442.5 181.5t182.5 441.5t-182.5 442.5t-442.5 182.5t-442 -182.5t-182 -442.5zM592 354h127v277l117 2 l137 -279h141l-108 217l-48 82q70 25 108 80t38 131q0 227 -316 228h-196v-738zM719 729v258h84q170 0 170 -127q0 -131 -152 -131h-102z" />
<glyph unicode="&#xaf;" horiz-adv-x="1024" d="M211 1315v92h602v-92h-602z" />
<glyph unicode="&#xb0;" horiz-adv-x="679" d="M80 1401q0 106 69.5 176t178.5 70q111 0 181.5 -71t70.5 -175.5t-71 -172t-181.5 -67.5t-179 68t-68.5 172zM199 1400.5q0 -61.5 34.5 -97t94.5 -35.5q61 0 96 35.5t35 97t-36 100.5t-95.5 39t-94 -39t-34.5 -100.5z" />
<glyph unicode="&#xb1;" d="M100 0v143h842v-143h-842zM100 541v145h340v369h156v-369h344v-145h-344v-310h-156v310h-340z" />
<glyph unicode="&#xb2;" horiz-adv-x="882" d="M82 1354q45 53 137 97t178 44q133 0 215 -69.5t82 -192.5q0 -147 -174 -334l-237 -256l125 6h305v-119h-613v101l334 368q106 121 107 228q0 68 -43 104.5t-117 36.5q-111 0 -227 -108z" />
<glyph unicode="&#xb3;" horiz-adv-x="890" d="M90 594l45 104q113 -63 240 -63q92 0 145 48t53 124q0 78 -58 118t-150 44l-113 -19l-16 107q127 16 211.5 62t84.5 124q0 66 -45 98.5t-118 32.5q-94 0 -222 -61l-45 98q37 31 123 57.5t164 26.5q127 0 210 -61.5t83 -178.5q0 -141 -156 -223q92 -18 145.5 -79.5 t53.5 -151.5q0 -127 -91 -206t-245 -79q-80 0 -165 23.5t-134 54.5z" />
<glyph unicode="&#xb4;" horiz-adv-x="1024" d="M319 1206l199 332l193 -41l-277 -291h-115z" />
<glyph unicode="&#xb5;" horiz-adv-x="1015" d="M125 1079h184v-721q0 -229 170 -229q63 0 128 49t102 117v784h182v-1079h-158l-16 150q-102 -143 -236 -156q-22 -3 -42 -3q-75 0 -132 36v-424l-182 -15v1491z" />
<glyph unicode="&#x3bc;" horiz-adv-x="1015" d="M125 1079h184v-721q0 -229 170 -229q63 0 128 49t102 117v784h182v-1079h-158l-16 150q-102 -143 -236 -156q-22 -3 -42 -3q-75 0 -132 36v-424l-182 -15v1491z" />
<glyph unicode="&#xb6;" horiz-adv-x="1140" d="M88 997q0 221 110.5 345t333.5 124h207v-1466h-139v510h-108q-203 0 -303.5 135t-100.5 352zM844 0v1466h157v-1466h-157z" />
<glyph unicode="&#xb7;" horiz-adv-x="516" d="M158 457v225h172v-225h-172z" />
<glyph unicode="&#xb8;" horiz-adv-x="1024" d="M147 -330h158q102 0 103 66q0 41 -28 54t-97 13h-76v197h92v-102q113 0 167 -37t54 -121q0 -90 -57 -128t-168 -38h-148v96z" />
<glyph unicode="&#xb9;" horiz-adv-x="776" d="M84 1303q180 76 256 157h106v-827l76 6h82v-111h-479v109h96l78 -4v461l4 190q-76 -51 -182 -88z" />
<glyph unicode="&#xba;" horiz-adv-x="870" d="M86 1133q0 379 305 378q311 0 311 -378q0 -369 -311 -369q-305 0 -305 369zM236 1133q0 -129 33.5 -195t121.5 -66t124 67t36 194q0 268 -160 268q-86 0 -120.5 -69.5t-34.5 -198.5z" />
<glyph unicode="&#xbb;" horiz-adv-x="1007" d="M70 106l292 449l-292 449h182l285 -439v-20l-285 -439h-182zM436 106l293 449l-293 449h182l285 -439v-20l-285 -439h-182z" />
<glyph unicode="&#xbc;" horiz-adv-x="1933" d="M106 1303q180 76 256 157h107v-827l76 6h82v-111h-480v109h97l78 -4v461l4 190q-76 -51 -183 -88zM592 0l596 1466h143l-596 -1466h-143zM1128 156v100l334 688h150l-258 -528l-86 -148h280l6 301l127 11v-312h121l-10 -112h-111v-168l-133 -11v179h-420z" />
<glyph unicode="&#xbd;" horiz-adv-x="1937" d="M106 1303q180 76 256 157h107v-827l76 6h82v-111h-480v109h97l78 -4v461l4 190q-76 -51 -183 -88zM592 0l596 1466h143l-596 -1466h-143zM1227 823q45 53 137 97.5t178 44.5q133 0 215 -70t82 -193q0 -147 -174 -333l-238 -256l125 6h306v-119h-613v100l334 369 q106 121 107 227q0 68 -43.5 105t-116.5 37q-111 0 -228 -109z" />
<glyph unicode="&#xbe;" horiz-adv-x="1947" d="M117 594l45 104q113 -63 239 -63q92 0 145.5 48t53.5 124q0 78 -58.5 118t-150.5 44l-112 -19l-17 107q127 16 212 62t85 124q0 66 -45 98.5t-119 32.5q-94 0 -221 -61l-45 98q37 31 123 57.5t164 26.5q127 0 210 -61.5t83 -178.5q0 -141 -156 -223q92 -18 145.5 -79.5 t53.5 -151.5q0 -127 -91.5 -206t-244.5 -79q-80 0 -165 23.5t-134 54.5zM623 0l594 1466h143l-596 -1466h-141zM1157 156v102l334 686h154l-259 -528l-88 -146h279l6 299l129 11v-310h119l-8 -114h-111v-168l-135 -11v179h-420z" />
<glyph unicode="&#xbf;" horiz-adv-x="966" d="M96 387q0 88 39 163t95 125l113 96q56 46 95 99.5t39 110.5q0 31 -8 96h166q18 -82 18 -137q0 -74 -36.5 -136.5t-89.5 -106.5l-104 -87q-52 -43 -89 -98t-37 -117q0 -111 58.5 -169t166.5 -58q147 0 291 133l86 -133q-61 -61 -164.5 -114.5t-224.5 -53.5 q-190 0 -302 100.5t-112 286.5zM461 1235v227h190v-227h-190z" />
<glyph unicode="&#xc0;" horiz-adv-x="1112" d="M23 0l409 1466h248l407 -1466h-204l-97 360h-462l-97 -360h-204zM260 1884l195 41l196 -332h-114zM354 510h400l-140 563q-27 109 -49 230h-12q-16 -90 -51 -230z" />
<glyph unicode="&#xc1;" horiz-adv-x="1112" d="M23 0l409 1466h248l407 -1466h-204l-97 360h-462l-97 -360h-204zM354 510h400l-140 563q-27 109 -49 230h-12q-16 -90 -51 -230zM444 1593l199 332l193 -41l-277 -291h-115z" />
<glyph unicode="&#xc2;" horiz-adv-x="1112" d="M23 0l409 1466h248l407 -1466h-204l-97 360h-462l-97 -360h-204zM301 1593l188 332h136l188 -332h-98l-158 228l-156 -228h-100zM354 510h400l-140 563q-27 109 -49 230h-12q-16 -90 -51 -230z" />
<glyph unicode="&#xc3;" horiz-adv-x="1112" d="M23 0l409 1466h248l407 -1466h-204l-97 360h-462l-97 -360h-204zM283 1692q43 145 163 145q51 0 135.5 -31.5t106.5 -31.5q51 0 92 63l64 -29q-43 -150 -152 -149q-53 0 -139 30.5t-107 30.5q-51 0 -90 -61zM354 510h400l-140 563q-27 109 -49 230h-12q-16 -90 -51 -230z " />
<glyph unicode="&#xc4;" horiz-adv-x="1112" d="M23 0l409 1466h248l407 -1466h-204l-97 360h-462l-97 -360h-204zM340 1645v208h164v-208h-164zM354 510h400l-140 563q-27 109 -49 230h-12q-16 -90 -51 -230zM602 1645v208h164v-208h-164z" />
<glyph unicode="&#xc5;" horiz-adv-x="1112" d="M23 0l409 1466h248l407 -1466h-204l-97 360h-462l-97 -360h-204zM354 510h400l-140 563q-27 109 -49 230h-12q-16 -90 -51 -230zM375 1772q0 72 53 125t125 53q74 0 127 -53.5t53 -124.5q0 -74 -52 -126.5t-128 -52.5q-74 0 -126 52.5t-52 126.5zM465 1771.5 q0 -36.5 26.5 -62.5t61.5 -26q37 0 63.5 27t26.5 62q0 37 -26.5 63.5t-63.5 26.5t-62.5 -27t-25.5 -63.5z" />
<glyph unicode="&#xc6;" horiz-adv-x="1576" d="M23 0l561 1466h905l-16 -163h-521v-465h467v-156h-467v-516h549v-166h-743v360h-396l-133 -360h-206zM412 510h346v799h-58z" />
<glyph unicode="&#xc7;" horiz-adv-x="1007" d="M82 750q0 352 124 548.5t388 196.5q94 0 192.5 -29.5t147.5 -70.5l-49 -148q-135 76 -275 76q-322 0 -321 -573q0 -137 14 -240.5t49 -192t99.5 -134.5t158.5 -46q139 0 289 94l53 -147q-66 -49 -167 -83t-197 -34v-69q113 0 167 -37t54 -121q0 -90 -57.5 -128 t-167.5 -38h-148v96h158q102 0 102 66q0 41 -27.5 54t-97.5 13h-75v170q-121 18 -204 83t-128 172.5t-63.5 232.5t-18.5 289z" />
<glyph unicode="&#xc8;" horiz-adv-x="956" d="M139 0v1466h731l-16 -163h-518v-478h463v-149h-463v-512h545v-164h-742zM283 1884l194 41l197 -332h-115z" />
<glyph unicode="&#xc9;" horiz-adv-x="956" d="M139 0v1466h731l-16 -163h-518v-478h463v-149h-463v-512h545v-164h-742zM365 1593l198 332l193 -41l-277 -291h-114z" />
<glyph unicode="&#xca;" horiz-adv-x="956" d="M139 0v1466h731l-16 -163h-518v-478h463v-149h-463v-512h545v-164h-742zM258 1593l188 332h136l188 -332h-98l-158 228l-156 -228h-100z" />
<glyph unicode="&#xcb;" horiz-adv-x="956" d="M139 0v1466h731l-16 -163h-518v-478h463v-149h-463v-512h545v-164h-742zM279 1645v208h163v-208h-163zM541 1645v208h164v-208h-164z" />
<glyph unicode="&#xcc;" horiz-adv-x="475" d="M-14 1884l194 41l197 -332h-115zM139 0v1466h197v-1466h-197z" />
<glyph unicode="&#xcd;" horiz-adv-x="475" d="M139 0v1466h197v-1466h-197zM141 1593l199 332l192 -41l-276 -291h-115z" />
<glyph unicode="&#xce;" horiz-adv-x="475" d="M-16 1593l188 332h135l189 -332h-99l-157 228l-156 -228h-100zM139 0v1466h197v-1466h-197z" />
<glyph unicode="&#xcf;" horiz-adv-x="475" d="M25 1645v208h163v-208h-163zM139 0v1466h197v-1466h-197zM287 1645v208h164v-208h-164z" />
<glyph unicode="&#xd0;" horiz-adv-x="1191" d="M-14 664v133h153v669h375q594 0 594 -721q0 -348 -143.5 -546.5t-448.5 -198.5h-377v664h-153zM334 164h174q215 0 305 150.5t90 430.5q0 274 -91 416t-304 142h-174v-506h264v-133h-264v-500z" />
<glyph unicode="&#xd1;" horiz-adv-x="1234" d="M139 0v1466h246l530 -1169h9l-9 1169h183v-1466h-236l-538 1182h-11l9 -1182h-183zM369 1692q43 145 163 145q51 0 135.5 -31.5t106.5 -31.5q51 0 92 63l64 -29q-43 -150 -152 -149q-53 0 -139 30.5t-107 30.5q-51 0 -90 -61z" />
<glyph unicode="&#xd2;" horiz-adv-x="1218" d="M82 731q0 764 530 764q524 0 525 -766q0 -762 -525 -762q-530 0 -530 764zM291 731q0 -285 73.5 -439.5t247.5 -154.5q172 0 244 153.5t72 438.5q0 283 -72 438.5t-244 155.5q-321 0 -321 -592zM367 1884l194 41l197 -332h-115z" />
<glyph unicode="&#xd3;" horiz-adv-x="1218" d="M82 731q0 -764 530 -764q524 0 525 762q0 766 -525 766q-530 0 -530 -764zM291 731q0 592 321 592q172 0 244 -155.5t72 -438.5q0 -285 -72 -438.5t-244 -153.5q-174 0 -247.5 154.5t-73.5 439.5zM471 1593l199 332l192 -41l-276 -291h-115z" />
<glyph unicode="&#xd4;" horiz-adv-x="1218" d="M82 731q0 -764 530 -764q524 0 525 762q0 766 -525 766q-530 0 -530 -764zM291 731q0 592 321 592q172 0 244 -155.5t72 -438.5q0 -285 -72 -438.5t-244 -153.5q-174 0 -247.5 154.5t-73.5 439.5zM350 1593l189 332h135l188 -332h-98l-158 228l-155 -228h-101z" />
<glyph unicode="&#xd5;" horiz-adv-x="1218" d="M82 731q0 -764 530 -764q524 0 525 762q0 766 -525 766q-530 0 -530 -764zM291 731q0 592 321 592q172 0 244 -155.5t72 -438.5q0 -285 -72 -438.5t-244 -153.5q-174 0 -247.5 154.5t-73.5 439.5zM326 1692q43 145 163 145q51 0 135.5 -31.5t106.5 -31.5q51 0 92 63 l64 -29q-43 -150 -152 -149q-53 0 -139 30.5t-107 30.5q-51 0 -90 -61z" />
<glyph unicode="&#xd6;" horiz-adv-x="1218" d="M82 731q0 764 530 764q524 0 525 -766q0 -762 -525 -762q-530 0 -530 764zM291 731q0 -285 73.5 -439.5t247.5 -154.5q172 0 244 153.5t72 438.5q0 283 -72 438.5t-244 155.5q-321 0 -321 -592zM393 1645v208h164v-208h-164zM655 1645v208h164v-208h-164z" />
<glyph unicode="&#xd7;" horiz-adv-x="1034" d="M111 303l297 297l-295 297l106 107l295 -297l295 297l111 -111l-297 -297l301 -301l-105 -105l-301 299l-297 -296z" />
<glyph unicode="&#xd8;" horiz-adv-x="1218" d="M82 731q0 764 530 764q150 0 260 -65l66 147h117l-97 -217q178 -186 179 -631q0 -762 -525 -762q-139 0 -245 56l-80 -183h-117l109 246q-197 182 -197 645zM289 731q0 -297 78 -444l428 968q-70 70 -183 70q-323 0 -323 -594zM442 195q68 -55 170 -56q174 0 247 152.5 t73 437.5q0 276 -66 422z" />
<glyph unicode="&#xd9;" horiz-adv-x="1138" d="M119 481v985h192v-995q0 -330 258 -330t258 344v981h193v-974q0 -516 -450.5 -516.5t-450.5 505.5zM289 1884l194 41l197 -332h-115z" />
<glyph unicode="&#xda;" horiz-adv-x="1138" d="M119 481q0 -506 450.5 -506t450.5 517v974h-193v-981q0 -344 -258 -344t-258 330v995h-192v-985zM446 1593l199 332l193 -41l-277 -291h-115z" />
<glyph unicode="&#xdb;" horiz-adv-x="1138" d="M119 481q0 -506 450.5 -506t450.5 517v974h-193v-981q0 -344 -258 -344t-258 330v995h-192v-985zM309 1593l189 332h135l188 -332h-98l-158 228l-155 -228h-101z" />
<glyph unicode="&#xdc;" horiz-adv-x="1138" d="M119 481v985h192v-995q0 -330 258 -330t258 344v981h193v-974q0 -516 -450.5 -516.5t-450.5 505.5zM352 1645v208h164v-208h-164zM614 1645v208h164v-208h-164z" />
<glyph unicode="&#xdd;" horiz-adv-x="1019" d="M20 1466q207 -473 390 -848v-618h198v618q178 362 391 848h-206l-279 -680h-8l-277 680h-209zM420 1593l198 332l193 -41l-276 -291h-115z" />
<glyph unicode="&#xde;" horiz-adv-x="1071" d="M139 0v1464h199v-243h178q242 0 369 -118t127 -351q0 -487 -523 -488h-153v-264h-197zM336 416h141q174 0 254 78.5t80 255.5q0 170 -85 241.5t-247 71.5h-143v-647z" />
<glyph unicode="&#xdf;" horiz-adv-x="1064" d="M123 0v1114q0 184 100.5 282.5t282.5 98.5q190 0 297.5 -98.5t107.5 -268.5q0 -276 -301 -354q219 -37 306.5 -140.5t87.5 -268.5q0 -188 -94.5 -292t-252.5 -104q-154 0 -278 82l45 137q94 -68 197 -67q100 0 151 74.5t51 185.5q0 131 -88 204.5t-295 102.5v148 q285 47 285 274q0 117 -57.5 180.5t-167.5 63.5q-94 0 -143.5 -60.5t-49.5 -173.5v-1120h-184z" />
<glyph unicode="&#xe0;" horiz-adv-x="944" d="M55 285q0 82 28 142t75 99t122.5 65.5t160.5 39t200 20.5v94q0 104 -45 154.5t-141 50.5q-137 0 -330 -88l-47 139q53 37 178 70t221 33q176 0 261 -84t85 -264v-496q0 -59 17 -256l-166 -12q-20 84 -25 172q-125 -186 -297 -187q-137 0 -217 83.5t-80 224.5zM225 1497 l195 41l196 -332h-114zM242 305q0 -90 41 -140t120 -50q131 0 238 188v232q-90 -4 -153.5 -15.5t-124 -35t-91 -68.5t-30.5 -111z" />
<glyph unicode="&#xe1;" horiz-adv-x="944" d="M55 285q0 82 28 142t75 99t122.5 65.5t160.5 39t200 20.5v94q0 104 -45 154.5t-141 50.5q-137 0 -330 -88l-47 139q53 37 178 70t221 33q176 0 261 -84t85 -264v-496q0 -59 17 -256l-166 -12q-20 84 -25 172q-125 -186 -297 -187q-137 0 -217 83.5t-80 224.5zM242 305 q0 -90 41 -140t120 -50q131 0 238 188v232q-90 -4 -153.5 -15.5t-124 -35t-91 -68.5t-30.5 -111zM313 1206l199 332l193 -41l-277 -291h-115z" />
<glyph unicode="&#xe2;" horiz-adv-x="944" d="M55 285q0 82 28 142t75 99t122.5 65.5t160.5 39t200 20.5v94q0 104 -45 154.5t-141 50.5q-137 0 -330 -88l-47 139q53 37 178 70t221 33q176 0 261 -84t85 -264v-496q0 -59 17 -256l-166 -12q-20 84 -25 172q-125 -186 -297 -187q-137 0 -217 83.5t-80 224.5zM203 1206 l188 332h135l189 -332h-99l-157 228l-156 -228h-100zM242 305q0 -90 41 -140t120 -50q131 0 238 188v232q-90 -4 -153.5 -15.5t-124 -35t-91 -68.5t-30.5 -111z" />
<glyph unicode="&#xe3;" horiz-adv-x="944" d="M55 285q0 82 28 142t75 99t122.5 65.5t160.5 39t200 20.5v94q0 104 -45 154.5t-141 50.5q-137 0 -330 -88l-47 139q53 37 178 70t221 33q176 0 261 -84t85 -264v-496q0 -59 17 -256l-166 -12q-20 84 -25 172q-125 -186 -297 -187q-137 0 -217 83.5t-80 224.5zM178 1305 q43 145 164 145q51 0 135 -32t107 -32q51 0 92 64l63 -29q-43 -150 -151 -149q-53 0 -139.5 30.5t-106.5 30.5q-51 0 -90 -61zM242 305q0 -90 41 -140t120 -50q131 0 238 188v232q-90 -4 -153.5 -15.5t-124 -35t-91 -68.5t-30.5 -111z" />
<glyph unicode="&#xe4;" horiz-adv-x="944" d="M55 285q0 82 28 142t75 99t122.5 65.5t160.5 39t200 20.5v94q0 104 -45 154.5t-141 50.5q-137 0 -330 -88l-47 139q53 37 178 70t221 33q176 0 261 -84t85 -264v-496q0 -59 17 -256l-166 -12q-20 84 -25 172q-125 -186 -297 -187q-137 0 -217 83.5t-80 224.5zM242 305 q0 -90 41 -140t120 -50q131 0 238 188v232q-90 -4 -153.5 -15.5t-124 -35t-91 -68.5t-30.5 -111zM246 1257v209h164v-209h-164zM508 1257v209h164v-209h-164z" />
<glyph unicode="&#xe5;" horiz-adv-x="944" d="M55 285q0 82 28 142t75 99t122.5 65.5t160.5 39t200 20.5v94q0 104 -45 154.5t-141 50.5q-137 0 -330 -88l-47 139q53 37 178 70t221 33q176 0 261 -84t85 -264v-496q0 -59 17 -256l-166 -12q-20 84 -25 172q-125 -186 -297 -187q-137 0 -217 83.5t-80 224.5zM242 305 q0 -90 41 -140t120 -50q131 0 238 188v232q-90 -4 -153.5 -15.5t-124 -35t-91 -68.5t-30.5 -111zM303 1384q0 72 53.5 125.5t124.5 53.5q76 0 128.5 -52.5t52.5 -126t-52.5 -126t-128.5 -52.5q-74 0 -126 52t-52 126zM393 1384.5q0 -36.5 26.5 -62.5t61.5 -26q37 0 63.5 27 t26.5 61q0 37 -26.5 64t-63.5 27t-62.5 -27t-25.5 -63.5z" />
<glyph unicode="&#xe6;" horiz-adv-x="1503" d="M55 285q0 82 28 142t75 99t122.5 65.5t160.5 39t200 20.5v94q0 104 -45 153.5t-141 49.5q-141 0 -330 -86l-47 139q51 35 162.5 67t203.5 34h22q94 0 172 -33q87 -37 112 -119q100 154 303 154q387 0 387 -459q0 -109 -10 -160h-601q4 -356 263 -356q133 0 288 72 l47 -138q-63 -37 -164.5 -62.5t-191.5 -25.5q-258 0 -358 211q-57 -98 -146.5 -153.5t-197.5 -55.5q-143 0 -228.5 83.5t-85.5 224.5zM242 305q0 -92 44 -142q42 -48 117 -48h7q152 2 231 213v207q-90 -4 -153.5 -15.5t-124 -35t-91 -68.5t-30.5 -111zM831 606l426 2 q2 14 3 54q0 147 -45.5 224t-161.5 77q-218 -1 -222 -357z" />
<glyph unicode="&#xe7;" horiz-adv-x="792" d="M61 541q0 274 92.5 418.5t309.5 144.5q82 0 164 -23.5t114 -52.5l-47 -139q-104 57 -209 57q-231 0 -231 -405q0 -195 51 -300.5t180 -105.5q106 0 213 55l47 -137q-37 -27 -115.5 -49t-146.5 -24v-82q113 0 167.5 -37t54.5 -121q0 -90 -57.5 -128t-168.5 -38h-147v96 h157q102 0 103 66q0 41 -27.5 54t-97.5 13h-76v179q-178 23 -254 164t-76 395z" />
<glyph unicode="&#xe8;" horiz-adv-x="925" d="M61 539q0 266 102.5 415.5t311.5 149.5q387 0 387 -459q0 -109 -10 -160h-600q4 -358 262 -358q129 0 289 74l47 -138q-63 -37 -164.5 -61.5t-191.5 -24.5q-433 1 -433 562zM244 1497l194 41l197 -332h-115zM252 606l424 2q2 14 2 54q0 147 -43 224t-160 77 q-215 -1 -223 -357z" />
<glyph unicode="&#xe9;" horiz-adv-x="925" d="M61 539q0 266 102.5 415.5t311.5 149.5q387 0 387 -459q0 -109 -10 -160h-600q4 -358 262 -358q129 0 289 74l47 -138q-63 -37 -164.5 -61.5t-191.5 -24.5q-433 1 -433 562zM252 606l424 2q2 14 2 54q0 147 -43 224t-160 77q-215 -1 -223 -357zM367 1206l198 332l193 -41 l-277 -291h-114z" />
<glyph unicode="&#xea;" horiz-adv-x="925" d="M61 539q0 266 102.5 415.5t311.5 149.5q387 0 387 -459q0 -109 -10 -160h-600q4 -358 262 -358q129 0 289 74l47 -138q-63 -37 -164.5 -61.5t-191.5 -24.5q-433 1 -433 562zM217 1206l189 332h135l188 -332h-98l-158 228l-156 -228h-100zM252 606l424 2q2 14 2 54 q0 147 -43 224t-160 77q-215 -1 -223 -357z" />
<glyph unicode="&#xeb;" horiz-adv-x="925" d="M61 539q0 266 102.5 415.5t311.5 149.5q387 0 387 -459q0 -109 -10 -160h-600q4 -358 262 -358q129 0 289 74l47 -138q-63 -37 -164.5 -61.5t-191.5 -24.5q-433 1 -433 562zM252 606l424 2q2 14 2 54q0 147 -43 224t-160 77q-215 -1 -223 -357zM297 1257v209h164v-209 h-164zM559 1257v209h164v-209h-164z" />
<glyph unicode="&#xec;" horiz-adv-x="432" d="M-109 1497l195 41l197 -332h-115zM123 0v1079h184v-1079h-184z" />
<glyph unicode="&#xed;" horiz-adv-x="432" d="M106 1206l199 332l193 -41l-277 -291h-115zM123 0v1079h184v-1079h-184z" />
<glyph unicode="&#xee;" horiz-adv-x="432" d="M-35 1206l189 332h135l188 -332h-98l-158 228l-155 -228h-101zM123 0v1079h184v-1079h-184z" />
<glyph unicode="&#xef;" horiz-adv-x="432" d="M-18 1257v209h163v-209h-163zM123 0v1079h184v-1079h-184zM244 1257v209h164v-209h-164z" />
<glyph unicode="&#xf0;" horiz-adv-x="1013" d="M55 487q0 199 101.5 323t273.5 124q176 0 315 -180q-12 190 -102 374l-219 -77l-51 139l194 70q-78 121 -176 215l164 51q104 -106 172 -211l201 74l51 -140l-176 -63q139 -266 139 -553q0 -297 -111.5 -477.5t-330.5 -180.5q-207 0 -326 136t-119 376zM248 492 q0 -166 62.5 -263.5t178.5 -97.5q256 0 256 483q-121 184 -264 185q-117 0 -175 -86t-58 -221z" />
<glyph unicode="&#xf1;" horiz-adv-x="997" d="M123 0v1079h180l-10 -157q137 182 299 182q160 0 228.5 -95.5t68.5 -273.5v-735h-182v705q0 119 -35 183t-125 64q-70 0 -133.5 -50t-106.5 -124v-778h-184zM207 1305q43 145 164 145q51 0 135 -32t106 -32q51 0 93 64l63 -29q-43 -150 -152 -149q-53 0 -139 30.5 t-106 30.5q-51 0 -90 -61z" />
<glyph unicode="&#xf2;" horiz-adv-x="972" d="M61 535q0 569 424 569q426 0 426 -569q0 -557 -426 -558q-424 1 -424 558zM254 535q0 -203 51 -307.5t180 -104.5q127 0 180.5 105.5t53.5 306.5q0 203 -53.5 313t-180.5 110t-179 -109t-52 -314zM272 1497l195 41l197 -332h-115z" />
<glyph unicode="&#xf3;" horiz-adv-x="972" d="M61 535q0 -557 424 -558q426 0 426 558q0 569 -426 569q-424 0 -424 -569zM254 535q0 205 52 314t179 109t180.5 -110.5t53.5 -312.5q0 -201 -53.5 -306.5t-180.5 -105.5q-129 0 -180 104.5t-51 307.5zM414 1206l198 332l193 -41l-277 -291h-114z" />
<glyph unicode="&#xf4;" horiz-adv-x="972" d="M61 535q0 -557 424 -558q426 0 426 558q0 569 -426 569q-424 0 -424 -569zM236 1206l188 332h135l189 -332h-99l-157 228l-156 -228h-100zM254 535q0 205 52 314t179 109t180.5 -110.5t53.5 -312.5q0 -201 -53.5 -306.5t-180.5 -105.5q-129 0 -180 104.5t-51 307.5z" />
<glyph unicode="&#xf5;" horiz-adv-x="972" d="M61 535q0 -557 424 -558q426 0 426 558q0 569 -426 569q-424 0 -424 -569zM238 1305q43 145 163 145q51 0 135.5 -32t106.5 -32q51 0 92 64l64 -29q-43 -150 -152 -149q-53 0 -139 30.5t-107 30.5q-51 0 -90 -61zM254 535q0 205 52 314t179 109t180.5 -110.5t53.5 -312.5 q0 -201 -53.5 -306.5t-180.5 -105.5q-129 0 -180 104.5t-51 307.5z" />
<glyph unicode="&#xf6;" horiz-adv-x="972" d="M61 535q0 569 424 569q426 0 426 -569q0 -557 -426 -558q-424 1 -424 558zM254 535q0 -203 51 -307.5t180 -104.5q127 0 180.5 105.5t53.5 306.5q0 203 -53.5 313t-180.5 110t-179 -109t-52 -314zM279 1257v209h163v-209h-163zM541 1257v209h164v-209h-164z" />
<glyph unicode="&#xf7;" horiz-adv-x="1034" d="M119 543v143h784v-143h-784zM424 170v227h174v-227h-174zM424 842v227h174v-227h-174z" />
<glyph unicode="&#xf8;" horiz-adv-x="972" d="M61 535q0 569 424 569q72 0 144 -21l51 166h111l-64 -213q184 -131 184 -501q0 -557 -426 -558q-43 0 -75 7l-43 -144h-111l51 168q-246 103 -246 527zM254 535q0 -285 100 -369l232 768q-43 25 -101 24q-127 0 -179 -109t-52 -314zM453 125q10 -2 32 -2 q127 0 180.5 105.5t53.5 306.5q0 205 -51 307z" />
<glyph unicode="&#xf9;" horiz-adv-x="1001" d="M113 350v729h182v-719q0 -231 170 -231q63 0 127.5 49t101.5 117v784h185v-1079h-160l-14 150q-127 -172 -297 -173q-295 0 -295 373zM236 1497l194 41l197 -332h-115z" />
<glyph unicode="&#xfa;" horiz-adv-x="1001" d="M113 350v729h182v-719q0 -231 170 -231q63 0 127.5 49t101.5 117v784h185v-1079h-160l-14 150q-127 -172 -297 -173q-295 0 -295 373zM354 1206l199 332l192 -41l-276 -291h-115z" />
<glyph unicode="&#xfb;" horiz-adv-x="1001" d="M113 350v729h182v-719q0 -231 170 -231q63 0 127.5 49t101.5 117v784h185v-1079h-160l-14 150q-127 -172 -297 -173q-295 0 -295 373zM225 1206l189 332h135l188 -332h-98l-158 228l-155 -228h-101z" />
<glyph unicode="&#xfc;" horiz-adv-x="1001" d="M113 350v729h182v-719q0 -231 170 -231q63 0 127.5 49t101.5 117v784h185v-1079h-160l-14 150q-127 -172 -297 -173q-295 0 -295 373zM268 1257v209h164v-209h-164zM530 1257v209h164v-209h-164z" />
<glyph unicode="&#xfd;" horiz-adv-x="890" d="M43 -383l35 139q68 -27 125 -26q78 0 122 63.5t83 206.5h-78q-96 283 -285 1079h201q109 -553 207 -919h8q88 328 205 919h198q-141 -643 -276 -1079q-70 -225 -149 -322.5t-226 -97.5q-37 0 -94.5 12.5t-75.5 24.5zM377 1206l198 332l193 -41l-276 -291h-115z" />
<glyph unicode="&#xfe;" horiz-adv-x="991" d="M123 -414v1907l180 27v-441l-14 -159h4q47 78 118.5 131t157.5 53q360 0 361 -551q0 -266 -98.5 -421t-296.5 -155q-127 0 -240 78l12 -135v-317zM307 195q82 -72 182 -72q248 0 248 430q0 188 -46 293.5t-169 105.5q-68 0 -126 -53t-89 -127v-577z" />
<glyph unicode="&#xff;" horiz-adv-x="890" d="M43 -383l35 139q68 -27 125 -26q78 0 122 63.5t83 206.5h-78q-96 283 -285 1079h201q109 -553 207 -919h8q88 328 205 919h198q-141 -643 -276 -1079q-70 -225 -149 -322.5t-226 -97.5q-37 0 -94.5 12.5t-75.5 24.5zM248 1257v209h164v-209h-164zM510 1257v209h164v-209 h-164z" />
<glyph unicode="&#x152;" horiz-adv-x="1773" d="M82 731q0 762 530 762q238 0 355 -203v176h721l-17 -163h-520v-478h465v-149h-465v-510h547v-166h-731v174q-115 -207 -355 -207q-530 0 -530 764zM289 731q0 -594 323 -594q174 0 247 153.5t73 438.5q0 283 -74 438.5t-246 155.5q-323 0 -323 -592z" />
<glyph unicode="&#x153;" horiz-adv-x="1583" d="M61 535q0 569 424 569q227 0 332 -189q94 188 316 189q389 0 389 -459q0 -98 -13 -160h-598q0 -356 263 -356q131 0 288 72l47 -138q-66 -37 -166 -61.5t-192 -24.5q-238 0 -334 185q-102 -184 -332 -185q-424 1 -424 558zM254 535q0 -201 52 -306.5t179 -105.5 q129 0 182.5 108.5t53.5 309.5q0 418 -236 417q-127 0 -179 -109t-52 -314zM911 606l426 2q2 14 2 54q0 147 -45 224t-161 77q-218 -1 -222 -357z" />
<glyph unicode="&#x178;" horiz-adv-x="1019" d="M20 1466h209l277 -680h8l279 680h206q-213 -485 -391 -848v-618h-198v618q-183 375 -390 848zM299 1645v208h164v-208h-164zM561 1645v208h164v-208h-164z" />
<glyph unicode="&#x2c6;" horiz-adv-x="1024" d="M256 1206l188 332h136l188 -332h-98l-158 228l-156 -228h-100z" />
<glyph unicode="&#x2dc;" horiz-adv-x="1024" d="M231 1305q43 145 164 145q51 0 135 -32t107 -32q51 0 92 64l64 -29q-43 -150 -152 -149q-53 0 -139 30.5t-107 30.5q-51 0 -90 -61z" />
<glyph unicode="&#x2013;" horiz-adv-x="1024" d="M0 532v134h1024v-134h-1024z" />
<glyph unicode="&#x2014;" horiz-adv-x="2048" d="M0 532v134h2048v-134h-2048z" />
<glyph unicode="&#x2018;" horiz-adv-x="395" d="M88 1085l131 441l113 -23l-64 -418h-180z" />
<glyph unicode="&#x2019;" horiz-adv-x="395" d="M84 1053l63 417h181l-131 -440z" />
<glyph unicode="&#x201a;" horiz-adv-x="395" d="M63 -190l64 417h180l-131 -440z" />
<glyph unicode="&#x201c;" horiz-adv-x="698" d="M231 1085l131 441l21 -4l2 4l113 -23l-64 -418h-203z" />
<glyph unicode="&#x201d;" horiz-adv-x="698" d="M227 1053l64 417h201l-132 -440l-20 4v-4z" />
<glyph unicode="&#x201e;" horiz-adv-x="698" d="M203 -190l63 417h201l-131 -440l-21 4v-4z" />
<glyph unicode="&#x2022;" horiz-adv-x="798" />
<glyph unicode="&#x2026;" horiz-adv-x="1411" d="M100 0v227h174v-227h-174zM621 0v227h172v-227h-172zM1141 0v227h172v-227h-172z" />
<glyph unicode="&#x2039;" horiz-adv-x="636" d="M104 545v20l285 439h180l-290 -449l290 -449h-180z" />
<glyph unicode="&#x203a;" horiz-adv-x="636" d="M70 106l290 449l-290 449h180l285 -439v-20l-285 -439h-180z" />
<glyph unicode="&#x20ac;" horiz-adv-x="1034" d="M-12 573v105h139v72v24h-139v105h143q43 616 508 616q94 0 192.5 -29.5t147.5 -70.5l-49 -148q-135 76 -275 76q-283 0 -317 -444h541l-27 -105h-518v-24v-72h495l-26 -105h-463q39 -436 315 -436q139 0 289 94l53 -147q-66 -49 -167 -83t-197 -34q-248 0 -362.5 159 t-137.5 447h-145z" />
<glyph unicode="&#x2122;" horiz-adv-x="1738" d="M74 1348v118h833l238 -637l217 637h197v-884h-152v630l-203 -600h-129l-225 592v-622h-143v766h-228v-766h-160v766h-245z" />
<glyph unicode="&#xe000;" horiz-adv-x="1080" d="M0 1080h1080v-1080h-1080v1080z" />
<glyph unicode="&#xfb01;" horiz-adv-x="980" d="M31 938l2 111l98 28v101q0 354 320 354q199 0 360 -100l-53 -132q-156 80 -287 80q-158 0 -158 -202v-99h543v-1079h-180v938h-363v-938h-182v938h-100z" />
<glyph unicode="&#xfb02;" horiz-adv-x="989" d="M31 938v111l100 28v115q0 338 295 338q129 0 279 -35l161 18v-1513h-182v1343q-111 37 -223 37q-147 0 -148 -204v-97h224v-141h-224v-938h-182v938h-100z" />
<glyph unicode="&#xfb03;" horiz-adv-x="1622" d="M33 936v113l100 26v117q0 338 285 338q121 0 188 -37l-26 -137q-59 25 -125 24q-78 0 -108 -50t-30 -154v-97h244v-143h-244v-936h-184v936h-100zM629 936v113l100 26v117q0 338 285 338q121 0 188 -37l-26 -137q-59 25 -125 24q-78 0 -108 -50t-30 -154v-97h244v-143 h-244v-936h-184v936h-100zM1311 1251v207h192v-207h-192zM1315 0v1079h184v-1079h-184z" />
<glyph unicode="&#xfb04;" horiz-adv-x="1622" d="M33 936v113l100 26v117q0 338 285 338q121 0 188 -37l-26 -137q-59 25 -125 24q-78 0 -108 -50t-30 -154v-97h244v-143h-244v-936h-184v936h-100zM629 936v113l100 26v117q0 338 285 338q121 0 188 -37l-26 -137q-59 25 -125 24q-78 0 -108 -50t-30 -154v-97h244v-143 h-244v-936h-184v936h-100zM1315 0v1493l184 20v-1513h-184z" />
<glyph horiz-adv-x="0" />
</font>
</defs>
</svg>
