<?xml version="1.0" standalone="no"?>
<!DOCTYPE svg PUBLIC "-//W3C//DTD SVG 1.1//EN" "http://www.w3.org/Graphics/SVG/1.1/DTD/svg11.dtd" >
<svg xmlns="http://www.w3.org/2000/svg">
<metadata>
This is a custom SVG webfont generated by Font Squirrel.
Copyright   : Copyright c 2007 by Leftloft  Molotro All rights reserved
Designer    : Leftloft  Molotro
Foundry     : Leftloft  Molotro
Foundry URL : httpwwwmolotrocom
</metadata>
<defs>
<font id="BreraCondensedHeavy" horiz-adv-x="1056" >
<font-face units-per-em="2048" ascent="1554" descent="-494" />
<missing-glyph horiz-adv-x="393" />
<glyph unicode=" "  horiz-adv-x="393" />
<glyph unicode="&#x09;" horiz-adv-x="393" />
<glyph unicode="&#xa0;" horiz-adv-x="393" />
<glyph unicode="!" horiz-adv-x="571" d="M117 881v592h336v-592l-33 -455h-268zM135 2h295v295h-295v-295z" />
<glyph unicode="&#x22;" horiz-adv-x="817" d="M86 1475h262l-45 -512h-172zM467 1475h262l-45 -512h-172z" />
<glyph unicode="#" horiz-adv-x="1509" d="M31 383l49 219h227l58 244h-228l51 219h228l94 401h289l-90 -401h237l98 401h291l-90 -401h236l-54 -219h-233l-57 -244h233l-53 -219h-232l-94 -383h-289l84 383h-237l-92 -383h-289l90 383h-227zM598 602h240l59 244h-240z" />
<glyph unicode="$" horiz-adv-x="1040" d="M57 143l97 254q141 -70 222 -96.5t159 -26.5q127 0 127 117q0 57 -47.5 101.5t-202.5 128.5q-176 94 -258 172.5t-82 207.5q0 152 82 260.5t227 147.5v201h303v-193q117 -18 303 -102l-108 -252q-240 94 -353 94q-143 0 -143 -115q0 -12 3 -21t10 -19.5t15.5 -18.5 t24.5 -18l30 -19q13 -8 38 -20l44 -22l53 -25l61 -29q174 -86 244.5 -181.5t70.5 -230.5q0 -152 -78 -262t-215 -153v-201h-301v190q-138 22 -326 131z" />
<glyph unicode="%" horiz-adv-x="1957" d="M63 1061q0 -440 369 -440t369 440q0 211 -92.5 327.5t-276.5 116.5t-276.5 -116.5t-92.5 -327.5zM346 1060.5q0 110.5 18.5 164t67.5 53.5t68.5 -53.5t19.5 -163.5q0 -109 -19.5 -161t-68.5 -52t-67.5 51t-18.5 161.5zM541 0l628 1505h310l-629 -1505h-309zM1196 414 q0 -438 368.5 -438.5t368.5 438.5q0 211 -92 327.5t-276.5 116.5t-276.5 -116.5t-92 -327.5zM1479 414q0 113 18.5 165t67.5 52t68.5 -53.5t19.5 -163.5q0 -109 -19.5 -161t-68.5 -52t-67.5 51t-18.5 162z" />
<glyph unicode="&#x26;" horiz-adv-x="1339" d="M63 348q0 139 74 231.5t260 190.5q-106 133 -140 207t-34 170q0 135 103.5 219t289.5 84q188 0 290 -82t102 -215q0 -125 -72 -207t-236 -190l207 -271q76 109 125 226l230 -125q-72 -158 -195 -293l238 -293h-332l-86 113q-70 -63 -171.5 -99.5t-203.5 -36.5 q-209 0 -329 99.5t-120 271.5zM360 379q0 -63 46.5 -113.5t111.5 -50.5q123 0 236 90l-234 305q-160 -114 -160 -231zM510 1110q0 -119 82 -219q117 86 117 223q0 74 -21.5 112t-77.5 38q-100 0 -100 -154z" />
<glyph unicode="'" horiz-adv-x="417" d="M78 1475h262l-45 -512h-172z" />
<glyph unicode="(" horiz-adv-x="704" d="M133 764q23 485 236 819l278 -8q-203 -370 -203 -886q0 -52 2 -105q12 -471 201 -842l-278 -8q-129 213 -189 481q-49 222 -49 453q0 48 2 96z" />
<glyph unicode=")" horiz-adv-x="704" d="M57 1575l279 8q213 -334 235 -819q12 -281 -47 -549t-188 -481l-279 8q188 371 201 842q22 583 -201 991z" />
<glyph unicode="*" horiz-adv-x="1040" d="M96 997l256 72l-217 178l135 146l189 -174l39 235l209 -41l-62 -235l225 90l76 -185l-248 -86l205 -180l-151 -139l-170 180l-39 -248l-211 45l63 238l-227 -94z" />
<glyph unicode="+" horiz-adv-x="1040" d="M80 496v227h334v362h245v-362h338v-227h-338v-373h-245v373h-334z" />
<glyph unicode="," horiz-adv-x="425" d="M33 -209l71 504h265l-160 -531z" />
<glyph unicode="-" horiz-adv-x="858" d="M129 496v227h594v-227h-594z" />
<glyph unicode="." horiz-adv-x="425" d="M86 0v293h254v-293h-254z" />
<glyph unicode="/" horiz-adv-x="913" d="M117 0l297 1475h329l-297 -1475h-329z" />
<glyph unicode="0" d="M41 723q0 362 112.5 545.5t375 183.5t374 -183.5t111.5 -545.5q0 -375 -111.5 -560.5t-374.5 -185.5q-264 0 -375.5 185.5t-111.5 560.5zM365 723q0 -137 6 -223t22.5 -157t50 -102.5t84.5 -31.5q98 0 130 118.5t32 395.5q0 131 -5 214t-22.5 152.5t-50 100.5t-84 31 t-85 -31t-50 -100.5t-22.5 -152.5t-6 -214z" />
<glyph unicode="1" d="M147 1206q223 102 365 228h223v-1211l113 8h104v-231h-766v229h121l119 -6v852q-33 -25 -104.5 -59.5t-114.5 -44.5z" />
<glyph unicode="2" d="M92 1272q68 63 197 121.5t250 58.5q211 0 325.5 -108.5t114.5 -315.5q0 -250 -229 -498l-254 -284l252 10h235v-256h-858v225l330 377q199 223 198 402q0 170 -159 170q-59 0 -139.5 -41t-135.5 -91z" />
<glyph unicode="3" d="M78 1339q49 43 162.5 78t232.5 35q195 0 318.5 -91t123.5 -278q0 -211 -204 -340v-6q123 -27 190.5 -117t67.5 -223q0 -205 -137.5 -316.5t-360.5 -111.5q-104 0 -209.5 31t-177.5 76l80 227q135 -78 270 -78q98 0 154.5 54.5t56.5 142.5q0 184 -196 199 q-57 -14 -140 -31l-39 217q172 33 251 88t79 152q0 150 -176 149q-113 0 -268 -76z" />
<glyph unicode="4" d="M33 231v234l401 969h322l-305 -705l-140 -250h287l16 369l260 24v-393h160l-16 -248h-144v-237l-276 -17v254h-565z" />
<glyph unicode="5" d="M45 94l100 240q154 -98 310 -98q98 0 157.5 60t59.5 169q0 236 -174 235q-88 0 -160 -84l-238 21l54 797h780l-19 -248h-507l-39 -332h10q84 88 219 88q170 0 283.5 -122t113.5 -328q0 -240 -150.5 -384.5t-359.5 -144.5q-258 0 -440 131z" />
<glyph unicode="6" d="M41 637q0 375 140.5 595t414.5 220q121 0 233.5 -31.5t157.5 -70.5l-76 -222q-168 68 -280 68q-258 0 -269 -389q92 123 273 123q170 0 275.5 -112.5t105.5 -317.5q0 -254 -130 -390.5t-362 -136.5q-236 0 -359.5 177.5t-123.5 486.5zM367 623q0 -11 -1 -21 q0 -185 35 -281q37 -101 138 -102q78 0 115.5 78t37.5 205q0 225 -157 225q-102 0 -168 -104z" />
<glyph unicode="7" d="M113 1151v283h891v-260q-188 -248 -295 -556.5t-107 -617.5h-354q12 291 136 614.5t312 524.5v12h-583z" />
<glyph unicode="8" d="M39 381q0 256 240 364v9q-96 47 -152.5 132t-56.5 181q0 190 127 287.5t329 97.5q199 0 330 -89t131 -278q0 -215 -207 -325v-6q238 -119 238 -353q0 -201 -125 -315.5t-365 -114.5q-244 2 -366.5 106.5t-122.5 303.5zM350 414q0 -96 46 -153.5t132 -57.5q82 0 124 58 t42 155q0 88 -62.5 143t-156.5 78q-57 -31 -91 -90t-34 -133zM375 1075q0 -78 56 -136t155 -87q43 31 69.5 89t26.5 124q0 82 -42 128t-111.5 46t-111.5 -46t-42 -118z" />
<glyph unicode="9" d="M51 932q0 254 130 390t362 136q236 0 359.5 -177t123.5 -486q0 -375 -140.5 -595t-414.5 -220q-121 0 -233.5 31.5t-157.5 70.5l76 221q168 -68 280 -67q258 0 269 389q-92 -123 -273 -123q-170 0 -275.5 112.5t-105.5 317.5zM375 930q0 -225 157 -225q102 0 168 104 q0 11 1 21q0 185 -35 281q-37 101 -138 101q-78 0 -115.5 -77.5t-37.5 -204.5z" />
<glyph unicode=":" horiz-adv-x="428" d="M86 0v293h254v-293h-254zM86 709v292h254v-292h-254z" />
<glyph unicode=";" horiz-adv-x="425" d="M33 -209l71 504h265l-160 -531zM100 709v292h254v-292h-254z" />
<glyph unicode="&#x3c;" horiz-adv-x="1040" d="M70 588v162l888 520v-281l-604 -321l604 -324v-283z" />
<glyph unicode="=" horiz-adv-x="1040" d="M61 252v225h918v-225h-918zM61 723v227h918v-227h-918z" />
<glyph unicode="&#x3e;" horiz-adv-x="1040" d="M82 61v283l604 324l-604 321v281l889 -520v-162z" />
<glyph unicode="?" horiz-adv-x="1036" d="M49 1313q197 174 451 174q217 0 344 -110.5t127 -317.5q0 -100 -41 -181t-98.5 -131.5t-115 -93.5t-98 -89t-40.5 -97q0 -2 6 -51h-273q-20 70 -20 116q0 82 35.5 145.5t87.5 104.5l101 78q50 37 86 85t36 106q0 78 -43 122t-123 44q-139 0 -295 -127zM297 0h297v293 h-297v-293z" />
<glyph unicode="@" horiz-adv-x="1939" d="M47 412q0 295 122 526t364.5 367.5t570.5 136.5q369 0 578.5 -216t209.5 -560q0 -176 -54 -326t-161.5 -244t-249.5 -94q-117 0 -189.5 55.5t-98.5 139.5q-98 -197 -273 -197q-172 0 -255 104.5t-83 288.5q0 256 128 443.5t333 187.5q133 0 197 -100l33 80h229l-102 -674 q-3 -20 -3 -37q0 -94 87 -94q82 0 142 144t60 319q0 121 -25.5 215t-86 175t-174 125t-275.5 44q-172 0 -316.5 -71t-236.5 -187.5t-143 -259t-51 -291.5q0 -291 151.5 -440.5t372.5 -149.5q184 0 377 69l4 -225q-201 -66 -416 -65q-332 0 -549 216t-217 595zM834 395 q0 -195 100 -194q49 0 84 46t45 103l76 428q-25 61 -101 62q-82 0 -143 -141.5t-61 -303.5z" />
<glyph unicode="A" horiz-adv-x="1167" d="M14 0l355 1475h417l367 -1475h-334l-67 301h-342l-64 -301h-332zM449 537h264l-88 467q-31 162 -35 223h-12q-6 -55 -33 -223z" />
<glyph unicode="B" horiz-adv-x="1142" d="M102 0v1475h494q215 0 339 -97.5t124 -306.5q0 -221 -205 -301v-6q240 -84 240 -350q0 -205 -125 -309.5t-342 -104.5h-525zM432 266h135q193 0 193 195q0 182 -205 182h-123v-377zM432 856h109q88 0 137 46t49 134q0 170 -186 170h-109v-350z" />
<glyph unicode="C" horiz-adv-x="993" d="M57 754q0 397 127 574t402 177q90 0 198.5 -29.5t149.5 -62.5l-62 -248q-131 59 -247 60q-119 0 -170.5 -105.5t-51.5 -365.5q0 -268 50.5 -388t169.5 -120q96 0 268 78l65 -254q-66 -41 -180 -72t-205 -31q-291 0 -402.5 184.5t-111.5 602.5z" />
<glyph unicode="D" horiz-adv-x="1198" d="M102 0v1475h430q319 0 464 -181.5t145 -550.5q0 -371 -142.5 -557t-461.5 -186h-435zM432 268h96q156 0 210.5 106.5t54.5 368.5q0 254 -55.5 358.5t-209.5 104.5h-96v-938z" />
<glyph unicode="E" horiz-adv-x="962" d="M102 0v1475h791l-23 -269h-438v-344h385v-237h-385v-357h465v-268h-795z" />
<glyph unicode="F" horiz-adv-x="935" d="M102 0v1475h793l-18 -269h-445v-395h375v-248h-375v-563h-330z" />
<glyph unicode="G" horiz-adv-x="1114" d="M57 750q0 756 549 755q131 0 248 -31.5t170 -74.5l-55 -248q-201 74 -328 74q-121 0 -179.5 -113t-58.5 -362q0 -270 50.5 -387t164.5 -117q76 0 142 43v270h-148l4 221h422v-686q-203 -127 -428 -127q-307 0 -430 191t-123 592z" />
<glyph unicode="H" horiz-adv-x="1202" d="M102 0v1475h330v-603h338v603h332v-1475h-332v608h-338v-608h-330z" />
<glyph unicode="I" horiz-adv-x="534" d="M102 0v1475h330v-1475h-330z" />
<glyph unicode="J" horiz-adv-x="622" d="M12 -8l13 260q25 -6 57 -6q72 0 94.5 45t22.5 201v983h329v-1035q0 -135 -10 -212.5t-46 -140t-104.5 -87.5t-183.5 -25q-82 1 -172 17z" />
<glyph unicode="K" horiz-adv-x="1148" d="M102 0v1475h330v-719l328 719h352l-364 -742l370 -733h-360l-326 707v-707h-330z" />
<glyph unicode="L" horiz-adv-x="897" d="M102 0v1475h330v-1221h438l-20 -254h-748z" />
<glyph unicode="M" horiz-adv-x="1503" d="M102 0v1475h441l227 -914h12l215 914h406v-1475h-293v950h-12l-219 -915h-238l-240 915h-8v-950h-291z" />
<glyph unicode="N" horiz-adv-x="1241" d="M102 0v1475h375l379 -945h10l-10 945h283l2 -1475h-361l-395 961h-8l10 -961h-285z" />
<glyph unicode="O" horiz-adv-x="1202" d="M57 735q0 385 120 577.5t425 192.5q307 0 426 -192.5t119 -577.5q0 -188 -24.5 -322t-85 -238.5t-169 -156t-266.5 -51.5q-305 0 -425 192.5t-120 575.5zM406 735.5q0 -276.5 45 -383t151.5 -106.5t151.5 105.5t45 384t-45 384t-151.5 105.5t-151.5 -106.5t-45 -383z" />
<glyph unicode="P" horiz-adv-x="1107" d="M102 0v1475h342q334 0 480.5 -105.5t146.5 -400.5q0 -272 -135 -390t-408 -118h-96v-461h-330zM432 698h88q117 0 167 65.5t50 205.5q0 135 -52 194.5t-169 59.5h-84v-525z" />
<glyph unicode="Q" horiz-adv-x="1202" d="M57 739q0 383 120 574.5t425 191.5q307 0 426 -191.5t119 -574.5q0 -281 -50 -444.5t-179 -235.5l241 -143l-209 -211l-291 270q-29 -8 -57 -8q-305 0 -425 193.5t-120 578.5zM405 739.5q0 -278.5 45.5 -386t152 -107.5t151.5 106.5t45 386.5q0 279 -44 382.5t-153 103.5 q-106 0 -151.5 -103.5t-45.5 -382z" />
<glyph unicode="R" horiz-adv-x="1130" d="M102 0v1475h353q315 0 462.5 -102.5t147.5 -379.5q0 -301 -209 -415l82 -170l160 -408h-342l-195 518q-29 -6 -129 -6v-512h-330zM432 729h103q199 0 198 250q0 129 -46 186.5t-167 57.5h-88v-494z" />
<glyph unicode="S" horiz-adv-x="1017" d="M37 113l96 254q197 -125 381 -125q143 0 143 120q0 59 -48 100.5t-218 135.5q-190 104 -265 201.5t-75 257.5q0 195 128 321.5t337 126.5q141 0 270 -35.5t191 -83.5l-109 -251q-188 96 -360 96q-143 0 -143 -133q0 -53 50 -92t226 -138q188 -104 260 -199.5t72 -242.5 q0 -219 -125 -339t-344 -120q-147 0 -273 44.5t-194 101.5z" />
<glyph unicode="T" horiz-adv-x="1007" d="M35 1206v269h938v-269h-293v-1206h-332v1206h-313z" />
<glyph unicode="U" horiz-adv-x="1167" d="M92 498v977h324v-1006q0 -231 168 -231q94 0 131 61t37 174v1002h323v-973q0 -260 -117.5 -396.5t-373.5 -136.5t-374 134.5t-118 394.5z" />
<glyph unicode="V" horiz-adv-x="1124" d="M14 1475h363q113 -799 196 -1223h9q88 473 186 1223h342q-186 -1006 -307 -1475h-481q-138 531 -308 1475z" />
<glyph unicode="W" horiz-adv-x="1695" d="M14 1475h340q150 -1036 185 -1221h8q92 408 164 819l-82 402h321q12 -76 52 -364t77 -528.5t56 -328.5h8q2 16 57 319l96 546q41 243 54 356h331q-43 -307 -338 -1475h-409l-105 494h-8q-41 -205 -125 -494h-387q-53 209 -158.5 737.5t-136.5 737.5z" />
<glyph unicode="X" horiz-adv-x="1138" d="M8 0q143 324 363 743q-197 348 -359 732h361l217 -494h10l186 494h334q-76 -225 -342 -758q252 -477 355 -717h-353l-221 485h-8l-203 -485h-340z" />
<glyph unicode="Y" horiz-adv-x="1112" d="M6 1475h348l199 -646h8l199 646h346q-197 -518 -385 -902v-573h-330v573q-197 410 -385 902z" />
<glyph unicode="Z" horiz-adv-x="964" d="M25 0v209l520 997h-500v269h889v-205l-539 -1002h545v-268h-915z" />
<glyph unicode="[" horiz-adv-x="700" d="M115 -307v1966h534v-262h-231v-1442h231v-262h-534z" />
<glyph unicode="\" horiz-adv-x="913" d="M121 1475h330l297 -1475h-330z" />
<glyph unicode="]" horiz-adv-x="704" d="M51 -45h232v1442h-232v262h535v-1966h-535v262z" />
<glyph unicode="^" horiz-adv-x="1040" d="M4 864l387 733h279l366 -733h-334l-176 469l-188 -469h-334z" />
<glyph unicode="_" horiz-adv-x="1024" d="M0 -164h1024v-76h-1024v76z" />
<glyph unicode="`" horiz-adv-x="1024" d="M289 1509l280 58l197 -361h-172z" />
<glyph unicode="a" horiz-adv-x="974" d="M39 297q0 182 121 262t424 109v71q0 137 -135 138q-137 0 -328 -82l-66 223q49 35 190.5 69.5t256.5 34.5q199 0 291 -90t92 -289v-491q0 -14 3 -64.5t6 -107.5t3 -74l-274 -16q-23 80 -27 133q-111 -145 -258 -146q-143 0 -221 83t-78 237zM344 326q0 -139 105 -140 q76 0 135 103v215q-123 -14 -181.5 -52t-58.5 -126z" />
<glyph unicode="b" horiz-adv-x="1024" d="M94 31v1464l303 31v-314l-20 -204q123 115 225 114q205 0 290 -135t85 -401q0 -326 -107.5 -468.5t-371.5 -142.5q-148 1 -404 56zM397 215q74 -12 97 -12q100 0 134 75.5t34 284.5q0 178 -31 249t-113 71q-29 0 -65.5 -23.5t-55.5 -50.5v-594z" />
<glyph unicode="c" horiz-adv-x="792" d="M47 549q0 293 97.5 433t328.5 140q92 0 177 -22.5t118 -50.5l-66 -226q-94 45 -174 45q-90 0 -128 -78.5t-38 -242.5q0 -170 37 -243t129 -73q86 0 181 39l61 -225q-39 -25 -136 -46.5t-161 -21.5q-233 0 -329.5 138.5t-96.5 433.5z" />
<glyph unicode="d" horiz-adv-x="1019" d="M47 555q0 287 94.5 427t288.5 140q96 0 205 -61l-12 199v235l303 31v-1526h-269l-14 119q-96 -141 -240 -142q-197 0 -276.5 146.5t-79.5 431.5zM362 555q0 -180 28 -259t102 -79q92 0 131 115v526q-51 37 -109 37q-82 0 -117 -77t-35 -263z" />
<glyph unicode="e" horiz-adv-x="960" d="M47 547q0 272 111.5 423.5t337.5 151.5q223 0 319 -120.5t96 -366.5q0 -88 -10 -170h-545q4 -127 43 -188.5t148 -61.5q121 0 297 70l65 -219q-55 -33 -179 -62t-222 -29q-461 1 -461 572zM358 633l254 4q2 12 2 39q0 125 -23.5 176t-94.5 51q-78 0 -107 -67.5 t-31 -202.5z" />
<glyph unicode="f" horiz-adv-x="651" d="M14 874v177l101 41v104q0 344 325 344q150 0 213 -39l-32 -217q-57 16 -103 16q-102 0 -102 -133v-67h207v-226h-207v-874h-301v874h-101z" />
<glyph unicode="g" horiz-adv-x="1001" d="M20 -125q0 137 173 215q-90 59 -91 141q0 92 123 150q-86 43 -133 132t-47 196q0 209 112.5 311t303.5 102q143 0 241 -65l267 76l18 -220l-156 -18q55 -80 56 -186q0 -207 -102.5 -295t-307.5 -88q-66 0 -106 12q-23 -12 -23 -41t46 -40t216 -21q197 -12 285 -76 t88 -215q0 -170 -139 -256t-363 -86q-217 0 -339 70.5t-122 201.5zM281 -82q0 -127 196 -127q205 0 205 113q0 55 -34 77.5t-152 34.5l-150 13q-65 -43 -65 -111zM346 715q0 -113 24.5 -159t96.5 -46q70 0 94.5 46t24.5 159q0 109 -25.5 158t-93.5 49t-94.5 -50.5 t-26.5 -156.5z" />
<glyph unicode="h" horiz-adv-x="1017" d="M94 0v1495l303 31v-289l-18 -236q113 121 237 121q174 0 249 -103.5t75 -305.5v-713h-303v719q0 84 -24.5 124t-94.5 40q-55 0 -121 -70v-813h-303z" />
<glyph unicode="i" horiz-adv-x="491" d="M94 0v1100h303v-1100h-303zM94 1225v254h303v-254h-303z" />
<glyph unicode="j" horiz-adv-x="491" d="M-57 -289q82 102 116.5 189.5t34.5 191.5v1008h303v-1008q0 -319 -227 -526zM92 1221v258h305v-258h-305z" />
<glyph unicode="k" horiz-adv-x="980" d="M94 0v1495l303 31v-1526h-303zM399 557v18l226 525h342l-252 -498l254 -602h-332z" />
<glyph unicode="l" horiz-adv-x="491" d="M94 0v1495l303 31v-1526h-303z" />
<glyph unicode="m" horiz-adv-x="1542" d="M94 0v1100h291l-8 -119q131 141 248 141q176 0 256 -141q53 55 128.5 98t143.5 43q172 0 240.5 -97t68.5 -292v-733h-301v731q0 152 -108 152q-57 0 -123 -66v-817h-301v731q0 152 -105 152q-55 0 -127 -72v-811h-303z" />
<glyph unicode="n" horiz-adv-x="1019" d="M94 0v1100h285l-8 -125q139 147 264 147q174 0 240.5 -101t66.5 -302v-719h-303v659q0 125 -20.5 174.5t-86.5 49.5q-74 0 -135 -86v-797h-303z" />
<glyph unicode="o" horiz-adv-x="1007" d="M47 547q0 575 457 575t457 -575q0 -287 -108 -429.5t-349.5 -142.5t-349 142.5t-107.5 429.5zM362 547q0 -188 29 -266t113 -78t113.5 78.5t29.5 265.5q0 188 -29.5 268t-113.5 80t-113 -79t-29 -269z" />
<glyph unicode="p" horiz-adv-x="1021" d="M94 -383v1483h295l-14 -117l4 -2q45 55 115.5 98t136.5 43q197 0 270.5 -140t73.5 -417q0 -285 -89 -437.5t-300 -152.5q-100 0 -199 52l10 -125v-264zM397 231q43 -29 97 -28q92 0 130 81t38 279q0 174 -29 247t-111 73q-33 0 -70.5 -29t-54.5 -61v-562z" />
<glyph unicode="q" horiz-adv-x="1017" d="M47 548.5q0 102.5 15.5 192.5t52.5 180.5t112.5 143.5t182.5 53h9q59 0 123 -22q69 -25 109 -60h4l19 64h250v-1462l-301 -21v336l6 135q-94 -113 -217 -113q-86 0 -151.5 30t-105.5 80t-64.5 126t-34 155.5t-9.5 182zM362 549q0 -176 27 -255t111 -79q68 0 123 76v555 q-59 47 -117 47q-82 0 -113 -74.5t-31 -269.5z" />
<glyph unicode="r" horiz-adv-x="686" d="M94 0v1100h293l-18 -205h4q33 106 91 166.5t134 60.5q45 0 76 -20l-25 -301q-35 20 -88 20q-70 0 -117 -54t-47 -138v-629h-303z" />
<glyph unicode="s" horiz-adv-x="849" d="M27 76l71 229q197 -88 312 -88q45 0 73.5 20.5t28.5 57.5q0 45 -36 69.5t-173 79.5q-133 53 -191.5 128t-58.5 204q0 346 373 346q96 0 221 -30.5t166 -63.5l-70 -221q-53 25 -149 50.5t-137 25.5q-47 0 -76 -21.5t-29 -58.5q0 -35 37 -60.5t156 -72.5q102 -41 154.5 -76 t84 -98.5t31.5 -163.5q0 -178 -99.5 -266.5t-279.5 -88.5q-102 0 -230 32t-179 67z" />
<glyph unicode="t" horiz-adv-x="665" d="M10 874v189l113 31v245l297 52v-291h196v-226h-196v-557q0 -100 65 -100q47 0 125 21l31 -218q-100 -43 -260 -43q-141 0 -202.5 80t-61.5 242v575h-107z" />
<glyph unicode="u" horiz-adv-x="1026" d="M86 352v748h303v-727q0 -156 113 -156q72 0 129 74v809h301v-1100h-256l-25 119q-59 -72 -117.5 -107t-146.5 -35q-301 0 -301 375z" />
<glyph unicode="v" horiz-adv-x="942" d="M8 1100h334q39 -313 125 -842h8q82 483 125 842h334q-47 -260 -124 -595t-134 -505h-410q-55 172 -134 510t-124 590z" />
<glyph unicode="w" horiz-adv-x="1429" d="M8 1100h322q94 -754 110 -852h13q27 98 74.5 303t58.5 272l-54 277h316q113 -756 129 -850h12q39 193 113 850h319q-141 -803 -227 -1100h-371q-72 250 -121 477q-41 -211 -122 -477h-349q-104 355 -223 1100z" />
<glyph unicode="x" horiz-adv-x="915" d="M10 1100h340l123 -373l107 373h323l-258 -549l262 -551h-332l-135 358l-123 -358h-307l256 549q-168 346 -256 551z" />
<glyph unicode="y" horiz-adv-x="946" d="M14 1100h328q68 -485 131 -842h10q63 336 125 842h330q-49 -266 -123 -596t-127 -504q-66 -219 -157 -309t-273 -90q-45 0 -117.5 15t-95.5 34l49 217q74 -33 144 -33q68 0 98.5 36t54.5 130h-117q-121 369 -260 1100z" />
<glyph unicode="z" horiz-adv-x="823" d="M41 0v209l375 665h-363v226h717v-197l-387 -678h401v-225h-743z" />
<glyph unicode="{" horiz-adv-x="704" d="M6 567v221q4 2 30.5 4.5t50.5 11.5t50.5 27.5t43 59.5t16.5 102v213q0 219 121.5 336t334.5 117h35v-242h-35q-88 0 -141 -57t-53 -160v-227q0 -119 -58.5 -196t-156.5 -101q98 -25 156.5 -99.5t58.5 -193.5v-231q0 -100 52 -150.5t142 -50.5h35v-258h-35 q-213 0 -334.5 116.5t-121.5 335.5v217q0 61 -16.5 102.5t-43 60t-50.5 27.5t-50.5 11t-30.5 4z" />
<glyph unicode="|" horiz-adv-x="1024" d="M348 -514v2048h328v-2048h-328z" />
<glyph unicode="}" horiz-adv-x="704" d="M16 -49h35q90 0 142.5 50t52.5 151v231q0 119 58 193.5t157 99.5q-98 25 -156.5 101.5t-58.5 195.5v227q0 102 -53.5 159.5t-141.5 57.5h-35v242h35q213 0 335 -117t122 -336v-213q0 -61 16.5 -102t43 -59.5t50 -27.5t50 -11t30.5 -5v-221q-4 -2 -30.5 -4t-50 -11 t-50 -27.5t-43 -59.5t-16.5 -103v-217q0 -219 -122 -335.5t-335 -116.5h-35v258z" />
<glyph unicode="~" horiz-adv-x="1040" d="M4 434q37 123 115 205t196 82q63 0 196.5 -55.5t188.5 -55.5q45 0 77 27t67 94l190 -61q-35 -135 -117.5 -215t-187.5 -80q-76 0 -203 54t-186 54q-84 0 -145 -118z" />
<glyph unicode="&#xa1;" horiz-adv-x="544" d="M104 0h336v592l-32 455h-269l-35 -455v-592zM123 1176v294h295v-294h-295z" />
<glyph unicode="&#xa2;" d="M180 723q0 242 63.5 379t213.5 178l-2 193h237l-2 -181q154 -20 211 -69l-65 -224q-90 43 -174 43q-90 0 -128 -77.5t-38 -241.5q0 -170 36.5 -242.5t129.5 -72.5q86 0 180 38l61 -227q-55 -35 -213 -59l2 -160h-237l2 170q-150 41 -213.5 176t-63.5 377z" />
<glyph unicode="&#xa3;" d="M45 0v231h174v359h-174v184l174 41v156q0 238 77 360.5t282 122.5q127 0 246.5 -21.5t172.5 -52.5q-31 -86 -73 -233q-96 49 -236 49q-84 0 -126 -46t-42 -179v-156h365l-21 -225h-344v-359h467v-231h-942z" />
<glyph unicode="&#xa5;" d="M-16 1466h346l194 -637h8l195 637h348l-295 -690h199v-227h-285v-113h285v-227h-285v-209h-332v209h-284v227h284v113h-284v227h198z" />
<glyph unicode="&#xa6;" horiz-adv-x="1024" d="M360 289h302v-799h-302v799zM360 731v799h302v-799h-302z" />
<glyph unicode="&#xa7;" d="M53 -301l97 231q246 -115 380 -114q143 0 144 112q0 57 -48 95t-218 118q-193 88 -266.5 176.5t-73.5 237.5q0 154 112 266q-109 102 -108 273q0 178 127 294.5t336 116.5q113 0 210 -23.5t250 -86.5l-106 -228q-246 88 -361 88q-143 0 -143 -125q0 -49 54.5 -87.5 t222.5 -116.5q190 -88 261.5 -176t71.5 -228q0 -168 -110 -278q102 -96 102 -258q0 -201 -128 -310.5t-339 -109.5q-119 0 -223.5 29.5t-243.5 103.5zM381 592q0 -41 29.5 -70.5t113.5 -68.5l121 -60q37 23 37 72q0 47 -35 81t-115 72q-72 33 -110 56q-41 -33 -41 -82z" />
<glyph unicode="&#xa8;" horiz-adv-x="1024" d="M219 1235v256h250v-256h-250zM553 1235v256h252v-256h-252z" />
<glyph unicode="&#xa9;" horiz-adv-x="1626" d="M51 727q0 315 222.5 537.5t537.5 222.5t540.5 -223.5t225.5 -536.5t-225.5 -536.5t-540.5 -223.5t-537.5 222.5t-222.5 537.5zM260 725q0 -236 160 -391.5t391 -155.5q227 0 391 161t164 386t-165 388t-390 163q-227 0 -389 -163t-162 -388zM502 731q0 -211 68.5 -304 t246.5 -93q127 0 242 59l-47 150q-102 -43 -162 -43q-63 0 -92 54t-29 177q0 119 28.5 167t92.5 48q66 0 151 -33l46 144q-29 20 -96.5 36.5t-125.5 16.5q-166 0 -244.5 -89t-78.5 -290z" />
<glyph unicode="&#xaa;" horiz-adv-x="817" d="M82 979q0 123 87 177t304 71v39q0 84 -96 84q-88 0 -234 -56l-53 156q35 25 138.5 48.5t187.5 23.5q145 0 213.5 -60.5t68.5 -191.5v-320q0 -84 11 -166l-205 -12q-10 23 -21 78q-78 -86 -184 -86q-104 0 -160.5 56.5t-56.5 158.5zM309 997q0 -84 70 -84q55 0 94 64v127 q-84 -10 -124 -33t-40 -74z" />
<glyph unicode="&#xab;" horiz-adv-x="1028" d="M68 547v16l254 441h258l-250 -449l250 -449h-258zM461 547v16l254 441h260l-250 -449l250 -449h-260z" />
<glyph unicode="&#xad;" horiz-adv-x="858" d="M129 496v227h594v-227h-594z" />
<glyph unicode="&#xae;" horiz-adv-x="1622" d="M51 727q0 315 222.5 537.5t537.5 222.5t537.5 -222.5t222.5 -537.5t-222.5 -537.5t-537.5 -222.5t-537.5 222.5t-222.5 537.5zM258 723q0 -231 162 -392t391 -161q231 0 393 161t162 392t-162 392t-393 161q-229 0 -391 -161t-162 -392zM565 360h183v250l57 2l113 -252 h210l-102 213l-41 74q119 63 119 211q0 131 -90 187.5t-262 56.5h-187v-742zM748 741v215h40q129 0 130 -106q0 -109 -121 -109h-49z" />
<glyph unicode="&#xaf;" horiz-adv-x="1024" d="M195 1298v125h634v-125h-634z" />
<glyph unicode="&#xb0;" horiz-adv-x="718" d="M80 1392.5q0 116.5 78 191.5t198.5 75t198.5 -75t78 -191.5t-78 -189.5t-198.5 -73t-198.5 73t-78 189.5zM254 1393q0 -51 27.5 -81t74.5 -30t75 29.5t28 81.5q0 53 -28 83.5t-75 30.5t-74.5 -30.5t-27.5 -83.5z" />
<glyph unicode="&#xb1;" d="M70 -2v227h333v269h-333v227h333v362h246v-362h338v-227h-338v-269h338v-227h-917z" />
<glyph unicode="&#xb2;" horiz-adv-x="849" d="M80 1378q47 45 144.5 86t185.5 41q154 0 238.5 -73.5t84.5 -212.5q0 -164 -166 -330l-174 -174l152 6h196v-180h-637v153l297 312q88 94 88 198q0 102 -112 103q-84 0 -201 -86z" />
<glyph unicode="&#xb3;" horiz-adv-x="847" d="M86 1425q35 29 122 54.5t171 25.5q141 0 231 -62.5t90 -187.5q0 -135 -135 -225q82 -23 128 -80t46 -143q0 -135 -100 -211t-262 -76q-160 0 -287 76l62 160q94 -53 198 -54q68 0 107 34t39 87q0 117 -134 123l-108 -20l-31 155q123 20 181.5 55t58.5 95q0 92 -119 92 q-74 0 -199 -53z" />
<glyph unicode="&#xb4;" horiz-adv-x="1024" d="M289 1206l196 361l281 -58l-307 -303h-170z" />
<glyph unicode="&#xb5;" horiz-adv-x="1034" d="M94 -383v1483h303v-729q0 -154 113 -154q72 0 127 74v809h303v-1100h-256l-25 119q-66 -80 -129 -101q-63 -31 -135 -24v-356z" />
<glyph unicode="&#x3bc;" horiz-adv-x="1034" d="M94 -383v1483h303v-729q0 -154 113 -154q72 0 127 74v809h303v-1100h-256l-25 119q-66 -80 -129 -101q-63 -31 -135 -24v-356z" />
<glyph unicode="&#xb6;" horiz-adv-x="1277" d="M78 969q0 260 128 383t406 123h201v-1475h-205v461h-78q-223 0 -337.5 134t-114.5 374zM924 0v1475h252v-1475h-252z" />
<glyph unicode="&#xb7;" horiz-adv-x="495" d="M117 424v293h252v-293h-252z" />
<glyph unicode="&#xb8;" horiz-adv-x="1024" d="M246 -319h164q88 0 88 55q0 33 -21.5 44t-75.5 11h-92v209h123v-80q223 0 223 -180q0 -186 -233 -186h-176v127z" />
<glyph unicode="&#xb9;" horiz-adv-x="788" d="M80 1319q170 66 268 149h168v-782l76 6h82v-164h-565v162h96l80 -4v528q-86 -49 -160 -61z" />
<glyph unicode="&#xba;" horiz-adv-x="856" d="M82 1141q0 186 78 283.5t252 97.5q334 0 333 -381q0 -190 -78.5 -284.5t-254.5 -94.5q-174 0 -252 94.5t-78 284.5zM317 1141q0 -119 19.5 -168t75.5 -49q57 0 76.5 49t19.5 168q0 121 -19.5 171t-76.5 50q-55 0 -75 -50t-20 -171z" />
<glyph unicode="&#xbb;" horiz-adv-x="1028" d="M53 106l250 449l-250 449h260l254 -441v-16l-254 -441h-260zM449 106l249 449l-249 449h258l254 -441v-16l-254 -441h-258z" />
<glyph unicode="&#xbc;" horiz-adv-x="2015" d="M76 1319q170 66 268 149h168v-782l76 6h82v-164h-566v162h97l80 -4v528q-86 -49 -160 -61zM606 0l584 1473h219l-584 -1473h-219zM1221 152v159l288 637h244l-225 -475l-88 -147h184l12 241l199 15v-256h113l-13 -174h-100v-156l-211 -10v166h-403z" />
<glyph unicode="&#xbd;" horiz-adv-x="2015" d="M76 1319q170 66 268 149h168v-782l76 6h82v-164h-566v162h97l80 -4v528q-86 -49 -160 -61zM606 0l584 1473h219l-584 -1473h-219zM1300 838q47 45 144.5 86t185.5 41q154 0 239 -74t85 -213q0 -164 -166 -330l-174 -174l151 6h197v-180h-637v154l297 311q88 94 88 199 q0 102 -113 102q-84 0 -200 -86z" />
<glyph unicode="&#xbe;" horiz-adv-x="2015" d="M80 1425q35 29 122 54.5t171 25.5q141 0 231 -62.5t90 -187.5q0 -135 -135 -225q82 -23 128 -80t46 -143q0 -135 -100.5 -211t-261.5 -76q-160 0 -287 76l61 160q94 -53 199 -54q68 0 106.5 34t38.5 87q0 117 -133 123l-108 -20l-31 155q123 20 181.5 55t58.5 95 q0 92 -119 92q-74 0 -199 -53zM608 0l584 1473h217l-584 -1473h-217zM1223 152v159l288 637h244l-225 -475l-88 -147h184l10 241l199 15v-256h113l-11 -174h-102v-156l-209 -10v166h-403z" />
<glyph unicode="&#xbf;" horiz-adv-x="1036" d="M66 428q0 100 40.5 181t98 131.5t115 93.5t98.5 89t41 97q0 2 -6 51h272q20 -70 20 -117q0 -82 -35.5 -145.5t-86 -104t-101.5 -77.5t-87 -85t-36 -106q0 -78 43 -122t123 -44q139 0 295 127l127 -223q-197 -174 -450 -174q-217 0 -344 110.5t-127 317.5zM442 1194v293 h297v-293h-297z" />
<glyph unicode="&#xc0;" horiz-adv-x="1167" d="M14 0l355 1475h417l367 -1475h-334l-67 301h-342l-64 -301h-332zM285 1884l280 58l197 -361h-172zM449 537h264l-88 467q-31 162 -35 223h-12q-6 -55 -33 -223z" />
<glyph unicode="&#xc1;" horiz-adv-x="1167" d="M14 0l355 1475h417l367 -1475h-334l-67 301h-342l-64 -301h-332zM389 1581l197 361l280 -58l-307 -303h-170zM449 537h264l-88 467q-31 162 -35 223h-12q-6 -55 -33 -223z" />
<glyph unicode="&#xc2;" horiz-adv-x="1167" d="M14 0l355 1475h417l367 -1475h-334l-67 301h-342l-64 -301h-332zM303 1581l195 361h170l190 -361h-143l-133 213l-131 -213h-148zM449 537h264l-88 467q-31 162 -35 223h-12q-6 -55 -33 -223z" />
<glyph unicode="&#xc3;" horiz-adv-x="1167" d="M14 0l355 1475h417l367 -1475h-334l-67 301h-342l-64 -301h-332zM285 1665q23 88 73 136t117 48q59 0 134 -31.5t96 -31.5q47 0 88 72l94 -41q-49 -190 -174 -191q-61 0 -136 31t-96 31q-51 0 -88 -70zM449 537h264l-88 467q-31 162 -35 223h-12q-6 -55 -33 -223z" />
<glyph unicode="&#xc4;" horiz-adv-x="1167" d="M14 0l355 1475h417l367 -1475h-334l-67 301h-342l-64 -301h-332zM291 1610v256h250v-256h-250zM449 537h264l-88 467q-31 162 -35 223h-12q-6 -55 -33 -223zM625 1610v256h252v-256h-252z" />
<glyph unicode="&#xc5;" horiz-adv-x="1167" d="M14 0l355 1475h417l367 -1475h-334l-67 301h-342l-64 -301h-332zM373 1790q0 86 61.5 148.5t147.5 62.5t147.5 -61.5t61.5 -149.5q0 -86 -61.5 -147.5t-147.5 -61.5t-147.5 60.5t-61.5 148.5zM449 537h264l-88 467q-31 162 -35 223h-12q-6 -55 -33 -223zM496 1790 q0 -35 25.5 -59.5t60.5 -24.5q33 0 59.5 26.5t26.5 57.5q0 37 -27 62.5t-59 25.5q-35 0 -60.5 -25.5t-25.5 -62.5z" />
<glyph unicode="&#xc6;" horiz-adv-x="1615" d="M14 0l518 1475h1014l-20 -269h-441v-340h385v-248h-385v-350h465v-268h-794v301h-316l-92 -301h-334zM508 537h248v688h-39z" />
<glyph unicode="&#xc7;" horiz-adv-x="993" d="M57 754q0 397 127 574t402 177q90 0 198.5 -29.5t149.5 -62.5l-62 -248q-131 59 -247 60q-119 0 -170.5 -105.5t-51.5 -365.5q0 -268 50.5 -388t169.5 -120q96 0 268 78l65 -254q-61 -39 -169.5 -70t-198.5 -33v-47q223 0 223 -180q0 -186 -233 -186h-177v127h164 q88 0 88 55q0 33 -21.5 44t-74.5 11h-92v182q-229 31 -318.5 216.5t-89.5 564.5z" />
<glyph unicode="&#xc8;" horiz-adv-x="962" d="M102 0v1475h791l-23 -269h-438v-344h385v-237h-385v-357h465v-268h-795zM244 1884l280 58l197 -361h-172z" />
<glyph unicode="&#xc9;" horiz-adv-x="962" d="M102 0v1475h791l-23 -269h-438v-344h385v-237h-385v-357h465v-268h-795zM311 1581l197 361l280 -58l-307 -303h-170z" />
<glyph unicode="&#xca;" horiz-adv-x="962" d="M102 0v1475h791l-23 -269h-438v-344h385v-237h-385v-357h465v-268h-795zM215 1581l195 361h170l190 -361h-143l-133 213l-132 -213h-147z" />
<glyph unicode="&#xcb;" horiz-adv-x="962" d="M102 0v1475h791l-23 -269h-438v-344h385v-237h-385v-357h465v-268h-795zM195 1610v256h249v-256h-249zM528 1610v256h252v-256h-252z" />
<glyph unicode="&#xcc;" horiz-adv-x="534" d="M12 1884l281 58l196 -361h-172zM102 0v1475h330v-1475h-330z" />
<glyph unicode="&#xcd;" horiz-adv-x="534" d="M102 0v1475h330v-1475h-330zM106 1581l197 361l281 -58l-308 -303h-170z" />
<glyph unicode="&#xce;" horiz-adv-x="534" d="M-8 1581l194 361h170l191 -361h-144l-133 213l-131 -213h-147zM102 0v1475h330v-1475h-330z" />
<glyph unicode="&#xcf;" horiz-adv-x="534" d="M-25 1610v256h250v-256h-250zM102 0v1475h330v-1475h-330zM309 1610v256h252v-256h-252z" />
<glyph unicode="&#xd0;" horiz-adv-x="1198" d="M-29 629v207h131v639h430q319 0 464 -181.5t145 -550.5q0 -371 -142.5 -557t-461.5 -186h-435v629h-131zM432 268h96q156 0 211.5 107.5t55.5 367.5q0 254 -56.5 358.5t-210.5 104.5h-96v-370h184v-207h-184v-361z" />
<glyph unicode="&#xd1;" horiz-adv-x="1241" d="M102 0v1475h375l379 -945h10l-10 945h283l2 -1475h-361l-395 961h-8l10 -961h-285zM330 1665q23 88 73 136t117 48q59 0 134 -31.5t96 -31.5q47 0 88 72l94 -41q-49 -190 -174 -191q-61 0 -136 31t-96 31q-51 0 -88 -70z" />
<glyph unicode="&#xd2;" horiz-adv-x="1202" d="M57 735q0 385 120 577.5t425 192.5q307 0 426 -192.5t119 -577.5q0 -188 -24.5 -322t-85 -238.5t-169 -156t-266.5 -51.5q-305 0 -425 192.5t-120 575.5zM293 1884l280 58l197 -361h-172zM406 735.5q0 -276.5 45 -383t151.5 -106.5t151.5 105.5t45 384t-45 384 t-151.5 105.5t-151.5 -106.5t-45 -383z" />
<glyph unicode="&#xd3;" horiz-adv-x="1202" d="M57 735q0 -383 120 -575.5t425 -192.5q158 0 266.5 51.5t169 156t85 238.5t24.5 322q0 385 -119 577.5t-426 192.5q-305 0 -425 -192.5t-120 -577.5zM406 735.5q0 276.5 45 383t151.5 106.5t151.5 -105.5t45 -384t-45 -384t-151.5 -105.5t-151.5 106.5t-45 383zM451 1581 l196 361l281 -58l-307 -303h-170z" />
<glyph unicode="&#xd4;" horiz-adv-x="1202" d="M57 735q0 -383 120 -575.5t425 -192.5q158 0 266.5 51.5t169 156t85 238.5t24.5 322q0 385 -119 577.5t-426 192.5q-305 0 -425 -192.5t-120 -577.5zM324 1581l194 361h170l191 -361h-144l-133 213l-131 -213h-147zM406 735.5q0 276.5 45 383t151.5 106.5t151.5 -105.5 t45 -384t-45 -384t-151.5 -105.5t-151.5 106.5t-45 383z" />
<glyph unicode="&#xd5;" horiz-adv-x="1202" d="M57 735q0 -383 120 -575.5t425 -192.5q158 0 266.5 51.5t169 156t85 238.5t24.5 322q0 385 -119 577.5t-426 192.5q-305 0 -425 -192.5t-120 -577.5zM299 1665q23 88 73 136t117 48q59 0 134 -31.5t96 -31.5q47 0 88 72l94 -41q-49 -190 -174 -191q-61 0 -136 31t-95 31 q-51 0 -88 -70zM406 735.5q0 276.5 45 383t151.5 106.5t151.5 -105.5t45 -384t-45 -384t-151.5 -105.5t-151.5 106.5t-45 383z" />
<glyph unicode="&#xd6;" horiz-adv-x="1202" d="M57 735q0 385 120 577.5t425 192.5q307 0 426 -192.5t119 -577.5q0 -188 -24.5 -322t-85 -238.5t-169 -156t-266.5 -51.5q-305 0 -425 192.5t-120 575.5zM309 1610v256h250v-256h-250zM406 735.5q0 -276.5 45 -383t151.5 -106.5t151.5 105.5t45 384t-45 384t-151.5 105.5 t-151.5 -106.5t-45 -383zM643 1610v256h252v-256h-252z" />
<glyph unicode="&#xd7;" horiz-adv-x="1040" d="M57 317l291 291l-291 289l164 168l293 -291l293 293l174 -174l-293 -293l295 -295l-162 -166l-299 295l-291 -291z" />
<glyph unicode="&#xd8;" horiz-adv-x="1202" d="M57 735q0 385 120 577.5t425 192.5q141 0 248 -45l61 139h148l-92 -215q180 -166 180 -649q0 -188 -24.5 -322t-85 -238.5t-169 -156t-266.5 -51.5q-131 0 -235 39l-72 -168h-148l103 238q-193 165 -193 659zM403 735q0 -178 17 -270l305 704q-43 55 -123 56 q-106 0 -152.5 -105.5t-46.5 -384.5zM489 287q43 -41 113 -41q106 0 151.5 105.5t45.5 383.5q0 141 -13 238z" />
<glyph unicode="&#xd9;" horiz-adv-x="1167" d="M92 498v977h324v-1006q0 -231 168 -231q94 0 131 61t37 174v1002h323v-973q0 -260 -117.5 -396.5t-373.5 -136.5t-374 134.5t-118 394.5zM233 1884l281 58l197 -361h-172z" />
<glyph unicode="&#xda;" horiz-adv-x="1167" d="M92 498q0 -260 118 -394.5t374 -134.5t373.5 136.5t117.5 396.5v973h-323v-1002q0 -113 -37 -174t-131 -61q-168 0 -168 231v1006h-324v-977zM438 1581l197 361l280 -58l-307 -303h-170z" />
<glyph unicode="&#xdb;" horiz-adv-x="1167" d="M92 498q0 -260 118 -394.5t374 -134.5t373.5 136.5t117.5 396.5v973h-323v-1002q0 -113 -37 -174t-131 -61q-168 0 -168 231v1006h-324v-977zM305 1581l195 361h170l190 -361h-143l-133 213l-131 -213h-148z" />
<glyph unicode="&#xdc;" horiz-adv-x="1167" d="M92 498v977h324v-1006q0 -231 168 -231q94 0 131 61t37 174v1002h323v-973q0 -260 -117.5 -396.5t-373.5 -136.5t-374 134.5t-118 394.5zM291 1610v256h250v-256h-250zM625 1610v256h252v-256h-252z" />
<glyph unicode="&#xdd;" horiz-adv-x="1112" d="M6 1475q188 -492 385 -902v-573h330v573q188 383 385 902h-346l-199 -646h-8l-199 646h-348zM451 1581l196 361l281 -58l-307 -303h-170z" />
<glyph unicode="&#xde;" horiz-adv-x="1122" d="M102 2v1468h332v-210h150q250 0 369.5 -125t119.5 -381q0 -272 -136 -390t-409 -118h-96v-244h-330zM432 483h86q119 0 170 65.5t51 205.5q0 135 -52 193.5t-169 58.5h-86v-523z" />
<glyph unicode="&#xdf;" horiz-adv-x="1103" d="M94 0v1108q0 199 110.5 298t313.5 99q221 0 337 -98t116 -283q0 -264 -256 -348q197 -29 269.5 -127t72.5 -274q0 -186 -94.5 -295t-253.5 -109q-139 0 -252 47l35 232q70 -33 135 -33q74 0 109.5 60.5t35.5 140.5q0 102 -70.5 154.5t-214.5 70.5v240q98 8 136.5 58 t38.5 142q0 100 -32 151.5t-112 51.5q-121 0 -121 -160v-1126h-303z" />
<glyph unicode="&#xe0;" horiz-adv-x="974" d="M39 297q0 182 121 262t424 109v71q0 137 -135 138q-137 0 -328 -82l-66 223q49 35 190.5 69.5t256.5 34.5q199 0 291 -90t92 -289v-491q0 -14 3 -64.5t6 -107.5t3 -74l-274 -16q-23 80 -27 133q-111 -145 -258 -146q-143 0 -221 83t-78 237zM178 1509l281 58l196 -361 h-172zM344 326q0 -139 105 -140q76 0 135 103v215q-123 -14 -181.5 -52t-58.5 -126z" />
<glyph unicode="&#xe1;" horiz-adv-x="974" d="M39 297q0 182 121 262t424 109v71q0 137 -135 138q-137 0 -328 -82l-66 223q49 35 190.5 69.5t256.5 34.5q199 0 291 -90t92 -289v-491q0 -14 3 -64.5t6 -107.5t3 -74l-274 -16q-23 80 -27 133q-111 -145 -258 -146q-143 0 -221 83t-78 237zM303 1206l197 361l280 -58 l-307 -303h-170zM344 326q0 -139 105 -140q76 0 135 103v215q-123 -14 -181.5 -52t-58.5 -126z" />
<glyph unicode="&#xe2;" horiz-adv-x="974" d="M39 297q0 182 121 262t424 109v71q0 137 -135 138q-137 0 -328 -82l-66 223q49 35 190.5 69.5t256.5 34.5q199 0 291 -90t92 -289v-491q0 -14 3 -64.5t6 -107.5t3 -74l-274 -16q-23 80 -27 133q-111 -145 -258 -146q-143 0 -221 83t-78 237zM207 1206l194 361h170 l191 -361h-144l-133 213l-131 -213h-147zM344 326q0 -139 105 -140q76 0 135 103v215q-123 -14 -181.5 -52t-58.5 -126z" />
<glyph unicode="&#xe3;" horiz-adv-x="974" d="M39 297q0 182 121 262t424 109v71q0 137 -135 138q-137 0 -328 -82l-66 223q49 35 190.5 69.5t256.5 34.5q199 0 291 -90t92 -289v-491q0 -14 3 -64.5t6 -107.5t3 -74l-274 -16q-23 80 -27 133q-111 -145 -258 -146q-143 0 -221 83t-78 237zM184 1290q23 88 73 136.5 t118 48.5q59 0 134 -32t95 -32q47 0 88 72l94 -41q-49 -190 -174 -191q-61 0 -136 31t-95 31q-51 0 -88 -70zM344 326q0 -139 105 -140q76 0 135 103v215q-123 -14 -181.5 -52t-58.5 -126z" />
<glyph unicode="&#xe4;" horiz-adv-x="974" d="M39 297q0 182 121 262t424 109v71q0 137 -135 138q-137 0 -328 -82l-66 223q49 35 190.5 69.5t256.5 34.5q199 0 291 -90t92 -289v-491q0 -14 3 -64.5t6 -107.5t3 -74l-274 -16q-23 80 -27 133q-111 -145 -258 -146q-143 0 -221 83t-78 237zM193 1235v256h249v-256h-249z M344 326q0 -139 105 -140q76 0 135 103v215q-123 -14 -181.5 -52t-58.5 -126zM526 1235v256h252v-256h-252z" />
<glyph unicode="&#xe5;" horiz-adv-x="974" d="M39 297q0 182 121 262t424 109v71q0 137 -135 138q-137 0 -328 -82l-66 223q49 35 190.5 69.5t256.5 34.5q199 0 291 -90t92 -289v-491q0 -14 3 -64.5t6 -107.5t3 -74l-274 -16q-23 80 -27 133q-111 -145 -258 -146q-143 0 -221 83t-78 237zM285 1415q0 88 62.5 149.5 t146.5 61.5q86 0 147 -61.5t61 -149.5q0 -86 -61 -147.5t-147 -61.5t-147.5 60.5t-61.5 148.5zM344 326q0 -139 105 -140q76 0 135 103v215q-123 -14 -181.5 -52t-58.5 -126zM408 1415q0 -35 25.5 -59.5t60.5 -24.5q33 0 59.5 26.5t26.5 57.5q0 37 -27 62.5t-59 25.5 q-35 0 -60.5 -25.5t-25.5 -62.5z" />
<glyph unicode="&#xe6;" horiz-adv-x="1495" d="M39 297q0 182 121 262t424 109v71q0 137 -135 138q-137 0 -328 -82l-66 223q39 31 148.5 61.5t214.5 38.5q28 2 55 2q75 0 147 -16q97 -23 128 -86q104 104 282 104q223 0 319.5 -120.5t96.5 -366.5q0 -88 -10 -170h-543q2 -125 41 -187.5t147 -62.5q121 0 297 70 l66 -219q-55 -33 -178 -62t-222 -29q-242 0 -358 160q-121 -158 -313 -158q-156 0 -245 84t-89 236zM344 326q0 -70 27 -105q25 -33 72 -33h6q109 0 135 160l-2 156q-123 -14 -180.5 -52t-57.5 -126zM893 633l254 4q2 12 2 39q0 125 -23.5 176t-95.5 51q-78 0 -106.5 -67.5 t-30.5 -202.5z" />
<glyph unicode="&#xe7;" horiz-adv-x="796" d="M47 549q0 293 97.5 433t328.5 140q92 0 177 -22.5t118 -50.5l-66 -226q-94 45 -174 45q-90 0 -128 -78.5t-38 -242.5q0 -170 37 -243t129 -73q86 0 181 39l61 -225q-39 -25 -135 -46.5t-160 -21.5v-57q223 0 223 -180q0 -186 -233 -186h-176v127h164q88 0 88 55 q0 33 -21.5 44t-75.5 11h-92v199q-166 33 -235.5 169t-69.5 390z" />
<glyph unicode="&#xe8;" horiz-adv-x="960" d="M47 547q0 272 111.5 423.5t337.5 151.5q223 0 319 -120.5t96 -366.5q0 -88 -10 -170h-545q4 -127 43 -188.5t148 -61.5q121 0 297 70l65 -219q-55 -33 -179 -62t-222 -29q-461 1 -461 572zM197 1509l280 58l197 -361h-172zM358 633l254 4q2 12 2 39q0 125 -23.5 176 t-94.5 51q-78 0 -107 -67.5t-31 -202.5z" />
<glyph unicode="&#xe9;" horiz-adv-x="960" d="M47 547q0 272 111.5 423.5t337.5 151.5q223 0 319 -120.5t96 -366.5q0 -88 -10 -170h-545q4 -127 43 -188.5t148 -61.5q121 0 297 70l65 -219q-55 -33 -179 -62t-222 -29q-461 1 -461 572zM344 1206l197 361l280 -58l-307 -303h-170zM358 633l254 4q2 12 2 39 q0 125 -23.5 176t-94.5 51q-78 0 -107 -67.5t-31 -202.5z" />
<glyph unicode="&#xea;" horiz-adv-x="960" d="M47 547q0 272 111.5 423.5t337.5 151.5q223 0 319 -120.5t96 -366.5q0 -88 -10 -170h-545q4 -127 43 -188.5t148 -61.5q121 0 297 70l65 -219q-55 -33 -179 -62t-222 -29q-461 1 -461 572zM219 1206l195 361h170l190 -361h-143l-133 213l-131 -213h-148zM358 633l254 4 q2 12 2 39q0 125 -23.5 176t-94.5 51q-78 0 -107 -67.5t-31 -202.5z" />
<glyph unicode="&#xeb;" horiz-adv-x="960" d="M47 547q0 272 111.5 423.5t337.5 151.5q223 0 319 -120.5t96 -366.5q0 -88 -10 -170h-545q4 -127 43 -188.5t148 -61.5q121 0 297 70l65 -219q-55 -33 -179 -62t-222 -29q-461 1 -461 572zM205 1235v256h250v-256h-250zM358 633l254 4q2 12 2 39q0 125 -23.5 176 t-94.5 51q-78 0 -107 -67.5t-31 -202.5zM539 1235v256h252v-256h-252z" />
<glyph unicode="&#xec;" horiz-adv-x="493" d="M-88 1509l281 58l196 -361h-172zM94 0v1100h303v-1100h-303z" />
<glyph unicode="&#xed;" horiz-adv-x="493" d="M90 1206l197 361l280 -58l-307 -303h-170zM94 0v1100h303v-1100h-303z" />
<glyph unicode="&#xee;" horiz-adv-x="493" d="M-29 1206l195 361h170l190 -361h-143l-133 213l-131 -213h-148zM94 0v1100h303v-1100h-303z" />
<glyph unicode="&#xef;" horiz-adv-x="493" d="M-51 1235v256h250v-256h-250zM94 0v1100h303v-1100h-303zM283 1235v256h252v-256h-252z" />
<glyph unicode="&#xf0;" horiz-adv-x="1048" d="M31 500q0 207 106.5 328.5t274.5 121.5q166 0 272 -143q-12 139 -90 299l-213 -68l-72 224l160 51q-59 82 -135 157l266 80q86 -102 123 -153l186 61l74 -225l-129 -43q152 -274 152 -553q0 -311 -123 -487.5t-359 -176.5q-233 0 -363 136.5t-130 390.5zM354 502 q0 -127 38 -205t116 -78q100 0 137 101.5t37 302.5q-82 125 -170 125q-82 0 -120 -70t-38 -176z" />
<glyph unicode="&#xf1;" horiz-adv-x="1019" d="M94 0v1100h285l-8 -125q139 147 264 147q174 0 240.5 -101t66.5 -302v-719h-303v659q0 125 -20.5 174.5t-86.5 49.5q-74 0 -135 -86v-797h-303zM205 1290q23 88 73 136.5t117 48.5q59 0 134 -32t96 -32q47 0 88 72l94 -41q-49 -190 -174 -191q-61 0 -136 31t-96 31 q-51 0 -88 -70z" />
<glyph unicode="&#xf2;" horiz-adv-x="1007" d="M47 547q0 575 457 575t457 -575q0 -287 -108 -429.5t-349.5 -142.5t-349 142.5t-107.5 429.5zM219 1509l281 58l196 -361h-172zM362 547q0 -188 29 -266t113 -78t113.5 78.5t29.5 265.5q0 188 -29.5 268t-113.5 80t-113 -79t-29 -269z" />
<glyph unicode="&#xf3;" horiz-adv-x="1007" d="M47 547q0 -287 107.5 -429.5t349 -142.5t349.5 142.5t108 429.5q0 575 -457 575t-457 -575zM362 547q0 190 29 269t113 79t113.5 -80t29.5 -268q0 -186 -29.5 -265t-113.5 -79t-113 78t-29 266zM377 1206l196 361l281 -58l-307 -303h-170z" />
<glyph unicode="&#xf4;" horiz-adv-x="1007" d="M47 547q0 -287 107.5 -429.5t349 -142.5t349.5 142.5t108 429.5q0 575 -457 575t-457 -575zM227 1206l195 361h170l190 -361h-143l-133 213l-131 -213h-148zM362 547q0 190 29 269t113 79t113.5 -80t29.5 -268q0 -186 -29.5 -265t-113.5 -79t-113 78t-29 266z" />
<glyph unicode="&#xf5;" horiz-adv-x="1007" d="M47 547q0 -287 107.5 -429.5t349 -142.5t349.5 142.5t108 429.5q0 575 -457 575t-457 -575zM213 1290q23 88 73 136.5t117 48.5q59 0 134 -32t96 -32q47 0 88 72l94 -41q-49 -190 -174 -191q-61 0 -136 31t-95 31q-51 0 -88 -70zM362 547q0 190 29 269t113 79t113.5 -80 t29.5 -268q0 -186 -29.5 -265t-113.5 -79t-113 78t-29 266z" />
<glyph unicode="&#xf6;" horiz-adv-x="1007" d="M47 547q0 575 457 575t457 -575q0 -287 -108 -429.5t-349.5 -142.5t-349 142.5t-107.5 429.5zM213 1235v256h250v-256h-250zM362 547q0 -188 29 -266t113 -78t113.5 78.5t29.5 265.5q0 188 -29.5 268t-113.5 80t-113 -79t-29 -269zM547 1235v256h252v-256h-252z" />
<glyph unicode="&#xf7;" horiz-adv-x="1040" d="M92 492v227h852v-227h-852zM391 90v293h254v-293h-254zM391 829v293h254v-293h-254z" />
<glyph unicode="&#xf8;" horiz-adv-x="1007" d="M47 547q0 575 457 575q51 0 106 -10l41 143h131l-53 -182q231 -115 232 -526q0 -287 -108 -429.5t-349 -142.5q-49 0 -88 7l-41 -144h-131l49 174q-246 105 -246 535zM362 547q0 -162 19 -234l164 576q-18 6 -41 6q-84 0 -113 -79t-29 -269zM479 205q8 -2 25 -2 q84 0 113.5 78.5t29.5 265.5q0 119 -12 198z" />
<glyph unicode="&#xf9;" horiz-adv-x="1026" d="M86 352v748h303v-727q0 -156 113 -156q72 0 129 74v809h301v-1100h-256l-25 119q-59 -72 -117.5 -107t-146.5 -35q-301 0 -301 375zM211 1509l281 58l196 -361h-172z" />
<glyph unicode="&#xfa;" horiz-adv-x="1026" d="M86 352v748h303v-727q0 -156 113 -156q72 0 129 74v809h301v-1100h-256l-25 119q-59 -72 -117.5 -107t-146.5 -35q-301 0 -301 375zM348 1206l197 361l280 -58l-307 -303h-170z" />
<glyph unicode="&#xfb;" horiz-adv-x="1026" d="M86 352v748h303v-727q0 -156 113 -156q72 0 129 74v809h301v-1100h-256l-25 119q-59 -72 -117.5 -107t-146.5 -35q-301 0 -301 375zM229 1206l195 361h170l190 -361h-143l-133 213l-131 -213h-148z" />
<glyph unicode="&#xfc;" horiz-adv-x="1026" d="M86 352v748h303v-727q0 -156 113 -156q72 0 129 74v809h301v-1100h-256l-25 119q-59 -72 -117.5 -107t-146.5 -35q-301 0 -301 375zM215 1235v256h250v-256h-250zM549 1235v256h252v-256h-252z" />
<glyph unicode="&#xfd;" horiz-adv-x="946" d="M14 1100h328q68 -485 131 -842h10q63 336 125 842h330q-49 -266 -123 -596t-127 -504q-66 -219 -157 -309t-273 -90q-45 0 -117.5 15t-95.5 34l49 217q74 -33 144 -33q68 0 98.5 36t54.5 130h-117q-121 369 -260 1100zM360 1206l197 361l281 -58l-308 -303h-170z" />
<glyph unicode="&#xfe;" horiz-adv-x="1015" d="M94 1495l295 35v-430l-14 -117l4 -2q119 141 244 141q199 0 276.5 -142t77.5 -415q0 -285 -90 -437.5t-301 -152.5q-100 0 -199 52l10 -125v-264l-303 -21v1878zM397 231q43 -29 97 -28q92 0 130 81t38 279q0 176 -29 249t-111 73q-33 0 -70.5 -29t-54.5 -61v-564z" />
<glyph unicode="&#xff;" horiz-adv-x="946" d="M14 1100h328q68 -485 131 -842h10q63 336 125 842h330q-49 -266 -123 -596t-127 -504q-66 -219 -157 -309t-273 -90q-45 0 -117.5 15t-95.5 34l49 217q74 -33 144 -33q68 0 98.5 36t54.5 130h-117q-121 369 -260 1100zM186 1235v256h250v-256h-250zM520 1235v256h252 v-256h-252z" />
<glyph unicode="&#x152;" horiz-adv-x="1716" d="M57 735q0 385 120 577.5t425 192.5q82 0 161 -34.5t124 -98.5v101h760l-21 -269h-440v-344h385v-235h-385v-359h465v-268h-764v106q-98 -137 -285 -137q-305 0 -425 192.5t-120 575.5zM403 735q0 -276 46.5 -382.5t153 -106.5t151.5 105.5t45 384t-45 384t-151.5 105.5 t-153 -105.5t-46.5 -384.5z" />
<glyph unicode="&#x153;" horiz-adv-x="1560" d="M47 547q0 575 457 575q190 0 305 -114q102 115 289 114q223 0 318 -121.5t95 -365.5q0 -88 -10 -170h-543q2 -127 42 -188.5t147 -61.5q119 0 299 70l63 -219q-53 -33 -177 -62t-222 -29q-195 0 -301 111q-111 -111 -305 -111q-242 0 -349.5 142.5t-107.5 429.5zM362 547 q0 -188 29 -266t113 -78q86 0 114.5 78.5t28.5 267t-29.5 267.5t-113.5 79t-113 -79t-29 -269zM961 633l251 4q2 12 2 39q0 125 -23.5 176t-92.5 51q-78 0 -106.5 -67.5t-30.5 -202.5z" />
<glyph unicode="&#x178;" horiz-adv-x="1112" d="M6 1475h348l199 -646h8l199 646h346q-197 -518 -385 -902v-573h-330v573q-197 410 -385 902zM264 1610v256h250v-256h-250zM598 1610v256h252v-256h-252z" />
<glyph unicode="&#x2c6;" horiz-adv-x="1024" d="M233 1206l195 361h170l190 -361h-143l-133 213l-131 -213h-148z" />
<glyph unicode="&#x2dc;" horiz-adv-x="1024" d="M211 1290q23 88 73 136.5t117 48.5q59 0 134 -32t96 -32q47 0 88 72l94 -41q-49 -190 -174 -191q-61 0 -136 31t-95 31q-51 0 -89 -70z" />
<glyph unicode="&#x2013;" horiz-adv-x="1024" d="M0 498v207h1024v-207h-1024z" />
<glyph unicode="&#x2014;" horiz-adv-x="2048" d="M0 498v207h2046v-207h-2046z" />
<glyph unicode="&#x2018;" horiz-adv-x="432" d="M59 961l160 530l176 -27l-71 -503h-265z" />
<glyph unicode="&#x2019;" horiz-adv-x="432" d="M57 971l72 504h264l-160 -531z" />
<glyph unicode="&#x201a;" horiz-adv-x="432" d="M37 -209l72 504h264l-160 -531z" />
<glyph unicode="&#x201c;" horiz-adv-x="782" d="M109 961l159 530l176 -27l-63 -440l141 467l176 -27l-71 -503h-518z" />
<glyph unicode="&#x201d;" horiz-adv-x="782" d="M106 971l72 504h518l-159 -531l-177 27l62 438l-139 -465z" />
<glyph unicode="&#x201e;" horiz-adv-x="782" d="M84 -209l72 504h518l-160 -531l-176 27l61 438l-139 -465z" />
<glyph unicode="&#x2022;" horiz-adv-x="798" />
<glyph unicode="&#x2026;" horiz-adv-x="1484" d="M86 0v293h254v-293h-254zM616 0v293h252v-293h-252zM1147 0v293h252v-293h-252z" />
<glyph unicode="&#x2039;" horiz-adv-x="632" d="M66 547v16l253 441h261l-250 -449l250 -449h-261z" />
<glyph unicode="&#x203a;" horiz-adv-x="632" d="M55 106l250 449l-250 449h260l254 -441v-16l-254 -441h-260z" />
<glyph unicode="&#x20ac;" horiz-adv-x="1040" d="M-8 537v141h131v76v20h-131v141h137q23 309 150 449.5t372 140.5q90 0 198.5 -29.5t149.5 -62.5l-61 -248q-131 59 -248 60q-98 0 -149.5 -71t-65.5 -239h428l-33 -141h-401v-20v-76h383l-33 -141h-340q16 -152 66.5 -221.5t142.5 -69.5q96 0 268 78l66 -254 q-66 -41 -180.5 -72t-204.5 -31q-252 0 -366.5 136.5t-139.5 433.5h-139z" />
<glyph unicode="&#x2122;" horiz-adv-x="1771" d="M78 1292v181h981l151 -515l144 515h305v-889h-232l-2 512l-135 -492h-184l-148 461v-481h-217v708h-196v-708h-250v708h-217z" />
<glyph unicode="&#xe000;" horiz-adv-x="1100" d="M0 1100h1100v-1100h-1100v1100z" />
<glyph unicode="&#xfb01;" horiz-adv-x="1060" d="M14 874v177l101 41v100q0 184 97 266t284 82q115 0 221 -29.5t172 -70.5l-74 -205q-174 66 -278 65q-57 0 -89 -33.5t-32 -97.5v-69h551v-1100h-301v874h-250v-874h-301v874h-101z" />
<glyph unicode="&#xfb02;" horiz-adv-x="1089" d="M14 874v177l101 41v104q0 344 331 344q141 0 291 -39l258 23v-1524h-303v1272q-84 29 -170 28q-106 0 -106 -131v-69h172v-226h-172v-874h-301v874h-101z" />
<glyph unicode="&#xfb03;" horiz-adv-x="1794" d="M14 874v177l101 41v104q0 344 325 344q150 0 213 -39l-32 -217q-57 16 -103 16q-102 0 -102 -133v-67h207v-226h-207v-874h-301v874h-101zM666 874v177l100 41v104q0 344 326 344q150 0 213 -39l-33 -217q-57 16 -103 16q-102 0 -102 -133v-67h207v-226h-207v-874h-301 v874h-100zM1397 0v1100h303v-1100h-303zM1397 1225v254h303v-254h-303z" />
<glyph unicode="&#xfb04;" horiz-adv-x="1794" d="M14 874v177l101 41v104q0 344 325 344q150 0 213 -39l-32 -217q-57 16 -103 16q-102 0 -102 -133v-67h207v-226h-207v-874h-301v874h-101zM666 874v177l100 41v104q0 344 326 344q150 0 213 -39l-33 -217q-57 16 -103 16q-102 0 -102 -133v-67h207v-226h-207v-874h-301 v874h-100zM1397 0v1495l303 31v-1526h-303z" />
<glyph horiz-adv-x="0" />
</font>
</defs>
</svg>
