<?xml version="1.0" standalone="no"?>
<!DOCTYPE svg PUBLIC "-//W3C//DTD SVG 1.1//EN" "http://www.w3.org/Graphics/SVG/1.1/DTD/svg11.dtd" >
<svg xmlns="http://www.w3.org/2000/svg">
<metadata>
This is a custom SVG webfont generated by Font Squirrel.
Copyright   : Copyright c 2007 by Leftloft  Molotro All rights reserved
Designer    : Leftloft  Molotro
Foundry     : Leftloft  Molotro
Foundry URL : httpwwwmolotrocom
</metadata>
<defs>
<font id="BreraCondensedLight" horiz-adv-x="1036" >
<font-face units-per-em="2048" ascent="1554" descent="-494" />
<missing-glyph horiz-adv-x="358" />
<glyph unicode=" "  horiz-adv-x="358" />
<glyph unicode="&#x09;" horiz-adv-x="358" />
<glyph unicode="&#xa0;" horiz-adv-x="358" />
<glyph unicode="!" horiz-adv-x="479" d="M160 0h157v213h-157v-213zM162 817v637h155v-637l-14 -461h-125z" />
<glyph unicode="&#x22;" horiz-adv-x="602" d="M106 1464h148l-31 -415h-86zM352 1464h148l-31 -415h-86z" />
<glyph unicode="#" horiz-adv-x="1531" d="M109 442l24 109h275l73 342h-272l24 108h279l102 441h129l-98 -441h371l102 441h131l-98 -441h274l-26 -108h-279l-73 -342h276l-25 -109h-284l-99 -442h-131l97 442h-371l-98 -442h-131l96 442h-268zM539 551h372l78 342h-375z" />
<glyph unicode="$" horiz-adv-x="1032" d="M111 145l61 123q213 -131 373 -131q115 0 172 62.5t57 173.5q0 100 -63.5 157.5t-227.5 141.5q-88 43 -135 70.5t-106.5 74.5t-86 103.5t-26.5 128.5q0 145 87 246.5t230 121.5v160h144v-162q162 -20 323 -115l-65 -122q-176 106 -340 106q-102 0 -167 -58.5t-65 -168.5 q0 -41 13.5 -71t49.5 -57.5t66.5 -45t98.5 -50.5l110 -57q160 -84 237 -172t77 -217q0 -168 -93.5 -268.5t-242.5 -114.5v-178h-143v182q-182 26 -338 137z" />
<glyph unicode="%" horiz-adv-x="1687" d="M78 1079q0 -397 321 -397q168 0 248 104.5t80 293t-81 300t-247 111.5t-243.5 -111t-77.5 -301zM221 1079q0 293 178 293q186 0 187 -293q0 -281 -187 -280q-178 -1 -178 280zM430 -2l682 1493h148l-682 -1493h-148zM969 375q0 -397 321 -398q328 0 328 398 q0 186 -81 298.5t-247 112.5t-243.5 -111.5t-77.5 -299.5zM1112 375q0 293 178 293q184 0 185 -293q0 -281 -185 -281q-178 0 -178 281z" />
<glyph unicode="&#x26;" horiz-adv-x="1228" d="M74 324q0 135 92 240.5t287 226.5q-94 125 -138.5 208.5t-44.5 171.5q0 117 86 196t226 79q156 0 233.5 -80t77.5 -192q0 -115 -68.5 -207.5t-206.5 -194.5l302 -426q74 88 139 205l117 -64q-59 -109 -177 -245l179 -244h-164l-109 149q-193 -174 -434 -174 q-166 0 -281.5 96.5t-115.5 254.5zM219 346q0 -115 80 -181.5t197 -66.5q90 0 164.5 36t173.5 118l-320 448q-90 -61 -144.5 -105t-102.5 -112.5t-48 -136.5zM414 1147q0 -43 22.5 -97.5t47 -92t73.5 -105.5q190 147 191 305q0 178 -168 178q-80 0 -123 -54t-43 -134z" />
<glyph unicode="'" horiz-adv-x="344" d="M98 1464h148l-31 -415h-86z" />
<glyph unicode="(" horiz-adv-x="661" d="M154 659q4 512 272 881l115 -33q-240 -385 -240 -878v-17q6 -483 240 -876l-115 -37q-273 403 -273 937q1 11 1 23z" />
<glyph unicode=")" horiz-adv-x="661" d="M121 -264q233 391 237 876q0 12 1 25q0 493 -238 870l115 33q266 -365 272 -881v-23q0 -534 -272 -937z" />
<glyph unicode="*" horiz-adv-x="1032" d="M143 983l293 78l-235 199l75 79l218 -209l51 291l114 -24l-75 -283l278 100l39 -104l-291 -86l234 -199l-82 -77l-211 210l-51 -294l-115 24l76 289l-279 -103z" />
<glyph unicode="+" horiz-adv-x="1032" d="M176 555v119h344v368h125v-368h344v-119h-344v-371h-125v371h-344z" />
<glyph unicode="," horiz-adv-x="339" d="M47 -184l59 389h154l-121 -412z" />
<glyph unicode="-" horiz-adv-x="954" d="M178 555v119h578v-119h-578z" />
<glyph unicode="." horiz-adv-x="354" d="M106 0v205h148v-205h-148z" />
<glyph unicode="/" horiz-adv-x="813" d="M160 0l319 1464h150l-320 -1464h-149z" />
<glyph unicode="0" d="M72 717q0 729 448 729q442 0 443 -729q0 -739 -443 -740q-127 0 -217 60.5t-139 168t-70.5 232.5t-21.5 279zM225 717q0 -616 295 -617q90 0 150.5 52.5t89 147.5t40 193.5t11.5 223.5t-11.5 221t-40 189.5t-89 144.5t-150.5 51q-295 0 -295 -606z" />
<glyph unicode="1" d="M221 1188q90 43 181.5 107.5t146.5 129.5h102v-1312l117 10h86v-123h-569v121h102l121 -8v798l2 320q-86 -88 -248 -156z" />
<glyph unicode="2" d="M133 1239q63 80 174 143.5t228 63.5q172 0 275 -100.5t103 -274.5q0 -121 -63.5 -240.5t-179.5 -263.5l-344 -448l233 10h369v-129h-772v113l376 497q121 154 175.5 252.5t54.5 202.5q0 121 -64.5 184.5t-179.5 63.5q-145 0 -309 -172z" />
<glyph unicode="3" d="M102 90l48 111q162 -98 333 -99q143 0 226.5 82t83.5 217q0 137 -93.5 207t-244.5 72q-84 -20 -127 -27l-19 115q176 18 299 99t123 216q0 113 -69.5 174.5t-186.5 61.5q-145 0 -301 -96l-47 104q47 43 157.5 81t213.5 38q168 0 276.5 -90t108.5 -258q0 -109 -70 -202 t-184 -142v-4q147 -18 232 -112.5t85 -242.5q0 -186 -122 -304t-330 -118q-109 0 -216.5 35t-175.5 82z" />
<glyph unicode="4" d="M70 240v112l487 1073h150l-369 -817l-133 -243h465l2 487l131 14v-501h172l-12 -125h-160v-263l-133 -12v275h-600z" />
<glyph unicode="5" d="M98 104l62 111q143 -111 317 -111q147 0 229 104.5t82 254.5q0 147 -70.5 234t-195.5 87q-143 0 -246 -102l-120 12l59 731h672l-13 -125h-536l-49 -487h8q102 96 258 96q180 0 282.5 -123.5t102.5 -318.5q0 -217 -129 -355.5t-330 -138.5q-219 0 -383 131z" />
<glyph unicode="6" d="M82 631q0 238 47 414t162 288.5t289 112.5q104 0 195 -36t143 -85l-58 -100q-137 94 -268 94q-342 0 -356 -584q131 174 327 174q178 0 277.5 -115.5t99.5 -308.5q0 -236 -115.5 -373t-314.5 -137q-213 0 -320.5 182.5t-107.5 473.5zM233 612q0 -141 25 -249.5 t91.5 -185.5t168.5 -77q129 0 201 104.5t72 282.5q0 143 -64.5 225.5t-196.5 82.5q-176 -1 -297 -183z" />
<glyph unicode="7" d="M147 1292v133h795v-127q-469 -676 -475 -1298h-160q4 324 141.5 668t339.5 612v12h-641z" />
<glyph unicode="8" d="M68 365q0 135 76.5 237.5t201.5 155.5v4q-104 47 -168.5 132t-64.5 193q0 162 116.5 260.5t288.5 98.5t289 -95.5t117 -254.5q0 -242 -238 -342v-6q281 -113 281 -361q0 -178 -121 -295t-330 -117q-207 0 -327.5 108t-120.5 282zM215 375q0 -119 84 -198t219 -79 q133 0 217 84t84 209q0 231 -352 314q-115 -35 -183.5 -124t-68.5 -206zM258 1087q0 -221 317 -290q92 37 148.5 113.5t56.5 179.5q0 115 -74.5 177t-189.5 62q-113 0 -185.5 -63.5t-72.5 -178.5z" />
<glyph unicode="9" d="M123 936q0 236 115.5 373t314.5 137q213 0 320.5 -182.5t107.5 -472.5q0 -238 -47 -414t-162 -289t-289 -113q-104 0 -195 36t-143 85l58 101q137 -94 268 -95q342 0 356 584q-131 -174 -327 -174q-178 0 -277.5 115.5t-99.5 308.5zM272 934q0 -143 64.5 -225t195.5 -82 q176 0 297 182q0 141 -24.5 249.5t-91 185.5t-168.5 77q-129 0 -201 -104.5t-72 -282.5z" />
<glyph unicode=":" horiz-adv-x="356" d="M106 0v205h148v-205h-148zM106 705v204h148v-204h-148z" />
<glyph unicode=";" horiz-adv-x="354" d="M47 -184l59 389h154l-121 -412zM111 705v204h147v-204h-147z" />
<glyph unicode="&#x3c;" horiz-adv-x="1032" d="M63 625v88l885 516v-146l-735 -415l735 -424v-146z" />
<glyph unicode="=" horiz-adv-x="1032" d="M90 326v129h860v-129h-860zM90 766v131h860v-131h-860z" />
<glyph unicode="&#x3e;" horiz-adv-x="1032" d="M84 98v146l735 424l-735 415v146l885 -516v-88z" />
<glyph unicode="?" horiz-adv-x="942" d="M72 1288q57 61 155.5 113.5t214.5 52.5q180 0 288 -98.5t108 -276.5q0 -84 -39 -155.5t-96 -122.5l-111 -98q-55 -46 -94 -102t-39 -116q0 -49 10 -110h-131q-18 84 -19 141q0 72 37 134.5t90 108.5l107 90q53 44 90 101.5t37 122.5q0 121 -63.5 184.5t-182.5 63.5 q-147 0 -291 -133zM319 0h156v205h-156v-205z" />
<glyph unicode="@" horiz-adv-x="1826" d="M68 428q0 285 133 508t352 341t481 118q338 0 531.5 -195.5t193.5 -531.5q0 -281 -121.5 -464.5t-296.5 -183.5q-106 0 -170.5 71t-72.5 157q-102 -231 -305 -232q-127 0 -205 89.5t-78 279.5q0 268 127 452.5t340 184.5q123 0 197 -88l28 65h103l-103 -632 q-5 -28 -5 -55q0 -59 25 -110q36 -75 130 -75q109 0 193.5 151.5t84.5 387.5q0 291 -154.5 451.5t-455.5 160.5q-156 0 -304.5 -61.5t-262 -170t-183 -270.5t-69.5 -348q0 -180 49 -318.5t133 -216t184.5 -116.5t214.5 -39q207 0 426 92v-123q-244 -84 -436 -84 q-139 0 -261 46t-223.5 139.5t-160.5 253t-59 366.5zM651 387q0 -262 168 -262q66 0 123 53t85 105.5t40 95.5l78 469q-18 29 -66.5 48t-99.5 19q-145 0 -236.5 -151.5t-91.5 -376.5z" />
<glyph unicode="A" horiz-adv-x="1091" d="M27 0l426 1464h190l422 -1464h-162l-106 381h-502l-109 -381h-159zM322 502h446l-158 594l-55 233h-10q-41 -176 -58 -233z" />
<glyph unicode="B" horiz-adv-x="1118" d="M152 0v1464h409q201 0 317.5 -95t116.5 -288q0 -111 -58 -193.5t-163 -121.5v-4q121 -33 192.5 -123t71.5 -229q0 -199 -123.5 -304.5t-334.5 -105.5h-428zM303 129h248q156 0 242 72.5t86 220.5q0 158 -95.5 216t-255.5 58h-225v-567zM303 811h244q131 0 211 69.5 t80 192.5q0 262 -299 262h-236v-524z" />
<glyph unicode="C" horiz-adv-x="1013" d="M90 750q0 338 123 539.5t383 201.5q94 0 190.5 -30.5t147.5 -74.5l-43 -112q-139 82 -287 82q-186 0 -270 -167t-84 -439q0 -647 356 -648q152 0 297 99l47 -113q-61 -53 -159.5 -87t-198.5 -34q-147 0 -248.5 61.5t-155 175t-76 245t-22.5 301.5z" />
<glyph unicode="D" horiz-adv-x="1187" d="M152 0v1464h354q305 0 447.5 -189.5t142.5 -526.5q0 -342 -144.5 -545t-445.5 -203h-354zM303 131h199q434 0 434 617q0 283 -100.5 435t-333.5 152h-199v-1204z" />
<glyph unicode="E" horiz-adv-x="954" d="M152 0v1464h708l-12 -129h-545v-522h490v-121h-490v-561h571v-131h-722z" />
<glyph unicode="F" horiz-adv-x="913" d="M152 0v1464h708l-12 -129h-543v-553h483v-125h-483v-657h-153z" />
<glyph unicode="G" horiz-adv-x="1148" d="M90 735q0 334 135 545t400 211q125 0 233.5 -35t163.5 -82l-39 -114q-180 96 -350 96q-131 0 -219 -89t-126 -224.5t-38 -307.5q0 -178 36 -314t123 -227.5t220 -91.5q160 0 274 64v430h-256l2 117h391v-635q-178 -111 -415 -111q-186 0 -309 104.5t-174.5 271.5 t-51.5 392z" />
<glyph unicode="H" horiz-adv-x="1175" d="M152 0v1464h151v-641h569v641h152v-1464h-152v694h-569v-694h-151z" />
<glyph unicode="I" horiz-adv-x="454" d="M152 0v1464h151v-1464h-151z" />
<glyph unicode="J" horiz-adv-x="598" d="M18 -12l17 127q49 -14 102 -15q104 0 142 72t38 234v1058h154v-1036q0 -233 -61.5 -346t-245.5 -113q-64 1 -146 19z" />
<glyph unicode="K" horiz-adv-x="1060" d="M152 0v1464h151v-1464h-151zM336 737v15l479 712h172l-489 -716l506 -748h-177z" />
<glyph unicode="L" horiz-adv-x="909" d="M152 0v1464h151v-1337h559l-12 -127h-698z" />
<glyph unicode="M" horiz-adv-x="1484" d="M152 0v1464h208l402 -1192h6l365 1192h202v-1464h-145v1233h-6l-357 -1178h-133l-393 1178h-6v-1233h-143z" />
<glyph unicode="N" horiz-adv-x="1234" d="M152 0v1464h200l584 -1243h10l-10 1243h147l2 -1464h-196l-588 1253h-10l10 -1253h-149z" />
<glyph unicode="O" horiz-adv-x="1222" d="M90 729q0 160 27.5 293t87 240.5t164 168t246 60.5t245 -60.5t161.5 -169t85 -239.5t27 -293t-27 -294t-85 -240.5t-161.5 -168t-245 -59.5t-246 59.5t-164 167t-87 239.5t-27.5 296zM252 729q0 -627 362 -627q356 0 356.5 627t-356.5 627q-193 0 -277.5 -173t-84.5 -454 z" />
<glyph unicode="P" horiz-adv-x="1048" d="M152 0v1464h292q266 0 405.5 -105.5t139.5 -352.5q0 -481 -514 -482h-172v-524h-151zM303 649h162q188 0 277 84t89 273q0 180 -95 255.5t-273 75.5h-160v-688z" />
<glyph unicode="Q" horiz-adv-x="1222" d="M90 739.5q0 161.5 27.5 292.5t86 236.5t163 164t248 58.5t247 -58.5t160.5 -165t84 -236.5t27 -292q0 -602 -310 -727l252 -186l-121 -92l-262 241q-33 -8 -78 -8q-143 0 -247.5 61.5t-163 172t-86 244t-27.5 295zM252 739q0 -637 362 -637q356 0 357 637 q0 139 -17.5 246t-56.5 193t-110.5 132t-172.5 46q-362 -1 -362 -617z" />
<glyph unicode="R" horiz-adv-x="1060" d="M152 0v1464h327q508 0 508 -430q0 -156 -70.5 -264t-199.5 -152l100 -200l176 -418h-162l-253 590q-41 -4 -275 -4v-586h-151zM303 702h221q145 0 225 87.5t80 238.5q0 162 -83.5 236.5t-253.5 74.5h-189v-637z" />
<glyph unicode="S" horiz-adv-x="985" d="M72 113l63 123q195 -133 375 -134q115 0 181.5 71t66.5 187q0 106 -67.5 167t-239.5 151q-193 100 -278 187t-85 239q0 166 113.5 276.5t283.5 110.5q117 0 233 -40t179 -89l-66 -121q-178 115 -350 115q-104 0 -171.5 -61.5t-67.5 -182.5q0 -33 6 -59.5t26.5 -52t35 -42 t53 -42t59.5 -36.5l78 -42l82 -45q172 -94 250.5 -182.5t78.5 -233.5q0 -190 -115.5 -300t-289.5 -110q-121 0 -238.5 43.5t-195.5 102.5z" />
<glyph unicode="T" horiz-adv-x="978" d="M49 1337v127h881v-127h-355v-1337h-151v1337h-375z" />
<glyph unicode="U" horiz-adv-x="1130" d="M127 475v989h149v-993q0 -362 289 -362q287 0 287 378v977h152v-975q0 -240 -106.5 -376t-332.5 -136q-438 0 -438 498z" />
<glyph unicode="V" horiz-adv-x="997" d="M27 1464h163q139 -694 308 -1323h8q160 598 305 1323h160q-197 -885 -369 -1464h-209q-192 661 -366 1464z" />
<glyph unicode="W" horiz-adv-x="1486" d="M27 1464h155q131 -795 252 -1321h8q195 737 252 1037l-61 284h153q166 -903 267 -1321h6q133 580 248 1321h153q-45 -283 -138 -726t-169 -738h-192q-121 479 -203 909h-8q-23 -119 -102 -430t-128 -479h-188q-174 723 -305 1464z" />
<glyph unicode="X" horiz-adv-x="1032" d="M27 0q4 10 397 739q-23 37 -192 362.5t-185 362.5h166l307 -604h8l299 604h160q-14 -35 -182 -358.5t-195 -368.5q25 -43 202 -372.5t194 -364.5h-164l-326 623h-8l-320 -623h-161z" />
<glyph unicode="Y" horiz-adv-x="989" d="M27 1464h159l303 -694h9l305 694h162l-394 -829v-635h-153v635z" />
<glyph unicode="Z" horiz-adv-x="923" d="M27 0v119l690 1216h-651v129h823v-114l-694 -1219h700v-131h-868z" />
<glyph unicode="[" horiz-adv-x="643" d="M182 -307v1966h389v-127h-247v-1712h247v-127h-389z" />
<glyph unicode="\" horiz-adv-x="813" d="M178 1464h150l319 -1464h-149z" />
<glyph unicode="]" horiz-adv-x="659" d="M72 -180h247v1712h-247v127h389v-1966h-389v127z" />
<glyph unicode="^" horiz-adv-x="1032" d="M39 874l401 723h144l411 -723h-157l-326 596l-315 -596h-158z" />
<glyph unicode="_" horiz-adv-x="1024" d="M0 -164h1024v-76h-1024v76z" />
<glyph unicode="`" horiz-adv-x="1024" d="M332 1493l164 35l196 -322h-94z" />
<glyph unicode="a" horiz-adv-x="935" d="M61 281q0 104 43 174.5t129 108.5t185.5 55.5t243.5 25.5v103q0 117 -49.5 172t-155.5 55q-135 0 -332 -90l-39 112q55 35 175 68t210 33q332 0 332 -338v-496q0 -80 18 -260l-129 -12q-20 88 -24 186q-55 -86 -137 -143.5t-175 -57.5q-135 0 -215 82.5t-80 221.5z M207 297q0 -94 47 -150.5t133 -56.5q152 0 275 217v238q-100 -4 -172 -14.5t-141.5 -36t-105.5 -74.5t-36 -123z" />
<glyph unicode="b" horiz-adv-x="980" d="M133 27v1466l143 18v-401l-10 -170q139 158 275 158q373 0 372 -531q0 -295 -105.5 -442.5t-344.5 -147.5q-119 1 -330 50zM276 121q111 -27 183 -27q170 0 236.5 115t66.5 354q0 199 -57.5 305.5t-190.5 106.5q-59 0 -125.5 -47t-112.5 -109v-698z" />
<glyph unicode="c" horiz-adv-x="780" d="M68 537q0 268 89 414.5t302 146.5q78 0 159.5 -24.5t114.5 -53.5l-43 -109q-113 61 -219 62q-254 0 -254 -436q0 -203 55.5 -319t196.5 -116q111 0 225 60l43 -107q-41 -29 -126 -53.5t-154 -24.5q-213 0 -301 145t-88 415z" />
<glyph unicode="d" horiz-adv-x="980" d="M68 545q0 252 102 402.5t293 150.5q129 0 254 -88l-12 151v332l143 18v-1511h-125l-8 158q-98 -180 -283 -181q-190 0 -277 154t-87 414zM217 545q0 -444 240 -445q86 0 154.5 60.5t93.5 150.5v584q-92 84 -213 84q-137 0 -206 -116.5t-69 -317.5z" />
<glyph unicode="e" horiz-adv-x="913" d="M68 535q0 264 98 413.5t303 149.5q377 0 377 -451q0 -104 -10 -155h-619q4 -393 287 -394q139 0 287 76l40 -113q-147 -84 -342 -84q-421 1 -421 558zM217 596l481 2q2 16 2 59q0 156 -50 240t-181 84q-248 0 -252 -385z" />
<glyph unicode="f" horiz-adv-x="577" d="M39 958v91l102 22v119q0 338 271 338q115 0 178 -37l-25 -111q-59 27 -131 27q-86 0 -118.5 -56.5t-32.5 -172.5v-105h260v-115h-260v-958h-142v958h-102z" />
<glyph unicode="g" horiz-adv-x="956" d="M45 -131q0 166 193 254q-80 41 -80 110q0 74 96 127q-178 96 -178 345q0 180 97 286.5t267 106.5q154 0 252 -94l211 86l27 -125l-178 -47q59 -92 59 -213q0 -186 -94 -287t-273 -101q-41 0 -102 13q-55 -23 -55 -72q0 -31 53 -46t229 -30q178 -14 264.5 -79.5 t86.5 -204.5q0 -158 -131.5 -240t-331.5 -82q-184 0 -298 75t-114 218zM180 -117q0 -96 76 -146t199 -50q143 0 231 49t88 143t-56 135t-194 56q-104 8 -186 20q-68 -31 -113 -86t-45 -121zM221 707q0 -281 219 -281q119 0 171.5 71.5t52.5 209.5q0 129 -55.5 203.5 t-168.5 74.5q-109 0 -164 -75.5t-55 -202.5z" />
<glyph unicode="h" horiz-adv-x="993" d="M133 0v1493l143 18v-346l-10 -252q143 184 307 185q299 0 299 -365v-733h-141v733q0 123 -43 182.5t-149 59.5q-137 0 -263 -191v-784h-143z" />
<glyph unicode="i" horiz-adv-x="409" d="M129 1262v190h154v-190h-154zM133 0v1073h143v-1073h-143z" />
<glyph unicode="j" horiz-adv-x="409" d="M-43 -340q102 88 139 173t37 204v1036h143v-1032q0 -154 -52 -263.5t-171 -205.5zM127 1262v190h154v-190h-154z" />
<glyph unicode="k" horiz-adv-x="876" d="M133 0v1493l143 18v-1511h-143zM322 580v14l346 479h172l-363 -477l391 -596h-168z" />
<glyph unicode="l" horiz-adv-x="409" d="M133 0v1493l143 18v-1511h-143z" />
<glyph unicode="m" horiz-adv-x="1501" d="M133 0v1073h143l-8 -153q141 178 291 178q193 0 252 -174q139 174 293 174q279 0 278 -355v-743h-143v735q0 240 -164 240q-133 0 -239 -164v-811h-142v731q0 244 -164 244q-121 0 -254 -180v-795h-143z" />
<glyph unicode="n" horiz-adv-x="991" d="M133 0v1073h143l-10 -170q133 195 312 195q293 0 292 -357v-741h-141v719q0 256 -178 256q-82 0 -153.5 -57.5t-121.5 -145.5v-772h-143z" />
<glyph unicode="o" horiz-adv-x="962" d="M68 530q0 567 411 568q215 0 315.5 -152.5t100.5 -415.5q0 -256 -100.5 -404.5t-315.5 -148.5t-313 148.5t-98 404.5zM217 530q0 -434 262 -434q266 0 266 434q0 449 -266 449q-262 0 -262 -449z" />
<glyph unicode="p" horiz-adv-x="980" d="M133 1073h143l-14 -174l2 -2q45 86 121 143.5t168 57.5q360 0 360 -547q0 -262 -99 -418t-296 -156q-131 0 -254 89l12 -138v-338l-143 -12v1495zM276 180q94 -84 209 -84q139 0 209 121t70 334q0 424 -242 424q-78 0 -144.5 -61.5t-101.5 -147.5v-586z" />
<glyph unicode="q" horiz-adv-x="980" d="M68 545q0 143 36.5 263t128 205t226.5 85q158 0 258 -97h2l8 72h121v-1483l-143 -12v379l10 186q-109 -166 -264 -166q-383 1 -383 568zM217 543q0 -207 56.5 -326t205.5 -119q59 0 125 53.5t101 122.5v611q-98 94 -220 94q-133 0 -200.5 -116.5t-67.5 -319.5z" />
<glyph unicode="r" horiz-adv-x="616" d="M133 0v1073h139l-12 -244l4 -2q29 117 99.5 194t164.5 77q41 0 68 -13l-14 -147q-29 12 -66 12q-92 0 -166 -95t-74 -210v-645h-143z" />
<glyph unicode="s" horiz-adv-x="794" d="M53 82l49 111q168 -94 291 -95q82 0 140.5 50.5t58.5 127.5q0 86 -51.5 126t-184.5 90q-135 49 -203.5 116.5t-68.5 190.5q0 135 92 217t234 82q86 0 181 -29t136 -63l-41 -107q-143 78 -270 78q-80 0 -134.5 -48t-54.5 -122t51.5 -115t172.5 -86q152 -55 219 -119.5 t67 -199.5q0 -143 -95 -226.5t-243 -83.5q-92 0 -196.5 35t-149.5 70z" />
<glyph unicode="t" horiz-adv-x="585" d="M25 958v91l118 22v264l142 23v-285h237v-115h-237v-688q0 -92 21.5 -132t76.5 -40q66 0 145 27l21 -111q-88 -37 -197 -37q-115 0 -162 68t-47 213v700h-118z" />
<glyph unicode="u" horiz-adv-x="993" d="M121 346v727h143v-719q0 -256 191 -256q72 0 145.5 58.5t116.5 138.5v778h143v-1073h-125l-12 160q-133 -182 -309 -183q-293 0 -293 369z" />
<glyph unicode="v" horiz-adv-x="843" d="M33 1073h155q129 -598 230 -942h8q119 397 229 942h156q-145 -651 -293 -1073h-192q-137 397 -293 1073z" />
<glyph unicode="w" horiz-adv-x="1302" d="M33 1073h151q115 -647 193 -944h10q41 121 107.5 367.5t93.5 367.5l-43 209h149q129 -600 224 -944h10q39 133 190 944h152q-143 -737 -246 -1073h-188q-90 283 -187 694q-63 -309 -188 -694h-185q-120 414 -243 1073z" />
<glyph unicode="x" horiz-adv-x="813" d="M33 0q133 268 289 543q-113 201 -279 530h162l211 -438l202 438h158l-280 -528q137 -242 284 -545h-159l-220 442l-215 -442h-153z" />
<glyph unicode="y" horiz-adv-x="872" d="M43 -395l27 112q68 -23 120 -22q82 0 131.5 72.5t90.5 232.5h-64q-100 297 -291 1073h156q121 -557 231 -946h11q98 346 229 946h156q-141 -614 -287 -1073q-72 -227 -145.5 -326.5t-210.5 -99.5q-35 0 -85.5 9.5t-68.5 21.5z" />
<glyph unicode="z" horiz-adv-x="757" d="M45 0v111l492 843h-474v119h642v-108l-494 -846h502v-119h-668z" />
<glyph unicode="{" horiz-adv-x="659" d="M23 604v148l22 6q23 6 40 13t43 24.5t42 41t29.5 64.5t13.5 92v226q0 233 85 336.5t304 103.5h35v-119h-35q-158 0 -210 -73.5t-52 -254.5v-239q0 -121 -53.5 -198t-149.5 -99q96 -25 149.5 -98.5t53.5 -194.5v-244q0 -180 52 -251.5t210 -71.5h35v-123h-35 q-219 0 -304 103.5t-85 336.5v229q0 51 -13.5 92.5t-29.5 65t-42 41t-43 24.5t-40 13z" />
<glyph unicode="|" horiz-adv-x="1024" d="M436 -530v2048h152v-2048h-152z" />
<glyph unicode="}" horiz-adv-x="659" d="M23 -184h34q158 0 210 71.5t52 251.5v244q0 121 53.5 194.5t149.5 98.5q-96 23 -149.5 99.5t-53.5 197.5v239q0 180 -52 254t-210 74h-34v119h34q219 0 304 -103.5t85 -336.5v-226q0 -51 13.5 -92t30 -64.5t42 -41t43 -24.5t39.5 -13l23 -6v-148l-23 -6q-23 -6 -40 -13 t-42.5 -24.5t-42 -41t-30 -64.5t-13.5 -93v-229q0 -233 -85 -336.5t-304 -103.5h-34v123z" />
<glyph unicode="~" horiz-adv-x="1032" d="M76 487q70 199 243 199q66 0 203 -60.5t193 -62.5q80 0 139 121l100 -35q-68 -205 -233 -205q-70 0 -202 60.5t-197 60.5q-86 0 -140 -116z" />
<glyph unicode="&#xa1;" horiz-adv-x="483" d="M162 1241v213h157v-213h-157zM164 0h155v637l-14 461h-125l-16 -461v-637z" />
<glyph unicode="&#xa2;" d="M199 735q0 492 297 549v180h129l-2 -172q74 -4 143.5 -26.5t97.5 -48.5l-43 -109q-106 61 -219 61q-254 0 -254 -434q0 -205 55.5 -319.5t196.5 -114.5q111 0 225 59l43 -108q-92 -63 -245 -78l2 -174h-129v182q-297 55 -297 553z" />
<glyph unicode="&#xa3;" d="M115 0v119h145v629h-145v90l145 24v187q0 207 84 306t279 99q160 0 299 -90q-6 -12 -22.5 -51t-27.5 -58q-115 72 -247 72q-223 0 -224 -278v-187h416l-20 -114h-396v-629h519v-119h-805z" />
<glyph unicode="&#xa5;" d="M63 1438h162l289 -668h8l291 668h162l-328 -690h275v-117h-328v-187h328v-118h-328v-326h-154v326h-323v118h323v187h-323v117h270z" />
<glyph unicode="&#xa6;" horiz-adv-x="1024" d="M440 270h144v-798h-144v798zM440 717v799h144v-799h-144z" />
<glyph unicode="&#xa7;" d="M84 -295l61 117q211 -127 375 -127q117 0 182.5 67.5t65.5 180.5q0 104 -69.5 159.5t-237.5 120.5q-195 74 -276 158t-81 227q0 74 43 138.5t115 107.5q-145 104 -145 266q0 160 111.5 265.5t281.5 105.5q195 0 412 -125l-66 -115q-195 111 -350 111q-106 0 -173 -59.5 t-67 -174.5q0 -98 78 -156.5t262 -125.5q178 -68 260 -157t82 -232q0 -150 -139 -252q113 -98 113 -246q0 -190 -115 -291.5t-289 -101.5q-219 0 -434 139zM254 616q0 -96 62.5 -149t234.5 -119q92 -35 141 -63q102 53 103 155q0 96 -60.5 156.5t-193.5 114.5 q-131 49 -164 65q-123 -54 -123 -160z" />
<glyph unicode="&#xa8;" horiz-adv-x="1024" d="M326 1264v194h133v-194h-133zM563 1264v194h135v-194h-135z" />
<glyph unicode="&#xa9;" horiz-adv-x="1660" d="M70 727q0 315 222 537.5t537.5 222.5t538.5 -222.5t223 -537.5t-223 -537.5t-538.5 -222.5t-537.5 222.5t-222 537.5zM182 727q0 -270 188.5 -457.5t458.5 -187.5q268 0 458 188.5t190 456.5q0 266 -189.5 455.5t-458 189.5t-458 -188.5t-189.5 -456.5zM514 725 q0 -393 320 -393q125 0 225 67l-41 86q-90 -53 -176 -53q-207 0 -207 293q0 123 50 198.5t155 75.5q80 0 174 -45l35 86q-88 59 -215 60q-160 0 -240 -102.5t-80 -272.5z" />
<glyph unicode="&#xaa;" horiz-adv-x="843" d="M88 967q0 131 112.5 183t325.5 62v60q0 137 -151 137q-86 0 -240 -61l-31 90q41 25 128 47t153 22q258 0 258 -229v-322q0 -88 14 -176l-104 -6q-6 16 -18 107q-39 -49 -101.5 -83t-126.5 -34q-100 0 -159.5 55.5t-59.5 147.5zM207 979q0 -125 121 -125q55 0 110.5 39 t87.5 96v139q-70 -2 -119 -8t-99 -21.5t-75.5 -45t-25.5 -74.5z" />
<glyph unicode="&#xab;" horiz-adv-x="999" d="M117 545v20l297 439h155l-307 -449l307 -449h-155zM475 545v20l295 439h156l-305 -449l305 -449h-156z" />
<glyph unicode="&#xad;" horiz-adv-x="954" d="M178 555v119h578v-119h-578z" />
<glyph unicode="&#xae;" horiz-adv-x="1660" d="M70 727q0 315 222 537.5t537.5 222.5t537.5 -222.5t222 -537.5t-222 -537.5t-537.5 -222.5t-537.5 222.5t-222 537.5zM182 727q0 -270 188.5 -458.5t459 -188.5t459 188.5t188.5 458.5q0 268 -188.5 457.5t-459.5 189.5q-268 0 -457.5 -189.5t-189.5 -457.5zM600 352h109 v285l137 2l145 -287h119l-111 219l-49 84q74 23 114 79.5t40 133.5q0 219 -303 219h-201v-735zM709 725v272h98q184 0 184 -133q0 -139 -164 -139h-118z" />
<glyph unicode="&#xaf;" horiz-adv-x="1024" d="M217 1321v80h590v-80h-590z" />
<glyph unicode="&#xb0;" horiz-adv-x="669" d="M80 1403q0 102 66.5 170.5t173 68.5t175 -68.5t68.5 -170.5q0 -98 -68.5 -165t-175 -67t-173 66t-66.5 166zM182 1403q0 -66 37 -103.5t100.5 -37.5t101.5 37.5t38 103t-38 107.5t-101.5 42t-100.5 -40.5t-37 -108.5z" />
<glyph unicode="&#xb1;" d="M111 2v115h815v-115h-815zM113 555v119h344v368h125v-368h344v-119h-344v-371h-125v371h-344z" />
<glyph unicode="&#xb2;" horiz-adv-x="892" d="M84 1348q45 55 134 99t175 44q127 0 208 -67.5t81 -184.5q0 -141 -176 -340l-260 -278l119 6h340v-99h-603v82l344 387q113 127 113 238q0 74 -48 114t-128 40q-117 0 -236 -115z" />
<glyph unicode="&#xb3;" horiz-adv-x="907" d="M92 594l41 86q115 -66 252 -66q100 0 158.5 52.5t58.5 134.5q0 86 -66.5 129t-168.5 47l-113 -19l-12 91q129 14 222 64t93 134q0 72 -49 108t-129 36q-109 0 -227 -64l-41 80q33 31 119.5 57.5t164.5 26.5q121 0 202 -60.5t81 -173.5q0 -145 -162 -223 q96 -18 151.5 -81.5t55.5 -155.5q0 -125 -89 -204t-241 -79q-80 0 -166 24.5t-135 55.5z" />
<glyph unicode="&#xb4;" horiz-adv-x="1024" d="M332 1206l196 322l164 -35l-266 -287h-94z" />
<glyph unicode="&#xb5;" horiz-adv-x="1009" d="M137 -422v1495h142v-721q0 -254 190 -254q74 0 147.5 58.5t116.5 138.5v778h144v-1073h-127l-13 158q-117 -166 -272 -172q-117 -6 -186 51v-445z" />
<glyph unicode="&#x3bc;" horiz-adv-x="1009" d="M137 -422v1495h142v-721q0 -254 190 -254q74 0 147.5 58.5t116.5 138.5v778h144v-1073h-127l-13 158q-117 -166 -272 -172q-117 -6 -186 51v-445z" />
<glyph unicode="&#xb6;" horiz-adv-x="1095" d="M90 1006q0 211 105.5 334.5t312.5 123.5h209v-1464h-119v524h-121q-199 0 -293 134.5t-94 347.5zM817 0v1464h127v-1464h-127z" />
<glyph unicode="&#xb7;" horiz-adv-x="520" d="M170 467v205h147v-205h-147z" />
<glyph unicode="&#xb8;" horiz-adv-x="1024" d="M121 -334h155q106 0 107 70q0 43 -29.5 57t-103.5 14h-72v193h82v-111q111 0 166 -33.5t55 -113.5q0 -90 -57 -126t-166 -36h-137v86z" />
<glyph unicode="&#xb9;" horiz-adv-x="774" d="M88 1296q176 74 252 160h84v-842l78 9h84v-95h-455v93h96l80 -7v494l4 199q-84 -59 -190 -97z" />
<glyph unicode="&#xba;" horiz-adv-x="876" d="M88 1130q0 377 297 377q156 0 229.5 -101t73.5 -276q0 -170 -72.5 -268t-230.5 -98q-297 -1 -297 366zM209 1130q0 -131 40 -202.5t136 -71.5q180 0 180 274q0 283 -180 283q-176 0 -176 -283z" />
<glyph unicode="&#xbb;" horiz-adv-x="999" d="M74 106l305 449l-305 449h155l295 -439v-20l-295 -439h-155zM430 106l307 449l-307 449h156l297 -439v-20l-297 -439h-156z" />
<glyph unicode="&#xbc;" horiz-adv-x="1902" d="M117 1296q176 74 252 160h84v-842l77 9h84v-95h-454v93h96l80 -7v494l4 199q-84 -59 -190 -97zM588 0l600 1464h117l-600 -1464h-117zM1096 156v82l348 706h121l-269 -545l-88 -149h316l2 319l104 9v-328h123l-8 -94h-115v-170l-106 -11v181h-428z" />
<glyph unicode="&#xbd;" horiz-adv-x="1910" d="M117 1296q176 74 252 160h84v-842l77 9h84v-95h-454v93h96l80 -7v494l4 199q-84 -59 -190 -97zM588 0l600 1464h117l-600 -1464h-117zM1200 819q45 55 134 99.5t175 44.5q127 0 208 -68t81 -184q0 -141 -176 -340l-260 -279l119 6h340v-98h-602v82l344 387 q113 127 112 238q0 74 -48 113.5t-128 39.5q-117 0 -235 -115z" />
<glyph unicode="&#xbe;" horiz-adv-x="1927" d="M129 594l41 86q115 -66 252 -66q100 0 158.5 52.5t58.5 134.5q0 86 -66.5 129t-169.5 47l-112 -19l-12 91q129 14 222 64t93 134q0 72 -49 108t-129 36q-109 0 -228 -64l-41 80q33 31 120 57.5t165 26.5q121 0 202 -60.5t81 -173.5q0 -145 -162 -223q96 -18 151.5 -81.5 t55.5 -155.5q0 -125 -89 -204t-241 -79q-80 0 -166 24.5t-135 55.5zM629 0l600 1464h117l-601 -1464h-116zM1137 156v86l350 702h123l-269 -545l-90 -147h312l4 317l104 9v-326h123l-8 -96h-115v-170l-108 -11v181h-426z" />
<glyph unicode="&#xbf;" horiz-adv-x="942" d="M104 375q0 84 39 155.5t96 122.5l111 98q55 46 94 102t39 116q0 49 -10 110h131q18 -84 19 -141q0 -72 -37 -134.5t-90 -108.5l-107 -90q-53 -44 -90 -101.5t-37 -122.5q0 -121 63.5 -184.5t182.5 -63.5q147 0 291 133l71 -100q-57 -61 -155.5 -113.5t-214.5 -52.5 q-180 0 -288 98.5t-108 276.5zM467 1249v205h156v-205h-156z" />
<glyph unicode="&#xc0;" horiz-adv-x="1091" d="M27 0l426 1464h190l422 -1464h-162l-106 381h-502l-109 -381h-159zM254 1884l164 35l196 -322h-94zM322 502h446l-158 594l-55 233h-10q-41 -176 -58 -233z" />
<glyph unicode="&#xc1;" horiz-adv-x="1091" d="M27 0l426 1464h190l422 -1464h-162l-106 381h-502l-109 -381h-159zM322 502h446l-158 594l-55 233h-10q-41 -176 -58 -233zM465 1597l197 322l163 -35l-266 -287h-94z" />
<glyph unicode="&#xc2;" horiz-adv-x="1091" d="M27 0l426 1464h190l422 -1464h-162l-106 381h-502l-109 -381h-159zM299 1597l186 322h123l187 -322h-84l-164 234l-164 -234h-84zM322 502h446l-158 594l-55 233h-10q-41 -176 -58 -233z" />
<glyph unicode="&#xc3;" horiz-adv-x="1091" d="M27 0l426 1464h190l422 -1464h-162l-106 381h-502l-109 -381h-159zM281 1700q41 133 155 133q47 0 135 -32t113 -32q51 0 90 62l55 -25q-43 -137 -143 -137q-51 0 -141 32t-111 32q-51 0 -92 -62zM322 502h446l-158 594l-55 233h-10q-41 -176 -58 -233z" />
<glyph unicode="&#xc4;" horiz-adv-x="1091" d="M27 0l426 1464h190l422 -1464h-162l-106 381h-502l-109 -381h-159zM322 502h446l-158 594l-55 233h-10q-41 -176 -58 -233zM356 1655v194h133v-194h-133zM594 1655v194h135v-194h-135z" />
<glyph unicode="&#xc5;" horiz-adv-x="1091" d="M27 0l426 1464h190l422 -1464h-162l-106 381h-502l-109 -381h-159zM322 502h446l-158 594l-55 233h-10q-41 -176 -58 -233zM375 1765q0 68 50 118t118 50q70 0 120 -50t50 -118q0 -72 -49.5 -120t-120.5 -48q-68 0 -118 49t-50 119zM455 1765.5q0 -36.5 26.5 -63.5 t61.5 -27q39 0 64.5 27t25.5 63.5t-25.5 63t-64.5 26.5q-37 0 -62.5 -26.5t-25.5 -63z" />
<glyph unicode="&#xc6;" horiz-adv-x="1562" d="M27 0l577 1464h864l-14 -131h-545v-506h490v-122h-490v-574h574v-131h-725v379h-420l-148 -379h-163zM379 502h379v835h-62z" />
<glyph unicode="&#xc7;" horiz-adv-x="1013" d="M90 750q0 338 123 539.5t383 201.5q94 0 190.5 -30.5t147.5 -74.5l-43 -112q-139 82 -287 82q-186 0 -270 -167t-84 -439q0 -647 356 -648q152 0 297 99l47 -113q-61 -53 -159.5 -87t-198.5 -34h-6v-78q111 0 166 -33.5t55 -113.5q0 -90 -57.5 -126t-165.5 -36h-138v86 h156q106 0 107 70q0 43 -30 57t-104 14h-71v166q-121 18 -204 86t-128 177.5t-63.5 233.5t-18.5 280z" />
<glyph unicode="&#xc8;" horiz-adv-x="954" d="M152 0v1464h708l-12 -129h-545v-522h490v-121h-490v-561h571v-131h-722zM297 1884l164 35l196 -322h-94z" />
<glyph unicode="&#xc9;" horiz-adv-x="954" d="M152 0v1464h708l-12 -129h-545v-522h490v-121h-490v-561h571v-131h-722zM381 1597l197 322l163 -35l-266 -287h-94z" />
<glyph unicode="&#xca;" horiz-adv-x="954" d="M152 0v1464h708l-12 -129h-545v-522h490v-121h-490v-561h571v-131h-722zM270 1597l187 322h123l186 -322h-84l-164 234l-164 -234h-84z" />
<glyph unicode="&#xcb;" horiz-adv-x="954" d="M152 0v1464h708l-12 -129h-545v-522h490v-121h-490v-561h571v-131h-722zM307 1655v194h133v-194h-133zM545 1655v194h135v-194h-135z" />
<glyph unicode="&#xcc;" horiz-adv-x="454" d="M-20 1884l163 35l197 -322h-94zM152 0v1464h151v-1464h-151z" />
<glyph unicode="&#xcd;" horiz-adv-x="454" d="M152 0v1464h151v-1464h-151zM156 1597l196 322l164 -35l-266 -287h-94z" />
<glyph unicode="&#xce;" horiz-adv-x="454" d="M-18 1597l186 322h123l186 -322h-84l-164 234l-163 -234h-84zM152 0v1464h151v-1464h-151z" />
<glyph unicode="&#xcf;" horiz-adv-x="454" d="M41 1655v194h133v-194h-133zM152 0v1464h151v-1464h-151zM279 1655v194h135v-194h-135z" />
<glyph unicode="&#xd0;" horiz-adv-x="1187" d="M-8 674v108h160v682h354q305 0 447.5 -189.5t142.5 -526.5q0 -342 -144.5 -545t-445.5 -203h-354v674h-160zM301 131h201q436 0 436 617q0 588 -436 587h-201v-553h291v-108h-291v-543z" />
<glyph unicode="&#xd1;" horiz-adv-x="1234" d="M152 0v1464h200l584 -1243h10l-10 1243h147l2 -1464h-196l-588 1253h-10l10 -1253h-149zM379 1700q41 133 156 133q47 0 135 -32t112 -32q51 0 90 62l56 -25q-43 -137 -144 -137q-51 0 -141 32t-111 32q-51 0 -92 -62z" />
<glyph unicode="&#xd2;" horiz-adv-x="1222" d="M90 729q0 160 27.5 293t87 240.5t164 168t246 60.5t245 -60.5t161.5 -169t85 -239.5t27 -293t-27 -294t-85 -240.5t-161.5 -168t-245 -59.5t-246 59.5t-164 167t-87 239.5t-27.5 296zM252 729q0 -627 362 -627q356 0 356.5 627t-356.5 627q-193 0 -277.5 -173t-84.5 -454 zM391 1884l164 35l197 -322h-95z" />
<glyph unicode="&#xd3;" horiz-adv-x="1222" d="M90 729q0 -164 27.5 -296t87 -239.5t164 -167t246 -59.5t245 59.5t161.5 168t85 240.5t27 294t-27 293t-85 239.5t-161.5 169t-245 60.5t-246 -60.5t-164 -168t-87 -240.5t-27.5 -293zM252 729q0 281 85 454t277 173q356 0 356.5 -627t-356.5 -627q-362 0 -362 627z M477 1597l197 322l164 -35l-267 -287h-94z" />
<glyph unicode="&#xd4;" horiz-adv-x="1222" d="M90 729q0 -164 27.5 -296t87 -239.5t164 -167t246 -59.5t245 59.5t161.5 168t85 240.5t27 294t-27 293t-85 239.5t-161.5 169t-245 60.5t-246 -60.5t-164 -168t-87 -240.5t-27.5 -293zM252 729q0 281 85 454t277 173q356 0 356.5 -627t-356.5 -627q-362 0 -362 627z M360 1597l187 322h123l186 -322h-84l-164 234l-164 -234h-84z" />
<glyph unicode="&#xd5;" horiz-adv-x="1222" d="M90 729q0 -164 27.5 -296t87 -239.5t164 -167t246 -59.5t245 59.5t161.5 168t85 240.5t27 294t-27 293t-85 239.5t-161.5 169t-245 60.5t-246 -60.5t-164 -168t-87 -240.5t-27.5 -293zM252 729q0 281 85 454t277 173q356 0 356.5 -627t-356.5 -627q-362 0 -362 627z M334 1700q41 133 155 133q47 0 135.5 -32t112.5 -32q51 0 90 62l56 -25q-43 -137 -144 -137q-51 0 -141 32t-111 32q-51 0 -92 -62z" />
<glyph unicode="&#xd6;" horiz-adv-x="1222" d="M90 729q0 160 27.5 293t87 240.5t164 168t246 60.5t245 -60.5t161.5 -169t85 -239.5t27 -293t-27 -294t-85 -240.5t-161.5 -168t-245 -59.5t-246 59.5t-164 167t-87 239.5t-27.5 296zM252 729q0 -627 362 -627q356 0 356.5 627t-356.5 627q-193 0 -277.5 -173t-84.5 -454 zM422 1655v194h133v-194h-133zM659 1655v194h136v-194h-136z" />
<glyph unicode="&#xd7;" horiz-adv-x="1032" d="M129 297l299 301l-295 297l84 86l297 -297l295 297l90 -90l-297 -297l303 -301l-84 -86l-303 303l-301 -301z" />
<glyph unicode="&#xd8;" horiz-adv-x="1222" d="M90 729q0 160 27.5 293t87 240.5t164 168t245.5 60.5q152 0 265 -74l67 154h107l-99 -219q178 -195 179 -623q0 -162 -27 -294t-85 -239.5t-161.5 -167t-245 -59.5t-247.5 62l-84 -189h-105l109 246q-197 188 -197 641zM250 729q0 -332 104 -489l463 1042q-80 76 -203 76 q-364 0 -364 -629zM426 162q76 -59 188 -60q358 0 359 627q0 305 -88 465z" />
<glyph unicode="&#xd9;" horiz-adv-x="1130" d="M127 475v989h149v-993q0 -362 289 -362q287 0 287 378v977h152v-975q0 -240 -106.5 -376t-332.5 -136q-438 0 -438 498zM309 1884l164 35l197 -322h-95z" />
<glyph unicode="&#xda;" horiz-adv-x="1130" d="M127 475q0 -498 438 -498q225 0 332 136.5t107 375.5v975h-152v-977q0 -379 -287 -378q-289 0 -289 362v993h-149v-989zM451 1597l196 322l164 -35l-266 -287h-94z" />
<glyph unicode="&#xdb;" horiz-adv-x="1130" d="M127 475q0 -498 438 -498q225 0 332 136.5t107 375.5v975h-152v-977q0 -379 -287 -378q-289 0 -289 362v993h-149v-989zM311 1597l187 322h123l186 -322h-84l-164 234l-164 -234h-84z" />
<glyph unicode="&#xdc;" horiz-adv-x="1130" d="M127 475v989h149v-993q0 -362 289 -362q287 0 287 378v977h152v-975q0 -240 -106.5 -376t-332.5 -136q-438 0 -438 498zM373 1655v194h133v-194h-133zM610 1655v194h135v-194h-135z" />
<glyph unicode="&#xdd;" horiz-adv-x="989" d="M27 1464l391 -829v-635h153v635l394 829h-162l-305 -694h-9l-303 694h-159zM414 1597l196 322l164 -35l-266 -287h-94z" />
<glyph unicode="&#xde;" horiz-adv-x="1054" d="M152 0v1462h153v-254h189q238 0 367.5 -115.5t129.5 -342.5q0 -481 -516 -482h-170v-268h-153zM305 393h160q190 0 279.5 84t89.5 273q0 180 -95.5 255.5t-271.5 75.5h-162v-688z" />
<glyph unicode="&#xdf;" horiz-adv-x="1054" d="M133 0v1118q0 178 97.5 275.5t271.5 97.5q180 0 285.5 -97.5t105.5 -265.5q0 -139 -84 -229t-234 -125q227 -39 319.5 -144.5t92.5 -269.5q0 -188 -94 -290.5t-250 -102.5q-164 0 -291 94l49 107q98 -78 217 -78q111 0 168.5 79t57.5 200q0 141 -95.5 222t-322.5 114v116 q322 57 322 297q0 123 -65 191.5t-187 68.5q-104 0 -162 -67.5t-58 -192.5v-1118h-143z" />
<glyph unicode="&#xe0;" horiz-adv-x="931" d="M61 281q0 104 43 174.5t129 108.5t185.5 55.5t243.5 25.5v103q0 117 -49.5 172t-155.5 55q-135 0 -332 -90l-39 112q55 35 175 68t210 33q332 0 332 -338v-496q0 -80 18 -260l-129 -12q-20 88 -24 186q-55 -86 -137 -143.5t-175 -57.5q-135 0 -215 82.5t-80 221.5z M207 297q0 -94 47 -150.5t133 -56.5q152 0 275 217v238q-100 -4 -172 -14.5t-141.5 -36t-105.5 -74.5t-36 -123zM244 1493l164 35l196 -322h-94z" />
<glyph unicode="&#xe1;" horiz-adv-x="931" d="M61 281q0 104 43 174.5t129 108.5t185.5 55.5t243.5 25.5v103q0 117 -49.5 172t-155.5 55q-135 0 -332 -90l-39 112q55 35 175 68t210 33q332 0 332 -338v-496q0 -80 18 -260l-129 -12q-20 88 -24 186q-55 -86 -137 -143.5t-175 -57.5q-135 0 -215 82.5t-80 221.5z M207 297q0 -94 47 -150.5t133 -56.5q152 0 275 217v238q-100 -4 -172 -14.5t-141.5 -36t-105.5 -74.5t-36 -123zM319 1206l197 322l164 -35l-266 -287h-95z" />
<glyph unicode="&#xe2;" horiz-adv-x="931" d="M61 281q0 104 43 174.5t129 108.5t185.5 55.5t243.5 25.5v103q0 117 -49.5 172t-155.5 55q-135 0 -332 -90l-39 112q55 35 175 68t210 33q332 0 332 -338v-496q0 -80 18 -260l-129 -12q-20 88 -24 186q-55 -86 -137 -143.5t-175 -57.5q-135 0 -215 82.5t-80 221.5z M203 1206l186 322h123l186 -322h-84l-163 234l-164 -234h-84zM207 297q0 -94 47 -150.5t133 -56.5q152 0 275 217v238q-100 -4 -172 -14.5t-141.5 -36t-105.5 -74.5t-36 -123z" />
<glyph unicode="&#xe3;" horiz-adv-x="931" d="M61 281q0 104 43 174.5t129 108.5t185.5 55.5t243.5 25.5v103q0 117 -49.5 172t-155.5 55q-135 0 -332 -90l-39 112q55 35 175 68t210 33q332 0 332 -338v-496q0 -80 18 -260l-129 -12q-20 88 -24 186q-55 -86 -137 -143.5t-175 -57.5q-135 0 -215 82.5t-80 221.5z M176 1309q41 133 156 133q49 0 137 -32t111 -32q51 0 90 62l55 -25q-43 -137 -143 -137q-51 0 -141.5 31.5t-110.5 31.5q-51 0 -92 -61zM207 297q0 -94 47 -150.5t133 -56.5q152 0 275 217v238q-100 -4 -172 -14.5t-141.5 -36t-105.5 -74.5t-36 -123z" />
<glyph unicode="&#xe4;" horiz-adv-x="931" d="M61 281q0 104 43 174.5t129 108.5t185.5 55.5t243.5 25.5v103q0 117 -49.5 172t-155.5 55q-135 0 -332 -90l-39 112q55 35 175 68t210 33q332 0 332 -338v-496q0 -80 18 -260l-129 -12q-20 88 -24 186q-55 -86 -137 -143.5t-175 -57.5q-135 0 -215 82.5t-80 221.5z M207 297q0 -94 47 -150.5t133 -56.5q152 0 275 217v238q-100 -4 -172 -14.5t-141.5 -36t-105.5 -74.5t-36 -123zM264 1264v194h133v-194h-133zM502 1264v194h135v-194h-135z" />
<glyph unicode="&#xe5;" horiz-adv-x="931" d="M61 281q0 104 43 174.5t129 108.5t185.5 55.5t243.5 25.5v103q0 117 -49.5 172t-155.5 55q-135 0 -332 -90l-39 112q55 35 175 68t210 33q332 0 332 -338v-496q0 -80 18 -260l-129 -12q-20 88 -24 186q-55 -86 -137 -143.5t-175 -57.5q-135 0 -215 82.5t-80 221.5z M207 297q0 -94 47 -150.5t133 -56.5q152 0 275 217v238q-100 -4 -172 -14.5t-141.5 -36t-105.5 -74.5t-36 -123zM311 1374q0 68 50.5 118t117.5 50q70 0 120 -50t50 -118q0 -72 -49 -120t-121 -48q-68 0 -118 49t-50 119zM391 1374q0 -39 25.5 -64.5t62.5 -25.5 q39 0 64.5 26.5t25.5 63.5t-25.5 63.5t-64.5 26.5q-37 0 -62.5 -26.5t-25.5 -63.5z" />
<glyph unicode="&#xe6;" horiz-adv-x="1505" d="M61 281q0 104 43 174.5t129 108.5t185.5 55.5t243.5 25.5v103q0 117 -49.5 171t-155.5 54q-131 0 -332 -88l-39 112q53 33 166 66t201 35h9q101 0 182 -40q85 -42 108 -132q98 172 309 172q377 0 377 -451q0 -104 -11 -155h-618q4 -393 287 -394q139 0 286 76l41 -113 q-152 -86 -342 -86q-266 0 -360 228q-57 -104 -149.5 -165t-204.5 -61q-139 0 -222.5 83.5t-83.5 220.5zM207 297q0 -100 51 -155q49 -52 133 -52h6q167 6 265 232l-3 223q-100 -4 -171.5 -14.5t-140 -36t-104.5 -74.5t-36 -123zM809 596l485 2q2 16 2 59q0 156 -52 240 t-183 84q-244 0 -252 -385z" />
<glyph unicode="&#xe7;" horiz-adv-x="790" d="M68 537q0 268 89 414.5t302 146.5q78 0 159.5 -24.5t114.5 -53.5l-43 -109q-113 61 -219 62q-254 0 -254 -436q0 -203 55.5 -319t196.5 -116q111 0 225 60l43 -107q-37 -27 -110.5 -49t-141.5 -26v-91q111 0 166.5 -33.5t55.5 -113.5q0 -90 -57.5 -126t-166.5 -36h-137 v86h156q106 0 106 70q0 43 -29.5 57t-103.5 14h-72v175q-182 18 -258.5 160.5t-76.5 394.5z" />
<glyph unicode="&#xe8;" horiz-adv-x="913" d="M68 535q0 264 98 413.5t303 149.5q377 0 377 -451q0 -104 -10 -155h-619q4 -393 287 -394q139 0 287 76l40 -113q-147 -84 -342 -84q-421 1 -421 558zM217 596l481 2q2 16 2 59q0 156 -50 240t-181 84q-248 0 -252 -385zM260 1493l164 35l197 -322h-95z" />
<glyph unicode="&#xe9;" horiz-adv-x="913" d="M68 535q0 264 98 413.5t303 149.5q377 0 377 -451q0 -104 -10 -155h-619q4 -393 287 -394q139 0 287 76l40 -113q-147 -84 -342 -84q-421 1 -421 558zM217 596l481 2q2 16 2 59q0 156 -50 240t-181 84q-248 0 -252 -385zM377 1206l196 322l164 -35l-266 -287h-94z" />
<glyph unicode="&#xea;" horiz-adv-x="913" d="M68 535q0 264 98 413.5t303 149.5q377 0 377 -451q0 -104 -10 -155h-619q4 -393 287 -394q139 0 287 76l40 -113q-147 -84 -342 -84q-421 1 -421 558zM217 596l481 2q2 16 2 59q0 156 -50 240t-181 84q-248 0 -252 -385zM217 1206l186 322h123l187 -322h-84l-164 234 l-164 -234h-84z" />
<glyph unicode="&#xeb;" horiz-adv-x="913" d="M68 535q0 264 98 413.5t303 149.5q377 0 377 -451q0 -104 -10 -155h-619q4 -393 287 -394q139 0 287 76l40 -113q-147 -84 -342 -84q-421 1 -421 558zM217 596l481 2q2 16 2 59q0 156 -50 240t-181 84q-248 0 -252 -385zM328 1264v194h133v-194h-133zM565 1264v194h135 v-194h-135z" />
<glyph unicode="&#xec;" horiz-adv-x="411" d="M-113 1493l164 35l197 -322h-94zM133 0v1073h143v-1073h-143z" />
<glyph unicode="&#xed;" horiz-adv-x="411" d="M115 1206l196 322l164 -35l-266 -287h-94zM133 0v1073h143v-1073h-143z" />
<glyph unicode="&#xee;" horiz-adv-x="411" d="M-39 1206l186 322h123l187 -322h-84l-164 234l-164 -234h-84zM133 0v1073h143v-1073h-143z" />
<glyph unicode="&#xef;" horiz-adv-x="411" d="M-6 1264v194h133v-194h-133zM133 0v1073h143v-1073h-143zM231 1264v194h136v-194h-136z" />
<glyph unicode="&#xf0;" horiz-adv-x="1003" d="M63 485q0 197 99.5 321t275.5 124q182 0 330 -195q-8 209 -106 404l-226 -82l-43 110l209 76q-78 125 -188 232l129 41q109 -104 184 -226l209 76l41 -113l-191 -69q135 -266 136 -553q0 -291 -107.5 -472.5t-322.5 -181.5q-199 0 -314 136t-115 372zM211 487 q0 -176 72.5 -281.5t199.5 -105.5q78 0 135.5 42t89 117t46 163t14.5 190q-135 203 -297 203q-127 0 -193.5 -91.5t-66.5 -236.5z" />
<glyph unicode="&#xf1;" horiz-adv-x="991" d="M133 0v1073h143l-10 -170q133 195 312 195q293 0 292 -357v-741h-141v719q0 256 -178 256q-82 0 -153.5 -57.5t-121.5 -145.5v-772h-143zM207 1309q41 133 155 133q47 0 135.5 -32t112.5 -32q51 0 90 62l56 -25q-43 -137 -144 -137q-51 0 -141 31.5t-111 31.5 q-51 0 -92 -61z" />
<glyph unicode="&#xf2;" horiz-adv-x="962" d="M68 530q0 567 411 568q215 0 315.5 -152.5t100.5 -415.5q0 -256 -100.5 -404.5t-315.5 -148.5t-313 148.5t-98 404.5zM217 530q0 -434 262 -434q266 0 266 434q0 449 -266 449q-262 0 -262 -449zM291 1493l164 35l196 -322h-94z" />
<glyph unicode="&#xf3;" horiz-adv-x="962" d="M68 530q0 -256 98 -404.5t313 -148.5t315.5 148.5t100.5 404.5q0 262 -100.5 415t-315.5 153q-411 -1 -411 -568zM217 530q0 449 262 449q266 0 266 -449q0 -434 -266 -434q-262 0 -262 434zM426 1206l197 322l163 -35l-266 -287h-94z" />
<glyph unicode="&#xf4;" horiz-adv-x="962" d="M68 530q0 -256 98 -404.5t313 -148.5t315.5 148.5t100.5 404.5q0 262 -100.5 415t-315.5 153q-411 -1 -411 -568zM217 530q0 449 262 449q266 0 266 -449q0 -434 -266 -434q-262 0 -262 434zM238 1206l186 322h123l186 -322h-84l-164 234l-163 -234h-84z" />
<glyph unicode="&#xf5;" horiz-adv-x="962" d="M68 530q0 -256 98 -404.5t313 -148.5t315.5 148.5t100.5 404.5q0 262 -100.5 415t-315.5 153q-411 -1 -411 -568zM217 530q0 449 262 449q266 0 266 -449q0 -434 -266 -434q-262 0 -262 434zM246 1309q41 133 155 133q49 0 137.5 -32t110.5 -32q51 0 90 62l56 -25 q-43 -137 -144 -137q-51 0 -141 31.5t-111 31.5q-51 0 -92 -61z" />
<glyph unicode="&#xf6;" horiz-adv-x="962" d="M68 530q0 567 411 568q215 0 315.5 -152.5t100.5 -415.5q0 -256 -100.5 -404.5t-315.5 -148.5t-313 148.5t-98 404.5zM217 530q0 -434 262 -434q266 0 266 434q0 449 -266 449q-262 0 -262 -449zM299 1264v194h133v-194h-133zM537 1264v194h135v-194h-135z" />
<glyph unicode="&#xf7;" horiz-adv-x="1032" d="M129 557v117h762v-117h-762zM436 195v204h148v-204h-148zM436 844v205h148v-205h-148z" />
<glyph unicode="&#xf8;" horiz-adv-x="962" d="M68 530q0 567 411 568q86 0 156 -29l55 178h103l-70 -227q172 -133 172 -490q0 -256 -100.5 -404.5t-315.5 -148.5q-8 0 -76 7l-43 -142h-100l51 166q-243 102 -243 522zM217 530q0 -315 131 -399l250 817q-55 31 -119 31q-262 0 -262 -449zM438 98q12 -2 41 -2 q266 0 266 434q0 229 -69 340z" />
<glyph unicode="&#xf9;" horiz-adv-x="993" d="M121 346v727h143v-719q0 -256 191 -256q72 0 145.5 58.5t116.5 138.5v778h143v-1073h-125l-12 160q-133 -182 -309 -183q-293 0 -293 369zM246 1493l164 35l196 -322h-94z" />
<glyph unicode="&#xfa;" horiz-adv-x="993" d="M121 346v727h143v-719q0 -256 191 -256q72 0 145.5 58.5t116.5 138.5v778h143v-1073h-125l-12 160q-133 -182 -309 -183q-293 0 -293 369zM358 1206l197 322l164 -35l-266 -287h-95z" />
<glyph unicode="&#xfb;" horiz-adv-x="993" d="M121 346v727h143v-719q0 -256 191 -256q72 0 145.5 58.5t116.5 138.5v778h143v-1073h-125l-12 160q-133 -182 -309 -183q-293 0 -293 369zM225 1206l187 322h123l186 -322h-84l-164 234l-164 -234h-84z" />
<glyph unicode="&#xfc;" horiz-adv-x="993" d="M121 346v727h143v-719q0 -256 191 -256q72 0 145.5 58.5t116.5 138.5v778h143v-1073h-125l-12 160q-133 -182 -309 -183q-293 0 -293 369zM287 1264v194h133v-194h-133zM524 1264v194h135v-194h-135z" />
<glyph unicode="&#xfd;" horiz-adv-x="872" d="M43 -395l27 112q68 -23 120 -22q82 0 131.5 72.5t90.5 232.5h-64q-100 297 -291 1073h156q121 -557 231 -946h11q98 346 229 946h156q-141 -614 -287 -1073q-72 -227 -145.5 -326.5t-210.5 -99.5q-35 0 -85.5 9.5t-68.5 21.5zM383 1206l197 322l163 -35l-266 -287h-94z " />
<glyph unicode="&#xfe;" horiz-adv-x="980" d="M133 -422v1915l141 23v-443l-12 -174l4 -2q45 84 120 142.5t167 58.5q360 0 360 -547q0 -262 -99 -418t-296 -156q-133 0 -252 89l10 -138v-338zM276 180q94 -84 209 -84q141 0 210 120t69 335q0 426 -242 426q-78 0 -144.5 -61.5t-101.5 -149.5v-586z" />
<glyph unicode="&#xff;" horiz-adv-x="872" d="M43 -395l27 112q68 -23 120 -22q82 0 131.5 72.5t90.5 232.5h-64q-100 297 -291 1073h156q121 -557 231 -946h11q98 346 229 946h156q-141 -614 -287 -1073q-72 -227 -145.5 -326.5t-210.5 -99.5q-35 0 -85.5 9.5t-68.5 21.5zM268 1264v194h133v-194h-133zM506 1264v194 h135v-194h-135z" />
<glyph unicode="&#x152;" horiz-adv-x="1792" d="M90 729q0 160 27.5 292t87 239.5t164 168t245.5 60.5q256 0 381 -229v204h703l-15 -129h-544v-522h489v-121h-489v-561h573v-131h-717v199q-123 -231 -381 -232q-141 0 -245.5 59.5t-164 167t-87 239.5t-27.5 296zM250 729q0 -629 364 -629q358 0 359 629q0 627 -359 627 q-364 0 -364 -627z" />
<glyph unicode="&#x153;" horiz-adv-x="1591" d="M68 530q0 567 411 568q240 0 340 -215q94 215 326 215q379 0 379 -451q0 -104 -11 -155h-618q0 -393 287 -394q135 0 286 76l41 -113q-147 -84 -344 -84q-248 0 -346 211q-96 -211 -340 -211q-215 0 -313 148.5t-98 404.5zM219 530q0 -436 260 -436q266 0 266 445 q0 440 -266 440q-260 0 -260 -449zM895 596l483 2q2 16 2 59q0 156 -52 240t-183 84q-246 0 -250 -385z" />
<glyph unicode="&#x178;" horiz-adv-x="989" d="M27 1464h159l303 -694h9l305 694h162l-394 -829v-635h-153v635zM309 1655v194h133v-194h-133zM547 1655v194h135v-194h-135z" />
<glyph unicode="&#x2c6;" horiz-adv-x="1024" d="M264 1206l187 322h122l187 -322h-84l-164 234l-164 -234h-84z" />
<glyph unicode="&#x2dc;" horiz-adv-x="1024" d="M238 1309q41 133 155 133q49 0 137 -32t111 -32q51 0 90 62l55 -25q-43 -137 -143 -137q-51 0 -141 31.5t-111 31.5q-51 0 -92 -61z" />
<glyph unicode="&#x2013;" horiz-adv-x="1024" d="M0 545v108h1024v-108h-1024z" />
<glyph unicode="&#x2014;" horiz-adv-x="2048" d="M0 545v108h2048v-108h-2048z" />
<glyph unicode="&#x2018;" horiz-adv-x="382" d="M98 1124l121 412l92 -23l-59 -389h-154z" />
<glyph unicode="&#x2019;" horiz-adv-x="382" d="M94 1081l60 389h153l-121 -411z" />
<glyph unicode="&#x201a;" horiz-adv-x="382" d="M74 -184l59 389h154l-121 -412z" />
<glyph unicode="&#x201c;" horiz-adv-x="671" d="M221 1124l121 412l43 -10l4 10l92 -23l-59 -389h-201z" />
<glyph unicode="&#x201d;" horiz-adv-x="671" d="M215 1081l59 389h203l-121 -411l-47 10l-2 -10z" />
<glyph unicode="&#x201e;" horiz-adv-x="671" d="M188 -184l60 389h203l-121 -412l-47 12l-2 -12z" />
<glyph unicode="&#x2022;" horiz-adv-x="798" />
<glyph unicode="&#x2026;" horiz-adv-x="1390" d="M106 0v205h148v-205h-148zM625 0v205h145v-205h-145zM1141 0v205h147v-205h-147z" />
<glyph unicode="&#x2039;" horiz-adv-x="636" d="M115 545v20l295 439h155l-305 -449l305 -449h-155z" />
<glyph unicode="&#x203a;" horiz-adv-x="636" d="M72 106l305 449l-305 449h155l295 -439v-20l-295 -439h-155z" />
<glyph unicode="&#x20ac;" horiz-adv-x="1032" d="M-14 586v92h143v72v24h-143v92h147q20 289 143 457t359 168q94 0 190.5 -30.5t147.5 -74.5l-43 -112q-139 82 -287 82q-166 0 -251 -133t-99 -357h577l-26 -92h-555v-24v-72h532l-26 -92h-500q37 -483 350 -484q152 0 297 99l47 -113q-61 -53 -159.5 -87t-198.5 -34 q-453 0 -496 619h-149z" />
<glyph unicode="&#x2122;" horiz-adv-x="1728" d="M74 1368v96h782l268 -676l244 676h160v-882h-125v669l-227 -635h-109l-252 635v-669h-121v786h-237v-786h-129v786h-254z" />
<glyph unicode="&#xe000;" horiz-adv-x="1075" d="M0 1075h1075v-1075h-1075v1075z" />
<glyph unicode="&#xfb01;" horiz-adv-x="952" d="M37 958v89l100 24v100q0 356 299 357q193 0 348 -101l-49 -104q-150 84 -286 84q-170 0 -170 -227v-107h540v-1073h-141v958h-399v-958h-142v958h-100z" />
<glyph unicode="&#xfb02;" horiz-adv-x="956" d="M37 958v89l100 24v121q0 336 281 336q131 0 274 -35l129 16v-1509h-141v1368q-117 39 -242 39q-160 0 -159 -227v-107h239v-115h-239v-958h-142v958h-100z" />
<glyph unicode="&#xfb03;" horiz-adv-x="1564" d="M39 958v91l102 22v119q0 338 271 338q115 0 178 -37l-25 -111q-59 27 -131 27q-86 0 -118.5 -56.5t-32.5 -172.5v-105h260v-115h-260v-958h-142v958h-102zM616 958v91l103 22v119q0 338 270 338q115 0 178 -37l-24 -111q-59 27 -131 27q-86 0 -119 -56.5t-33 -172.5v-105 h260v-115h-260v-958h-141v958h-103zM1284 1262v190h154v-190h-154zM1288 0v1073h144v-1073h-144z" />
<glyph unicode="&#xfb04;" horiz-adv-x="1564" d="M39 958v91l102 22v119q0 338 271 338q115 0 178 -37l-25 -111q-59 27 -131 27q-86 0 -118.5 -56.5t-32.5 -172.5v-105h260v-115h-260v-958h-142v958h-102zM616 958v91l103 22v119q0 338 270 338q115 0 178 -37l-24 -111q-59 27 -131 27q-86 0 -119 -56.5t-33 -172.5v-105 h260v-115h-260v-958h-141v958h-103zM1288 0v1493l144 18v-1511h-144z" />
<glyph horiz-adv-x="0" />
</font>
</defs>
</svg>
