<?xml version="1.0" standalone="no"?>
<!DOCTYPE svg PUBLIC "-//W3C//DTD SVG 1.1//EN" "http://www.w3.org/Graphics/SVG/1.1/DTD/svg11.dtd" >
<svg xmlns="http://www.w3.org/2000/svg">
<metadata>
This is a custom SVG webfont generated by Font Squirrel.
Copyright   : Copyright c 2007 by Leftloft  Molotro All rights reserved
Designer    : Leftloft  Molotro
Foundry     : Leftloft  Molotro
Foundry URL : httpwwwmolotrocom
</metadata>
<defs>
<font id="BreraSemiBold" horiz-adv-x="1208" >
<font-face units-per-em="2048" ascent="1554" descent="-494" />
<missing-glyph horiz-adv-x="409" />
<glyph unicode=" "  horiz-adv-x="409" />
<glyph unicode="&#x09;" horiz-adv-x="409" />
<glyph unicode="&#xa0;" horiz-adv-x="409" />
<glyph unicode="!" horiz-adv-x="555" d="M160 836v639h237v-639l-24 -445h-191zM170 0h209v242h-209v-242z" />
<glyph unicode="&#x22;" horiz-adv-x="770" d="M131 1468h213l-39 -475h-133zM442 1468h213l-39 -475h-133z" />
<glyph unicode="#" horiz-adv-x="1730" d="M111 420l39 160h274l63 282h-282l41 160h280l99 430h204l-98 -430h408l102 430h205l-96 -430h286l-39 -160h-286l-64 -282h289l-39 -160h-291l-100 -420h-203l92 420h-405l-98 -420h-203l96 420h-274zM627 580h409l66 282h-410z" />
<glyph unicode="$" horiz-adv-x="1206" d="M90 150l80 188q102 -55 230 -97t225 -42q98 0 160.5 48t62.5 140q0 84 -56.5 124t-218.5 99l-53 21q-102 39 -165.5 70.5t-121 77.5t-84 106.5t-26.5 140.5q0 160 99.5 261.5t262.5 127.5v148h230v-144q207 -23 381 -114l-84 -185q-203 104 -412 105q-106 0 -170.5 -47.5 t-64.5 -141.5q0 -72 74.5 -118t250.5 -105q408 -137 408 -407q0 -174 -104.5 -276.5t-278.5 -125.5v-170h-230v176q-221 34 -395 140z" />
<glyph unicode="%" horiz-adv-x="2084" d="M96 1071.5q0 -190.5 108.5 -304.5t295.5 -114q188 0 298.5 114t110.5 304.5t-111.5 308t-298 117.5t-295 -117.5t-108.5 -308zM319 1071q0 115 46.5 180.5t134.5 65.5q90 0 138 -65.5t48 -180.5q0 -113 -48 -175t-138 -62q-88 0 -134.5 62t-46.5 175zM557 0l754 1499h223 l-752 -1499h-225zM1180 395q0 -193 107.5 -305.5t296 -112.5t298 114t109.5 304.5t-111 307t-297 116.5t-294.5 -117t-108.5 -307zM1401 395.5q0 112.5 47 179t135 66.5t137 -66.5t49 -179t-48 -176t-138 -63.5q-88 0 -135 63.5t-47 176z" />
<glyph unicode="&#x26;" horiz-adv-x="1466" d="M70 336q0 102 53 186t129 139.5t201 118.5q-92 102 -122 139t-57.5 99.5t-27.5 134.5q0 123 115.5 209t285.5 86q182 0 297 -84t115 -205q0 -51 -18.5 -97t-42 -80t-75 -77t-84.5 -66l-106 -73l318 -332q100 127 143 205l176 -92q-61 -115 -196 -254l253 -289l-290 -4 l-138 156q-209 -180 -475 -181q-205 0 -329.5 101.5t-124.5 259.5zM285 360q0 -88 72.5 -153.5t177 -65.5t179 38t167.5 120l-334 360l-68 -48q-47 -34 -73.5 -55t-58.5 -54t-47 -68t-15 -74zM477 1128q0 -14 2 -27.5t8 -27.5l12 -25q5 -11 17 -29l19 -27q6 -9 22 -27.5 l23.5 -27.5t27 -29.5t25.5 -28.5q68 53 101.5 83.5t64 77.5t30.5 90q0 66 -46 119.5t-136 53.5q-72 0 -121 -51.5t-49 -123.5z" />
<glyph unicode="'" horiz-adv-x="417" d="M102 1468h213l-39 -475h-133z" />
<glyph unicode="(" horiz-adv-x="681" d="M170 741q12 496 256 846l190 -20q-226 -388 -225 -905v-54q12 -475 225 -856l-190 -24q-135 211 -201 474q-57 228 -56 465q0 37 1 74z" />
<glyph unicode=")" horiz-adv-x="681" d="M66 1567l190 20q240 -346 256 -846q10 -276 -55.5 -538t-200.5 -475l-190 24q213 381 223 856q17 553 -223 959z" />
<glyph unicode="*" horiz-adv-x="1206" d="M217 991l275 72l-226 190l103 111l202 -193l45 267l160 -33l-69 -262l251 96l58 -141l-271 -86l218 -191l-113 -106l-193 196l-45 -270l-159 33l71 264l-256 -98z" />
<glyph unicode="+" d="M131 547v190h377v383h205v-383h377v-190h-377v-383h-205v383h-377z" />
<glyph unicode="," horiz-adv-x="405" d="M72 -213l65 459h205l-139 -484z" />
<glyph unicode="-" horiz-adv-x="1044" d="M127 547v188h670v-188h-670z" />
<glyph unicode="." horiz-adv-x="452" d="M131 0v246h207v-246h-207z" />
<glyph unicode="/" horiz-adv-x="962" d="M94 0l477 1466h244l-477 -1466h-244z" />
<glyph unicode="0" d="M41 719q0 326 147.5 530.5t418 204.5t414.5 -203.5t144 -531.5q0 -332 -147.5 -539t-411.5 -207q-274 0 -419.5 205t-145.5 541zM279 719q0 -248 86 -401.5t241.5 -153.5t238.5 153.5t83 401.5q0 242 -83 393.5t-238.5 151.5t-241.5 -152.5t-86 -392.5z" />
<glyph unicode="1" d="M172 1176q301 129 438 254h168v-1264l117 6h149v-172h-788v170h174l121 -4v706l8 304q-35 -33 -142.5 -88.5t-189.5 -86.5z" />
<glyph unicode="2" d="M92 1225q106 111 242.5 171t279.5 60q195 0 327 -112.5t132 -313.5q0 -248 -321 -543l-328 -311l201 14h477v-190h-957v166l342 354l77 77l76 77l61 66q42 46 58 72l38 65q23 39 31 73.5t8 71.5q0 109 -69 173.5t-181 64.5q-184 0 -381 -185z" />
<glyph unicode="3" d="M107 96l57 174q184 -111 391 -110q147 0 234.5 63.5t87.5 194.5q0 115 -91.5 171t-228.5 62q-88 -10 -176 -28l-29 168q471 63 471 282q0 193 -260 193q-88 0 -192.5 -32t-182.5 -81l-71 164q74 61 213 100t260 39q209 0 336 -96t127 -270q0 -113 -73 -201t-183 -133v-6 q137 -25 224 -113t87 -225q0 -217 -142.5 -331t-379.5 -114q-137 0 -269 37t-210 92z" />
<glyph unicode="4" d="M61 238v168l557 1024h236l-334 -646l-229 -358h489l6 414l195 18v-432h176l-16 -188h-160v-252l-201 -17v269h-719z" />
<glyph unicode="5" d="M88 137l90 166q186 -139 395 -139q139 0 224.5 87t85.5 226q0 131 -77 202t-181 71q-162 0 -293 -111l-189 20l68 771h858l-14 -187h-656l-51 -420h14q139 104 322 105q195 0 316.5 -125t121.5 -322q0 -246 -154.5 -380t-379.5 -134q-289 0 -500 170z" />
<glyph unicode="6" d="M61 635q0 362 168 591.5t445 229.5q123 0 237.5 -32.5t175.5 -80.5l-83 -161q-53 35 -144.5 58.5t-167.5 23.5q-182 0 -283.5 -143.5t-109.5 -379.5q168 184 389 185q201 0 329 -114t128 -318q0 -233 -154.5 -380t-382.5 -147q-238 0 -392.5 177.5t-154.5 490.5zM301 582 v-17q0 -175 85 -291q89 -121 230 -120q133 0 212 96t79 239q0 131 -74.5 202t-203.5 71q-86 0 -177.5 -49t-150.5 -131z" />
<glyph unicode="7" d="M131 1219v206h965v-190q-524 -694 -537 -1235h-252q14 295 174 629t385 575v15h-735z" />
<glyph unicode="8" d="M59 381q0 131 89.5 231.5t216.5 139.5v8q-113 41 -184.5 128t-71.5 193q0 180 146 276.5t349 96.5t351.5 -97t148.5 -278q0 -115 -78 -200.5t-197 -112.5v-8q143 -47 231.5 -140.5t88.5 -226.5q0 -197 -148.5 -307.5t-396.5 -110.5q-240 0 -392.5 105.5t-152.5 302.5z M297 387q0 -113 86 -172t221 -59t221 63.5t86 181.5q0 102 -110.5 175t-241.5 100q-115 -35 -188.5 -109t-73.5 -180zM336 1067q0 -94 99.5 -158.5t223.5 -77.5q96 20 158 83t62 151q0 106 -80 163.5t-195 57.5q-119 0 -193.5 -55t-74.5 -164z" />
<glyph unicode="9" d="M66 932q0 233 154.5 379.5t381.5 146.5q238 0 392.5 -177t154.5 -490q0 -362 -168 -592t-444 -230q-123 0 -238 33t-176 80l84 162q53 -35 144 -58.5t167 -23.5q182 0 283.5 143.5t109.5 378.5q-170 -184 -389 -184q-201 0 -328.5 113.5t-127.5 318.5zM303 936 q0 -131 75 -201.5t204 -70.5q86 0 177 49t150 131v16q0 175 -85 291q-89 121 -230 121q-133 0 -212 -96.5t-79 -239.5z" />
<glyph unicode=":" horiz-adv-x="477" d="M131 0v246h207v-246h-207zM131 707v245h207v-245h-207z" />
<glyph unicode=";" horiz-adv-x="464" d="M72 -213l65 459h205l-139 -484zM135 705v245h207v-245h-207z" />
<glyph unicode="&#x3c;" horiz-adv-x="1206" d="M70 608v121l1048 518v-207l-821 -372l821 -379v-207z" />
<glyph unicode="=" d="M121 303v189h966v-189h-966zM121 770v188h966v-188h-966z" />
<glyph unicode="&#x3e;" horiz-adv-x="1206" d="M88 82v207l821 379l-821 372v207l1049 -518v-121z" />
<glyph unicode="?" horiz-adv-x="1128" d="M94 1270q209 199 447 198q205 0 340 -104t135 -305q0 -94 -45 -171t-109.5 -127t-129 -94t-109.5 -95.5t-45 -106.5q0 -31 8 -72h-197q-16 66 -16 115q0 78 42 141.5t100 106.5l118 84q59 41 101 94t42 115q0 219 -252 219q-158 0 -303 -158zM377 0h219v246h-219v-246z " />
<glyph unicode="@" horiz-adv-x="2058" d="M63 414q0 305 144.5 535.5t390.5 349t557 118.5q377 0 608.5 -208t231.5 -541q0 -291 -129 -474.5t-346 -183.5q-111 0 -188 58.5t-99 156.5q-41 -84 -139.5 -150.5t-206.5 -66.5q-156 0 -251 101.5t-95 279.5q0 264 148.5 448.5t369.5 184.5q70 0 138.5 -26.5 t100.5 -61.5l33 70h158l-105 -658q-3 -19 -2 -36q0 -56 30 -98q40 -54 120 -54q121 0 198.5 148.5t77.5 357.5q0 258 -174 423.5t-504 165.5q-358 0 -614 -237.5t-256 -601.5q0 -166 53.5 -293t144.5 -200t199.5 -108.5t231.5 -35.5q205 0 389 59l-6 -172q-203 -53 -414 -53 q-119 0 -231.5 29.5t-215 93t-179 156t-123 227.5t-46.5 297zM756 391q0 -231 176 -231q82 0 149.5 64.5t106.5 160.5l74 430q-55 66 -184.5 66t-225.5 -146.5t-96 -343.5z" />
<glyph unicode="A" horiz-adv-x="1320" d="M16 0l498 1468h303l486 -1468h-252l-115 344h-561l-115 -344h-244zM416 518h475l-158 512q-43 135 -65 242h-13q-12 -47 -71 -242z" />
<glyph unicode="B" horiz-adv-x="1280" d="M139 0v1468h566q213 0 347 -94t134 -284q0 -248 -230 -324v-4q266 -76 267 -352q0 -188 -133.5 -299t-337.5 -111h-613zM381 188h281q145 0 227 62.5t82 185.5q0 74 -28 123t-84 72.5t-118.5 33t-152.5 9.5h-207v-486zM381 831h258q299 0 299 228q0 221 -313 221h-244 v-449z" />
<glyph unicode="C" horiz-adv-x="1275" d="M76 745q0 340 176 546t481 206q258 0 451 -141l-70 -176q-178 117 -379 116q-186 0 -295.5 -150.5t-109.5 -400.5q0 -262 111.5 -419.5t308.5 -157.5q203 0 385 160l92 -174q-231 -186 -494 -187q-309 0 -483 217t-174 561z" />
<glyph unicode="D" horiz-adv-x="1386" d="M139 0v1468h496q317 0 496.5 -198.5t179.5 -521.5q0 -328 -180.5 -538t-493.5 -210h-498zM381 195h227q209 0 329 152.5t120 400.5q0 242 -120 385t-329 143h-227v-1081z" />
<glyph unicode="E" horiz-adv-x="1153" d="M139 0v1468h924l-19 -192h-663v-432h594v-180h-594v-469h692v-195h-934z" />
<glyph unicode="F" horiz-adv-x="1103" d="M139 0v1468h924l-16 -192h-666v-438h594v-187h-594v-651h-242z" />
<glyph unicode="G" horiz-adv-x="1359" d="M76 748q0 336 180 542.5t485 206.5q154 0 288 -43t208 -100l-72 -178q-199 121 -409 120q-188 0 -307 -149.5t-119 -396.5q0 -262 112.5 -422t315.5 -160q170 0 311 90v320h-252v167h465v-614q-233 -164 -534 -164q-315 0 -493.5 218.5t-178.5 562.5z" />
<glyph unicode="H" horiz-adv-x="1388" d="M139 0v1468h242v-612h627v612h241v-1468h-241v659h-627v-659h-242z" />
<glyph unicode="I" horiz-adv-x="520" d="M139 0v1468h242v-1468h-242z" />
<glyph unicode="J" horiz-adv-x="696" d="M16 -8l31 194q66 -20 123 -20q92 0 127 61.5t35 182.5v1058h241v-1058q0 -229 -78.5 -336t-285.5 -107q-99 0 -193 25z" />
<glyph unicode="K" horiz-adv-x="1269" d="M139 0v1468h242v-1468h-242zM389 733v12l533 723h284l-542 -714l571 -754h-293z" />
<glyph unicode="L" horiz-adv-x="1042" d="M139 0v1468h242v-1271h637l-17 -197h-862z" />
<glyph unicode="M" horiz-adv-x="1730" d="M139 0v1468h336l416 -1091h8l385 1091h307v-1468h-239v1102h-11l-372 -1063h-181l-401 1063h-8v-1102h-240z" />
<glyph unicode="N" horiz-adv-x="1402" d="M139 0v1468h273l618 -1120h8l-2 1120h228v-1468h-267l-626 1128h-6l2 -1128h-228z" />
<glyph unicode="O" horiz-adv-x="1464" d="M76 739q0 338 178 548t477 210q301 0 479.5 -210t178.5 -550q0 -342 -176.5 -556t-479.5 -214t-480 215t-177 557zM330 741q0 -252 106.5 -412.5t297 -160.5t296 159.5t105.5 411.5q0 244 -107.5 400.5t-296.5 156.5q-186 0 -293.5 -155.5t-107.5 -399.5z" />
<glyph unicode="P" horiz-adv-x="1251" d="M139 0v1468h424q139 0 250 -25.5t198 -79.5t135 -149.5t48 -226.5q0 -233 -153.5 -365.5t-403.5 -132.5h-256v-489h-242zM381 678h190q369 0 369 301q0 166 -105.5 230.5t-289.5 64.5h-164v-596z" />
<glyph unicode="Q" horiz-adv-x="1464" d="M76 739q0 340 178 549t477 209q301 0 479.5 -210t178.5 -548q0 -244 -94.5 -429t-260.5 -271l254 -166l-186 -141l-279 245q-45 -10 -90 -10q-303 0 -480 215t-177 557zM330 741q0 -252 106.5 -412.5t297 -160.5t296 158.5t105.5 412.5q0 248 -106.5 402.5t-297.5 154.5 q-188 0 -294.5 -154.5t-106.5 -400.5z" />
<glyph unicode="R" horiz-adv-x="1277" d="M139 0v1468h494q248 0 408.5 -117.5t160.5 -340.5q0 -154 -83 -265.5t-220 -162.5l111 -185l213 -397h-256l-289 537q-90 -8 -295 -9v-528h-244zM383 705h223q154 0 248 78.5t94 220.5q0 139 -95 207.5t-253 68.5h-217v-575z" />
<glyph unicode="S" horiz-adv-x="1161" d="M61 125l80 188q100 -57 233.5 -101t231.5 -44q102 0 169 51t67 150q0 102 -76 158.5t-262 125.5q-205 78 -307.5 176.5t-102.5 262.5q0 188 140.5 296.5t347.5 108.5q274 0 512 -135l-82 -184q-227 119 -428 118q-102 0 -170 -50t-68 -144q0 -86 75 -139.5t253 -120.5 q102 -41 168.5 -78t129 -90t92.5 -124t30 -163q0 -209 -135.5 -314.5t-350.5 -105.5q-141 0 -291 47.5t-256 110.5z" />
<glyph unicode="T" horiz-adv-x="1126" d="M33 1272v196h1061v-196h-400v-1272h-241v1272h-420z" />
<glyph unicode="U" horiz-adv-x="1339" d="M123 498v970h242v-968q0 -147 80.5 -238.5t224 -91.5t224.5 96t81 246v956h242v-960q0 -240 -151 -388.5t-396 -148.5q-248 0 -397.5 143.5t-149.5 383.5z" />
<glyph unicode="V" horiz-adv-x="1232" d="M16 1468h267q117 -520 329 -1245h9q195 664 331 1245h262q-209 -823 -430 -1468h-348q-221 690 -420 1468z" />
<glyph unicode="W" horiz-adv-x="1771" d="M16 1468h254q166 -829 273 -1247h8q205 657 262 895l-84 352h248q131 -688 264 -1247h8q49 195 252 1247h254q-223 -1034 -350 -1468h-305q-115 432 -191 811h-6q-29 -123 -223 -811h-297q-154 530 -367 1468z" />
<glyph unicode="X" horiz-adv-x="1249" d="M20 0q311 522 461 739q-47 61 -216 339t-232 390h274l326 -573h6l313 573h275q-49 -92 -221 -378.5t-226 -364.5q57 -82 221 -352.5t220 -372.5h-271l-325 571h-7l-329 -571h-269z" />
<glyph unicode="Y" horiz-adv-x="1234" d="M20 1468h252l338 -651h8l347 651h249q-195 -375 -479 -870v-598h-241v598q-284 495 -474 870z" />
<glyph unicode="Z" horiz-adv-x="1103" d="M47 0v154l703 1122h-672v192h975v-147l-717 -1126h713v-195h-1002z" />
<glyph unicode="[" horiz-adv-x="706" d="M135 -307v1966h561v-191h-346v-1585h346v-190h-561z" />
<glyph unicode="\" horiz-adv-x="962" d="M141 1466h244l477 -1466h-244z" />
<glyph unicode="]" horiz-adv-x="708" d="M10 -117h346v1585h-346v191h561v-1966h-561v190z" />
<glyph unicode="^" horiz-adv-x="1206" d="M12 862l486 735h204l492 -735h-248l-348 545l-338 -545h-248z" />
<glyph unicode="_" horiz-adv-x="1024" d="M0 -164h1024v-76h-1024v76z" />
<glyph unicode="`" horiz-adv-x="1024" d="M279 1501l227 45l233 -340h-137z" />
<glyph unicode="a" horiz-adv-x="1107" d="M61 287q0 106 48.5 179t146.5 112.5t214 58t284 25.5v65q0 106 -48.5 150.5t-148.5 44.5q-160 0 -414 -99l-53 170q76 41 225.5 79t253.5 38q205 0 309.5 -83t104.5 -275v-473q0 -111 23 -275l-220 -16q-16 66 -26 176q-178 -186 -379 -187q-137 0 -228.5 87.5 t-91.5 222.5zM297 309q0 -72 49 -120t123 -48t157 55.5t128 129.5v198q-104 -2 -178 -11t-141.5 -30.5t-102.5 -66t-35 -107.5z" />
<glyph unicode="b" horiz-adv-x="1171" d="M125 41v1452l229 23v-375l-14 -209q63 66 156.5 121t181.5 55q209 0 319.5 -142.5t110.5 -394.5q0 -293 -139.5 -444.5t-409.5 -151.5q-194 0 -434 66zM354 180q104 -31 203 -30q313 0 313 421q0 168 -65.5 259.5t-192.5 91.5q-125 0 -258 -158v-584z" />
<glyph unicode="c" horiz-adv-x="972" d="M63 543q0 260 130.5 413.5t367.5 153.5q96 0 204.5 -30.5t156.5 -61.5l-56 -170q-156 74 -278 74q-141 0 -214 -104.5t-73 -276.5q0 -174 71.5 -274.5t215.5 -100.5q133 0 289 86l57 -170q-59 -41 -170 -73t-203 -32q-240 0 -369 153t-129 413z" />
<glyph unicode="d" horiz-adv-x="1175" d="M63 534.5q0 251.5 129.5 413.5t352.5 162q154 0 286 -84l-12 178v289l230 23v-1516h-211l-9 174q-152 -197 -325 -197q-213 0 -327 153t-114 404.5zM301 543q0 -166 62.5 -272.5t195.5 -106.5q72 0 144.5 60.5t115.5 140.5v497q-102 74 -229 74q-139 0 -214 -111.5 t-75 -281.5z" />
<glyph unicode="e" horiz-adv-x="1101" d="M63 532q0 248 136.5 413t367.5 165q219 0 346 -127t127 -346q0 -100 -12 -166h-727q10 -315 309 -315q160 0 340 84l60 -166q-84 -41 -205 -70t-221 -29q-254 0 -387.5 147.5t-133.5 409.5zM303 608h506q4 33 4 51q0 127 -63.5 204t-182.5 77q-125 0 -193.5 -94.5 t-70.5 -237.5z" />
<glyph unicode="f" horiz-adv-x="696" d="M29 911v138l118 28v107q0 164 86 256t244 92q137 0 240 -37l-29 -166q-82 23 -151 23q-164 0 -164 -191v-76h291v-174h-289v-911h-230v911h-116z" />
<glyph unicode="g" horiz-adv-x="1140" d="M41 -119q0 131 207 236q-92 45 -92 123q0 43 42 82.5t87 60.5q-92 53 -146.5 138t-54.5 188q0 184 131 291.5t324 107.5q170 0 288 -80l263 88l22 -166l-190 -37q72 -96 71 -204q0 -182 -127 -282.5t-323 -100.5q-70 0 -140 18q-20 -8 -34.5 -25.5t-14.5 -31.5 q0 -31 60.5 -45.5t249.5 -26.5q215 -14 327.5 -74.5t112.5 -208.5q0 -162 -161 -255t-382 -93q-225 0 -372.5 76t-147.5 221zM242 -90q0 -80 91 -123t230 -43q133 0 224.5 42t91.5 120q0 72 -67 99.5t-224 41.5q-74 2 -205 23q-57 -29 -99 -73t-42 -87zM307 711 q0 -104 64.5 -171t167.5 -67q106 0 168.5 64.5t62.5 173.5q0 111 -62.5 176t-168.5 65q-104 0 -168 -67.5t-64 -173.5z" />
<glyph unicode="h" horiz-adv-x="1173" d="M125 0v1493l229 23v-302l-14 -288q184 184 373 184q166 0 259 -106.5t93 -280.5v-723h-229v698q0 102 -50.5 163t-146.5 61q-70 0 -151.5 -51.5t-133.5 -114.5v-756h-229z" />
<glyph unicode="i" horiz-adv-x="481" d="M121 1245v219h237v-219h-237zM125 0v1085h229v-1085h-229z" />
<glyph unicode="j" horiz-adv-x="481" d="M-68 -291q193 160 193 375v1001h229v-981q0 -170 -68.5 -298t-213.5 -240zM121 1243v221h237v-221h-237z" />
<glyph unicode="k" horiz-adv-x="1079" d="M125 0v1493l229 23v-1516h-229zM377 563v25l387 497h260l-410 -499l445 -586h-266z" />
<glyph unicode="l" horiz-adv-x="481" d="M125 0v1493l229 23v-1516h-229z" />
<glyph unicode="m" horiz-adv-x="1828" d="M125 0v1085h223l-8 -167q170 190 344 190q98 0 183 -55.5t124 -139.5q72 78 167 136.5t188 58.5q154 0 264 -108.5t110 -270.5v-729h-229v707q0 92 -56.5 153.5t-146.5 61.5q-61 0 -136 -52.5t-114 -113.5v-756h-229v696q0 96 -54.5 161t-146.5 65q-61 0 -135 -52.5 t-119 -115.5v-754h-229z" />
<glyph unicode="n" horiz-adv-x="1177" d="M125 0v1085h221l-8 -165q182 190 371 190q158 0 259 -104.5t101 -278.5v-727h-229v698q0 98 -52.5 161t-144.5 63q-72 0 -154.5 -52.5t-134.5 -121.5v-748h-229z" />
<glyph unicode="o" horiz-adv-x="1169" d="M63 543q0 260 137.5 412.5t383 152.5t384 -153.5t138.5 -411.5t-138.5 -413t-384 -155t-383 154t-137.5 414zM301 543q0 -184 72.5 -285.5t210 -101.5t211 101t73.5 286q0 182 -73.5 284.5t-211 102.5t-210 -102.5t-72.5 -284.5z" />
<glyph unicode="p" horiz-adv-x="1169" d="M125 -412v1497h223l-4 -163h4q166 188 326 188q205 0 318.5 -151.5t113.5 -405.5q0 -270 -121 -424t-348 -154q-166 0 -293 101l10 -187v-286zM354 229q115 -80 228 -79q287 0 286 413q0 166 -64.5 262.5t-193.5 96.5q-66 0 -137.5 -53.5t-118.5 -123.5v-516z" />
<glyph unicode="q" horiz-adv-x="1173" d="M63 541q0 236 122 402.5t343 166.5q158 0 299 -96h2l19 71h201v-1482l-230 -15v394l10 186q-156 -193 -327 -193q-213 0 -326 155t-113 411zM301 541q0 -166 62.5 -271.5t197.5 -105.5q137 0 258 194v494q-100 82 -229 84q-143 0 -216 -111.5t-73 -283.5z" />
<glyph unicode="r" horiz-adv-x="751" d="M125 0v1085h223l-8 -233l2 -6q117 264 291 264q35 0 96 -14l-24 -226q-49 16 -103 17q-88 0 -168 -81t-80 -173v-633h-229z" />
<glyph unicode="s" horiz-adv-x="985" d="M49 92l62 166q197 -102 385 -102q80 0 137 35.5t57 103t-57.5 99.5t-192.5 69q-20 6 -30 8q-154 45 -239 118t-85 197q0 152 112.5 238t278.5 86q113 0 241 -31.5t195 -72.5l-51 -164q-76 35 -187.5 62.5t-182.5 27.5q-78 0 -130.5 -33t-52.5 -96q0 -61 64.5 -97 t204.5 -71q166 -43 258 -112.5t92 -209.5q0 -172 -119 -255t-307 -83q-119 0 -248 36t-205 81z" />
<glyph unicode="t" horiz-adv-x="700" d="M18 911v144l132 26v258l225 37v-291h284v-174h-284v-610q0 -141 123 -141q61 0 147 24l25 -174q-104 -35 -248 -35q-129 0 -203 83t-74 218v635h-127z" />
<glyph unicode="u" horiz-adv-x="1163" d="M109 354v731h229v-704q0 -102 49 -159.5t143 -57.5q74 0 150 51t127 125v745h229v-1085h-213l-6 164q-180 -188 -360 -189q-162 0 -255 99.5t-93 279.5z" />
<glyph unicode="v" horiz-adv-x="1071" d="M20 1085h254q150 -547 261 -886h8q119 367 254 886h252q-178 -631 -359 -1085h-305q-183 471 -365 1085z" />
<glyph unicode="w" horiz-adv-x="1605" d="M20 1085h242q123 -528 221 -874h11q111 291 211 629l-64 245h242q78 -338 221 -874h10q109 360 227 874h244q-129 -545 -323 -1085h-277q-106 305 -188 614q-102 -360 -201 -614h-264q-173 499 -312 1085z" />
<glyph unicode="x" horiz-adv-x="1024" d="M23 0q197 332 350 549q-147 221 -332 536h260l221 -399l228 399h249q-180 -301 -346 -534q201 -291 346 -551h-251l-240 408l-242 -408h-243z" />
<glyph unicode="y" horiz-adv-x="1091" d="M47 1085h250q119 -426 260 -874h12q174 582 252 874h248q-147 -547 -350 -1085q-86 -227 -178 -322.5t-252 -95.5q-137 0 -226 37l43 176q84 -27 156 -26q158 0 225 231l-81 8q-156 405 -359 1077z" />
<glyph unicode="z" horiz-adv-x="958" d="M57 0v164l543 741h-524v180h817v-157l-543 -748h551v-180h-844z" />
<glyph unicode="{" horiz-adv-x="708" d="M37 588v180l29 6q29 6 51 16.5t50 33t44 65.5t16 104v219q0 223 114 335t331 112h35v-176h-35q-256 0 -256 -277v-233q0 -121 -56.5 -197t-152.5 -100q96 -25 152.5 -99.5t56.5 -193.5v-238q0 -268 256 -268h35v-184h-35q-217 0 -331 111.5t-114 334.5v223 q0 61 -16 104.5t-44 66t-50.5 32.5t-50.5 17z" />
<glyph unicode="|" horiz-adv-x="1024" d="M395 -442v2048h234v-2048h-234z" />
<glyph unicode="}" horiz-adv-x="708" d="M2 -123h35q256 0 256 268v238q0 119 56.5 193.5t152.5 99.5q-96 25 -152.5 100.5t-56.5 196.5v233q0 276 -256 277h-35v176h35q217 0 330.5 -111.5t113.5 -335.5v-219q0 -61 16.5 -104t44 -65.5t50 -33t51.5 -16.5l29 -6v-180l-29 -6q-29 -6 -51.5 -16.5t-50 -33 t-44 -65.5t-16.5 -105v-223q0 -223 -113.5 -334.5t-330.5 -111.5h-35v184z" />
<glyph unicode="~" horiz-adv-x="1206" d="M129 463q78 240 268 239q74 0 210 -58t188 -58q45 0 75.5 28.5t65.5 92.5l141 -48q-35 -119 -105.5 -183t-162.5 -64q-70 0 -203 58t-190 58q-86 0 -142 -118z" />
<glyph unicode="&#xa1;" horiz-adv-x="522" d="M145 0h238v639l-25 444h-190l-23 -444v-639zM156 1233v242h209v-242h-209z" />
<glyph unicode="&#xa2;" d="M176 729q0 217 93 362.5t266 188.5l-3 186h228l-4 -176q182 -23 278 -86l-57 -172q-147 72 -277 72q-141 0 -213.5 -102.5t-72.5 -272.5q0 -174 71.5 -272.5t214.5 -98.5q111 0 289 84l58 -174q-113 -72 -291 -98l4 -170h-228l3 178q-176 41 -267.5 185.5t-91.5 365.5z " />
<glyph unicode="&#xa3;" d="M102 0v170h191v506h-191v133l191 31v174q0 221 99.5 331.5t309.5 110.5q113 0 220.5 -24.5t167.5 -61.5l-28 -80q-24 -68 -32 -86q-119 66 -268 66q-121 0 -183.5 -57.5t-62.5 -198.5v-174h465l-20 -164h-445v-506h567v-170h-981z" />
<glyph unicode="&#xa5;" d="M27 1466h249l340 -649h7l346 649h248l-373 -680h260v-188h-363v-170h363v-188h-363v-240h-243v240h-357v188h357v170h-357v188h254z" />
<glyph unicode="&#xa6;" horiz-adv-x="1024" d="M397 393h230v-799h-230v799zM397 774v799h230v-799h-230z" />
<glyph unicode="&#xa7;" d="M90 -291l78 172q102 -49 236.5 -90t228.5 -41q104 0 170.5 44t66.5 128t-77.5 134t-262.5 114q-203 68 -306 156t-103 229q0 102 63.5 177t167.5 106q-231 100 -231 297q0 168 141 265t346 97q252 0 514 -119l-84 -170q-240 106 -428 107q-102 0 -169.5 -44t-67.5 -126 q0 -74 75.5 -121t251.5 -104q211 -74 316.5 -161t105.5 -241q0 -201 -194 -291q193 -106 192 -288q0 -184 -136 -277.5t-349 -93.5q-139 0 -286.5 41t-258.5 100zM373 565q0 -111 227 -188l100 -33q72 6 122 47t50 111q0 92 -122 160q-84 45 -193 59q-82 -8 -133 -50.5 t-51 -105.5z" />
<glyph unicode="&#xa8;" horiz-adv-x="1024" d="M231 1251v222h203v-222h-203zM588 1251v222h205v-222h-205z" />
<glyph unicode="&#xa9;" horiz-adv-x="1681" d="M70 727q0 313 226 536.5t541.5 223.5t542 -223.5t226.5 -536.5t-226.5 -536.5t-542 -223.5t-541.5 223.5t-226 536.5zM229 727q0 -256 176.5 -427t432.5 -171t431 171t175 427q0 250 -176 424t-430 174q-256 0 -432.5 -173t-176.5 -425zM455 727q0 -174 103.5 -282.5 t289.5 -108.5q154 0 307 110l-70 107q-111 -86 -229 -86q-113 0 -177.5 69.5t-64.5 190.5q0 115 64 185q62 69 164 69h6q125 0 221 -68l53 109q-106 84 -284.5 84t-280.5 -103.5t-102 -275.5z" />
<glyph unicode="&#xaa;" horiz-adv-x="1095" d="M211 971q0 137 124 190t367 60v39q0 66 -32.5 91t-100.5 25q-96 0 -299 -67l-41 127q57 27 166 53.5t185 26.5q301 0 301 -242v-307q0 -66 18 -187l-170 -10q-12 41 -22 109q-125 -115 -256 -115q-102 0 -171 58.5t-69 148.5zM393 987q0 -45 34 -73.5t79 -28.5 q51 0 107.5 34.5t88.5 79.5v117q-98 -2 -159.5 -10t-105.5 -38t-44 -81z" />
<glyph unicode="&#xab;" horiz-adv-x="1120" d="M68 545v20l356 439h219l-362 -449l362 -449h-219zM483 545v20l355 439h219l-363 -449l363 -449h-219z" />
<glyph unicode="&#xad;" horiz-adv-x="1044" d="M127 547v188h670v-188h-670z" />
<glyph unicode="&#xae;" horiz-adv-x="1679" d="M70 727q0 313 226 536.5t541.5 223.5t542 -223.5t226.5 -536.5t-226.5 -536.5t-542 -223.5t-541.5 223.5t-226 536.5zM227 727q0 -252 178.5 -427t432.5 -175q256 0 433 174t177 428t-177 428t-433 174q-254 0 -432.5 -174t-178.5 -428zM547 360h153v250l142 2l164 -252 h170l-134 203l-55 76q78 23 126 78t48 131q0 111 -89 168t-234 57h-291v-713zM702 719v244h113q176 0 176 -119q0 -125 -170 -125h-119z" />
<glyph unicode="&#xaf;" horiz-adv-x="1024" d="M207 1311v100h610v-100h-610z" />
<glyph unicode="&#xb0;" horiz-adv-x="915" d="M137 1399q0 106 71 179t185.5 73t187 -73t72.5 -177q0 -106 -71.5 -177t-188.5 -71q-115 0 -185.5 71t-70.5 175zM272 1399q0 -59 34 -93t89.5 -34t88 32.5t32.5 94t-33.5 97.5t-89.5 36q-53 0 -87 -36t-34 -97z" />
<glyph unicode="&#xb1;" d="M121 547v190h377v383h204v-383h377v-190h-377v-361h385v-186h-964v186h375v361h-377z" />
<glyph unicode="&#xb2;" horiz-adv-x="1118" d="M184 1337q166 160 379 160q141 0 237.5 -75.5t96.5 -211.5q0 -164 -225 -358l-223 -186l143 8h326v-142h-693v121l332 310q78 76 116 129t38 114q0 68 -44 107t-120 39q-125 0 -273 -125z" />
<glyph unicode="&#xb3;" horiz-adv-x="1140" d="M213 602l49 129q131 -76 281 -76q102 0 165.5 40t63.5 118q0 135 -221 148l-133 -19l-21 117q342 45 342 182q0 119 -192 119q-135 0 -262 -74l-58 117q55 41 151.5 67.5t182.5 26.5q156 0 257.5 -64.5t101.5 -181.5q0 -139 -168 -219q92 -20 146 -77.5t54 -145.5 q0 -143 -107.5 -219t-279.5 -76q-217 0 -352 88z" />
<glyph unicode="&#xb4;" horiz-adv-x="1024" d="M279 1206l235 340l225 -45l-321 -295h-139z" />
<glyph unicode="&#xb5;" horiz-adv-x="1193" d="M135 -403v1488h232v-718q4 -96 54 -151.5t136 -55.5q74 0 149.5 51t129.5 125v749h231v-1085h-217l-6 160q-141 -150 -266 -166q-117 -20 -211 29v-410z" />
<glyph unicode="&#x3bc;" horiz-adv-x="1193" d="M135 -403v1488h232v-718q4 -96 54 -151.5t136 -55.5q74 0 149.5 51t129.5 125v749h231v-1085h-217l-6 160q-141 -150 -266 -166q-117 -20 -211 29v-410z" />
<glyph unicode="&#xb6;" horiz-adv-x="1329" d="M98 987q0 229 146.5 355t394.5 126h272v-1468h-163v489h-183q-221 0 -344 141.5t-123 356.5zM1024 0v1468h166v-1468h-166z" />
<glyph unicode="&#xb7;" horiz-adv-x="481" d="M139 446v246h207v-246h-207z" />
<glyph unicode="&#xb8;" horiz-adv-x="1024" d="M303 -328h164q94 0 94 62q0 39 -23.5 52t-91.5 13h-81v201h100v-96q117 0 169 -40t52 -126q0 -170 -217 -170h-166v104z" />
<glyph unicode="&#xb9;" horiz-adv-x="1075" d="M203 1290q223 84 319 168h121v-807l78 4h123v-127h-588v125h141l78 -2v434l6 185q-72 -51 -235 -107z" />
<glyph unicode="&#xba;" horiz-adv-x="1167" d="M209 1139q0 172 100.5 273t278.5 101t279.5 -102t101.5 -272q0 -172 -101.5 -274.5t-279.5 -102.5t-278.5 102.5t-100.5 274.5zM395 1139q0 -117 49.5 -179.5t143.5 -62.5t144 62.5t50 179.5q0 115 -50 177t-144 62t-143.5 -62t-49.5 -177z" />
<glyph unicode="&#xbb;" horiz-adv-x="1120" d="M74 106l362 449l-362 449h219l354 -439v-20l-354 -439h-219zM487 106l363 449l-363 449h220l356 -439v-20l-356 -439h-220z" />
<glyph unicode="&#xbc;" horiz-adv-x="2074" d="M90 1290q223 84 320 168h120v-807l78 4h123v-127h-588v125h142l77 -2v434l7 185q-72 -51 -236 -107zM578 0l710 1466h174l-710 -1466h-174zM1165 156v118l396 672h184l-242 -430l-160 -225h332l6 270l152 12l-2 -282h127l-14 -135h-113v-166l-156 -10v176h-510z" />
<glyph unicode="&#xbd;" horiz-adv-x="2103" d="M90 1290q223 84 320 168h120v-807l78 4h123v-127h-588v125h142l77 -2v434l7 185q-72 -51 -236 -107zM578 0l710 1466h174l-710 -1466h-174zM1282 805q166 160 379 160q141 0 237.5 -76t96.5 -211q0 -164 -226 -359l-223 -186l144 8h325v-141h-692v121l332 309 q78 76 115.5 129t37.5 115q0 68 -44 106.5t-119 38.5q-125 0 -273 -125z" />
<glyph unicode="&#xbe;" horiz-adv-x="2162" d="M135 602l49 129q131 -76 281 -76q102 0 165.5 40t63.5 118q0 135 -221 148l-133 -19l-21 117q342 45 343 182q0 119 -193 119q-135 0 -262 -74l-57 117q55 41 151 67.5t182 26.5q156 0 257.5 -64.5t101.5 -181.5q0 -139 -168 -219q92 -20 146 -77.5t54 -145.5 q0 -143 -107.5 -219t-279.5 -76q-217 0 -352 88zM655 0l711 1466h174l-711 -1466h-174zM1243 156v118l397 672h185l-244 -430l-158 -225h330l6 270l154 12l-2 -282h127l-15 -135h-112v-166l-158 -10v176h-510z" />
<glyph unicode="&#xbf;" horiz-adv-x="1128" d="M113 410q0 94 45 170.5t109.5 127t129 94.5t109.5 95t45 107q0 31 -8 71h196q16 -66 17 -114q0 -78 -42 -141.5t-102 -106.5l-117 -84q-58 -41 -100.5 -94.5t-42.5 -114.5q0 -219 252 -219q158 0 303 157l127 -159q-209 -199 -446 -199q-205 0 -340 104.5t-135 305.5z M532 1223v245h220v-245h-220z" />
<glyph unicode="&#xc0;" horiz-adv-x="1320" d="M16 0l498 1468h303l486 -1468h-252l-115 344h-561l-115 -344h-244zM334 1884l227 45l234 -340h-138zM416 518h475l-158 512q-43 135 -65 242h-13q-12 -47 -71 -242z" />
<glyph unicode="&#xc1;" horiz-adv-x="1320" d="M16 0l498 1468h303l486 -1468h-252l-115 344h-561l-115 -344h-244zM416 518h475l-158 512q-43 135 -65 242h-13q-12 -47 -71 -242zM547 1589l235 340l226 -45l-322 -295h-139z" />
<glyph unicode="&#xc2;" horiz-adv-x="1320" d="M16 0l498 1468h303l486 -1468h-252l-115 344h-561l-115 -344h-244zM369 1589l221 340h143l219 -340h-112l-178 223l-179 -223h-114zM416 518h475l-158 512q-43 135 -65 242h-13q-12 -47 -71 -242z" />
<glyph unicode="&#xc3;" horiz-adv-x="1320" d="M16 0l498 1468h303l486 -1468h-252l-115 344h-561l-115 -344h-244zM356 1683q45 156 174 156q51 0 151.5 -30.5t129.5 -30.5q61 0 98 65l74 -33q-45 -162 -162 -161q-57 0 -160.5 31.5t-121.5 31.5q-55 0 -99 -65zM416 518h475l-158 512q-43 135 -65 242h-13 q-12 -47 -71 -242z" />
<glyph unicode="&#xc4;" horiz-adv-x="1320" d="M16 0l498 1468h303l486 -1468h-252l-115 344h-561l-115 -344h-244zM389 1634v221h203v-221h-203zM416 518h475l-158 512q-43 135 -65 242h-13q-12 -47 -71 -242zM745 1634v221h205v-221h-205z" />
<glyph unicode="&#xc5;" horiz-adv-x="1320" d="M16 0l498 1468h303l486 -1468h-252l-115 344h-561l-115 -344h-244zM416 518h475l-158 512q-43 135 -65 242h-13q-12 -47 -71 -242zM483 1775.5q0 77.5 55.5 133t131.5 55.5q78 0 133 -55.5t55 -133t-54 -132t-134 -54.5q-78 0 -132.5 54.5t-54.5 132zM584 1776 q0 -35 25.5 -60.5t60.5 -25.5t62.5 26.5t27.5 59.5q0 37 -26.5 63.5t-63.5 26.5q-35 0 -60.5 -26.5t-25.5 -63.5z" />
<glyph unicode="&#xc6;" horiz-adv-x="1939" d="M16 0l684 1468h1149l-18 -192h-684v-430h616v-180h-616v-471h713v-195h-955v344h-479l-156 -344h-254zM492 518h413v768h-74z" />
<glyph unicode="&#xc7;" horiz-adv-x="1275" d="M76 745q0 340 176 546t481 206q258 0 451 -141l-70 -176q-178 117 -379 116q-186 0 -295.5 -150.5t-109.5 -400.5q0 -262 111.5 -419.5t308.5 -157.5q203 0 385 160l92 -174q-231 -186 -492 -187v-63q117 0 169 -40t52 -126q0 -170 -217 -170h-166v104h164q94 0 94 62 q0 39 -23.5 52t-90.5 13h-82v174q-264 35 -411.5 246t-147.5 526z" />
<glyph unicode="&#xc8;" horiz-adv-x="1153" d="M139 0v1468h924l-19 -192h-663v-432h594v-180h-594v-469h692v-195h-934zM362 1884l228 45l233 -340h-137z" />
<glyph unicode="&#xc9;" horiz-adv-x="1153" d="M139 0v1468h924l-19 -192h-663v-432h594v-180h-594v-469h692v-195h-934zM408 1589l235 340l225 -45l-321 -295h-139z" />
<glyph unicode="&#xca;" horiz-adv-x="1153" d="M139 0v1468h924l-19 -192h-663v-432h594v-180h-594v-469h692v-195h-934zM305 1589l221 340h144l219 -340h-113l-178 223l-178 -223h-115z" />
<glyph unicode="&#xcb;" horiz-adv-x="1153" d="M139 0v1468h924l-19 -192h-663v-432h594v-180h-594v-469h692v-195h-934zM326 1634v221h202v-221h-202zM682 1634v221h205v-221h-205z" />
<glyph unicode="&#xcc;" horiz-adv-x="520" d="M-74 1884l228 45l233 -340h-137zM139 0v1468h242v-1468h-242z" />
<glyph unicode="&#xcd;" horiz-adv-x="520" d="M139 0v1468h242v-1468h-242zM143 1589l236 340l225 -45l-321 -295h-140z" />
<glyph unicode="&#xce;" horiz-adv-x="520" d="M-27 1589l222 340h143l219 -340h-113l-178 223l-178 -223h-115zM139 0v1468h242v-1468h-242z" />
<glyph unicode="&#xcf;" horiz-adv-x="520" d="M-18 1634v221h202v-221h-202zM139 0v1468h242v-1468h-242zM338 1634v221h205v-221h-205z" />
<glyph unicode="&#xd0;" horiz-adv-x="1386" d="M-39 653v154h178v661h496q317 0 496.5 -198.5t179.5 -521.5q0 -328 -180.5 -538t-493.5 -210h-498v653h-178zM381 195h227q209 0 329 152.5t120 400.5q0 242 -120 385t-329 143h-227v-469h315v-154h-315v-458z" />
<glyph unicode="&#xd1;" horiz-adv-x="1402" d="M139 0v1468h273l618 -1120h8l-2 1120h228v-1468h-267l-626 1128h-6l2 -1128h-228zM393 1683q45 156 174 156q51 0 151.5 -30.5t129.5 -30.5q61 0 98 65l74 -33q-45 -162 -162 -161q-57 0 -160.5 31.5t-122.5 31.5q-55 0 -98 -65z" />
<glyph unicode="&#xd2;" horiz-adv-x="1464" d="M76 739q0 338 178 548t477 210q301 0 479.5 -210t178.5 -550q0 -342 -176.5 -556t-479.5 -214t-480 215t-177 557zM330 741q0 -252 106.5 -412.5t297 -160.5t296 159.5t105.5 411.5q0 244 -107.5 400.5t-296.5 156.5q-186 0 -293.5 -155.5t-107.5 -399.5zM449 1884 l227 45l233 -340h-137z" />
<glyph unicode="&#xd3;" horiz-adv-x="1464" d="M76 739q0 -342 177 -557t480 -215t479.5 214t176.5 556q0 340 -178.5 550t-479.5 210q-299 0 -477 -210t-178 -548zM330 741q0 244 107.5 399.5t293.5 155.5q188 0 296 -156.5t108 -400.5q0 -252 -105.5 -411.5t-296 -159.5t-297 160.5t-106.5 412.5zM559 1589l236 340 l225 -45l-322 -295h-139z" />
<glyph unicode="&#xd4;" horiz-adv-x="1464" d="M76 739q0 -342 177 -557t480 -215t479.5 214t176.5 556q0 340 -178.5 550t-479.5 210q-299 0 -477 -210t-178 -548zM330 741q0 244 107.5 399.5t293.5 155.5q188 0 296 -156.5t108 -400.5q0 -252 -105.5 -411.5t-296 -159.5t-297 160.5t-106.5 412.5zM446 1589l222 340 h143l219 -340h-112l-179 223l-178 -223h-115z" />
<glyph unicode="&#xd5;" horiz-adv-x="1464" d="M76 739q0 -342 177 -557t480 -215t479.5 214t176.5 556q0 340 -178.5 550t-479.5 210q-299 0 -477 -210t-178 -548zM330 741q0 244 107.5 399.5t293.5 155.5q188 0 296 -156.5t108 -400.5q0 -252 -105.5 -411.5t-296 -159.5t-297 160.5t-106.5 412.5zM424 1683 q45 156 174 156q51 0 151.5 -30.5t129.5 -30.5q61 0 98 65l74 -33q-45 -162 -162 -161q-57 0 -160.5 31.5t-122.5 31.5q-55 0 -98 -65z" />
<glyph unicode="&#xd6;" horiz-adv-x="1464" d="M76 739q0 338 178 548t477 210q301 0 479.5 -210t178.5 -550q0 -342 -176.5 -556t-479.5 -214t-480 215t-177 557zM330 741q0 -252 106.5 -412.5t297 -160.5t296 159.5t105.5 411.5q0 244 -107.5 400.5t-296.5 156.5q-186 0 -293.5 -155.5t-107.5 -399.5zM459 1634v221 h203v-221h-203zM815 1634v221h205v-221h-205z" />
<glyph unicode="&#xd7;" horiz-adv-x="1206" d="M150 279l315 315l-313 313l135 135l311 -315l315 315l146 -145l-316 -315l316 -316l-133 -135l-316 318l-315 -316z" />
<glyph unicode="&#xd8;" horiz-adv-x="1464" d="M76 739q0 338 178 548t477 210q164 0 295 -65l80 151h145l-116 -223q123 -98 188.5 -259t65.5 -364q0 -342 -176.5 -554t-479.5 -212q-158 0 -287 62l-100 -193h-143l135 260q-262 209 -262 639zM330 741q0 -272 119 -428l479 926q-86 57 -197 57q-186 0 -293.5 -155.5 t-107.5 -399.5zM545 223q82 -53 188 -53q190 0 297 158.5t107 410.5t-113 406z" />
<glyph unicode="&#xd9;" horiz-adv-x="1339" d="M123 498v970h242v-968q0 -147 80.5 -238.5t224 -91.5t224.5 96t81 246v956h242v-960q0 -240 -151 -388.5t-396 -148.5q-248 0 -397.5 143.5t-149.5 383.5zM377 1884l227 45l234 -340h-138z" />
<glyph unicode="&#xda;" horiz-adv-x="1339" d="M123 498q0 -240 149.5 -383.5t397.5 -143.5q246 0 396.5 148.5t150.5 388.5v960h-242v-956q0 -150 -81 -246t-224.5 -96t-224 91t-80.5 239v968h-242v-970zM549 1589l235 340l226 -45l-322 -295h-139z" />
<glyph unicode="&#xdb;" horiz-adv-x="1339" d="M123 498q0 -240 149.5 -383.5t397.5 -143.5q246 0 396.5 148.5t150.5 388.5v960h-242v-956q0 -150 -81 -246t-224.5 -96t-224 91t-80.5 239v968h-242v-970zM381 1589l221 340h143l220 -340h-113l-178 223l-178 -223h-115z" />
<glyph unicode="&#xdc;" horiz-adv-x="1339" d="M123 498v970h242v-968q0 -147 80.5 -238.5t224 -91.5t224.5 96t81 246v956h242v-960q0 -240 -151 -388.5t-396 -148.5q-248 0 -397.5 143.5t-149.5 383.5zM393 1634v221h203v-221h-203zM750 1634v221h204v-221h-204z" />
<glyph unicode="&#xdd;" horiz-adv-x="1234" d="M20 1468q190 -375 474 -870v-598h241v598q285 496 479 870h-249l-347 -651h-8l-338 651h-252zM516 1589l236 340l225 -45l-322 -295h-139z" />
<glyph unicode="&#xde;" horiz-adv-x="1265" d="M139 0v1466h240v-223h237q258 0 417 -123t159 -358q0 -233 -152.5 -366.5t-402.5 -133.5h-256v-262h-242zM381 453h166q399 0 399 301q0 88 -30.5 148.5t-89 91t-122 43t-147.5 12.5h-176v-596z" />
<glyph unicode="&#xdf;" horiz-adv-x="1253" d="M125 0v1085q0 190 141.5 301t343.5 111q219 0 343 -102.5t124 -274.5q0 -139 -93 -227t-249 -119q457 -70 457 -430q0 -182 -121 -278.5t-295 -96.5q-190 0 -334 88l62 166q104 -72 219 -71q109 0 170 56t61 159q0 139 -102 210.5t-315 94.5v178q143 18 229 83.5 t86 162.5q0 115 -64.5 174t-183.5 59q-104 0 -177 -64.5t-73 -166.5v-1098h-229z" />
<glyph unicode="&#xe0;" horiz-adv-x="1095" d="M61 287q0 106 48.5 179t146.5 112.5t214 58t284 25.5v65q0 106 -48.5 150.5t-148.5 44.5q-160 0 -414 -99l-53 170q76 41 225.5 79t253.5 38q205 0 309.5 -83t104.5 -275v-473q0 -111 23 -275l-220 -16q-16 66 -26 176q-178 -186 -379 -187q-137 0 -228.5 87.5 t-91.5 222.5zM297 309q0 -72 49 -120t123 -48t157 55.5t128 129.5v198q-104 -2 -178 -11t-141.5 -30.5t-102.5 -66t-35 -107.5zM311 1501l228 45l233 -340h-137z" />
<glyph unicode="&#xe1;" horiz-adv-x="1095" d="M61 287q0 106 48.5 179t146.5 112.5t214 58t284 25.5v65q0 106 -48.5 150.5t-148.5 44.5q-160 0 -414 -99l-53 170q76 41 225.5 79t253.5 38q205 0 309.5 -83t104.5 -275v-473q0 -111 23 -275l-220 -16q-16 66 -26 176q-178 -186 -379 -187q-137 0 -228.5 87.5 t-91.5 222.5zM297 309q0 -72 49 -120t123 -48t157 55.5t128 129.5v198q-104 -2 -178 -11t-141.5 -30.5t-102.5 -66t-35 -107.5zM385 1206l236 340l225 -45l-322 -295h-139z" />
<glyph unicode="&#xe2;" horiz-adv-x="1095" d="M61 287q0 106 48.5 179t146.5 112.5t214 58t284 25.5v65q0 106 -48.5 150.5t-148.5 44.5q-160 0 -414 -99l-53 170q76 41 225.5 79t253.5 38q205 0 309.5 -83t104.5 -275v-473q0 -111 23 -275l-220 -16q-16 66 -26 176q-178 -186 -379 -187q-137 0 -228.5 87.5 t-91.5 222.5zM264 1206l221 340h144l219 -340h-113l-178 224l-178 -224h-115zM297 309q0 -72 49 -120t123 -48t157 55.5t128 129.5v198q-104 -2 -178 -11t-141.5 -30.5t-102.5 -66t-35 -107.5z" />
<glyph unicode="&#xe3;" horiz-adv-x="1095" d="M61 287q0 106 48.5 179t146.5 112.5t214 58t284 25.5v65q0 106 -48.5 150.5t-148.5 44.5q-160 0 -414 -99l-53 170q76 41 225.5 79t253.5 38q205 0 309.5 -83t104.5 -275v-473q0 -111 23 -275l-220 -16q-16 66 -26 176q-178 -186 -379 -187q-137 0 -228.5 87.5 t-91.5 222.5zM244 1300q45 156 174 156q51 0 151.5 -30.5t128.5 -30.5q61 0 99 65l73 -33q-45 -162 -161 -161q-57 0 -161 31.5t-122 31.5q-55 0 -98 -65zM297 309q0 -72 49 -120t123 -48t157 55.5t128 129.5v198q-104 -2 -178 -11t-141.5 -30.5t-102.5 -66t-35 -107.5z" />
<glyph unicode="&#xe4;" horiz-adv-x="1095" d="M61 287q0 106 48.5 179t146.5 112.5t214 58t284 25.5v65q0 106 -48.5 150.5t-148.5 44.5q-160 0 -414 -99l-53 170q76 41 225.5 79t253.5 38q205 0 309.5 -83t104.5 -275v-473q0 -111 23 -275l-220 -16q-16 66 -26 176q-178 -186 -379 -187q-137 0 -228.5 87.5 t-91.5 222.5zM276 1251v222h203v-222h-203zM297 309q0 -72 49 -120t123 -48t157 55.5t128 129.5v198q-104 -2 -178 -11t-141.5 -30.5t-102.5 -66t-35 -107.5zM633 1251v222h205v-222h-205z" />
<glyph unicode="&#xe5;" horiz-adv-x="1095" d="M61 287q0 106 48.5 179t146.5 112.5t214 58t284 25.5v65q0 106 -48.5 150.5t-148.5 44.5q-160 0 -414 -99l-53 170q76 41 225.5 79t253.5 38q205 0 309.5 -83t104.5 -275v-473q0 -111 23 -275l-220 -16q-16 66 -26 176q-178 -186 -379 -187q-137 0 -228.5 87.5 t-91.5 222.5zM297 309q0 -72 49 -120t123 -48t157 55.5t128 129.5v198q-104 -2 -178 -11t-141.5 -30.5t-102.5 -66t-35 -107.5zM371 1392.5q0 77.5 55 133t131 55.5q78 0 133 -55.5t55 -133t-54 -132t-134 -54.5q-78 0 -132 54.5t-54 132zM471 1393q0 -35 25.5 -60.5 t60.5 -25.5t62.5 26.5t27.5 59.5q0 37 -26.5 63.5t-63.5 26.5q-35 0 -60.5 -26.5t-25.5 -63.5z" />
<glyph unicode="&#xe6;" horiz-adv-x="1789" d="M61 287q0 106 48.5 179t146.5 112.5t214 58t284 25.5v65q0 104 -49.5 149.5t-147.5 45.5q-154 0 -414 -101l-53 172q74 41 221.5 78t251.5 39q117 0 212 -42t120 -134q135 176 362 176q219 0 346.5 -127t127.5 -346q0 -90 -15 -166h-725q4 -152 81 -232.5t226 -80.5 q162 0 342 82l58 -166q-84 -41 -205 -70t-219 -29q-305 0 -428 220q-154 -217 -455 -218q-139 0 -234.5 87.5t-95.5 222.5zM297 309q0 -86 61 -130q50 -36 115 -36q15 0 31 2q147 14 250 185v194q-104 -2 -178 -11t-141.5 -30.5t-102.5 -66t-35 -107.5zM991 608h510 q4 33 4 51q0 127 -64.5 204t-183.5 77q-125 0 -193.5 -94.5t-72.5 -237.5z" />
<glyph unicode="&#xe7;" horiz-adv-x="972" d="M63 543q0 260 130.5 413.5t367.5 153.5q96 0 204.5 -30.5t156.5 -61.5l-56 -170q-156 74 -278 74q-141 0 -214 -104.5t-73 -276.5q0 -174 71.5 -274.5t215.5 -100.5q133 0 289 86l57 -170q-59 -41 -170 -73t-203 -32h-4v-73q117 0 169 -40t52 -126q0 -170 -217 -170h-166 v104h164q94 0 94 62q0 39 -23.5 52t-90.5 13h-82v187q-190 31 -292 179.5t-102 377.5z" />
<glyph unicode="&#xe8;" horiz-adv-x="1101" d="M63 532q0 248 136.5 413t367.5 165q219 0 346 -127t127 -346q0 -100 -12 -166h-727q10 -315 309 -315q160 0 340 84l60 -166q-84 -41 -205 -70t-221 -29q-254 0 -387.5 147.5t-133.5 409.5zM272 1501l228 45l233 -340h-137zM303 608h506q4 33 4 51q0 127 -63.5 204 t-182.5 77q-125 0 -193.5 -94.5t-70.5 -237.5z" />
<glyph unicode="&#xe9;" horiz-adv-x="1101" d="M63 532q0 248 136.5 413t367.5 165q219 0 346 -127t127 -346q0 -100 -12 -166h-727q10 -315 309 -315q160 0 340 84l60 -166q-84 -41 -205 -70t-221 -29q-254 0 -387.5 147.5t-133.5 409.5zM303 608h506q4 33 4 51q0 127 -63.5 204t-182.5 77q-125 0 -193.5 -94.5 t-70.5 -237.5zM408 1206l235 340l225 -45l-321 -295h-139z" />
<glyph unicode="&#xea;" horiz-adv-x="1101" d="M63 532q0 248 136.5 413t367.5 165q219 0 346 -127t127 -346q0 -100 -12 -166h-727q10 -315 309 -315q160 0 340 84l60 -166q-84 -41 -205 -70t-221 -29q-254 0 -387.5 147.5t-133.5 409.5zM281 1206l221 340h143l219 -340h-112l-179 224l-178 -224h-114zM303 608h506 q4 33 4 51q0 127 -63.5 204t-182.5 77q-125 0 -193.5 -94.5t-70.5 -237.5z" />
<glyph unicode="&#xeb;" horiz-adv-x="1099" d="M63 532q0 248 136.5 413t367.5 165q219 0 346 -127t127 -346q0 -100 -12 -166h-727q10 -315 309 -315q160 0 340 84l60 -166q-84 -41 -205 -70t-221 -29q-254 0 -387.5 147.5t-133.5 409.5zM287 1251v222h202v-222h-202zM303 608h506q4 33 4 51q0 127 -63.5 204 t-182.5 77q-125 0 -193.5 -94.5t-70.5 -237.5zM643 1251v222h205v-222h-205z" />
<glyph unicode="&#xec;" horiz-adv-x="481" d="M-113 1501l228 45l233 -340h-137zM125 0v1085h231v-1085h-231z" />
<glyph unicode="&#xed;" horiz-adv-x="481" d="M125 0v1085h231v-1085h-231zM150 1206l235 340l225 -45l-321 -295h-139z" />
<glyph unicode="&#xee;" horiz-adv-x="481" d="M-31 1206l221 340h144l219 -340h-113l-178 224l-178 -224h-115zM125 0v1085h231v-1085h-231z" />
<glyph unicode="&#xef;" horiz-adv-x="481" d="M-39 1251v222h203v-222h-203zM125 0v1085h231v-1085h-231zM317 1251v222h205v-222h-205z" />
<glyph unicode="&#xf0;" horiz-adv-x="1210" d="M55 494q0 207 130 329.5t329 122.5q201 0 389 -205q-23 215 -143 416l-285 -108l-63 155l243 99q-72 86 -161 163l180 68q86 -68 166 -158l229 92l66 -165l-187 -72q193 -303 193 -596q0 -313 -153.5 -486.5t-393.5 -173.5q-231 0 -385 144t-154 375zM295 489 q0 -141 79 -235t212 -94q141 0 229 118.5t86 303.5q-63 84 -153.5 142t-174.5 58q-127 0 -202.5 -80t-75.5 -213z" />
<glyph unicode="&#xf1;" horiz-adv-x="1177" d="M125 0v1085h221l-8 -165q182 190 371 190q158 0 259 -104.5t101 -278.5v-727h-229v698q0 98 -52.5 161t-144.5 63q-72 0 -154.5 -52.5t-134.5 -121.5v-748h-229zM285 1300q45 156 174 156q51 0 151.5 -30.5t128.5 -30.5q61 0 99 65l73 -33q-45 -162 -161 -161 q-57 0 -161 31.5t-122 31.5q-55 0 -98 -65z" />
<glyph unicode="&#xf2;" horiz-adv-x="1169" d="M63 543q0 260 137.5 412.5t383 152.5t384 -153.5t138.5 -411.5t-138.5 -413t-384 -155t-383 154t-137.5 414zM289 1501l227 45l234 -340h-138zM301 543q0 -184 72.5 -285.5t210 -101.5t211 101t73.5 286q0 182 -73.5 284.5t-211 102.5t-210 -102.5t-72.5 -284.5z" />
<glyph unicode="&#xf3;" horiz-adv-x="1169" d="M63 543q0 -260 137.5 -414t383 -154t384 155t138.5 413t-138.5 411.5t-384 153.5t-383 -152.5t-137.5 -412.5zM301 543q0 182 72.5 284.5t210 102.5t211 -102.5t73.5 -284.5q0 -184 -73.5 -285.5t-211 -101.5t-210 101.5t-72.5 285.5zM459 1206l235 340l226 -45 l-322 -295h-139z" />
<glyph unicode="&#xf4;" horiz-adv-x="1169" d="M63 543q0 -260 137.5 -414t383 -154t384 155t138.5 413t-138.5 411.5t-384 153.5t-383 -152.5t-137.5 -412.5zM295 1206l221 340h143l220 -340h-113l-178 224l-178 -224h-115zM301 543q0 182 72.5 284.5t210 102.5t211 -102.5t73.5 -284.5q0 -184 -73.5 -285.5 t-211 -101.5t-210 101.5t-72.5 285.5z" />
<glyph unicode="&#xf5;" horiz-adv-x="1169" d="M63 543q0 -260 137.5 -414t383 -154t384 155t138.5 413t-138.5 411.5t-384 153.5t-383 -152.5t-137.5 -412.5zM276 1300q45 156 175 156q51 0 151 -30.5t129 -30.5q61 0 98 65l74 -33q-45 -162 -162 -161q-57 0 -160.5 31.5t-121.5 31.5q-55 0 -99 -65zM301 543 q0 182 72.5 284.5t210 102.5t211 -102.5t73.5 -284.5q0 -184 -73.5 -285.5t-211 -101.5t-210 101.5t-72.5 285.5z" />
<glyph unicode="&#xf6;" horiz-adv-x="1169" d="M63 543q0 260 137.5 412.5t383 152.5t384 -153.5t138.5 -411.5t-138.5 -413t-384 -155t-383 154t-137.5 414zM301 543q0 -184 72.5 -285.5t210 -101.5t211 101t73.5 286q0 182 -73.5 284.5t-211 102.5t-210 -102.5t-72.5 -284.5zM307 1251v222h203v-222h-203zM664 1251 v222h204v-222h-204z" />
<glyph unicode="&#xf7;" horiz-adv-x="1206" d="M188 547v190h830v-190h-830zM496 178v246h206v-246h-206zM498 868v246h207v-246h-207z" />
<glyph unicode="&#xf8;" horiz-adv-x="1169" d="M63 543q0 260 137.5 412.5t383.5 152.5q84 0 153 -18l66 161h143l-84 -213q119 -68 181.5 -195.5t62.5 -299.5q0 -258 -138.5 -413t-383.5 -155q-59 0 -135 15l-58 -150h-145l76 195q-125 66 -192 198t-67 310zM301 543q0 -215 96 -316l273 691q-39 12 -86 12 q-137 0 -210 -102.5t-73 -284.5zM516 162q31 -6 68 -6q137 0 210.5 101t73.5 286q0 195 -84 297z" />
<glyph unicode="&#xf9;" horiz-adv-x="1167" d="M113 354v731h229v-704q0 -102 49 -159.5t144 -57.5q74 0 149.5 51t126.5 125v745h229v-1085h-213l-6 164q-180 -188 -360 -189q-162 0 -255 99.5t-93 279.5zM307 1501l228 45l233 -340h-137z" />
<glyph unicode="&#xfa;" horiz-adv-x="1167" d="M113 354v731h229v-704q0 -102 49 -159.5t144 -57.5q74 0 149.5 51t126.5 125v745h229v-1085h-213l-6 164q-180 -188 -360 -189q-162 0 -255 99.5t-93 279.5zM438 1206l236 340l225 -45l-321 -295h-140z" />
<glyph unicode="&#xfb;" horiz-adv-x="1167" d="M113 354v731h229v-704q0 -102 49 -159.5t144 -57.5q74 0 149.5 51t126.5 125v745h229v-1085h-213l-6 164q-180 -188 -360 -189q-162 0 -255 99.5t-93 279.5zM297 1206l221 340h144l219 -340h-113l-178 224l-178 -224h-115z" />
<glyph unicode="&#xfc;" horiz-adv-x="1167" d="M113 354v731h229v-704q0 -102 49 -159.5t144 -57.5q74 0 149.5 51t126.5 125v745h229v-1085h-213l-6 164q-180 -188 -360 -189q-162 0 -255 99.5t-93 279.5zM309 1251v222h203v-222h-203zM666 1251v222h204v-222h-204z" />
<glyph unicode="&#xfd;" horiz-adv-x="1091" d="M47 1085h250q119 -426 260 -874h12q174 582 252 874h248q-147 -547 -350 -1085q-86 -227 -178 -322.5t-252 -95.5q-137 0 -226 37l43 176q84 -27 156 -26q158 0 225 231l-81 8q-156 405 -359 1077zM467 1206l235 340l226 -45l-322 -295h-139z" />
<glyph unicode="&#xfe;" horiz-adv-x="1183" d="M125 -412v1905l223 27v-435l-6 -163h6q170 188 326 188q207 0 320.5 -151.5t113.5 -405.5q0 -270 -122 -424t-349 -154q-76 0 -158 29t-135 72l12 -187v-286zM356 229q111 -78 226 -77q289 0 288 411q0 166 -65.5 265.5t-194.5 99.5q-66 0 -135 -55.5t-119 -127.5v-516z " />
<glyph unicode="&#xff;" horiz-adv-x="1091" d="M47 1085h250q119 -426 260 -874h12q174 582 252 874h248q-147 -547 -350 -1085q-86 -227 -178 -322.5t-252 -95.5q-137 0 -226 37l43 176q84 -27 156 -26q158 0 225 231l-81 8q-156 405 -359 1077zM285 1251v222h202v-222h-202zM641 1251v222h205v-222h-205z" />
<glyph unicode="&#x152;" horiz-adv-x="2181" d="M76 739q0 338 178 548t477 210q266 0 416 -215v186h944l-18 -192h-687v-432h617v-178h-617v-471h715v-195h-954v190q-141 -219 -414 -219q-303 0 -480 213t-177 555zM330 741q0 -252 106.5 -411.5t297 -159.5t297 158.5t106.5 410.5q0 244 -108.5 400.5t-297.5 156.5 q-186 0 -293.5 -155.5t-107.5 -399.5z" />
<glyph unicode="&#x153;" horiz-adv-x="1908" d="M63 543q0 258 139.5 411.5t385.5 153.5q274 0 407 -209q129 211 379 211q219 0 346 -127t127 -346q0 -100 -12 -166h-725q2 -154 80 -233.5t227 -79.5q164 0 340 82l60 -166q-84 -41 -205 -70t-221 -29q-279 0 -404 197q-137 -197 -399 -197q-246 0 -385.5 155 t-139.5 413zM305 543q0 -184 73 -284.5t210 -100.5q141 0 212.5 101t71.5 283.5t-72.5 285t-211.5 102.5q-137 0 -210 -102.5t-73 -284.5zM1112 608h506q4 33 4 51q0 127 -64.5 204t-183.5 77q-125 0 -192.5 -95.5t-69.5 -236.5z" />
<glyph unicode="&#x178;" horiz-adv-x="1234" d="M20 1468h252l338 -651h8l347 651h249q-195 -375 -479 -870v-598h-241v598q-284 495 -474 870zM342 1634v221h203v-221h-203zM698 1634v221h205v-221h-205z" />
<glyph unicode="&#x2c6;" horiz-adv-x="1024" d="M219 1206l221 340h144l219 -340h-113l-178 224l-178 -224h-115z" />
<glyph unicode="&#x2dc;" horiz-adv-x="1024" d="M199 1300q45 156 174 156q51 0 151.5 -30.5t128.5 -30.5q61 0 99 65l73 -33q-45 -162 -161 -161q-57 0 -161 31.5t-122 31.5q-55 0 -98 -65z" />
<glyph unicode="&#x2013;" horiz-adv-x="1024" d="M0 522v154h1024v-154h-1024z" />
<glyph unicode="&#x2014;" horiz-adv-x="2048" d="M0 522v154h2046v-154h-2046z" />
<glyph unicode="&#x2018;" horiz-adv-x="466" d="M111 1061l139 483l131 -24l-66 -459h-204z" />
<glyph unicode="&#x2019;" horiz-adv-x="466" d="M88 1030l66 459h204l-139 -483z" />
<glyph unicode="&#x201a;" horiz-adv-x="466" d="M84 -213l66 459h204l-139 -484z" />
<glyph unicode="&#x201c;" horiz-adv-x="798" d="M133 1061l139 483l131 -24l-65 -459h-205zM436 1061l139 483l132 -24l-66 -459h-205z" />
<glyph unicode="&#x201d;" horiz-adv-x="798" d="M96 1030l66 459h205l-140 -483zM401 1030l66 459h205l-140 -483z" />
<glyph unicode="&#x201e;" horiz-adv-x="798" d="M94 -213l66 459h205l-140 -484zM397 -213l66 459h205l-140 -484z" />
<glyph unicode="&#x2022;" horiz-adv-x="798" />
<glyph unicode="&#x2026;" horiz-adv-x="1714" d="M131 0v246h207v-246h-207zM762 0v246h207v-246h-207zM1393 0v246h206v-246h-206z" />
<glyph unicode="&#x2039;" horiz-adv-x="677" d="M49 545v20l357 439h219l-363 -449l363 -449h-219z" />
<glyph unicode="&#x203a;" horiz-adv-x="677" d="M72 106l362 449l-362 449h219l356 -439v-20l-356 -439h-219z" />
<glyph unicode="&#x20ac;" horiz-adv-x="1206" d="M-74 563v115h158q-2 23 -2 67v29h-156v115h164q35 281 207 444.5t442 163.5q258 0 451 -141l-70 -176q-178 117 -379 116q-158 0 -262 -109.5t-133 -297.5h658l-46 -115h-622v-29q0 -45 2 -67h594l-45 -115h-535q35 -184 139.5 -289.5t264.5 -105.5q203 0 385 160 l92 -174q-231 -186 -494 -187q-264 0 -432 162t-211 434h-170z" />
<glyph unicode="&#x2122;" horiz-adv-x="2160" d="M137 1329v139h983l281 -626l258 626h231v-886h-190v606l-240 -582h-139l-262 572v-596h-185v747h-260v-747h-190v747h-287z" />
<glyph unicode="&#xe000;" horiz-adv-x="1085" d="M0 1085h1085v-1085h-1085v1085z" />
<glyph unicode="&#xfb01;" horiz-adv-x="1091" d="M31 920l2 129l98 32v101q0 178 105.5 265t281.5 87q199 0 402 -86l-46 -162q-172 72 -329 72q-84 0 -141.5 -46t-57.5 -136v-91h621v-1085h-215v920h-406v-920h-215v920h-100z" />
<glyph unicode="&#xfb02;" horiz-adv-x="1120" d="M27 913v134l104 32v113q0 164 93 252t259 88q70 0 303 -31l209 19v-1520h-229v1319q-127 33 -258 33q-152 0 -152 -185v-82h219v-172h-217v-913h-229v913h-102z" />
<glyph unicode="&#xfb03;" horiz-adv-x="1873" d="M29 911v138l118 28v107q0 164 86 256t244 92q137 0 240 -37l-29 -166q-82 23 -151 23q-164 0 -164 -191v-76h291v-174h-289v-911h-230v911h-116zM725 911v138l119 28v107q0 164 86 256t244 92q137 0 239 -37l-29 -166q-82 23 -151 23q-164 0 -164 -191v-76h291v-174h-289 v-911h-229v911h-117zM1513 1245v219h238v-219h-238zM1518 0v1085h229v-1085h-229z" />
<glyph unicode="&#xfb04;" horiz-adv-x="1873" d="M29 911v138l118 28v107q0 164 86 256t244 92q137 0 240 -37l-29 -166q-82 23 -151 23q-164 0 -164 -191v-76h291v-174h-289v-911h-230v911h-116zM725 911v138l119 28v107q0 164 86 256t244 92q137 0 239 -37l-29 -166q-82 23 -151 23q-164 0 -164 -191v-76h291v-174h-289 v-911h-229v911h-117zM1518 0v1493l229 23v-1516h-229z" />
<glyph horiz-adv-x="0" />
</font>
</defs>
</svg>
