<?xml version="1.0" standalone="no"?>
<!DOCTYPE svg PUBLIC "-//W3C//DTD SVG 1.1//EN" "http://www.w3.org/Graphics/SVG/1.1/DTD/svg11.dtd" >
<svg xmlns="http://www.w3.org/2000/svg">
<metadata>Generated by IcoMoon</metadata>
<defs>
<font id="corriere-icon" horiz-adv-x="1024">
<font-face units-per-em="1024" ascent="960" descent="-64" />
<missing-glyph horiz-adv-x="1024" />
<glyph unicode="&#x20;" horiz-adv-x="512" d="" />
<glyph unicode="&#xe601;" glyph-name="mail" horiz-adv-x="1515" d="M71.97 885.498v-901.544l445.938 446.015-445.938 455.529zM1450.679 885.498v-901.544l-445.938 446.015 445.938 455.529zM985.483 393.984h-39.131l-75.346-75.346h-224.273l-75.346 75.346h-36.676l-455.529-455.606 1371.497-2.379zM69.438 937.519l582.666-582.666h213.378l580.21 580.287-1376.254 2.379z" />
<glyph unicode="&#xe603;" glyph-name="arrow_left" horiz-adv-x="585" d="M465.474 960c-30.944 0-61.888-12.918-85.096-38.753l-345.566-380.743c-46.489-51.233-46.489-133.775 0-185.007l345.493-380.743c46.635-51.452 122.609-51.744 169.608-0.73 46.927 51.087 47.146 134.286 0.584 185.737l-261.492 288.13 261.492 288.203c46.635 51.452 46.343 134.577-0.584 185.664-23.354 25.543-53.933 38.242-84.439 38.242z" />
<glyph unicode="&#xe604;" glyph-name="arrow_right" horiz-adv-x="585" d="M119.908-64.073c30.944 0 61.888 12.918 85.169 38.753l345.493 380.743c46.489 51.233 46.489 133.775 0 185.007l-345.566 380.743c-46.635 51.452-122.609 51.744-169.535 0.73-47-51.087-47.219-134.286-0.584-185.737l261.492-288.13-261.492-288.203c-46.708-51.452-46.416-134.577 0.584-185.664 23.354-25.543 53.933-38.242 84.439-38.242z" />
<glyph unicode="&#xe605;" glyph-name="play" d="M520.428 947.358c-280.23 0-505.679-225.449-505.679-505.679s225.449-505.679 505.679-505.679c280.23 0 505.679 225.449 505.679 505.679s-225.449 505.679-505.679 505.679zM419.292 214.123v455.111l303.407-227.556-303.407-227.556z" />
<glyph unicode="&#xe609;" glyph-name="square" d="M128 832h768v-768h-768z" />
<glyph unicode="&#xe60a;" glyph-name="square-v1" d="M128 832h768v-768h-768z" />
<glyph unicode="&#xe60b;" glyph-name="lente" horiz-adv-x="910" d="M547.325 960c-200.412 0-362.898-162.486-362.898-362.822 0-88.293 32.799-168.065 85.126-230.949l15.985 18.925 135.191-97.491-18.925-22.544c44.636-19.604 93.646-30.838 145.521-30.838 200.412 0 362.822 162.486 362.822 362.822 0 200.412-162.41 362.898-362.822 362.898zM543.781 347.379c-136.021 0-246.255 110.234-246.255 246.255s110.234 246.255 246.255 246.255 246.255-110.234 246.255-246.255-110.234-246.255-246.255-246.255zM0 47.591l285.613 337.488 135.116-97.416-295.038-351.588-125.691 111.516z" />
<glyph unicode="&#xe61d;" glyph-name="menu_mob" horiz-adv-x="1856" d="M0-64h1536v170.667h-1536v-170.667zM0 362.667h1536v170.667h-1536v-170.667zM0 960v-170.667h1536v170.667h-1536z" />
<glyph unicode="&#xe622;" glyph-name="refresh" horiz-adv-x="815" d="M123.296 152.088l103.775 82.944c-13.419 9.007-8.271 3.422-21.077 14.192-108.493 91.275-97.872 306.506 0.003 404.381 42.281 42.281 127.145 81.399 182.284 87.027l2.858-101.737 207.895 157.801-206.505 163.302-0.137-101.176c-98.611-5.164-195.66-45.086-270.978-120.407-161.9-161.9-161.884-424.395-0.019-586.26 6.052-6.043-4.45 5.525 1.901-0.069zM691.889 743.915l-103.778-82.944c13.419-9.007 8.271-3.422 21.077-14.192 108.493-91.275 97.872-306.503-0.003-404.378-42.281-42.284-127.145-81.399-182.284-87.030l-2.855 101.737-207.901-157.798 206.508-163.305 0.134 101.179c98.611 5.164 195.66 45.089 270.978 120.407 161.9 161.903 161.884 424.395 0.019 586.263-6.046 6.037 4.457-5.532-1.895 0.062z" />
<glyph unicode="&#xe623;" glyph-name="lente2" horiz-adv-x="1028" d="M1009.324 45.545l-326.243 326.21c-1.048 1.081-2.293 1.834-3.407 2.784-24.405-35.183-54.805-65.812-89.562-90.774 0.786-0.884 1.409-1.9 2.26-2.752l326.243-326.243c25.028-25.028 65.648-25.028 90.676 0 25.028 25.093 25.028 65.714 0.033 90.774zM679.642 374.539c41.833 60.309 66.5 133.426 66.5 212.374 0 206.051-166.97 373.087-373.022 373.087s-373.12-167.036-373.12-373.087 167.069-373.153 373.12-373.153c81.045 0 155.8 26.141 216.96 70.005 34.757 24.962 65.157 55.624 89.562 90.774zM373.12 341.191c-135.686 0-245.689 110.003-245.689 245.689 0 135.719 110.003 245.689 245.689 245.689s245.624-109.97 245.624-245.689c0-135.653-109.97-245.689-245.624-245.689z" />
<glyph unicode="&#xe624;" glyph-name="close" d="M1014.662 137.34c-0.004 0.004-0.008 0.008-0.012 0.010l-310.644 310.65 310.644 310.65c0.004 0.004 0.008 0.006 0.012 0.010 3.344 3.346 5.762 7.254 7.312 11.416 4.246 11.376 1.824 24.682-7.324 33.83l-146.746 146.746c-9.148 9.146-22.45 11.566-33.828 7.32-4.16-1.55-8.070-3.968-11.418-7.31 0-0.004-0.004-0.006-0.008-0.010l-310.648-310.652-310.648 310.65c-0.004 0.004-0.006 0.006-0.010 0.010-3.346 3.342-7.254 5.76-11.414 7.31-11.38 4.248-24.682 1.826-33.83-7.32l-146.748-146.748c-9.148-9.148-11.568-22.452-7.322-33.828 1.552-4.16 3.97-8.072 7.312-11.416 0.004-0.002 0.006-0.006 0.010-0.010l310.65-310.648-310.65-310.652c-0.002-0.004-0.006-0.006-0.008-0.010-3.342-3.346-5.76-7.254-7.314-11.414-4.248-11.376-1.826-24.682 7.322-33.83l146.748-146.746c9.15-9.148 22.452-11.568 33.83-7.322 4.16 1.552 8.070 3.97 11.416 7.312 0.002 0.004 0.006 0.006 0.010 0.010l310.648 310.65 310.648-310.65c0.004-0.002 0.008-0.006 0.012-0.008 3.348-3.344 7.254-5.762 11.414-7.314 11.378-4.246 24.684-1.826 33.828 7.322l146.746 146.748c9.148 9.148 11.57 22.454 7.324 33.83-1.552 4.16-3.97 8.068-7.314 11.414z" />
<glyph unicode="&#xe628;" glyph-name="menu_dsk" d="M0 960h1024v-204.8h-1024v204.8zM0 550.4h1024v-204.8h-1024v204.8zM0 140.8h1024v-204.8h-1024v204.8z" />
<glyph unicode="&#xe62a;" glyph-name="impostazione" d="M561.94-5.199h-95.862c-18.274 0-23.552 0-73.334 123.195l-33.201 13.509c-102.321-46.434-114.609-46.434-119.887-46.434-6.774 0-14.375 2.954-19.141 7.719l-67.781 66.363c-13.509 13.312-16.975 16.738 36.785 138.673l-13.391 31.626c-126.503 45.292-126.503 50.767-126.503 69.671v93.932c0 18.786 0 23.591 126.070 72.389l13.391 31.705c-56.753 119.65-52.854 123.51-39.227 136.901l67.899 66.363c4.766 4.687 12.367 7.601 19.062 7.601 4.923 0 17.723 0 121.777-43.914l33.004 13.43c46.277 123.707 52.145 123.707 70.459 123.707h95.862c18.235 0 23.552 0 73.295-123.274l33.162-13.391c102.242 46.316 114.53 46.316 119.887 46.316 6.735 0 14.297-2.914 19.062-7.562l67.938-66.284c13.233-13.036 16.975-16.738-36.785-138.752l13.351-31.823c126.543-45.174 126.543-50.609 126.543-69.474v-93.893c0-18.826-0.039-23.67-126.149-72.507l-13.312-31.705c56.793-119.532 52.854-123.431 39.345-136.862l-68.057-66.481c-4.805-4.687-12.367-7.601-19.062-7.601v0c-4.844 0-17.566 0-121.62 43.993l-33.162-13.43c-46.277-123.707-51.673-123.707-70.42-123.707zM479.862 46.080h67.938c9.058 19.377 26.506 63.173 40.527 100.903 2.481 6.735 7.719 12.13 14.375 14.809l53.445 21.662c6.262 2.521 13.391 2.481 19.653-0.197 38.439-16.345 83.85-34.619 104.409-41.551l47.577 46.631c-7.641 20.165-26.939 62.858-44.071 98.816-3.111 6.577-3.308 14.218-0.512 20.992l22.016 52.303c2.718 6.42 7.916 11.5 14.415 13.942 38.715 14.966 83.771 33.438 103.503 42.811v65.221c-19.968 8.901-64.67 25.836-103.109 39.503-6.814 2.402-12.288 7.522-15.084 14.218l-22.016 52.382c-2.718 6.538-2.678 13.903 0.197 20.362 16.463 37.14 34.816 81.054 42.023 101.494l-47.616 46.513c-20.401-7.365-64.63-26.427-101.967-43.481-6.341-2.914-13.745-3.111-20.244-0.433l-53.445 21.583c-6.42 2.599-11.618 7.759-14.178 14.218-15.242 37.927-34.028 82.038-43.638 101.258h-67.899c-9.098-19.417-26.506-63.212-40.487-100.903-2.442-6.774-7.719-12.17-14.375-14.848l-53.287-21.662c-6.341-2.56-13.391-2.521-19.692 0.158-38.439 16.345-84.007 34.619-104.527 41.433l-47.577-46.513c7.68-20.204 26.86-62.897 44.032-98.934 3.151-6.577 3.269-14.218 0.473-20.992l-22.134-52.303c-2.718-6.42-7.877-11.461-14.375-13.942-38.715-14.927-83.692-33.319-103.385-42.693v-65.26c19.889-8.98 64.63-25.954 103.109-39.66 6.774-2.442 12.249-7.601 15.006-14.178l21.977-52.263c2.757-6.498 2.639-13.824-0.158-20.283-16.463-37.179-34.816-81.093-42.023-101.494l47.577-46.553c20.362 7.404 64.591 26.466 101.967 43.481 6.38 2.914 13.706 3.072 20.244 0.473l53.445-21.701c6.498-2.599 11.579-7.719 14.139-14.178 15.321-37.927 34.146-81.999 43.756-101.14zM512 285.342c-91.333 0-165.691 73.019-165.691 162.658 0 89.6 74.358 162.54 165.691 162.54 91.294 0 165.612-72.94 165.612-162.54 0-89.639-74.319-162.658-165.612-162.658zM512 559.301c-63.094 0-114.412-49.94-114.412-111.301 0-61.479 51.318-111.419 114.412-111.419s114.373 49.979 114.373 111.419c0 61.401-51.279 111.301-114.373 111.301z" />
<glyph unicode="&#xe62c;" glyph-name="rotella" d="M561.94-5.199h-95.862c-18.274 0-23.552 0-73.334 123.195l-33.201 13.509c-102.321-46.434-114.609-46.434-119.887-46.434-6.774 0-14.375 2.954-19.141 7.719l-67.781 66.363c-13.509 13.312-16.975 16.738 36.785 138.673l-13.391 31.626c-126.503 45.292-126.503 50.767-126.503 69.671v93.932c0 18.786 0 23.591 126.070 72.389l13.391 31.705c-56.753 119.65-52.854 123.51-39.227 136.901l67.899 66.363c4.766 4.687 12.367 7.601 19.062 7.601 4.923 0 17.723 0 121.777-43.914l33.004 13.43c46.277 123.707 52.145 123.707 70.459 123.707h95.862c18.235 0 23.552 0 73.295-123.274l33.162-13.391c102.242 46.316 114.53 46.316 119.887 46.316 6.735 0 14.297-2.914 19.062-7.562l67.938-66.284c13.233-13.036 16.975-16.738-36.785-138.752l13.351-31.823c126.543-45.174 126.543-50.609 126.543-69.474v-93.893c0-18.826-0.039-23.67-126.149-72.507l-13.312-31.705c56.793-119.532 52.854-123.431 39.345-136.862l-68.057-66.481c-4.805-4.687-12.367-7.601-19.062-7.601v0c-4.844 0-17.566 0-121.62 43.993l-33.162-13.43c-46.277-123.707-51.673-123.707-70.42-123.707zM479.862 46.080h67.938c9.058 19.377 26.506 63.173 40.527 100.903 2.481 6.735 7.719 12.13 14.375 14.809l53.445 21.662c6.262 2.521 13.391 2.481 19.653-0.197 38.439-16.345 83.85-34.619 104.409-41.551l47.577 46.631c-7.641 20.165-26.939 62.858-44.071 98.816-3.111 6.577-3.308 14.218-0.512 20.992l22.016 52.303c2.718 6.42 7.916 11.5 14.415 13.942 38.715 14.966 83.771 33.438 103.503 42.811v65.221c-19.968 8.901-64.67 25.836-103.109 39.503-6.814 2.402-12.288 7.522-15.084 14.218l-22.016 52.382c-2.718 6.538-2.678 13.903 0.197 20.362 16.463 37.14 34.816 81.054 42.023 101.494l-47.616 46.513c-20.401-7.365-64.63-26.427-101.967-43.481-6.341-2.914-13.745-3.111-20.244-0.433l-53.445 21.583c-6.42 2.599-11.618 7.759-14.178 14.218-15.242 37.927-34.028 82.038-43.638 101.258h-67.899c-9.098-19.417-26.506-63.212-40.487-100.903-2.442-6.774-7.719-12.17-14.375-14.848l-53.287-21.662c-6.341-2.56-13.391-2.521-19.692 0.158-38.439 16.345-84.007 34.619-104.527 41.433l-47.577-46.513c7.68-20.204 26.86-62.897 44.032-98.934 3.151-6.577 3.269-14.218 0.473-20.992l-22.134-52.303c-2.718-6.42-7.877-11.461-14.375-13.942-38.715-14.927-83.692-33.319-103.385-42.693v-65.26c19.889-8.98 64.63-25.954 103.109-39.66 6.774-2.442 12.249-7.601 15.006-14.178l21.977-52.263c2.757-6.498 2.639-13.824-0.158-20.283-16.463-37.179-34.816-81.093-42.023-101.494l47.577-46.553c20.362 7.404 64.591 26.466 101.967 43.481 6.38 2.914 13.706 3.072 20.244 0.473l53.445-21.701c6.498-2.599 11.579-7.719 14.139-14.178 15.321-37.927 34.146-81.999 43.756-101.14zM512 285.342c-91.333 0-165.691 73.019-165.691 162.658 0 89.6 74.358 162.54 165.691 162.54 91.294 0 165.612-72.94 165.612-162.54 0-89.639-74.319-162.658-165.612-162.658zM512 559.301c-63.094 0-114.412-49.94-114.412-111.301 0-61.479 51.318-111.419 114.412-111.419s114.373 49.979 114.373 111.419c0 61.401-51.279 111.301-114.373 111.301z" />
<glyph unicode="&#xe62f;" glyph-name="cplus" horiz-adv-x="1027" d="M513.554 955.018c-280.749 0-509.152-228.386-509.152-509.114 0-280.611 228.403-508.904 509.152-508.904 280.584 0 508.864 228.293 508.864 508.904 0 280.728-228.279 509.114-508.864 509.114zM551.453 274.318c-27.689-91.328-128.694-136.431-225.125-114.070-96.322 22.149-152.817 103.573-137.602 197.764l-0.592 0.174 55.688 240.998 0.183-0.142c24.761 95.766 123.646 156.347 222.565 133.602 23.845-5.435 44.706-17.183 63.661-30.249 0 0 10.038 30.998 28.109 30.998h99.434l-53.151-228.718h-133.404l11.124 47.168c0.121 0.211 0.161 0.421 0.161 0.563 6.877 29.811-11.797 59.498-41.358 66.406-29.747 6.787-59.47-11.676-66.339-41.45-0.053-0.292-0.053-0.526-0.141-0.632l-56.292-243.927c-6.312-29.493 12.125-58.729 41.534-65.415 29.61-6.946 58.804 11.291 66.082 40.496l11.256 47.426 3.901 17.468c3.733 13.843 17.542 30.877 35.275 30.877h31.651l-0.128-0.238h73.858l-26.084-111.42c-0.297-1.854-4.266-17.679-4.266-17.679zM971.521 396.025h-140.162l-37.758-157.665c-1.003-4.131-4.652-6.999-8.875-6.999h-100.857c-2.797 0-5.395 1.264-7.14 3.459-1.744 2.218-2.362 5.14-1.691 7.85l36.735 153.355h-131.371l26.354 114.629h132.491l32.201 138.589c1.021 4.162 4.663 6.998 8.863 6.998h100.879c2.751 0 5.418-1.303 7.121-3.483 1.726-2.16 2.358-5.010 1.703-7.757l-31.166-134.347h117.176c2.938-21.166 4.489-42.776 4.489-64.75 0-15.863-0.8-31.54-2.347-46.996-1.685-1.797-4.052-2.883-6.645-2.883z" />
<glyph unicode="&#xe801;" glyph-name="rowUp" horiz-adv-x="1027" d="M911.2 846.2v-796.4h-796.4v312.9h-113.8v-312.9c0-63.2 51.2-113.8 113.8-113.8h796.4c62.6 0 113.8 50.6 113.8 113.8v796.4c0 62.6-51.2 113.8-113.8 113.8h-312.9v-113.8h312.9zM1 561.8h113.8v204.2l559.2-559.2 80.2 80.2-559.2 559.2h204.2v113.8h-398.2v-398.2z" />
<glyph unicode="&#xe802;" glyph-name="rowDown" horiz-adv-x="1027" d="M114.8 49.8v796.4h796.4v-312.9h113.8v312.9c0 63.2-51.2 113.8-113.8 113.8h-796.4c-62.6 0-113.8-50.6-113.8-113.8v-796.4c0-62.6 51.2-113.8 113.8-113.8h312.9v113.8h-312.9zM1025 334.2h-113.8v-204.2l-559.2 559.2-80.2-80.2 559.2-559.2h-204.2v-113.8h398.2v398.2z" />
<glyph unicode="&#xe8d1;" glyph-name="cards-v1" d="M0 448c0.031 282.782 229.218 511.969 512 512v0c282.774-0.031 511.961-229.218 512-512v0c-0.039-282.758-229.226-511.961-512-512v0c-282.782 0.039-511.969 229.242-512 512v0zM194.42 765.58c-81.328-81.367-131.536-193.446-131.552-317.58v0c0.016-124.102 50.224-236.189 131.552-317.572v0c81.367-81.328 193.446-131.521 317.58-131.536v0c124.118 0.016 236.189 50.216 317.572 131.536v0c81.328 81.375 131.521 193.462 131.536 317.572v0c-0.016 124.126-50.216 236.212-131.536 317.58v0c-81.383 81.328-193.454 131.536-317.572 131.552v0c-124.134-0.016-236.212-50.224-317.58-131.552v0zM694.601 391.23h-453.988v269.972h453.988v-269.972zM724.692 691.293h-514.177v-330.153h514.177v330.153zM210.515 368.998h514.177v-70.365h-514.177v70.365zM775.528 305.155h-453.988v269.972h453.988v-269.972zM805.619 605.226h-514.177v-330.169h514.177v330.169zM291.442 282.923h514.177v-70.358h-514.177v70.358z" />
<glyph unicode="&#xe900;" glyph-name="notification-a" d="M512-64c58.026 0 105.026 46.998 105.026 105.026h-210.050c-0.002-58.028 46.998-105.026 105.024-105.026zM827.077 251.077v262.565c0 161.477-85.858 296.172-236.308 331.882v35.707c0 43.586-35.183 78.769-78.769 78.769s-78.769-35.183-78.769-78.769v-35.71c-150.449-35.71-236.308-170.405-236.308-331.882v-262.562l-105.026-105.026v-52.512h840.204v52.512l-105.024 105.026z" />
<glyph unicode="&#xe901;" glyph-name="gallery-v1" horiz-adv-x="1358" d="M678.662 577.551c100.466 0 181.898-81.452 181.898-181.888 0-100.465-81.433-181.893-181.898-181.893-100.435 0-181.887 81.428-181.887 181.893 0.001 100.436 81.453 181.888 181.887 181.888zM508.999 960l-103.195-112.776h-178.744c-62.030 0-112.776-50.746-112.776-112.776v-676.653c0-62.006 50.747-112.777 112.776-112.777h902.206c62.004 0 112.775 50.771 112.775 112.777v676.653c0 62.030-50.771 112.776-112.775 112.776h-178.745l-103.196 112.776h-338.326zM678.162 114.182c-155.617 0-281.938 126.322-281.938 281.939s126.322 281.94 281.938 281.94c155.618 0 281.938-126.323 281.938-281.94s-126.319-281.939-281.938-281.939z" />
<glyph unicode="&#xe902;" glyph-name="A-1" horiz-adv-x="1677" d="M1388.8 166.4h-390.4l-76.8-230.4h-179.2l377.6 998.4h153.6l384-998.4h-185.6l-83.2 230.4zM1049.6 307.2h294.4l-147.2 416-147.2-416zM486.4 147.2h-281.6l-57.6-166.4h-134.4l275.2 723.2h115.2l275.2-729.6h-134.4l-57.6 172.8zM236.8 249.6h211.2l-102.4 300.8-108.8-300.8z" />
<glyph unicode="&#xe903;" glyph-name="Condividi" horiz-adv-x="922" d="M768 238.080c-40.96 0-71.68-15.36-102.4-40.96l-363.52 215.040c5.12 10.24 5.12 20.48 5.12 35.84 0 10.24 0 25.6-5.12 35.84l363.52 209.92c25.6-25.6 61.44-40.96 102.4-40.96 87.040 0 153.6 66.56 153.6 153.6s-66.56 153.6-153.6 153.6-153.6-66.56-153.6-153.6c0-10.24 0-25.6 5.12-35.84l-363.52-209.92c-25.6 25.6-61.44 40.96-102.4 40.96-87.040 0-153.6-66.56-153.6-153.6s66.56-153.6 153.6-153.6c40.96 0 76.8 15.36 102.4 40.96l363.52-215.040c-5.12-10.24-5.12-20.48-5.12-35.84 0-81.92 66.56-148.48 148.48-148.48s148.48 66.56 148.48 148.48c5.12 81.92-61.44 153.6-143.36 153.6z" />
<glyph unicode="&#xe904;" glyph-name="Book" horiz-adv-x="796" d="M113.778 960h568.889c62.578 0 113.778-51.2 113.778-113.778v-910.222l-398.222 170.667-398.222-170.667v910.222c0 62.578 51.2 113.778 113.778 113.778zM398.222 231.822l284.444-125.156v739.556h-568.889v-739.556l284.444 125.156z" />
<glyph unicode="&#xe905;" glyph-name="more" d="M512 960c-281.6 0-512-230.4-512-512s230.4-512 512-512 512 230.4 512 512-230.4 512-512 512zM233.6 355.2c-51.2 0-92.8 41.6-92.8 92.8s41.6 92.8 92.8 92.8c51.2 0 92.8-41.6 92.8-92.8s-41.6-92.8-92.8-92.8zM512 355.2c-51.2 0-92.8 41.6-92.8 92.8s41.6 92.8 92.8 92.8c51.2 0 92.8-41.6 92.8-92.8s-41.6-92.8-92.8-92.8zM790.4 355.2c-51.2 0-92.8 41.6-92.8 92.8s41.6 92.8 92.8 92.8c51.2 0 92.8-41.6 92.8-92.8s-41.6-92.8-92.8-92.8z" />
<glyph unicode="&#xe906;" glyph-name="zoom-less" d="M512 960c-284.055 0-512-227.945-512-512s227.945-512 512-512 512 227.945 512 512-231.452 512-512 512zM512 41.205c-224.438 0-410.301 182.356-410.301 406.795s185.863 410.301 410.301 410.301 410.301-182.356 410.301-410.301-185.863-406.795-410.301-406.795zM256 500.603h512v-101.699h-512v101.699z" />
<glyph unicode="&#xe907;" glyph-name="zoom-more" d="M512 960c-284.1 0-512-227.9-512-512s227.9-512 512-512 512 227.9 512 512-231.5 512-512 512zM512 41.2c-224.4 0-410.3 182.4-410.3 406.8s185.9 410.3 410.3 410.3 410.3-182.4 410.3-410.3-185.9-406.8-410.3-406.8zM256 500.6h512v-101.7h-512v101.7zM465 705.8h101.7v-512h-101.7v512z" />
<glyph unicode="&#xe908;" glyph-name="favorite" horiz-adv-x="786" d="M0 960h786.101v-1024l-393.051 186.182-393.051-186.182v1024z" />
<glyph unicode="&#xe909;" glyph-name="squareBig" d="M0 960h1024v-1024h-1024v1024z" />
<glyph unicode="&#xe90a;" glyph-name="more2" d="M512 960c-281.6 0-512-230.4-512-512s230.4-512 512-512 512 230.4 512 512-230.4 512-512 512zM233.6 355.2c-51.2 0-92.8 41.6-92.8 92.8s41.6 92.8 92.8 92.8c51.2 0 92.8-41.6 92.8-92.8s-41.6-92.8-92.8-92.8zM512 355.2c-51.2 0-92.8 41.6-92.8 92.8s41.6 92.8 92.8 92.8c51.2 0 92.8-41.6 92.8-92.8s-41.6-92.8-92.8-92.8zM790.4 355.2c-51.2 0-92.8 41.6-92.8 92.8s41.6 92.8 92.8 92.8c51.2 0 92.8-41.6 92.8-92.8s-41.6-92.8-92.8-92.8z" />
<glyph unicode="&#xe90b;" glyph-name="comics" horiz-adv-x="1126" d="M1126 352.1v522.9c0 47-38.1 85-85 85h-956c-46.9 0-85-38.1-85-85v-606.7c0-47 38.1-85 85-85h816.7l224.6-247.2v416h-0.3z" />
<glyph unicode="&#xe90c;" glyph-name="pennino" horiz-adv-x="860" d="M630.784 824.832c-57.344 32.768-135.168 12.288-167.936-45.056l-61.44-110.592c-65.536-4.096-126.976-40.96-163.84-102.4-65.536-110.592-45.056-380.928-36.864-475.136l139.264 241.664c-36.864 32.768-45.056 86.016-20.48 126.976 28.672 49.152 90.112 65.536 139.264 36.864s65.536-90.112 36.864-139.264c-24.576-40.96-77.824-61.44-122.88-45.056l-139.264-241.664c86.016 40.96 327.68 159.744 393.216 270.336 32.768 61.44 32.768 131.072 4.096 192.512l65.536 110.592c32.768 57.344 12.288 135.168-45.056 167.936l-20.48 12.288z" />
<glyph unicode="&#xe90d;" glyph-name="grafica" d="M384-64h256v1024h-256v-1024zM0-64h256v512h-256v-512zM768 640v-704h256v704h-256z" />
<glyph unicode="&#xe90e;" glyph-name="gallery" horiz-adv-x="1092" d="M382.293 960l-102.4-109.227h-170.667c-61.44 0-109.227-47.787-109.227-109.227v-655.36c0-61.44 47.787-109.227 109.227-109.227h873.813c61.44 0 109.227 47.787 109.227 109.227v655.36c0 61.44-47.787 109.227-109.227 109.227h-170.667l-102.4 109.227h-327.68zM546.133 140.8c-150.187 0-273.067 122.88-273.067 273.067s122.88 273.067 273.067 273.067 273.067-122.88 273.067-273.067-122.88-273.067-273.067-273.067z" />
<glyph unicode="&#xe90f;" glyph-name="card" d="M96 774.4h-96v-742.4c0-51.2 44.8-96 96-96h742.4v96h-742.4v742.4zM928 960h-646.4c-51.2 0-96-44.8-96-96v-652.8c0-51.2 44.8-96 96-96h652.8c51.2 0 96 44.8 96 96v652.8c-6.4 51.2-51.2 96-102.4 96zM928 217.6h-646.4v646.4h652.8v-646.4z" />
<glyph unicode="&#xe910;" glyph-name="youtube" horiz-adv-x="1280" d="M1152 934.4c-38.4 12.8-275.2 25.6-512 25.6s-473.6-12.8-512-25.6c-102.4-32-128-256-128-486.4s25.6-454.4 128-486.4c38.4-12.8 275.2-25.6 512-25.6s473.6 12.8 512 25.6c102.4 32 128 256 128 486.4s-25.6 454.4-128 486.4v0zM512 160v576l384-288-384-288z" />
<glyph unicode="&#xe911;" glyph-name="messanger" horiz-adv-x="994" d="M497.1 944.1v0c-274.4 0-497.1-204.8-497.1-459.3 0-145.1 71.6-274.4 184.9-357.9v-175l169 93.5c45.7-11.9 93.5-19.9 143.2-19.9 274.4 0 497.1 206.8 497.1 459.3 0 254.5-222.7 459.3-497.1 459.3zM542.8 327.7v0l-125.2 133.2-246.6-133.2 272.4 286.3 129.2-133.2 242.6 133.2-272.4-286.3z" />
<glyph unicode="&#xe912;" glyph-name="telegram" d="M512 960c-282.8 0-512-229.2-512-512s229.2-512 512-512 512 229.2 512 512-229.2 512-512 512zM763.6 609l-84-395.8c-5.8-28.2-22.8-34.8-46.4-21.8l-128 94.6-61.4-59.8c-7.2-7-12.8-12.8-25.6-12.8-16.6 0-13.8 6.2-19.4 22l-43.6 143.2-126.6 39.4c-27.4 8.4-27.6 27.2 6.2 40.6l493.2 190.4c22.4 10.2 44.2-5.4 35.6-40z" />
<glyph unicode="&#xe913;" glyph-name="down" horiz-adv-x="1615" d="M181.453 909.218l-166.744-166.899 792.694-792.694 792.694 792.694-162.255 162.255-630.44-624.402-625.95 629.046z" />
<glyph unicode="&#xe914;" glyph-name="close-l" d="M273.5 747.7l238.2-237.8 239.3 238.3 60.6-61.1-237.8-239.2 237.8-238.3-61.6-62.6-239 239-238.5-238.5-61.4 61.4 239 239-238.7 239.2z" />
<glyph unicode="&#xe915;" glyph-name="arrow-r" horiz-adv-x="614" d="M143.4-23l-81.9 71.7 399.3 399.3-399.4 399.4 82 71.6 460.8-471-460.8-471z" />
<glyph unicode="&#xe916;" glyph-name="Path" horiz-adv-x="789" d="M491.069 633.157l-8.050 1.61-20.931-90.164h230.239l91.774 407.346h-11.27c0 0-128.805 0-157.786 0-9.66 0-17.711-4.83-24.151-9.66-9.66-8.050-16.101-20.931-20.931-30.591s-6.44-17.711-6.44-17.711l8.050-1.61 4.83 6.44c-30.591 22.541-64.403 43.472-103.044 53.132-22.541 6.44-46.692 8.050-69.233 8.050-136.855 0-260.83-99.824-296.252-243.119l8.050-1.61 1.61 8.050-8.050 3.22-94.994-423.447c-4.83-22.541-6.44-43.472-6.44-64.403 0-138.465 91.774-251.17 228.629-284.981v0c27.371-6.44 53.132-9.66 80.503-9.66 66.013 0 128.805 19.321 180.327 54.742s91.774 88.553 107.874 156.176v0l53.132 231.849h-9.66c0 0-157.786 0-167.447 0-17.711 0-32.201-8.050-41.862-19.321-11.27-11.27-17.711-25.761-22.541-38.642v0l-6.44-30.591-19.321-80.503c-9.66-40.252-41.862-66.013-77.283-66.013-6.44 0-11.27 0-17.711 1.61v0 0c-35.421 8.050-61.182 43.472-61.182 83.723 0 6.44 0 12.881 1.61 19.321l1.61 9.66h-9.66v-8.050l8.050-1.61 93.384 418.616v1.61c9.66 40.252 41.862 67.623 78.893 67.623 6.44 0 11.27 0 17.711-1.61v0c37.031-9.66 61.182-43.472 61.182-83.723 0-6.44 0-12.881-1.61-20.931l4.83-4.83-8.050 3.22v-1.61l8.050-1.61 8.050-3.22v1.61c1.61 8.050 3.22 16.101 3.22 24.151 0 46.692-28.981 88.553-74.063 99.824v0 0c-6.44 1.61-14.491 3.22-20.931 3.22-43.472 0-83.723-32.201-93.384-78.893v0-1.61l-94.994-426.667h9.66v8.050l-8.050 1.61c-1.61-8.050-1.61-14.491-1.61-22.541 0-46.692 28.981-88.553 74.063-99.824v0c8.050-1.61 14.491-3.22 22.541-3.22 43.472 0 82.113 32.201 93.384 78.893v0l19.321 80.503 6.44 30.591c3.22 9.66 9.66 22.541 17.711 32.201s19.321 14.491 30.591 14.491c9.66 0 167.447 0 167.447 0v8.050h-11.27l-49.912-222.189c-14.491-62.792-51.522-112.704-101.434-146.516-48.302-33.811-109.484-51.522-172.277-51.522-25.761 0-51.522 3.22-77.283 9.66v0c-128.805 32.201-215.748 138.465-215.748 268.881 0 19.321 1.61 40.252 6.44 61.182l-8.050 1.61 9.66-1.61 91.774 412.176-9.66 1.61-1.61-8.050 8.050-3.22 1.61 8.050c35.421 138.465 152.956 231.849 281.761 231.849 20.931 0 43.472-3.22 64.403-8.050 37.031-9.66 67.623-28.981 98.214-49.912l9.66-6.44 3.22 11.27c1.61 3.22 4.83 14.491 12.881 27.371 3.22 6.44 8.050 11.27 12.881 14.491s8.050 4.83 12.881 4.83c28.981 0 157.786 0 157.786 0v8.050l-8.050 1.61-85.333-384.805h-198.038l16.101 70.843-8.050 1.61z" />
<glyph unicode="&#xe917;" glyph-name="logo_corriere" horiz-adv-x="13897" d="M11221.669 588.238c-133.327 66.808-133.327 118.641-133.327 148.301s22.173 88.981 103.667 88.981c103.667 0 118.641-103.667 126.128-126.128 0-29.66 7.487-81.494 7.487-81.494h155.789l81.494 355.636h-140.814c-14.686 0-37.147-7.487-37.147-29.66l-7.487-22.173c0 0-74.007 51.834-192.648 51.834-37.147 0-111.154 7.487-207.622-66.808-103.667-74.007-118.641-185.161-118.641-222.308s-7.487-111.154 66.808-207.622c74.007-103.667 303.802-155.789 296.603-274.142-7.487-103.667-88.981-111.154-111.154-111.154-14.686 0-81.494 0-126.128 66.808-22.173 37.147-37.147 103.667-44.346 140.814-7.487 29.66 0 44.346-29.66 44.346s-133.327 0-133.327 0l-111.154-385.296h200.135l14.686 51.834c59.033-66.52 199.847-66.52 199.847-66.52 207.622 0 363.123 126.128 385.296 311.289 37.147 177.674-111.154 266.655-244.481 333.462v0zM785.566 729.053c44.346 170.475 236.994 281.629 422.443 237.282 192.648-44.346 311.289-177.962 259.456-392.783l-111.154-422.731c-44.346-162.988-244.481-244.481-429.93-200.135-185.161 37.147-296.603 185.161-259.456 348.436l118.641 429.93zM1222.695 632.585v7.487c14.686 51.834-22.173 96.468-74.007 111.154-7.487 0-14.686 0-22.173 0-44.346 0-81.494-29.66-96.468-66.808l7.487-7.487-111.154-422.443v-7.487c-14.686-44.346 22.173-96.468 74.007-103.667 7.487 0 14.686 0 22.173 0 44.346 0 81.494 29.66 96.468 66.808v7.487l103.667 414.956zM511.136 640.072l-22.173-81.494h229.795l96.468 407.757c0 0-140.814 0-170.475 0s-51.834-51.834-51.834-51.834c-29.66 22.173-66.808 44.346-103.667 51.834-170.763 36.859-341.237-66.808-385.584-237.282v0l-96.468-429.93c-37.147-170.475 66.808-311.289 229.795-355.636 162.988-37.147 348.436 37.147 385.296 200.135l59.321 237.282c0 0-170.475 0-177.962 0-37.147 0-59.321-29.66-66.808-59.321l-7.487-29.66-22.173-81.494c-14.686-51.834-66.808-81.494-111.154-74.007-51.834 14.686-81.494 66.808-66.808 118.641v0l103.667 437.417c14.686 51.834 66.808 88.981 111.154 74.007 52.409-15.262 82.070-67.096 67.096-126.416 0 7.487 0 0 0 0v0zM2179.024 217.629c-14.686-44.346 7.487-81.494 44.346-96.468l-44.346-185.161h-118.641c-118.641 0-170.475 88.981-148.301 200.135 0 14.686 37.147 185.161 51.834 237.282 7.487 37.147 7.487 59.321-22.173 59.321h-81.494c-22.173 0-29.66 0-37.147-29.66 0 0-44.346-185.161-44.346-192.648-7.487-29.66 0-51.834 7.487-66.808 14.686-14.686 29.66-22.173 66.808-22.173h7.487l-44.346-185.161h-408.045l44.346 185.161c22.173 0 51.834 7.487 66.808 37.147 7.487 14.686 14.686 22.173 22.173 37.147 14.686 74.007 37.147 162.988 51.834 244.481 22.173 96.468 44.346 177.962 44.346 214.821 22.173 118.641-59.321 111.154-66.808 111.154v0l37.147 170.475c14.686 22.173 29.66 37.147 51.834 37.147h363.123c200.135 0 281.629-118.641 274.142-266.943-7.487-96.468-59.321-192.648-140.814-237.282 59.321-59.321 51.834-155.789 44.346-185.161 0-7.487-7.487-14.686-7.487-22.173-6.623-7.487-6.623-22.461-14.11-44.634v0zM2016.036 595.726c7.487 22.173 14.686 59.321 22.173 96.468 7.487 51.834 0 96.468-66.808 96.468-44.346 0-59.321-7.487-66.808-29.66l-44.346-185.737h126.128c7.199 0 22.173 7.487 29.66 22.461v0zM2994.25 217.629c-14.686-44.346 7.487-81.494 37.147-96.468l-37.147-185.161h-118.641c-118.641 0-170.475 88.981-148.301 200.135 0 14.686 44.346 185.161 51.834 237.282 7.487 37.147 7.487 59.321-22.173 59.321h-81.494c-22.173 0-29.66 0-37.147-29.66 0 0-44.346-185.161-44.346-192.648-7.487-29.66 0-51.834 7.487-66.808 14.686-14.686 29.66-22.173 66.808-22.173h7.487l-44.346-185.161h-408.045l44.346 185.161c22.173 0 51.834 7.487 66.808 37.147 7.487 14.686 14.686 22.173 22.173 37.147 14.686 66.808 37.147 148.301 51.834 222.308 22.173 103.667 44.346 200.135 51.834 237.282 22.173 118.641-59.321 111.154-66.808 111.154v0l37.147 170.475c7.487 22.173 22.173 37.147 44.346 37.147h363.123c200.135 0 281.629-118.641 274.142-266.943-7.487-96.468-59.321-192.648-140.814-237.282 59.321-59.321 51.834-155.789 44.346-185.161 0-7.487-7.487-14.686-7.487-22.173-6.623-7.775-6.623-22.749-14.11-44.922v0zM2831.262 595.726c7.487 22.173 14.686 59.321 22.173 96.468 7.487 51.834 0 96.468-66.808 96.468-44.346 0-59.321-7.487-66.808-29.66l-44.346-185.161h126.128c7.487-0.576 22.173 6.911 29.66 21.885v0zM5217.908 217.629c-14.686-44.346 7.487-81.494 44.346-96.468l-44.346-185.161h-118.641c-118.641 0-170.475 88.981-148.301 200.135 0 14.686 37.147 185.161 51.834 237.282 7.487 37.147 7.487 59.321-22.173 59.321h-81.494c-22.173 0-29.66 0-37.147-29.66 0 0-44.346-185.161-44.346-192.648-7.487-29.66 0-51.834 7.487-66.808 14.686-14.686 37.147-22.173 66.808-22.173h7.487l-44.346-185.161h-407.757l44.346 185.161c22.173 0 51.834 7.487 66.808 37.147 7.487 14.686 14.686 22.173 22.173 37.147 14.686 74.007 37.147 162.988 51.834 244.481 22.173 96.468 44.346 185.161 51.834 222.308 22.173 118.641-59.321 111.154-66.808 111.154v0l37.147 170.475c7.487 14.686 22.173 29.66 44.346 29.66h363.123c200.135 0 281.629-118.641 274.142-266.943-7.487-96.468-59.321-192.648-140.814-237.282 59.321-59.321 51.834-155.789 44.346-185.161 0-7.487-7.487-14.686-7.487-22.173-6.911-14.974-6.911-22.461-14.398-44.634v0zM5054.92 595.726c7.487 22.173 14.686 59.321 22.173 96.468 7.487 51.834 0 96.468-66.808 96.468-44.346 0-59.321-7.487-66.808-29.66l-44.346-185.161h126.128c7.199-0.576 22.173 6.911 29.66 21.885v0zM13074.718 217.629c-14.686-44.346 7.487-81.494 44.346-96.468l-44.346-192.648h-118.641c-118.641 0-170.475 88.981-148.301 200.135 0 14.686 37.147 185.161 51.834 237.282 7.487 37.147 7.487 59.321-22.173 59.321h-81.494c-14.686 0-29.66 0-37.147-29.66 0 0-44.346-185.161-44.346-192.648-7.487-29.66 0-51.834 7.487-66.808 14.686-14.686 29.66-22.173 66.808-22.173h7.487l-44.346-185.161h-407.757l44.346 185.161c22.173 0 51.834 7.487 66.808 37.147 7.487 14.686 14.686 22.173 22.173 37.147 14.686 74.007 37.147 155.789 51.834 237.282 22.173 103.667 44.346 192.648 51.834 229.795 22.173 118.641-59.321 111.154-66.808 111.154v0l37.147 170.475c7.487 22.173 22.173 37.147 44.346 37.147h363.123c200.135 0 281.629-118.641 274.142-266.943-7.487-96.468-59.321-192.648-140.814-237.282 59.321-59.321 51.834-155.789 44.346-185.161 0-7.487-7.487-14.686-7.487-22.173-6.911-7.775-6.911-22.749-14.398-44.922v0zM12911.73 595.726c7.487 22.173 14.686 59.321 22.173 96.468 7.487 51.834 0 96.468-66.808 96.468-44.346 0-59.321-7.487-66.808-29.66l-44.346-185.161h126.128c7.199-0.576 22.173 6.911 29.66 21.885v0zM8657.062 328.783c-22.173-81.494-29.66-118.641-44.346-162.988-14.686-37.147-51.834-51.834-96.468-51.834-14.686 0-29.66 0-44.346 0-29.66 0-51.834 14.686-59.321 22.173-14.686 14.686-22.173 37.147-14.686 66.808 14.686 74.007 111.154 474.277 118.641 489.251 14.686 37.147 37.147 66.808 118.641 66.808l37.147 214.821h-407.757c-22.173 0-37.147-14.686-44.346-37.147l-44.922-170.475c0 0 88.981 0 66.808-111.154-7.487-29.66-22.173-96.468-44.346-177.962v0c-22.173-88.981-44.346-192.648-66.808-281.629-7.487-14.686-14.686-29.66-22.173-37.147-22.173-29.66-51.834-37.147-74.007-37.147l-29.66-185.161h719.046l96.468 392.783h-163.564zM9472.288 328.783c-22.173-81.494-29.66-118.641-44.346-162.988-14.686-37.147-51.834-51.834-96.468-51.834-14.686 0-29.66 0-44.346 0-29.66 0-51.834 14.686-59.321 22.173-7.487 14.686-22.173 37.147-14.686 66.808 14.686 74.007 111.154 474.277 118.641 489.251 14.686 37.147 37.147 66.808 118.641 66.808l37.147 214.821h-408.045c-22.173 0-37.147-14.686-44.346-37.147l-44.346-170.475c0 0 88.981 0 66.808-111.154-7.487-29.66-22.173-96.468-44.346-177.962v0c-22.173-88.981-44.346-192.648-66.808-281.629-7.487-14.686-14.686-29.66-22.173-37.147-22.173-29.66-51.834-37.147-74.007-37.147l-29.66-185.161h719.046l96.468 392.783h-163.852zM6700.346 973.534c0 0 326.263 0 348.436 0 177.962 0 318.776-177.962 281.629-378.097 0 0-44.346-192.648-88.981-400.27-51.834-214.821-177.962-259.456-281.629-259.456-7.487 0-51.834 0-118.641 0-133.327 0-333.462 0-400.27 0l44.346 185.161c22.173 0 51.834 7.487 74.007 37.147 7.487 14.686 14.686 22.173 22.173 37.147 14.686 74.007 37.147 155.789 51.834 229.795 22.173 103.667 44.346 192.648 51.834 229.795 22.173 111.154-59.321 111.154-66.808 111.154l37.147 170.475c7.775 22.461 29.948 37.147 44.922 37.147v0zM7078.443 543.892c7.487 37.147 14.686 66.808 14.686 81.494 7.487 37.147 7.487 74.007-14.686 103.667-14.686 22.173-37.147 29.66-66.808 29.66h-66.808l-140.814-630.065c7.487 0 59.321 0 88.981 0 7.487 0 14.686 0 14.686 0 59.321 0 81.494 22.173 96.468 88.981 7.487 29.66 37.147 162.988 59.321 266.943 7.487 22.173 14.974 44.346 14.974 59.321v0zM10428.616 210.142c22.173-88.981 59.321-88.981 88.981-88.981h7.487l-44.346-185.161h-422.443l44.346 192.648h37.147c14.686 0 22.173 7.487 29.66 14.686 7.487 7.487 7.487 22.173 7.487 37.147-7.487 14.686-7.487 29.66-7.487 37.147v7.487h-259.456c0-7.487-7.487-14.686-14.686-29.66-7.487-22.173-7.487-44.346 0-51.834 0-7.487 7.487-7.487 14.686-7.487h66.808l-44.922-192.648h-370.61l44.346 185.161c29.66 0 66.808 7.487 88.981 51.834l318.776 763.393c7.487 14.686 29.66 29.66 44.346 37.147v0h170.475c7.775-7.487 141.102-563.258 200.423-770.88v0zM10065.494 610.412l-111.154-274.142h185.161l-74.007 274.142zM13986.412 210.142c22.173-88.981 59.321-88.981 88.981-88.981h7.487l-44.346-185.161h-422.443l44.346 192.648h37.147c14.686 0 22.173 7.487 29.66 14.686 7.487 7.487 7.487 22.173 7.487 37.147-7.487 22.173-7.487 37.147-7.487 44.346v0h-259.456c-7.487-7.487-7.487-14.686-14.686-29.66-7.487-22.173-7.487-44.346 0-51.834 0-7.487 7.487-7.487 14.686-7.487h66.808l-44.346-192.648h-370.61l44.346 185.161c29.66 0 66.808 7.487 88.981 51.834l318.2 763.681c7.487 14.686 29.66 29.66 44.346 37.147v0h170.475c7.775-7.487 141.102-563.258 200.423-770.88v0zM13623.289 610.412l-111.154-274.142h185.161l-74.007 274.142zM3305.539 973.534c-22.173 0-44.346-14.686-44.346-37.147l-44.634-170.187c0 0 96.468 7.487 74.007-96.468 0-14.686-14.686-66.808-14.686-66.808-22.173-96.468-59.321-266.943-96.468-407.757-7.487-14.686-7.487-29.66-22.173-37.147-29.66-37.147-74.007-37.147-74.007-37.147l-44.346-185.161h422.443l44.346 185.161c-22.173 0-103.667-7.487-81.494 96.468 7.487 37.147 96.468 392.783 103.667 452.103 7.487 37.147 22.173 96.468 126.128 96.468l51.834 207.622h-400.27zM3839.136 973.534c-22.173 0-37.147-14.686-44.346-37.147l-37.147-170.475c0 0 88.981 0 66.808-111.154-14.686-59.321-66.808-289.116-111.154-459.591-7.487-14.686-7.487-29.66-22.173-37.147-37.147-44.346-88.981-37.147-88.981-37.147l-44.346-185.161h733.732l81.494 363.123h-162.988c-14.686-59.321-22.173-96.468-37.147-126.128-22.173-37.147-51.834-51.834-96.468-51.834-37.147 0-66.808 14.686-88.981 44.346-22.173 22.173-22.173 59.321-14.686 88.981 7.487 37.147 22.173 81.494 22.173 103.667 7.487 44.346 22.173 66.808 59.321 66.808 22.173 0 44.346-22.173 37.147-59.321 0-14.686-14.686-59.321-14.686-59.321h81.494l74.007 318.776h-88.981c0 0-7.487-29.66-14.686-66.808-7.487-22.173-29.66-37.147-51.834-37.147-37.147 0-44.346 29.66-37.147 59.321 7.487 22.173 14.686 59.321 22.173 96.468 22.173 88.981 74.007 111.154 133.327 103.667 51.834 0 74.007-29.66 81.494-59.321 7.487-22.173 14.686-51.834 7.487-103.667h148.301l88.693 356.211h-681.899zM6070.281 610.412l81.494 363.123h-644.751c-14.686 0-37.147-14.686-37.147-37.147l-37.147-170.475c0 0 81.494 0 59.321-111.154-14.686-59.321-66.808-289.116-103.667-459.591-7.487-14.686-7.487-29.66-14.686-37.147-22.173-29.66-51.834-37.147-66.808-37.147l-44.346-185.161h674.412l81.494 363.123h-155.789c-14.686-59.321-22.173-96.468-37.147-126.128-14.686-37.147-51.834-51.834-96.468-51.834-37.147 0-66.808 14.686-81.494 44.346-22.173 22.173-22.173 59.321-14.686 88.981 7.487 37.147 14.686 81.494 22.173 103.667 7.487 44.346 22.173 66.808 51.834 66.808 22.173 0 37.147-22.173 37.147-59.321 0-14.686-14.686-59.321-14.686-59.321h81.494l74.007 318.776h-81.494c0 0-7.487-29.66-14.686-66.808-7.487-29.66-29.66-44.346-51.834-44.346-29.66 0-37.147 29.66-37.147 59.321 7.487 22.173 14.686 59.321 14.686 96.468 14.686 88.981 66.808 111.154 126.128 103.667 44.346 0 66.808-29.66 81.494-59.321 7.487-22.173 14.686-51.834 0-103.667l148.301 0.288zM8071.631 610.412l81.494 363.123h-644.751c-14.686 0-37.147-14.686-37.147-37.147l-37.147-170.475c0 0 81.494 0 59.321-111.154-14.686-59.321-66.808-289.116-103.667-459.591-7.487-14.686-7.487-29.66-14.686-37.147-22.173-29.66-51.834-37.147-66.808-37.147l-44.346-185.161h674.412l81.494 363.123h-155.789c-14.686-59.321-22.173-96.468-37.147-126.128-14.686-37.147-51.834-51.834-96.468-51.834-37.147 0-66.808 14.686-81.494 44.346-22.173 22.173-22.173 59.321-14.686 88.981 7.487 37.147 14.686 81.494 22.173 103.667 7.487 44.346 22.173 66.808 51.834 66.808 14.686 0 44.346-22.173 37.147-59.321 0-14.686-14.686-59.321-14.686-59.321h81.494l74.007 318.776h-81.494c0 0-7.487-29.66-14.686-66.808-7.487-22.173-29.66-37.147-44.346-37.147-29.66 0-37.147 29.66-37.147 59.321 7.487 22.173 14.686 59.321 14.686 96.468 14.686 88.981 66.808 111.154 126.128 103.667 44.346 0 66.808-29.66 81.494-59.321 7.487-22.173 14.686-51.834 0-103.667h140.814v-6.911zM12296.351 610.412l81.494 363.123h-644.751c-14.686 0-37.147-14.686-37.147-37.147l-37.147-170.475c0 0 81.494 0 59.321-111.154-14.686-59.321-66.808-289.116-103.667-459.591-7.487-14.686-7.487-29.66-14.686-37.147-22.173-29.66-51.834-37.147-66.808-37.147l-44.346-185.161h674.412l81.494 363.123h-155.789c-14.686-59.321-14.686-96.468-37.147-126.128-14.686-37.147-51.834-51.834-96.468-51.834-37.147 0-66.808 14.686-81.494 44.346-22.173 22.173-22.173 59.321-14.686 88.981 7.487 37.147 14.686 81.494 22.173 103.667 7.487 44.346 22.173 66.808 51.834 66.808 14.686 0 37.147-22.173 37.147-59.321 0-14.686-14.686-59.321-14.686-59.321h81.494l74.007 318.776h-81.494c0 0-7.487-29.66-14.686-66.808-7.487-22.173-29.66-37.147-44.346-37.147-29.66 0-37.147 29.66-37.147 59.321 7.487 22.173 14.686 59.321 14.686 96.468 14.686 88.981 66.808 111.154 126.128 103.667 44.346 0 66.808-29.66 81.494-59.321 7.487-22.173 14.686-51.834 7.487-103.667h133.327v-6.911z" />
<glyph unicode="&#xe918;" glyph-name="user" d="M808.421 960h-592.842c-118.568 0-215.579-97.011-215.579-215.579v-592.842c0-118.568 97.011-215.579 215.579-215.579h592.842c118.568 0 215.579 97.011 215.579 215.579v592.842c0 118.568-97.011 215.579-215.579 215.579zM512 798.316c97.011 0 172.463-80.842 172.463-172.463 0-97.011-80.842-172.463-172.463-172.463s-177.853 75.453-177.853 172.463c0 91.621 80.842 172.463 177.853 172.463zM862.316 97.684h-700.632v86.232c0 118.568 231.747 172.463 350.316 172.463s350.316-59.284 350.316-172.463v-86.232z" />
<glyph unicode="&#xe919;" glyph-name="letter_C" horiz-adv-x="780" d="M556.098 957.622h198.207c-29.868-146.081-59.878-291.996-89.009-438.814h-198.16c3.31 54.361 32.441 90.414 28.322 143.584-6.326 81.304-127.033 98.973-159.776 28.322-13.555-29.321-16.004-82.16-24.256-125.39-14.221-74.432-31.844-164.178-46.516-240.657-8.371-43.639-22.401-94.333-18.189-123.345 10.725-74.287 128.151-72.743 155.71-14.173 11.462 24.422 11.795 51.769 16.17 74.838 4.732 24.919 10.297 48.343 14.149 76.834h202.226c-24.9-188.812-91.908-342.246-256.825-390.279-179.992-52.464-378.151 65.555-378.151 244.695 0 58.711 21.022 129.575 32.362 186.029 12.271 61.208 23.851 121.754 36.386 181.989 41.663 200.3 77.476 393.822 321.531 394.369 67.916 0.143 121.062-26.562 151.667-68.772 4.758 23.566 6.661 49.986 14.152 70.77z" />
<glyph unicode="&#xe91a;" glyph-name="arrow-l" horiz-adv-x="614" d="M522.2 919l81.9-71.7-399.3-399.3 399.4-399.4-82-71.6-460.8 471 460.8 471z" />
<glyph unicode="&#xe91b;" glyph-name="p-facebook-c" d="M1024 448c0 282.8-229.2 512-512 512s-512-229.2-512-512c0-266.3 203.4-485.2 463.4-509.7v377.3h-128.1v148.3h128.1v109.3c0 126.9 77.5 196 190.7 196 54.2 0 100.8-4 114.4-5.8v-132.6h-78.5c-61.6 0-73.5-29.3-73.5-72.2v-94.7h146.9l-19.1-148.3h-127.8v-368.8c232.7 48.2 407.5 254.3 407.5 501.2z" />
<glyph unicode="&#xe91c;" glyph-name="p-gplus-c" d="M514.8 957c279.2 1.2 507.4-225.8 508.2-505.4 0.8-279.5-227.3-507.3-507.7-507.1-279.9 0.1-506.4 225.4-507.6 504.8-1.2 279.5 225.6 506.5 507.1 507.7zM508.9 494.4c-33.4 0-66.9-0.2-100.3 0.2-7.6 0.1-10.3-1.5-10.1-9.8 0.6-23.3 0.8-46.7-0.1-70.1-0.4-10.1 3.3-11.8 12.3-11.7 35.4 0.5 70.9 0 106.3 0.3 7.4 0.1 9-1.9 6.9-9-5.3-18.1-13.5-34.5-26.9-47.8-32.5-32.2-72.4-42.3-116.5-36.5-58.6 7.7-106.3 52.6-118.6 110.3-12.5 58.2 12.9 118.8 62.7 150.9 48.6 31.3 114.5 29.6 158.5-8.5 4.9-4.3 7.5-3.5 11.7 0.8 17.1 17.6 34.3 35.3 52.3 52 7.5 7 5.9 10.4-1 16-55.9 45.5-119.3 60.8-189.9 49.1-124-20.6-212.1-147.3-187.7-270.5 21.9-111 108.1-187.2 221.2-192.4 69.5-3.2 131.6 17.5 178.4 71.5 49.9 57.5 61 125.8 51.5 199.1-1 7.8-5.8 6.2-10.3 6.2-33.5-0.1-67-0.1-100.4-0.1zM828.6 421.6c9.3 0 18.5 0.4 27.8-0.1 6.8-0.4 10.2 0.7 9.7 8.9-0.8 13.6-0.6 27.4-0.1 41.1 0.3 6.9-1.9 8.8-8.7 8.6-18.1-0.5-36.3 0.2-54.4-0.3-7.5-0.2-10.5 1.4-10.2 9.7 0.7 18.1 0 36.2 0.3 54.4 0.1 6.4-1 9.5-8.4 9.2-14.1-0.6-28.2-0.5-42.3 0-6.5 0.2-8.1-2-8-8.2 0.4-18.5-0.2-37.1 0.3-55.6 0.2-7.5-2-9.7-9.4-9.4-18.5 0.5-37.1-0.1-55.6 0.3-7 0.2-8.9-2.2-8.7-8.9 0.5-13.7 0.5-27.4 0-41.1-0.3-7.2 2.4-8.7 9-8.6 17.3 0.4 34.7-0.4 51.9 0.4 9.6 0.4 13.5-1.5 12.9-12.2-1-17.3 0-34.6-0.4-51.9-0.1-6.3 0.7-9.5 8.3-9.2 14.1 0.6 28.2 0.5 42.3 0 6.3-0.2 8.3 1.8 8.1 8.2-0.4 18.9 0.1 37.9-0.3 56.8-0.1 6.2 1.4 8.6 8 8.2 9.4-0.7 18.7-0.3 27.9-0.3z" />
<glyph unicode="&#xe91d;" glyph-name="p-instagram-c" d="M511.979 348.553c54.797 0 99.467 44.588 99.467 99.447 0 21.655-7.053 41.639-18.767 57.952-18.087 25.078-47.455 41.495-80.638 41.495-33.204 0-62.551-16.396-80.659-41.453-11.755-16.334-18.788-36.318-18.809-57.973-0.062-54.838 44.567-99.467 99.405-99.467zM729.166 569.658v95.776l-95.776-0.309 0.309-95.796zM512 944.78c-273.901 0-496.78-222.879-496.78-496.78s222.879-496.8 496.78-496.8 496.8 222.899 496.8 496.8-222.858 496.78-496.8 496.78zM794.563 505.952v-231.293c0-60.262-49.002-109.264-109.222-109.264h-346.682c-60.221 0-109.202 49.002-109.202 109.264v346.64c0 60.241 48.981 109.202 109.202 109.202h346.64c60.262 0 109.264-48.981 109.264-109.202v-115.347zM666.553 448c0-85.196-69.316-154.553-154.553-154.553-85.216 0-154.512 69.357-154.512 154.553 0 20.5 4.083 40.072 11.364 57.952h-84.35v-231.293c0-29.904 24.274-54.137 54.157-54.137h346.661c29.822 0 54.137 24.233 54.137 54.137v231.293h-84.371c7.321-17.881 11.467-37.452 11.467-57.952z" />
<glyph unicode="&#xe91e;" glyph-name="p-linkedin-c" d="M511.998 959.996c-282.766 0-511.99-229.228-511.99-511.994s229.225-511.99 511.99-511.99 511.994 229.225 511.994 511.99-229.228 511.994-511.994 511.994zM352.184 154.489h-136.71v439.684h136.71v-439.684zM283.833 642.727c-43.792 0-79.205 35.52-79.205 79.232 0 43.758 35.409 79.278 79.205 79.278 43.681 0 79.201-35.52 79.201-79.278-0.004-43.712-35.52-79.232-79.201-79.232zM841.046 154.489h-136.602v213.82c0 50.994-0.89 116.586-71.021 116.586-71.117 0-81.964-55.594-81.964-112.93v-217.48h-136.595v439.688h131.089v-60.117h1.865c18.24 34.58 62.83 71.010 129.301 71.010 138.371 0 163.927-91.038 163.927-209.427v-241.149z" />
<glyph unicode="&#xe91f;" glyph-name="p-twitter-c" d="M511.998 960c-282.77 0-511.998-229.228-511.998-511.998s229.228-511.994 511.994-511.994 511.994 229.228 511.994 511.994-229.225 511.998-511.99 511.998zM806.086 599.268c0.288-6.63 0.434-13.279 0.434-19.974 0-204.194-155.395-439.634-439.592-439.634-87.266 0-168.474 25.572-236.883 69.414 12.097-1.42 24.409-2.152 36.871-2.152 72.399 0 139.008 24.689 191.932 66.137-67.626 1.247-124.678 45.925-144.353 107.309 9.45-1.815 19.115-2.759 29.082-2.759 14.092 0 27.736 1.872 40.692 5.398-70.676 14.207-123.945 76.642-123.945 151.52 0 0.645 0 1.289 0.023 1.938 20.833-11.583 44.663-18.535 69.989-19.329-41.471 27.72-68.739 75.004-68.739 128.614 0 28.323 7.616 54.861 20.918 77.67 76.209-93.47 190.063-155.003 318.478-161.437-2.643 11.299-3.998 23.093-3.998 35.21 0 85.336 69.168 154.508 154.505 154.508 44.441 0 84.607-18.765 112.773-48.788 35.217 6.925 68.274 19.774 98.124 37.489-11.537-36.073-36.027-66.352-67.918-85.486 31.231 3.741 61 12.043 88.689 24.329 0 0.004 0.004 0.008 0.008 0.012l0.031 0.004c-0.012-0.004-0.027-0.012-0.038-0.015-20.718-30.974-46.908-58.176-77.083-79.976z" />
<glyph unicode="&#xe920;" glyph-name="p-whatsapp" horiz-adv-x="1126" d="M513.5 726.2c-145.5 0-263.9-118.4-263.9-263.9 0-57.8 18.7-111.2 50.3-154.7l-33-98 101.4 32.4c41.7-27.6 91.6-43.6 145.2-43.6v0c145.5 0 263.9 118.4 263.9 263.9s-118.4 263.9-263.9 263.9zM671.1 341.9c-7.5-18.6-41.2-35.6-56.1-36.4s-15.3-11.6-96.3 23.9c-81 35.5-129.8 121.8-133.6 127.4-3.8 5.5-31.4 45.1-29.9 84.9s23.1 58.6 30.8 66.4c7.7 7.8 16.6 9.5 22 9.3s10.8-1.1 15.5-1.3c4.7-0.2 11.6 2.3 17.7-14.2 6.1-16.4 20.8-56.9 22.7-61s3-8.9 0.1-14.2c-2.9-5.3-4.4-8.6-8.6-13.2s-8.9-10.2-12.7-13.7c-4.2-3.9-8.6-8.1-4.2-16.4s19.7-35.4 42.9-57.7c29.9-28.7 55.6-38.2 63.6-42.6s12.7-3.9 17.6 1.4c4.9 5.2 21.1 22.9 26.8 30.7 5.7 7.9 11 6.3 18.4 3.4 7.3-3 46.4-24 54.3-28.4v0c7.9-4.3 13.3-6.6 15.2-10s1.3-19.6-6.2-38.3zM509.7 951.7c-277.8 0-503-225.2-503-503s225.2-503 503-503 503 225.2 503 503-225.2 503-503 503zM513.5 145.3c-55.6 0-107.8 14.3-153.2 39.4l-175.5-56.2 57.2 170.1c-28.9 47.8-45.5 103.8-45.5 163.7 0 175.1 141.9 317 317 317v0c175.1 0 317-141.9 317-317s-141.9-317-317-317z" />
<glyph unicode="&#xe921;" glyph-name="p-send-c" d="M255.9 626.4v-64.4l257.4-160.8 257.4 160.8v64.4l-257.4-160.9zM509.7 951.7c-277.8 0-503-225.2-503-503s225.2-503 503-503c277.8 0 503 225.2 503 503s-225.2 503-503 503zM835 240.3c0-35.4-29-64.4-64.3-64.4h-514.8c-35.4 0-64.3 29-64.3 64.4l0.3 386.1c0 35.4 28.7 64.4 64 64.4h514.8c35.4 0 64.3-29 64.3-64.4v-386.1z" />
<glyph unicode="&#xe922;" glyph-name="email" d="M233 586.3v-345.8h553.4v345.8l-276.7-172.9zM509.7 482.6l276.7 172.9h-553.4zM509.7 951.7c-277.8 0-503-225.2-503-503s225.2-503 503-503 503 225.2 503 503-225.2 503-503 503zM855.5 240.5c0-38.2-31-69.2-69.2-69.2h-553.3c-38.2 0-69.2 31-69.2 69.2l0.3 415c0 38.2 30.7 69.2 68.9 69.2h553.3c38.2 0 69.2-31 69.2-69.2v-415z" />
<glyph unicode="&#xe923;" glyph-name="penna" horiz-adv-x="764" d="M728.178 530.895c-27.632 58.514-105.651 89.397-146.286 102.4s-117.029 21.13-130.032 61.765c-13.003 42.26 3.251 94.273 3.251 94.273s11.378 16.254 50.387 39.010c39.010 22.756 81.27 40.635 86.146 130.032h-429.105c0 0-4.876-40.635 9.752-66.641s61.765-58.514 61.765-58.514 58.514-29.257 61.765-68.267c3.251-39.010 0-66.641-9.752-79.644 0 0-30.883-39.010-136.533-56.889s-139.784-131.657-139.784-131.657-13.003-69.892 6.502-112.152c19.505-42.26 50.387-68.267 60.14-73.143s56.889-42.26 56.889-42.26 224.305-147.911 240.559-305.575c0 0 42.26 177.168 240.559 303.949 112.152 71.517 123.53 130.032 123.53 130.032s17.879 74.768-9.752 133.283zM388.47 348.851l13.003-1.625-9.752-251.937c0 0-4.876-39.010-16.254-39.010-13.003 0-19.505 39.010-19.505 39.010l-8.127 255.187c-47.137 13.003-81.27 53.638-81.27 104.025 0 58.514 48.762 107.276 110.527 107.276s110.527-48.762 110.527-107.276c-1.625-53.638-43.886-99.149-99.149-105.651z" />
<glyph unicode="&#xe924;" glyph-name="link" horiz-adv-x="1061" d="M521.143 960c-287.086 0-521.143-228.571-521.143-512s234.057-512 521.143-512c288.914 0 521.143 228.571 521.143 512s-232.229 512-521.143 512zM497.371 266.971h-140.8c-96.914 0-175.543 73.143-175.543 164.571s78.629 164.571 175.543 164.571h140.8v-62.171h-140.8c-60.343 0-109.714-45.714-109.714-102.4s49.371-102.4 109.714-102.4h140.8v-62.171zM378.514 389.486v82.286h277.943v-82.286h-277.943zM678.4 266.971h-140.8v62.171h140.8c60.343 0 109.714 45.714 109.714 102.4s-49.371 102.4-109.714 102.4h-140.8v62.171h140.8c96.914 0 175.543-73.143 175.543-164.571s-78.629-164.571-175.543-164.571z" />
<glyph unicode="&#xe925;" glyph-name="galleryDown" horiz-adv-x="910" d="M512 618.667c0-31.419-25.47-56.889-56.889-56.889s-56.889 25.47-56.889 56.889c0 31.419 25.47 56.889 56.889 56.889s56.889-25.47 56.889-56.889zM512 817.778c0-31.419-25.47-56.889-56.889-56.889s-56.889 25.47-56.889 56.889c0 31.419 25.47 56.889 56.889 56.889s56.889-25.47 56.889-56.889zM281.6 519.111l173.511-173.511 173.511 173.511 54.044-54.044-227.556-227.556-227.556 227.556 54.044 54.044z" />
<glyph unicode="&#xe926;" glyph-name="ultimora" horiz-adv-x="1170" d="M227.556 960h-227.556v-682.667h227.556v682.667zM227.556 49.775c0-62.831-50.941-113.775-113.778-113.775s-113.777 50.944-113.777 113.775c0 62.84 50.94 113.781 113.777 113.781s113.778-50.941 113.778-113.781z" />
<glyph unicode="&#xe927;" glyph-name="vaidate" d="M512 960c-284.939 0-512-231.513-512-512s227.061-512 512-512 512 227.061 512 512-227.061 512-512 512zM770.226 488.070l-249.322-249.322c-8.904-8.904-26.713-17.809-40.070-17.809s-26.713 4.452-40.070 17.809l-182.539 182.539c-22.261 22.261-22.261 57.878 0 75.687 22.261 22.261 57.878 22.261 75.687 0l142.47-142.47 209.252 209.252c22.261 22.261 57.878 22.261 75.687 0 31.165-22.261 31.165-53.426 8.904-75.687z" />
<glyph unicode="&#xe928;" glyph-name="commenti" d="M512 960c-282.8 0-512-229.2-512-512s229.2-512 512-512 512 229.2 512 512-229.2 512-512 512zM802.8 330.8c0-27.9-24.6-50.7-54.6-50.7h-381.8l-109.1-101.2 0.3 455.9c0 27.9 24.3 50.7 54.3 50.7h436.4c30 0 54.6-22.8 54.6-50.7v-304z" />
<glyph unicode="&#xe929;" glyph-name="andEditoriali" horiz-adv-x="1183" d="M430.080 782.507c29.582 0 63.716 29.582 63.716 79.644 0 38.684-45.511 97.849-138.809 97.849-154.738 0-282.169-131.982-282.169-300.373 0-47.787 11.378-86.471 18.204-104.676 0-4.551 2.276-6.827 2.276-9.102 2.276-4.551 0-9.102-2.276-11.378-43.236-56.889-91.022-136.533-91.022-236.658 0-197.973 170.667-364.089 423.253-364.089 141.084 0 279.893 56.889 370.916 154.738 79.644 86.471 116.053 182.044 116.053 263.964 0 63.716-18.204 127.431-38.684 172.942-2.276 6.827 0 15.929 2.276 15.929 68.267 0 134.258 13.653 179.769 34.133 43.236 15.929 127.431 84.196 127.431 182.044 0 93.298-56.889 200.249-170.667 200.249-79.644 0-136.533-65.991-136.533-122.88 0-68.267 59.164-91.022 81.92-91.022 34.133 0 52.338 11.378 72.818 56.889 9.102 22.756 0 40.96-9.102 45.511-29.582 15.929-34.133 25.031-34.133 38.684s13.653 27.307 34.133 27.307c50.062 0 93.298-34.133 93.298-116.053 0-116.053-84.196-150.187-204.8-150.187-63.716 0-100.124 0-127.431 0-13.653 0-25.031 0-34.133 0-104.676 0-218.453-77.369-218.453-179.769 0-93.298 72.818-136.533 116.053-136.533 38.684 0 109.227 25.031 109.227 65.991 0 38.684-38.684 75.093-68.267 75.093-13.653 0-22.756-2.276-34.133-18.204-13.653-15.929-36.409-34.133-47.787-34.133-18.204 0-29.582 15.929-29.582 38.684 0 29.582 13.653 97.849 116.053 97.849 59.164 0 88.747-11.378 113.778-34.133 31.858-22.756 45.511-59.164 45.511-109.227 0-204.8-175.218-359.538-418.702-359.538-170.667 0-350.436 113.778-350.436 300.373 0 38.684 11.378 100.124 31.858 134.258 2.276 2.276 6.827 2.276 9.102-2.276 43.236-63.716 104.676-93.298 147.911-93.298 68.267 0 145.636 50.062 145.636 125.156 0 63.716-52.338 118.329-134.258 118.329-25.031 0-81.92-11.378-129.707-47.787-2.276-2.276-6.827 0-9.102 6.827-6.827 20.48-9.102 47.787-9.102 68.267 0 111.502 75.093 204.8 177.493 204.8 45.511 0 59.164-25.031 59.164-47.787 0 0 0-2.276 0-2.276 2.276-13.653 2.276-13.653 4.551-20.48 15.929-11.378 45.511-13.653 56.889-13.653zM136.533 518.542c0 4.551 0 4.551 4.551 11.378 13.653 15.929 70.542 43.236 118.329 43.236 63.716 0 81.92-45.511 81.92-61.44 0-45.511-25.031-75.093-81.92-75.093-40.96 0-97.849 25.031-120.604 79.644 0 2.276-2.276 2.276-2.276 2.276z" />
<glyph unicode="&#xe92a;" glyph-name="print" d="M372.7 390.7h284.1v-175.3h-284.1v175.3zM798.7 495.9c0-19.385-15.894-35.1-35.5-35.1s-35.5 15.715-35.5 35.1c0 19.385 15.894 35.1 35.5 35.1s35.5-15.715 35.5-35.1zM512 960c-282.8 0-512-229.2-512-512s229.2-512 512-512 512 229.2 512 512-229.2 512-512 512zM301.6 776.5h426.1v-140.3h-426.1v140.3zM869.8 285.5h-142v-140.3h-426.2v140.3h-142v210.4c0 58.2 47.6 105.2 106.5 105.2h497.1c58.9 0 106.5-47 106.5-105.2v-210.4z" />
<glyph unicode="&#xe92b;" glyph-name="rubriche" d="M512 960c-282.8 0-512-229.2-512-512s229.2-512 512-512 512 229.2 512 512-229.2 512-512 512zM670.6 175.6c-64.9-49.1-120.9-97.6-146.9-174.7h-1.1c1.7 20.7 2.2 42.4 2.2 47.9l2.2 49.2 3.2 78.3c29 10.1 57 35.8 57 69.3 0 44.7-36.5 71.5-76.3 71.5-36.6 0-74.2-26.8-74.2-67 0-39.1 24.7-61.5 59.1-73.8v-25.7l7-149.6h-0.9c-25.9 75.5-81 126.6-145.6 173.7-42.4 29.7-81.8 64.5-81.8 122.9 0 31.8 15.8 61.5 37.5 83 24.6 23.5 42.4 26.6 72.9 34.8 37.5 11.3 77.8 17.4 77.8 67.6 0 25.6-6.9 33.8-26.6 47.2-50.2 32.8-61.1 43-64.1 106.6v88.1c0 36.9-3.9 92.2 21.7 122 25.6 28.7 86.7 37.9 123.2 37.9 43.3 0 100.5-12.3 123.2-56.4 13.8-27.7 9.9-98.4 9.9-131.2v-57.4c0-58.4-5.9-74.8-53.2-103.5-23.8-13.3-36.6-24.5-36.6-54.3 0-46.1 32.6-53.3 69-63.5 30.5-9.2 50.3-13.3 76.8-34.8 29.6-24.6 44.3-53.3 44.3-93.2 0-48.2-44.3-88.2-79.7-114.9z" />
<glyph unicode="&#xe92c;" glyph-name="tv" horiz-adv-x="1792" d="M550.4 760.32h243.2c-15.36 58.88-28.16 117.76-43.52 179.2l-2.56 20.48h-747.52v-199.68h284.16v-824.32h266.24v824.32zM1318.4 153.6c56.32 235.52 125.44 527.36 181.76 806.4h291.84c-76.8-330.24-174.080-693.76-281.6-1024h-401.92c-102.4 327.68-194.56 693.76-273.92 1024h291.84c56.32-279.040 122.88-570.88 181.76-806.4h10.24z" />
<glyph unicode="&#xe92d;" glyph-name="arrow-r2" horiz-adv-x="683" d="M0 56.32l390.827 391.68-390.827 391.68 120.32 120.32 512-512-512-512-120.32 120.32z" />
<glyph unicode="&#xe92e;" glyph-name="eye" horiz-adv-x="1408" d="M704 928c-320.002 0-593.282-199.040-704.002-480 110.72-280.96 384-480 704.002-480 320 0 593.28 199.040 704 480-110.72 280.96-384 480-704 480zM704 128c-176.642 0-320.002 143.36-320.002 320s143.36 320 320.002 320c176.64 0 320-143.36 320-320s-143.36-320-320-320zM704 640c-106.243 0-192.002-85.76-192.002-192s85.759-192 192.002-192c106.24 0 192 85.76 192 192s-85.76 192-192 192z" />
<glyph unicode="&#xe92f;" glyph-name="arrow-l2" horiz-adv-x="683" d="M683 56.32l-390.827 391.68 390.827 391.68-120.32 120.32-512-512 512-512 120.32 120.32z" />
<glyph unicode="&#xe930;" glyph-name="arrow-l-rnd" d="M512-64c281.6 0 512 230.4 512 512s-230.4 512-512 512c-281.6 0-512-230.4-512-512s230.4-512 512-512zM597.333 704l59.733-59.733-192-196.267 196.267-196.267-64-59.733-256 256 256 256z" />
<glyph unicode="&#xe931;" glyph-name="notifications-d" d="M512-64c56.32 0 102.4 46.080 102.4 102.4h-204.8c0-56.32 46.080-102.4 102.4-102.4zM844.8 243.2v281.6c0 158.72-107.52 286.72-256 322.56v35.84c0 40.96-35.84 76.8-76.8 76.8s-76.8-35.84-76.8-76.8v-35.84c-148.48-35.84-256-163.84-256-322.56v-281.6l-102.4-102.4v-51.2h870.4v51.2l-102.4 102.4zM742.4 192h-460.8v332.8c0 128 102.4 230.4 230.4 230.4s230.4-102.4 230.4-230.4v-332.8z" />
<glyph unicode="&#xe932;" glyph-name="arrow-r-rnd" d="M512 960c-281.6 0-512-230.4-512-512s230.4-512 512-512c281.6 0 512 230.4 512 512s-230.4 512-512 512zM426.667 192l-59.733 59.733 196.267 196.267-196.267 196.267 59.733 59.733 256-256-256-256z" />
<glyph unicode="&#xe933;" glyph-name="gplus" horiz-adv-x="1212" d="M661.697 960h-317.119c-142.179 0-275.988-107.714-275.988-232.471 0-127.484 96.92-230.388 241.561-230.388 10.074 0 19.846 0.189 29.39 0.871-9.393-17.99-16.096-38.215-16.096-59.197 0-35.488 19.051-64.159 43.176-87.603-18.217 0-35.829-0.53-54.955-0.53-176.114-0.038-311.665-112.183-311.665-228.494 0-114.493 148.58-186.189 324.694-186.189 200.77 0 311.627 113.925 311.627 228.456 0 91.845-27.118 146.838-110.895 206.11-28.671 20.263-83.474 69.65-83.474 98.624 0 33.935 9.696 50.751 60.826 90.708 52.493 40.98 89.61 98.624 89.61 165.585 0 79.763-35.526 157.518-102.26 183.197h100.631l70.938 51.319zM550.916 184.226c2.462-10.567 3.863-21.512 3.863-32.647 0-92.564-59.614-164.903-230.691-164.903-121.765 0-209.671 77.036-209.671 169.638 0 90.708 109.039 166.229 230.729 164.903 28.406-0.303 54.879-4.886 78.929-12.65 66.052-46.017 113.471-71.999 126.84-124.34zM356.016 529.448c-81.656 2.462-159.336 91.39-173.463 198.687-14.051 107.297 40.715 189.408 122.409 186.946 81.694-2.424 159.336-88.549 173.463-195.847 14.089-107.259-40.715-192.249-122.409-189.787zM984.725 732.756v227.244h-75.748v-227.244h-227.244v-75.748h227.244v-227.244h75.748v227.244h227.244v75.748h-227.244z" />
<glyph unicode="&#xe934;" glyph-name="notify" d="M314.24 861.279l-61.44 73.44-220.8-184.8 61.92-73.44 220.32 184.8zM992 749.439l-220.8 185.28-61.92-73.44 220.8-185.28 61.92 73.44zM512 831.999c-238.56 0-432-193.44-432-432s192.96-431.999 432-431.999c238.56 0 432 193.44 432 431.999s-193.44 432-432 432zM512 64c-185.76 0-336 150.24-336 335.999s150.24 336 336 336 336-150.24 336-336c0-185.759-150.24-335.999-336-335.999zM560 591.999h-96v-144h-144v-96h144v-143.999h96v143.999h144v96h-144v144z" />
<glyph unicode="&#xe935;" glyph-name="school" horiz-adv-x="1252" d="M227.556 380.871v-227.556l398.222-217.316 398.222 217.316v227.556l-398.222-217.316-398.222 217.316zM625.778 960l-625.778-341.333 625.778-341.333 512 279.324v-393.102h113.778v455.111l-625.778 341.333z" />
<glyph unicode="&#xe936;" glyph-name="dictionary" d="M511.488 960c-282.624 0-511.488-229.376-511.488-512s228.864-512 511.488-512c283.136 0 512.512 229.376 512.512 512s-229.376 512-512.512 512zM866.304 652.8h-151.040c-16.384 64-39.936 125.44-70.656 182.272 94.208-32.256 172.544-97.792 221.696-182.272zM512 855.552c42.496-61.44 75.776-129.536 97.792-202.752h-195.584c22.016 73.216 55.296 141.312 97.792 202.752zM115.712 345.6c-8.192 32.768-13.312 67.072-13.312 102.4s5.12 69.632 13.312 102.4h173.056c-4.096-33.792-7.168-67.584-7.168-102.4s3.072-68.608 7.168-102.4h-173.056zM157.696 243.2h151.040c16.384-64 39.936-125.44 70.656-182.272-94.208 32.256-172.544 97.28-221.696 182.272zM308.736 652.8h-151.040c49.152 84.992 127.488 150.016 221.696 182.272-30.72-56.832-54.272-118.272-70.656-182.272zM512 40.448c-42.496 61.44-75.776 129.536-97.792 202.752h195.584c-22.016-73.216-55.296-141.312-97.792-202.752zM631.808 345.6h-239.616c-4.608 33.792-8.192 67.584-8.192 102.4s3.584 69.12 8.192 102.4h239.616c4.608-33.28 8.192-67.584 8.192-102.4s-3.584-68.608-8.192-102.4zM644.608 60.928c30.72 56.832 54.272 118.272 70.656 182.272h151.040c-49.152-84.48-127.488-150.016-221.696-182.272zM735.232 345.6c4.096 33.792 7.168 67.584 7.168 102.4s-3.072 68.608-7.168 102.4h173.056c8.192-32.768 13.312-67.072 13.312-102.4s-5.12-69.632-13.312-102.4h-173.056z" />
<glyph unicode="&#xe937;" glyph-name="calendar" d="M921.6 866.909h-51.2v93.091h-102.4v-93.091h-512v93.091h-102.4v-93.091h-51.2c-56.32 0-102.4-41.891-102.4-93.091v-744.727c0-51.2 46.080-93.091 102.4-93.091h819.2c56.32 0 102.4 41.891 102.4 93.091v744.727c0 51.2-46.080 93.091-102.4 93.091zM921.6 29.091h-819.2v605.091h819.2v-605.091z" />
<glyph unicode="&#xe938;" glyph-name="star" horiz-adv-x="1078" d="M538.947 137.027l333.069-201.027-88.387 378.88 294.265 254.922-387.503 32.876-151.444 357.322-151.444-357.322-387.503-32.876 294.265-254.922-88.387-378.88 333.069 201.027z" />
<glyph unicode="&#xe939;" glyph-name="cuffie-01" horiz-adv-x="1169" d="M584.719 964.155c-321.15 0-584.719-261.194-584.719-582.344v-274.254c0-56.394 46.303-102.697 102.697-102.697h34.43v342.521h-34.43c-11.872 0-23.745-2.374-34.43-6.53v40.366c0 283.158 232.7 514.078 516.452 514.078 283.158 0 516.452-230.326 516.452-514.078v-40.366c-10.685 3.562-21.964 6.53-34.43 6.53h-34.43v-342.521h34.43c56.394 0 102.697 46.303 102.697 102.697v274.254c0 321.15-263.569 582.344-584.719 582.344zM267.13 415.648h-34.43c-37.992 0-68.267-30.868-68.267-68.267v-343.114c0-37.992 30.868-68.267 68.267-68.267h34.43c18.996 0 34.43 15.434 34.43 34.43v410.787c0 18.996-15.434 34.43-34.43 34.43zM936.737 418.022h-34.43c-18.996 0-34.43-15.434-34.43-34.43v-411.381c0-18.996 15.434-34.43 34.43-34.43h34.43c37.992 0 68.267 30.868 68.267 68.267v342.521c0.594 38.586-30.275 69.454-68.267 69.454z" />
<glyph unicode="&#xe93a;" glyph-name="avatar-login-desk" d="M68.267 4.267h-47.787v-47.787h47.787v47.787zM955.733 4.267v-47.787h47.787v47.787h-47.787zM512 400.213c148.973 0 269.653 120.68 269.653 269.653h-95.573c0-96.19-77.89-174.080-174.080-174.080v-95.573zM781.653 669.867c0 148.973-120.68 269.653-269.653 269.653v-95.573c96.19 0 174.080-77.89 174.080-174.080h95.573zM512 939.52c-148.973 0-269.653-120.68-269.653-269.653h95.573c0 96.19 77.89 174.080 174.080 174.080v95.573zM242.347 669.867c0-148.973 120.68-269.653 269.653-269.653v95.573c-96.19 0-174.080 77.89-174.080 174.080h-95.573zM512 384.853c-80.022 0-196.996-19.702-295.173-59.032-49.127-19.681-96.552-45.451-132.463-78.593-36.235-33.444-63.884-77.592-63.884-132.028h95.573c0 19.333 9.306 39.806 33.131 61.795 24.149 22.289 59.889 42.762 103.183 60.109 86.666 34.714 191.558 52.176 259.632 52.176v95.573zM20.48 115.2v-110.933h95.573v110.933h-95.573zM68.267-43.52h887.467v95.573h-887.467v-95.573zM1003.52 4.267v110.933h-95.573v-110.933h95.573zM1003.52 115.2c0 54.436-27.648 98.584-63.884 132.028-35.908 33.142-83.333 58.913-132.465 78.593-98.174 39.33-215.15 59.032-295.171 59.032v-95.573c68.074 0 172.967-17.463 259.632-52.176 43.295-17.347 79.032-37.82 103.185-60.109 23.825-21.989 33.13-42.462 33.13-61.795h95.573z" />
<glyph unicode="&#xe93b;" glyph-name="cerca-mob" d="M731.847 315.972h-46.251l-16.395 15.809c57.378 66.745 91.921 153.396 91.921 247.658 0 210.187-170.377 380.56-380.562 380.56-210.187 0-380.56-170.374-380.56-380.56s170.374-380.562 380.56-380.562c94.261 0 180.912 34.543 247.658 91.921l15.809-16.395v-46.251l292.739-292.153 87.233 87.233-292.153 292.739zM380.56 315.972c-145.784 0-263.465 117.684-263.465 263.467s117.681 263.465 263.465 263.465c145.783 0 263.467-117.681 263.467-263.465s-117.684-263.467-263.467-263.467z" />
<glyph unicode="&#xe93c;" glyph-name="chiudi-mob" d="M1024 856.869l-103.131 103.131-408.869-408.869-408.869 408.869-103.131-103.131 408.869-408.869-408.869-408.869 103.131-103.131 408.869 408.869 408.869-408.869 103.131 103.131-408.869 408.869 408.869 408.869z" />
<glyph unicode="&#xe93d;" glyph-name="espandi-menu-mob" d="M960 384h-384v-384h-128v384h-384v128h384v384h128v-384h384v-128z" />
<glyph unicode="&#xe93e;" glyph-name="burger-desk" horiz-adv-x="1536" d="M0-64h1536v170.667h-1536v-170.667zM0 362.667h1536v170.667h-1536v-170.667zM0 960v-170.667h1536v170.667h-1536z" />
<glyph unicode="&#xe93f;" glyph-name="cerca-desk" d="M731.847 315.972h-46.251l-16.395 15.809c57.378 66.745 91.921 153.396 91.921 247.658 0 210.187-170.377 380.56-380.562 380.56-210.187 0-380.56-170.374-380.56-380.56s170.374-380.562 380.56-380.562c94.261 0 180.912 34.543 247.658 91.921l15.809-16.395v-46.251l292.739-292.153 87.233 87.233-292.153 292.739zM380.56 259.083c-205.519 0-320.354 174.573-320.354 320.356 0 205.519 174.57 320.354 320.354 320.354 205.52 0 320.356-174.57 320.356-320.354 0-205.133-174.573-320.356-320.356-320.356z" />
<glyph unicode="&#xe940;" glyph-name="chiudi-desk" horiz-adv-x="1084" d="M94.883 937.816l937.041-937.041-42.593-42.593-937.041 937.041 42.593 42.593zM52.294 0.777l937.041 937.041 42.593-42.593-937.041-937.041-42.593 42.593z" />
<glyph unicode="&#xe941;" glyph-name="freccia-menu-desk" horiz-adv-x="2048" d="M341.333 959.999l682.667-682.666 682.667 682.667h341.333l-1024-1024-1024 1024 341.333-0.001z" />
<glyph unicode="&#xe942;" glyph-name="freccia-menu" horiz-adv-x="512" d="M0 106.667l341.333 341.333-341.333 341.333v170.667l512-512-512-512v170.667z" />
<glyph unicode="&#xe943;" glyph-name="impostazioni-meteo-desk" horiz-adv-x="970" d="M681.402 469.557c0-112.86-91.491-204.351-204.351-204.351s-204.351 91.491-204.351 204.351c0 112.86 91.491 204.351 204.351 204.351s204.351-91.491 204.351-204.351z" />
<glyph unicode="&#xe944;" glyph-name="notifiche-desk" d="M314.24 861.279l-61.44 73.44-220.8-184.8 61.92-73.44 220.32 184.8zM992 749.439l-220.8 185.28-61.92-73.44 220.8-185.28 61.92 73.44zM512 831.999c-238.56 0-432-193.44-432-432s192.96-431.999 432-431.999c238.56 0 432 193.44 432 431.999s-193.44 432-432 432zM512 64c-185.76 0-336 150.24-336 335.999s150.24 336 336 336 336-150.24 336-336c0-185.759-150.24-335.999-336-335.999zM560 591.999h-96v-144h-144v-96h144v-143.999h96v143.999h144v96h-144v144z" />
<glyph unicode="&#xe945;" glyph-name="minor" horiz-adv-x="6144" d="M3632 368h-1120v160h1120v-160z" />
<glyph unicode="&#xe946;" glyph-name="zoom-in" d="M1023.998 504.889v455.111h-455.111l187.164-187.164-568.887-568.889-187.164 187.164v-455.111h455.111l-187.164 187.164 568.887 568.889 187.164-187.164z" />
<glyph unicode="&#xe947;" glyph-name="triangolo" horiz-adv-x="805" d="M0 960v-1024l804.571 512-804.571 512z" />
<glyph unicode="&#xe948;" glyph-name="zoom-out" d="M1024 887.808l-270.848-270.848 168.447-168.96h-409.599v409.599l168.447-168.447 271.359 270.848 72.192-72.192zM72.192-64l270.848 270.848 168.96-168.447v409.599h-409.599l168.447-168.447-270.848-271.359 72.192-72.192z" />
<glyph unicode="&#xe949;" glyph-name="arrow-double-l" horiz-adv-x="1109" d="M854.333 192l-256.002 256 256.002 256 60-59.998-196-196.002 196-196-60-60zM640.998 192l-256 256 256 256 60.002-59.998-195.998-196.002 195.998-196-60.002-60z" />
<glyph unicode="&#xe94a;" glyph-name="arrow-double-r" horiz-adv-x="1109" d="M254.667 704l256.002-256-256.002-256-60 59.998 196 196.002-196 196 60 60zM468.002 704l256-256-256-256-60.002 59.998 195.998 196.002-195.998 196 60.002 60z" />
<glyph unicode="&#xe94b;" glyph-name="bookmark-on" d="M0 448c0 282.8 229.2 512 512 512v0c282.8 0 512-229.2 512-512v0c0-282.8-229.2-512-512-512v0c-282.8 0-512 229.2-512 512v0zM194.4 765.6c-81.3-81.4-131.5-193.5-131.5-317.6v0c0-124.1 50.2-236.2 131.6-317.6v0c81.4-81.3 193.4-131.5 317.6-131.5v0c124.1 0 236.2 50.2 317.6 131.5v0c81.3 81.4 131.5 193.5 131.5 317.6v0c0 124.1-50.2 236.2-131.5 317.6v0c-81.5 81.3-193.6 131.5-317.7 131.5v0c-124.1 0-236.2-50.2-317.6-131.5v0 0zM368.5 592.1v0c0 18.9 16.2 35.1 37.1 35.1h232c21 0 37.4-16.2 37.4-35.1v-339.4l-153.4 62.5-3.4-1.4-149.9-61.1 0.2 339.4z" />
<glyph unicode="&#xe94c;" glyph-name="bookmark-off" d="M512 960c-282.8 0-512-229.2-512-512s229.2-512 512-512c282.8 0 512 229.2 512 512s-229.2 512-512 512zM674.9 252.7l-153.3 62.5-3.4-1.4-149.9-61.1 0.2 339.4c0 18.9 16.2 35.1 37.1 35.1h232c21 0 37.4-16.2 37.4-35.1v-339.4z" />
<glyph unicode="&#xe94d;" glyph-name="fb-empty" d="M568.1 49.4v325.4h124.3l18.6 126.9h-142.9v81c0 36.7 11.6 61.7 71.5 61.7h76.4v113.5c-13.2 1.6-58.6 5-111.4 5-110.4 0-185.6-59.1-185.6-167.7v-93.4h-124.6v-127h124.6v-325.5h149.1z" />
<glyph unicode="&#xe94e;" glyph-name="twitter-empty" d="M792.4 605.6c-20.6-9.3-42.5-15.4-65-18.1 23.7 14.4 41.4 36.9 49.7 63.3-22.2-13.3-46.5-22.8-71.9-27.8-21.2 23.1-51.2 36.3-82.6 36.3-62.9-0.4-113.6-51.8-113.2-114.7 0 0 0 0 0 0 0-8.8 1-17.6 2.9-26.1-91.4 4.7-176.4 48.3-233.5 119.8-29.9-52.3-14.6-118.8 35-152.9-17.9 0.5-35.5 5.4-51.1 14.1 0-0.5 0-0.9 0-1.4-0.2-54.3 37.7-101.2 90.8-112.5-16.6-4.6-34.1-5.2-51-2 14.5-46.4 56.9-78.5 105.6-79.7-39.9-31.8-89.5-49.1-140.5-49.1-9 0-18.1 0.5-27 1.6 51.6-33.7 111.9-51.6 173.5-51.5 177.9 0.1 322.1 144.3 322 322.2 0 1.4 0 2.7 0 4.1 0 5-0.1 9.9-0.3 14.8 22.3 16.6 41.5 36.7 56.6 59.6z" />
<glyph unicode="&#xe94f;" glyph-name="pin-empty" d="M653.3 462.5v246.8h32.3c17.8 0 32.3 14.5 32.3 32.3v0c-0.2 17.7-14.6 32-32.3 32.1h-323c-17.8 0-32.3-14.5-32.3-32.3v0c0-17.8 14.5-32.3 32.3-32.3h32.3v-246.9c0-53.5-43.4-96.7-96.9-96.7 0 0 0 0 0 0v0-64.6h192.8v-226.1l32.3-32.3 32.3 32.3v226.1h194.8v64.6c-53.5-0.1-96.8 43.2-96.9 96.7 0 0.1 0 0.2 0 0.3z" />
<glyph unicode="&#xe950;" glyph-name="linkedin-empty" d="M350.7 664.1c-34.2-0.4-62.2 27-62.6 61.2s27 62.2 61.2 62.6c34.2 0.4 62.2-27 62.6-61.2 0-0.2 0-0.5 0-0.7 0.1-34-27.2-61.6-61.2-61.9zM403.2 233.6h-105.3v386h105.3v-386zM719 233.6h105.3v237.2c0 184.3-196.7 177.6-245.6 86.9v61.9h-105.4v-386h105.3v196.6c0 109.2 140.2 118.2 140.2 0l0.2-196.6z" />
<glyph unicode="&#xe951;" glyph-name="mail-empty" d="M762.4 705.5h-475.8c-33-0.4-59.5-27.4-59.2-60.4l-0.3-362.4c-0.2-33.1 26.4-60.1 59.5-60.4h475.8c33.1 0.4 59.6 27.3 59.5 60.4v362.4c0.2 33.1-26.4 60.1-59.5 60.4zM532.9 459.6l-284.6 119.5 15.8 35.6 266.7-110.6 254.9 110.6 15.8-35.6-268.6-119.5z" />
<glyph unicode="&#xe952;" glyph-name="reportage" d="M837.81 349.543v393.824c0.018 0.695 0.028 1.512 0.028 2.332 0 52.044-41.34 94.432-92.973 96.12l-0.155 0.004h-651.582c-51.789-1.691-93.128-44.079-93.128-96.124 0-0.821 0.011-1.638 0.030-2.453l-0.002 0.121v-393.824c-0.018-0.695-0.028-1.512-0.028-2.332 0-52.044 41.34-94.432 92.973-96.12l0.155-0.004h651.582c51.789 1.691 93.128 44.079 93.128 96.124 0 0.821-0.011 1.638-0.030 2.453l0.002-0.121zM1023.972 694.14v-541.508c0.018-0.695 0.028-1.512 0.028-2.332 0-52.044-41.34-94.432-92.973-96.12l-0.155-0.004h-791.233v98.457h791.233v541.508z" />
<glyph unicode="&#xe953;" glyph-name="back-empty" d="M591.2 236.7l37.2 37.2-147.3 147.7h321.4v52.8h-321.4l147.4 147.6-37.2 37.2-211.4-211.2 211.3-211.3zM459.2 236.7l37.2 37.2-147.4 147.7-27.7 26.4 27.7 26.4 147.4 147.6-37.2 37.2-211.3-211.2 211.3-211.3z" />
<glyph unicode="&#xe954;" glyph-name="last-empty" d="M432.8 659.3l-37.3-37.3 147.4-147.6h-321.4v-52.8h321.4l-147.4-147.6 37.2-37.2 211.4 211.2-211.3 211.3zM564.8 659.3l-37.2-37.3 147.4-147.6 27.7-26.4-27.7-26.4-147.4-147.6 37.2-37.2 211.3 211.2-211.3 211.3z" />
<glyph unicode="&#xe955;" d="M712.199 139.9h-400.4c-165.9 0-300.3 134.5-300.3 300.3v0c0 165.9 134.5 300.3 300.3 300.3h400.4c165.9 0 300.3-134.5 300.3-300.3v0c0-165.9-134.4-300.3-300.3-300.3z" />
<glyph unicode="&#xe956;" d="M712.199 149.9h-400.4c-160.3 0-290.3 130-290.3 290.3v0c0 160.3 130 290.3 290.3 290.3h400.4c160.3 0 290.3-130 290.3-290.3v0c0-160.3-130-290.3-290.3-290.3z" />
<glyph unicode="&#xe957;" d="M512.5 282.4l28.7 28.7-113.6 113.8h247.8v40.7h-247.8l113.6 113.9-28.7 28.7-162.9-162.9 162.9-162.9z" />
<glyph unicode="&#xe958;" d="M311.799 740.5h400.4c165.9 0 300.3-134.5 300.3-300.3v0c0-165.9-134.5-300.3-300.3-300.3h-400.4c-165.9 0-300.3 134.5-300.3 300.3v0c0 165.9 134.4 300.3 300.3 300.3z" />
<glyph unicode="&#xe959;" d="M311.799 730.5h400.4c160.3 0 290.3-130 290.3-290.3v0c0-160.3-130-290.3-290.3-290.3h-400.4c-160.3 0-290.3 130-290.3 290.3v0c0 160.3 130 290.3 290.3 290.3z" />
<glyph unicode="&#xe95a;" d="M511.5 598l-28.7-28.7 113.6-113.8h-247.8v-40.7h247.8l-113.6-113.9 28.7-28.7 162.9 162.9-162.9 162.9z" />
<glyph unicode="&#xe95b;" glyph-name="stella" horiz-adv-x="1126" d="M575.693 171.93l-315.085-191.898 89.907 351.027-284.672 232.653 370.688 25.19 139.264 335.462 138.957-335.462 370.688-25.19-284.672-232.448 89.907-351.13-315.085 191.795z" />
<glyph unicode="&#xe95c;" glyph-name="fb" d="M595.97-64v467.098h166.045l24.868 182.032h-190.913v116.219c0 52.704 15.497 88.621 95.543 88.621l102.087 0.042v162.814c-17.654 2.218-78.258 7.174-148.761 7.174-147.192 0-247.965-84.833-247.965-240.622v-134.249h-166.474v-182.032h166.474v-467.098h199.096z" />
<glyph unicode="&#xe95d;" glyph-name="linkedin" d="M113.369 731.293c-62.58 0-113.369 51.213-113.369 114.353s50.789 114.354 113.369 114.354c62.58 0 113.37-51.213 113.37-114.354s-50.725-114.353-113.37-114.353zM210.525-64h-194.347v713.086h194.347v-713.086zM793.574-63.99h194.345v438.159c0 340.532-363.039 328.15-453.478 160.509v114.418h-194.345v-713.087h194.345v363.284c0 201.804 259.133 218.335 259.133 0v-363.284z" />
<glyph unicode="&#xe95e;" glyph-name="link-empty" d="M97.28 448c0 87.552 71.168 158.72 158.72 158.72h204.8v97.28h-204.8c-141.312 0-256-114.688-256-256s114.688-256 256-256h204.8v97.28h-204.8c-87.552 0-158.72 71.168-158.72 158.72zM307.2 396.8h409.6v102.4h-409.6v-102.4zM768 704h-204.8v-97.28h204.8c87.552 0 158.72-71.168 158.72-158.72s-71.168-158.72-158.72-158.72h-204.8v-97.28h204.8c141.312 0 256 114.688 256 256s-114.688 256-256 256z" />
<glyph unicode="&#xe95f;" glyph-name="mail-2" d="M921.6 857.6h-819.2c-56.32 0-101.888-46.080-101.888-102.4l-0.512-614.4c0-56.32 46.080-102.4 102.4-102.4h819.2c56.32 0 102.4 46.080 102.4 102.4v614.4c0 56.32-46.080 102.4-102.4 102.4zM921.6 652.8l-409.6-256-409.6 256v102.4l409.6-256 409.6 256v-102.4z" />
<glyph unicode="&#xe960;" glyph-name="wave" d="M231.747 140.8h102.4v614.4h-102.4v-614.4zM436.547-64h102.4v1024h-102.4v-1024zM26.947 345.6h102.4v204.8h-102.4v-204.8zM641.347 140.8h102.4v614.4h-102.4v-614.4zM846.147 550.4v-204.8h102.4v204.8h-102.4z" />
<glyph unicode="&#xe961;" glyph-name="telegram-empty" d="M382.706 72.64c-30.417 0-24.958 11.699-35.877 40.559l-88.913 293.252 552.195 344.733 64.734-17.159-53.815-146.627-438.324-514.758zM382.75 72.64c23.398 0 33.537 10.918 46.797 23.398 20.279 19.499 280.777 272.977 280.777 272.977l-159.889 38.997-148.186-93.594-19.499-233.98v-7.799zM398.34 311.3l377.489-278.434c42.897-23.398 74.095-11.699 85.013 39.774l153.647 723.78c15.599 63.175-24.179 91.252-65.515 72.534l-901.605-347.85c-61.615-24.958-60.835-59.275-10.919-74.093l231.64-72.533 535.813 337.711c24.96 15.599 48.358 7.019 29.641-10.139l-435.204-390.748z" />
<glyph unicode="&#xe962;" glyph-name="twitter" d="M1015.096 753.832c-37.345-16.093-77.486-26.965-119.608-31.856 42.986 25.037 76.016 64.684 91.568 111.928-40.243-23.188-84.814-40.021-132.252-49.093-37.986 39.321-92.111 63.885-152.011 63.885-115.009 0-208.264-90.579-208.264-202.304 0-15.856 1.843-31.302 5.396-46.108-173.084 8.438-326.542 88.983-429.256 211.384-17.928-29.879-28.195-64.635-28.195-101.712 0-70.193 36.766-132.115 92.649-168.392-34.141 1.049-66.257 10.151-94.332 25.301-0.019-0.84-0.019-1.684-0.019-2.543 0-98.023 71.786-179.782 167.056-198.379-17.469-4.621-35.872-7.097-54.864-7.097-13.418 0-26.465 1.273-39.183 3.633 26.499-80.371 103.409-138.868 194.546-140.493-71.274-54.268-161.072-86.608-258.646-86.608-16.812 0-33.387 0.957-49.682 2.827 92.166-57.397 201.637-90.9 319.243-90.9 383.065 0 592.545 308.277 592.545 575.628 0 8.773-0.214 17.493-0.61 26.169 40.693 28.53 75.999 64.157 103.918 104.73z" />
<glyph unicode="&#xe963;" glyph-name="whatsapp" d="M756.992 347.848c-12.6 6.847-74.496 39.992-86.109 44.679-11.604 4.673-20.075 7.107-29.123-5.32-9.039-12.395-34.718-40.164-42.501-48.384-7.82-8.225-15.332-8.988-27.946-2.122-12.572 6.824-53.42 21.816-100.799 67.002-36.863 35.17-61.038 77.81-68.054 90.824-7.018 13.029-0.052 19.665 6.614 25.762 5.983 5.504 13.4 14.414 20.097 21.598 6.677 7.189 9.037 12.414 13.632 20.755 4.591 8.34 2.743 15.855-0.234 22.344-2.974 6.472-26.269 70.098-36.002 95.98-9.727 25.882-20.568 22.031-28.059 22.321-7.485 0.256-15.998 1.658-24.559 1.966-8.554 0.324-22.585-2.353-34.817-14.647-12.239-12.3-46.554-41.869-48.918-104.537-2.361-62.629 41.324-124.886 47.418-133.604 6.096-8.741 83.423-144.542 211.928-200.392 128.54-55.831 129.21-38.805 152.79-37.553 23.599 1.229 77.084 27.997 88.911 57.307 11.813 29.324 12.763 54.812 9.761 60.239-3.016 5.423-11.432 8.951-24.031 15.784v0zM521.286 45.945c-84.984 0-164.139 25.293-230.228 68.65l-160.818-51.079 52.271 154.196c-50.095 68.478-79.692 152.581-79.692 243.47 0 228.984 187.732 415.27 418.467 415.27 230.777 0 418.495-186.286 418.495-415.27 0-228.962-187.718-415.237-418.495-415.237v0zM521.286 960c-277.616 0-502.682-223.317-502.682-498.818 0-94.236 26.355-182.379 72.128-257.569l-90.732-267.613 278.319 88.408c72.026-39.503 154.844-62.040 242.967-62.040 277.662 0 502.714 223.344 502.714 498.814 0 275.502-225.052 498.818-502.714 498.818z" />
<glyph unicode="&#xe964;" glyph-name="pause" d="M68.010 960.022h266.485v-1024h-266.485v1023.996zM689.657 960.022h266.333v-1024h-266.333v1023.996z" />
<glyph unicode="&#xe965;" glyph-name="instagram" d="M512.146 710.584c-0.152 0-0.332 0.001-0.513 0.001-144.738 0-262.071-117.333-262.071-262.071 0-0.18 0-0.361 0.001-0.541v0.028c0-0.152-0.001-0.332-0.001-0.513 0-144.738 117.333-262.071 262.071-262.071 0.18 0 0.361 0 0.541 0.001h-0.028c0.109 0 0.237 0 0.366 0 144.738 0 262.071 117.333 262.071 262.071 0 0.18 0 0.36-0.001 0.54v-0.028c0 0.152 0.001 0.332 0.001 0.512 0 144.738-117.333 262.071-262.071 262.071-0.129 0-0.258 0-0.386 0h0.020zM512.146 277.286c-94.216 0.166-170.549 76.499-170.715 170.699v0.016c0.083 94.25 76.465 170.632 170.707 170.715h0.008c94.219-0.125 170.559-76.491 170.642-170.707v-0.008c-0.166-94.191-76.457-170.508-170.623-170.715h-0.020zM846.555 721.263c0-0.043 0-0.095 0-0.146 0-33.73-27.344-61.074-61.074-61.074-0.051 0-0.103 0-0.154 0h0.008c-33.811 0-61.221 27.409-61.221 61.221s27.409 61.221 61.221 61.221c33.811 0 61.221-27.409 61.221-61.221v0zM1020.416 659.091c-3.877 82.066-22.674 154.697-82.651 214.601-60.050 59.831-132.608 78.629-214.674 82.651-84.48 4.827-337.847 4.827-422.327 0-81.774-3.73-154.478-22.455-214.455-82.359-60.123-59.904-78.629-132.608-82.651-214.601-4.827-84.553-4.827-337.92 0-422.546 3.73-81.993 22.455-154.551 82.651-214.528 60.050-59.831 132.462-78.629 214.528-82.651 84.48-4.827 337.847-4.827 422.327 0 82.066 3.803 154.697 22.528 214.528 82.651 59.904 59.904 78.629 132.535 82.651 214.528 4.827 84.553 4.827 337.774 0 422.327zM911.214 146.14c-17.945-44.632-52.648-79.335-96.119-96.867l-1.161-0.413c-67.438-26.77-227.328-20.626-301.787-20.626-74.533 0-234.642-5.851-301.787 20.626-44.632 17.945-79.335 52.648-96.867 96.119l-0.413 1.161c-26.77 67.438-20.699 227.401-20.699 301.861s-5.925 234.642 20.553 301.861c17.945 44.632 52.648 79.335 96.119 96.867l1.161 0.413c67.438 26.77 227.328 20.626 301.861 20.626 74.459 0 234.569 5.851 301.714-20.553 44.644-17.961 79.351-52.692 96.867-96.192l0.413-1.161c26.77-67.438 20.626-227.401 20.626-301.861s6.144-234.642-20.553-301.861z" />
<glyph unicode="&#xe966;" glyph-name="icon-quotes" horiz-adv-x="1337" d="M28.444-59.259c355.556 56.889 573.63 289.185 573.63 696.889 0 189.63-137.481 322.37-298.667 322.37-165.926 0-274.963-128-274.963-274.963 0-161.185 128-237.037 222.815-251.259 47.407-9.481 61.63-56.889 61.63-109.037 0-99.556-113.778-218.074-312.889-260.741l28.444-123.259zM758.519-59.259c355.556 56.889 573.63 289.185 573.63 696.889 0 189.63-137.481 322.37-298.667 322.37-165.926 0-274.963-128-274.963-274.963 0-161.185 128-237.037 222.815-251.259 47.407-9.481 61.63-56.889 61.63-109.037 0-99.556-113.778-218.074-312.889-260.741l28.444-123.259z" />
<glyph unicode="&#xe967;" glyph-name="p-twitter-x" d="M512 960c-135.791 0-266.020-53.943-362.038-149.962s-149.962-226.248-149.962-362.038c0-67.238 13.243-133.818 38.974-195.935s63.444-118.561 110.988-166.106c47.543-47.539 103.986-85.254 166.105-110.988 62.119-25.729 128.697-38.971 195.934-38.971s133.818 13.243 195.935 38.971c62.118 25.734 118.561 63.448 166.106 110.988 47.539 47.544 85.254 103.988 110.988 166.106 25.729 62.118 38.971 128.698 38.971 195.935s-13.243 133.816-38.971 195.934c-25.734 62.119-63.448 118.561-110.988 166.104-47.544 47.544-103.988 85.258-166.106 110.988s-128.698 38.974-195.935 38.974zM207.768 767.072h185.169l160.552-233.662 201.011 233.662h54.851l-231.493-269.101 251.765-366.427h-185.171l-169.554 246.754-212.271-246.754h-54.86l242.773 282.194-242.773 353.334zM282.396 725.768l387.864-554.802h84.26l-387.863 554.802h-84.261z" />
<glyph unicode="&#xe97d;" glyph-name="cuffiette" d="M512 960c-282.77 0-512-229.23-512-512v0-398.208c0.181-62.772 51.019-113.611 113.774-113.792h227.602v455.104h-227.584v56.896c0 219.924 178.284 398.208 398.208 398.208s398.208-178.284 398.208-398.208v0-56.896h-227.52v-455.104h227.584c62.772 0.181 113.611 51.019 113.792 113.774v398.226c0 282.77-229.23 512-512 512-0.023 0-0.045 0-0.068 0h0.004z" />
<glyph unicode="&#xe97e;" glyph-name="logo-corriere-black" horiz-adv-x="13354" d="M10731.187 579.178c-128.484 62.817-131.512 116.33-129.731 143.754 3.112 49.87 44.319 89.138 94.698 89.138 3.716 0 7.382-0.214 10.986-0.629l-0.439 0.041c99.502 0 118.245-99.235 121.227-123.097 3.161-25.554 5.387-83.341 5.387-83.341h153.771l79.601 347.611-141.707-0.312c-0.473 0.020-1.028 0.031-1.585 0.031-17.881 0-33.026-11.713-38.182-27.884l-0.078-0.284-7.702-25.599c-0.445-0.935-0.712-1.647-0.712-1.647-46.565 39.286-107.245 63.162-173.502 63.162-3.755 0-7.492-0.077-11.209-0.229l0.532 0.017c-6.030 0.442-13.064 0.694-20.156 0.694-69.197 0-132.797-23.967-182.95-64.052l0.586 0.452c-69.079-50.382-114.787-129.235-119.769-218.953l-0.033-0.752c-0.903-8.413-1.418-18.173-1.418-28.053 0-68.843 25.005-131.845 66.429-180.421l-0.323 0.388c73.591-100.259 299.885-153.015 293.831-270.858 0.158-2.151 0.249-4.66 0.249-7.19 0-57.51-46.621-104.132-104.132-104.132-0.761 0-1.519 0.008-2.276 0.024l0.113-0.002c-1.477-0.058-3.21-0.091-4.951-0.091-49.625 0-93.010 26.717-116.555 66.553l-0.344 0.629c-20.62 40.439-35.373 87.47-41.631 137.145l-0.217 2.113c-3.562 28.315-2.003 40.379-31.164 40.379h-127.772l-107.782-380.244h198.113l11.174 51.866c61.215-66.156 200.339-68.16 200.339-68.16 205.281 0 355.224 127.594 381.935 308.122s-124.344 270.858-252.65 333.809zM1188.456 951.541c-20.701 4.887-44.468 7.69-68.891 7.69-147.943 0-271.87-102.825-304.213-240.907l-0.417-2.114-95.851-422.938c-3.879-17.905-6.1-38.474-6.1-59.562 0-141.125 99.491-259.012 232.16-287.348l1.926-0.345c160.271-38.91 333.587 36.862 375.168 200.339 0 0 94.649 411.185 95.495 414.613 46.301 216.099-62.283 349.881-229.277 390.572zM1204.706 635.228l-96.207-422.716-1.38-5.565c-8.741-38.74-42.464-67.381-83.025-68.247l-0.094-0.002c-6.85 0.013-13.493 0.872-19.838 2.48l0.561-0.12c-37.974 10.739-65.332 45.087-65.332 85.826 0 7.188 0.852 14.177 2.46 20.872l-0.123-0.607 0.801 4.051 96.92 424.986c8.242 39.457 42.428 68.778 83.58 69.45l0.072 0.001c6.769-0.016 13.337-0.843 19.622-2.388l-0.567 0.118c37.996-10.886 65.334-45.316 65.334-86.131 0-7.867-1.016-15.496-2.923-22.764l0.139 0.623zM479.701 550.373h222.599l91.844 401.212h-165.614c-30.184 0-47.325-54.225-47.325-54.225-29.942 23.37-65.226 41.556-103.576 52.454l-2.159 0.524c-20.423 4.74-43.873 7.457-67.958 7.457-147.654 0-271.457-102.118-304.637-239.582l-0.436-2.139-95.94-422.938c-4.361-18.85-6.86-40.495-6.86-62.724 0-140.097 99.28-257.005 231.323-284.208l1.875-0.323c160.271-38.91 337.327 38.91 376.994 200.339l52.578 226.784h-175.853c-29.201-4.020-52.429-25.567-58.897-53.531l-0.092-0.472-26.356-113.748c-9.235-42.247-46.328-73.409-90.699-73.409-7.079 0-13.974 0.793-20.599 2.296l0.621-0.118c-41.101 11.503-70.744 48.627-70.744 92.675 0 7.92 0.958 15.616 2.765 22.979l-0.137-0.659 97.944 429.082c9.034 42.94 46.6 74.714 91.586 74.714 6.983 0 13.788-0.766 20.334-2.218l-0.621 0.116c41.146-11.635 70.791-48.852 70.791-92.993 0-8.271-1.041-16.3-2.999-23.961l0.145 0.668c-0.401-0.445-19.9-84.053-19.9-84.053zM2120.478 134.825c-26.73 8.853-45.673 33.618-45.673 62.808 0 9.827 2.147 19.152 5.997 27.532l-0.169-0.411c8.637 29.116 10.24 36.506 18.164 65.266s15.983 126.036-41.671 179.905c79.627 45.978 133.513 128.781 138.385 224.522l0.027 0.659c12.421 138.501-65.978 255.811-264.225 255.811h-357.628c-19.424-1.068-35.392-14.678-40.003-32.821l-0.065-0.302-37.664-164.723c1.87 0 86.457 8.014 62.061-106.848-12.154-57.208-64.019-280.475-100.837-443.818-4.683-13.845-10.962-25.862-18.794-36.681l0.274 0.397c-16.088-20.356-40.278-33.696-67.623-35.117l-0.225-0.009h-1.781l-40.825-178.569h397.295l41.092 179.192h-6.010c-3.087-0.435-6.654-0.683-10.278-0.683-21.369 0-40.724 8.628-54.769 22.59l0.004-0.004c-7.044 11.424-11.218 25.269-11.218 40.089 0 7.85 1.171 15.426 3.348 22.563l-0.144-0.547c0.579 2.983 41.715 182.531 41.715 182.531 7.079 31.431 20.835 30.941 39.4 30.941h77.064c28.982 0 32.678-20.257 23.774-58.811-10.729-46.612-47.102-209.243-50.485-225.404-22.26-106.536 31.164-192.593 146.915-192.593h112.323zM1939.728 676.498c-6.010-30.941-14.157-68.382-19.989-90.998-2.986-12.577-14.123-21.789-27.411-21.789-0.365 0-0.728 0.007-1.089 0.021l0.052-0.002h-123.854l40.068 176.521c5.031 21.948 23.061 28.493 63.708 28.493 65.889 0.045 77.91-43.941 68.516-92.245zM2905.229 134.825c-26.73 8.853-45.673 33.618-45.673 62.808 0 9.827 2.147 19.152 5.997 27.532l-0.169-0.411c8.904 29.116 10.284 36.506 18.164 65.266s15.983 126.036-41.671 179.905c79.622 45.984 133.504 128.784 138.385 224.521l0.027 0.66c12.421 138.546-66.023 255.9-264.448 255.9h-357.45c-19.413-1.098-35.366-14.694-40.002-32.82l-0.066-0.303-37.619-164.723c1.914 0 86.457 8.014 62.061-106.848-12.154-57.208-64.019-280.475-100.837-443.818-4.67-13.846-10.95-25.864-18.791-36.676l0.271 0.392c-16.084-20.361-40.277-33.703-67.624-35.117l-0.224-0.009h-1.781l-40.825-178.569h397.339l41.047 179.192h-6.010c-3.083-0.433-6.644-0.68-10.262-0.68-21.374 0-40.733 8.627-54.785 22.588l0.004-0.004c-7.053 11.414-11.233 25.251-11.233 40.064 0 7.859 1.177 15.444 3.363 22.587l-0.144-0.546c0.579 2.983 41.671 182.531 41.671 182.531 7.079 31.431 20.835 30.941 39.4 30.941h77.064c28.982 0 32.678-20.257 23.774-58.811-10.774-46.612-47.102-209.243-50.485-225.404-22.26-106.536 31.164-192.593 146.915-192.593h112.323zM2724.434 676.498c-5.966-30.941-14.113-68.382-19.989-90.998-3.004-12.579-14.15-21.788-27.446-21.788-0.352 0-0.703 0.006-1.052 0.019l0.050-0.001h-123.854l40.068 176.566c5.031 21.948 23.061 28.493 63.708 28.493 65.934 0 77.865-43.986 68.516-92.29zM4881.73 134.825c-26.716 8.844-45.651 33.595-45.651 62.769 0 9.842 2.155 19.181 6.019 27.571l-0.169-0.41c8.637 29.116 10.24 36.506 18.164 65.266s15.983 126.036-41.671 179.905c79.622 45.984 133.504 128.784 138.385 224.521l0.027 0.66c12.377 138.546-66.023 255.9-264.448 255.9h-357.45c-19.413-1.098-35.366-14.694-40.002-32.82l-0.066-0.303-37.619-164.723c1.87 0 86.502 8.014 62.061-106.848-12.198-57.208-63.975-280.475-100.837-443.818-4.647-13.847-10.93-25.867-18.787-36.668l0.267 0.385c-16.088-20.356-40.278-33.696-67.623-35.117l-0.225-0.009h-1.825l-40.825-178.569h397.339l41.092 179.192h-6.010c-3.087-0.435-6.654-0.683-10.278-0.683-21.369 0-40.724 8.628-54.769 22.59l0.004-0.004c-7.053 11.414-11.233 25.251-11.233 40.064 0 7.859 1.177 15.444 3.363 22.587l-0.144-0.546c0.579 2.983 41.671 182.531 41.671 182.531 7.123 31.431 20.835 30.941 39.4 30.941h77.064c29.027 0 32.678-20.257 23.774-58.811-10.774-46.612-47.102-209.243-50.485-225.404-22.26-106.536 31.164-192.593 146.915-192.593h112.413zM4700.935 676.498c-5.966-30.941-14.157-68.382-19.945-90.998-3.004-12.579-14.15-21.788-27.446-21.788-0.352 0-0.703 0.006-1.052 0.019l0.050-0.001h-123.81l40.068 176.566c4.986 21.948 23.061 28.493 63.708 28.493 65.845 0 77.954-43.986 68.427-92.29zM12459.802 134.825c-26.73 8.853-45.673 33.618-45.673 62.808 0 9.827 2.147 19.152 5.997 27.532l-0.169-0.411c8.681 29.116 10.24 36.506 18.164 65.266s15.983 126.036-41.671 179.905c79.621 45.952 133.516 128.719 138.429 224.428l0.027 0.664c12.421 138.546-65.978 255.9-264.403 255.9h-357.45c-19.424-1.068-35.392-14.678-40.003-32.821l-0.065-0.302-37.664-164.723c1.914 0 86.502 8.014 62.061-106.848-12.154-57.208-63.975-280.475-100.837-443.818-4.671-13.846-10.951-25.864-18.791-36.676l0.271 0.393c-16.084-20.361-40.277-33.703-67.624-35.117l-0.224-0.009h-1.781l-40.825-178.569h397.295l41.092 179.192h-6.010c-3.080-0.433-6.639-0.68-10.255-0.68-21.362 0-40.709 8.627-54.748 22.587l0.003-0.003c-7.065 11.4-11.252 25.227-11.252 40.033 0 7.871 1.184 15.466 3.382 22.617l-0.144-0.544c0.579 2.983 41.671 182.531 41.671 182.531 7.123 31.431 20.88 30.941 39.4 30.941h77.019c29.027 0 32.722-20.257 23.818-58.811-10.774-46.612-47.146-209.243-50.485-225.404-22.26-106.536 31.164-192.593 146.915-192.593h112.279zM12279.052 676.498c-6.010-30.941-14.113-68.382-19.989-90.998-3.004-12.579-14.15-21.788-27.446-21.788-0.352 0-0.703 0.006-1.052 0.019l0.050-0.001h-123.81l40.068 176.566c4.986 21.948 23.061 28.493 63.708 28.493 65.845 0 77.821-43.986 68.471-92.29zM8195.161 331.647c-12.862-62.387-27.653-115.164-45.612-166.451l2.74 8.984c-14.742-29.611-44.798-49.598-79.523-49.598-4.315 0-8.557 0.309-12.707 0.905l0.474-0.056c-13.668 0-29.383-0.534-42.873 0.89-22.582 1.112-42.861 10.15-58.297 24.367l0.065-0.059c-9.366 11.822-15.026 26.953-15.026 43.406 0 7.356 1.131 14.448 3.229 21.111l-0.135-0.497c16.161 69.54 106.091 459.934 108.584 471.109 11.264 33.301 35.616 66.78 109.474 66.78l47.77 199.093h-377.617c-19.396-1.177-35.318-14.758-40.001-32.862l-0.067-0.305-38.287-166.059c1.87 0 84.988-0.89 61.393-107.070-6.055-27.38-21.37-93.135-39.801-172.158h-0.223c-19.989-85.656-43.629-186.983-63.352-271.838-4.688-13.848-10.998-25.866-18.876-36.667l0.267 0.383c-15.89-20.037-39.64-33.245-66.514-34.935l-0.265-0.013-41.136-178.079h673.139l87.882 379.665h-154.528zM8900.088 332.182c-12.845-62.365-27.637-115.142-45.607-166.425l2.734 8.958c-14.729-29.612-44.779-49.602-79.497-49.602-4.324 0-8.575 0.31-12.734 0.909l0.475-0.056c-13.668 0-29.383-0.534-42.873 0.935-22.594 1.083-42.892 10.109-58.342 24.323l0.066-0.060c-9.386 11.83-15.058 26.976-15.058 43.447 0 7.341 1.127 14.419 3.217 21.070l-0.135-0.497c16.205 69.54 106.091 459.934 108.584 471.109 11.264 33.256 35.616 66.78 109.43 66.78l47.903 199.093h-377.662c-19.402-1.162-35.331-14.751-40.001-32.862l-0.067-0.305-38.243-165.925c1.825 0 84.988-0.89 61.348-107.070-6.099-27.335-21.414-93.18-39.801-172.158h-0.223c-19.989-85.656-43.674-186.983-63.352-271.571-4.695-13.864-11.004-25.896-18.878-36.716l0.269 0.388c-15.879-20.050-39.635-33.263-66.517-34.935l-0.263-0.013-41.136-178.079h673.139l87.838 379.665h-154.528zM6691.638 951.23h-333.899c-19.43-1.089-35.395-14.712-40.003-32.865l-0.065-0.302-37.575-165.703c2.048 0 85.033-1.068 61.793-106.848-12.377-57.208-63.663-280.208-100.481-443.328-4.716-13.781-11.022-25.736-18.876-36.489l0.267 0.383c-16.274-20.605-40.884-34.006-68.656-35.076l-0.172-0.005-41.092-178.079 493.547 0.223c102.396 0 218.592 44.164 267.831 249.756 43.54 200.962 88.817 386.966 88.817 386.966 36.907 188.675-99.813 361.367-271.437 361.367zM6741.055 616.797c-5.699-24.619-17.096-74.927-29.962-131.69-23.061-101.594-51.732-228.030-59.033-257.191-16.873-66.78-39.623-88.016-93.492-88.016-7.524 0-87.749-0.401-98.389 0l136.943 605.069h66.78c0.074 0 0.161 0 0.248 0 25.642 0 48.392-12.381 62.6-31.49l0.148-0.208c11.821-17.931 18.857-39.924 18.857-63.561 0-11.732-1.733-23.059-4.958-33.739l0.214 0.825zM9898.044 130.641c-26.712 0-59.078 0.534-83.029 84.142-57.475 200.339-184.668 734.844-184.668 734.844h-161.919c-19.692-2.538-35.909-15.26-43.36-32.634l-0.135-0.355-298.817-735.378c-16.126-30.27-47.485-50.526-83.574-50.526-0.967 0-1.931 0.015-2.891 0.043l0.141-0.003-41.181-178.524h344.183l42.962 185.781h-59.879c-6.035 0.238-11.25 3.538-14.158 8.381l-0.044 0.078c-4.463 8.047-7.090 17.646-7.090 27.859 0 7.865 1.558 15.367 4.383 22.212l-0.142-0.387c4.205 12.142 8.565 22.243 13.555 31.967l-0.644-1.382 0.223 0.579h247.53l0.445-1.692c1.692-6.99 4.452-17.407 9.527-40.068 1.122-3.624 1.768-7.791 1.768-12.108 0-7.804-2.111-15.115-5.794-21.392l0.108 0.199c-6.103-8.609-16.028-14.159-27.25-14.159-0.124 0-0.248 0.001-0.371 0.002h-35.107l-42.784-185.781h394.579l41.225 178.792c-2.76-0.49 1.113-0.49-7.791-0.49zM9365.053 341.753l106.313 260.752 71.588-260.752zM13346.147 130.641c-26.712 0-59.122 0.534-83.074 84.142-57.431 200.339-184.668 734.844-184.668 734.844h-161.696c-19.67-2.562-35.864-15.277-43.316-32.634l-0.136-0.355-298.995-735.779c-16.115-30.269-47.465-50.525-83.547-50.525-0.961 0-1.919 0.014-2.873 0.043l0.14-0.003-41.225-178.524h344.183l43.006 185.781h-59.924c-6.016 0.217-11.212 3.527-14.069 8.379l-0.043 0.080c-4.504 8.065-7.156 17.695-7.156 27.944 0 7.834 1.549 15.306 4.358 22.127l-0.141-0.387c4.229 12.166 8.588 22.266 13.567 31.997l-0.656-1.412 0.312 0.579h247.53l0.445-1.692c1.692-6.99 4.452-17.407 9.527-40.068 1.117-3.621 1.761-7.784 1.761-12.097 0-7.807-2.109-15.121-5.787-21.405l0.108 0.2c-6.084-8.608-15.996-14.16-27.204-14.16-0.14 0-0.28 0.001-0.42 0.003h-35.061l-42.784-185.781h394.579l41.181 178.792zM12813.111 341.753l106.313 260.752 71.588-260.752zM3143.9 950.918c-19.424-1.139-35.373-14.761-40.002-32.908l-0.066-0.304-38.287-164.723c1.914 0 87.927 6.945 66.245-91.844-2.404-10.907-13.801-64.554-13.801-64.554-21.548-93.091-56.852-259.372-91.8-395.158-3.984-13.937-10.389-26.053-18.806-36.478l0.152 0.194c-15.103-21.294-39.658-35.022-67.421-35.022-0.777 0-1.551 0.011-2.322 0.032l0.114-0.002-41.448-178.079h395.38l41.626 178.524c-24.13 0-96.831-4.452-73.814 95.629 8.058 35.215 87.838 380.644 100.348 432.465 3.634 53.582 47.989 95.67 102.174 95.67 5.199 0 10.307-0.387 15.297-1.135l-0.563 0.069 45.855 197.579h-378.864zM3602.676 950.918c-19.43-1.124-35.386-14.753-40.002-32.909l-0.065-0.303-37.931-165.436c1.736 0 84.944-0.935 61.615-107.070-12.555-57.119-64.331-280.475-101.594-443.862-4.622-13.846-10.891-25.869-18.741-36.667l0.266 0.384c-18.143-21.779-45.272-35.54-75.615-35.54-3.647 0-7.247 0.199-10.79 0.586l0.438-0.039-41.003-178.079h692.817l79.023 346.809h-154.439c-7.32-46.738-19.486-88.67-36.234-128.189l1.33 3.534c-16.118-30.060-47.321-50.157-83.219-50.157-3.619 0-7.19 0.204-10.703 0.602l0.43-0.040c-0.034 0-0.074 0-0.114 0-34.212 0-64.68 16.033-84.299 40.995l-0.175 0.231c-12.846 17.081-20.572 38.649-20.572 62.021 0 9.287 1.22 18.288 3.508 26.853l-0.165-0.725c8.014 36.462 17.541 76.173 22.26 98.878 8.904 41.581 19.277 62.328 54.759 60.903 20.848-3.822 36.44-21.85 36.44-43.52 0-4.565-0.692-8.968-1.976-13.11l0.084 0.313c-2.003-10.774-12.733-60.146-12.733-60.146h79.69l72.567 308.923h-81.605s-6.010-26.445-14.335-63.886c-5.641-20.687-24.262-35.645-46.377-35.645-0.584 0-1.165 0.010-1.744 0.031l0.084-0.002c-32.143 1.959-40.513 31.743-34.592 58.989 4.452 20.479 11.976 59.078 18.298 89.574 4.48 58.459 53.017 104.196 112.236 104.196 4.911 0 9.749-0.315 14.495-0.925l-0.562 0.059c35.903-0.566 66.558-22.445 79.916-53.517l0.22-0.575c7.028-16.377 11.114-35.437 11.114-55.452 0-16.267-2.7-31.904-7.675-46.487l0.3 1.013h143.309l79.067 347.254h-647.006zM5690.922 603.485l79.067 347.254h-647.14c-19.424-1.139-35.373-14.761-40.002-32.908l-0.066-0.304-37.931-165.436c1.781 0 84.988-0.935 61.66-107.070-12.599-57.119-64.331-280.475-101.594-443.862-4.61-13.847-10.88-25.871-18.739-36.663l0.264 0.38c-16.022-20.275-40.088-33.582-67.301-35.071l-0.235-0.010-41.136-178.079h674.475l79.023 346.809h-154.484c-7.321-46.738-19.488-88.67-36.234-128.189l1.33 3.534c-16.118-30.060-47.321-50.157-83.219-50.157-3.619 0-7.19 0.204-10.703 0.602l0.43-0.040c-0.040 0-0.088 0-0.136 0-34.206 0-64.666 16.033-84.277 40.994l-0.175 0.231c-12.841 17.089-20.564 38.663-20.564 62.040 0 9.28 1.217 18.275 3.5 26.835l-0.165-0.726c8.014 36.462 17.496 76.173 22.26 98.878 8.904 41.581 19.233 62.328 54.715 60.903 20.869-3.804 36.482-21.843 36.482-43.528 0-4.562-0.691-8.963-1.974-13.103l0.084 0.313c-2.003-10.774-12.688-60.146-12.688-60.146h79.735l72.567 308.923h-82.273s-6.010-26.445-14.335-63.886c-5.641-20.687-24.262-35.645-46.377-35.645-0.584 0-1.165 0.010-1.744 0.031l0.084-0.002c-32.143 1.959-40.513 31.743-34.592 58.989 4.452 20.479 12.020 59.078 18.298 89.574 4.304 58.618 52.919 104.545 112.261 104.545 5.139 0 10.198-0.344 15.154-1.012l-0.579 0.064c35.903-0.566 66.558-22.445 79.916-53.517l0.22-0.575c7.021-16.38 11.103-35.443 11.103-55.459 0-16.264-2.695-31.899-7.663-46.482l0.3 1.014h143.265zM7671.252 603.485l79.067 347.254h-647.14c-19.424-1.139-35.373-14.761-40.002-32.908l-0.066-0.304-37.975-165.436c1.736 0 85.033-0.935 61.66-107.070-12.555-57.119-64.331-280.475-101.55-443.862-4.626-13.848-10.91-25.871-18.783-36.661l0.263 0.378c-16.018-20.279-40.086-33.588-67.302-35.071l-0.235-0.010-41.136-178.079h674.52l79.023 346.809h-154.484c-7.292-46.73-19.444-88.664-36.186-128.182l1.327 3.527c-16.106-30.060-47.302-50.16-83.193-50.16-3.628 0-7.208 0.205-10.729 0.605l0.431-0.040c-0.079 0-0.172 0-0.266 0-34.166 0-64.587 16.036-84.146 40.993l-0.176 0.233c-12.866 17.090-20.605 38.674-20.605 62.065 0 9.27 1.216 18.257 3.496 26.809l-0.164-0.725c8.014 36.462 17.585 76.173 22.26 98.878 8.904 41.581 19.277 62.328 54.715 60.903 20.872-3.78 36.495-21.812 36.495-43.493 0-4.575-0.696-8.988-1.987-13.138l0.084 0.313c-2.003-10.774-12.688-60.146-12.688-60.146h79.69l72.612 308.923h-81.827s-6.010-26.445-14.335-63.886c-5.641-20.687-24.262-35.645-46.377-35.645-0.584 0-1.165 0.010-1.744 0.031l0.084-0.002c-32.143 1.959-40.513 31.743-34.636 58.989 4.452 20.479 12.020 59.078 18.298 89.574 4.364 58.589 52.972 104.472 112.298 104.472 4.937 0 9.8-0.318 14.569-0.934l-0.564 0.059c35.903-0.566 66.558-22.445 79.916-53.517l0.22-0.575c7.028-16.377 11.114-35.437 11.114-55.452 0-16.267-2.7-31.904-7.675-46.487l0.3 1.013h143.354zM11749.622 603.485l79.112 347.254h-647.095c-19.418-1.154-35.36-14.769-40.002-32.908l-0.066-0.304-37.931-165.436c1.736 0 84.988-0.935 61.66-107.070-12.555-57.119-64.331-280.475-101.594-443.862-4.608-13.847-10.878-25.871-18.739-36.662l0.263 0.379c-16.018-20.279-40.086-33.588-67.302-35.071l-0.235-0.010-41.136-178.079h674.475l79.067 346.809h-154.528c-7.294-46.73-19.446-88.665-36.186-128.184l1.327 3.528c-16.106-30.060-47.302-50.16-83.193-50.16-3.628 0-7.208 0.205-10.729 0.605l0.431-0.040c-0.079 0-0.172 0-0.266 0-34.166 0-64.587 16.036-84.146 40.993l-0.176 0.233c-12.862 17.053-20.6 38.6-20.6 61.955 0 9.311 1.23 18.335 3.536 26.918l-0.166-0.724c7.969 36.462 17.496 76.173 22.26 98.878 8.904 41.581 19.277 62.328 54.715 60.903 20.848-3.822 36.44-21.85 36.44-43.52 0-4.565-0.692-8.968-1.976-13.11l0.084 0.313c-2.048-10.774-12.733-60.146-12.733-60.146h79.735l72.612 308.923h-82.317s-6.010-26.445-14.335-63.886c-5.64-20.688-24.262-35.646-46.377-35.646-0.599 0-1.196 0.011-1.79 0.033l0.086-0.002c-32.099 1.959-40.513 31.743-34.592 58.989 4.452 20.479 11.931 59.078 18.298 89.574 4.281 58.614 52.887 104.545 112.22 104.545 5.138 0 10.196-0.344 15.151-1.012l-0.579 0.064c35.895-0.59 66.54-22.46 79.915-53.517l0.22-0.575c6.996-16.368 11.063-35.413 11.063-55.409 0-16.282-2.697-31.934-7.668-46.534l0.3 1.016h143.309z" />
<glyph unicode="&#xe97f;" glyph-name="play-v2" d="M512-64c-282.645 0.311-511.689 229.355-512 511.97v0.030c0.349 282.629 229.37 511.65 511.966 512h0.034c282.629-0.349 511.65-229.37 512-511.966v-0.034c-0.349-282.629-229.37-511.65-511.966-512h-0.034zM348.501 735.198c-0.009 0-0.019 0-0.030 0-2.22 0-4.304-0.582-6.108-1.602l0.062 0.032c-3.856-2.177-6.417-6.247-6.417-10.916 0-0.002 0-0.005 0-0.007v0-541.833c0-0.002 0-0.004 0-0.007 0-4.669 2.561-8.739 6.355-10.883l0.062-0.032c1.724-0.988 3.79-1.57 5.992-1.57 0.005 0 0.011 0 0.016 0h-0.001c0.037 0 0.082-0.001 0.126-0.001 2.482 0 4.797 0.712 6.754 1.943l-0.053-0.031 435.473 270.95c3.545 2.242 5.866 6.14 5.871 10.581v0.001c-0.007 4.46-2.325 8.378-5.821 10.619l-0.050 0.030-435.473 270.95c-1.852 1.117-4.089 1.778-6.48 1.778-0.098 0-0.195-0.001-0.293-0.003h0.014z" />
<glyph unicode="&#xe980;" glyph-name="avatar" d="M512 346.176c-170.88 0-512 154.816-512-133.888v-276.288h1024v276.224c0 273.728-341.12 133.952-512 133.952zM760.768 704c0-141.385-114.615-256-256-256s-256 114.615-256 256c0 141.385 114.615 256 256 256s256-114.615 256-256z" />
<glyph unicode="&#xe981;" d="M1008 448c0-273.933-222.066-496-496-496s-496 222.066-496 496c0 273.933 222.066 496 496 496s496-222.066 496-496z" />
<glyph unicode="&#xe982;" d="M983.199 448c0-260.237-210.963-471.199-471.199-471.199s-471.199 210.963-471.199 471.199c0 260.237 210.963 471.199 471.199 471.199s471.199-210.963 471.199-471.199z" />
<glyph unicode="&#xe983;" d="M683.914 713.557l-171.914-172.111-171.964 172.111-93.596-93.596 172.111-171.964-172.111-171.914 93.596-93.596 171.914 171.914 171.914-171.914 93.596 93.596-171.914 171.914 171.914 171.914z" />
<glyph unicode="&#xf102;" glyph-name="photo1" horiz-adv-x="1358" d="M1308.502-14.696v49.304h-1209.895v721.038h1160.591v-770.362l98.608 0.020v819.646c0 12.977-5.266 25.677-14.436 34.868-9.171 9.19-21.871 14.436-34.868 14.436h-1259.199c-12.977 0-25.677-5.266-34.868-14.436-9.171-9.19-14.436-21.891-14.436-34.868v-819.665c0-12.977 5.266-25.697 14.436-34.868 9.171-9.19 21.871-14.436 34.868-14.436h1259.199c12.977 0 25.677 5.266 34.868 14.436s14.436 21.871 14.436 34.868h-49.304zM1171.892 804.949v49.304h-235.81v7.139h186.506v-56.443h98.608v105.747c0 12.977-5.266 25.677-14.436 34.868-9.171 9.171-21.891 14.436-34.868 14.436h-285.114c-12.977 0-25.697-5.266-34.868-14.436-9.19-9.171-14.436-21.871-14.436-34.868v-105.747c0-12.977 5.266-25.677 14.436-34.868s21.871-14.436 34.868-14.436h285.114c12.977 0 25.697 5.266 34.868 14.436 9.19 9.171 14.436 21.871 14.436 34.868h-49.304zM892.734 365.436h-49.304c-0.020-45.596-18.341-86.42-48.18-116.317-29.918-29.858-70.741-48.16-116.317-48.18-45.596 0.020-86.4 18.341-116.337 48.18-29.858 29.937-48.16 70.741-48.18 116.317 0.020 45.596 18.341 86.4 48.18 116.317 29.918 29.839 70.741 48.14 116.337 48.18 45.596-0.020 86.42-18.341 116.317-48.18 29.858-29.937 48.16-70.741 48.18-116.317h98.608c-0.039 145.328-117.777 263.085-263.124 263.105-145.348-0.020-263.105-117.777-263.124-263.105 0.020-145.348 117.797-263.085 263.124-263.124 145.348 0.039 263.085 117.777 263.124 263.124h-49.304z" />
<glyph unicode="&#xf103;" glyph-name="baloon-v1" horiz-adv-x="1003" d="M0 960h1003.207v-651.696h-186.152l-393.015-372.304 72.447 372.304h-496.487v651.696z" />
</font>
</defs>
</svg>
