<?xml version="1.0" standalone="no"?>
<!DOCTYPE svg PUBLIC "-//W3C//DTD SVG 1.1//EN" "http://www.w3.org/Graphics/SVG/1.1/DTD/svg11.dtd" >
<svg xmlns="http://www.w3.org/2000/svg">
<metadata></metadata>
<defs>
<font id="solferino_text_rgbold" horiz-adv-x="1050" >
<font-face units-per-em="2048" ascent="1495" descent="-553" />
<missing-glyph horiz-adv-x="462" />
<glyph unicode="&#xfb01;" horiz-adv-x="1290" d="M27 0v57q33 2 51.5 5t34.5 13.5t23 23.5t12.5 42t6.5 61t1 89v627h-119v61l119 18v13q0 179 105.5 300.5t268.5 121.5q110 0 191.5 -52t81.5 -139q0 -51 -38.5 -96t-84.5 -45q-44 0 -79.5 23t-49.5 55l-8 180q-15 10 -25 10q-21 0 -34 -26t-21 -98.5t-8 -196.5v-50l213 2 v-86l-213 5v-662q0 -48 1.5 -75t9.5 -51.5t18 -35t35 -19.5t52.5 -12t77.5 -6v-57l-350 4zM717 0v61q34 4 53 7.5t36 14.5t24 23t12.5 40.5t6.5 59t1 85.5v454q0 105 -22 139t-107 46v53l412 55l16 -18v-741q0 -50 1 -79.5t6.5 -55t12 -38t22 -22.5t32.5 -14.5t47 -8.5v-61 l-275 10zM809 1319q0 70 56 119t128 49q70 0 125.5 -49t55.5 -119q0 -76 -55 -126t-126 -50q-74 0 -129 49.5t-55 126.5z" />
<glyph unicode="&#xfb02;" horiz-adv-x="1280" d="M27 0v57q33 2 51.5 5t34.5 13.5t23 23.5t12.5 42t6.5 61t1 89v627h-119v61l119 18v13q0 179 105.5 300.5t268.5 121.5q111 0 191 -52v4l414 50l18 -17l-14 -465v-671q0 -97 9.5 -139.5t34.5 -60t85 -24.5v-57l-291 4l-254 -4v57q34 3 53 9.5t33.5 18.5t20 41t8 65 t2.5 102v856q0 85 -10.5 118t-45.5 46q19 -32 19 -72q0 -51 -38.5 -96t-84.5 -45q-44 0 -79.5 23t-49.5 55l-8 180q-15 10 -25 10q-21 0 -34 -26t-21 -98.5t-8 -196.5v-50l213 2v-86l-213 5v-662q0 -48 1.5 -75t9.5 -51.5t18 -35t35 -19.5t52.5 -12t77.5 -6v-57l-350 4z" />
<glyph horiz-adv-x="2048" />
<glyph horiz-adv-x="2048" />
<glyph unicode="&#xd;" horiz-adv-x="2048" />
<glyph unicode=" "  horiz-adv-x="462" />
<glyph unicode="&#x09;" horiz-adv-x="462" />
<glyph unicode="&#xa0;" horiz-adv-x="462" />
<glyph unicode="!" horiz-adv-x="733" d="M186 1288q0 68 49.5 117t129.5 49t131 -49.5t51 -116.5q0 -32 -28.5 -161.5t-64 -327.5t-48.5 -377h-78q-14 179 -50 377.5t-64 327.5t-28 161zM190 129q0 76 50 125t125 49t126.5 -49.5t51.5 -124.5q0 -70 -52 -118t-126 -48t-124.5 48t-50.5 118z" />
<glyph unicode="&#x22;" horiz-adv-x="942" d="M113 1307q0 57 30 90t107 33q76 0 106.5 -33t30.5 -90q0 -29 -35.5 -180t-72.5 -291h-62q-35 120 -69.5 279t-34.5 192zM543 1307q0 57 30 90t107 33q76 0 106.5 -33t30.5 -90q0 -30 -36 -186t-72 -285h-62q-35 124 -69.5 282t-34.5 189z" />
<glyph unicode="#" horiz-adv-x="1282" d="M90 207v141h211l47 342h-217v139h236l45 324h151l-45 -324h313l46 324h151l-47 -324h180v-139h-198l-48 -342h205v-141h-223l-45 -316h-152l45 316h-311l-45 -316h-151l45 316h-193zM453 348h311l49 342h-313z" />
<glyph unicode="$" d="M98 369l138 8l73 -252q67 -57 168 -74l21 361q-8 4 -68 28q-179 73 -252.5 150.5t-73.5 210.5q0 78 38 142t101 105t139.5 64t158.5 25l8 120l94 -4l-8 -120q178 -15 326 -60v-297l-144 -4l-53 219q-50 47 -133 60l-21 -361q54 -19 92.5 -34.5t82.5 -37t74 -42.5 t59.5 -49.5t47 -59.5t28 -71.5t10.5 -86.5q0 -90 -36 -158.5t-98 -108.5t-138.5 -60t-164.5 -21l-8 -149l-96 4l8 151q-100 9 -200.5 34.5t-159.5 59.5zM369 883q0 -60 35.5 -96t111.5 -64l21 328q-83 -10 -125.5 -54t-42.5 -114zM573 49q168 15 168 168q0 51 -36 86 t-113 70z" />
<glyph unicode="%" horiz-adv-x="1521" d="M115 811q0 123 91 213t220 90q128 0 217.5 -90t89.5 -213q0 -126 -89.5 -216.5t-217.5 -90.5q-130 0 -220.5 91t-90.5 216zM307 821q0 -115 31 -180.5t88 -65.5q58 0 87.5 65t29.5 171q0 102 -31.5 167.5t-85.5 65.5q-60 0 -89.5 -60.5t-29.5 -162.5zM399 55l734 1075 l81 -57l-731 -1073zM854 281q0 123 92 215t217 92q128 0 217.5 -90.5t89.5 -216.5q0 -127 -89.5 -219.5t-217.5 -92.5q-126 0 -217.5 93t-91.5 219zM1047 281q0 -109 30.5 -174.5t85.5 -65.5q60 0 89.5 66t29.5 174q0 104 -31.5 170.5t-87.5 66.5q-116 0 -116 -237z" />
<glyph unicode="&#x26;" horiz-adv-x="1675" d="M106 334q0 265 357 416q-56 104 -78.5 176.5t-22.5 142.5q0 98 62 170t152.5 105.5t193.5 33.5q160 0 259 -80t99 -184q0 -123 -78.5 -202t-271.5 -171q48 -105 118.5 -219.5t113.5 -173.5q48 54 131 170q26 41 26 68t-24 44.5t-84 24.5v64h401v-64q-66 -15 -98 -36 t-86 -82q-58 -70 -217 -250q59 -78 109 -117t98 -39q30 0 79 27.5t76 52.5l47 -53q-167 -185 -309 -185q-104 0 -172 29.5t-141 99.5q-150 -129 -334 -129q-183 0 -294.5 104t-111.5 257zM403 403q0 -69 29 -139.5t83 -120t116 -49.5q79 0 164 62q-154 225 -299 522 q-93 -99 -93 -275zM649 1128q0 -115 101 -317q120 108 120 299q0 85 -27 139t-75 54q-51 0 -85 -50t-34 -125z" />
<glyph unicode="'" horiz-adv-x="524" d="M113 1319q0 55 32 83t111 28q78 0 110.5 -27.5t32.5 -81.5q0 -18 -18 -96t-55 -224.5t-41 -164.5h-62q-110 449 -110 483z" />
<glyph unicode="(" horiz-adv-x="727" d="M92 528q0 294 151 559t431 433l39 -50q0 -8 -4 -12q-91 -78 -153 -182t-93.5 -227.5t-44 -244t-12.5 -267.5q0 -154 11.5 -276t42.5 -250.5t93 -236t154 -190.5q6 -6 6 -12l-37 -45q-278 169 -431 437t-153 564z" />
<glyph unicode=")" horiz-adv-x="743" d="M49 -428q0 6 6 12q92 83 154 190.5t93 236t42.5 250.5t11.5 276q0 147 -12.5 267.5t-44 244t-93.5 227.5t-153 182q-4 4 -4 12l39 50q280 -168 431 -433t151 -559q0 -296 -153 -564t-431 -437z" />
<glyph unicode="*" horiz-adv-x="940" d="M31 971l364 51l-323 174l127 152l225 -297l-21 368l201 -30l-139 -342q47 29 154.5 95t154.5 95l68 -176l-363 -53l318 -179l-119 -145l-227 291l8 -365l-191 33l142 340l-314 -190z" />
<glyph unicode="+" d="M88 459v143h371v375h149v-375h369v-143h-369v-371h-149v371h-371z" />
<glyph unicode="," horiz-adv-x="548" d="M61 -285q92 52 139.5 110.5t59.5 139.5l-141 66q-43 50 -43 125q0 63 48 105t114 42q88 0 147 -67.5t59 -163.5q0 -75 -30.5 -145.5t-81 -124t-111 -93.5t-125.5 -65z" />
<glyph unicode="-" horiz-adv-x="733" d="M76 455v204h567v-204h-567z" />
<glyph unicode="." horiz-adv-x="632" d="M139 129q0 77 49.5 124.5t124.5 47.5t127 -49.5t52 -122.5q0 -70 -53 -118t-126 -48q-72 0 -123 47t-51 119z" />
<glyph unicode="/" horiz-adv-x="1128" d="M90 -348l809 1896l127 -53l-807 -1901z" />
<glyph unicode="0" horiz-adv-x="1083" d="M23 506q0 149 64.5 275.5t185 204t270.5 77.5q151 0 271 -77.5t183.5 -204t63.5 -275.5q0 -112 -37.5 -213.5t-104 -178t-164.5 -122t-212 -45.5q-150 0 -270.5 77.5t-185 204.5t-64.5 277zM356 506q0 -488 193 -488q54 0 91 38.5t55.5 111t26 152.5t7.5 186 q0 485 -190 485q-54 0 -91.5 -37t-56.5 -107t-27 -151.5t-8 -189.5z" />
<glyph unicode="1" horiz-adv-x="755" d="M35 885l12 55q65 -6 123 -6q125 0 196 31.5t179 130.5l51 -21q-12 -67 -21.5 -171t-9.5 -163v-548q0 -29 1.5 -44.5t8 -31.5t17.5 -23.5t33 -14.5t50.5 -10.5t74.5 -7.5v-61h-713v61q81 6 121 12.5t65 22.5t30 36.5t5 62.5v327q0 155 16 291q-100 18 -239 72z" />
<glyph unicode="2" horiz-adv-x="1036" d="M53 760q0 68 44 130t112 103.5t150.5 65.5t160.5 24q75 0 148.5 -20.5t136 -59t101 -101.5t38.5 -140q0 -79 -23.5 -138t-88.5 -119t-168 -118t-273 -135l-61 -43h475l149 178l56 -12l-88 -375h-822l-20 59q175 183 348 328q98 83 137 159.5t39 194.5q0 110 -43.5 184 t-111.5 74q-48 0 -87.5 -21t-58.5 -42l78 -195q-10 -49 -58 -92t-104 -43q-64 0 -115 48t-51 106z" />
<glyph unicode="3" horiz-adv-x="1073" d="M29 -92q0 66 52.5 125t117.5 59q56 0 100 -42t53 -103l-106 -137q9 -33 58.5 -72t127.5 -39q72 0 134.5 52t97 133t34.5 167q0 127 -49.5 201t-152.5 74q-68 0 -164 -25l-15 78q163 34 239.5 120.5t76.5 243.5q0 108 -44.5 186.5t-123.5 78.5q-54 0 -99.5 -23.5 t-62.5 -44.5l51 -186q-6 -41 -55 -79t-96 -38q-55 0 -102.5 46t-47.5 99q0 64 43.5 121.5t113.5 96t156.5 61t172.5 22.5q177 0 302.5 -90t125.5 -225q0 -81 -29 -142.5t-85.5 -104t-120.5 -70.5t-154 -52v-4l26 2q25 2 37 2q70 0 139.5 -23t127.5 -65t94 -109.5t36 -148.5 q0 -82 -30.5 -153.5t-83 -122t-122.5 -87t-149.5 -54t-163.5 -17.5q-122 0 -226 34.5t-169 101.5t-65 153z" />
<glyph unicode="4" horiz-adv-x="1040" d="M-6 76l713 995h137v-950h209v-94h-209v-373l-303 -23v396h-529zM139 121h402v569z" />
<glyph unicode="5" horiz-adv-x="1071" d="M35 -123q0 68 47 120t113 52q48 0 91 -42.5t46 -94.5l-94 -131q44 -50 84 -69q39 -19 81 -19q75 0 133 57t85.5 141t27.5 177q0 162 -58.5 269t-166.5 107q-124 0 -213 -141q-31 -54 -31 -63l-78 26q7 19 22 78.5t19 99.5l39 609l13 8q35 -5 202.5 -18t227.5 -13 q162 0 364 127l47 -39q-45 -74 -77 -122t-73 -98t-78 -78t-83 -46t-96 -18q-33 0 -95.5 6t-112.5 12t-107 14l-56 7l-31 -330l-14 -51q13 17 36.5 37t64 45.5t103 42t132.5 16.5q192 0 318 -117t126 -307q0 -111 -47.5 -208t-125 -163t-176 -103.5t-200.5 -37.5 q-70 0 -140 16t-131.5 46t-99.5 81t-38 115z" />
<glyph unicode="6" horiz-adv-x="1075" d="M39 584q0 136 26.5 265t79 240.5t125.5 195.5t173 132.5t214 48.5q70 0 137 -16.5t123.5 -48t91.5 -83.5t35 -116q0 -56 -46 -103.5t-101 -47.5q-54 0 -94.5 38.5t-52.5 96.5l63 131l-18 19q-18 18 -31.5 29t-41.5 22.5t-58 11.5q-50 0 -90.5 -19.5t-70 -59t-51 -91 t-36.5 -123t-24 -147.5t-15 -173h8q96 101 223 101q186 0 313.5 -124.5t127.5 -322.5q0 -216 -135 -354.5t-353 -138.5q-107 0 -200.5 41.5t-165.5 119.5t-114 201t-42 275zM377 467q0 -86 10.5 -164t32 -144t59 -105.5t86.5 -39.5q79 0 116.5 102t37.5 283q0 79 -9.5 148 t-29.5 127.5t-55.5 92.5t-83.5 34q-80 0 -122 -88.5t-42 -245.5z" />
<glyph unicode="7" horiz-adv-x="1064" d="M66 563l79 565l58 -2l37 -96h667l90 25l33 -51q-184 -281 -351.5 -653.5t-178.5 -508.5l110 -127q-2 -62 -52 -117t-114 -55q-72 0 -123 56t-51 127q0 62 47.5 180.5t124 259t144.5 257.5t139 232.5t78 126.5h-449q-33 0 -51 -1.5t-38.5 -10.5t-32 -20.5t-29.5 -40 t-32.5 -61t-39.5 -89.5z" />
<glyph unicode="8" horiz-adv-x="1073" d="M35 326q0 65 25.5 123.5t69 102t92 75t102.5 53.5q-141 93 -199.5 179t-58.5 214q0 112 66 202.5t176.5 140.5t240.5 50q114 0 214 -41.5t165 -124t65 -188.5q0 -55 -20 -106t-46.5 -84.5t-64 -65t-60 -45.5t-48.5 -27q151 -88 217.5 -173.5t66.5 -217.5 q0 -88 -26.5 -161t-73 -125.5t-111 -88.5t-140.5 -53.5t-161 -17.5q-132 0 -242 42.5t-179.5 130.5t-69.5 206zM270 352q0 -88 27.5 -164t84.5 -125t132 -49q103 0 162 81t59 208q0 54 -22.5 100t-70.5 88t-108.5 78.5t-152.5 81.5q-111 -105 -111 -299zM356 1151 q0 -82 72 -158t260 -174q31 19 54.5 90.5t23.5 173.5q0 135 -61 224.5t-160 89.5q-91 0 -140 -74.5t-49 -171.5z" />
<glyph unicode="9" horiz-adv-x="1071" d="M43 -197q0 62 51 112t109 50q56 0 96.5 -39.5t44.5 -97.5l-70 -133q52 -55 127 -55q67 0 117.5 30t83.5 80t55.5 129.5t34.5 165.5t19 201h-11q-76 -94 -215 -94q-194 0 -316 118.5t-122 317.5q0 144 66 258.5t175 175.5t238 61q109 0 203 -42.5t164.5 -121t110.5 -198.5 t40 -266q0 -189 -41.5 -349.5t-120 -280t-199.5 -187.5t-271 -68q-94 0 -174.5 23t-137.5 77.5t-57 132.5zM375 627q0 -77 9.5 -145.5t29 -126t53.5 -91t78 -33.5q42 0 74.5 30.5t51 82t27.5 111.5t9 127q0 84 -9.5 158.5t-28.5 138t-53 100.5t-79 37q-80 0 -121 -106.5 t-41 -282.5z" />
<glyph unicode=":" horiz-adv-x="548" d="M98 131q0 77 49.5 125.5t124.5 48.5q74 0 126.5 -50t52.5 -124q0 -70 -53 -119t-126 -49t-123.5 47.5t-50.5 120.5zM98 760q0 76 50 127t124 51t126.5 -51.5t52.5 -126.5q0 -69 -53.5 -120.5t-125.5 -51.5t-123 50.5t-51 121.5z" />
<glyph unicode=";" horiz-adv-x="548" d="M53 764q0 75 48.5 124.5t123.5 49.5q73 0 123.5 -50t50.5 -124q0 -69 -51 -117.5t-123 -48.5q-74 0 -123 47t-49 119zM61 -285q91 51 139 111t60 139l-141 66q-18 21 -30.5 56.5t-12.5 70.5q0 64 49 104.5t113 40.5q88 0 147 -67.5t59 -163.5q0 -75 -30.5 -145.5 t-81.5 -124t-111 -93.5t-125 -65z" />
<glyph unicode="&#x3c;" d="M92 469v129l852 373v-160l-684 -274l684 -287v-158z" />
<glyph unicode="=" horiz-adv-x="1038" d="M86 233v144h877v-144h-877zM86 610v142h877v-142h-877z" />
<glyph unicode="&#x3e;" horiz-adv-x="1038" d="M100 88v162l682 285l-682 276v164l852 -373v-139z" />
<glyph unicode="?" horiz-adv-x="866" d="M100 1298q0 59 49.5 102.5t120.5 43.5q82 0 179 -49t177.5 -125t134.5 -176t54 -193q0 -143 -80.5 -241.5t-214.5 -98.5l-145 8l-27 -147h-67l-58 409h260q228 0 228 150q0 69 -93 141.5t-202 100.5l-180 -86q-59 15 -97.5 60.5t-38.5 100.5zM166 129q0 76 49 125t123 49 q75 0 126.5 -49.5t51.5 -124.5q0 -70 -52 -118t-126 -48q-73 0 -122.5 47.5t-49.5 118.5z" />
<glyph unicode="@" horiz-adv-x="1898" d="M39 426q0 150 47.5 295t134 263.5t200 209t254 140.5t288.5 50q250 0 437.5 -91t291.5 -267t104 -416q0 -116 -41.5 -231t-112 -206.5t-174 -148.5t-219.5 -57q-90 0 -151.5 48t-61.5 130q0 5 1 20t1 21q-49 -91 -131 -155t-178 -64q-149 0 -224 99t-75 262 q0 179 65.5 335.5t185.5 252.5t265 96q64 0 121.5 -41t89.5 -103l68 144l188 -21q-56 -163 -94 -450l-31 -238q-12 -106 -12 -135q0 -53 15 -76.5t61 -23.5q64 0 130 48.5t116.5 124t83 174.5t32.5 195q0 331 -203 516t-548 185q-170 0 -327 -73t-269 -193.5t-179 -283 t-67 -335.5q0 -225 105 -403.5t288 -276.5t410 -98q118 0 238 30t210 84l37 -63q-100 -59 -229 -92t-256 -33q-187 0 -350.5 63t-281.5 174t-185.5 270.5t-67.5 344.5zM694 322q0 -62 12.5 -114t41.5 -88t71 -36q72 0 139.5 101t98.5 233l39 287q-3 104 -41.5 169.5 t-102.5 65.5t-115.5 -59t-81.5 -152.5t-45.5 -198.5t-15.5 -208z" />
<glyph unicode="A" horiz-adv-x="1267" d="M-4 0v55q36 8 55.5 17.5t41 36.5t38.5 68t45 118l309 856l82 231h133l410 -1091q25 -67 39.5 -101t29 -63t29 -40.5t30 -19t42.5 -12.5v-55h-567v55q74 8 104.5 24t30.5 50q0 42 -39 143l-35 103h-483l-21 -66q-32 -94 -32 -159q0 -38 35 -59.5t118 -35.5v-55h-395z M317 449h431l-216 610z" />
<glyph unicode="B" horiz-adv-x="1208" d="M35 0v55q29 2 47.5 4t35.5 9.5t26.5 13.5t17.5 24t11 33t5.5 49t3 62.5t0.5 83.5v725q0 64 -0.5 94t-6.5 62.5t-12.5 43.5t-26 23t-40 15t-61.5 8v53h606q71 0 136.5 -9.5t129 -32.5t110 -58.5t75 -92t28.5 -127.5q0 -126 -83 -207.5t-214 -109.5v-4q74 -10 135.5 -32 t114 -59.5t82 -98t29.5 -138.5q0 -128 -68.5 -217.5t-180 -130.5t-255.5 -41h-645zM487 240q0 -104 23.5 -137t95.5 -33q244 0 244 307q0 146 -69.5 220.5t-198.5 74.5h-95v-432zM487 743h103q95 0 144.5 72.5t49.5 206.5q0 125 -55 195.5t-156 70.5h-86v-545z" />
<glyph unicode="C" horiz-adv-x="1196" d="M27 651q0 144 47.5 277t130.5 234t206 161.5t265 60.5q164 0 315 -57l90 62h56l20 -498l-72 -4l-161 356q-103 68 -234 68q-83 0 -147 -48.5t-101 -131t-55 -180.5t-18 -208q0 -119 25 -231t72.5 -206t127.5 -151t180 -57q104 0 181.5 40.5t166.5 133.5l56 -49 q-199 -274 -496 -274q-302 0 -478.5 192t-176.5 510z" />
<glyph unicode="D" horiz-adv-x="1400" d="M33 0v63q40 5 60 8.5t40 16t27 27t13.5 49.5t7.5 73.5t1 108.5v668q0 55 -0.5 85.5t-3 64t-5.5 49t-12 33t-17.5 23t-27 12t-36 8t-47.5 3.5v66h622q210 0 372.5 -75t255.5 -221t93 -343q0 -168 -54.5 -304.5t-151.5 -227t-228.5 -139t-286.5 -48.5h-622zM487 344 q0 -48 1 -80.5t5 -61.5t8 -46.5t15 -32.5t20.5 -22.5t29.5 -14t38 -9.5t49 -7h11q94 0 166 50t115 137.5t64 196.5t21 236q0 123 -26 230.5t-75 190t-127.5 130t-176.5 47.5h-138v-944z" />
<glyph unicode="E" horiz-adv-x="1118" d="M37 0v66q30 3 46.5 5t34.5 9t26 13t17 23t12 32.5t5.5 48.5t3 63t0.5 84v770q0 43 -1 67.5t-7.5 46.5t-14 31.5t-26.5 17.5t-38.5 11t-57.5 6v64h807l217 8l6 -399h-84q-19 62 -32.5 102.5t-29.5 77t-27.5 57t-30.5 38.5t-34 25.5t-43 13t-52 6.5t-66 1h-181v-569h117 q45 0 69.5 5t47.5 24.5t38.5 56t33.5 102.5h63v-483h-61q-19 68 -34 107.5t-28.5 65.5t-34 37t-39.5 14t-55 3h-117v-354q0 -138 34.5 -181.5t150.5 -43.5h33q44 0 69 2.5t52 15.5t42.5 30.5t37.5 59t40.5 89t48.5 130.5h90l-18 -399h-1030z" />
<glyph unicode="F" horiz-adv-x="1058" d="M45 0v61q39 4 61 12.5t39 24.5t24 49.5t10 76.5t3 118v776q0 59 -3 87.5t-18 50t-40.5 29t-75.5 13.5v60h789l192 12l14 -424l-84 -8q-25 87 -41.5 137.5t-39 94.5t-41 63.5t-52 34t-67.5 17.5t-92 3h-136v-633h103q48 0 72.5 5t47.5 28t37.5 60t36.5 112h66v-520h-66 q-18 70 -30.5 109.5t-27 70.5t-34 44t-42.5 18.5t-60 5.5h-103v-246q0 -51 0.5 -83t5 -63.5t8.5 -48t16.5 -32.5t24 -23t35.5 -13.5t46 -9.5t61 -6v-63h-639z" />
<glyph unicode="G" horiz-adv-x="1384" d="M27 639q0 161 51.5 300t140.5 236.5t213.5 153t267.5 55.5q171 0 349 -51l110 56h58l16 -480l-76 -2l-151 314q-63 50 -130 71t-155 21q-74 0 -134 -37t-99 -98t-65.5 -143t-38 -167.5t-11.5 -175.5q0 -118 22.5 -234t65 -216.5t114 -163t160.5 -62.5q110 0 185 72v252 q0 47 -1 71t-7.5 48.5t-15.5 35t-30 20.5t-46 14t-68 8v51h585v-51q-55 -6 -76.5 -20.5t-29.5 -51t-8 -125.5v-215l8 -78q-252 -98 -514 -98q-152 0 -277.5 43.5t-218 128t-143.5 217t-51 301.5z" />
<glyph unicode="H" horiz-adv-x="1497" d="M29 1303v55h633v-55q-44 -4 -68.5 -8t-47 -16.5t-32 -28t-17 -48.5t-9 -71t-1.5 -103v-301h523v301q0 47 -0.5 74.5t-3.5 58.5t-7.5 47t-13.5 34t-21 26t-31 16.5t-42 12t-55 6.5v55h632v-55q-73 -7 -102.5 -28t-40 -72.5t-10.5 -174.5v-711q0 -65 1 -101.5t8.5 -68 t14.5 -44.5t28.5 -24t41.5 -13.5t61 -6.5v-59h-632v59q46 4 69.5 7t46.5 15t31 24.5t15.5 45t8.5 67t1 99.5v334h-523v-334q0 -50 0.5 -78t4 -58.5t6.5 -44.5t14 -30t21 -21t32 -12t42.5 -9t56.5 -5v-59h-633v59q40 2 60.5 4.5t40.5 13.5t27.5 24t14 45.5t7.5 68.5t1 102 v711q0 55 -1.5 90t-4.5 66.5t-11 48.5t-17.5 31.5t-27.5 21t-38.5 10.5t-52.5 7z" />
<glyph unicode="I" horiz-adv-x="671" d="M27 1298v60h620v-60q-42 -3 -65.5 -6.5t-43.5 -16t-28 -24.5t-14 -46.5t-6.5 -65.5t-0.5 -97v-727q0 -63 1 -97t7.5 -66t15 -45t29 -25t43 -15.5t64.5 -7.5v-59h-620v59q40 4 62 7.5t41.5 16t27.5 25.5t14 45.5t7 65.5t1 96v727q0 63 -1 97t-7.5 66t-14.5 45.5t-28 25.5 t-42 15.5t-62 6.5z" />
<glyph unicode="J" horiz-adv-x="663" d="M-6 -297q82 64 123 134t53 145t12 204v840q0 51 -0.5 84t-4.5 63.5t-7.5 47.5t-13.5 32.5t-19 22.5t-28.5 13.5t-36 9.5t-47.5 6v53h608v-53q-28 -3 -44 -6t-33.5 -9.5t-26 -14t-17.5 -23.5t-12.5 -33t-6.5 -47.5t-3.5 -63t-0.5 -82.5v-842q0 -363 -466 -536z" />
<glyph unicode="K" horiz-adv-x="1353" d="M29 1298v60h614v-60q-33 -4 -50 -7t-37 -10.5t-28.5 -13t-18.5 -22t-12.5 -31t-6 -46.5t-3.5 -61v-81v-688q0 -51 0.5 -84t4 -64t7.5 -48t14.5 -32.5t20 -22.5t29.5 -13.5t39 -9t51 -5.5v-59h-622v59q30 3 48 5.5t36.5 9.5t27.5 13t18 23.5t12 32.5t5.5 48t3 63t0.5 84 v688q0 53 -0.5 84t-3.5 62.5t-5.5 47t-13 31.5t-18 21.5t-27.5 12t-36.5 8.5t-48.5 5zM500 668l262 297q95 103 141.5 176.5t46.5 105.5q0 23 -26.5 34t-98.5 17v60h496v-60q-119 -12 -179 -44.5t-138 -127.5l-256 -311l319 -496q56 -87 90 -133.5t66 -73.5t54 -35t64 -16 v-61h-608v59q54 6 75 18t21 36q0 25 -26 73t-103 172z" />
<glyph unicode="L" horiz-adv-x="1083" d="M41 0v57q28 3 44 6t33 9.5t25.5 13.5t17 23t11.5 32.5t6 48t3.5 63t0.5 83.5v688q0 66 -1 104.5t-7 71.5t-13 48t-25 27t-37 16t-54 9v58h643v-58q-39 -4 -62 -7.5t-47.5 -10.5t-36 -14t-24 -23t-17 -32.5t-9 -46.5t-5 -61t-0.5 -81v-754q0 -88 12.5 -130t41.5 -57 t90 -15h28q33 0 56 5t46.5 24.5t41 44t42 77.5t46 109.5t57.5 154.5l105 -4l-17 -479h-995z" />
<glyph unicode="M" horiz-adv-x="1769" d="M33 0v57q40 8 60.5 13t40.5 18.5t27 26.5t13 46t7 67t1 98v723q0 58 -1 88.5t-7 60.5t-13.5 43t-26.5 26.5t-40.5 20t-60.5 15.5v55h493l404 -963l237 656q80 218 101 307h465v-55q-38 -6 -59.5 -10.5t-40.5 -16.5t-26.5 -25t-13.5 -43t-7 -62t-1 -91v-746q0 -59 1 -92 t7 -64t14.5 -44.5t27.5 -26t41.5 -17t60.5 -8.5v-57h-607v57q38 4 60.5 8t41 16t26.5 25t14 44t7 62.5t1 90.5v821l-418 -1138h-55l-541 1226v-880q0 -64 1.5 -99t9.5 -68t18.5 -47.5t36 -28.5t54 -19.5t79.5 -12.5v-57h-432z" />
<glyph unicode="N" horiz-adv-x="1374" d="M23 0v59q38 4 59.5 8.5t42 16t29.5 26t16.5 43.5t9.5 65t2 93v746q0 60 -4 95t-11.5 61t-27.5 41t-44 24.5t-70 21.5v58h417l695 -922v617q0 57 -1.5 89.5t-11 61t-19.5 41.5t-37.5 25t-54 17t-79.5 13v58h428v-58q-37 -6 -56.5 -10t-38.5 -15.5t-26 -24.5t-13.5 -42 t-7.5 -61.5t-1 -89.5v-1082h-93l-858 1141v-799q0 -46 0.5 -73.5t4.5 -56.5t8.5 -43t17.5 -29.5t25 -22t37.5 -14t50 -11t65.5 -8.5v-59h-454z" />
<glyph unicode="O" horiz-adv-x="1411" d="M27 668q0 209 87.5 372.5t242 253.5t350.5 90q148 0 274 -52.5t214.5 -145.5t138.5 -226.5t50 -291.5q0 -155 -47 -287.5t-133.5 -228t-214 -149.5t-282.5 -54q-198 0 -353.5 92.5t-241 256.5t-85.5 370zM371 668q0 -89 11.5 -176.5t38 -172.5t65 -150t98 -104.5 t131.5 -39.5q74 0 132 38.5t94 101t59.5 148.5t32.5 173t9 182q0 125 -21 237.5t-61.5 204t-108 145.5t-153.5 54q-87 0 -152.5 -55.5t-102.5 -149.5t-54.5 -203.5t-17.5 -232.5z" />
<glyph unicode="P" horiz-adv-x="1179" d="M27 0v59q40 4 62 8t42 15.5t28 23.5t14.5 42t7.5 61.5t1 89.5v817q0 65 -3 94.5t-21.5 50t-45 25.5t-85.5 8v64h610q152 0 270.5 -44t189 -133.5t70.5 -213.5q0 -111 -46 -195t-129.5 -135t-190 -77t-238.5 -30v66q143 30 208 112.5t65 252.5q0 151 -67 239t-187 88h-95 v-985q0 -45 0.5 -71.5t4 -55t8.5 -42.5t16.5 -29t25 -21t37 -12t49.5 -8t66 -3v-61h-667z" />
<glyph unicode="Q" horiz-adv-x="1411" d="M25 664q0 153 51 286.5t140 229t216.5 150t274.5 54.5q148 0 274 -52t214.5 -144.5t138.5 -224t50 -285.5q0 -269 -125 -453t-329 -241q158 -51 223 -109q10 -9 42 -38.5t41.5 -37.5t36 -31t37.5 -30.5t33.5 -23.5t36.5 -21.5t34 -13.5t38.5 -10.5t38.5 -2.5 q41 0 96.5 26.5t93.5 61.5l41 -39q-51 -72 -142.5 -133t-186.5 -61q-87 0 -165 25.5t-157.5 84t-154 132t-173.5 188.5q-10 -2 -36 -2q-151 0 -279 54.5t-216 149.5t-137.5 227t-49.5 284zM371 670q0 -117 19 -226.5t57.5 -205.5t106.5 -154.5t157 -58.5q67 0 119.5 24.5 t88 71t60.5 105t38.5 134t19 149.5t5.5 161q0 97 -11 186t-36.5 173t-64 145t-97.5 98t-133 37q-91 0 -157 -52t-102.5 -144.5t-53 -201.5t-16.5 -241z" />
<glyph unicode="R" horiz-adv-x="1325" d="M27 0v55q26 3 41 4.5t32.5 6t26.5 7.5t19.5 11.5t14.5 15t9.5 22t6.5 28l3 37.5t2 46v58v852q0 37 -1.5 59.5t-8 41.5t-15.5 27.5t-28.5 15t-41.5 8.5t-60 3v60h620q90 0 170 -13.5t149 -42.5t119 -72t78.5 -105t28.5 -138q0 -70 -23.5 -128.5t-63 -98.5t-93 -68.5 t-111.5 -43.5t-121 -19q86 -17 156 -64t106 -129q13 -29 49 -130t44 -120q13 -26 21 -40t21 -30.5t28.5 -24t35.5 -7.5q43 0 78 20l29 -59q-34 -24 -106 -53t-148 -29q-116 0 -181 44t-98 140l-86 283q-27 88 -57.5 131t-73.5 49h-111v-313q0 -59 1 -90.5t7.5 -61.5 t15 -42.5t29.5 -24t44 -15.5t65 -8v-55h-622zM487 676h113q115 0 189.5 89t74.5 222q0 149 -73 226t-187 77h-117v-614z" />
<glyph unicode="S" horiz-adv-x="1048" d="M53 420l76 6l145 -289q63 -58 120 -87.5t124 -29.5q122 0 197.5 70t75.5 180q0 41 -16 75t-41.5 59.5t-73.5 52t-94.5 46t-123.5 48.5q-215 81 -300 180t-85 258q0 168 135 286t320 118q79 0 160.5 -19.5t130.5 -40.5l69 56h74l10 -445l-73 -4l-129 289q-113 92 -240 92 q-105 0 -172.5 -64.5t-67.5 -158.5q0 -91 71.5 -147.5t272.5 -131.5q137 -52 219.5 -107t128.5 -137.5t46 -195.5q0 -125 -67 -223.5t-179.5 -151.5t-247.5 -53q-84 0 -172.5 25.5t-130.5 50.5l-74 -70h-73z" />
<glyph unicode="T" horiz-adv-x="1171" d="M12 936l8 426l345 -4h530l258 8l6 -430l-92 -2q-26 86 -41.5 134.5t-35.5 94t-36 66t-41.5 37t-52.5 20.5t-69 4h-54v-952q0 -53 0.5 -83.5t4 -63t7.5 -48t15.5 -32.5t22.5 -23t34 -13.5t45 -10t60 -5.5v-59h-682v59q38 3 60 6t45 10t34.5 13.5t23 23.5t15.5 32.5 t7.5 47.5t4 63t0.5 83v952h-65q-48 0 -78.5 -8t-57 -27.5t-47 -62.5t-39.5 -102t-43 -156z" />
<glyph unicode="U" horiz-adv-x="1267" d="M14 1300v58h631v-58q-37 -3 -59 -5.5t-45.5 -9t-35 -13.5t-23.5 -22.5t-16.5 -32.5t-8.5 -47t-5 -62t-1 -82v-530q0 -98 11.5 -174t40 -145t84.5 -106.5t138 -37.5q91 0 155.5 34t100 97.5t51 142t15.5 180.5v539q0 66 -2 106.5t-11 72.5t-18.5 47.5t-34.5 26.5 t-49.5 14.5t-71.5 6.5v58h404v-58q-28 -3 -44.5 -6.5t-32 -10t-23.5 -20t-15 -30.5t-9 -48.5t-3.5 -66.5t-1.5 -92v-553q0 -243 -111.5 -382.5t-345.5 -139.5q-255 0 -393 128.5t-138 389.5v557q0 66 -1 104.5t-7 71.5t-13.5 48t-24.5 26.5t-35 15.5t-52 8z" />
<glyph unicode="V" horiz-adv-x="1224" d="M-49 1303v55h635v-55q-91 -13 -127.5 -29.5t-36.5 -54.5q0 -55 39 -156l270 -735l207 663q51 155 51 230q0 35 -37.5 54t-120.5 28v55h433v-55q-45 -7 -69.5 -17.5t-49.5 -42.5t-44.5 -79t-51.5 -140l-271 -786l-88 -269h-125l-422 1082q-27 69 -44 107.5t-32.5 67 t-33 41.5t-34.5 20.5t-48 15.5z" />
<glyph unicode="W" horiz-adv-x="1880" d="M-49 1303v55h608v-55q-67 -11 -88.5 -25.5t-21.5 -52.5q0 -51 40 -164l236 -715l211 473l-64 230q-32 111 -57.5 161t-55 67.5t-89.5 25.5v55h626v-55q-91 -9 -122 -26.5t-31 -59.5q0 -35 37 -160l219 -703l203 662q43 138 43 198q0 37 -32.5 58t-119.5 31v55h426v-55 q-94 -18 -128.5 -62.5t-86.5 -204.5l-352 -1067h-125l-252 756l-309 -756h-117l-389 1082q-31 85 -51.5 131t-45.5 72.5t-47 34.5t-65 14z" />
<glyph unicode="X" horiz-adv-x="1159" d="M-35 1303v55h592v-55q-74 -6 -98.5 -17.5t-24.5 -34.5q0 -37 47 -118l191 -332l178 301q47 86 47 149q0 41 -137 52v55h420v-55q-77 -10 -119.5 -49.5t-126.5 -174.5l-215 -340l258 -438q49 -82 75.5 -124t53 -68.5t45 -34t53.5 -15.5v-59h-594v59q66 4 91.5 19.5 t25.5 42.5q0 50 -65 162l-168 301l-189 -336q-47 -83 -47 -131q0 -26 31.5 -38.5t122.5 -19.5v-59h-441v59q68 11 102 36.5t87 109.5l286 442l-286 481q-47 78 -75.5 112t-52 46t-67.5 17z" />
<glyph unicode="Y" horiz-adv-x="1097" d="M-45 1298v60h573v-60q-65 -2 -92.5 -11.5t-27.5 -33.5q0 -20 28 -71l244 -455l180 408q27 69 27 106q0 25 -33.5 39t-114.5 18v60h402v-60q-73 -13 -103.5 -41t-76.5 -122l-238 -480v-321q0 -51 0.5 -82t3.5 -62t6.5 -47t13 -32t18.5 -23t28 -13.5t36.5 -9.5t47.5 -6v-59 h-611v59q40 5 61 8.5t41 16t27.5 27t14 48t7.5 71t1 104.5v280l-295 537q-51 91 -78.5 115t-89.5 32z" />
<glyph unicode="Z" horiz-adv-x="1157" d="M59 950l35 422l221 -14h789l8 -66l-694 -1218h225q47 0 77 1t61 9t48.5 15t39.5 30t34.5 42t33.5 63t35.5 80.5t41.5 107.5l94 -6l-31 -416h-1005l-9 57l699 1231h-256q-60 0 -94 -2.5t-69 -16.5t-54 -32.5t-43 -62t-42.5 -92.5t-47.5 -136z" />
<glyph unicode="[" horiz-adv-x="794" d="M244 -180v1675h524v-57q-54 -3 -84.5 -7t-58.5 -15.5t-40.5 -26.5t-22 -45.5t-11.5 -67t-2 -96.5v-1051q0 -59 2 -94t12 -65t22 -44.5t40 -25.5t58.5 -15t84.5 -8v-57h-524z" />
<glyph unicode="\" horiz-adv-x="591" d="M-170 1485l127 55l805 -1892l-127 -60z" />
<glyph unicode="]" horiz-adv-x="794" d="M27 -123q55 3 86 7t58.5 15.5t40 25.5t21.5 44.5t11 65t2 94.5v1051q0 61 -2 97t-11 67t-21 45.5t-39.5 26t-58.5 15.5t-85 7v57h522v-1675h-524v57z" />
<glyph unicode="^" d="M135 760l320 600h141l319 -600h-145l-246 481l-243 -483z" />
<glyph unicode="_" horiz-adv-x="1024" d="M0 -129h1024v-113h-1024v113z" />
<glyph unicode="`" horiz-adv-x="860" d="M4 1475q0 43 37 79.5t82 36.5q43 0 80.5 -24t58.5 -62l160 -278l-47 -47l-285 157q-38 20 -62 58.5t-24 79.5z" />
<glyph unicode="a" horiz-adv-x="1019" d="M39 250q0 125 98 204t252 109q82 17 201 25v133q0 151 -20 203.5t-95 52.5q-56 0 -110 -31l-19 -209q-18 -35 -61.5 -63.5t-83.5 -28.5q-59 0 -103.5 43.5t-44.5 104.5q0 55 45.5 104t113.5 81t144.5 50.5t141.5 18.5q391 0 391 -310q0 -107 -6 -283.5t-6 -267.5 q0 -48 18 -82t49 -34l55 8l23 -64q-139 -59 -227 -59q-73 0 -126 33t-83 88q-46 -51 -113 -86t-137 -35q-128 0 -212.5 82.5t-84.5 212.5zM344 311q0 -80 38.5 -147.5t92.5 -67.5q61 0 111 66l6 360q-64 0 -129 -26q-119 -45 -119 -185z" />
<glyph unicode="b" horiz-adv-x="1138" d="M14 1327v55l408 50l14 -17q-3 -22 -6.5 -169t-3.5 -230v-115q52 60 124 103t148 43q130 0 224.5 -75t139 -193t44.5 -261q0 -244 -149 -403.5t-382 -159.5q-73 0 -158 23t-155 59l-106 -60l-47 5q18 123 18 399v770q0 102 -19.5 131.5t-93.5 44.5zM426 219l6 -104 q62 -78 152 -78q51 0 89 26.5t60 68t35.5 103t18 121t4.5 133.5q0 96 -24.5 184t-73.5 147t-111 59q-87 0 -156 -54v-606z" />
<glyph unicode="c" horiz-adv-x="933" d="M39 471q0 161 68 293.5t184 207.5t254 75q93 0 172.5 -24t134.5 -81.5t55 -140.5q0 -54 -42 -95.5t-97 -41.5q-47 0 -87.5 28t-55.5 70l-19 190q-32 25 -74 25q-50 0 -86.5 -38t-55.5 -103t-27.5 -136t-8.5 -153q0 -79 16.5 -154.5t48.5 -139.5t85 -103t119 -39 q106 0 249 77l39 -59q-80 -73 -183.5 -123.5t-213.5 -50.5q-207 0 -341 144.5t-134 371.5z" />
<glyph unicode="d" horiz-adv-x="1155" d="M35 479q0 156 66 287.5t177.5 206t241.5 74.5q108 0 195 -41v149q0 39 -1 60t-7.5 42t-16 30.5t-30 18.5t-46 13t-67.5 8v55l467 50l20 -17q-20 -250 -20 -518v-616q0 -50 1 -78t6.5 -53.5t13 -37t24.5 -22t37 -14t55 -6.5l2 -62l-405 -24l-13 8l-18 102 q-121 -139 -260 -139q-191 0 -306.5 148.5t-115.5 375.5zM352 514q0 -70 13.5 -137t39 -125.5t70 -94.5t100.5 -36q72 0 140 55v680q-45 105 -156 105q-57 0 -98.5 -39t-64.5 -105.5t-33.5 -142t-10.5 -160.5z" />
<glyph unicode="e" horiz-adv-x="983" d="M39 473q0 157 62 288t175.5 208.5t253.5 77.5q184 0 297 -118t113 -315q0 -35 -8 -59h-580v-43q0 -184 66 -292.5t186 -108.5q150 0 305 98l39 -59q-216 -195 -418 -195q-231 0 -361 134.5t-130 383.5zM356 631h267q2 10 2 31q0 72 -4.5 124.5t-16.5 98t-35.5 69 t-58.5 23.5q-38 0 -67.5 -29t-47 -79.5t-27 -109.5t-12.5 -128z" />
<glyph unicode="f" horiz-adv-x="694" d="M27 0v57q33 2 51.5 5t34.5 13.5t23 23.5t12.5 42t6.5 61t1 89v627h-119v61l119 18v13q0 179 105.5 300.5t268.5 121.5q110 0 191.5 -52t81.5 -139q0 -51 -38.5 -96t-84.5 -45q-44 0 -79.5 23t-49.5 55l-8 180q-15 10 -25 10q-21 0 -34 -26t-21 -98.5t-8 -196.5v-50l213 2 v-86l-213 5v-662q0 -48 1.5 -75t9.5 -51.5t18 -35t35 -19.5t52.5 -12t77.5 -6v-57l-350 4z" />
<glyph unicode="g" horiz-adv-x="1103" d="M25 -184q0 44 40.5 86.5t92.5 68t100 35.5l33 -26q-16 -16 -34.5 -58.5t-18.5 -83.5q0 -86 81.5 -133t188.5 -47q125 0 210 57t85 148q0 64 -67 94.5t-261 58.5q-205 28 -279.5 69t-74.5 114q0 96 168 187l6 3q-116 38 -187 114.5t-71 188.5q0 109 64.5 191.5t165 123 t218.5 40.5q68 0 146 -19.5t123 -48.5q3 2 25 30t44.5 52t62.5 45.5t81 21.5q58 0 102.5 -38.5t44.5 -96.5q0 -41 -29.5 -76.5t-68.5 -35.5q-53 0 -82 26l-27 80q-16 8 -28 8q-11 0 -23 -8.5t-19.5 -17.5t-16.5 -22l-9 -13q123 -87 123 -246q0 -81 -36 -144.5t-98.5 -102.5 t-142.5 -59t-172 -20q-47 0 -127 13q-7 -4 -19.5 -24t-12.5 -34q0 -26 58.5 -39t244.5 -38q214 -29 311.5 -91t97.5 -188q0 -109 -82 -199t-204.5 -138t-251.5 -48q-90 0 -171 13t-151 40.5t-111.5 75.5t-41.5 111zM348 698q0 -121 36 -194.5t108 -73.5q62 0 96.5 66.5 t34.5 183.5q0 131 -36 216t-106 85q-65 0 -99 -79t-34 -204z" />
<glyph unicode="h" horiz-adv-x="1187" d="M25 1325v57l419 50l19 -21q-19 -199 -19 -414v-100q176 150 308 150q122 0 213.5 -94.5t91.5 -231.5v-426q0 -44 0.5 -69.5t2.5 -52.5t4.5 -40.5t9 -28t13.5 -20t20 -12t26.5 -9.5t35.5 -6v-57l-260 4l-260 -4v57q33 3 49.5 8t30.5 17t19 41.5t7.5 69t2.5 112.5v342 q0 82 -43 153.5t-107 71.5q-70 0 -164 -55v-536q0 -62 2.5 -96t8 -60t21.5 -37.5t34 -18t55 -12.5v-57l-295 4l-237 -4v57q29 4 44.5 7.5t30.5 14t20.5 23t10.5 41.5t5.5 60.5t0.5 89.5v833q0 39 -1 62t-3 45.5t-8.5 34.5t-13.5 22.5t-21.5 16t-30.5 10t-42 8.5z" />
<glyph unicode="i" horiz-adv-x="593" d="M23 0v61q34 4 53 7.5t36 14.5t24 23t12.5 40.5t6.5 59t1 85.5v454q0 105 -22 139t-107 46v53l411 55l17 -18v-741q0 -50 1 -79.5t6 -55t12 -38t22 -22.5t32 -14.5t47 -8.5v-61l-274 10zM115 1319q0 70 56 119t128 49q70 0 125 -49t55 -119q0 -77 -54.5 -126.5 t-125.5 -49.5q-74 0 -129 49.5t-55 126.5z" />
<glyph unicode="j" horiz-adv-x="579" d="M-20 -375q104 76 139 174.5t35 294.5v672q0 98 -21 126.5t-108 41.5v51l413 53l15 -18v-952q0 -348 -453 -494zM111 1317q0 69 54.5 119.5t123.5 50.5t123.5 -50.5t54.5 -119.5q0 -72 -54.5 -123t-123.5 -51t-123.5 51t-54.5 123z" />
<glyph unicode="k" horiz-adv-x="1120" d="M33 1333v51l407 50l19 -19q-3 -25 -10 -176t-7 -227v-736q0 -53 1 -84t5 -57.5t9 -38t18 -21t26 -12.5t38 -6v-57l-240 4l-258 -4v57q27 3 40.5 5.5t27.5 12t18.5 21t9.5 40.5t5.5 61.5t0.5 91.5v852q0 80 -8.5 115t-29 50t-72.5 27zM449 524l225 226q82 82 82 153 q0 41 -133 47v54l254 -3l219 3v-54q-88 -11 -141 -36t-130 -95l-131 -137l262 -459q61 -103 92.5 -130t98.5 -36v-57l-254 4l-281 -4v57q70 9 70 33q0 30 -29 80z" />
<glyph unicode="l" horiz-adv-x="585" d="M27 1331v53l413 50l19 -17l-15 -465v-671q0 -97 9.5 -139.5t34.5 -60t85 -24.5v-57l-290 4l-254 -4v57q29 3 46 6.5t31 14.5t21 24t11.5 42t5.5 61.5t1 87.5v856q0 48 -2.5 74t-8 46.5t-21 30.5t-33 16.5t-53.5 14.5z" />
<glyph unicode="m" horiz-adv-x="1779" d="M27 0v57q31 3 49 6t33.5 13.5t22.5 23t11.5 41t5.5 59t1 85.5v463q0 48 -2 71.5t-7 44.5t-20 30t-33.5 15t-56.5 13v53l399 59l23 -20l-7 -131q69 73 151 118.5t161 45.5q94 0 163 -46t109 -127q72 75 159.5 124t170.5 49q128 0 209.5 -94.5t81.5 -233.5v-424 q0 -44 0.5 -70.5t2.5 -54t4.5 -41.5t9.5 -28t14 -20t21 -12t28 -8t36 -4v-57l-258 4l-270 -4v57q34 4 51 10t31.5 18.5t20 43t8 71.5t2.5 115v338q0 93 -35 156t-92 63q-93 0 -174 -61v-539q0 -52 0.5 -80.5t5 -55.5t10 -38.5t19 -22t29.5 -13.5t44 -5v-57l-262 4l-260 -4 v57q29 3 45 6t30.5 12t21 20t11.5 35.5t6 53t1 76.5v393q0 98 -34.5 158.5t-92.5 60.5q-97 0 -176 -61v-539q0 -52 1 -79.5t5.5 -54.5t10.5 -38.5t20.5 -22t31.5 -14t47 -6.5v-57l-258 4z" />
<glyph unicode="n" horiz-adv-x="1191" d="M31 913v58l397 63l29 -20l-11 -125q171 158 308 158q121 0 214 -97.5t93 -230.5v-389q0 -77 2.5 -119.5t8 -75.5t19.5 -47t32.5 -21t52.5 -10v-57l-265 4l-264 -4v57q33 3 51 9.5t32.5 20.5t20.5 46.5t8.5 77t2.5 121.5v311q0 89 -42.5 159t-109.5 70q-76 0 -161 -57 v-522q0 -55 1 -86t6.5 -59.5t12.5 -41t23.5 -24t35.5 -16t52 -9.5v-57l-285 4l-260 -4v57q30 3 47 7t31.5 15.5t20.5 24.5t10.5 44.5t5 63.5t0.5 93v422v53t-2.5 40t-5 30.5t-9.5 21.5t-14 16t-21.5 10t-28.5 8.5t-38 6.5z" />
<glyph unicode="o" horiz-adv-x="1114" d="M35 489q0 160 69 288t187 199t260 71q226 0 377 -155.5t151 -383.5q0 -248 -142 -400.5t-368 -152.5q-149 0 -270.5 66.5t-192.5 189.5t-71 278zM354 530q0 -85 13 -169t39 -159.5t71 -122t103 -46.5q50 0 86.5 38t56 103t28.5 138.5t9 158.5t-12 168.5t-36 159.5 t-67.5 123t-99.5 47q-53 0 -91.5 -38.5t-59.5 -104t-30.5 -139t-9.5 -157.5z" />
<glyph unicode="p" horiz-adv-x="1157" d="M6 -350q47 3 71 10.5t40 33.5t20 66.5t4 118.5v838q0 110 -24 145.5t-111 50.5v54l416 69l24 -22l-8 -115q138 148 289 148q176 0 284.5 -150t108.5 -383q0 -128 -38 -234.5t-103 -177t-151 -109t-181 -38.5q-122 0 -207 35v-123q0 -126 29.5 -164t138.5 -53v-58l-317 5 l-285 -5v58zM440 117q54 -74 160 -74q59 0 101.5 38t64 104.5t30.5 139.5t9 160q0 72 -12 139.5t-36 126.5t-66.5 94.5t-96.5 35.5q-73 0 -154 -52v-712z" />
<glyph unicode="q" horiz-adv-x="1136" d="M35 481q0 120 38.5 227t102.5 180.5t148.5 116t173.5 42.5q154 0 290 -78l213 65l41 -14q-10 -76 -18 -262.5t-8 -284.5v-575q0 -62 0.5 -94.5t5.5 -64t11 -44t21.5 -24t33 -15t49.5 -6.5v-58l-260 5l-338 -5v58q35 2 56 4t42 8t32 11.5t21.5 20t14.5 28t7.5 41t4 54 t0.5 70.5v201q-50 -57 -123.5 -95t-149.5 -38q-123 0 -217.5 73.5t-143 192t-48.5 260.5zM352 520q0 -78 12.5 -146.5t38.5 -126t72 -91t107 -33.5q73 0 135 47v418l10 239q-60 127 -172 127q-56 0 -97 -37t-63.5 -101t-32.5 -137.5t-10 -158.5z" />
<glyph unicode="r" horiz-adv-x="858" d="M20 0v57q33 2 50.5 5t34.5 12.5t24 21.5t13 40t7 60.5t1 88.5v475q0 45 -2 67.5t-7.5 43t-21 29.5t-36.5 15.5t-60 12.5v51l401 55l27 -18l-9 -228q7 18 20 42.5t38 62t52.5 67.5t65 52t74.5 22q72 0 126 -55t54 -135q0 -73 -48 -129t-105 -56q-31 0 -68 15t-57 35 l-12 122q-9 9 -25 9q-14 0 -29 -27t-28 -72t-22.5 -83t-18.5 -81.5t-10 -46.5v-245q0 -44 0.5 -68.5t4.5 -51.5t8 -39.5t17.5 -26.5t26 -19t39 -11t52 -7.5t69.5 -4.5v-57l-365 4z" />
<glyph unicode="s" horiz-adv-x="925" d="M72 332l127 8l67 -234q84 -71 170 -71q73 0 115.5 42t42.5 113q0 73 -45.5 113.5t-169.5 87.5q-164 60 -234.5 139.5t-70.5 206.5q0 73 34.5 133.5t91.5 98t128 58t147 20.5q163 0 354 -60v-276l-120 -4l-54 200q-62 62 -151 62q-73 0 -117.5 -43.5t-44.5 -112.5 q0 -66 40.5 -102t149.5 -78q73 -29 121 -51.5t93.5 -53.5t70.5 -65t40 -81.5t15 -107.5q0 -101 -60 -175.5t-152 -109t-203 -34.5q-94 0 -197 26t-176 66z" />
<glyph unicode="t" horiz-adv-x="696" d="M14 913v62l84 31q30 12 49 30.5t39 57.5l117 204l127 9v-308l225 2v-90h-225v-659q0 -80 24.5 -123t71.5 -43q41 0 115 29l29 -64q-147 -96 -291 -96q-126 0 -187 69t-61 212v677h-117z" />
<glyph unicode="u" horiz-adv-x="1183" d="M18 932v55l410 41l21 -16q-6 -29 -13.5 -222.5t-7.5 -320.5v-117q0 -113 35.5 -174t101.5 -61q42 0 91 16t85 41v594q0 37 -1 57.5t-5.5 40.5t-11 28.5t-21 17t-32 12.5t-47.5 8v55l407 41l23 -16q-4 -25 -8.5 -240t-4.5 -303v-193q0 -41 0.5 -64.5t2.5 -48.5t4.5 -37.5 t10 -25.5t15 -18t22 -10t29 -7t39.5 -4v-55l-387 -41l-33 10l-4 121q-64 -61 -140 -101t-150 -40q-141 0 -229.5 86.5t-88.5 237.5v462q0 53 -2.5 81.5t-7.5 50.5t-19.5 32t-32 16t-51.5 11z" />
<glyph unicode="v" horiz-adv-x="919" d="M-61 948v56l239 -5l289 5v-56q-93 -10 -109 -32q-5 -8 -6 -23q0 -29 19 -84l168 -487l147 426q27 70 27 112q-1 21 -7 36q-20 43 -131 52v56l222 -5l129 5v-56q-62 -19 -89.5 -53.5t-64.5 -144.5l-172 -496l-96 -287h-107l-317 813q-27 67 -46.5 99t-38.5 45t-56 24z" />
<glyph unicode="w" horiz-adv-x="1550" d="M-31 948v56l219 -5l277 5v-56q-51 -2 -71 -10q-22 -9 -21 -41q0 -31 28 -111l168 -475l152 414l-37 92q-32 84 -55 105.5t-84 25.5v56l239 -5l287 5v-56q-59 -2 -83.5 -14.5t-24.5 -42.5q0 -24 14 -62l180 -536l141 434q31 93 31 143v9q0 34 -30 51t-95 18v56l195 -5 l129 5v-56q-32 -5 -50 -21.5t-38.5 -61t-55.5 -146.5l-186 -541l-65 -217h-119l-248 668l-160 -445l-74 -223h-110l-318 807q-31 77 -51 113t-37 48t-47 19z" />
<glyph unicode="x" horiz-adv-x="1011" d="M18 0v57q56 14 90.5 45.5t120.5 155.5l144 215l-199 326q-60 96 -84 119.5t-70 29.5v56l218 -5l256 5v-56q-78 -3 -78 -35q0 -28 49 -108l113 -189l112 199q37 63 37 86q0 21 -23.5 31t-91.5 16v56l207 -5l164 5v-56q-62 -9 -95 -34.5t-89 -110.5l-170 -252l241 -391 q36 -59 60.5 -78t66.5 -25v-57h-493v57q57 6 75.5 12.5t18.5 18.5q0 25 -39 88l-137 230l-90 -162q-3 -7 -10.5 -20t-10 -19t-8.5 -16.5t-8 -16t-6 -13.5t-6 -13t-4 -11t-2.5 -10t-0.5 -8q0 -29 22.5 -41.5t94.5 -18.5v-57h-375z" />
<glyph unicode="y" horiz-adv-x="923" d="M-61 946v58l241 -5l295 5v-58q-50 -5 -74 -10.5t-38.5 -20.5t-12 -38.5t16.5 -65.5l168 -492l151 429q29 81 29 119q0 39 -30 55q-29 17 -105 24v58l204 -5l148 5v-58q-61 -12 -88.5 -45.5t-69.5 -150.5l-315 -863q-53 -141 -130.5 -222t-168.5 -81q-65 0 -112.5 40 t-47.5 100q0 45 35 81.5t80 44.5l155 -86q56 16 101 127l26 80l-311 791q-45 114 -68 143t-79 41z" />
<glyph unicode="z" horiz-adv-x="923" d="M41 55l498 877h-121q-42 0 -70.5 -3.5t-55 -17t-44.5 -32t-39.5 -55.5t-40 -80t-45.5 -113h-72l27 381l166 -11h622l8 -59l-499 -868h110q50 0 83 4t62.5 18.5t48 32.5t40 57t37.5 80.5t41 112.5h80l-23 -385l-178 6h-623z" />
<glyph unicode="{" horiz-adv-x="782" d="M72 623v71h20q104 5 145.5 40.5t41.5 121.5q0 55 -21.5 222t-21.5 231q0 22 5.5 41t19 34.5t27.5 28t40 23t47.5 18.5t58 14.5t63.5 11.5t72.5 9.5t77 7.5t84.5 8l8 -53q-70 -20 -110 -39t-60.5 -47t-26 -57.5t-5.5 -83.5q0 -62 21.5 -200t21.5 -196q0 -30 -11.5 -53.5 t-34.5 -39.5t-47.5 -27.5t-61 -19.5t-64 -12.5t-67 -10t-61.5 -9.5q22 -4 61.5 -9.5t67 -10t64 -12.5t61 -19.5t47.5 -27.5t34.5 -39.5t11.5 -53.5q0 -58 -21.5 -195.5t-21.5 -199.5q0 -54 5.5 -83.5t26 -57.5t60.5 -47t110 -39l-8 -53q-53 5 -84.5 8t-77 7.5t-72.5 9.5 t-63.5 11.5t-58 14.5t-47.5 18.5t-40 23t-27.5 28t-19 34.5t-5.5 41q0 64 21.5 231t21.5 222q0 86 -41.5 121.5t-145.5 40.5z" />
<glyph unicode="|" horiz-adv-x="1001" d="M424 -416v1936h158v-1936h-158z" />
<glyph unicode="}" horiz-adv-x="782" d="M43 -137q56 16 92.5 32t58.5 33t33 42.5t14 51t3 68.5q0 62 -21.5 199.5t-21.5 195.5q0 30 11.5 53.5t34 39.5t47.5 27.5t61 19.5t63.5 12.5t67.5 10t61 9.5q-21 4 -61 9.5t-67.5 10t-63.5 12.5t-61 19.5t-47.5 27.5t-34 39.5t-11.5 53.5q0 58 21.5 196t21.5 200 q0 43 -3 68.5t-14 51t-33 42.5t-58.5 33t-92.5 32l8 53q67 -6 105 -9.5t93 -10.5t86 -14t70.5 -17.5t61 -23.5t42.5 -30.5t29.5 -40t8.5 -50.5q0 -64 -21.5 -231t-21.5 -222q0 -87 39 -122.5t143 -39.5h21v-71l-21 -2q-104 -4 -143 -39.5t-39 -122.5q0 -55 21.5 -222 t21.5 -231q0 -28 -8.5 -50.5t-29.5 -40t-42.5 -30.5t-61 -23.5t-70.5 -17.5t-86 -14t-93 -10.5t-105 -9.5z" />
<glyph unicode="~" horiz-adv-x="1026" d="M43 455q27 117 99 177t169 60q49 0 106.5 -19.5t101.5 -43t97.5 -43t94.5 -19.5q57 0 86.5 36.5t54.5 107.5l119 -41q-62 -252 -269 -252q-46 0 -102.5 20t-100.5 43.5t-98 43.5t-96 20q-58 0 -88.5 -32.5t-52.5 -100.5z" />
<glyph unicode="&#xa1;" horiz-adv-x="677" d="M190 922q0 71 51 119.5t124 48.5q74 0 126 -49t52 -119q0 -75 -51.5 -124.5t-126.5 -49.5t-125 49.5t-50 124.5zM193 -238q0 37 26 189t60.5 351t48.5 314h78q16 -143 75.5 -477.5t59.5 -376.5q0 -68 -48 -115.5t-128 -47.5t-126 47.5t-46 115.5z" />
<glyph unicode="&#xa2;" horiz-adv-x="1097" d="M57 420q0 219 128.5 366.5t340.5 167.5l9 179l77 -5l-8 -170q91 -3 173 -30.5t138 -81.5t56 -123q0 -49 -42.5 -87t-94.5 -38q-44 0 -83.5 26t-52.5 64l-18 178q-30 23 -78 27l-35 -795q49 -18 115 -18q49 0 122.5 28.5t127.5 63.5l33 -55q-67 -67 -178 -120.5 t-216 -53.5h-10l-8 -191l-78 6l8 191q-190 27 -308 154.5t-118 316.5zM356 520q0 -116 32.5 -217t103.5 -160l30 740q-86 -29 -126 -126.5t-40 -236.5z" />
<glyph unicode="&#xa3;" d="M76 0v86q120 56 168.5 113t48.5 155q0 32 -13 76t-30 74h-172v90h123q-23 41 -37 100t-14 103q0 150 124 246t320 96q168 0 282.5 -66.5t114.5 -154.5q0 -62 -36.5 -104t-90.5 -42q-36 0 -71.5 19.5t-59.5 50.5l-31 194q-46 27 -88 27q-85 0 -126.5 -61.5t-41.5 -165.5 q0 -111 70 -242h303v-90h-262q27 -54 27 -107q0 -130 -217 -229v-6l411 20q31 2 72 37.5t66 70.5l26 34l64 -9l-52 -315h-878z" />
<glyph unicode="&#xa4;" horiz-adv-x="1120" d="M35 360v91h108q-2 25 -2 77q0 49 2 74h-108v90h121q39 202 172.5 324.5t333.5 122.5q82 0 141.5 -13t130.5 -43l57 58h60l12 -400l-68 -4l-96 250q-97 80 -221 80q-58 0 -103 -28.5t-74 -80.5t-45.5 -118t-21.5 -148h422v-90h-424q0 -69 10 -151h353v-91h-334 q35 -124 104 -196t176 -72q86 0 156 31.5t139 95.5l45 -61q-209 -203 -452 -203q-189 0 -313 102t-160 303h-121z" />
<glyph unicode="&#xa5;" d="M-4 1030v70h522v-70q-108 0 -108 -41q0 -17 16 -57l182 -352l168 309q31 60 31 92q0 25 -26.5 35.5t-96.5 13.5v70h354v-70q-56 -7 -86 -35.5t-75 -113.5l-134 -238h248v-98h-303l-10 -21v-139h315v-96h-315v-25q0 -43 1.5 -67t7 -47.5t15.5 -34.5t29.5 -21t45 -14.5 t65.5 -7.5v-72h-606v72q28 1 40.5 2t32 4.5t27 8.5t19.5 15t15.5 24t9 35t6.5 48.5t1 64.5v15h-311v96h311v102l-33 58h-280v98h223l-154 264q-47 80 -69 99.5t-78 23.5z" />
<glyph unicode="&#xa6;" horiz-adv-x="1009" d="M426 381h156v-797h-156v797zM426 799v721h156v-721h-156z" />
<glyph unicode="&#xa7;" horiz-adv-x="978" d="M20 590q0 89 74.5 172.5t153.5 111.5q-174 146 -174 285q0 147 123 248.5t299 101.5q158 0 274.5 -75t116.5 -168q0 -60 -38.5 -104t-98.5 -44q-35 0 -66.5 18t-50.5 48l35 194q-53 47 -174 47q-77 0 -131 -45t-54 -129q0 -34 22 -66.5t65 -65t93 -63.5t119 -71 q26 -14 39 -22q147 -81 218 -157t71 -183q0 -111 -58.5 -178.5t-160.5 -116.5q67 -38 113.5 -104t46.5 -140q0 -164 -124 -261t-323 -97q-162 0 -276.5 71.5t-114.5 165.5q0 62 43.5 109t97.5 47q37 0 69 -23t50 -59l-39 -182q75 -45 164 -45q84 0 138 50t54 134 q0 34 -18.5 64t-58 58.5t-78.5 50.5t-100 54q-25 12 -37 19q-166 88 -235 161.5t-69 188.5zM254 711q0 -115 188 -213q139 -77 213 -127q45 52 45 123q0 59 -47.5 106.5t-152.5 110.5q-136 77 -199 131q-18 -18 -32.5 -57t-14.5 -74z" />
<glyph unicode="&#xa8;" horiz-adv-x="839" d="M33 1307q0 65 41 109t110 44q67 0 113.5 -44t46.5 -109t-48.5 -107.5t-111.5 -42.5t-107 42t-44 108zM492 1307q0 64 43.5 108.5t111.5 44.5q67 0 110.5 -43.5t43.5 -109.5t-45.5 -108t-108.5 -42q-64 0 -109.5 42.5t-45.5 107.5z" />
<glyph unicode="&#xa9;" horiz-adv-x="1531" d="M59 672q0 197 93 360.5t255 257.5t357 94q147 0 278 -55.5t225 -150.5t148.5 -227t54.5 -279q0 -196 -92.5 -359t-255 -257.5t-358.5 -94.5q-146 0 -277 55.5t-224.5 150.5t-148.5 226.5t-55 278.5zM141 670q0 -173 80.5 -318t224 -230t318.5 -85t319 85t225 230t81 318 q0 175 -81.5 321.5t-225 232t-318.5 85.5q-131 0 -247 -50.5t-198.5 -136t-130 -203.5t-47.5 -249zM383 672q0 167 113.5 284t265.5 117q94 0 176 -39l33 43h65l8 -295l-71 -2l-58 174q-60 45 -143 45q-60 0 -99.5 -40t-55 -99.5t-15.5 -136.5q0 -128 59.5 -222.5 t155.5 -94.5q104 0 201 88l45 -48q-61 -69 -139 -110t-160 -41q-171 0 -276 102.5t-105 274.5z" />
<glyph unicode="&#xaa;" horiz-adv-x="989" d="M113 811q0 83 63 142.5t176 76.5q116 17 168 17v94q0 90 -17.5 122.5t-70.5 32.5q-24 0 -78 -18l-18 -131q-5 -10 -39 -28.5t-66 -18.5q-42 0 -71 26.5t-29 63.5q0 41 46 79.5t120 61.5t152 23q146 0 219 -44.5t73 -160.5q0 -77 -4 -195t-4 -174q0 -28 15 -48.5t38 -20.5 q36 0 54 12l20 -53q-18 -12 -74.5 -32t-105.5 -20q-119 0 -162 78q-1 -1 -16 -13t-28.5 -20t-35.5 -19t-49.5 -17t-58.5 -6q-90 0 -153.5 54.5t-63.5 135.5zM133 383v92h682v-92h-682zM340 856q0 -63 27 -102t65 -39q52 0 84 43l6 235q-80 -9 -102 -16q-80 -30 -80 -121z " />
<glyph unicode="&#xab;" horiz-adv-x="1124" d="M86 422v94l479 391l43 -30l-262 -412l262 -408l-47 -32zM541 416v102l475 393l45 -34l-262 -412l262 -408l-43 -32z" />
<glyph unicode="&#xad;" horiz-adv-x="733" d="M76 455v204h567v-204h-567z" />
<glyph unicode="&#xae;" horiz-adv-x="1531" d="M59 672q0 197 93 360.5t255 257.5t357 94q147 0 278 -55.5t225 -150.5t148.5 -227t54.5 -279q0 -196 -92.5 -359t-255 -257.5t-358.5 -94.5q-146 0 -277 55.5t-224.5 150.5t-148.5 226.5t-55 278.5zM141 670q0 -173 80.5 -318t224 -230t318.5 -85t319 85t225 230t81 318 q0 175 -81.5 321.5t-225 232t-318.5 85.5q-131 0 -247 -50.5t-198.5 -136t-130 -203.5t-47.5 -249zM412 299v70q66 6 78 23t12 102v417q0 60 -15 74t-75 16v72h368q146 0 231 -55t85 -158q0 -94 -57 -138t-160 -56q93 -17 129 -97q7 -16 28 -73t27 -70q1 -3 4.5 -12.5t5 -13 t5 -10.5t6 -10t7 -6.5t10 -5t11.5 -1.5q22 0 62 16l24 -47q-30 -24 -75 -40.5t-83 -16.5q-61 0 -107.5 24.5t-64.5 73.5l-49 166q-17 51 -30.5 72t-40.5 28h-60v-145q0 -62 6.5 -85.5t22.5 -31.5t63 -12v-70h-368zM688 711h70q139 0 139 149q0 137 -137 137h-72v-286z" />
<glyph unicode="&#xb0;" horiz-adv-x="823" d="M174 1212q0 114 77.5 189.5t194.5 75.5q119 0 199 -75.5t80 -189.5q0 -116 -80 -192t-199 -76q-117 0 -194.5 76.5t-77.5 191.5zM270 1212q0 -77 51.5 -132.5t124.5 -55.5q76 0 130.5 55.5t54.5 132.5q0 75 -54.5 130t-130.5 55q-73 0 -124.5 -54.5t-51.5 -130.5z" />
<glyph unicode="&#xb1;" d="M98 80v139h865v-139h-865zM98 569v142h357v252h151v-252h357v-142h-357v-235h-151v235h-357z" />
<glyph unicode="&#xb2;" horiz-adv-x="925" d="M88 1217q0 64 53.5 118t131 82.5t155.5 28.5q59 0 114 -16.5t100 -46.5t72 -77.5t27 -105.5q0 -54 -13 -95t-37 -75t-74.5 -69.5t-110 -68.5t-158.5 -81l-59 -53h338l112 139l56 -8l-64 -277h-616l-13 68q71 74 115 114t131 111q74 59 103.5 122t29.5 157q0 82 -34.5 135 t-86.5 53q-32 0 -64.5 -20t-51.5 -47l53 -115q-6 -32 -36 -59t-66 -27q-40 0 -73.5 34.5t-33.5 78.5z" />
<glyph unicode="&#xb3;" horiz-adv-x="808" d="M80 764q0 45 37.5 84t83.5 39q37 0 68 -28t32 -68l-45 -68q6 -25 30 -46.5t68 -21.5q71 0 121.5 53t50.5 126q0 70 -36 110.5t-97 40.5q-35 0 -84 -10l-8 59q92 20 141.5 72.5t49.5 130.5q0 64 -30 101.5t-85 37.5q-33 0 -61.5 -13t-41.5 -25l-12 -13l39 -92 q-5 -33 -36 -60.5t-66 -27.5q-40 0 -71.5 34.5t-31.5 73.5q0 79 104 136t230 57q137 0 225 -49t88 -144q0 -151 -235 -206l2 -9q8 4 25 4q47 0 88.5 -9.5t79 -30t59.5 -58.5t22 -90q0 -82 -61.5 -145t-153 -93t-194.5 -30q-125 0 -210 49t-85 129z" />
<glyph unicode="&#xb4;" horiz-adv-x="849" d="M262 1225l166 284q23 38 60.5 62t80.5 24q46 0 83.5 -37t37.5 -79q0 -43 -25 -82t-63 -58l-293 -163z" />
<glyph unicode="&#xb6;" horiz-adv-x="1038" d="M-18 586q0 77 26 146.5t70.5 120t102 88t121 56.5t126.5 19h598v-101h-127v-1312h-117v1312h-237v-1312h-117v573q-80 0 -159 29t-143 80t-104 130t-40 171z" />
<glyph unicode="&#xb7;" horiz-adv-x="1236" d="M139 541q0 77 49.5 124.5t124.5 47.5t127 -49.5t52 -122.5q0 -70 -53 -118t-126 -48q-72 0 -123 47t-51 119z" />
<glyph unicode="&#xb8;" horiz-adv-x="1431" d="M268 -414q0 37 34 64.5t81 27.5l111 -116q63 7 95 42t32 72q0 43 -55.5 76t-174.5 41l-14 23l151 198h74l-82 -131q126 -8 207.5 -50.5t81.5 -104.5q0 -94 -107 -166t-251 -72q-77 0 -130 23t-53 73z" />
<glyph unicode="&#xb9;" horiz-adv-x="741" d="M90 1309l12 55q55 -4 92.5 -4.5t72 4t58.5 12.5t51 24.5t50.5 35.5t56.5 51l49 -19q-28 -159 -28 -260v-417q0 -54 27 -70t120 -21v-67h-559v67q108 6 142 22t34 71v235q0 94 13 227q-96 17 -191 54z" />
<glyph unicode="&#xba;" horiz-adv-x="1071" d="M106 975q0 88 32.5 161.5t85.5 120t118 72t133 25.5q146 0 256.5 -103t110.5 -258q0 -164 -102 -271.5t-259 -107.5q-55 0 -108.5 14t-102 43.5t-85 71.5t-58 102t-21.5 130zM158 383v90h649v-90h-649zM342 1004q0 -136 41.5 -226t108.5 -90q42 0 68.5 41.5t36 101 t9.5 138.5q0 61 -8 115t-24 99t-44 71t-65 26q-36 0 -61 -20t-38 -59t-18.5 -86t-5.5 -111z" />
<glyph unicode="&#xbb;" horiz-adv-x="1124" d="M63 57l263 408l-263 412l46 34l475 -393v-102l-478 -391zM516 57l262 408l-262 412l43 30l479 -391v-94l-475 -397z" />
<glyph unicode="&#xbc;" horiz-adv-x="1202" d="M90 502v143l498 19l522 88v-138l-516 -24zM233 -199l472 615h129v-588h135v-84h-135v-184l-238 -21v205h-340zM309 1563l13 55q55 -4 92.5 -4.5t71.5 4t58 12.5t51.5 24.5t50.5 35.5t56 51l50 -19q-29 -164 -29 -260v-418q0 -54 27 -69.5t120 -20.5v-67h-559v67 q108 6 142 22t34 71v235q0 94 13 227q-96 17 -191 54zM352 -172h244v330z" />
<glyph unicode="&#xbd;" horiz-adv-x="1202" d="M90 502v143l498 19l522 88v-138l-516 -24zM307 1563l12 55q55 -4 92.5 -4.5t72 4t58.5 12.5t51 24.5t50.5 35.5t56.5 51l50 -19q-29 -164 -29 -260v-418q0 -54 27 -69.5t120 -20.5v-67h-559v67q108 6 142 22t34 71v235q0 94 13 227q-96 17 -191 54zM311 180 q0 64 53.5 118.5t131 83t155.5 28.5q125 0 219.5 -66.5t94.5 -179.5q0 -67 -17.5 -114t-68 -92.5t-117.5 -84t-191 -98.5l-59 -54h338l113 140l55 -8l-64 -277h-616l-12 68q72 75 116 115.5t129 109.5q74 59 104 122t30 156q0 82 -34.5 135.5t-86.5 53.5q-32 0 -65 -20.5 t-52 -47.5l53 -114q-6 -32 -36 -59t-66 -27q-40 0 -73.5 34t-33.5 78z" />
<glyph unicode="&#xbe;" horiz-adv-x="1202" d="M90 502v143l498 19l522 88v-138l-516 -24zM221 -199l471 615h129v-588h135v-84h-135v-184l-237 -21v205h-340zM244 1051q0 45 37.5 84t83.5 39q37 0 68 -28.5t32 -68.5l-45 -67q6 -25 30 -46.5t68 -21.5q71 0 121.5 52.5t50.5 125.5q0 70 -36.5 111t-96.5 41 q-35 0 -84 -10l-8 59q92 20 141 72.5t49 130.5q0 64 -29.5 101.5t-84.5 37.5q-33 0 -61.5 -12.5t-41.5 -25.5l-12 -13l39 -92q-5 -33 -36.5 -60.5t-66.5 -27.5q-40 0 -71 34.5t-31 73.5q0 79 104 136t230 57q137 0 225 -49t88 -144q0 -152 -235 -207l2 -8q8 4 24 4 q47 0 89 -9.5t79.5 -30t59.5 -58.5t22 -90q0 -82 -61.5 -145t-153.5 -93.5t-194 -30.5q-125 0 -210 49.5t-85 129.5zM340 -172h244v330z" />
<glyph unicode="&#xbf;" horiz-adv-x="806" d="M84 150q0 143 80.5 241t214.5 98l145 -8l27 148h67l58 -410h-260q-228 0 -228 -149q0 -69 93 -141.5t202 -100.5l181 86q59 -15 97 -61t38 -101q0 -59 -49.5 -102t-120.5 -43q-82 0 -179 49t-177.5 125t-134.5 176t-54 193zM383 922q0 70 52 117.5t126 47.5 q73 0 122.5 -47t49.5 -118q0 -76 -49 -125t-123 -49q-75 0 -126.5 49.5t-51.5 124.5z" />
<glyph unicode="&#xc0;" horiz-adv-x="1310" d="M4 0v55q36 8 55.5 17.5t41 36.5t38.5 68t45 118l310 856l81 231h134l409 -1091q25 -67 39.5 -101t29 -63t29 -40.5t30 -19t42.5 -12.5v-55h-567v55q74 8 104.5 24t30.5 50q0 42 -39 143l-35 103h-483l-20 -66q-33 -97 -33 -159q0 -38 35 -59.5t118 -35.5v-55h-395z M285 1829q0 43 36.5 80t81.5 37q43 0 81 -24t59 -62l159 -279l-47 -47l-284 158q-38 20 -62 58t-24 79zM326 449h430l-215 610z" />
<glyph unicode="&#xc1;" horiz-adv-x="1310" d="M4 0v55q36 8 55.5 17.5t41 36.5t38.5 68t45 118l310 856l81 231h134l409 -1091q25 -67 39.5 -101t29 -63t29 -40.5t30 -19t42.5 -12.5v-55h-567v55q74 8 104.5 24t30.5 50q0 42 -39 143l-35 103h-483l-20 -66q-33 -97 -33 -159q0 -38 35 -59.5t118 -35.5v-55h-395z M326 449h430l-215 610zM526 1542l166 285q22 38 60.5 62t81.5 24q46 0 83 -37.5t37 -79.5t-25 -81t-63 -58l-293 -164z" />
<glyph unicode="&#xc2;" horiz-adv-x="1275" d="M4 0v55q36 8 55.5 17.5t41 36.5t38.5 68t45 118l310 856l81 231h134l409 -1091q25 -67 39.5 -101t29 -63t29 -40.5t30 -19t42.5 -12.5v-55h-567v55q74 8 104.5 24t30.5 50q0 42 -39 143l-35 103h-483l-20 -66q-33 -97 -33 -159q0 -38 35 -59.5t118 -35.5v-55h-395z M295 1565l293 305h100l293 -305l-35 -52l-309 127l-307 -127zM326 449h430l-215 610z" />
<glyph unicode="&#xc3;" horiz-adv-x="1275" d="M4 0v55q36 8 55.5 17.5t41 36.5t38.5 68t45 118l310 856l81 231h134l409 -1091q25 -67 39.5 -101t29 -63t29 -40.5t30 -19t42.5 -12.5v-55h-567v55q74 8 104.5 24t30.5 50q0 42 -39 143l-35 103h-483l-20 -66q-33 -97 -33 -159q0 -38 35 -59.5t118 -35.5v-55h-395z M264 1571q51 135 108 198.5t128 63.5q58 0 173.5 -46t170.5 -46q37 0 65 22t66 78l61 -33q-51 -134 -109 -198t-128 -64q-58 0 -173 45t-169 45q-39 0 -67 -21t-64 -75zM326 449h430l-215 610z" />
<glyph unicode="&#xc4;" horiz-adv-x="1275" d="M4 0v55q36 8 55.5 17.5t41 36.5t38.5 68t45 118l310 856l81 231h134l409 -1091q25 -67 39.5 -101t29 -63t29 -40.5t30 -19t42.5 -12.5v-55h-567v55q74 8 104.5 24t30.5 50q0 42 -39 143l-35 103h-483l-20 -66q-33 -97 -33 -159q0 -38 35 -59.5t118 -35.5v-55h-395z M264 1681q0 65 41.5 109.5t110.5 44.5q67 0 113 -44.5t46 -109.5t-48 -107t-111 -42t-107.5 41.5t-44.5 107.5zM326 449h430l-215 610zM723 1681q0 64 44 109t112 45q67 0 110 -44t43 -110t-45 -107.5t-108 -41.5q-64 0 -110 42t-46 107z" />
<glyph unicode="&#xc5;" horiz-adv-x="1275" d="M4 0v55q36 8 55.5 17.5t41 36.5t38.5 68t45 118l310 856l81 231h134l409 -1091q25 -67 39.5 -101t29 -63t29 -40.5t30 -19t42.5 -12.5v-55h-567v55q74 8 104.5 24t30.5 50q0 42 -39 143l-35 103h-483l-20 -66q-33 -97 -33 -159q0 -38 35 -59.5t118 -35.5v-55h-395z M326 449h430l-215 610zM416 1700q0 88 68 150.5t161 62.5q91 0 157 -62t66 -151t-66 -155t-157 -66q-92 0 -160.5 66t-68.5 155zM516 1700q0 -55 36.5 -95t92.5 -40q55 0 93 40t38 95q0 53 -38.5 92t-92.5 39q-56 0 -92.5 -38.5t-36.5 -92.5z" />
<glyph unicode="&#xc6;" horiz-adv-x="1896" d="M102 0v59q51 5 83.5 26t69 74t93.5 165l526 1034h695l221 12l6 -401h-86q-24 84 -38 129t-35 86t-35.5 57t-46 29t-61 14.5t-85.5 1.5h-192v-567h129q60 0 87 13t41 51t21 124h88v-483h-86q-8 64 -14 98.5t-16 64t-26 41t-37.5 17.5t-57.5 6h-129v-372q0 -126 36 -166.5 t150 -40.5h45q34 0 57.5 2t46 10.5t36.5 16t30.5 30t26 39.5t24.5 57t25.5 71.5t29.5 92.5h91l-19 -391h-1046v66q41 3 61.5 5.5t42.5 12t30 22t16 40t9.5 62t1.5 91.5v78h-438l-33 -68q-28 -59 -38 -100.5t-1 -74t42.5 -51t93.5 -24.5v-59h-435zM510 453h401v821z" />
<glyph unicode="&#xc7;" horiz-adv-x="1247" d="M45 651q0 144 47.5 277t130.5 234t206 161.5t265 60.5q165 0 316 -57l90 62h55l21 -498l-72 -4l-162 356q-103 68 -233 68q-83 0 -147 -48.5t-101 -131t-55.5 -180.5t-18.5 -208q0 -119 25 -231t73 -206t128 -151t180 -57q104 0 181.5 40.5t166.5 133.5l55 -49 q-194 -266 -477 -274l-41 -66q126 -8 207.5 -50.5t81.5 -104.5q0 -94 -107.5 -166t-251.5 -72q-77 0 -129.5 23t-52.5 73q0 37 34 64.5t81 27.5l110 -116q63 7 95 42t32 72q0 43 -55.5 76t-173.5 41l-14 23l102 135q-275 22 -433.5 211t-158.5 489z" />
<glyph unicode="&#xc8;" horiz-adv-x="1132" d="M53 0v66q40 4 60 7t39.5 16t26 26t13 49t7 72.5t0.5 107.5v770q0 43 -1 67.5t-7.5 46t-14 31.5t-27 18t-39 11t-57.5 6v64h807l217 8l6 -399h-84q-19 62 -32.5 102.5t-29.5 77t-27.5 57t-30.5 38.5t-34 25.5t-43 13t-52 6.5t-66 1h-180v-569h117q45 0 69.5 5t47.5 25 t38 56t33 102h63v-483h-61q-24 84 -40 127.5t-39 67t-44.5 28t-66.5 4.5h-117v-354q0 -138 34.5 -181.5t149.5 -43.5h33q44 0 69 2.5t52 15.5t43 30.5t38 58.5t40.5 89t48.5 131h90l-19 -399h-1030zM326 1792q0 43 36.5 80t81.5 37q43 0 81 -24t59 -62l159 -279l-47 -47 l-284 158q-38 20 -62 58t-24 79z" />
<glyph unicode="&#xc9;" horiz-adv-x="1132" d="M53 0v66q40 4 60 7t39.5 16t26 26t13 49t7 72.5t0.5 107.5v770q0 43 -1 67.5t-7.5 46t-14 31.5t-27 18t-39 11t-57.5 6v64h807l217 8l6 -399h-84q-19 62 -32.5 102.5t-29.5 77t-27.5 57t-30.5 38.5t-34 25.5t-43 13t-52 6.5t-66 1h-180v-569h117q45 0 69.5 5t47.5 25 t38 56t33 102h63v-483h-61q-24 84 -40 127.5t-39 67t-44.5 28t-66.5 4.5h-117v-354q0 -138 34.5 -181.5t149.5 -43.5h33q44 0 69 2.5t52 15.5t43 30.5t38 58.5t40.5 89t48.5 131h90l-19 -399h-1030zM449 1552l165 285q22 38 60.5 62t81.5 24q46 0 83.5 -37.5t37.5 -79.5 t-25 -81t-64 -58l-292 -164z" />
<glyph unicode="&#xca;" horiz-adv-x="1132" d="M53 0v66q40 4 60 7t39.5 16t26 26t13 49t7 72.5t0.5 107.5v770q0 43 -1 67.5t-7.5 46t-14 31.5t-27 18t-39 11t-57.5 6v64h807l217 8l6 -399h-84q-19 62 -32.5 102.5t-29.5 77t-27.5 57t-30.5 38.5t-34 25.5t-43 13t-52 6.5t-66 1h-180v-569h117q45 0 69.5 5t47.5 25 t38 56t33 102h63v-483h-61q-24 84 -40 127.5t-39 67t-44.5 28t-66.5 4.5h-117v-354q0 -138 34.5 -181.5t149.5 -43.5h33q44 0 69 2.5t52 15.5t43 30.5t38 58.5t40.5 89t48.5 131h90l-19 -399h-1030zM250 1565l293 305h100l293 -305l-35 -52l-309 127l-307 -127z" />
<glyph unicode="&#xcb;" horiz-adv-x="1132" d="M53 0v66q40 4 60 7t39.5 16t26 26t13 49t7 72.5t0.5 107.5v770q0 43 -1 67.5t-7.5 46t-14 31.5t-27 18t-39 11t-57.5 6v64h807l217 8l6 -399h-84q-19 62 -32.5 102.5t-29.5 77t-27.5 57t-30.5 38.5t-34 25.5t-43 13t-52 6.5t-66 1h-180v-569h117q45 0 69.5 5t47.5 25 t38 56t33 102h63v-483h-61q-24 84 -40 127.5t-39 67t-44.5 28t-66.5 4.5h-117v-354q0 -138 34.5 -181.5t149.5 -43.5h33q44 0 69 2.5t52 15.5t43 30.5t38 58.5t40.5 89t48.5 131h90l-19 -399h-1030zM225 1667q0 65 41.5 109.5t110.5 44.5q67 0 113.5 -44.5t46.5 -109.5 t-48.5 -107t-111.5 -42t-107.5 41.5t-44.5 107.5zM684 1667q0 64 44 109t112 45q67 0 110 -44t43 -110t-45 -107.5t-108 -41.5q-64 0 -110 42t-46 107z" />
<glyph unicode="&#xcc;" horiz-adv-x="702" d="M27 1780q0 43 36.5 79.5t81.5 36.5q43 0 81 -24t59 -62l159 -278l-47 -47l-284 157q-38 20 -62 58.5t-24 79.5zM43 1298v60h621v-60q-42 -3 -65.5 -6.5t-43.5 -16t-28 -24.5t-14 -46.5t-6.5 -65.5t-0.5 -97v-727q0 -63 1 -97t7.5 -66t15 -45t29 -25t43 -15.5t64.5 -7.5 v-59h-621v59q30 3 48.5 5.5t36.5 9.5t27.5 13t18.5 21.5t12.5 30.5t6.5 44t3.5 57t0.5 75v727q0 62 -1 96.5t-7.5 66.5t-15 45.5t-28 25t-42 15.5t-62.5 7z" />
<glyph unicode="&#xcd;" horiz-adv-x="702" d="M43 1298v60h621v-60q-42 -3 -65.5 -6.5t-43.5 -16t-28 -24.5t-14 -46.5t-6.5 -65.5t-0.5 -97v-727q0 -63 1 -97t7.5 -66t15 -45t29 -25t43 -15.5t64.5 -7.5v-59h-621v59q30 3 48.5 5.5t36.5 9.5t27.5 13t18.5 21.5t12.5 30.5t6.5 44t3.5 57t0.5 75v727q0 62 -1 96.5 t-7.5 66.5t-15 45.5t-28 25t-42 15.5t-62.5 7zM213 1544l166 285q23 38 60.5 62t80.5 24q46 0 83.5 -37.5t37.5 -79.5t-25 -81t-63 -58l-293 -164z" />
<glyph unicode="&#xce;" horiz-adv-x="702" d="M8 1565l293 305h100l293 -305l-35 -52l-309 127l-307 -127zM43 1298v60h621v-60q-42 -3 -65.5 -6.5t-43.5 -16t-28 -24.5t-14 -46.5t-6.5 -65.5t-0.5 -97v-727q0 -63 1 -97t7.5 -66t15 -45t29 -25t43 -15.5t64.5 -7.5v-59h-621v59q30 3 48.5 5.5t36.5 9.5t27.5 13 t18.5 21.5t12.5 30.5t6.5 44t3.5 57t0.5 75v727q0 62 -1 96.5t-7.5 66.5t-15 45.5t-28 25t-42 15.5t-62.5 7z" />
<glyph unicode="&#xcf;" horiz-adv-x="702" d="M-10 1667q0 65 41 109.5t110 44.5q67 0 113.5 -44.5t46.5 -109.5t-48.5 -107t-111.5 -42t-107 41.5t-44 107.5zM43 1298v60h621v-60q-42 -3 -65.5 -6.5t-43.5 -16t-28 -24.5t-14 -46.5t-6.5 -65.5t-0.5 -97v-727q0 -63 1 -97t7.5 -66t15 -45t29 -25t43 -15.5t64.5 -7.5 v-59h-621v59q30 3 48.5 5.5t36.5 9.5t27.5 13t18.5 21.5t12.5 30.5t6.5 44t3.5 57t0.5 75v727q0 62 -1 96.5t-7.5 66.5t-15 45.5t-28 25t-42 15.5t-62.5 7zM449 1667q0 64 43.5 109t111.5 45q67 0 110.5 -44t43.5 -110t-45.5 -107.5t-108.5 -41.5q-64 0 -109.5 42t-45.5 107 z" />
<glyph unicode="&#xd0;" horiz-adv-x="1400" d="M33 0v63q40 5 60 8.5t40 16t27 27t13.5 49.5t7.5 73.5t1 108.5v295h-137v90h137v283q0 55 -0.5 85.5t-3 64t-5.5 49t-12 33t-17.5 23t-27 12t-36 8t-47.5 3.5v66h622q210 0 372.5 -75t255.5 -221t93 -343q0 -168 -54.5 -304.5t-151.5 -227t-228.5 -139t-286.5 -48.5h-622 zM487 344q0 -48 1 -80.5t5 -61.5t8 -46.5t15 -32.5t20.5 -22.5t29.5 -14t38 -9.5t49 -7h11q94 0 166 50t115 137.5t64 196.5t21 236q0 123 -26 230.5t-75 190t-127.5 130t-176.5 47.5h-138v-557h207v-90h-207v-297z" />
<glyph unicode="&#xd1;" horiz-adv-x="1470" d="M37 0v59q38 4 59.5 8.5t42 16t30 26t17 43.5t9.5 65t2 93v746q0 50 -2 81t-9 57.5t-16 40.5t-29.5 27t-42 20t-59.5 17v58h418l694 -922v617q0 57 -1.5 89.5t-11 61t-19.5 41.5t-37.5 25t-54 17t-79.5 13v58h428v-58q-37 -6 -56.5 -10t-38.5 -15.5t-26 -24.5t-13.5 -42 t-7.5 -61.5t-1 -89.5v-1082h-92l-858 1141v-799q0 -46 0.5 -73.5t4.5 -56.5t8.5 -43t17.5 -29.5t25 -22t37.5 -14t50 -11t65.5 -8.5v-59h-455zM354 1530q51 135 108 198.5t128 63.5q58 0 173.5 -46t170.5 -46q37 0 65 22t66 78l61 -33q-51 -134 -109 -198t-128 -64 q-58 0 -173 45t-169 45q-39 0 -67 -21t-64 -75z" />
<glyph unicode="&#xd2;" horiz-adv-x="1411" d="M27 668q0 209 87.5 372.5t242 253.5t350.5 90q148 0 274 -52.5t214.5 -145.5t138.5 -226.5t50 -291.5q0 -155 -47 -287.5t-133.5 -228t-214 -149.5t-282.5 -54q-198 0 -353.5 92.5t-241 256.5t-85.5 370zM367 1804q0 43 36.5 80t81.5 37q43 0 81 -24t59 -62l159 -279 l-47 -47l-284 158q-38 20 -62 58t-24 79zM371 668q0 -89 11.5 -176.5t38 -172.5t65 -150t98 -104.5t131.5 -39.5q74 0 132 38.5t94 101t59.5 148.5t32.5 173t9 182q0 125 -21 237.5t-61.5 204t-108 145.5t-153.5 54q-87 0 -152.5 -55.5t-102.5 -149.5t-54.5 -203.5 t-17.5 -232.5z" />
<glyph unicode="&#xd3;" horiz-adv-x="1411" d="M27 668q0 209 87.5 372.5t242 253.5t350.5 90q148 0 274 -52.5t214.5 -145.5t138.5 -226.5t50 -291.5q0 -155 -47 -287.5t-133.5 -228t-214 -149.5t-282.5 -54q-198 0 -353.5 92.5t-241 256.5t-85.5 370zM371 668q0 -89 11.5 -176.5t38 -172.5t65 -150t98 -104.5 t131.5 -39.5q74 0 132 38.5t94 101t59.5 148.5t32.5 173t9 182q0 125 -21 237.5t-61.5 204t-108 145.5t-153.5 54q-87 0 -152.5 -55.5t-102.5 -149.5t-54.5 -203.5t-17.5 -232.5zM567 1540l166 285q23 38 60.5 62t80.5 24q46 0 83.5 -37.5t37.5 -79.5t-25 -81t-63 -58 l-293 -164z" />
<glyph unicode="&#xd4;" horiz-adv-x="1411" d="M27 668q0 209 87.5 372.5t242 253.5t350.5 90q148 0 274 -52.5t214.5 -145.5t138.5 -226.5t50 -291.5q0 -155 -47 -287.5t-133.5 -228t-214 -149.5t-282.5 -54q-198 0 -353.5 92.5t-241 256.5t-85.5 370zM356 1565l293 305h101l292 -305l-34 -52l-310 127l-307 -127z M371 668q0 -89 11.5 -176.5t38 -172.5t65 -150t98 -104.5t131.5 -39.5q74 0 132 38.5t94 101t59.5 148.5t32.5 173t9 182q0 125 -21 237.5t-61.5 204t-108 145.5t-153.5 54q-87 0 -152.5 -55.5t-102.5 -149.5t-54.5 -203.5t-17.5 -232.5z" />
<glyph unicode="&#xd5;" horiz-adv-x="1411" d="M27 668q0 209 87.5 372.5t242 253.5t350.5 90q148 0 274 -52.5t214.5 -145.5t138.5 -226.5t50 -291.5q0 -155 -47 -287.5t-133.5 -228t-214 -149.5t-282.5 -54q-198 0 -353.5 92.5t-241 256.5t-85.5 370zM313 1571q51 135 108 198.5t128 63.5q58 0 173.5 -46t170.5 -46 q37 0 65 22t66 78l61 -33q-51 -134 -109 -198t-128 -64q-58 0 -173 45t-169 45q-39 0 -67 -21t-64 -75zM371 668q0 -89 11.5 -176.5t38 -172.5t65 -150t98 -104.5t131.5 -39.5q74 0 132 38.5t94 101t59.5 148.5t32.5 173t9 182q0 125 -21 237.5t-61.5 204t-108 145.5 t-153.5 54q-87 0 -152.5 -55.5t-102.5 -149.5t-54.5 -203.5t-17.5 -232.5z" />
<glyph unicode="&#xd6;" horiz-adv-x="1411" d="M27 668q0 209 87.5 372.5t242 253.5t350.5 90q148 0 274 -52.5t214.5 -145.5t138.5 -226.5t50 -291.5q0 -155 -47 -287.5t-133.5 -228t-214 -149.5t-282.5 -54q-198 0 -353.5 92.5t-241 256.5t-85.5 370zM344 1673q0 65 41.5 109.5t110.5 44.5q67 0 113 -44.5t46 -109.5 t-48 -107t-111 -42t-107.5 41.5t-44.5 107.5zM371 668q0 -89 11.5 -176.5t38 -172.5t65 -150t98 -104.5t131.5 -39.5q74 0 132 38.5t94 101t59.5 148.5t32.5 173t9 182q0 125 -21 237.5t-61.5 204t-108 145.5t-153.5 54q-87 0 -152.5 -55.5t-102.5 -149.5t-54.5 -203.5 t-17.5 -232.5zM803 1673q0 64 43.5 109t111.5 45q67 0 110.5 -44t43.5 -110t-45.5 -107.5t-108.5 -41.5q-64 0 -109.5 42t-45.5 107z" />
<glyph unicode="&#xd7;" d="M145 817l103 103l287 -289l284 284l99 -100l-283 -285l287 -286l-101 -101l-286 287l-285 -283l-103 99l287 284z" />
<glyph unicode="&#xd8;" horiz-adv-x="1411" d="M27 668q0 209 87.5 372.5t242 253.5t350.5 90q146 0 278 -55l102 240l74 -29l-104 -246q154 -89 240.5 -252t86.5 -374q0 -155 -47 -287.5t-133.5 -228t-214 -149.5t-282.5 -54q-107 0 -209 31l-142 -336l-73 32l139 330q-184 80 -289.5 255.5t-105.5 406.5zM371 668 q0 -141 29 -277t89 -229l431 1016q-87 131 -222 131q-87 0 -152.5 -55.5t-102.5 -149.5t-54.5 -203.5t-17.5 -232.5zM547 92q70 -67 168 -67q74 0 132 38.5t94 101t59.5 148.5t32.5 173t9 182q0 245 -73 419z" />
<glyph unicode="&#xd9;" horiz-adv-x="1280" d="M12 1300v58h631v-58q-37 -3 -59 -5.5t-45.5 -9t-35 -13.5t-23.5 -22.5t-16.5 -32.5t-8.5 -47t-5 -62t-1 -82v-530q0 -98 11.5 -174t40 -145t84.5 -106.5t138 -37.5q91 0 155 34t99.5 97.5t51 142t15.5 180.5v539q0 50 -1 83.5t-5.5 63t-9 47t-16.5 32.5t-23 22t-33.5 13 t-42.5 8t-55 5v58h404v-58q-28 -3 -44.5 -6.5t-32 -10t-23.5 -20t-15 -30.5t-9 -48.5t-3.5 -66.5t-1.5 -92v-553q0 -243 -111.5 -382.5t-345.5 -139.5q-255 0 -393 128.5t-138 389.5v557q0 66 -1 104.5t-7 71.5t-13.5 48t-24.5 26.5t-35 15.5t-52 8zM373 1792q0 43 37 80 t82 37q43 0 80.5 -24t58.5 -62l160 -279l-48 -47l-284 158q-38 20 -62 58t-24 79z" />
<glyph unicode="&#xda;" horiz-adv-x="1280" d="M12 1300v58h631v-58q-37 -3 -59 -5.5t-45.5 -9t-35 -13.5t-23.5 -22.5t-16.5 -32.5t-8.5 -47t-5 -62t-1 -82v-530q0 -98 11.5 -174t40 -145t84.5 -106.5t138 -37.5q91 0 155 34t99.5 97.5t51 142t15.5 180.5v539q0 50 -1 83.5t-5.5 63t-9 47t-16.5 32.5t-23 22t-33.5 13 t-42.5 8t-55 5v58h404v-58q-28 -3 -44.5 -6.5t-32 -10t-23.5 -20t-15 -30.5t-9 -48.5t-3.5 -66.5t-1.5 -92v-553q0 -243 -111.5 -382.5t-345.5 -139.5q-255 0 -393 128.5t-138 389.5v557q0 66 -1 104.5t-7 71.5t-13.5 48t-24.5 26.5t-35 15.5t-52 8zM551 1532l166 285 q23 38 60.5 62t80.5 24q46 0 83.5 -37.5t37.5 -79.5t-25 -81t-63 -58l-293 -164z" />
<glyph unicode="&#xdb;" horiz-adv-x="1280" d="M12 1300v58h631v-58q-37 -3 -59 -5.5t-45.5 -9t-35 -13.5t-23.5 -22.5t-16.5 -32.5t-8.5 -47t-5 -62t-1 -82v-530q0 -98 11.5 -174t40 -145t84.5 -106.5t138 -37.5q91 0 155 34t99.5 97.5t51 142t15.5 180.5v539q0 50 -1 83.5t-5.5 63t-9 47t-16.5 32.5t-23 22t-33.5 13 t-42.5 8t-55 5v58h404v-58q-28 -3 -44.5 -6.5t-32 -10t-23.5 -20t-15 -30.5t-9 -48.5t-3.5 -66.5t-1.5 -92v-553q0 -243 -111.5 -382.5t-345.5 -139.5q-255 0 -393 128.5t-138 389.5v557q0 66 -1 104.5t-7 71.5t-13.5 48t-24.5 26.5t-35 15.5t-52 8zM309 1581l293 305h100 l293 -305l-34 -51l-310 127l-307 -127z" />
<glyph unicode="&#xdc;" horiz-adv-x="1280" d="M12 1300v58h631v-58q-37 -3 -59 -5.5t-45.5 -9t-35 -13.5t-23.5 -22.5t-16.5 -32.5t-8.5 -47t-5 -62t-1 -82v-530q0 -98 11.5 -174t40 -145t84.5 -106.5t138 -37.5q91 0 155 34t99.5 97.5t51 142t15.5 180.5v539q0 50 -1 83.5t-5.5 63t-9 47t-16.5 32.5t-23 22t-33.5 13 t-42.5 8t-55 5v58h404v-58q-28 -3 -44.5 -6.5t-32 -10t-23.5 -20t-15 -30.5t-9 -48.5t-3.5 -66.5t-1.5 -92v-553q0 -243 -111.5 -382.5t-345.5 -139.5q-255 0 -393 128.5t-138 389.5v557q0 66 -1 104.5t-7 71.5t-13.5 48t-24.5 26.5t-35 15.5t-52 8zM305 1673 q0 65 41.5 109.5t110.5 44.5q67 0 113 -44.5t46 -109.5t-48 -107t-111 -42t-107.5 41.5t-44.5 107.5zM764 1673q0 64 44 109t112 45q67 0 110 -44t43 -110t-45 -107.5t-108 -41.5q-64 0 -110 42t-46 107z" />
<glyph unicode="&#xdd;" horiz-adv-x="1097" d="M-43 1298v60h573v-60q-65 -2 -92.5 -11.5t-27.5 -33.5q0 -20 28 -71l244 -455l180 408q27 69 27 106q0 25 -33.5 39t-114.5 18v60h402v-60q-73 -13 -103.5 -41t-76.5 -122l-238 -480v-321q0 -51 0.5 -82t3.5 -62t6.5 -47t13 -32t18.5 -23t28 -13.5t36.5 -9.5t47.5 -6v-59 h-611v59q40 5 61 8.5t41 16t27.5 27t14 48t7.5 71t1 104.5v280l-295 537q-51 91 -78.5 115t-89.5 32zM506 1573l166 285q23 38 60.5 62t80.5 24q46 0 83.5 -37.5t37.5 -79.5t-25 -81t-63 -58l-293 -164z" />
<glyph unicode="&#xde;" horiz-adv-x="1202" d="M27 0v59q40 4 62 8t42 15.5t28 23.5t14.5 42t7.5 61.5t1 89.5v819q0 65 -3 94.5t-21.5 50t-45 25.5t-85.5 8v62h645v-62q-46 -3 -72.5 -6.5t-50 -12t-33.5 -19t-18 -32.5t-9.5 -47t-1.5 -67h162q233 0 383 -103.5t150 -287.5q0 -111 -46.5 -194.5t-131.5 -134.5t-195 -77 t-246 -30v65q149 20 217 106t68 259q0 151 -66.5 239t-187.5 88h-107v-739q0 -45 0.5 -71.5t4 -55t8.5 -42.5t16.5 -29t25 -21t37 -12t49.5 -8t66 -3v-61h-667z" />
<glyph unicode="&#xdf;" horiz-adv-x="1468" d="M39 0v57q59 5 83 20.5t34 61t10 152.5v622h-123v70l123 6v12q0 134 79.5 234t203 148.5t268.5 48.5q114 0 205 -24.5t149.5 -80t58.5 -135.5q0 -53 -31 -101t-75 -83t-88.5 -67.5t-75.5 -69t-31 -72.5q0 -17 12.5 -34t40.5 -36.5t53 -34t70.5 -40t73.5 -42.5 q146 -88 195 -155.5t49 -182.5q0 -93 -60.5 -165t-149.5 -107t-185 -35q-186 0 -342 86l-13 258l107 2l70 -192q74 -74 151 -74q59 0 98 46t39 110q0 58 -51 107.5t-174 111.5q-118 58 -167.5 113t-49.5 129q0 43 23 83t55 76t64.5 77.5t55.5 106t23 142.5q0 91 -37.5 148 t-117.5 57q-94 0 -145.5 -86.5t-51.5 -233.5v-1034h-426z" />
<glyph unicode="&#xe0;" horiz-adv-x="1015" d="M37 250q0 125 98 204t252 109q82 17 201 25v133q0 151 -20 203.5t-95 52.5q-57 0 -111 -31l-18 -209q-18 -35 -61.5 -63.5t-83.5 -28.5q-59 0 -103.5 43.5t-44.5 104.5q0 55 45.5 104t113.5 81t144.5 50.5t141.5 18.5q391 0 391 -310q0 -107 -6.5 -283.5t-6.5 -267.5 q0 -48 18.5 -82t49.5 -34l55 8l23 -64q-139 -59 -227 -59q-73 0 -126 33t-83 88q-46 -51 -113 -86t-137 -35q-128 0 -212.5 82.5t-84.5 212.5zM203 1475q0 43 37 79.5t82 36.5q43 0 80.5 -24t58.5 -62l160 -278l-48 -47l-284 157q-38 20 -62 58.5t-24 79.5zM342 311 q0 -80 38.5 -147.5t92.5 -67.5q61 0 111 66l6 360q-64 0 -129 -26q-119 -45 -119 -185z" />
<glyph unicode="&#xe1;" horiz-adv-x="1015" d="M37 250q0 125 98 204t252 109q82 17 201 25v133q0 151 -20 203.5t-95 52.5q-57 0 -111 -31l-18 -209q-18 -35 -61.5 -63.5t-83.5 -28.5q-59 0 -103.5 43.5t-44.5 104.5q0 55 45.5 104t113.5 81t144.5 50.5t141.5 18.5q391 0 391 -310q0 -107 -6.5 -283.5t-6.5 -267.5 q0 -48 18.5 -82t49.5 -34l55 8l23 -64q-139 -59 -227 -59q-73 0 -126 33t-83 88q-46 -51 -113 -86t-137 -35q-128 0 -212.5 82.5t-84.5 212.5zM317 1225l166 284q22 38 60.5 62t81.5 24q46 0 83 -37t37 -79q0 -43 -25 -82t-63 -58l-292 -163zM342 311q0 -80 38.5 -147.5 t92.5 -67.5q61 0 111 66l6 360q-64 0 -129 -26q-119 -45 -119 -185z" />
<glyph unicode="&#xe2;" horiz-adv-x="1015" d="M37 250q0 125 98 204t252 109q82 17 201 25v133q0 151 -20 203.5t-95 52.5q-57 0 -111 -31l-18 -209q-18 -35 -61.5 -63.5t-83.5 -28.5q-59 0 -103.5 43.5t-44.5 104.5q0 55 45.5 104t113.5 81t144.5 50.5t141.5 18.5q391 0 391 -310q0 -107 -6.5 -283.5t-6.5 -267.5 q0 -48 18.5 -82t49.5 -34l55 8l23 -64q-139 -59 -227 -59q-73 0 -126 33t-83 88q-46 -51 -113 -86t-137 -35q-128 0 -212.5 82.5t-84.5 212.5zM135 1200l293 305h100l293 -305l-35 -51l-309 127l-307 -127zM342 311q0 -80 38.5 -147.5t92.5 -67.5q61 0 111 66l6 360 q-64 0 -129 -26q-119 -45 -119 -185z" />
<glyph unicode="&#xe3;" horiz-adv-x="1015" d="M37 250q0 125 98 204t252 109q82 17 201 25v133q0 151 -20 203.5t-95 52.5q-57 0 -111 -31l-18 -209q-18 -35 -61.5 -63.5t-83.5 -28.5q-59 0 -103.5 43.5t-44.5 104.5q0 55 45.5 104t113.5 81t144.5 50.5t141.5 18.5q391 0 391 -310q0 -107 -6.5 -283.5t-6.5 -267.5 q0 -48 18.5 -82t49.5 -34l55 8l23 -64q-139 -59 -227 -59q-73 0 -126 33t-83 88q-46 -51 -113 -86t-137 -35q-128 0 -212.5 82.5t-84.5 212.5zM113 1221q51 135 108 198.5t127 63.5q58 0 173.5 -46t170.5 -46q37 0 65 22t66 78l62 -33q-51 -134 -109.5 -198t-128.5 -64 q-58 0 -173 45t-169 45q-39 0 -67 -21t-64 -75zM342 311q0 -80 38.5 -147.5t92.5 -67.5q61 0 111 66l6 360q-64 0 -129 -26q-119 -45 -119 -185z" />
<glyph unicode="&#xe4;" horiz-adv-x="1015" d="M37 250q0 125 98 204t252 109q82 17 201 25v133q0 151 -20 203.5t-95 52.5q-57 0 -111 -31l-18 -209q-18 -35 -61.5 -63.5t-83.5 -28.5q-59 0 -103.5 43.5t-44.5 104.5q0 55 45.5 104t113.5 81t144.5 50.5t141.5 18.5q391 0 391 -310q0 -107 -6.5 -283.5t-6.5 -267.5 q0 -48 18.5 -82t49.5 -34l55 8l23 -64q-139 -59 -227 -59q-73 0 -126 33t-83 88q-46 -51 -113 -86t-137 -35q-128 0 -212.5 82.5t-84.5 212.5zM96 1307q0 65 41.5 109t110.5 44q67 0 113.5 -44t46.5 -109t-48.5 -107.5t-111.5 -42.5t-107.5 42t-44.5 108zM342 311 q0 -80 38.5 -147.5t92.5 -67.5q61 0 111 66l6 360q-64 0 -129 -26q-119 -45 -119 -185zM555 1307q0 64 44 108.5t112 44.5q67 0 110 -43.5t43 -109.5t-45 -108t-108 -42q-64 0 -110 42.5t-46 107.5z" />
<glyph unicode="&#xe5;" horiz-adv-x="1015" d="M37 250q0 125 98 204t252 109q82 17 201 25v133q0 151 -20 203.5t-95 52.5q-57 0 -111 -31l-18 -209q-18 -35 -61.5 -63.5t-83.5 -28.5q-59 0 -103.5 43.5t-44.5 104.5q0 55 45.5 104t113.5 81t144.5 50.5t141.5 18.5q391 0 391 -310q0 -107 -6.5 -283.5t-6.5 -267.5 q0 -48 18.5 -82t49.5 -34l55 8l23 -64q-139 -59 -227 -59q-73 0 -126 33t-83 88q-46 -51 -113 -86t-137 -35q-128 0 -212.5 82.5t-84.5 212.5zM260 1364q0 88 68 150.5t161 62.5q91 0 157.5 -62t66.5 -151t-66.5 -155t-157.5 -66q-92 0 -160.5 66t-68.5 155zM342 311 q0 -80 38.5 -147.5t92.5 -67.5q61 0 111 66l6 360q-64 0 -129 -26q-119 -45 -119 -185zM360 1364q0 -55 36.5 -95t92.5 -40q55 0 93.5 40t38.5 95q0 53 -39 92t-93 39q-56 0 -92.5 -38.5t-36.5 -92.5z" />
<glyph unicode="&#xe6;" horiz-adv-x="1636" d="M88 248q0 84 49.5 149.5t125 103t175.5 58.5q109 20 201 23v139q0 152 -20 205t-95 53q-54 0 -110 -33l-23 -201q-13 -35 -55 -61.5t-82 -26.5q-57 0 -99 39.5t-42 96.5q0 72 74 132.5t172.5 91t187.5 30.5q215 0 301 -101q125 101 282 101q184 0 296 -118t112 -315 q0 -35 -8 -59h-578v-43q0 -191 65.5 -297t186.5 -106q147 0 301 96l41 -55q-94 -86 -201.5 -140.5t-214.5 -54.5q-288 0 -413 199l-6 -9q-57 -74 -151 -132t-175 -58q-128 0 -212.5 81.5t-84.5 211.5zM393 309q0 -79 41.5 -146t95.5 -67q44 0 88.5 34t69.5 79 q-49 110 -49 264v43q-78 -4 -127 -24q-119 -51 -119 -183zM956 631h265q2 10 2 31q0 72 -4.5 124.5t-16.5 98t-35 69t-57 23.5q-38 0 -67.5 -29t-47 -79.5t-27 -109.5t-12.5 -128z" />
<glyph unicode="&#xe7;" horiz-adv-x="944" d="M39 471q0 161 68 293.5t184 207.5t254 75q93 0 172.5 -24t134.5 -81.5t55 -140.5q0 -54 -42 -95.5t-97 -41.5q-47 0 -87.5 28t-55.5 70l-19 190q-32 25 -74 25q-50 0 -86.5 -38t-55.5 -103t-27.5 -136t-8.5 -153q0 -79 16.5 -154.5t48.5 -139.5t85 -103t119 -39 q106 0 249 77l39 -59q-173 -156 -360 -172l-45 -74q126 -8 207.5 -50.5t81.5 -104.5q0 -94 -107.5 -166t-251.5 -72q-77 0 -129.5 23t-52.5 73q0 37 34 64.5t81 27.5l110 -116q63 7 95 42t32 72q0 43 -55.5 76t-173.5 41l-15 23l107 141q-191 17 -310.5 158t-119.5 356z" />
<glyph unicode="&#xe8;" horiz-adv-x="983" d="M39 473q0 157 62 288t175.5 208.5t253.5 77.5q184 0 297 -118t113 -315q0 -35 -8 -59h-580v-43q0 -184 66 -292.5t186 -108.5q150 0 305 98l39 -59q-216 -195 -418 -195q-231 0 -361 134.5t-130 383.5zM225 1475q0 43 37 79.5t82 36.5q43 0 80.5 -24t58.5 -62l160 -278 l-47 -47l-285 157q-38 20 -62 58.5t-24 79.5zM356 631h267q2 10 2 31q0 72 -4.5 124.5t-16.5 98t-35.5 69t-58.5 23.5q-38 0 -67.5 -29t-47 -79.5t-27 -109.5t-12.5 -128z" />
<glyph unicode="&#xe9;" horiz-adv-x="983" d="M39 473q0 157 62 288t175.5 208.5t253.5 77.5q184 0 297 -118t113 -315q0 -35 -8 -59h-580v-43q0 -184 66 -292.5t186 -108.5q150 0 305 98l39 -59q-216 -195 -418 -195q-231 0 -361 134.5t-130 383.5zM356 631h267q2 10 2 31q0 72 -4.5 124.5t-16.5 98t-35.5 69 t-58.5 23.5q-38 0 -67.5 -29t-47 -79.5t-27 -109.5t-12.5 -128zM362 1225l166 284q22 38 60.5 62t81.5 24q46 0 83.5 -37t37.5 -79t-25 -81.5t-64 -58.5l-292 -163z" />
<glyph unicode="&#xea;" horiz-adv-x="983" d="M39 473q0 157 62 288t175.5 208.5t253.5 77.5q184 0 297 -118t113 -315q0 -35 -8 -59h-580v-43q0 -184 66 -292.5t186 -108.5q150 0 305 98l39 -59q-216 -195 -418 -195q-231 0 -361 134.5t-130 383.5zM172 1200l293 305h100l293 -305l-35 -51l-309 127l-307 -127z M356 631h267q2 10 2 31q0 72 -4.5 124.5t-16.5 98t-35.5 69t-58.5 23.5q-38 0 -67.5 -29t-47 -79.5t-27 -109.5t-12.5 -128z" />
<glyph unicode="&#xeb;" horiz-adv-x="983" d="M39 473q0 157 62 288t175.5 208.5t253.5 77.5q184 0 297 -118t113 -315q0 -35 -8 -59h-580v-43q0 -184 66 -292.5t186 -108.5q150 0 305 98l39 -59q-216 -195 -418 -195q-231 0 -361 134.5t-130 383.5zM145 1307q0 65 41.5 109t110.5 44q67 0 113.5 -44t46.5 -109 t-48.5 -107.5t-111.5 -42.5t-107.5 42t-44.5 108zM356 631h267q2 10 2 31q0 72 -4.5 124.5t-16.5 98t-35.5 69t-58.5 23.5q-38 0 -67.5 -29t-47 -79.5t-27 -109.5t-12.5 -128zM604 1307q0 64 44 108.5t112 44.5q67 0 110 -43.5t43 -109.5t-45 -108t-108 -42q-64 0 -110 42.5 t-46 107.5z" />
<glyph unicode="&#xec;" horiz-adv-x="587" d="M0 1475q0 43 37 79.5t82 36.5q43 0 80.5 -24t58.5 -62l160 -278l-47 -47l-285 157q-38 20 -62 58.5t-24 79.5zM23 0v61q34 4 53 7.5t36 14.5t24 23t12.5 40.5t6.5 59t1 85.5v454q0 105 -22 139t-107 46v53l411 55l17 -18v-741q0 -50 1 -79.5t6 -55t12 -38t22 -22.5 t32 -14.5t47 -8.5v-61l-274 10z" />
<glyph unicode="&#xed;" horiz-adv-x="587" d="M23 0v61q34 4 53 7.5t36 14.5t24 23t12.5 40.5t6.5 59t1 85.5v454q0 105 -22 139t-107 46v53l411 55l17 -18v-741q0 -50 1 -79.5t6 -55t12 -38t22 -22.5t32 -14.5t47 -8.5v-61l-274 10zM158 1225l166 284q23 38 60.5 62t80.5 24q46 0 83.5 -37t37.5 -79q0 -43 -25 -82 t-63 -58l-293 -163z" />
<glyph unicode="&#xee;" horiz-adv-x="587" d="M-47 1200l293 305h100l293 -305l-35 -51l-309 127l-307 -127zM23 0v61q34 4 53 7.5t36 14.5t24 23t12.5 40.5t6.5 59t1 85.5v454q0 105 -22 139t-107 46v53l411 55l17 -18v-741q0 -50 1 -79.5t6 -55t12 -38t22 -22.5t32 -14.5t47 -8.5v-61l-274 10z" />
<glyph unicode="&#xef;" horiz-adv-x="587" d="M-106 1307q0 65 41 109t110 44q67 0 113.5 -44t46.5 -109t-48.5 -107.5t-111.5 -42.5t-107 42t-44 108zM23 0v61q34 4 53 7.5t36 14.5t24 23t12.5 40.5t6.5 59t1 85.5v454q0 105 -22 139t-107 46v53l411 55l17 -18v-741q0 -50 1 -79.5t6 -55t12 -38t22 -22.5t32 -14.5 t47 -8.5v-61l-274 10zM352 1307q0 64 44 108.5t112 44.5q67 0 110.5 -43.5t43.5 -109.5t-45.5 -108t-108.5 -42q-64 0 -110 42.5t-46 107.5z" />
<glyph unicode="&#xf0;" horiz-adv-x="1116" d="M35 487q0 118 43.5 222.5t114 175.5t161.5 112t185 41q52 0 108 -24.5t96 -67.5l9 2q-69 190 -162 305l-156 -120l-41 55l150 117q-63 65 -183 145l33 59q135 -61 238 -137l155 121l43 -55l-141 -109q187 -151 290 -354t103 -438q0 -266 -143 -424t-369 -158 q-149 0 -269.5 63t-192.5 185.5t-72 283.5zM354 528q0 -90 13 -174.5t39 -158t71 -118t103 -44.5q50 0 86.5 38t56 103.5t28.5 139t9 157.5q0 85 -11.5 167t-35.5 157t-67.5 120.5t-100.5 45.5q-51 0 -89 -36.5t-59.5 -100t-32 -137.5t-10.5 -159z" />
<glyph unicode="&#xf1;" horiz-adv-x="1191" d="M31 913v58l397 63l29 -20l-11 -125q171 158 308 158q121 0 214 -97.5t93 -230.5v-389q0 -77 2.5 -119.5t8 -75.5t19.5 -47t32.5 -21t52.5 -10v-57l-265 4l-264 -4v57q33 3 51 9.5t32.5 20.5t20.5 46.5t8.5 77t2.5 121.5v311q0 89 -42.5 159t-109.5 70q-76 0 -161 -57 v-522q0 -55 1 -86t6.5 -59.5t12.5 -41t23.5 -24t35.5 -16t52 -9.5v-57l-285 4l-260 -4v57q30 3 47 7t31.5 15.5t20.5 24.5t10.5 44.5t5 63.5t0.5 93v422v53t-2.5 40t-5 30.5t-9.5 21.5t-14 16t-21.5 10t-28.5 8.5t-38 6.5zM211 1227q51 135 108 198.5t127 63.5q58 0 174 -46 t171 -46q37 0 65 22t66 78l61 -33q-51 -134 -109.5 -198t-128.5 -64q-58 0 -173 45t-169 45q-39 0 -67 -21t-64 -75z" />
<glyph unicode="&#xf2;" horiz-adv-x="1114" d="M35 489q0 160 69 288t187 199t260 71q226 0 377 -155.5t151 -383.5q0 -248 -142 -400.5t-368 -152.5q-149 0 -270.5 66.5t-192.5 189.5t-71 278zM219 1475q0 43 37 79.5t82 36.5q43 0 80.5 -24t58.5 -62l160 -278l-47 -47l-285 157q-38 20 -62 58.5t-24 79.5zM354 530 q0 -85 13 -169t39 -159.5t71 -122t103 -46.5q50 0 86.5 38t56 103t28.5 138.5t9 158.5t-12 168.5t-36 159.5t-67.5 123t-99.5 47q-53 0 -91.5 -38.5t-59.5 -104t-30.5 -139t-9.5 -157.5z" />
<glyph unicode="&#xf3;" horiz-adv-x="1114" d="M35 489q0 160 69 288t187 199t260 71q226 0 377 -155.5t151 -383.5q0 -248 -142 -400.5t-368 -152.5q-149 0 -270.5 66.5t-192.5 189.5t-71 278zM354 530q0 -85 13 -169t39 -159.5t71 -122t103 -46.5q50 0 86.5 38t56 103t28.5 138.5t9 158.5t-12 168.5t-36 159.5 t-67.5 123t-99.5 47q-53 0 -91.5 -38.5t-59.5 -104t-30.5 -139t-9.5 -157.5zM403 1225l166 284q22 38 60.5 62t81.5 24q46 0 83 -37t37 -79q0 -43 -25 -82t-63 -58l-292 -163z" />
<glyph unicode="&#xf4;" horiz-adv-x="1114" d="M35 489q0 160 69 288t187 199t260 71q226 0 377 -155.5t151 -383.5q0 -248 -142 -400.5t-368 -152.5q-149 0 -270.5 66.5t-192.5 189.5t-71 278zM221 1200l293 305h100l293 -305l-35 -51l-309 127l-307 -127zM354 530q0 -85 13 -169t39 -159.5t71 -122t103 -46.5 q50 0 86.5 38t56 103t28.5 138.5t9 158.5t-12 168.5t-36 159.5t-67.5 123t-99.5 47q-53 0 -91.5 -38.5t-59.5 -104t-30.5 -139t-9.5 -157.5z" />
<glyph unicode="&#xf5;" horiz-adv-x="1114" d="M35 489q0 160 69 288t187 199t260 71q226 0 377 -155.5t151 -383.5q0 -248 -142 -400.5t-368 -152.5q-149 0 -270.5 66.5t-192.5 189.5t-71 278zM164 1221q51 135 108 198.5t127 63.5q58 0 173.5 -46t170.5 -46q37 0 65 22t66 78l62 -33q-51 -134 -109.5 -198t-128.5 -64 q-58 0 -173 45t-169 45q-39 0 -67 -21t-64 -75zM354 530q0 -85 13 -169t39 -159.5t71 -122t103 -46.5q50 0 86.5 38t56 103t28.5 138.5t9 158.5t-12 168.5t-36 159.5t-67.5 123t-99.5 47q-53 0 -91.5 -38.5t-59.5 -104t-30.5 -139t-9.5 -157.5z" />
<glyph unicode="&#xf6;" horiz-adv-x="1114" d="M35 489q0 160 69 288t187 199t260 71q226 0 377 -155.5t151 -383.5q0 -248 -142 -400.5t-368 -152.5q-149 0 -270.5 66.5t-192.5 189.5t-71 278zM164 1307q0 65 41 109t110 44q67 0 113.5 -44t46.5 -109t-48.5 -107.5t-111.5 -42.5t-107 42t-44 108zM354 530 q0 -85 13 -169t39 -159.5t71 -122t103 -46.5q50 0 86.5 38t56 103t28.5 138.5t9 158.5t-12 168.5t-36 159.5t-67.5 123t-99.5 47q-53 0 -91.5 -38.5t-59.5 -104t-30.5 -139t-9.5 -157.5zM623 1307q0 64 43.5 108.5t111.5 44.5q67 0 110.5 -43.5t43.5 -109.5t-45.5 -108 t-108.5 -42q-64 0 -109.5 42.5t-45.5 107.5z" />
<glyph unicode="&#xf7;" horiz-adv-x="1030" d="M59 432v141h914v-141h-914zM381 135q0 58 38.5 96.5t94.5 38.5t95.5 -39t39.5 -96q0 -51 -40.5 -91t-94.5 -40t-93.5 38.5t-39.5 92.5zM381 858q0 57 38.5 96t94.5 39t95.5 -39.5t39.5 -95.5q0 -51 -40.5 -91t-94.5 -40t-93.5 38.5t-39.5 92.5z" />
<glyph unicode="&#xf8;" horiz-adv-x="1114" d="M35 489q0 160 69 288t187 199t260 71q117 0 227 -50l174 349l70 -33l-176 -355q108 -71 170.5 -190t62.5 -260q0 -248 -142 -400.5t-368 -152.5q-106 0 -204 37l-183 -367l-71 39l180 363q-118 68 -187 188.5t-69 273.5zM354 530q0 -167 41 -297l301 603 q-56 133 -151 133q-53 0 -91.5 -38.5t-59.5 -104t-30.5 -139t-9.5 -157.5zM436 135q57 -102 144 -102q50 0 86.5 38t56 103t28.5 138.5t9 158.5q0 123 -29 258z" />
<glyph unicode="&#xf9;" horiz-adv-x="1204" d="M72 932v55l409 41l21 -16q-6 -29 -13.5 -222.5t-7.5 -320.5v-117q0 -113 35.5 -174t101.5 -61q42 0 92 16t85 41v594q0 101 -18 126.5t-101 37.5v55l407 41l23 -16q-4 -25 -8 -238t-4 -305v-193q0 -41 0.5 -64.5t2.5 -48.5t4.5 -37.5t10 -25.5t15 -18t22 -10t29 -7 t39.5 -4v-55l-388 -41l-32 10l-4 121q-64 -61 -140.5 -101t-150.5 -40q-141 0 -229.5 86.5t-88.5 237.5v462q0 53 -2.5 81.5t-7.5 50.5t-19 32t-31.5 16t-51.5 11zM283 1462q0 43 36.5 80t81.5 37q43 0 81 -24t59 -62l159 -279l-47 -47l-284 158q-38 20 -62 58t-24 79z" />
<glyph unicode="&#xfa;" horiz-adv-x="1204" d="M72 932v55l409 41l21 -16q-6 -29 -13.5 -222.5t-7.5 -320.5v-117q0 -113 35.5 -174t101.5 -61q42 0 92 16t85 41v594q0 101 -18 126.5t-101 37.5v55l407 41l23 -16q-4 -25 -8 -238t-4 -305v-193q0 -41 0.5 -64.5t2.5 -48.5t4.5 -37.5t10 -25.5t15 -18t22 -10t29 -7 t39.5 -4v-55l-388 -41l-32 10l-4 121q-64 -61 -140.5 -101t-150.5 -40q-141 0 -229.5 86.5t-88.5 237.5v462q0 53 -2.5 81.5t-7.5 50.5t-19 32t-31.5 16t-51.5 11zM465 1212l166 285q23 38 60.5 62t80.5 24q46 0 83.5 -37.5t37.5 -79.5t-25 -81t-63 -58l-293 -164z" />
<glyph unicode="&#xfb;" horiz-adv-x="1253" d="M61 932v55l410 41l21 -16q-6 -29 -13.5 -222.5t-7.5 -320.5v-117q0 -113 35.5 -174t101.5 -61q42 0 91 16t85 41v594q0 37 -1 57.5t-5.5 40.5t-11 28.5t-21 17t-32 12.5t-47.5 8v55l407 41l23 -16q-4 -25 -8.5 -240t-4.5 -303v-193q0 -41 0.5 -64.5t2.5 -48.5t4.5 -37.5 t10 -25.5t15 -18t22 -10t29 -7t39.5 -4v-55l-387 -41l-33 10l-4 121q-64 -61 -140 -101t-150 -40q-141 0 -229.5 86.5t-88.5 237.5v462q0 53 -2.5 81.5t-7.5 50.5t-19.5 32t-32 16t-51.5 11zM276 1206l293 305h101l293 -305l-35 -51l-310 127l-307 -127z" />
<glyph unicode="&#xfc;" horiz-adv-x="1193" d="M61 932v55l410 41l21 -16q-6 -29 -13.5 -222.5t-7.5 -320.5v-117q0 -113 35.5 -174t101.5 -61q42 0 91 16t85 41v594q0 37 -1 57.5t-5.5 40.5t-11 28.5t-21 17t-32 12.5t-47.5 8v55l407 41l23 -16q-4 -25 -8.5 -240t-4.5 -303v-193q0 -41 0.5 -64.5t2.5 -48.5t4.5 -37.5 t10 -25.5t15 -18t22 -10t29 -7t39.5 -4v-55l-387 -41l-33 10l-4 121q-64 -61 -140 -101t-150 -40q-141 0 -229.5 86.5t-88.5 237.5v462q0 53 -2.5 81.5t-7.5 50.5t-19.5 32t-32 16t-51.5 11zM231 1309q0 65 41.5 109t110.5 44q67 0 113.5 -44t46.5 -109t-48.5 -107.5 t-111.5 -42.5t-107.5 42t-44.5 108zM690 1309q0 64 44 108.5t112 44.5q67 0 110 -43.5t43 -109.5t-45 -108t-108 -42q-64 0 -110 42.5t-46 107.5z" />
<glyph unicode="&#xfd;" horiz-adv-x="1013" d="M0 946v58l242 -5l295 5v-58q-50 -5 -74 -11t-39 -20.5t-12.5 -38t16.5 -65.5l168 -492l152 429q22 62 28 96t-7 56.5t-41.5 31t-86.5 14.5v58l205 -5l147 5v-58q-61 -12 -88 -45.5t-69 -150.5l-316 -863q-53 -141 -130.5 -222t-168.5 -81q-65 0 -112.5 40t-47.5 100 q0 45 35 81.5t80 44.5l156 -86q55 15 100 127l27 80l-312 791q-45 114 -68 143t-79 41zM438 1225l166 284q23 38 60.5 62t80.5 24q46 0 83.5 -37t37.5 -79q0 -43 -25 -82t-63 -58l-293 -163z" />
<glyph unicode="&#xfe;" horiz-adv-x="1157" d="M14 -350q31 2 49.5 5.5t34 14t23 23.5t13 41t6.5 59.5t1 85.5v1254q0 115 -20 149t-105 47v53l400 52l24 -23l-2 -512q135 148 289 148q121 0 212 -75t136 -194.5t45 -263.5q0 -122 -38 -227t-102.5 -177.5t-151 -113.5t-181.5 -41q-130 0 -207 39v-127q0 -126 29.5 -164 t138.5 -53v-58l-317 5l-277 -5v58zM440 117q52 -74 160 -74q55 0 96 37t64 101t34 140t11 164q0 98 -24 186t-73.5 147t-113.5 59q-76 0 -154 -54v-706z" />
<glyph unicode="&#xff;" horiz-adv-x="1013" d="M0 946v58l242 -5l295 5v-58q-50 -5 -74 -11t-39 -20.5t-12.5 -38t16.5 -65.5l168 -492l152 429q22 62 28 96t-7 56.5t-41.5 31t-86.5 14.5v58l205 -5l147 5v-58q-61 -12 -88 -45.5t-69 -150.5l-316 -863q-53 -141 -130.5 -222t-168.5 -81q-65 0 -112.5 40t-47.5 100 q0 45 35 81.5t80 44.5l156 -86q55 15 100 127l27 80l-312 791q-45 114 -68 143t-79 41zM125 1307q0 65 41 109t110 44q67 0 113.5 -44t46.5 -109t-48.5 -107.5t-111.5 -42.5t-107 42t-44 108zM584 1307q0 64 43.5 108.5t111.5 44.5q67 0 110.5 -43.5t43.5 -109.5t-45.5 -108 t-108.5 -42q-64 0 -109.5 42.5t-45.5 107.5z" />
<glyph unicode="&#x152;" horiz-adv-x="1990" d="M80 672q0 151 54 284.5t147 228t222.5 149.5t276.5 55q89 0 217 -31h547l338 12l10 -401h-86q-27 78 -43.5 122.5t-37 85t-36.5 58t-41 31.5t-51 17t-67 3h-219v-569h104q98 0 131.5 34t52.5 156h78v-481h-75q-12 73 -24 113.5t-33 67.5t-50.5 35.5t-79.5 8.5h-104v-385 q0 -111 32 -152.5t136 -41.5h73q38 0 64 4.5t49.5 20t40 35t36 59.5t35.5 84.5t40 117.5h92l-21 -393h-876q-4 -1 -34.5 -11.5t-39.5 -13t-35.5 -10t-42 -10t-38 -5.5t-42.5 -3q-149 0 -277.5 51t-222 143.5t-147 229.5t-53.5 301zM424 678q0 -123 19 -233.5t59 -207 t112 -153.5t168 -57q127 0 175.5 75.5t48.5 237.5v707q0 262 -226 262q-99 0 -171 -53t-111 -146t-56.5 -199.5t-17.5 -232.5z" />
<glyph unicode="&#x153;" horiz-adv-x="1894" d="M88 500q0 122 42 225.5t113.5 173t167.5 109t203 39.5q233 0 353 -183q117 183 340 183q186 0 302.5 -118.5t116.5 -314.5q0 -35 -8 -59h-608v-43q0 -190 74.5 -303t197.5 -113q74 0 161 31.5t153 77.5l39 -55q-87 -85 -198.5 -140t-227.5 -55q-245 0 -351 151 q-111 -151 -333 -151q-112 0 -210 38.5t-170.5 108t-114.5 172.5t-42 226zM408 526q0 -87 12 -169t37.5 -157t72.5 -121t109 -46q188 0 188 442q0 85 -12.5 168t-37 158t-69.5 121.5t-104 46.5q-57 0 -97 -38t-60.5 -104.5t-29.5 -139.5t-9 -161zM1114 631h297q2 10 2 31 q0 60 -6.5 113t-20.5 100t-40 74.5t-60 27.5q-43 0 -75.5 -30.5t-52 -82.5t-30 -109.5t-14.5 -123.5z" />
<glyph unicode="&#x178;" horiz-adv-x="1097" d="M-43 1298v60h573v-60q-65 -2 -92.5 -11.5t-27.5 -33.5q0 -20 28 -71l244 -455l180 408q27 69 27 106q0 25 -33.5 39t-114.5 18v60h402v-60q-73 -13 -103.5 -41t-76.5 -122l-238 -480v-321q0 -51 0.5 -82t3.5 -62t6.5 -47t13 -32t18.5 -23t28 -13.5t36.5 -9.5t47.5 -6v-59 h-611v59q40 5 61 8.5t41 16t27.5 27t14 48t7.5 71t1 104.5v280l-295 537q-51 91 -78.5 115t-89.5 32zM193 1661q0 65 41.5 109.5t109.5 44.5q67 0 113.5 -44.5t46.5 -109.5t-48.5 -107.5t-111.5 -42.5t-107 42t-44 108zM651 1661q0 64 44 109t112 45q67 0 110.5 -44 t43.5 -110t-45.5 -108t-108.5 -42q-64 0 -110 42.5t-46 107.5z" />
<glyph unicode="&#x2c6;" horiz-adv-x="1431" d="M158 1206l293 305h100l293 -305l-35 -51l-309 127l-307 -127z" />
<glyph unicode="&#x2dc;" horiz-adv-x="1026" d="M147 1171q51 135 108.5 199t127.5 64q58 0 173.5 -46.5t170.5 -46.5q37 0 65 22.5t66 78.5l62 -33q-51 -134 -109.5 -198t-128.5 -64q-58 0 -173 45t-169 45q-39 0 -67 -21t-64 -75z" />
<glyph unicode="&#x2000;" horiz-adv-x="973" />
<glyph unicode="&#x2001;" horiz-adv-x="1946" />
<glyph unicode="&#x2002;" horiz-adv-x="973" />
<glyph unicode="&#x2003;" horiz-adv-x="1946" />
<glyph unicode="&#x2004;" horiz-adv-x="648" />
<glyph unicode="&#x2005;" horiz-adv-x="486" />
<glyph unicode="&#x2006;" horiz-adv-x="324" />
<glyph unicode="&#x2007;" horiz-adv-x="324" />
<glyph unicode="&#x2008;" horiz-adv-x="243" />
<glyph unicode="&#x2009;" horiz-adv-x="389" />
<glyph unicode="&#x200a;" horiz-adv-x="108" />
<glyph unicode="&#x2010;" horiz-adv-x="733" d="M76 455v204h567v-204h-567z" />
<glyph unicode="&#x2011;" horiz-adv-x="733" d="M76 455v204h567v-204h-567z" />
<glyph unicode="&#x2012;" horiz-adv-x="733" d="M76 455v204h567v-204h-567z" />
<glyph unicode="&#x2013;" horiz-adv-x="1024" d="M0 449v110h1024v-110h-1024z" />
<glyph unicode="&#x2014;" horiz-adv-x="2048" d="M0 449v110h2048v-110h-2048z" />
<glyph unicode="&#x2018;" horiz-adv-x="462" d="M90 1153q0 104 73 200.5t185 164.5l43 -60q-122 -99 -133 -198l107 -37q41 -44 41 -107q0 -55 -45.5 -97t-102.5 -42q-67 0 -117.5 53.5t-50.5 122.5z" />
<glyph unicode="&#x2019;" horiz-adv-x="462" d="M84 1358q0 55 45 97t102 42q67 0 117.5 -53.5t50.5 -122.5q0 -104 -73 -200.5t-185 -164.5l-43 60q122 99 133 198l-106 37q-41 44 -41 107z" />
<glyph unicode="&#x201a;" horiz-adv-x="487" d="M104 104q0 55 45.5 97.5t102.5 42.5q67 0 117.5 -53.5t50.5 -122.5q0 -104 -73 -200.5t-185 -164.5l-43 59q122 99 133 199l-107 37q-41 44 -41 106z" />
<glyph unicode="&#x201c;" horiz-adv-x="858" d="M90 1153q0 104 73 200.5t185 164.5l43 -60q-122 -99 -133 -198l107 -37q41 -44 41 -107q0 -55 -45.5 -97t-102.5 -42q-67 0 -117.5 53.5t-50.5 122.5zM485 1153q0 104 73 200.5t185 164.5l43 -60q-122 -99 -133 -198l107 -37q41 -44 41 -107q0 -55 -45.5 -97t-102.5 -42 q-67 0 -117.5 53.5t-50.5 122.5z" />
<glyph unicode="&#x201d;" horiz-adv-x="858" d="M84 1358q0 55 45 97t102 42q67 0 117.5 -53.5t50.5 -122.5q0 -104 -73 -200.5t-185 -164.5l-43 60q122 99 133 198l-106 37q-41 44 -41 107zM479 1358q0 55 45.5 97t102.5 42q67 0 117.5 -53.5t50.5 -122.5q0 -104 -73 -200.5t-185 -164.5l-43 60q122 99 133 198l-107 37 q-41 44 -41 107z" />
<glyph unicode="&#x201e;" horiz-adv-x="919" d="M104 133q0 55 45.5 97t102.5 42q67 0 117.5 -53.5t50.5 -122.5q0 -104 -72.5 -200t-185.5 -164l-43 59q122 99 133 199l-107 37q-41 44 -41 106zM520 133q0 55 45.5 97t102.5 42q67 0 117.5 -53.5t50.5 -122.5q0 -104 -72.5 -200t-185.5 -164l-43 59q122 99 133 199 l-107 37q-41 44 -41 106z" />
<glyph unicode="&#x2022;" horiz-adv-x="1007" d="M209 524q0 116 84 200.5t199 84.5q116 0 199 -84.5t83 -200.5t-82.5 -199t-199.5 -83q-116 0 -199.5 83.5t-83.5 198.5z" />
<glyph unicode="&#x2026;" horiz-adv-x="1892" d="M139 129q0 77 49.5 124.5t124.5 47.5q74 0 126.5 -49.5t52.5 -122.5q0 -70 -53 -118t-126 -48t-123.5 47t-50.5 119zM743 129q0 77 50 124.5t125 47.5q74 0 126 -49.5t52 -122.5q0 -70 -52.5 -118t-125.5 -48t-124 47t-51 119zM1346 129q0 77 49.5 124.5t124.5 47.5 q74 0 126 -49.5t52 -122.5q0 -70 -52.5 -118t-125.5 -48t-123.5 47t-50.5 119z" />
<glyph unicode="&#x202f;" horiz-adv-x="389" />
<glyph unicode="&#x2039;" horiz-adv-x="667" d="M86 416v102l473 393l47 -34l-262 -412l262 -408l-45 -32z" />
<glyph unicode="&#x203a;" horiz-adv-x="667" d="M61 57l263 408l-263 412l48 34l473 -393v-102l-476 -391z" />
<glyph unicode="&#x205f;" horiz-adv-x="486" />
<glyph unicode="&#x20ac;" horiz-adv-x="1120" d="M35 360v91h108q-2 25 -2 77q0 49 2 74h-108v90h121q39 202 172.5 324.5t333.5 122.5q82 0 141.5 -13t130.5 -43l57 58h60l12 -400l-68 -4l-96 250q-97 80 -221 80q-58 0 -103 -28.5t-74 -80.5t-45.5 -118t-21.5 -148h422v-90h-424q0 -69 10 -151h353v-91h-334 q35 -124 104 -196t176 -72q86 0 156 31.5t139 95.5l45 -61q-209 -203 -452 -203q-189 0 -313 102t-160 303h-121z" />
<glyph unicode="&#x2122;" horiz-adv-x="1667" d="M43 1149l2 211h606l2 -211h-57q-20 107 -39 129t-92 22h-33v-436q0 -36 0.5 -54.5t4.5 -36.5t8.5 -24.5t17 -13t26 -8.5t39.5 -4v-51h-360v51q27 2 40.5 4t26.5 8.5t17.5 13t8.5 24.5t4.5 36.5t0.5 54.5v436h-41q-26 0 -39.5 -1t-28.5 -6.5t-21 -13.5t-14 -27 t-12.5 -41.5t-11.5 -61.5h-55zM698 1313v47h281l199 -447l114 289q25 59 45 158h285v-51q-59 -4 -70.5 -23t-11.5 -104v-328q0 -84 12 -104.5t70 -26.5v-51h-330v51q57 4 68.5 24.5t11.5 102.5v383l-217 -567h-33l-274 614v-416q0 -66 6.5 -92.5t24 -36t61.5 -12.5v-51h-240 v51q57 4 68.5 25.5t11.5 115.5v322q0 85 -12 104t-70 23z" />
<glyph unicode="&#xe000;" horiz-adv-x="1003" d="M0 0v1004h1004v-1004h-1004z" />
</font>
</defs>
</svg>
