<?xml version="1.0" standalone="no"?>
<!DOCTYPE svg PUBLIC "-//W3C//DTD SVG 1.1//EN" "http://www.w3.org/Graphics/SVG/1.1/DTD/svg11.dtd" >
<svg xmlns="http://www.w3.org/2000/svg" xmlns:xlink="http://www.w3.org/1999/xlink" version="1.1">
<metadata>
Created by FontForge 20170731 at Mon Jul 23 03:38:14 2007
 By Aleksey,,,
Copyright (c) 2007 by Leftloft / Molotro. All rights reserved.
</metadata>
<defs>
<font id="SolferinoDisplay-Regular" horiz-adv-x="400" >
  <font-face 
    font-family="Solferino Display Rg"
    font-weight="400"
    font-stretch="normal"
    units-per-em="1000"
    panose-1="2 0 5 3 8 0 0 2 0 3"
    ascent="759"
    descent="-241"
    x-height="462"
    cap-height="667"
    bbox="-8 -241 1000 881"
    underline-thickness="50"
    underline-position="-200"
    unicode-range="U+0020-FB02"
  />
<missing-glyph horiz-adv-x="496" 
 />
    <glyph glyph-name="fi" unicode="fi" horiz-adv-x="601" 
d="M189 435v-312q0 -64 19.5 -81.5t89.5 -21.5v-20l-157 2l-128 -2v20q48 3 61 23t13 86v306h-65v27h65v44q0 95 41.5 151.5t111.5 56.5q49 0 86 -26t37 -67q0 -22 -14 -36.5t-34 -14.5q-22 0 -35.5 14t-15.5 37q-4 43 -9 55t-21 12q-45 0 -45 -122v-104h123v-29zM519 472
v-348q0 -61 11.5 -79.5t59.5 -25.5v-19l-119 2l-128 -2v19q50 7 62 25t12 82v228q0 51 -12.5 65t-61.5 18v19l173 20zM401 623q0 25 19 43.5t45 18.5t45 -18.5t19 -43.5t-19 -43.5t-45 -18.5t-45 18.5t-19 43.5z" />
    <glyph glyph-name="fl" unicode="fl" horiz-adv-x="626" 
d="M189 435v-312q0 -64 19.5 -81.5t89.5 -21.5v-20l-157 2l-128 -2v20q48 3 61 23t13 86v306h-65v27h65v44q0 95 41.5 151.5t111.5 56.5q49 0 86 -26t37 -67q0 -22 -14 -36.5t-34 -14.5q-22 0 -35.5 14t-15.5 37q-4 43 -9 55t-21 12q-45 0 -45 -122v-104h123v-29zM439 130
v453q0 45 -13 58.5t-62 23.5v17l179 24l6 -7l-7 -186v-389q0 -58 13 -77.5t57 -26.5v-20l-124 2l-120 -2v20q46 5 58.5 25t12.5 85z" />
    <glyph glyph-name=".notdef" horiz-adv-x="496" 
 />
    <glyph glyph-name=".null" horiz-adv-x="0" 
 />
    <glyph glyph-name="nonmarkingreturn" horiz-adv-x="333" 
 />
    <glyph glyph-name="space" unicode=" " horiz-adv-x="219" 
 />
    <glyph glyph-name="exclam" unicode="!" horiz-adv-x="250" 
d="M126 683q30 0 47 -12t17 -48q0 -15 -22.5 -191.5t-25.5 -215.5q0 -11 -9 -11h-12q-9 0 -9 11q-3 40 -26 216t-23 191q0 36 16.5 48t46.5 12zM59 48q0 25 19 43.5t45 18.5t45 -18.5t19 -43.5q0 -26 -19 -44.5t-45 -18.5t-45 18.5t-19 44.5z" />
    <glyph glyph-name="quotedbl" unicode="&#x22;" horiz-adv-x="325" 
d="M256 460h-25q-3 0 -6 7q-3 22 -10.5 76.5t-12.5 92.5t-5 44q0 18 11 25.5t36 7.5q26 0 36.5 -7t10.5 -25q0 -6 -5 -44t-12.5 -93.5t-10.5 -76.5q-1 -7 -7 -7zM93 460h-25q-3 0 -6 7q-3 22 -10.5 76.5t-12.5 92.5t-5 44q0 18 11 25.5t36 7.5q26 0 36.5 -7t10.5 -25
q0 -6 -5 -44t-12.5 -93.5t-10.5 -76.5q-1 -7 -7 -7z" />
    <glyph glyph-name="numbersign" unicode="#" horiz-adv-x="533" 
d="M507 424h-107l-29 -203h108v-29h-111l-28 -195h-30l28 195h-179l-28 -195h-30l28 195h-102v29h106l29 203h-107v30h111l25 173h30l-25 -173h179l25 173h30l-25 -173h102v-30zM371 424h-180l-29 -203h180z" />
    <glyph glyph-name="dollar" unicode="$" horiz-adv-x="532" 
d="M285 -102h-28v84q-75 5 -127 47q-13 11 -20 11q-16 0 -17 -43h-27l-1 213h28q8 -90 50 -142.5t114 -56.5v255l-16 6q-93 34 -135 78.5t-42 115.5q0 80 54.5 130.5t138.5 52.5v100h28v-101q58 -6 108 -43q9 -7 18 -7q16 0 19 41h25v-206h-25q-12 87 -46 132.5t-99 52.5
v-242q101 -38 144 -81.5t43 -117.5q0 -83 -53 -136t-134 -58v-85zM143 509q0 -43 24.5 -69.5t89.5 -52.5v232q-52 -2 -83 -32t-31 -78zM392 131q0 43 -22.5 69.5t-84.5 53.5v-242q50 5 78.5 37t28.5 82z" />
    <glyph glyph-name="percent" unicode="%" horiz-adv-x="734" 
d="M565 654l-362 -699l-28 14l364 698zM323 425q0 -69 -42 -115t-105 -46q-66 0 -106 45t-40 116q0 69 41 113.5t105 44.5t105.5 -44.5t41.5 -113.5zM256 425q0 134 -80 134q-78 0 -78 -134q0 -137 78 -137q80 0 80 137zM714 186q0 -69 -42 -115t-105 -46q-66 0 -106 45
t-40 116q0 69 41 113.5t105 44.5t105.5 -44.5t41.5 -113.5zM647 186q0 134 -80 134q-45 0 -61.5 -35.5t-16.5 -98.5q0 -137 78 -137q80 0 80 137z" />
    <glyph glyph-name="ampersand" unicode="&#x26;" horiz-adv-x="677" 
d="M561 269q-43 -92 -102 -157q62 -73 105 -73q54 0 78 67l20 -5q-16 -57 -57 -85t-97 -28q-72 0 -125 64q-73 -67 -164 -67q-87 0 -137 43.5t-50 119.5q0 35 14.5 66.5t42 57t50 42t54.5 35.5q-47 104 -47 174q0 63 49 100t114 37q59 0 99.5 -34t40.5 -84q0 -24 -7.5 -43.5
t-26 -38t-31.5 -29t-44 -31.5t-44 -31q72 -148 143 -233q64 72 88 132q12 29 1 40.5t-54 12.5v22h188v-22q-42 -3 -64 -12.5t-37 -39.5zM251 22q51 0 111 52q-84 100 -156 251q-66 -57 -66 -160q0 -60 30 -101.5t81 -41.5zM243 540q0 -54 43 -145q42 33 61 65t19 75
q0 41 -14 71.5t-42 30.5q-67 0 -67 -97z" />
    <glyph glyph-name="quotesingle" unicode="'" horiz-adv-x="161" 
d="M93 460h-25q-3 0 -6 7q-3 22 -10.5 76.5t-12.5 92.5t-5 44q0 18 11 25.5t36 7.5q26 0 36.5 -7t10.5 -25q0 -6 -5 -44t-12.5 -93.5t-10.5 -76.5q-1 -7 -7 -7z" />
    <glyph glyph-name="parenleft" unicode="(" horiz-adv-x="387" 
d="M312 -71l-16 -20q-124 90 -180.5 188.5t-56.5 230.5q0 131 58 232t179 188l16 -21q-86 -69 -116 -159.5t-30 -238.5q0 -149 30 -240t116 -160z" />
    <glyph glyph-name="parenright" unicode=")" horiz-adv-x="395" 
d="M90 -91l-16 20q86 69 116 160t30 240q0 148 -30 238.5t-116 159.5l16 21q121 -87 179 -188t58 -232q0 -132 -56.5 -230.5t-180.5 -188.5z" />
    <glyph glyph-name="asterisk" unicode="*" 
d="M174 279q0 6 17 52t20 94q-41 -26 -72 -63t-37 -40q-18 -10 -36.5 -4.5t-28.5 22.5q-11 17 -6 36.5t23 29.5q5 3 53 11t92 30q-43 22 -90.5 30.5t-53.5 12.5q-18 10 -22.5 29.5t5.5 36.5t29 22.5t37 -4.5q7 -4 19.5 -21t35 -41t53.5 -44q-3 49 -19.5 95.5t-16.5 52.5
q0 21 14 34.5t35 13.5q20 0 34.5 -13.5t14.5 -34.5q0 -6 -18 -52.5t-20 -96.5q30 20 53 43t36 40t21 21q18 10 36.5 5t28.5 -23q10 -17 5.5 -36.5t-22.5 -29.5q-5 -3 -53.5 -10.5t-91.5 -29.5q43 -23 91 -32t53 -12q18 -10 22.5 -29.5t-5.5 -36.5t-29 -22.5t-37 4.5
q-6 3 -36.5 41t-71.5 65q3 -48 19.5 -94t16.5 -52q0 -21 -14 -34.5t-35 -13.5q-20 0 -34.5 13.5t-14.5 34.5z" />
    <glyph glyph-name="plus" unicode="+" horiz-adv-x="516" 
d="M451 271h-178v-179h-33v179h-179v31h179v178h33v-178h178v-31z" />
    <glyph glyph-name="comma" unicode="," horiz-adv-x="218" 
d="M47 -119l-6 25q31 9 49.5 25t18.5 33q0 22 -15 26q-43 12 -43 53q0 23 15.5 39.5t40.5 16.5q26 0 43.5 -19t17.5 -47q0 -62 -31.5 -102t-89.5 -50z" />
    <glyph glyph-name="hyphen" unicode="-" horiz-adv-x="300" 
d="M271 252l-239 -16q-5 -2 -5 4l-2 25q0 5 4 6l239 16q5 2 5 -4l2 -25q0 -5 -4 -6z" />
    <glyph glyph-name="period" unicode="." horiz-adv-x="228" 
d="M51 48q0 26 18.5 44t44.5 18t45 -18.5t19 -43.5q0 -26 -19 -44.5t-45 -18.5t-44.5 18.5t-18.5 44.5z" />
    <glyph glyph-name="slash" unicode="/" horiz-adv-x="434" 
d="M413 688l-365 -700l-24 11l365 700z" />
    <glyph glyph-name="zero" unicode="0" horiz-adv-x="516" 
d="M485 318q0 -136 -66 -234.5t-163 -98.5q-100 0 -162.5 96t-62.5 237q0 137 64 234t162 97q99 0 163.5 -97t64.5 -234zM378 318q0 303 -121 303q-119 0 -119 -303q0 -305 119 -305q121 0 121 305z" />
    <glyph glyph-name="one" unicode="1" horiz-adv-x="377" 
d="M351 0h-304v22q71 2 88 13.5t17 47.5v317q0 79 7 137q-61 0 -119 29l4 19q40 -8 67 -8q85 0 130 78l23 -7q-15 -81 -15 -156v-410q0 -35 16 -45.5t86 -14.5v-22z" />
    <glyph glyph-name="two" unicode="2" horiz-adv-x="484" 
d="M448 181l-41 -181h-384v20q116 110 168 165q117 124 117 291q0 64 -25.5 104.5t-71.5 40.5q-39 0 -54.5 -25.5t-24.5 -102.5q-2 -25 -17.5 -41.5t-39.5 -16.5q-21 0 -35.5 19.5t-14.5 43.5q0 60 62.5 106t130.5 46q86 0 142.5 -50.5t56.5 -136.5q0 -80 -50 -150
t-170 -172l-67 -58h192q40 0 64.5 23t38.5 77z" />
    <glyph glyph-name="three" unicode="3" horiz-adv-x="497" 
d="M460 182q0 -92 -71 -144.5t-173 -52.5q-75 0 -136 35t-61 91q0 28 16 47t41 19q21 0 35.5 -13.5t17.5 -35.5q10 -72 27 -93t62 -21q69 0 101.5 44.5t32.5 121.5q0 61 -27 98.5t-75 37.5q-29 0 -79 -11l-6 29q157 29 157 164q0 123 -100 123q-48 0 -63.5 -20t-23.5 -92
q-2 -20 -17 -35t-36 -15q-22 0 -37 18t-15 40q0 57 62.5 94.5t135.5 37.5q85 0 141 -38t56 -113q0 -55 -40 -96.5t-111 -60.5v-2q8 2 28 2q59 0 108.5 -43.5t49.5 -115.5z" />
    <glyph glyph-name="four" unicode="4" horiz-adv-x="519" 
d="M486 102h-16q-3 50 -14 65t-40 15h-46v-101q0 -39 14 -48t73 -11v-22h-278v22q61 2 78.5 11t17.5 43v106h-257l-6 26l329 440h29v-432h46q29 0 39 15.5t13 64.5h18v-194zM275 216v295l-218 -295h218z" />
    <glyph glyph-name="five" unicode="5" horiz-adv-x="472" 
d="M426 682l18 -11q-36 -71 -76 -104.5t-94 -33.5q-81 0 -159 22l-11 -176l-4 -28q50 69 139 69q84 0 137.5 -58.5t53.5 -145.5q0 -98 -68.5 -164.5t-171.5 -66.5q-58 0 -111.5 34t-53.5 82q0 26 15 45t36 19t34.5 -13t16.5 -34q9 -60 22 -81.5t46 -21.5q62 0 94 56t32 135
t-28.5 129t-86.5 50q-67 0 -113 -80l-14 -29l-27 10q17 42 20 92l14 260l10 6q35 -8 93.5 -16t89.5 -8q57 0 88.5 14t58.5 48z" />
    <glyph glyph-name="six" unicode="6" horiz-adv-x="494" 
d="M455 535q0 -22 -14 -39t-36 -17q-20 0 -34.5 14t-17.5 36q-9 59 -22.5 75.5t-48.5 16.5q-31 0 -54.5 -15.5t-38 -41t-24 -66t-13.5 -81.5t-7 -97h4q41 92 135 92q71 0 124 -55.5t53 -146.5q0 -89 -58.5 -156.5t-145.5 -67.5q-94 0 -156.5 81t-62.5 207q0 103 28 186.5
t85.5 136t135.5 52.5q62 0 115 -33t53 -81zM354 210q0 75 -23 123t-69 48q-53 0 -85 -52.5t-32 -125.5q0 -76 29 -132.5t83 -56.5q97 0 97 196z" />
    <glyph glyph-name="seven" unicode="7" horiz-adv-x="450" 
d="M450 636l11 -16q-37 -47 -68.5 -89.5t-50 -68.5t-41.5 -63.5t-30 -49t-29.5 -51.5t-26.5 -47q-30 -55 -30 -111q0 -21 27.5 -49.5t27.5 -48.5q0 -23 -17 -40t-39 -17q-27 0 -45.5 20t-18.5 50q0 71 47 167q80 160 199 322h-220q-42 0 -59 -16t-35 -79l-22 2l37 225l20 -1
q2 -29 9.5 -37.5t37.5 -8.5h282z" />
    <glyph glyph-name="eight" unicode="8" horiz-adv-x="500" 
d="M464 162q0 -79 -62.5 -129t-152.5 -50q-88 0 -149.5 45.5t-61.5 118.5q0 53 38.5 96.5t92.5 65.5q-60 35 -88.5 76t-28.5 96q0 73 61.5 120.5t141.5 47.5q77 0 133 -43t56 -110q0 -50 -33 -91t-82 -65q69 -37 102 -78t33 -100zM379 493q0 59 -33.5 95t-90.5 36
q-48 0 -79.5 -31.5t-31.5 -82.5q0 -43 39.5 -80.5t124.5 -78.5q31 19 51 58.5t20 83.5zM362 130q0 49 -42.5 89t-129.5 80q-38 -23 -60.5 -62.5t-22.5 -85.5q0 -61 39.5 -102t105.5 -41q50 0 80 32t30 90z" />
    <glyph glyph-name="nine" unicode="9" horiz-adv-x="493" 
d="M34 100q0 22 14 39t36 17q20 0 34.5 -14t17.5 -36q9 -59 22.5 -75.5t48.5 -16.5q31 0 54.5 15.5t38 41t24 66t13.5 81.5t7 97h-4q-41 -92 -135 -92q-71 0 -124 55.5t-53 146.5q0 89 58.5 156.5t145.5 67.5q94 0 156.5 -81t62.5 -207q0 -103 -28 -186.5t-85.5 -136
t-135.5 -52.5q-62 0 -115 33t-53 81zM135 425q0 -75 23 -123t69 -48q53 0 85 52.5t32 125.5q0 76 -29 132.5t-83 56.5q-97 0 -97 -196z" />
    <glyph glyph-name="colon" unicode=":" horiz-adv-x="228" 
d="M51 398q0 26 18.5 44t44.5 18t45 -18.5t19 -43.5q0 -26 -19 -44.5t-45 -18.5t-44.5 18.5t-18.5 44.5zM51 48q0 26 18.5 44t44.5 18t45 -18.5t19 -43.5q0 -26 -19 -44.5t-45 -18.5t-44.5 18.5t-18.5 44.5z" />
    <glyph glyph-name="semicolon" unicode=";" horiz-adv-x="218" 
d="M47 -119l-6 25q31 9 49.5 25t18.5 33q0 22 -15 26q-43 12 -43 53q0 23 15.5 39.5t40.5 16.5q26 0 43.5 -19t17.5 -47q0 -62 -31.5 -102t-89.5 -50zM49 398q0 26 18.5 44t44.5 18t45 -18.5t19 -43.5q0 -26 -19 -44.5t-45 -18.5t-44.5 18.5t-18.5 44.5z" />
    <glyph glyph-name="less" unicode="&#x3c;" horiz-adv-x="516" 
d="M456 102l-394 188v12l394 188v-37l-337 -157l337 -157v-37z" />
    <glyph glyph-name="equal" unicode="=" horiz-adv-x="516" 
d="M441 352h-364v31h364v-31zM441 187h-364v31h364v-31z" />
    <glyph glyph-name="greater" unicode="&#x3e;" horiz-adv-x="505" 
d="M449 290l-394 -188v37l337 157l-337 157v37l394 -188v-12z" />
    <glyph glyph-name="question" unicode="?" horiz-adv-x="491" 
d="M220 241q0 -14 7 -33l-28 -6q-17 23 -17 48q0 30 15 55t36 44.5t42 41t36 55t15 76.5q0 60 -24 95.5t-69 35.5q-41 0 -56.5 -25.5t-24.5 -101.5q-3 -24 -18 -39t-37 -15t-38 20t-16 44q0 58 60.5 102.5t130.5 44.5q89 0 145 -46t56 -133q0 -39 -16 -71.5t-40 -53
t-51.5 -40t-51.5 -33t-40 -31t-16 -34.5zM158 48q0 25 18.5 43.5t44.5 18.5t45 -18.5t19 -43.5q0 -26 -19 -44.5t-45 -18.5t-44.5 18.5t-18.5 44.5z" />
    <glyph glyph-name="at" unicode="@" horiz-adv-x="970" 
d="M409 18q-71 0 -109 53t-38 133q0 106 62 185.5t161 79.5q68 0 119 -67l46 66l45 -6q-21 -64 -40 -193q-17 -135 -17 -170q0 -34 18 -51.5t47 -17.5q67 1 123 75t56 202q1 166 -103.5 265t-275.5 99q-176 0 -295.5 -128.5t-119.5 -310.5q0 -189 106.5 -304.5t288.5 -115.5
q92 0 161.5 19t142.5 60l14 -24q-146 -83 -320 -83q-190 0 -307.5 124.5t-117.5 322.5q0 125 60 232t163.5 170.5t225.5 63.5q183 0 296 -107t113 -284q0 -145 -68.5 -224t-157.5 -79q-55 0 -95 31t-41 83q-21 -39 -61.5 -69t-81.5 -30zM446 64q38 0 70 46.5t45 102.5
l19 125q-1 48 -22.5 74.5t-58.5 26.5q-38 0 -69.5 -38t-47.5 -92.5t-17 -109.5q-1 -61 19 -98t62 -37z" />
    <glyph glyph-name="A" unicode="A" horiz-adv-x="661" 
d="M438 133l-28 76h-240l-22 -60q-26 -76 -15 -97.5t76 -29.5v-22h-209v22q48 7 68 29t48 98l192 533h35l205 -543q28 -74 46 -92.5t67 -24.5v-22h-278v22q60 6 70 26.5t-15 84.5zM290 545l-110 -307h220z" />
    <glyph glyph-name="B" unicode="B" horiz-adv-x="587" 
d="M522 508q0 -60 -38.5 -100t-100.5 -54v-2q81 -11 128.5 -55t47.5 -110q0 -92 -64.5 -139.5t-169.5 -47.5h-301v22q61 5 76.5 28.5t15.5 105.5v388q0 59 -16.5 77.5t-75.5 23.5v22h284q87 0 150.5 -42.5t63.5 -116.5zM447 185q0 150 -160 150h-64v-227q0 -42 18 -61
t65 -19q141 0 141 157zM223 363h68q121 0 121 137q0 66 -33 102.5t-90 36.5h-66v-276z" />
    <glyph glyph-name="C" unicode="C" horiz-adv-x="594" 
d="M542 135l23 -18q-91 -136 -227 -136q-138 0 -216.5 97.5t-78.5 246.5t81.5 251.5t208.5 102.5q86 0 159 -49.5t73 -114.5q0 -26 -15.5 -44.5t-40.5 -18.5q-23 0 -40.5 18t-21.5 43q-13 82 -33.5 108.5t-82.5 26.5q-58 0 -96 -40t-53 -101t-15 -142q0 -64 11 -122t33 -108
t61 -80t91 -30q105 0 179 110z" />
    <glyph glyph-name="D" unicode="D" horiz-adv-x="689" 
d="M21 645v22h290q150 0 242 -89.5t92 -235.5q0 -144 -89.5 -243t-234.5 -99h-297v23q58 6 74.5 31t16.5 104v353q0 80 -16.5 104.5t-77.5 29.5zM522 328q0 80 -22 148.5t-72.5 115t-120.5 46.5h-85v-477q0 -76 15 -104t66 -28h19q70 0 116.5 43.5t65 108t18.5 147.5z" />
    <glyph glyph-name="E" unicode="E" horiz-adv-x="569" 
d="M399 444h24v-228h-24q-9 66 -26 88.5t-63 22.5h-86v-188q0 -56 18 -83t66 -27h58q63 0 91 39t42 133h26v-201h-498v23q57 5 73.5 29.5t16.5 103.5v387q0 59 -17 77t-75 24v23h491l1 -191h-26q-14 91 -42.5 126.5t-95.5 35.5h-129v-284h86q47 0 63.5 17t25.5 73z" />
    <glyph glyph-name="F" unicode="F" horiz-adv-x="537" 
d="M391 437h24v-228h-24q-6 54 -26.5 77.5t-62.5 23.5h-79v-153q0 -80 22.5 -106t98.5 -28v-23h-318v23q57 5 73.5 30t16.5 104v398q0 49 -18 66t-71 23v23h479v-201h-25q-18 102 -50 136.5t-111 34.5h-97v-300h79q44 0 64 21t25 79z" />
    <glyph glyph-name="G" unicode="G" horiz-adv-x="672" 
d="M488 61v58q0 82 -17 104.5t-87 27.5v23h267v-23q-43 -4 -52.5 -25.5t-9.5 -108.5v-50l3 -39q-124 -47 -242 -47q-144 0 -225.5 98t-81.5 248q0 154 88 253t226 99q92 0 173 -48.5t81 -118.5q0 -27 -15.5 -44.5t-41.5 -17.5q-24 0 -40.5 18t-20.5 44q-15 81 -41 108
t-97 27q-189 0 -189 -308q0 -61 9.5 -116t29.5 -104t57 -77.5t88 -28.5q87 0 138 48z" />
    <glyph glyph-name="H" unicode="H" horiz-adv-x="730" 
d="M709 644q-60 -5 -77 -29t-17 -103v-356q0 -79 17.5 -103.5t77.5 -29.5v-23h-297v23q61 5 78 29.5t17 103.5v171h-286v-171q0 -79 17 -103.5t78 -29.5v-23h-297v23q61 5 78 29.5t17 103.5v356q0 78 -17.5 102.5t-77.5 29.5v23h296v-23q-60 -5 -77 -29t-17 -103v-156h286
v156q0 79 -17.5 103t-77.5 29v23h296v-23z" />
    <glyph glyph-name="I" unicode="I" horiz-adv-x="347" 
d="M323 644q-64 -5 -80 -28t-16 -106v-353q0 -82 17 -105.5t80 -28.5v-23h-298v23q63 5 78.5 28.5t15.5 105.5v353q0 84 -15.5 106.5t-78.5 27.5v23h297v-23z" />
    <glyph glyph-name="J" unicode="J" horiz-adv-x="327" 
d="M115 73v437q0 83 -18 106t-83 28v23h300v-23q-59 -5 -75 -27.5t-16 -106.5v-428q0 -93 -49 -152t-152 -96l-8 21q57 37 79 87.5t22 130.5z" />
    <glyph glyph-name="K" unicode="K" horiz-adv-x="653" 
d="M308 644q-56 -5 -71 -29.5t-15 -104.5v-353q0 -80 16.5 -104.5t78.5 -29.5v-23h-293v23q58 5 74.5 27.5t16.5 106.5v353q0 84 -17 106.5t-75 27.5v23h285v-23zM237 322l208 246q34 37 25 55.5t-73 20.5v23h232v-23q-47 -3 -75.5 -19.5t-59.5 -52.5l-165 -198l152 -217
q58 -82 88 -105t84 -29v-23h-278v23q24 3 34 9t8 21t-15 36.5t-42 61.5z" />
    <glyph glyph-name="L" unicode="L" horiz-adv-x="549" 
d="M19 23q64 5 80.5 28.5t16.5 105.5v353q0 81 -15.5 104.5t-77.5 29.5v23h310v-23q-72 -6 -90.5 -30t-18.5 -104v-383q0 -58 15.5 -78t65.5 -20h36q73 0 103.5 38t50.5 148h27l-5 -215h-498v23z" />
    <glyph glyph-name="M" unicode="M" horiz-adv-x="892" 
d="M670 574l-234 -579h-28l-259 601v-438q0 -87 14.5 -108.5t82.5 -27.5v-22h-226v22q67 5 81 26t14 107v367q0 79 -14.5 97.5t-81.5 24.5v23h219l223 -528l154 381q32 78 48 147h208v-23q-65 -7 -79 -26t-14 -93v-377q0 -76 16 -98t82 -28v-22h-292v22q54 5 70 29.5
t16 93.5v429z" />
    <glyph glyph-name="N" unicode="N" horiz-adv-x="708" 
d="M598 522v-530h-31l-419 585v-428q0 -77 17 -98t91 -28v-23h-236v23q64 6 79.5 27.5t15.5 95.5v374q0 76 -15 95.5t-81 26.5v25h200l346 -492v345q0 76 -17.5 97.5t-90.5 26.5v23h230v-23q-57 -5 -73 -27t-16 -95z" />
    <glyph glyph-name="O" unicode="O" horiz-adv-x="712" 
d="M668 331q0 -151 -83.5 -250.5t-228.5 -99.5q-144 0 -228.5 99t-84.5 249q0 151 84.5 250.5t228.5 99.5q145 0 228.5 -98.5t83.5 -249.5zM545 329q0 62 -9.5 115.5t-30 100.5t-59 74.5t-91.5 27.5t-91 -27t-58.5 -74t-29.5 -100t-9 -115t9.5 -115.5t29.5 -100.5
t58.5 -74.5t91.5 -27.5t91.5 27t59 74t29.5 100t9 115z" />
    <glyph glyph-name="P" unicode="P" horiz-adv-x="568" 
d="M222 637v-480q0 -82 21 -105t97 -29v-23h-322v23q38 4 57 13.5t29.5 37.5t10.5 83v399q0 47 -19.5 64t-77.5 24v23h288q104 0 169.5 -47.5t65.5 -139.5q0 -103 -73.5 -158.5t-198.5 -61.5l-6 24q84 9 123 54.5t39 131.5q0 76 -38 121.5t-107 45.5h-58z" />
    <glyph glyph-name="Q" unicode="Q" horiz-adv-x="710" 
d="M666 331q0 -115 -48 -200.5t-137 -125.5q83 -82 158.5 -125.5t155.5 -43.5q68 0 123 29l10 -20q-21 -16 -69.5 -32t-104.5 -16q-109 0 -186.5 40.5t-192.5 144.5q-2 0 -10 -0.5t-10 -0.5q-145 0 -228 98t-83 250q0 151 85 250.5t226 99.5q145 0 228 -98t83 -250zM543 329
q0 62 -9 115.5t-29.5 100.5t-59 74.5t-91.5 27.5t-91 -27t-58 -74t-29 -100t-9 -115q0 -60 9.5 -113t30 -101t58.5 -76t90 -28q53 0 91 27t58.5 74t29.5 100t9 115z" />
    <glyph glyph-name="R" unicode="R" horiz-adv-x="658" 
d="M655 23l3 -18q-38 -20 -91 -20q-62 0 -101 28t-77 95l-106 191h-61v-141q0 -84 16 -107t81 -28v-23h-299v23q61 5 78 27t17 105v372q0 71 -17 90.5t-78 25.5v24h267q116 0 182.5 -46.5t66.5 -131.5q0 -69 -40 -115.5t-103 -67.5l101 -175q35 -61 70 -84.5t91 -23.5z
M421 480q0 81 -39 118.5t-105 37.5h-55v-310h62q65 0 101 41.5t36 112.5z" />
    <glyph glyph-name="S" unicode="S" horiz-adv-x="533" 
d="M265 683q77 0 139 -46q9 -7 19 -7q17 0 20 43h26l1 -217h-27q-14 99 -55 147.5t-121 48.5q-56 0 -91 -32t-35 -84q0 -48 30 -77.5t112 -59.5q111 -42 157.5 -87.5t46.5 -125.5q0 -92 -61 -148.5t-153 -56.5q-85 0 -146 50q-13 11 -21 11q-15 0 -18 -45h-28l-1 224h29
q10 -98 57 -153.5t127 -55.5q61 0 96 34t35 92q0 52 -32.5 82.5t-126.5 65.5q-98 36 -142 83t-44 122q0 85 58.5 138.5t148.5 53.5z" />
    <glyph glyph-name="T" unicode="T" horiz-adv-x="619" 
d="M257 157v479h-56q-73 0 -105 -43t-41 -139h-25l1 213h556l2 -213h-25q-11 97 -42 139.5t-105 42.5h-52v-479q0 -81 18 -105t89 -29v-23h-322v23q72 5 89.5 29t17.5 105z" />
    <glyph glyph-name="U" unicode="U" horiz-adv-x="677" 
d="M544 228v276q0 89 -16 111.5t-82 28.5v23h224v-23q-63 -6 -77.5 -28.5t-14.5 -111.5v-279q0 -114 -55.5 -178.5t-174.5 -64.5q-115 0 -178 65.5t-63 182.5v282q0 80 -16.5 103t-75.5 29v23h296v-23q-61 -6 -78.5 -28t-17.5 -104v-279q0 -216 148 -216q96 0 138.5 54
t42.5 157z" />
    <glyph glyph-name="V" unicode="V" horiz-adv-x="666" 
d="M372 136l136 374q31 80 20.5 104.5t-81.5 29.5v23h219v-23q-52 -4 -72.5 -27.5t-51.5 -106.5l-193 -525h-31l-199 533q-29 79 -48 100t-71 26v23h320v-23q-83 -5 -97 -27t13 -93z" />
    <glyph glyph-name="W" unicode="W" horiz-adv-x="976" 
d="M690 139l120 372q19 57 19 84q0 25 -20 35t-73 14v23h240v-23q-60 -7 -82.5 -29.5t-48.5 -102.5l-174 -527h-34l-138 419l-156 -419h-36l-181 533q-27 79 -48 100t-78 26v23h314v-23q-50 -2 -68 -12.5t-18 -36.5q0 -21 16 -71l121 -391l119 316l-24 71q-26 75 -45 96.5
t-69 27.5v23h297v-23q-53 -5 -71.5 -14t-18.5 -32q0 -18 17 -74z" />
    <glyph glyph-name="X" unicode="X" horiz-adv-x="666" 
d="M1 644v23h294v-23q-60 -3 -68 -21t23 -67l107 -175l112 169q33 47 25.5 69t-67.5 25v23h219v-23q-50 -4 -78.5 -24.5t-67.5 -80.5l-122 -184l131 -202q51 -81 77.5 -103.5t79.5 -26.5v-23h-301v23q63 5 67.5 28.5t-39.5 93.5l-89 144l-113 -169q-34 -46 -23.5 -69
t79.5 -28v-23h-236v23q46 4 76.5 25t65.5 74l128 195l-139 215q-44 69 -68.5 88t-72.5 24z" />
    <glyph glyph-name="Y" unicode="Y" horiz-adv-x="634" 
d="M0 644v23h283v-23q-53 -2 -63.5 -16.5t11.5 -49.5l133 -224l110 208q25 47 13.5 63.5t-73.5 18.5v23h220v-23q-53 -3 -76 -19t-52 -69l-126 -232v-169q0 -76 17.5 -102t79.5 -30v-23h-301v23q63 4 80 29.5t17 102.5v154l-157 254q-30 47 -52 63t-64 18z" />
    <glyph glyph-name="Z" unicode="Z" horiz-adv-x="528" 
d="M38 27l330 609h-116q-89 0 -126.5 -37.5t-54.5 -142.5h-25l10 213l125 -2h309v-28l-328 -609h138q80 0 118 41t54 140h25l-10 -212l-146 1h-303v27z" />
    <glyph glyph-name="bracketleft" unicode="[" horiz-adv-x="306" 
d="M290 -100l-222 10q10 234 10 394l-8 441l220 10v-21q-8 -1 -30.5 -2t-29.5 -2t-23 -4t-21.5 -8.5l-13.5 -13.5t-11 -21t-3 -31q-4 -197 -4 -349l4 -300q0 -15 3 -26.5t6.5 -19.5t12 -14t14.5 -9t20 -5.5t21.5 -3t26.5 -2t28 -2.5v-21z" />
    <glyph glyph-name="backslash" unicode="\" horiz-adv-x="434" 
d="M410 0l-24 -12l-365 700l24 12z" />
    <glyph glyph-name="bracketright" unicode="]" horiz-adv-x="306" 
d="M238 -90l-222 -10v21q9 1 28 2.5t26.5 2t21.5 3t20 5.5t14.5 9t12 14t6.5 19.5t3 26.5q4 148 4 300l-4 349q0 18 -3 31t-11 21l-13.5 13.5t-21.5 8.5t-23 4t-29.5 2t-30.5 2v21l220 -10q-8 -281 -8 -441q0 -71 2.5 -169.5t5.5 -161.5z" />
    <glyph glyph-name="asciicircum" unicode="^" horiz-adv-x="500" 
d="M256 703l187 -394h-36l-157 337l-157 -337h-35l186 394h12z" />
    <glyph glyph-name="underscore" unicode="_" horiz-adv-x="500" 
d="M495 -160h-490q-5 0 -5 5v30q0 5 5 5h490q5 0 5 -5v-30q0 -5 -5 -5z" />
    <glyph glyph-name="grave" unicode="`" 
d="M286 526q0 -6 -6 -6t-10 4l-135 80q-21 13 -21 36q0 16 9.5 26t25.5 10q20 0 41 -25l92 -116q4 -8 4 -9z" />
    <glyph glyph-name="a" unicode="a" horiz-adv-x="470" 
d="M287 59q-49 -75 -123 -75q-54 0 -92 36.5t-38 92.5q0 109 143 141q63 12 107 15v61q0 64 -13 94.5t-51 30.5q-37 0 -49.5 -17.5t-20.5 -71.5q-4 -26 -18.5 -40.5t-36.5 -14.5q-21 0 -35 15t-14 37q0 51 58 84t123 33q79 0 119 -30.5t40 -105.5v-249q0 -65 29 -65
q23 0 44 46l18 -10q-35 -82 -102 -82q-72 0 -88 75zM141 128q0 -38 19 -67.5t46 -29.5q43 0 78 62v154q-52 -6 -81 -17q-33 -12 -47.5 -35.5t-14.5 -66.5z" />
    <glyph glyph-name="b" unicode="b" horiz-adv-x="528" 
d="M493 253q0 -118 -58 -194t-162 -76q-103 0 -196 45l3 175v337q0 79 -13.5 99.5t-69.5 25.5v18l189 24l7 -6q-11 -81 -11 -217v-425q33 -50 89 -50q113 0 113 233q0 78 -25 136.5t-73 58.5q-36 0 -74 -45l-13 14q20 32 51.5 53t69.5 21q82 0 127.5 -64.5t45.5 -162.5z" />
    <glyph glyph-name="c" unicode="c" horiz-adv-x="426" 
d="M296 365q-8 58 -18.5 73.5t-44.5 15.5q-92 0 -92 -210q0 -55 12 -103t40 -81.5t69 -33.5q68 0 121 66l17 -18q-66 -91 -162 -91q-98 0 -152.5 67.5t-54.5 173.5q0 108 57.5 182t149.5 74q61 0 111.5 -32.5t50.5 -82.5q0 -24 -14.5 -39.5t-37.5 -15.5q-21 0 -35 15.5
t-17 39.5z" />
    <glyph glyph-name="d" unicode="d" horiz-adv-x="530" 
d="M220 -16q-93 0 -141 68.5t-48 173.5q0 106 58.5 180t157.5 74q46 0 95 -21v124q0 48 -16 62.5t-73 18.5v17l191 23l7 -6l-8 -219v-361q0 -54 17 -74t74 -22l1 -18l-180 -22l-6 5l-5 60q-52 -63 -124 -63zM342 82v323q-31 49 -89 49q-59 0 -85.5 -60.5t-26.5 -148.5
q0 -41 5.5 -77.5t18 -69t35 -51.5t53.5 -19q51 0 89 54z" />
    <glyph glyph-name="e" unicode="e" horiz-adv-x="454" 
d="M427 248h-287v-23q0 -93 32.5 -146.5t95.5 -53.5q77 0 136 73l16 -17q-68 -97 -181 -97q-98 0 -153 66.5t-55 173.5t54.5 181.5t153.5 74.5q93 0 140.5 -63t47.5 -169zM236 454q-83 0 -95 -181h177q0 88 -18 134.5t-64 46.5z" />
    <glyph glyph-name="f" unicode="f" horiz-adv-x="320" 
d="M189 435v-312q0 -64 19.5 -81.5t89.5 -21.5v-20l-157 2l-128 -2v20q48 3 61 23t13 86v306h-65v27h65v44q0 95 41.5 151.5t111.5 56.5q49 0 86 -26t37 -67q0 -22 -14 -36.5t-34 -14.5q-22 0 -35.5 14t-15.5 37q-4 43 -9 55t-21 12q-45 0 -45 -122v-104h123v-29z" />
    <glyph glyph-name="g" unicode="g" horiz-adv-x="494" 
d="M303 304q0 65 -20 108.5t-62 43.5q-79 0 -79 -148q0 -144 80 -144q81 0 81 140zM103 -121q0 -48 40.5 -71t101.5 -23q53 0 96 30t43 76q0 38 -33 56.5t-118 31.5q-93 14 -128 33.5t-35 56.5q0 24 21 47.5t48 37.5q-104 47 -104 154q0 77 53 124.5t133 47.5q71 0 114 -31
q49 60 94 60q26 0 44.5 -14t18.5 -38q0 -19 -11.5 -31.5t-30.5 -12.5q-18 0 -33 24t-25 24q-21 0 -43 -26q61 -52 61 -130q0 -74 -54.5 -119.5t-133.5 -45.5q-33 0 -61 7q-20 -16 -20 -35q0 -15 28.5 -25t103.5 -21q104 -17 148.5 -46t44.5 -93q0 -75 -71.5 -121.5
t-158.5 -46.5q-86 0 -148.5 28.5t-62.5 90.5q0 39 40.5 68t88.5 33l5 -13q-56 -35 -56 -87z" />
    <glyph glyph-name="h" unicode="h" horiz-adv-x="545" 
d="M87 137v432q0 55 -13.5 72t-65.5 24v17l182 24l6 -7l-7 -186v-106q49 73 131 73q65 0 105 -41.5t40 -111.5v-186q0 -74 11 -94t59 -28v-19l-126 2l-109 -2v19q42 6 52.5 26.5t10.5 99.5v172q0 52 -20 86.5t-57 34.5q-62 0 -97 -72v-235q0 -68 10 -87t52 -25v-19l-121 2
l-118 -2v19q49 6 62 26t13 92z" />
    <glyph glyph-name="i" unicode="i" horiz-adv-x="271" 
d="M190 472v-348q0 -61 11.5 -79.5t59.5 -25.5v-19l-119 2l-128 -2v19q50 7 62 25t12 82v228q0 51 -12.5 65t-61.5 18v19l173 20zM72 623q0 25 19 43.5t45 18.5t45 -18.5t19 -43.5t-19 -43.5t-45 -18.5t-45 18.5t-19 43.5z" />
    <glyph glyph-name="j" unicode="j" horiz-adv-x="262" 
d="M189 472v-450q0 -180 -187 -238l-7 18q57 37 74.5 79t17.5 130v345q0 47 -14 62.5t-63 18.5v19l176 20zM71 623q0 25 18.5 43.5t44.5 18.5t45 -18.5t19 -43.5t-19 -43.5t-45 -18.5t-44.5 18.5t-18.5 43.5z" />
    <glyph glyph-name="k" unicode="k" horiz-adv-x="527" 
d="M89 130v455q0 43 -16 57t-67 23v17l187 24l5 -7l-7 -186v-389q0 -59 11.5 -78t51.5 -26v-20l-109 2l-135 -2v20q48 6 63.5 27t15.5 83zM327 65l-125 192l127 120q27 27 27 42q0 18 -52 22v21h192v-21q-42 -4 -69.5 -18.5t-60.5 -45.5l-81 -78l128 -192q33 -48 56 -65.5
t60 -21.5v-20h-227v20q26 1 32.5 14t-7.5 31z" />
    <glyph glyph-name="l" unicode="l" horiz-adv-x="274" 
d="M87 130v453q0 45 -13 58.5t-62 23.5v17l179 24l6 -7l-7 -186v-389q0 -58 13 -77.5t57 -26.5v-20l-124 2l-120 -2v20q46 5 58.5 25t12.5 85z" />
    <glyph glyph-name="m" unicode="m" horiz-adv-x="812" 
d="M190 472v-76q44 84 134 84q92 0 129 -89q49 89 138 89q65 0 103 -42.5t38 -111.5v-189q0 -71 11.5 -91t57.5 -26v-20l-117 2l-115 -2v20q42 6 51.5 26.5t9.5 98.5v170q0 51 -18.5 87t-53.5 36q-59 0 -97 -81v-231q0 -63 10.5 -81.5t50.5 -24.5v-20l-106 2l-117 -2v20
q38 4 49 23.5t11 77.5v195q0 51 -18 86.5t-53 35.5t-61 -26t-37 -67v-219q0 -64 10 -82t52 -24v-20l-121 2l-113 -2v20q47 6 58 24t11 88v226q0 48 -11.5 61.5t-60.5 17.5v19l171 20z" />
    <glyph glyph-name="n" unicode="n" horiz-adv-x="541" 
d="M189 472v-72q49 80 129 80q67 0 106 -42t39 -113v-194q0 -65 11.5 -84t55.5 -27v-20l-112 2l-117 -2v20q41 7 51 27t10 90v180q0 51 -19.5 86t-56.5 35q-59 0 -97 -80v-238q0 -58 10 -75.5t52 -24.5v-20l-115 2l-119 -2v20q46 6 58 24t12 82v232q0 48 -12.5 62.5
t-60.5 16.5v19l172 20z" />
    <glyph glyph-name="o" unicode="o" horiz-adv-x="501" 
d="M470 231q0 -111 -60 -179.5t-158 -68.5t-159.5 68.5t-61.5 179.5q0 110 62 179.5t159 69.5t157.5 -69t60.5 -180zM361 231q0 43 -5 79.5t-16.5 69.5t-34 52t-54.5 19t-54.5 -19t-34.5 -52t-17 -69.5t-5 -79.5t5.5 -79.5t17.5 -69t34.5 -51.5t54.5 -19q109 0 109 219z" />
    <glyph glyph-name="p" unicode="p" horiz-adv-x="531" 
d="M186 471v-67q20 33 54.5 54.5t75.5 21.5q87 0 135 -67.5t48 -172.5q0 -111 -57 -184.5t-158 -73.5q-55 0 -98 26v-109q0 -65 15 -85t76 -26v-19h-268v19q51 6 63 25.5t12 91.5v435q0 57 -13 74.5t-64 22.5v19l175 20zM280 437q-55 0 -94 -75v-296q32 -57 95 -57
q55 0 81.5 62t26.5 150q0 90 -26.5 153t-82.5 63z" />
    <glyph glyph-name="q" unicode="q" horiz-adv-x="518" 
d="M343 79v312q-26 61 -91 61q-40 0 -66 -34.5t-35.5 -80.5t-9.5 -100q0 -87 27.5 -148.5t88.5 -61.5q52 0 86 52zM445 214v-320q0 -64 11 -81t58 -24v-20h-256v20q57 6 71 23.5t14 83.5v147q-47 -61 -120 -61q-92 0 -141.5 68t-49.5 170q0 109 58.5 184.5t153.5 75.5
q62 0 121 -34l78 29l12 -6q-10 -71 -10 -255z" />
    <glyph glyph-name="r" unicode="r" horiz-adv-x="395" 
d="M188 472v-89q36 99 119 99q33 0 57.5 -23.5t24.5 -57.5q0 -25 -16 -43.5t-39 -18.5q-21 0 -35.5 15.5t-16.5 38.5q-2 15 -3.5 23t-6 13t-12.5 5q-22 0 -40.5 -32t-29.5 -78v-196q0 -64 16 -82.5t79 -26.5v-19l-152 2l-119 -2v19q48 6 60.5 25t12.5 85v220q0 52 -14 68
t-65 20v19l176 20z" />
    <glyph glyph-name="s" unicode="s" horiz-adv-x="402" 
d="M197 480q49 0 90 -27q16 -11 22 -11q14 0 19 30h20l-3 -162h-21q-24 144 -126 144q-36 0 -60 -22t-24 -58q0 -32 23.5 -53.5t76.5 -39.5q87 -30 120.5 -64t33.5 -92q0 -67 -45.5 -105t-120.5 -38q-49 0 -90 24q-20 12 -28 12q-14 0 -19 -29h-19v168h22q9 -72 44.5 -110.5
t88.5 -38.5q42 0 67 20t25 57q0 31 -23.5 52t-90.5 46q-73 26 -106 61.5t-33 92.5q0 63 46.5 103t110.5 40z" />
    <glyph glyph-name="t" unicode="t" horiz-adv-x="324" 
d="M178 612v-150h130v-28l-130 2v-332q0 -85 48 -85q42 0 69 70l18 -7q-34 -100 -116 -100q-122 0 -122 132v322h-68v26h68v134z" />
    <glyph glyph-name="u" unicode="u" horiz-adv-x="545" 
d="M463 476l5 -4q-6 -42 -6 -250v-120q0 -49 13.5 -61.5t69.5 -15.5v-19l-175 -18l-4 5l-5 75q-19 -38 -54 -62t-79 -24q-68 0 -108 40t-40 108v227q0 50 -13.5 64.5t-66.5 18.5v19l184 20l3 -4q-5 -50 -5 -331q0 -54 20 -87t60 -33q33 0 58.5 24.5t39.5 64.5v244
q0 50 -13.5 64.5t-65.5 18.5v19z" />
    <glyph glyph-name="v" unicode="v" horiz-adv-x="501" 
d="M0 442v20l116 -2l132 2v-20q-40 -3 -53.5 -15.5t-2.5 -40.5l95 -272l93 262q13 39 1.5 51t-61.5 15v20l106 -2l75 2v-20q-42 -3 -59 -16t-31 -50l-143 -394h-27l-156 404q-11 27 -30 40t-55 16z" />
    <glyph glyph-name="w" unicode="w" horiz-adv-x="764" 
d="M0 442v20l119 -2l117 2v-20q-35 -2 -46.5 -12.5t-4.5 -30.5l100 -285l85 224l-19 48q-19 52 -78 56v20l112 -2l116 2v-20q-35 -2 -51 -13.5t-8 -31.5l105 -285l94 273q11 32 -1 43.5t-55 13.5v20l98 -2l81 2v-20q-43 -3 -60 -13.5t-28 -40.5l-143 -406h-30l-117 315
l-119 -315h-30l-151 404q-11 29 -29.5 42t-56.5 14z" />
    <glyph glyph-name="x" unicode="x" horiz-adv-x="482" 
d="M8 0v20q39 4 63.5 20.5t47.5 52.5l78 125l-107 168q-21 32 -38.5 43t-48.5 13v20h228v-20q-29 -1 -42.5 -7.5t-12.5 -16t8 -20.5l78 -123l68 113q17 28 6 40.5t-54 13.5v20h186v-20q-42 -1 -65.5 -15t-43.5 -46l-78 -129l108 -172q20 -31 37 -43.5t50 -16.5v-20h-223v20
q37 1 47.5 12.5t-3.5 30.5l-82 130l-66 -107q-22 -30 -12.5 -45t65.5 -21v-20h-194z" />
    <glyph glyph-name="y" unicode="y" horiz-adv-x="512" 
d="M425 379l-174 -468q-26 -67 -57.5 -97.5t-77.5 -30.5q-27 0 -45.5 14.5t-18.5 38.5q0 19 14.5 32.5t33.5 13.5q14 0 34 -15t32 -15q19 0 31 14.5t24 47.5l27 69l-160 402q-19 49 -88 57v20l122 -2l132 2v-20q-53 -4 -64.5 -20.5t4.5 -48.5l102 -262l99 274q10 29 -4.5 42
t-57.5 15v20l104 -2l75 2v-20q-38 -2 -56.5 -16t-30.5 -47z" />
    <glyph glyph-name="z" unicode="z" horiz-adv-x="415" 
d="M36 310l10 156l81 -3h253v-11l-231 -426h78q70 0 95.5 22.5t40.5 96.5h21l-9 -147l-84 2h-260l-1 7l232 430h-85q-54 0 -77.5 -25t-40.5 -102h-23z" />
    <glyph glyph-name="braceleft" unicode="{" horiz-adv-x="342" 
d="M320 -79v-21q-13 1 -38 1.5t-35.5 1t-30 2t-28 4t-21.5 6.5t-18.5 10.5t-12 15.5t-9 21t-2.5 27q0 31 8.5 124.5t8.5 120.5q0 43 -29.5 63.5t-93.5 20.5h-10v20h10q64 0 93.5 20.5t29.5 63.5q0 27 -8.5 119t-8.5 123q0 25 8 41.5t20 25.5t34.5 14t44 6.5t56.5 2.5
q21 1 32 1v-21q-28 -2 -40 -3t-28 -5t-21.5 -10t-12 -17t-8 -26.5t-1.5 -39.5q0 -30 4 -111.5t4 -109.5q0 -19 -6 -33t-12.5 -21.5t-24 -14t-28 -8.5t-37.5 -7q27 -5 37.5 -7t28 -8.5t24 -14t12.5 -21.5t6 -33q0 -28 -4 -111t-4 -113q0 -23 1 -38t8 -26t10 -16t20 -9.5
t25 -5t37 -3.5q2 0 3 -0.5t3 -0.5h4z" />
    <glyph glyph-name="bar" unicode="|" horiz-adv-x="227" 
d="M127 -220h-27v1000h27v-1000z" />
    <glyph glyph-name="braceright" unicode="}" horiz-adv-x="342" 
d="M22 -100v21q71 6 86 15q24 15 25 74v10q0 30 -4 113t-4 111q0 19 6 33t12.5 21.5t24 14t28 8.5t37.5 7q-27 5 -37.5 7t-28 8.5t-24 14t-12.5 21.5t-6 33q0 28 4 109.5t4 111.5q0 24 -1.5 39.5t-8 26.5t-12 17t-21.5 10t-28 5t-40 3v21q10 0 28 -1q99 -3 128 -16
q38 -20 39 -74q0 -31 -8.5 -123t-8.5 -119q0 -43 29.5 -63.5t93.5 -20.5h10v-20h-10q-64 0 -93.5 -20.5t-29.5 -63.5q0 -27 8.5 -120.5t8.5 -124.5q0 -25 -8.5 -41.5t-18 -25t-36 -13.5t-42.5 -6t-57 -2q-22 -1 -33 -1z" />
    <glyph glyph-name="asciitilde" unicode="~" horiz-adv-x="403" 
d="M159 305l99 -31q30 -8 43 -4t38 27l14 -11q-34 -83 -103 -63l-93 29q-35 10 -54 4.5t-41 -32.5l-12 8q9 41 38.5 63.5t70.5 9.5z" />
    <glyph glyph-name="exclamdown" unicode="&#xa1;" horiz-adv-x="250" 
d="M124 -223q-30 0 -47 12t-17 48q0 15 22.5 191.5t25.5 215.5q0 11 9 11h12q9 0 9 -11q3 -40 26 -216t23 -191q0 -36 -16.5 -48t-46.5 -12zM191 412q0 -25 -19 -43.5t-45 -18.5t-45 18.5t-19 43.5q0 26 19 44.5t45 18.5t45 -18.5t19 -44.5z" />
    <glyph glyph-name="cent" unicode="&#xa2;" horiz-adv-x="443" 
d="M271 -106h-35l3 89q-94 4 -145.5 71t-51.5 170q0 104 54.5 178t141.5 78l-4 113h36l-5 -114q58 -5 102 -36.5t44 -77.5q0 -24 -14.5 -39.5t-37.5 -15.5q-21 0 -35 15.5t-17 39.5q-8 58 -18.5 73.5t-44.5 15.5q-92 0 -92 -210q0 -55 12 -103t40 -81.5t69 -33.5
q68 0 121 66l17 -18q-59 -82 -145 -90z" />
    <glyph glyph-name="sterling" unicode="&#xa3;" horiz-adv-x="517" 
d="M30 288v27h83q-36 78 -36 132q0 94 61 148t159 54q77 0 131 -41.5t54 -84.5q0 -28 -12 -46.5t-35 -18.5q-21 0 -35.5 13.5t-17.5 36.5q-4 29 -8 46t-13.5 35t-25.5 26t-41 8q-56 0 -82 -41t-26 -108q0 -29 8.5 -61t15.5 -47t24 -51h159v-27h-146q23 -55 23 -100
q-1 -85 -106 -145v-7l240 32q29 3 46.5 29.5t21.5 51.5l3 25l22 -2l-18 -172h-463v22q148 3 148 134q0 50 -38 132h-96z" />
    <glyph glyph-name="currency" unicode="&#xa4;" horiz-adv-x="623" 
d="M468 324h-297q2 -40 6 -75h282l-4 -28h-273q17 -89 61 -143.5t116 -54.5q54 0 94.5 26t75.5 79l23 -16q-86 -131 -217 -131q-110 0 -181.5 66t-92.5 174h-55v28h50q-3 29 -3 59v16h-47v28h49q12 127 88 212t187 85q82 0 152 -47.5t70 -110.5q0 -25 -15 -42.5t-39 -17.5
q-23 0 -39 16.5t-20 41.5q-13 80 -32.5 106t-78.5 26q-80 0 -117.5 -75.5t-39.5 -193.5h302z" />
    <glyph glyph-name="yen" unicode="&#xa5;" horiz-adv-x="612" 
d="M4 613v22h269v-22q-50 -2 -60 -15.5t11 -47.5l126 -213l105 198q24 45 13.5 60.5t-70.5 17.5v22h209v-22q-50 -3 -71.5 -18t-49.5 -66l-113 -207h167v-27h-174v-88h175v-26h-175v-33q0 -73 16 -97.5t76 -28.5v-22h-286v22q60 4 76 28.5t16 97.5v33h-168v26h168v87l-1 1
h-168v27h151l-132 214q-28 44 -49 59.5t-61 17.5z" />
    <glyph glyph-name="brokenbar" unicode="&#xa6;" horiz-adv-x="227" 
d="M127 -220h-27v361h27v-361zM127 780v-365h-27v365h27z" />
    <glyph glyph-name="section" unicode="&#xa7;" horiz-adv-x="479" 
d="M141 -70q9 -87 71 -87q41 0 70.5 30t29.5 82q0 16 -7.5 31.5t-16.5 26.5t-28 26t-30 22t-35.5 21.5t-31.5 19.5q-31 19 -48.5 31.5t-41.5 34.5t-35.5 46.5t-11.5 52.5q0 57 29 89t64 45q-22 23 -30 33t-19.5 35.5t-11.5 54.5q0 67 55.5 116.5t139.5 49.5q77 0 129.5 -33
t52.5 -80q0 -28 -14 -43.5t-39 -15.5q-20 0 -32.5 13t-16.5 27t-9 39q-13 68 -70 68q-42 0 -73 -30t-31 -84q0 -28 20 -54.5t46.5 -46t65.5 -44.5q4 -2 6.5 -3.5t5.5 -3.5q37 -23 57 -37.5t44 -37t34.5 -47.5t10.5 -55q0 -54 -28 -90.5t-59 -45.5q52 -47 52 -105
q0 -72 -53 -117.5t-147 -45.5q-72 0 -124 30.5t-52 79.5q0 33 15 50.5t41 17.5q22 0 38 -19t18 -47zM247 304q-71 47 -106 74q-31 -29 -31 -79q0 -32 28 -57.5t88 -61.5q61 -38 104 -72q29 27 29 78q0 31 -26 55.5t-86 62.5z" />
    <glyph glyph-name="dieresis" unicode="&#xa8;" 
d="M54 598q0 22 16 37.5t39 15.5q22 0 38 -15.5t16 -37.5t-16 -38t-38 -16t-38.5 16t-16.5 38zM236 598q0 22 16 37.5t38 15.5t38 -15.5t16 -37.5t-16 -38t-38 -16t-38 16t-16 38z" />
    <glyph glyph-name="copyright" unicode="&#xa9;" horiz-adv-x="809" 
d="M761 342q0 -151 -103 -254t-254 -103t-254 103t-103 254t103 254t254 103t254 -103t103 -254zM723 342q0 139 -90.5 230.5t-228.5 91.5t-228 -91.5t-90 -230.5t90 -230.5t228 -91.5t228.5 91.5t90.5 230.5zM537 231l20 -15q-59 -83 -147 -83q-91 0 -142.5 59.5
t-51.5 148.5q0 90 53.5 152.5t136.5 62.5q63 0 107.5 -30.5t44.5 -71.5q0 -17 -10.5 -29.5t-27.5 -12.5q-18 0 -29 12t-13 28q-6 42 -22 58.5t-51 16.5q-53 0 -78 -44t-25 -118q0 -52 11 -94.5t39.5 -72.5t72.5 -30q35 0 60.5 15t51.5 48z" />
    <glyph glyph-name="ordfeminine" unicode="&#xaa;" horiz-adv-x="335" 
d="M199 274q-33 -49 -83 -49q-39 0 -65 21.5t-26 58.5q0 73 104 95q16 4 68 11v36q0 41 -8 59.5t-33 18.5q-24 0 -31.5 -10.5t-11.5 -41.5q-7 -36 -41 -36q-15 0 -25.5 9.5t-10.5 23.5q0 33 41 55t84 22q51 0 82 -23t31 -71v-152q0 -42 20 -42q14 0 26 25l12 -11
q-9 -21 -29.5 -34.5t-42.5 -13.5q-53 0 -61 49zM106 314q0 -23 11 -36.5t30 -13.5q26 0 50 40v86q-27 -3 -50 -12q-41 -15 -41 -64z" />
    <glyph glyph-name="guillemotleft" unicode="&#xab;" horiz-adv-x="557" 
d="M500 27l-15 -13q-126 130 -229 198v32q107 70 228 199l16 -13q-60 -121 -137 -203q78 -83 137 -200zM287 26l-15 -12q-124 131 -230 200v30q115 76 230 198l15 -12q-62 -120 -138 -201q64 -68 138 -203z" />
    <glyph glyph-name="registered" unicode="&#xae;" horiz-adv-x="809" 
d="M629 164l2 -16q-22 -12 -59 -12q-40 0 -65 17t-50 57l-69 105h-41v-73q0 -50 11 -64t53 -17v-16h-194v16q39 3 50 16.5t11 62.5v220q0 42 -10.5 53t-50.5 15v26h174q76 0 119.5 -29.5t43.5 -87.5q0 -91 -96 -117l66 -96q26 -36 46.5 -48t58.5 -12zM477 433q0 91 -93 91
h-37v-180h42q42 0 65 23.5t23 65.5zM761 342q0 -151 -103 -254t-254 -103t-254 103t-103 254t103 254t254 103t254 -103t103 -254zM723 342q0 139 -90.5 230.5t-228.5 91.5t-228 -91.5t-90 -230.5t90 -230.5t228 -91.5t228.5 91.5t90.5 230.5z" />
    <glyph glyph-name="macron" unicode="&#xaf;" 
d="M341 580h-282q-5 0 -5 5v30q0 5 5 5h282q5 0 5 -5v-30q0 -5 -5 -5z" />
    <glyph glyph-name="degree" unicode="&#xb0;" horiz-adv-x="311" 
d="M155 627q51 0 85 -33.5t34 -82.5q0 -51 -34 -83.5t-85 -32.5q-50 0 -84 32.5t-34 83.5q0 49 33.5 82.5t84.5 33.5zM155 597q-37 0 -60.5 -24t-23.5 -62t23.5 -62t60.5 -24t60.5 23.5t23.5 62.5q0 38 -23.5 62t-60.5 24z" />
    <glyph glyph-name="plusminus" unicode="&#xb1;" horiz-adv-x="516" 
d="M452 34h-390v30h390v-30zM452 296h-178v-179h-33v179h-179v31h179v178h33v-178h178v-31z" />
    <glyph glyph-name="twosuperior" unicode="&#xb2;" horiz-adv-x="500" 
d="M408 540l-28 -124h-273v14q78 77 114 113q44 46 64.5 87.5t20.5 94.5q0 95 -64 95q-28 0 -39.5 -18t-16.5 -68q-2 -18 -13 -30t-27 -12q-15 0 -25.5 13t-10.5 32q0 42 41.5 74.5t94.5 32.5q62 0 101 -32.5t39 -95.5q0 -53 -30.5 -96.5t-110.5 -106.5l-46 -36h116
q29 0 46 14.5t26 50.5z" />
    <glyph glyph-name="threesuperior" unicode="&#xb3;" horiz-adv-x="500" 
d="M414 538q0 -64 -52 -97.5t-124 -33.5q-51 0 -95 26t-44 64q0 19 11.5 32.5t28.5 13.5q14 0 24 -10t12 -24q7 -49 20 -64t44 -15q91 0 91 110q0 78 -69 78q-23 0 -54 -7l-4 30q59 11 83.5 33t24.5 66q0 85 -69 85q-33 0 -45 -15t-18 -63q-2 -14 -12 -24.5t-25 -10.5
q-14 0 -24.5 12.5t-10.5 27.5q0 40 44.5 67t94.5 27q62 0 103 -23.5t41 -76.5q0 -36 -30 -64t-80 -43q10 2 17 2q44 0 80.5 -26t36.5 -77z" />
    <glyph glyph-name="acute" unicode="&#xb4;" 
d="M114 526q0 4 4 9l91 116q21 25 42 25q16 0 25.5 -10t9.5 -26q0 -23 -22 -36l-134 -80q-5 -4 -10 -4q-6 0 -6 6z" />
    <glyph glyph-name="mu" unicode="&#xb5;" horiz-adv-x="626" 
d="M507 476l5 -4q-6 -42 -6 -250v-120q0 -67 29 -70q21 -3 48 35l17 -9q-9 -20 -48.5 -44.5t-71.5 -24.5q-53 0 -75 78q-19 -38 -54.5 -61.5t-78.5 -23.5q-22 0 -43.5 11.5t-32.5 28.5l-4 -1q9 -37 20 -104t12 -95q0 -20 -18 -32.5t-48 -11.5q-22 0 -35 9v573q0 48 -14 62.5
t-65 17.5v19l183 20l3 -4q-4 -38 -4 -331q0 -52 19.5 -86t56.5 -34q35 0 61.5 24.5t39.5 64.5v247q0 47 -14 62t-64 18v19z" />
    <glyph glyph-name="paragraph" unicode="&#xb6;" horiz-adv-x="515" 
d="M416 0v644h-150v-644h-26v267q-74 0 -136.5 53t-62.5 142q0 91 62.5 148t136.5 57h265v-23h-62v-644h-27z" />
    <glyph glyph-name="periodcentered" unicode="&#xb7;" horiz-adv-x="228" 
d="M51 257q0 26 18.5 44t44.5 18t45 -18.5t19 -43.5q0 -26 -19 -44.5t-45 -18.5t-44.5 18.5t-18.5 44.5z" />
    <glyph glyph-name="cedilla" unicode="&#xb8;" 
d="M215 0h25l-31 -48q73 -36 73 -90q0 -37 -29 -60t-73 -23q-27 0 -46 10.5t-19 27.5q0 12 6 18.5t15 6.5q13 0 27.5 -20t28.5 -20q31 0 31 37q0 33 -66 72z" />
    <glyph glyph-name="onesuperior" unicode="&#xb9;" horiz-adv-x="500" 
d="M361 416h-215v19q47 2 59.5 13.5t12.5 38.5v176q0 51 5 94q-43 0 -83 20l4 18q35 -8 54 -6q57 2 89 55l15 -3q-11 -55 -11 -106v-249q0 -18 3 -26.5t19 -16t48 -8.5v-19z" />
    <glyph glyph-name="ordmasculine" unicode="&#xba;" horiz-adv-x="341" 
d="M319 385q0 -72 -41 -116.5t-105 -44.5t-105.5 45t-41.5 116t42 116.5t105 45.5q64 0 105 -45t41 -117zM240 385q0 140 -67 140q-68 0 -68 -140q0 -139 68 -139q67 0 67 139z" />
    <glyph glyph-name="guillemotright" unicode="&#xbb;" horiz-adv-x="557" 
d="M72 14l-15 13q59 117 137 200q-77 82 -137 203l16 13q121 -129 228 -199v-32q-103 -68 -229 -198zM285 14l-15 12q74 135 138 203q-76 81 -138 201l15 12q115 -122 230 -198v-30q-106 -69 -230 -200z" />
    <glyph glyph-name="onequarter" unicode="&#xbc;" horiz-adv-x="653" 
d="M521 -155h-14q-2 35 -9.5 44.5t-27.5 9.5h-31v-64q0 -27 9.5 -33t50.5 -8v-18h-203v18q41 2 53 8t12 29v68h-175l-4 18l225 295h32v-287h31q20 0 27 9.5t9 43.5h15v-133zM361 -74v193l-144 -193h144zM49 229v33l556 122v-33zM428 416h-215v19q47 2 59.5 13.5t12.5 38.5
v176q0 51 5 94q-43 0 -83 20l4 18q35 -8 54 -6q57 2 89 55l15 -3q-11 -55 -11 -106v-249q0 -18 3 -26.5t19 -16t48 -8.5v-19z" />
    <glyph glyph-name="onehalf" unicode="&#xbd;" horiz-adv-x="653" 
d="M428 416h-215v19q47 2 59.5 13.5t12.5 38.5v176q0 51 5 94q-43 0 -83 20l4 18q35 -8 54 -6q57 2 89 55l15 -3q-11 -55 -11 -106v-249q0 -18 3 -26.5t19 -16t48 -8.5v-19zM514 -108l-28 -124h-273v14q79 77 114 113q44 46 64.5 87.5t20.5 95.5q0 95 -64 95
q-28 0 -39.5 -18t-17.5 -69q-2 -18 -13 -30t-26 -12t-25.5 13.5t-10.5 32.5q0 42 41.5 74.5t94.5 32.5q62 0 101 -32.5t39 -96.5q0 -52 -31 -96.5t-110 -106.5l-47 -36h116q29 0 46.5 14.5t26.5 50.5zM49 229v33l556 122v-33z" />
    <glyph glyph-name="threequarters" unicode="&#xbe;" horiz-adv-x="653" 
d="M522 -155h-15q-2 35 -9 44.5t-28 9.5h-31v-64q0 -27 9.5 -33t50.5 -8v-18h-203v18q42 2 54 8t12 29v68h-176l-4 18l226 295h31v-287h31q20 0 27 9t9 44h16v-133zM486 538q0 -64 -51.5 -97.5t-124.5 -33.5q-51 0 -94.5 25.5t-43.5 64.5q0 19 11 32.5t28 13.5
q14 0 24.5 -9.5t12.5 -24.5q6 -49 19 -64t44 -15q92 0 92 110q0 78 -70 78q-23 0 -54 -7l-4 30q59 11 83.5 33t24.5 66q0 85 -68 85q-33 0 -45 -15t-19 -63q-2 -14 -12 -24.5t-24 -10.5q-15 0 -25.5 12.5t-10.5 27.5q0 40 45 67t95 27q61 0 102 -23.5t41 -76.5
q0 -36 -30 -64t-80 -43q10 2 17 2q44 0 80.5 -26t36.5 -77zM49 229v33l556 122v-33zM362 -74v193l-145 -193h145z" />
    <glyph glyph-name="questiondown" unicode="&#xbf;" horiz-adv-x="491" 
d="M271 219q0 14 -7 33l28 6q17 -23 17 -48q0 -30 -15 -55t-36 -44.5t-42 -41t-36 -55t-15 -76.5q0 -60 24 -95.5t69 -35.5q41 0 56.5 25.5t24.5 101.5q3 24 18 39t37 15t38 -20t16 -44q0 -58 -60.5 -102.5t-130.5 -44.5q-89 0 -145 46t-56 133q0 39 16 71.5t40 53t51.5 40
t51.5 33t40 31t16 34.5zM333 412q0 -25 -18.5 -43.5t-44.5 -18.5t-45 18.5t-19 43.5q0 26 19 44.5t45 18.5t44.5 -18.5t18.5 -44.5z" />
    <glyph glyph-name="Agrave" unicode="&#xc0;" horiz-adv-x="661" 
d="M438 133l-28 76h-240l-22 -60q-26 -76 -15 -97.5t76 -29.5v-22h-209v22q48 7 68 29t48 98l192 533h35l205 -543q28 -74 46 -92.5t67 -24.5v-22h-278v22q60 6 70 26.5t-15 84.5zM290 545l-110 -307h220zM376 731q0 -6 -6 -6t-10 4l-135 80q-21 13 -21 36q0 16 9.5 26
t25.5 10q20 0 41 -25l92 -116q4 -8 4 -9z" />
    <glyph glyph-name="Aacute" unicode="&#xc1;" horiz-adv-x="661" 
d="M438 133l-28 76h-240l-22 -60q-26 -76 -15 -97.5t76 -29.5v-22h-209v22q48 7 68 29t48 98l192 533h35l205 -543q28 -74 46 -92.5t67 -24.5v-22h-278v22q60 6 70 26.5t-15 84.5zM290 545l-110 -307h220zM261 731q0 4 4 9l91 116q21 25 42 25q16 0 25.5 -10t9.5 -26
q0 -23 -22 -36l-134 -80q-5 -4 -10 -4q-6 0 -6 6z" />
    <glyph glyph-name="Acircumflex" unicode="&#xc2;" horiz-adv-x="661" 
d="M438 133l-28 76h-240l-22 -60q-26 -76 -15 -97.5t76 -29.5v-22h-209v22q48 7 68 29t48 98l192 533h35l205 -543q28 -74 46 -92.5t67 -24.5v-22h-278v22q60 6 70 26.5t-15 84.5zM290 545l-110 -307h220zM313 881h24q67 -101 120 -147l-9 -12q-69 27 -123 68
q-53 -40 -123 -68l-9 12q61 54 120 147z" />
    <glyph glyph-name="Atilde" unicode="&#xc3;" horiz-adv-x="661" 
d="M438 133l-28 76h-240l-22 -60q-26 -76 -15 -97.5t76 -29.5v-22h-209v22q48 7 68 29t48 98l192 533h35l205 -543q28 -74 46 -92.5t67 -24.5v-22h-278v22q60 6 70 26.5t-15 84.5zM290 545l-110 -307h220zM393 754q-26 0 -73.5 17t-71.5 17q-41 0 -65 -34l-10 8
q7 40 30.5 66.5t55.5 26.5q26 0 73 -17t72 -17q41 0 65 34l10 -8q-8 -40 -31 -66.5t-55 -26.5z" />
    <glyph glyph-name="Adieresis" unicode="&#xc4;" horiz-adv-x="661" 
d="M438 133l-28 76h-240l-22 -60q-26 -76 -15 -97.5t76 -29.5v-22h-209v22q48 7 68 29t48 98l192 533h35l205 -543q28 -74 46 -92.5t67 -24.5v-22h-278v22q60 6 70 26.5t-15 84.5zM290 545l-110 -307h220zM185 803q0 22 16 37.5t39 15.5q22 0 38 -15.5t16 -37.5t-16 -38
t-38 -16t-38.5 16t-16.5 38zM367 803q0 22 16 37.5t38 15.5t38 -15.5t16 -37.5t-16 -38t-38 -16t-38 16t-16 38z" />
    <glyph glyph-name="Aring" unicode="&#xc5;" horiz-adv-x="661" 
d="M328 816q37 0 60 -25t23 -58q0 -26 -16 -49t-42 -31l195 -514q28 -74 46 -92.5t67 -24.5v-22h-278v22q60 6 70 26.5t-15 84.5l-28 76h-240l-22 -60q-26 -76 -15 -97.5t76 -29.5v-22h-209v22q48 7 68 29t48 98l182 506q-24 9 -38.5 31t-14.5 47q0 33 23 58t60 25zM290 545
l-110 -307h220zM277 733q0 -20 14.5 -35.5t36.5 -15.5t36 15.5t14 35.5t-14 35.5t-36 15.5t-36.5 -15.5t-14.5 -35.5z" />
    <glyph glyph-name="AE" unicode="&#xc6;" horiz-adv-x="894" 
d="M723 444h25v-228h-25q-9 66 -25.5 88t-63.5 22h-86v-185q0 -56 18 -83t66 -27h58q64 0 91.5 38t41.5 132h27v-201h-499v23q57 5 73.5 29.5t16.5 103.5v54h-225l-33 -61q-19 -34 -27 -52t-11.5 -34t5 -22.5t23.5 -11t44 -7.5v-22h-217v22q56 8 83 29.5t67 97.5l276 518
h415v-191h-26q-13 90 -41 125t-95 35h-131v-282h86q48 0 64.5 17t24.5 73zM230 238h211v399z" />
    <glyph glyph-name="Ccedilla" unicode="&#xc7;" horiz-adv-x="594" 
d="M542 135l23 -18q-91 -136 -227 -136q-2 0 -4 0.5t-3 0.5l-19 -30q73 -36 73 -90q0 -37 -29 -60t-73 -23q-27 0 -46 10.5t-19 27.5q0 12 6 18.5t15 6.5q13 0 27.5 -20t28.5 -20q31 0 31 37q0 33 -66 72l46 72q-124 12 -193.5 107t-69.5 235q0 149 81.5 251.5t208.5 102.5
q86 0 159 -49.5t73 -114.5q0 -26 -15.5 -44.5t-40.5 -18.5q-23 0 -40.5 18t-21.5 43q-13 82 -33.5 108.5t-82.5 26.5q-58 0 -96 -40t-53 -101t-15 -142q0 -64 11 -122t33 -108t61 -80t91 -30q105 0 179 110z" />
    <glyph glyph-name="Egrave" unicode="&#xc8;" horiz-adv-x="569" 
d="M399 444h24v-228h-24q-9 66 -26 88.5t-63 22.5h-86v-188q0 -56 18 -83t66 -27h58q63 0 91 39t42 133h26v-201h-498v23q57 5 73.5 29.5t16.5 103.5v387q0 59 -17 77t-75 24v23h491l1 -191h-26q-14 91 -42.5 126.5t-95.5 35.5h-129v-284h86q47 0 63.5 17t25.5 73zM373 731
q0 -6 -6 -6t-10 4l-135 80q-21 13 -21 36q0 16 9.5 26t25.5 10q20 0 41 -25l92 -116q4 -8 4 -9z" />
    <glyph glyph-name="Eacute" unicode="&#xc9;" horiz-adv-x="569" 
d="M399 444h24v-228h-24q-9 66 -26 88.5t-63 22.5h-86v-188q0 -56 18 -83t66 -27h58q63 0 91 39t42 133h26v-201h-498v23q57 5 73.5 29.5t16.5 103.5v387q0 59 -17 77t-75 24v23h491l1 -191h-26q-14 91 -42.5 126.5t-95.5 35.5h-129v-284h86q47 0 63.5 17t25.5 73zM201 731
q0 4 4 9l91 116q21 25 42 25q16 0 25.5 -10t9.5 -26q0 -23 -22 -36l-134 -80q-5 -4 -10 -4q-6 0 -6 6z" />
    <glyph glyph-name="Ecircumflex" unicode="&#xca;" horiz-adv-x="569" 
d="M399 444h24v-228h-24q-9 66 -26 88.5t-63 22.5h-86v-188q0 -56 18 -83t66 -27h58q63 0 91 39t42 133h26v-201h-498v23q57 5 73.5 29.5t16.5 103.5v387q0 59 -17 77t-75 24v23h491l1 -191h-26q-14 91 -42.5 126.5t-95.5 35.5h-129v-284h86q47 0 63.5 17t25.5 73zM275 881
h24q67 -101 120 -147l-9 -12q-69 27 -123 68q-53 -40 -123 -68l-9 12q61 54 120 147z" />
    <glyph glyph-name="Edieresis" unicode="&#xcb;" horiz-adv-x="569" 
d="M399 444h24v-228h-24q-9 66 -26 88.5t-63 22.5h-86v-188q0 -56 18 -83t66 -27h58q63 0 91 39t42 133h26v-201h-498v23q57 5 73.5 29.5t16.5 103.5v387q0 59 -17 77t-75 24v23h491l1 -191h-26q-14 91 -42.5 126.5t-95.5 35.5h-129v-284h86q47 0 63.5 17t25.5 73zM143 803
q0 22 16 37.5t39 15.5q22 0 38 -15.5t16 -37.5t-16 -38t-38 -16t-38.5 16t-16.5 38zM325 803q0 22 16 37.5t38 15.5t38 -15.5t16 -37.5t-16 -38t-38 -16t-38 16t-16 38z" />
    <glyph glyph-name="Igrave" unicode="&#xcc;" horiz-adv-x="347" 
d="M323 644q-64 -5 -80 -28t-16 -106v-353q0 -82 17 -105.5t80 -28.5v-23h-298v23q63 5 78.5 28.5t15.5 105.5v353q0 84 -15.5 106.5t-78.5 27.5v23h297v-23zM262 731q0 -6 -6 -6t-10 4l-135 80q-21 13 -21 36q0 16 9.5 26t25.5 10q20 0 41 -25l92 -116q4 -8 4 -9z" />
    <glyph glyph-name="Iacute" unicode="&#xcd;" horiz-adv-x="347" 
d="M323 644q-64 -5 -80 -28t-16 -106v-353q0 -82 17 -105.5t80 -28.5v-23h-298v23q63 5 78.5 28.5t15.5 105.5v353q0 84 -15.5 106.5t-78.5 27.5v23h297v-23zM89 731q0 4 4 9l91 116q21 25 42 25q16 0 25.5 -10t9.5 -26q0 -23 -22 -36l-134 -80q-5 -4 -10 -4q-6 0 -6 6z" />
    <glyph glyph-name="Icircumflex" unicode="&#xce;" horiz-adv-x="347" 
d="M323 644q-64 -5 -80 -28t-16 -106v-353q0 -82 17 -105.5t80 -28.5v-23h-298v23q63 5 78.5 28.5t15.5 105.5v353q0 84 -15.5 106.5t-78.5 27.5v23h297v-23zM163 881h24q67 -101 120 -147l-9 -12q-69 27 -123 68q-53 -40 -123 -68l-9 12q61 54 120 147z" />
    <glyph glyph-name="Idieresis" unicode="&#xcf;" horiz-adv-x="347" 
d="M323 644q-64 -5 -80 -28t-16 -106v-353q0 -82 17 -105.5t80 -28.5v-23h-298v23q63 5 78.5 28.5t15.5 105.5v353q0 84 -15.5 106.5t-78.5 27.5v23h297v-23zM30 803q0 22 16 37.5t39 15.5q22 0 38 -15.5t16 -37.5t-16 -38t-38 -16t-38.5 16t-16.5 38zM212 803q0 22 16 37.5
t38 15.5t38 -15.5t16 -37.5t-16 -38t-38 -16t-38 16t-16 38z" />
    <glyph glyph-name="Eth" unicode="&#xd0;" horiz-adv-x="692" 
d="M32 323v35h93v153q0 80 -16 104.5t-77 29.5v22h289q150 0 242 -89.5t92 -235.5q0 -144 -89.5 -243t-234.5 -99h-296v23q58 6 74 30.5t16 104.5v165h-93zM532 328q0 126 -55.5 218t-158.5 92h-86v-280h109v-35h-109v-162q0 -75 15.5 -103.5t65.5 -28.5h20q53 0 92.5 24.5
t62 67t33.5 94.5t11 113z" />
    <glyph glyph-name="Ntilde" unicode="&#xd1;" horiz-adv-x="708" 
d="M598 522v-530h-31l-419 585v-428q0 -77 17 -98t91 -28v-23h-236v23q64 6 79.5 27.5t15.5 95.5v374q0 76 -15 95.5t-81 26.5v25h200l346 -492v345q0 76 -17.5 97.5t-90.5 26.5v23h230v-23q-57 -5 -73 -27t-16 -95zM421 754q-26 0 -73.5 17t-71.5 17q-41 0 -65 -34l-10 8
q7 40 30.5 66.5t55.5 26.5q26 0 73 -17t72 -17q41 0 65 34l10 -8q-8 -40 -31 -66.5t-55 -26.5z" />
    <glyph glyph-name="Ograve" unicode="&#xd2;" horiz-adv-x="712" 
d="M668 331q0 -151 -83.5 -250.5t-228.5 -99.5q-144 0 -228.5 99t-84.5 249q0 151 84.5 250.5t228.5 99.5q145 0 228.5 -98.5t83.5 -249.5zM545 329q0 62 -9.5 115.5t-30 100.5t-59 74.5t-91.5 27.5t-91 -27t-58.5 -74t-29.5 -100t-9 -115t9.5 -115.5t29.5 -100.5
t58.5 -74.5t91.5 -27.5t91.5 27t59 74t29.5 100t9 115zM442 731q0 -6 -6 -6t-10 4l-135 80q-21 13 -21 36q0 16 9.5 26t25.5 10q20 0 41 -25l92 -116q4 -8 4 -9z" />
    <glyph glyph-name="Oacute" unicode="&#xd3;" horiz-adv-x="712" 
d="M668 331q0 -151 -83.5 -250.5t-228.5 -99.5q-144 0 -228.5 99t-84.5 249q0 151 84.5 250.5t228.5 99.5q145 0 228.5 -98.5t83.5 -249.5zM545 329q0 62 -9.5 115.5t-30 100.5t-59 74.5t-91.5 27.5t-91 -27t-58.5 -74t-29.5 -100t-9 -115t9.5 -115.5t29.5 -100.5
t58.5 -74.5t91.5 -27.5t91.5 27t59 74t29.5 100t9 115zM269 731q0 4 4 9l91 116q21 25 42 25q16 0 25.5 -10t9.5 -26q0 -23 -22 -36l-134 -80q-5 -4 -10 -4q-6 0 -6 6z" />
    <glyph glyph-name="Ocircumflex" unicode="&#xd4;" horiz-adv-x="712" 
d="M668 331q0 -151 -83.5 -250.5t-228.5 -99.5q-144 0 -228.5 99t-84.5 249q0 151 84.5 250.5t228.5 99.5q145 0 228.5 -98.5t83.5 -249.5zM545 329q0 62 -9.5 115.5t-30 100.5t-59 74.5t-91.5 27.5t-91 -27t-58.5 -74t-29.5 -100t-9 -115t9.5 -115.5t29.5 -100.5
t58.5 -74.5t91.5 -27.5t91.5 27t59 74t29.5 100t9 115zM344 881h24q67 -101 120 -147l-9 -12q-69 27 -123 68q-53 -40 -123 -68l-9 12q61 54 120 147z" />
    <glyph glyph-name="Otilde" unicode="&#xd5;" horiz-adv-x="712" 
d="M668 331q0 -151 -83.5 -250.5t-228.5 -99.5q-144 0 -228.5 99t-84.5 249q0 151 84.5 250.5t228.5 99.5q145 0 228.5 -98.5t83.5 -249.5zM545 329q0 62 -9.5 115.5t-30 100.5t-59 74.5t-91.5 27.5t-91 -27t-58.5 -74t-29.5 -100t-9 -115t9.5 -115.5t29.5 -100.5
t58.5 -74.5t91.5 -27.5t91.5 27t59 74t29.5 100t9 115zM423 754q-26 0 -73.5 17t-71.5 17q-41 0 -65 -34l-10 8q7 40 30.5 66.5t55.5 26.5q26 0 73 -17t72 -17q41 0 65 34l10 -8q-8 -40 -31 -66.5t-55 -26.5z" />
    <glyph glyph-name="Odieresis" unicode="&#xd6;" horiz-adv-x="712" 
d="M668 331q0 -151 -83.5 -250.5t-228.5 -99.5q-144 0 -228.5 99t-84.5 249q0 151 84.5 250.5t228.5 99.5q145 0 228.5 -98.5t83.5 -249.5zM545 329q0 62 -9.5 115.5t-30 100.5t-59 74.5t-91.5 27.5t-91 -27t-58.5 -74t-29.5 -100t-9 -115t9.5 -115.5t29.5 -100.5
t58.5 -74.5t91.5 -27.5t91.5 27t59 74t29.5 100t9 115zM210 803q0 22 16 37.5t39 15.5q22 0 38 -15.5t16 -37.5t-16 -38t-38 -16t-38.5 16t-16.5 38zM392 803q0 22 16 37.5t38 15.5t38 -15.5t16 -37.5t-16 -38t-38 -16t-38 16t-16 38z" />
    <glyph glyph-name="multiply" unicode="&#xd7;" horiz-adv-x="516" 
d="M88 391l23 23l150 -151l154 153l21 -24l-152 -151l150 -150l-24 -23l-150 150l-148 -148l-22 24l148 146z" />
    <glyph glyph-name="Oslash" unicode="&#xd8;" horiz-adv-x="712" 
d="M563 709l-40 -76q70 -45 107.5 -124t37.5 -178q0 -151 -83.5 -250.5t-228.5 -99.5q-84 0 -151 36l-43 -84l-24 12l44 86q-67 45 -103 123.5t-36 174.5q0 151 84.5 250.5t228.5 99.5q79 0 145 -33l38 74zM545 329q0 157 -54 241l-258 -499q47 -58 123 -58q53 0 91.5 27
t59 74t29.5 100t9 115zM167 331q0 -153 49 -235l258 498q-48 53 -119 53q-53 0 -91 -27t-58.5 -74t-29.5 -100t-9 -115z" />
    <glyph glyph-name="Ugrave" unicode="&#xd9;" horiz-adv-x="677" 
d="M544 228v276q0 89 -16 111.5t-82 28.5v23h224v-23q-63 -6 -77.5 -28.5t-14.5 -111.5v-279q0 -114 -55.5 -178.5t-174.5 -64.5q-115 0 -178 65.5t-63 182.5v282q0 80 -16.5 103t-75.5 29v23h296v-23q-61 -6 -78.5 -28t-17.5 -104v-279q0 -216 148 -216q96 0 138.5 54
t42.5 157zM430 731q0 -6 -6 -6t-10 4l-135 80q-21 13 -21 36q0 16 9.5 26t25.5 10q20 0 41 -25l92 -116q4 -8 4 -9z" />
    <glyph glyph-name="Uacute" unicode="&#xda;" horiz-adv-x="677" 
d="M544 228v276q0 89 -16 111.5t-82 28.5v23h224v-23q-63 -6 -77.5 -28.5t-14.5 -111.5v-279q0 -114 -55.5 -178.5t-174.5 -64.5q-115 0 -178 65.5t-63 182.5v282q0 80 -16.5 103t-75.5 29v23h296v-23q-61 -6 -78.5 -28t-17.5 -104v-279q0 -216 148 -216q96 0 138.5 54
t42.5 157zM258 731q0 4 4 9l91 116q21 25 42 25q16 0 25.5 -10t9.5 -26q0 -23 -22 -36l-134 -80q-5 -4 -10 -4q-6 0 -6 6z" />
    <glyph glyph-name="Ucircumflex" unicode="&#xdb;" horiz-adv-x="677" 
d="M544 228v276q0 89 -16 111.5t-82 28.5v23h224v-23q-63 -6 -77.5 -28.5t-14.5 -111.5v-279q0 -114 -55.5 -178.5t-174.5 -64.5q-115 0 -178 65.5t-63 182.5v282q0 80 -16.5 103t-75.5 29v23h296v-23q-61 -6 -78.5 -28t-17.5 -104v-279q0 -216 148 -216q96 0 138.5 54
t42.5 157zM332 881h24q67 -101 120 -147l-9 -12q-69 27 -123 68q-53 -40 -123 -68l-9 12q61 54 120 147z" />
    <glyph glyph-name="Udieresis" unicode="&#xdc;" horiz-adv-x="677" 
d="M544 228v276q0 89 -16 111.5t-82 28.5v23h224v-23q-63 -6 -77.5 -28.5t-14.5 -111.5v-279q0 -114 -55.5 -178.5t-174.5 -64.5q-115 0 -178 65.5t-63 182.5v282q0 80 -16.5 103t-75.5 29v23h296v-23q-61 -6 -78.5 -28t-17.5 -104v-279q0 -216 148 -216q96 0 138.5 54
t42.5 157zM198 803q0 22 16 37.5t39 15.5q22 0 38 -15.5t16 -37.5t-16 -38t-38 -16t-38.5 16t-16.5 38zM380 803q0 22 16 37.5t38 15.5t38 -15.5t16 -37.5t-16 -38t-38 -16t-38 16t-16 38z" />
    <glyph glyph-name="Yacute" unicode="&#xdd;" horiz-adv-x="634" 
d="M0 644v23h283v-23q-53 -2 -63.5 -16.5t11.5 -49.5l133 -224l110 208q25 47 13.5 63.5t-73.5 18.5v23h220v-23q-53 -3 -76 -19t-52 -69l-126 -232v-169q0 -76 17.5 -102t79.5 -30v-23h-301v23q63 4 80 29.5t17 102.5v154l-157 254q-30 47 -52 63t-64 18zM262 731q0 1 4 9
l92 116q21 25 41 25q16 0 25.5 -10t9.5 -26q0 -23 -21 -36l-135 -80q-4 -4 -10 -4t-6 6z" />
    <glyph glyph-name="Thorn" unicode="&#xde;" horiz-adv-x="584" 
d="M323 644q-59 -5 -77 -24.5t-19 -84.5l93 2q101 0 163.5 -46t62.5 -135q0 -194 -273 -208l-9 24q87 9 126.5 50t39.5 124q0 74 -39 116.5t-113 42.5h-51v-348q0 -82 17 -105.5t80 -28.5v-23h-298v23q63 5 78.5 28.5t15.5 105.5v353q0 84 -15.5 106.5t-78.5 27.5v23h297
v-23z" />
    <glyph glyph-name="germandbls" unicode="&#xdf;" horiz-adv-x="568" 
d="M389 13q34 0 57 24t23 67q0 37 -19.5 65t-68.5 54q-87 46 -109 65q-33 30 -33 71q0 13 4 25t12.5 25t14.5 20.5t18 20.5t15 17q51 64 51 115q0 41 -17 70.5t-50 29.5q-53 0 -76.5 -45t-23.5 -105v-405q0 -37 2 -56.5t12 -35t30 -15.5l1 -20h-222v20q46 1 60.5 22.5
t14.5 86.5v337q0 108 67.5 179t179.5 71q54 0 87 -27.5t33 -77.5q0 -25 -15.5 -50t-37.5 -45t-44.5 -38.5t-38 -36.5t-15.5 -34q0 -18 17 -33.5t62.5 -40t53.5 -29.5q62 -36 87.5 -72.5t25.5 -91.5q0 -62 -49 -106t-106 -45t-107 31t-50 86q0 21 12 35t31 14q44 0 50 -50
q4 -30 6 -41t8.5 -26t17.5 -20t29 -5z" />
    <glyph glyph-name="agrave" unicode="&#xe0;" horiz-adv-x="470" 
d="M287 59q-49 -75 -123 -75q-54 0 -92 36.5t-38 92.5q0 109 143 141q63 12 107 15v61q0 64 -13 94.5t-51 30.5q-37 0 -49.5 -17.5t-20.5 -71.5q-4 -26 -18.5 -40.5t-36.5 -14.5q-21 0 -35 15t-14 37q0 51 58 84t123 33q79 0 119 -30.5t40 -105.5v-249q0 -65 29 -65
q23 0 44 46l18 -10q-35 -82 -102 -82q-72 0 -88 75zM141 128q0 -38 19 -67.5t46 -29.5q43 0 78 62v154q-52 -6 -81 -17q-33 -12 -47.5 -35.5t-14.5 -66.5zM321 526q0 -6 -6 -6t-10 4l-135 80q-21 13 -21 36q0 16 9.5 26t25.5 10q20 0 41 -25l92 -116q4 -8 4 -9z" />
    <glyph glyph-name="aacute" unicode="&#xe1;" horiz-adv-x="470" 
d="M287 59q-49 -75 -123 -75q-54 0 -92 36.5t-38 92.5q0 109 143 141q63 12 107 15v61q0 64 -13 94.5t-51 30.5q-37 0 -49.5 -17.5t-20.5 -71.5q-4 -26 -18.5 -40.5t-36.5 -14.5q-21 0 -35 15t-14 37q0 51 58 84t123 33q79 0 119 -30.5t40 -105.5v-249q0 -65 29 -65
q23 0 44 46l18 -10q-35 -82 -102 -82q-72 0 -88 75zM141 128q0 -38 19 -67.5t46 -29.5q43 0 78 62v154q-52 -6 -81 -17q-33 -12 -47.5 -35.5t-14.5 -66.5zM149 526q0 4 4 9l91 116q21 25 42 25q16 0 25.5 -10t9.5 -26q0 -23 -22 -36l-134 -80q-5 -4 -10 -4q-6 0 -6 6z" />
    <glyph glyph-name="acircumflex" unicode="&#xe2;" horiz-adv-x="470" 
d="M287 59q-49 -75 -123 -75q-54 0 -92 36.5t-38 92.5q0 109 143 141q63 12 107 15v61q0 64 -13 94.5t-51 30.5q-37 0 -49.5 -17.5t-20.5 -71.5q-4 -26 -18.5 -40.5t-36.5 -14.5q-21 0 -35 15t-14 37q0 51 58 84t123 33q79 0 119 -30.5t40 -105.5v-249q0 -65 29 -65
q23 0 44 46l18 -10q-35 -82 -102 -82q-72 0 -88 75zM141 128q0 -38 19 -67.5t46 -29.5q43 0 78 62v154q-52 -6 -81 -17q-33 -12 -47.5 -35.5t-14.5 -66.5zM223 676h24q67 -101 120 -147l-9 -12q-69 27 -123 68q-53 -40 -123 -68l-9 12q61 54 120 147z" />
    <glyph glyph-name="atilde" unicode="&#xe3;" horiz-adv-x="470" 
d="M287 59q-49 -75 -123 -75q-54 0 -92 36.5t-38 92.5q0 109 143 141q63 12 107 15v61q0 64 -13 94.5t-51 30.5q-37 0 -49.5 -17.5t-20.5 -71.5q-4 -26 -18.5 -40.5t-36.5 -14.5q-21 0 -35 15t-14 37q0 51 58 84t123 33q79 0 119 -30.5t40 -105.5v-249q0 -65 29 -65
q23 0 44 46l18 -10q-35 -82 -102 -82q-72 0 -88 75zM141 128q0 -38 19 -67.5t46 -29.5q43 0 78 62v154q-52 -6 -81 -17q-33 -12 -47.5 -35.5t-14.5 -66.5zM302 549q-26 0 -73.5 17t-71.5 17q-41 0 -65 -34l-10 8q7 40 30.5 66.5t55.5 26.5q26 0 73 -17t72 -17q41 0 65 34
l10 -8q-8 -40 -31 -66.5t-55 -26.5z" />
    <glyph glyph-name="adieresis" unicode="&#xe4;" horiz-adv-x="470" 
d="M287 59q-49 -75 -123 -75q-54 0 -92 36.5t-38 92.5q0 109 143 141q63 12 107 15v61q0 64 -13 94.5t-51 30.5q-37 0 -49.5 -17.5t-20.5 -71.5q-4 -26 -18.5 -40.5t-36.5 -14.5q-21 0 -35 15t-14 37q0 51 58 84t123 33q79 0 119 -30.5t40 -105.5v-249q0 -65 29 -65
q23 0 44 46l18 -10q-35 -82 -102 -82q-72 0 -88 75zM141 128q0 -38 19 -67.5t46 -29.5q43 0 78 62v154q-52 -6 -81 -17q-33 -12 -47.5 -35.5t-14.5 -66.5zM90 598q0 22 16 37.5t39 15.5q22 0 38 -15.5t16 -37.5t-16 -38t-38 -16t-38.5 16t-16.5 38zM272 598q0 22 16 37.5
t38 15.5t38 -15.5t16 -37.5t-16 -38t-38 -16t-38 16t-16 38z" />
    <glyph glyph-name="aring" unicode="&#xe5;" horiz-adv-x="470" 
d="M287 59q-49 -75 -123 -75q-54 0 -92 36.5t-38 92.5q0 109 143 141q63 12 107 15v61q0 64 -13 94.5t-51 30.5q-37 0 -49.5 -17.5t-20.5 -71.5q-4 -26 -18.5 -40.5t-36.5 -14.5q-21 0 -35 15t-14 37q0 51 58 84t123 33q79 0 119 -30.5t40 -105.5v-249q0 -65 29 -65
q23 0 44 46l18 -10q-35 -82 -102 -82q-72 0 -88 75zM141 128q0 -38 19 -67.5t46 -29.5q43 0 78 62v154q-52 -6 -81 -17q-33 -12 -47.5 -35.5t-14.5 -66.5zM217 670q37 0 60 -25t23 -58t-23 -58t-60 -25t-60 25t-23 58t23 58t60 25zM166 587q0 -20 14.5 -35.5t36.5 -15.5
t36 15.5t14 35.5t-14 35.5t-36 15.5t-36.5 -15.5t-14.5 -35.5z" />
    <glyph glyph-name="ae" unicode="&#xe6;" horiz-adv-x="704" 
d="M680 248h-287v-23q0 -93 32.5 -146.5t95.5 -53.5q77 0 136 73l16 -17q-69 -97 -181 -97q-122 0 -176 108q-60 -108 -152 -108q-54 0 -92 36.5t-38 92.5q0 109 143 141q63 12 107 15v61q0 64 -13 94.5t-51 30.5q-37 0 -49.5 -17.5t-20.5 -71.5q-4 -26 -18.5 -40.5
t-36.5 -14.5q-21 0 -35 15t-14 37q0 51 58 84t123 33q98 0 133 -46q52 46 132 46q93 0 140.5 -63t47.5 -169zM489 454q-83 0 -95 -181h177q0 88 -18 134.5t-64 46.5zM141 128q0 -38 19 -67.5t46 -29.5q24 0 51 24.5t47 64.5q-20 52 -20 116v10q-55 -6 -81 -16
q-33 -12 -47.5 -35.5t-14.5 -66.5z" />
    <glyph glyph-name="ccedilla" unicode="&#xe7;" horiz-adv-x="426" 
d="M296 365q-8 58 -18.5 73.5t-44.5 15.5q-92 0 -92 -210q0 -55 12 -103t40 -81.5t69 -33.5q68 0 121 66l17 -18q-62 -85 -150 -90l-20 -32q73 -36 73 -90q0 -37 -29 -60t-73 -23q-27 0 -46 10.5t-19 27.5q0 12 6 18.5t15 6.5q13 0 27.5 -20t28.5 -20q31 0 31 37
q0 33 -66 72l47 72q-92 5 -143 72t-51 169q0 108 57.5 182t149.5 74q61 0 111.5 -32.5t50.5 -82.5q0 -24 -14.5 -39.5t-37.5 -15.5q-21 0 -35 15.5t-17 39.5z" />
    <glyph glyph-name="egrave" unicode="&#xe8;" horiz-adv-x="454" 
d="M427 248h-287v-23q0 -93 32.5 -146.5t95.5 -53.5q77 0 136 73l16 -17q-68 -97 -181 -97q-98 0 -153 66.5t-55 173.5t54.5 181.5t153.5 74.5q93 0 140.5 -63t47.5 -169zM236 454q-83 0 -95 -181h177q0 88 -18 134.5t-64 46.5zM315 526q0 -6 -6 -6t-10 4l-135 80
q-21 13 -21 36q0 16 9.5 26t25.5 10q20 0 41 -25l92 -116q4 -8 4 -9z" />
    <glyph glyph-name="eacute" unicode="&#xe9;" horiz-adv-x="454" 
d="M427 248h-287v-23q0 -93 32.5 -146.5t95.5 -53.5q77 0 136 73l16 -17q-68 -97 -181 -97q-98 0 -153 66.5t-55 173.5t54.5 181.5t153.5 74.5q93 0 140.5 -63t47.5 -169zM236 454q-83 0 -95 -181h177q0 88 -18 134.5t-64 46.5zM143 526q0 4 4 9l91 116q21 25 42 25
q16 0 25.5 -10t9.5 -26q0 -23 -22 -36l-134 -80q-5 -4 -10 -4q-6 0 -6 6z" />
    <glyph glyph-name="ecircumflex" unicode="&#xea;" horiz-adv-x="454" 
d="M427 248h-287v-23q0 -93 32.5 -146.5t95.5 -53.5q77 0 136 73l16 -17q-68 -97 -181 -97q-98 0 -153 66.5t-55 173.5t54.5 181.5t153.5 74.5q93 0 140.5 -63t47.5 -169zM236 454q-83 0 -95 -181h177q0 88 -18 134.5t-64 46.5zM217 676h24q67 -101 120 -147l-9 -12
q-69 27 -123 68q-53 -40 -123 -68l-9 12q61 54 120 147z" />
    <glyph glyph-name="edieresis" unicode="&#xeb;" horiz-adv-x="454" 
d="M427 248h-287v-23q0 -93 32.5 -146.5t95.5 -53.5q77 0 136 73l16 -17q-68 -97 -181 -97q-98 0 -153 66.5t-55 173.5t54.5 181.5t153.5 74.5q93 0 140.5 -63t47.5 -169zM236 454q-83 0 -95 -181h177q0 88 -18 134.5t-64 46.5zM83 598q0 22 16 37.5t39 15.5q22 0 38 -15.5
t16 -37.5t-16 -38t-38 -16t-38.5 16t-16.5 38zM265 598q0 22 16 37.5t38 15.5t38 -15.5t16 -37.5t-16 -38t-38 -16t-38 16t-16 38z" />
    <glyph glyph-name="igrave" unicode="&#xec;" horiz-adv-x="272" 
d="M190 472v-352q0 -56 13.5 -75t58.5 -26v-19l-120 2l-130 -2v19q51 7 63.5 25t12.5 82v234q0 46 -14 60.5t-61 16.5v19l174 20zM224 526q0 -6 -6 -6t-10 4l-135 80q-21 13 -21 36q0 16 9.5 26t25.5 10q20 0 41 -25l92 -116q4 -8 4 -9z" />
    <glyph glyph-name="iacute" unicode="&#xed;" horiz-adv-x="272" 
d="M190 472v-352q0 -56 13.5 -75t58.5 -26v-19l-120 2l-130 -2v19q51 7 63.5 25t12.5 82v234q0 46 -14 60.5t-61 16.5v19l174 20zM51 526q0 4 4 9l91 116q21 25 42 25q16 0 25.5 -10t9.5 -26q0 -23 -22 -36l-134 -80q-5 -4 -10 -4q-6 0 -6 6z" />
    <glyph glyph-name="icircumflex" unicode="&#xee;" horiz-adv-x="272" 
d="M190 472v-352q0 -56 13.5 -75t58.5 -26v-19l-120 2l-130 -2v19q51 7 63.5 25t12.5 82v234q0 46 -14 60.5t-61 16.5v19l174 20zM125 676h24q67 -101 120 -147l-9 -12q-69 27 -123 68q-53 -40 -123 -68l-9 12q61 54 120 147z" />
    <glyph glyph-name="idieresis" unicode="&#xef;" horiz-adv-x="272" 
d="M190 472v-352q0 -56 13.5 -75t58.5 -26v-19l-120 2l-130 -2v19q51 7 63.5 25t12.5 82v234q0 46 -14 60.5t-61 16.5v19l174 20zM-8 598q0 22 16 37.5t39 15.5q22 0 38 -15.5t16 -37.5t-16 -38t-38 -16t-38.5 16t-16.5 38zM174 598q0 22 16 37.5t38 15.5t38 -15.5t16 -37.5
t-16 -38t-38 -16t-38 16t-16 38z" />
    <glyph glyph-name="eth" unicode="&#xf0;" horiz-adv-x="487" 
d="M234 487l-28 16l58 102q-24 16 -55 16q-35 0 -48.5 -17t-21.5 -75q-3 -22 -17.5 -36t-34.5 -14q-22 0 -36 17t-14 39q0 48 53 81t115 33q41 0 76 -15l47 82l28 -17l-46 -79q69 -43 106.5 -136t37.5 -210q0 -126 -62.5 -207t-156.5 -81q-87 0 -145.5 67.5t-58.5 156.5
q0 91 53 146.5t124 55.5q95 0 135 -91h4q-11 202 -58 262zM138 210q0 -195 97 -195q54 0 83 56.5t29 132.5q0 73 -32 125.5t-85 52.5q-46 0 -69 -48t-23 -124z" />
    <glyph glyph-name="ntilde" unicode="&#xf1;" horiz-adv-x="541" 
d="M189 472v-72q49 80 129 80q67 0 106 -42t39 -113v-194q0 -65 11.5 -84t55.5 -27v-20l-112 2l-117 -2v20q41 7 51 27t10 90v180q0 51 -19.5 86t-56.5 35q-59 0 -97 -80v-238q0 -58 10 -75.5t52 -24.5v-20l-115 2l-119 -2v20q46 6 58 24t12 82v232q0 48 -12.5 62.5
t-60.5 16.5v19l172 20zM336 549q-26 0 -73.5 17t-71.5 17q-41 0 -65 -34l-10 8q7 40 30.5 66.5t55.5 26.5q26 0 73 -17t72 -17q41 0 65 34l10 -8q-8 -40 -31 -66.5t-55 -26.5z" />
    <glyph glyph-name="ograve" unicode="&#xf2;" horiz-adv-x="501" 
d="M470 231q0 -111 -60 -179.5t-158 -68.5t-159.5 68.5t-61.5 179.5q0 110 62 179.5t159 69.5t157.5 -69t60.5 -180zM361 231q0 43 -5 79.5t-16.5 69.5t-34 52t-54.5 19t-54.5 -19t-34.5 -52t-17 -69.5t-5 -79.5t5.5 -79.5t17.5 -69t34.5 -51.5t54.5 -19q109 0 109 219z
M337 526q0 -6 -6 -6t-10 4l-135 80q-21 13 -21 36q0 16 9.5 26t25.5 10q20 0 41 -25l92 -116q4 -8 4 -9z" />
    <glyph glyph-name="oacute" unicode="&#xf3;" horiz-adv-x="501" 
d="M470 231q0 -111 -60 -179.5t-158 -68.5t-159.5 68.5t-61.5 179.5q0 110 62 179.5t159 69.5t157.5 -69t60.5 -180zM361 231q0 43 -5 79.5t-16.5 69.5t-34 52t-54.5 19t-54.5 -19t-34.5 -52t-17 -69.5t-5 -79.5t5.5 -79.5t17.5 -69t34.5 -51.5t54.5 -19q109 0 109 219z
M165 526q0 4 4 9l91 116q21 25 42 25q16 0 25.5 -10t9.5 -26q0 -23 -22 -36l-134 -80q-5 -4 -10 -4q-6 0 -6 6z" />
    <glyph glyph-name="ocircumflex" unicode="&#xf4;" horiz-adv-x="501" 
d="M470 231q0 -111 -60 -179.5t-158 -68.5t-159.5 68.5t-61.5 179.5q0 110 62 179.5t159 69.5t157.5 -69t60.5 -180zM361 231q0 43 -5 79.5t-16.5 69.5t-34 52t-54.5 19t-54.5 -19t-34.5 -52t-17 -69.5t-5 -79.5t5.5 -79.5t17.5 -69t34.5 -51.5t54.5 -19q109 0 109 219z
M239 676h24q67 -101 120 -147l-9 -12q-69 27 -123 68q-53 -40 -123 -68l-9 12q61 54 120 147z" />
    <glyph glyph-name="otilde" unicode="&#xf5;" horiz-adv-x="501" 
d="M470 231q0 -111 -60 -179.5t-158 -68.5t-159.5 68.5t-61.5 179.5q0 110 62 179.5t159 69.5t157.5 -69t60.5 -180zM361 231q0 43 -5 79.5t-16.5 69.5t-34 52t-54.5 19t-54.5 -19t-34.5 -52t-17 -69.5t-5 -79.5t5.5 -79.5t17.5 -69t34.5 -51.5t54.5 -19q109 0 109 219z
M318 549q-26 0 -73.5 17t-71.5 17q-41 0 -65 -34l-10 8q7 40 30.5 66.5t55.5 26.5q26 0 73 -17t72 -17q41 0 65 34l10 -8q-8 -40 -31 -66.5t-55 -26.5z" />
    <glyph glyph-name="odieresis" unicode="&#xf6;" horiz-adv-x="501" 
d="M470 231q0 -111 -60 -179.5t-158 -68.5t-159.5 68.5t-61.5 179.5q0 110 62 179.5t159 69.5t157.5 -69t60.5 -180zM361 231q0 43 -5 79.5t-16.5 69.5t-34 52t-54.5 19t-54.5 -19t-34.5 -52t-17 -69.5t-5 -79.5t5.5 -79.5t17.5 -69t34.5 -51.5t54.5 -19q109 0 109 219z
M105 598q0 22 16 37.5t39 15.5q22 0 38 -15.5t16 -37.5t-16 -38t-38 -16t-38.5 16t-16.5 38zM287 598q0 22 16 37.5t38 15.5t38 -15.5t16 -37.5t-16 -38t-38 -16t-38 16t-16 38z" />
    <glyph glyph-name="divide" unicode="&#xf7;" horiz-adv-x="516" 
d="M201 398q0 22 16 37.5t39 15.5q22 0 38 -15.5t16 -37.5t-16 -38t-38 -16q-23 0 -39 16t-16 38zM201 48q0 22 16 37.5t39 15.5q22 0 38 -15.5t16 -37.5t-16 -38t-38 -16q-23 0 -39 16t-16 38zM451 211h-390v31h390v-31z" />
    <glyph glyph-name="oslash" unicode="&#xf8;" horiz-adv-x="501" 
d="M447 580l-72 -138q95 -69 95 -211q0 -111 -60 -179.5t-158 -68.5q-56 0 -104 24l-66 -127l-24 11l68 130q-95 68 -95 210q0 110 62 179.5t159 69.5q54 0 100 -24l71 135zM361 231q0 86 -21 145l-165 -318q28 -46 77 -46q109 0 109 219zM140 231q0 -88 20 -143l166 318
q-28 45 -75 45q-32 0 -54.5 -19t-34.5 -52t-17 -69.5t-5 -79.5z" />
    <glyph glyph-name="ugrave" unicode="&#xf9;" horiz-adv-x="545" 
d="M463 476l5 -4q-6 -42 -6 -250v-120q0 -49 13.5 -61.5t69.5 -15.5v-19l-175 -18l-4 5l-5 75q-19 -38 -54 -62t-79 -24q-68 0 -108 40t-40 108v227q0 50 -13.5 64.5t-66.5 18.5v19l184 20l3 -4q-5 -50 -5 -331q0 -54 20 -87t60 -33q33 0 58.5 24.5t39.5 64.5v244
q0 50 -13.5 64.5t-65.5 18.5v19zM355 526q0 -6 -6 -6t-10 4l-135 80q-21 13 -21 36q0 16 9.5 26t25.5 10q20 0 41 -25l92 -116q4 -8 4 -9z" />
    <glyph glyph-name="uacute" unicode="&#xfa;" horiz-adv-x="545" 
d="M463 476l5 -4q-6 -42 -6 -250v-120q0 -49 13.5 -61.5t69.5 -15.5v-19l-175 -18l-4 5l-5 75q-19 -38 -54 -62t-79 -24q-68 0 -108 40t-40 108v227q0 50 -13.5 64.5t-66.5 18.5v19l184 20l3 -4q-5 -50 -5 -331q0 -54 20 -87t60 -33q33 0 58.5 24.5t39.5 64.5v244
q0 50 -13.5 64.5t-65.5 18.5v19zM183 526q0 4 4 9l91 116q21 25 42 25q16 0 25.5 -10t9.5 -26q0 -23 -22 -36l-134 -80q-5 -4 -10 -4q-6 0 -6 6z" />
    <glyph glyph-name="ucircumflex" unicode="&#xfb;" horiz-adv-x="545" 
d="M463 476l5 -4q-6 -42 -6 -250v-120q0 -49 13.5 -61.5t69.5 -15.5v-19l-175 -18l-4 5l-5 75q-19 -38 -54 -62t-79 -24q-68 0 -108 40t-40 108v227q0 50 -13.5 64.5t-66.5 18.5v19l184 20l3 -4q-5 -50 -5 -331q0 -54 20 -87t60 -33q33 0 58.5 24.5t39.5 64.5v244
q0 50 -13.5 64.5t-65.5 18.5v19zM257 676h24q67 -101 120 -147l-9 -12q-69 27 -123 68q-53 -40 -123 -68l-9 12q61 54 120 147z" />
    <glyph glyph-name="udieresis" unicode="&#xfc;" horiz-adv-x="545" 
d="M463 476l5 -4q-6 -42 -6 -250v-120q0 -49 13.5 -61.5t69.5 -15.5v-19l-175 -18l-4 5l-5 75q-19 -38 -54 -62t-79 -24q-68 0 -108 40t-40 108v227q0 50 -13.5 64.5t-66.5 18.5v19l184 20l3 -4q-5 -50 -5 -331q0 -54 20 -87t60 -33q33 0 58.5 24.5t39.5 64.5v244
q0 50 -13.5 64.5t-65.5 18.5v19zM123 598q0 22 16 37.5t39 15.5q22 0 38 -15.5t16 -37.5t-16 -38t-38 -16t-38.5 16t-16.5 38zM305 598q0 22 16 37.5t38 15.5t38 -15.5t16 -37.5t-16 -38t-38 -16t-38 16t-16 38z" />
    <glyph glyph-name="yacute" unicode="&#xfd;" horiz-adv-x="512" 
d="M425 379l-174 -468q-26 -67 -57.5 -97.5t-77.5 -30.5q-27 0 -45.5 14.5t-18.5 38.5q0 19 14.5 32.5t33.5 13.5q14 0 34 -15t32 -15q19 0 31 14.5t24 47.5l27 69l-160 402q-19 49 -88 57v20l122 -2l132 2v-20q-53 -4 -64.5 -20.5t4.5 -48.5l102 -262l99 274q10 29 -4.5 42
t-57.5 15v20l104 -2l75 2v-20q-38 -2 -56.5 -16t-30.5 -47zM205 526q0 1 4 9l92 116q21 25 41 25q16 0 25.5 -10t9.5 -26q0 -23 -21 -36l-135 -80q-4 -4 -10 -4t-6 6z" />
    <glyph glyph-name="thorn" unicode="&#xfe;" horiz-adv-x="529" 
d="M184 702v-298q20 33 54 54.5t73 21.5q91 0 138.5 -69t47.5 -174q0 -111 -56 -183t-159 -72q-57 0 -98 26v-119q0 -58 15.5 -76.5t75.5 -24.5v-19h-268v19q51 6 63 24t12 83v690q0 48 -13 63t-64 20v19l174 20zM283 441q-59 0 -99 -78v-297q31 -55 95 -55q40 0 65.5 34.5
t34 79t8.5 99.5t-8.5 101t-33 81t-62.5 35z" />
    <glyph glyph-name="ydieresis" unicode="&#xff;" horiz-adv-x="512" 
d="M251 -89l174 468q12 33 30.5 47t56.5 16v20l-75 -2l-104 2v-20q43 -2 57.5 -15t4.5 -42l-99 -274l-102 262q-16 32 -4.5 48.5t64.5 20.5v20l-132 -2l-122 2v-20q69 -8 88 -57l160 -402l-27 -69q-12 -33 -24 -47.5t-31 -14.5q-12 0 -32 15t-34 15q-19 0 -33.5 -13.5
t-14.5 -32.5q0 -24 18.5 -38.5t45.5 -14.5q46 0 77.5 30.5t57.5 97.5zM130 598q0 22 16 37.5t39 15.5q22 0 38 -15.5t16 -37.5t-16 -38t-38 -16t-38.5 16t-16.5 38zM312 598q0 22 16 37.5t38 15.5t38 -15.5t16 -37.5t-16 -38t-38 -16t-38 16t-16 38z" />
    <glyph glyph-name="dotlessi" unicode="&#x131;" horiz-adv-x="272" 
d="M190 472v-352q0 -56 13.5 -75t58.5 -26v-19l-120 2l-130 -2v19q51 7 63.5 25t12.5 82v234q0 46 -14 60.5t-61 16.5v19l174 20z" />
    <glyph glyph-name="Lslash" unicode="&#x141;" horiz-adv-x="549" 
d="M30 270l-9 33l95 27v180q0 81 -15.5 104.5t-77.5 29.5v23h310v-23q-72 -6 -90.5 -30t-18.5 -104v-148l183 53l9 -34l-192 -56v-198q0 -58 15.5 -78t65.5 -20h36q73 0 103.5 38t50.5 148h27l-5 -215h-498v23q64 5 80.5 28.5t16.5 105.5v137z" />
    <glyph glyph-name="lslash" unicode="&#x142;" horiz-adv-x="298" 
d="M20 310l-8 30l75 20v223q0 45 -13 58.5t-62 23.5v17l179 24l6 -7l-7 -186v-126l83 23l8 -30l-91 -25v-231q0 -58 13 -77.5t57 -26.5v-20l-124 2l-120 -2v20q46 5 58.5 25t12.5 85v198z" />
    <glyph glyph-name="OE" unicode="&#x152;" horiz-adv-x="922" 
d="M751 444h24v-228h-24q-9 66 -26 88.5t-63 22.5h-86v-185q0 -57 17.5 -85t66.5 -28h58q63 0 91 39t42 133h26v-201h-406q-55 -19 -115 -19q-144 0 -228.5 99t-84.5 249q0 151 84.5 250.5t228.5 99.5q54 0 101 -12h412v-191h-26q-14 91 -42.5 126.5t-95.5 35.5h-129v-284
h86q48 0 64 16.5t25 73.5zM356 13q69 0 91 31t22 112v371q0 68 -26 94t-88 26q-53 0 -91 -27t-58.5 -74t-29.5 -100t-9 -115t9.5 -115.5t29.5 -100.5t58.5 -74.5t91.5 -27.5z" />
    <glyph glyph-name="oe" unicode="&#x153;" horiz-adv-x="782" 
d="M757 248h-287v-23v-5q1 -90 33.5 -142.5t94.5 -52.5q77 0 136 73l16 -17q-68 -97 -181 -97q-101 0 -156 71q-61 -72 -161 -72q-98 0 -159.5 68.5t-61.5 179.5q0 110 62 179.5t159 69.5q101 0 163 -76q56 76 154 76q93 0 140.5 -63t47.5 -169zM361 231v3q-2 217 -110 217
q-32 0 -54.5 -19t-34.5 -52t-17 -69.5t-5 -79.5t5.5 -79.5t17.5 -69t34.5 -51.5t54.5 -19q105 0 109 203v9v7zM566 454q-83 0 -95 -181h177q0 88 -18 134.5t-64 46.5z" />
    <glyph glyph-name="Scaron" unicode="&#x160;" horiz-adv-x="533" 
d="M265 683q77 0 139 -46q9 -7 19 -7q17 0 20 43h26l1 -217h-27q-14 99 -55 147.5t-121 48.5q-56 0 -91 -32t-35 -84q0 -48 30 -77.5t112 -59.5q111 -42 157.5 -87.5t46.5 -125.5q0 -92 -61 -148.5t-153 -56.5q-85 0 -146 50q-13 11 -21 11q-15 0 -18 -45h-28l-1 224h29
q10 -98 57 -153.5t127 -55.5q61 0 96 34t35 92q0 52 -32.5 82.5t-126.5 65.5q-98 36 -142 83t-44 122q0 85 58.5 138.5t148.5 53.5zM284 722h-24q-59 93 -120 147l9 12q70 -28 123 -68q54 41 123 68l9 -12q-53 -46 -120 -147z" />
    <glyph glyph-name="scaron" unicode="&#x161;" horiz-adv-x="402" 
d="M197 480q49 0 90 -27q16 -11 22 -11q14 0 19 30h20l-3 -162h-21q-24 144 -126 144q-36 0 -60 -22t-24 -58q0 -32 23.5 -53.5t76.5 -39.5q87 -30 120.5 -64t33.5 -92q0 -67 -45.5 -105t-120.5 -38q-49 0 -90 24q-20 12 -28 12q-14 0 -19 -29h-19v168h22q9 -72 44.5 -110.5
t88.5 -38.5q42 0 67 20t25 57q0 31 -23.5 52t-90.5 46q-73 26 -106 61.5t-33 92.5q0 63 46.5 103t110.5 40zM215 517h-24q-59 93 -120 147l9 12q70 -28 123 -68q54 41 123 68l9 -12q-53 -46 -120 -147z" />
    <glyph glyph-name="Ydieresis" unicode="&#x178;" horiz-adv-x="634" 
d="M0 644v23h283v-23q-53 -2 -63.5 -16.5t11.5 -49.5l133 -224l110 208q25 47 13.5 63.5t-73.5 18.5v23h220v-23q-53 -3 -76 -19t-52 -69l-126 -232v-169q0 -76 17.5 -102t79.5 -30v-23h-301v23q63 4 80 29.5t17 102.5v154l-157 254q-30 47 -52 63t-64 18zM184 803
q0 22 16 37.5t39 15.5q22 0 38 -15.5t16 -37.5t-16 -38t-38 -16t-38.5 16t-16.5 38zM366 803q0 22 16 37.5t38 15.5t38 -15.5t16 -37.5t-16 -38t-38 -16t-38 16t-16 38z" />
    <glyph glyph-name="Zcaron" unicode="&#x17d;" horiz-adv-x="528" 
d="M38 27l330 609h-116q-89 0 -126.5 -37.5t-54.5 -142.5h-25l10 213l125 -2h309v-28l-328 -609h138q80 0 118 41t54 140h25l-10 -212l-146 1h-303v27zM278 722h-24q-59 93 -120 147l9 12q70 -28 123 -68q54 41 123 68l9 -12q-53 -46 -120 -147z" />
    <glyph glyph-name="zcaron" unicode="&#x17e;" horiz-adv-x="415" 
d="M36 310l10 156l81 -3h253v-11l-231 -426h78q70 0 95.5 22.5t40.5 96.5h21l-9 -147l-84 2h-260l-1 7l232 430h-85q-54 0 -77.5 -25t-40.5 -102h-23zM218 517h-24q-59 93 -120 147l9 12q70 -28 123 -68q54 41 123 68l9 -12q-53 -46 -120 -147z" />
    <glyph glyph-name="florin" unicode="&#x192;" horiz-adv-x="553" 
d="M28 -19l19 6q13 -51 48 -51q21 0 33.5 17.5t22.5 68t17 146.5l17 217h-71v29h73q10 109 66.5 172t145.5 63q55 0 95.5 -25.5t40.5 -62.5q0 -22 -10.5 -37t-28.5 -15q-40 0 -50 51q-7 36 -17 49.5t-33 13.5q-93 0 -108 -209h123v-29h-125l-22 -257q-10 -120 -40 -171.5
t-108 -51.5q-33 0 -57 21t-31 55z" />
    <glyph glyph-name="circumflex" unicode="&#x2c6;" 
d="M188 676h24q67 -101 120 -147l-9 -12q-69 27 -123 68q-53 -40 -123 -68l-9 12q61 54 120 147z" />
    <glyph glyph-name="caron" unicode="&#x2c7;" 
d="M212 517h-24q-59 93 -120 147l9 12q70 -28 123 -68q54 41 123 68l9 -12q-53 -46 -120 -147z" />
    <glyph glyph-name="breve" unicode="&#x2d8;" 
d="M200 525q-55 0 -86.5 36.5t-31.5 96.5h22q16 -67 96 -67t96 67h21q0 -60 -31 -96.5t-86 -36.5z" />
    <glyph glyph-name="dotaccent" unicode="&#x2d9;" 
d="M146 598q0 22 16 37.5t38 15.5t38 -15.5t16 -37.5t-16 -38t-38 -16t-38 16t-16 38z" />
    <glyph glyph-name="ring" unicode="&#x2da;" 
d="M200 681q37 0 60 -25t23 -58t-23 -58t-60 -25t-60 25t-23 58t23 58t60 25zM149 598q0 -20 14.5 -35.5t36.5 -15.5t36 15.5t14 35.5t-14 35.5t-36 15.5t-36.5 -15.5t-14.5 -35.5z" />
    <glyph glyph-name="ogonek" unicode="&#x2db;" 
d="M106 -143q0 70 105 143h25q-63 -77 -63 -124q0 -26 12.5 -39.5t34.5 -13.5q26 0 57 25l9 -12q-38 -57 -97 -57q-39 0 -61 21.5t-22 56.5z" />
    <glyph glyph-name="tilde" unicode="&#x2dc;" 
d="M267 549q-26 0 -73.5 17t-71.5 17q-41 0 -65 -34l-10 8q7 40 30.5 66.5t55.5 26.5q26 0 73 -17t72 -17q41 0 65 34l10 -8q-8 -40 -31 -66.5t-55 -26.5z" />
    <glyph glyph-name="hungarumlaut" unicode="&#x2dd;" 
d="M35 526q0 1 4 9l92 116q21 25 41 25q16 0 25.5 -10t9.5 -26q0 -23 -21 -36l-135 -80q-4 -4 -10 -4t-6 6zM190 526q0 1 4 9l92 116q21 25 41 25q16 0 25.5 -10t9.5 -26q0 -23 -21 -36l-135 -80q-4 -4 -10 -4t-6 6z" />
    <glyph glyph-name="endash" unicode="&#x2013;" horiz-adv-x="500" 
d="M495 240h-490q-5 0 -5 5v30q0 5 5 5h490q5 0 5 -5v-30q0 -5 -5 -5z" />
    <glyph glyph-name="emdash" unicode="&#x2014;" horiz-adv-x="1000" 
d="M1000 275v-30q0 -5 -5 -5h-990q-5 0 -5 5v30q0 5 5 5h990q5 0 5 -5z" />
    <glyph glyph-name="quoteleft" unicode="&#x2018;" horiz-adv-x="216" 
d="M177 733l5 -24q-30 -9 -47.5 -24.5t-17.5 -31.5q0 -21 14 -25q42 -12 42 -51q0 -23 -14.5 -39t-39.5 -16t-42 18.5t-17 45.5q0 59 30.5 98t86.5 49z" />
    <glyph glyph-name="quoteright" unicode="&#x2019;" horiz-adv-x="226" 
d="M55 523l-6 24q29 8 47 23.5t18 31.5q0 21 -15 25q-17 4 -29 17t-12 33q0 22 14.5 37.5t39.5 15.5q24 0 41 -18.5t17 -44.5q0 -59 -30 -96.5t-85 -47.5z" />
    <glyph glyph-name="quotesinglbase" unicode="&#x201a;" horiz-adv-x="212" 
d="M47 -110l-6 23q29 8 47 24t18 32q0 20 -14 24q-42 13 -42 51q0 22 15 37.5t39 15.5t41 -18.5t17 -44.5q0 -59 -30 -96.5t-85 -47.5z" />
    <glyph glyph-name="quotedblleft" unicode="&#x201c;" horiz-adv-x="379" 
d="M340 731l6 -24q-29 -8 -47 -23.5t-18 -31.5q0 -21 15 -25q17 -4 29 -17t12 -33q0 -22 -14.5 -37.5t-39.5 -15.5q-24 0 -41 18.5t-17 44.5q0 59 30 96.5t85 47.5zM175 731l6 -24q-29 -8 -47 -23.5t-18 -31.5q0 -21 15 -25q17 -4 29 -17t12 -33q0 -22 -14.5 -37.5
t-39.5 -15.5q-24 0 -41 18.5t-17 44.5q0 59 30 96.5t85 47.5z" />
    <glyph glyph-name="quotedblright" unicode="&#x201d;" horiz-adv-x="380" 
d="M55 505l-6 24q29 8 47 23.5t18 31.5q0 21 -15 25q-17 4 -29 17t-12 33q0 22 14.5 37.5t39.5 15.5q24 0 41 -18.5t17 -44.5q0 -59 -30 -96.5t-85 -47.5zM209 505l-6 24q29 8 47 23.5t18 31.5q0 21 -15 25q-17 4 -29 17t-12 33q0 22 14.5 37.5t39.5 15.5q24 0 41 -18.5
t17 -44.5q0 -59 -30 -96.5t-85 -47.5z" />
    <glyph glyph-name="quotedblbase" unicode="&#x201e;" horiz-adv-x="366" 
d="M47 -110l-5 24q29 8 46.5 23.5t17.5 31.5q0 21 -14 25q-41 12 -41 50q0 22 14.5 37.5t38.5 15.5t41 -18t17 -45q0 -58 -30 -95.5t-85 -48.5zM201 -110l-5 24q29 8 46.5 23.5t17.5 31.5q0 21 -13 25q-42 12 -42 50q0 22 14.5 37.5t38.5 15.5q25 0 42 -18t17 -45
q0 -58 -30.5 -95.5t-85.5 -48.5z" />
    <glyph glyph-name="dagger" unicode="&#x2020;" horiz-adv-x="496" 
d="M70 498q20 0 68.5 -15t96.5 -21q-6 62 -23 120t-17 69q0 23 16 38t38 15t38 -15t16 -38q0 -11 -18 -69t-24 -120q45 5 94.5 21t69.5 16q58 0 58 -51t-58 -51q-20 0 -69.5 15.5t-94.5 20.5q2 -16 19 -85t14 -107q-2 -41 -11.5 -132.5t-17.5 -162.5l-8 -70h-17
q-34 272 -40 365q-3 37 14.5 105t20.5 87q-48 -6 -96 -21.5t-68 -15.5q-58 0 -58 51t57 51z" />
    <glyph glyph-name="daggerdbl" unicode="&#x2021;" horiz-adv-x="506" 
d="M431 77q-20 0 -68.5 15t-96.5 20q6 -61 23 -119t17 -69q0 -23 -16 -38t-38 -15t-38 15t-16 38q0 11 18 68.5t24 119.5q-46 -4 -95.5 -20t-68.5 -16q-58 0 -58 51t58 51q19 0 68 -16t95 -20q-1 5 -16.5 61.5t-15.5 89.5q0 31 15.5 83.5t16.5 56.5q-48 -6 -95.5 -21.5
t-67.5 -15.5q-58 0 -58 51t57 51q20 0 68.5 -15t96.5 -21q-6 62 -23 120t-17 69q0 23 16 38t38 15t38 -15t16 -38q0 -11 -18 -69t-24 -120q45 5 94.5 21t69.5 16q58 0 58 -51t-58 -51q-20 0 -69 15.5t-94 20.5q0 -2 16 -55t16 -85q0 -33 -15.5 -88t-16.5 -63q48 5 96 21
t67 16q58 0 58 -51t-57 -51z" />
    <glyph glyph-name="bullet" unicode="&#x2022;" horiz-adv-x="266" 
d="M40 297q0 37 28 64.5t65 27.5q41 0 67 -28.5t26 -63.5q0 -38 -27.5 -65.5t-65.5 -27.5t-65.5 27.5t-27.5 65.5z" />
    <glyph glyph-name="ellipsis" unicode="&#x2026;" horiz-adv-x="691" 
d="M51 48q0 26 18.5 44t44.5 18t45 -18.5t19 -43.5q0 -26 -19 -44.5t-45 -18.5t-44.5 18.5t-18.5 44.5zM282 48q0 25 18.5 43.5t44.5 18.5t45 -18.5t19 -43.5q0 -26 -19 -44.5t-45 -18.5t-44.5 18.5t-18.5 44.5zM513 48q0 25 19 43.5t45 18.5t44.5 -18t18.5 -44t-18.5 -44.5
t-44.5 -18.5t-45 18.5t-19 44.5z" />
    <glyph glyph-name="perthousand" unicode="&#x2030;" horiz-adv-x="960" 
d="M940 186q0 -69 -42 -115t-105 -46q-74 0 -114 54q-43 -54 -112 -54q-66 0 -106 45t-40 116q0 69 41 113.5t105 44.5q70 0 113 -54q43 54 113 54q64 0 105.5 -44.5t41.5 -113.5zM323 425q0 -69 -42 -115t-105 -46q-66 0 -106 45t-40 116q0 69 41 113.5t105 44.5
t105.5 -44.5t41.5 -113.5zM873 186q0 134 -80 134q-45 0 -61.5 -35.5t-16.5 -98.5q0 -137 78 -137q80 0 80 137zM647 186q0 134 -80 134q-45 0 -61.5 -35.5t-16.5 -98.5q0 -137 78 -137t80 130v7zM256 425q0 134 -80 134q-78 0 -78 -134q0 -137 78 -137q80 0 80 137z
M565 654l-362 -699l-28 14l364 698z" />
    <glyph glyph-name="guilsinglleft" unicode="&#x2039;" horiz-adv-x="344" 
d="M287 26l-15 -12q-124 131 -230 200v30q115 76 230 198l15 -12q-62 -120 -138 -201q64 -68 138 -203z" />
    <glyph glyph-name="guilsinglright" unicode="&#x203a;" horiz-adv-x="343" 
d="M71 14l-14 13q60 120 136 200q-75 79 -136 203l15 13q121 -129 228 -199v-32q-102 -68 -229 -198z" />
    <glyph glyph-name="fraction" unicode="&#x2044;" horiz-adv-x="434" 
d="M413 656l-365 -700l-24 12l365 700z" />
    <glyph glyph-name="Euro" unicode="&#x20ac;" horiz-adv-x="623" 
d="M508 324h-297q2 -40 6 -75h282l-4 -28h-273q17 -89 61 -143.5t116 -54.5q54 0 94.5 26t75.5 79l23 -16q-86 -131 -217 -131q-110 0 -181.5 66t-92.5 174h-55v28h50q-3 29 -3 59v16h-47v28h49q12 127 88 212t187 85q82 0 152 -47.5t70 -110.5q0 -25 -15 -42.5t-39 -17.5
q-23 0 -39 16.5t-20 41.5q-13 80 -32.5 106t-78.5 26q-80 0 -117.5 -75.5t-39.5 -193.5h302z" />
    <glyph glyph-name="trademark" unicode="&#x2122;" horiz-adv-x="691" 
d="M137 463v186h-21q-30 0 -42 -15t-16 -53h-11v87h223v-87h-11q-4 39 -15.5 53.5t-41.5 14.5h-21v-186q0 -32 7 -40t36 -10v-13h-129v13q29 2 35.5 10t6.5 40zM468 398l94 231v-171q0 -27 -6.5 -35.5t-28.5 -10.5v-12h117v12q-27 3 -33 10t-6 37v150q0 29 5.5 36t31.5 11
v12h-85q-7 -26 -20 -60l-62 -150l-86 210h-88v-12q27 -3 32 -10t5 -38v-151q0 -29 -5.5 -36t-30.5 -9v-12h90v12q-25 2 -30.5 9t-6.5 35v183l102 -241h11z" />
    <glyph glyph-name="minus" unicode="&#x2212;" horiz-adv-x="516" 
d="M426 268h-330v31h330v-31z" />
    <glyph glyph-name="notequal" unicode="&#x2260;" horiz-adv-x="516" 
d="M443 187h-218l-73 -138l-27 14l66 124h-112v31h128l72 134h-200v31h216l69 129l26 -14l-61 -115h114v-31h-131l-71 -134h202v-31z" />
    <glyph glyph-name="lessequal" unicode="&#x2264;" horiz-adv-x="516" 
d="M454 113l-394 187v12l394 187v-36l-336 -157l336 -157v-36zM457 38h-390v30h390v-30z" />
    <glyph glyph-name="greaterequal" unicode="&#x2265;" horiz-adv-x="516" 
d="M449 300l-394 -187v36l337 157l-337 157v36l394 -187v-12zM452 38h-390v30h390v-30z" />
    <glyph glyph-name="apple" unicode="&#xf8ff;" horiz-adv-x="1043" 
d="M508 446q7 0 15 2v-33q-18 -5 -34 -5t-26.5 10t-10.5 27v69h-42v-102h-50v102h-17v23l17 6v8q0 44 45 44q20 0 29 -2l-3 -32q-1 0 -5 0.5t-7 0.5q-9 0 -9 -9v-8h43l4 41h44v-41h21v-32h-21v-59q0 -10 7 -10zM923 448v-33q-18 -5 -34 -5q-15 0 -25.5 10t-10.5 27v69h-44
v-102h-48v102h-18v23l18 6v8q0 44 44 44q21 0 30 -2l-4 -32q-1 0 -4.5 0.5t-6.5 0.5q-10 0 -11 -9v-8h45l3 41h44v-41h22v-32h-22v-59q0 -10 8 -10q4 0 14 2zM668 550q30 0 52 -18.5t22 -52.5q0 -33 -22 -51t-52 -18q-28 0 -50.5 18t-22.5 51q0 34 22 52.5t51 18.5zM275 550
q30 0 47 -18.5t17 -49.5q0 -2 -0.5 -7t-0.5 -7h-82q2 -23 27 -23q19 0 40 9l10 -29q-25 -15 -59 -15q-31 0 -50 19.5t-19 49.5q0 32 19 51.5t51 19.5zM124 597v-142h75v-41h-125v183h50zM535 414v183h48v-183h-48zM438 162v181q8 3 21 3h2v-184h-23zM662 298v-90
q0 -19 4 -27q6 -3 18 -3h12l2 -14q-15 -3 -22 -3q-21 0 -29 11.5t-8 35.5v80q0 22 2 30q12 5 18 5h4q-1 -4 -1 -25zM214 280q-13 0 -23 -5l-3 11q17 13 32 13q41 0 41 -46v-91h-23v89q0 16 -5.5 22.5t-18.5 6.5zM181 162h-23v89q0 16 -5 22.5t-19 6.5q-12 0 -22 -5
q0 9 -1 12q15 12 30 12q40 0 40 -46v-91zM876 162q-3 -1 -7 -1q-56 0 -56 69q0 56 38 67q-14 -26 -14 -67q0 -52 32 -52q9 0 13 1q-2 -10 -6 -17zM925 231q0 -58 -37 -67q13 34 13 66q0 26 -6.5 39t-25.5 13q-9 0 -13 -1l6 17q3 1 7 1q56 0 56 -68zM606 231q0 -57 -37 -67
q13 34 13 66q0 26 -6.5 39t-25.5 13q-9 0 -13 -1q0 3 6 17q3 1 7 1q56 0 56 -68zM557 162q-3 -1 -7 -1q-56 0 -56 69q0 56 38 67q-14 -26 -14 -67q0 -26 6.5 -39t25.5 -13q8 0 12 1q-2 -12 -5 -17zM357 162q-4 -1 -8 -1q-55 0 -55 69q0 56 37 67q-14 -26 -14 -67
q0 -52 32 -52q9 0 13 1q-1 -3 -2.5 -8.5t-2.5 -8.5zM405 231q0 -58 -36 -67q13 38 13 66q0 26 -6.5 39t-26.5 13q-8 0 -13 -1q3 10 7 17q2 1 6 1q56 0 56 -68zM102 262v-100h-23v135q4 1 20 1q2 -8 2 -18q1 -4 1 -18zM751 277q0 -2 0.5 -7t0.5 -6v-102h-23v135q1 0 8.5 0.5
t9.5 0.5h2q2 -12 2 -21zM666 447q22 0 22 32q0 34 -22 34t-22 -34q0 -32 22 -32zM257 487h36q0 26 -18 26q-8 0 -13 -8.5t-5 -17.5zM759 272q0 7 3 13q10 14 19 14q5 0 15 -4l-5 -21q-10 2 -15 2q-10 0 -17 -4zM672 298h27l-2 -16h-26z" />
    <glyph glyph-name="DEL" horiz-adv-x="0" 
 />
    </font>
</defs>
</svg>
