<?xml version="1.0" standalone="no"?>
<!DOCTYPE svg PUBLIC "-//W3C//DTD SVG 1.1//EN" "http://www.w3.org/Graphics/SVG/1.1/DTD/svg11.dtd" >
<svg xmlns="http://www.w3.org/2000/svg" xmlns:xlink="http://www.w3.org/1999/xlink" version="1.1">
<metadata>
Created by FontForge 20170731 at Mon Jul 23 03:38:12 2007
 By Aleksey,,,
Copyright (c) 2007 by Leftloft / Molotro. All rights reserved.
</metadata>
<defs>
<font id="SolferinoDisplay-Bold" horiz-adv-x="400" >
  <font-face 
    font-family="Solferino Display Rg"
    font-weight="700"
    font-stretch="normal"
    units-per-em="1000"
    panose-1="2 0 8 3 8 0 0 2 0 3"
    ascent="759"
    descent="-241"
    x-height="462"
    cap-height="667"
    bbox="-5 -241 1000 881"
    underline-thickness="50"
    underline-position="-200"
    unicode-range="U+0020-FB02"
  />
<missing-glyph horiz-adv-x="502" 
 />
    <glyph glyph-name="fi" unicode="fi" horiz-adv-x="608" 
d="M201 435v-311q0 -65 16.5 -82t85.5 -21v-21l-162 2l-126 -2v21q46 4 57 22.5t11 86.5v305h-63v27h63v40q0 98 43.5 155t117.5 57q50 0 89 -25.5t39 -69.5q0 -25 -15.5 -41t-38.5 -16q-24 0 -40 16t-17 40q-1 45 -5.5 57t-17.5 12q-37 0 -37 -121v-104h115v-28zM529 472
v-351q0 -59 10.5 -77t53.5 -25v-19l-121 2l-129 -2v19q45 7 56.5 25t11.5 82v232q0 49 -11.5 62.5t-55.5 16.5v19l182 20zM392 620q0 30 21.5 51t51.5 21t51.5 -21t21.5 -51q0 -29 -22 -50.5t-51 -21.5t-51 21.5t-22 50.5z" />
    <glyph glyph-name="fl" unicode="fl" horiz-adv-x="639" 
d="M201 435v-311q0 -65 16.5 -82t85.5 -21v-21l-162 2l-126 -2v21q46 4 57 22.5t11 86.5v305h-63v27h63v40q0 98 43.5 155t117.5 57q50 0 89 -25.5t39 -69.5q0 -25 -15.5 -41t-38.5 -16q-24 0 -40 16t-17 40q-1 45 -5.5 57t-17.5 12q-37 0 -37 -121v-104h115v-28zM439 130
v451q0 47 -11.5 61.5t-56.5 22.5v17l187 24l7 -8l-8 -185v-389q0 -60 11 -78.5t53 -25.5v-20l-126 2l-122 -2v20q43 5 54.5 25t11.5 85z" />
    <glyph glyph-name=".notdef" horiz-adv-x="502" 
 />
    <glyph glyph-name=".null" horiz-adv-x="0" 
 />
    <glyph glyph-name="nonmarkingreturn" horiz-adv-x="333" 
 />
    <glyph glyph-name="space" unicode=" " horiz-adv-x="228" 
 />
    <glyph glyph-name="exclam" unicode="!" horiz-adv-x="251" 
d="M125 683q70 0 70 -60q0 -19 -25 -194t-28 -213q0 -11 -9 -11h-13q-9 0 -9 11q-3 39 -28 213.5t-25 193.5q0 60 67 60zM56 49q0 27 19.5 45.5t46.5 18.5t46 -18.5t19 -45.5q0 -26 -19.5 -45t-45.5 -19q-27 0 -46.5 19t-19.5 45z" />
    <glyph glyph-name="quotedbl" unicode="&#x22;" horiz-adv-x="326" 
d="M257 460h-26q-5 0 -6 7q-3 25 -11 77.5t-13.5 91t-5.5 44.5q0 33 50 33q26 0 37 -7t11 -25q0 -6 -5.5 -44.5t-13 -92t-10.5 -77.5q-1 -7 -7 -7zM94 460h-26q-5 0 -6 7q-3 25 -11 77.5t-13.5 91t-5.5 44.5q0 33 50 33q26 0 37 -7t11 -25q0 -6 -5.5 -44.5t-13 -92
t-10.5 -77.5q-1 -7 -7 -7z" />
    <glyph glyph-name="numbersign" unicode="#" horiz-adv-x="534" 
d="M507 423h-107l-28 -201h107v-30h-111l-27 -195h-31l27 195h-177l-27 -195h-31l27 195h-102v30h107l28 201h-107v31h112l25 173h31l-25 -173h177l25 173h31l-25 -173h101v-31zM370 423h-178l-28 -201h178z" />
    <glyph glyph-name="dollar" unicode="$" horiz-adv-x="540" 
d="M292 -102h-30v85q-69 4 -126 49q-9 11 -19 11q-17 0 -20 -46h-28v217h28q11 -90 53 -144t112 -58v239l-17 7q-95 35 -137.5 82t-42.5 125q0 79 55 131t142 53v100h30v-102q56 -6 104 -41q8 -8 17 -8q18 0 21 41h28l1 -212h-26q-30 175 -145 190v-234q104 -41 147 -86
t43 -120q0 -85 -53.5 -137t-136.5 -57v-85zM147 509q0 -37 24.5 -62t90.5 -52v224q-53 -2 -84 -33t-31 -77zM399 125q0 36 -24 62t-83 52v-226q49 5 78 35.5t29 76.5z" />
    <glyph glyph-name="percent" unicode="%" horiz-adv-x="734" 
d="M565 654l-362 -699l-28 14l364 698zM323 425q0 -69 -42 -115t-105 -46q-66 0 -106 45t-40 116q0 69 41 113.5t105 44.5t105.5 -44.5t41.5 -113.5zM248 425q0 134 -72 134q-42 0 -56 -35t-14 -99q0 -65 14.5 -101t55.5 -36t56.5 36t15.5 101zM714 186q0 -69 -42 -115
t-105 -46q-66 0 -106 45t-40 116q0 69 41 113.5t105 44.5t105.5 -44.5t41.5 -113.5zM639 186q0 134 -72 134q-44 0 -57 -33.5t-13 -100.5q0 -65 14.5 -101t55.5 -36t56.5 36t15.5 101z" />
    <glyph glyph-name="ampersand" unicode="&#x26;" horiz-adv-x="686" 
d="M574 270q-47 -97 -102 -158q33 -38 56.5 -54t49.5 -16q52 0 79 67l20 -6q-18 -57 -63.5 -86t-104.5 -29q-75 0 -124 59q-68 -62 -165 -62q-88 0 -140.5 44.5t-52.5 120.5q0 24 7 45.5t23 41t28 33t38.5 31.5t36 24t36.5 23q-49 108 -49 175q0 63 50.5 100t118.5 37
q60 0 101 -33t41 -85q0 -24 -7 -43t-25 -37t-31.5 -28.5t-43 -31t-43.5 -30.5q71 -145 144 -235q60 66 86 129q14 30 3.5 42.5t-55.5 13.5v21h189v-21q-41 -2 -63.5 -12.5t-37.5 -39.5zM254 22q54 0 110 47q-80 94 -156 253q-59 -61 -59 -156q0 -60 29.5 -102t75.5 -42z
M256 540q0 -50 43 -141q68 60 68 138q0 42 -12 71.5t-37 29.5q-62 0 -62 -98z" />
    <glyph glyph-name="quotesingle" unicode="'" horiz-adv-x="162" 
d="M94 460h-26q-5 0 -6 7q-3 25 -11 77.5t-13.5 91t-5.5 44.5q0 33 50 33q26 0 37 -7t11 -25q0 -6 -5.5 -44.5t-13 -92t-10.5 -77.5q-1 -7 -7 -7z" />
    <glyph glyph-name="parenleft" unicode="(" horiz-adv-x="387" 
d="M312 -71l-16 -20q-125 91 -183 189.5t-58 229.5q0 130 59.5 231t181.5 189l16 -21q-83 -70 -108.5 -160t-25.5 -238q0 -149 25.5 -239.5t108.5 -160.5z" />
    <glyph glyph-name="parenright" unicode=")" horiz-adv-x="397" 
d="M89 -91l-16 20q83 70 108.5 160.5t25.5 239.5q0 148 -25.5 238t-108.5 160l16 21q122 -88 181.5 -189t59.5 -231q0 -131 -58 -229.5t-183 -189.5z" />
    <glyph glyph-name="asterisk" unicode="*" 
d="M171 277q0 7 17 52.5t20 89.5q-38 -25 -68 -61.5t-36 -39.5q-18 -11 -37 -5t-30 26q-11 19 -7 39t22 30q6 3 53.5 10.5t88.5 27.5q-40 20 -87 27.5t-53 11.5q-19 10 -23 30t7 39t30.5 25.5t37.5 -3.5q7 -5 19.5 -22t33.5 -40.5t50 -42.5q-3 47 -19.5 92.5t-16.5 52.5
q0 21 14.5 34.5t37.5 13.5q22 0 37 -13.5t15 -34.5q0 -7 -18 -53t-21 -93q38 25 68.5 62t37.5 40q18 11 37 5t30 -25t7 -39.5t-22 -30.5q-6 -4 -53.5 -10.5t-88.5 -26.5q41 -20 88 -28t52 -11q19 -11 23 -31t-7 -39t-30.5 -25t-37.5 4q-8 4 -20 21t-33.5 40.5t-49.5 42.5
q3 -44 19.5 -89.5t16.5 -52.5q0 -21 -14.5 -34t-37.5 -13q-22 0 -37 13t-15 34z" />
    <glyph glyph-name="plus" unicode="+" horiz-adv-x="527" 
d="M456 271h-178v-179h-34v179h-178v31h178v178h34v-178h178v-31z" />
    <glyph glyph-name="comma" unicode="," horiz-adv-x="226" 
d="M49 -122l-6 27q32 7 51 24t19 34q0 21 -14 24q-19 4 -34 18t-15 38q0 25 17 43t44 18t46.5 -20t19.5 -51q0 -67 -33.5 -106t-94.5 -49z" />
    <glyph glyph-name="hyphen" unicode="-" horiz-adv-x="300" 
d="M271 252l-239 -16q-5 -2 -5 4l-2 25q0 5 4 6l239 16q5 2 5 -4l2 -25q0 -5 -4 -6z" />
    <glyph glyph-name="period" unicode="." horiz-adv-x="231" 
d="M50 49q0 27 19 45.5t46 18.5t46.5 -18.5t19.5 -45.5q0 -26 -19.5 -45t-46.5 -19q-26 0 -45.5 19t-19.5 45z" />
    <glyph glyph-name="slash" unicode="/" horiz-adv-x="437" 
d="M415 688l-365 -700l-24 11l365 700z" />
    <glyph glyph-name="zero" unicode="0" horiz-adv-x="527" 
d="M496 318q0 -135 -68.5 -234t-166.5 -99q-100 0 -165.5 96.5t-65.5 236.5q0 136 66.5 233.5t165.5 97.5t166.5 -97.5t67.5 -233.5zM373 318q0 304 -111 304q-33 0 -55.5 -23.5t-33.5 -68t-15.5 -95t-4.5 -117.5q0 -306 109 -306q111 0 111 306z" />
    <glyph glyph-name="one" unicode="1" horiz-adv-x="396" 
d="M369 0h-324v21q72 3 88.5 13t16.5 45v325q0 78 7 136q-61 0 -119 29l4 19q40 -8 67 -8q43 0 85 20.5t64 58.5l24 -8q-15 -81 -15 -156v-417q0 -34 15.5 -43.5t86.5 -13.5v-21z" />
    <glyph glyph-name="two" unicode="2" horiz-adv-x="496" 
d="M460 193l-42 -193h-393l1 23q84 80 164 160q110 113 110 293q0 64 -21.5 104.5t-61.5 40.5q-38 0 -52 -23.5t-24 -104.5q-3 -27 -21 -44.5t-43 -17.5q-22 0 -39.5 20.5t-17.5 44.5q0 62 64 108t135 46q90 0 149 -52.5t59 -136.5q0 -82 -48.5 -148.5t-177.5 -170.5
l-57 -47h188q40 0 63.5 23t39.5 77z" />
    <glyph glyph-name="three" unicode="3" horiz-adv-x="508" 
d="M471 182q0 -93 -73 -145t-175 -52q-79 0 -142 34.5t-63 93.5q0 30 18.5 50.5t46.5 20.5q22 0 38.5 -14.5t19.5 -37.5q9 -77 24.5 -97.5t59.5 -20.5q121 0 121 168q0 63 -24 99t-67 36q-28 0 -78 -11l-6 29q81 15 115 54.5t34 108.5q0 122 -91 122q-44 0 -58 -20t-24 -94
q-3 -22 -19.5 -37t-39.5 -15t-40 19t-17 41q0 60 65 97.5t139 37.5q87 0 145 -38t58 -113q0 -55 -41 -97t-112 -59v-2q8 2 26 2q61 0 110.5 -43.5t49.5 -116.5z" />
    <glyph glyph-name="four" unicode="4" horiz-adv-x="524" 
d="M489 103h-16q-3 50 -14 65t-41 15h-37v-102q0 -39 14 -48t73 -11v-22h-295v22q61 2 78.5 11t17.5 42v108h-251l-6 26l335 439h34v-432h37q29 0 39.5 15.5t13.5 65.5h18v-194zM269 216v280l-210 -280h210z" />
    <glyph glyph-name="five" unicode="5" horiz-adv-x="483" 
d="M435 682l18 -10q-38 -77 -77 -112t-95 -35q-31 0 -82.5 7t-80.5 15l-10 -171l-5 -26q54 70 140 70q89 0 143 -60t54 -148q0 -98 -68 -162.5t-175 -64.5q-59 0 -116.5 34.5t-57.5 84.5q0 27 16.5 48t40.5 21q23 0 38 -14.5t18 -37.5q8 -63 20.5 -84t43.5 -21q55 0 85 55
t30 133q0 80 -26 131t-80 51q-67 0 -113 -84l-13 -28l-28 10q15 38 20 88l13 265l11 7q35 -8 96.5 -16t91.5 -8q58 0 88.5 13.5t59.5 48.5z" />
    <glyph glyph-name="six" unicode="6" horiz-adv-x="501" 
d="M465 534q0 -23 -16.5 -42t-40.5 -19q-22 0 -39 15.5t-20 37.5q-8 62 -19 78t-43 16q-29 0 -49.5 -14t-33 -36.5t-21 -63t-12.5 -79t-8 -100.5h4q34 87 125 87q71 0 124.5 -56t53.5 -150q0 -88 -61 -155t-149 -67q-94 0 -158 81.5t-64 206.5q0 104 28.5 188t87.5 135.5
t138 51.5q65 0 119 -32.5t54 -82.5zM346 208q0 75 -19.5 125t-61.5 50q-47 0 -75 -54t-28 -130q0 -74 25.5 -129.5t72.5 -55.5q86 0 86 194z" />
    <glyph glyph-name="seven" unicode="7" horiz-adv-x="451" 
d="M452 639l11 -16q-31 -41 -57 -76t-48 -66.5t-36 -52.5t-31.5 -50.5t-24.5 -41.5t-25 -44t-23 -41q-28 -53 -28 -108q0 -21 30.5 -48t30.5 -49q0 -23 -19.5 -42t-43.5 -19q-30 0 -49 21t-19 52q0 66 48 164q79 156 190 310h-219q-38 0 -53.5 -15.5t-32.5 -74.5l-22 2
l37 232l20 -1q2 -29 9.5 -37.5t37.5 -8.5h279z" />
    <glyph glyph-name="eight" unicode="8" horiz-adv-x="509" 
d="M476 161q0 -79 -64.5 -128t-158.5 -49q-95 0 -156 44t-61 116q0 51 41 94.5t94 65.5q-63 39 -92.5 78.5t-29.5 95.5q0 75 65 123t150 48q78 0 133.5 -43.5t55.5 -110.5q0 -49 -33.5 -89.5t-78.5 -61.5q68 -35 101.5 -78.5t33.5 -104.5zM381 495q0 53 -33 90.5t-84 37.5
q-48 0 -79 -29.5t-31 -79.5q0 -39 40.5 -76.5t125.5 -81.5q27 17 44 56t17 83zM353 125q0 49 -37.5 87t-122.5 80q-38 -22 -61 -61.5t-23 -83.5q0 -58 40 -97.5t104 -39.5q46 0 73 30.5t27 84.5z" />
    <glyph glyph-name="nine" unicode="9" horiz-adv-x="500" 
d="M33 101q0 23 16.5 42t40.5 19q22 0 39 -15.5t20 -37.5q8 -62 19 -78t43 -16q29 0 49.5 14t33 36.5t21 63t12.5 79t8 100.5h-4q-34 -87 -125 -87q-71 0 -124.5 56t-53.5 150q0 88 61 155t149 67q94 0 158 -81.5t64 -206.5q0 -104 -28.5 -188t-87.5 -135.5t-138 -51.5
q-65 0 -119 32.5t-54 82.5zM152 427q0 -75 19.5 -125t61.5 -50q47 0 75 54t28 130q0 74 -25.5 129.5t-72.5 55.5q-86 0 -86 -194z" />
    <glyph glyph-name="colon" unicode=":" horiz-adv-x="231" 
d="M50 399q0 27 19 45.5t46 18.5t46.5 -18.5t19.5 -45.5q0 -26 -19.5 -45t-46.5 -19q-26 0 -45.5 19t-19.5 45zM50 49q0 27 19 45.5t46 18.5t46.5 -18.5t19.5 -45.5q0 -26 -19.5 -45t-46.5 -19q-26 0 -45.5 19t-19.5 45z" />
    <glyph glyph-name="semicolon" unicode=";" horiz-adv-x="226" 
d="M49 -122l-6 27q32 7 51 24t19 34q0 21 -14 24q-19 4 -34 18t-15 38q0 25 17 43t44 18t46.5 -20t19.5 -51q0 -67 -33.5 -106t-94.5 -49zM52 399q0 27 19 45.5t46 18.5t46.5 -18.5t19.5 -45.5q0 -26 -19.5 -45t-46.5 -19q-26 0 -45.5 19t-19.5 45z" />
    <glyph glyph-name="less" unicode="&#x3c;" horiz-adv-x="527" 
d="M460 102l-394 188v12l394 188v-36l-338 -158l338 -158v-36z" />
    <glyph glyph-name="equal" unicode="=" horiz-adv-x="527" 
d="M448 353h-364v30h364v-30zM448 187h-364v30h364v-30z" />
    <glyph glyph-name="greater" unicode="&#x3e;" horiz-adv-x="523" 
d="M457 290l-394 -188v36l338 158l-338 158v36l394 -188v-12z" />
    <glyph glyph-name="question" unicode="?" horiz-adv-x="495" 
d="M221 241q0 -15 7 -33l-29 -5q-18 27 -18 48q0 30 14 53.5t34 41.5t40.5 38.5t34.5 55t14 80.5q0 60 -21.5 96.5t-63.5 36.5q-35 0 -48 -25t-25 -107q-3 -24 -20.5 -40t-40.5 -16q-24 0 -42 21.5t-18 46.5q0 60 63.5 105t134.5 45q94 0 151 -46t57 -132q0 -47 -23 -84
t-56 -59.5t-66 -41t-56 -38.5t-23 -41zM156 49q0 27 19 45.5t46 18.5t46.5 -18.5t19.5 -45.5q0 -26 -19.5 -45t-46.5 -19q-26 0 -45.5 19t-19.5 45z" />
    <glyph glyph-name="at" unicode="@" horiz-adv-x="968" 
d="M408 18q-73 0 -110 52t-37 134q0 113 59 189t162 76q66 0 115 -67l53 66l45 -6q-22 -66 -40 -191q-18 -143 -18 -174q0 -33 17.5 -49.5t46.5 -15.5q66 2 121 76t55 200q1 165 -103 263.5t-274 98.5q-115 0 -209.5 -58.5t-147 -158.5t-52.5 -219q0 -189 106 -304.5
t287 -115.5q91 0 159 19t142 60l15 -26q-146 -83 -318 -83q-190 0 -307.5 125.5t-117.5 323.5q0 125 59 231.5t161.5 169.5t224.5 63q183 0 296 -107t113 -284q0 -145 -68.5 -224t-159.5 -79q-56 0 -96.5 31t-41.5 83q-22 -40 -59 -69.5t-78 -29.5zM445 63q36 0 64.5 47.5
t41.5 105.5l18 117q-3 102 -69 102q-54 0 -90.5 -77t-36.5 -164q-1 -60 17 -95.5t55 -35.5z" />
    <glyph glyph-name="A" unicode="A" horiz-adv-x="667" 
d="M421 133l-27 76h-224l-20 -56q-25 -75 -14 -98.5t73 -32.5v-22h-209v22q47 8 68.5 33t48.5 98l191 529h39l207 -543q28 -74 46 -93t67 -24v-22h-295v22q56 6 65 26.5t-16 84.5zM282 525l-102 -287h204z" />
    <glyph glyph-name="B" unicode="B" horiz-adv-x="593" 
d="M531 505q0 -63 -39.5 -102t-103.5 -49v-2q84 -10 132 -54.5t48 -110.5q0 -94 -60.5 -140.5t-169.5 -46.5h-319v21q62 5 77.5 28.5t15.5 105.5v399q0 54 -16.5 71t-76.5 21v21h294q89 0 153.5 -43.5t64.5 -118.5zM441 185q0 150 -153 150h-52v-229q0 -40 17.5 -59
t63.5 -19q124 0 124 157zM236 363h54q62 0 89 34t27 103q0 66 -31 102.5t-85 36.5h-54v-276z" />
    <glyph glyph-name="C" unicode="C" horiz-adv-x="593" 
d="M540 140l26 -18q-43 -69 -96.5 -105t-127.5 -36q-140 0 -221 96.5t-81 247.5q0 153 82 253.5t213 100.5q86 0 158.5 -49t72.5 -118q0 -26 -17.5 -46t-44.5 -20q-25 0 -43.5 18.5t-22.5 45.5q-12 83 -30.5 110.5t-74.5 27.5q-53 0 -87 -41t-47 -103t-13 -146
q0 -65 9 -120.5t28 -105t55 -78t86 -28.5q56 0 98 28.5t78 85.5z" />
    <glyph glyph-name="D" unicode="D" horiz-adv-x="691" 
d="M19 645v22h296q152 0 243.5 -90t91.5 -239q0 -145 -88 -241.5t-236 -96.5h-303v24q57 6 72 30t15 104v353q0 81 -15 105t-76 29zM504 332q0 80 -18.5 146.5t-63.5 113t-111 46.5h-77v-478q0 -75 14.5 -103t59.5 -28h20q50 0 85.5 25.5t54.5 70.5t27.5 96t8.5 111z" />
    <glyph glyph-name="E" unicode="E" horiz-adv-x="568" 
d="M400 445h25v-229h-25q-12 66 -29 88.5t-63 22.5h-74v-188q0 -56 17.5 -83t66.5 -27h39q63 0 93 38t49 135h28v-202h-503v22q58 5 72.5 29t14.5 105v396q0 54 -15.5 70t-74.5 23v22h497l1 -190h-27q-19 94 -51 127.5t-102 33.5h-105v-283h74q47 0 64 17t28 73z" />
    <glyph glyph-name="F" unicode="F" horiz-adv-x="539" 
d="M392 435h24v-228h-24q-7 55 -28 77.5t-65 22.5h-65v-150q0 -80 22 -105t99 -29v-23h-332v23q57 6 72.5 30.5t15.5 103.5v396q0 50 -17 67t-70 24v23h485v-201h-28q-24 104 -58 137.5t-116 33.5h-73v-303h65q46 0 66.5 21t26.5 80z" />
    <glyph glyph-name="G" unicode="G" horiz-adv-x="674" 
d="M479 57v62q0 82 -16.5 104.5t-84.5 27.5v23h274v-23q-42 -4 -51.5 -25.5t-9.5 -108.5v-51l3 -38q-124 -47 -243 -47q-145 0 -228 98t-83 250q0 155 88 252.5t232 97.5q93 0 172 -48.5t79 -122.5q0 -30 -16.5 -48t-45.5 -18q-27 0 -44.5 19t-20.5 48q-9 82 -33 109.5
t-92 27.5q-51 0 -86 -23.5t-53.5 -69t-26 -98t-7.5 -122.5q0 -62 7.5 -114.5t24.5 -101t51 -76t82 -27.5q79 0 128 43z" />
    <glyph glyph-name="H" unicode="H" horiz-adv-x="737" 
d="M720 644q-60 -5 -77 -29t-17 -103v-357q0 -78 17.5 -102.5t77.5 -29.5v-23h-312v23q60 5 77 29t17 103v172h-269v-172q0 -79 17 -103t77 -29v-23h-312v23q60 5 77 29t17 103v357q0 78 -17 102.5t-77 29.5v23h312v-23q-60 -5 -77 -29t-17 -103v-156h269v156
q0 79 -17.5 103t-77.5 29v23h312v-23z" />
    <glyph glyph-name="I" unicode="I" horiz-adv-x="354" 
d="M335 644q-64 -5 -80 -28.5t-16 -105.5v-353q0 -81 17 -105t80 -29v-23h-315v23q62 5 78 29t16 105v353q0 82 -15.5 105.5t-78.5 28.5v23h314v-23z" />
    <glyph glyph-name="J" unicode="J" horiz-adv-x="340" 
d="M114 73v437q0 83 -17 106t-80 28v23h313v-23q-60 -5 -76 -27t-16 -107v-428q0 -172 -219 -248l-9 21q58 37 81 88t23 130z" />
    <glyph glyph-name="K" unicode="K" horiz-adv-x="664" 
d="M319 644q-55 -5 -70 -29.5t-15 -104.5v-353q0 -80 15.5 -104.5t75.5 -29.5v-23h-302v23q57 5 72 27t15 107v353q0 85 -15 107t-73 27v23h297v-23zM250 322l199 241q33 36 23.5 57t-69.5 24v23h237v-23q-78 -5 -142 -83l-146 -177l154 -227q56 -82 84 -105t74 -29v-23
h-283v23q23 3 32.5 8.5t8 20.5t-15 38.5t-42.5 65.5z" />
    <glyph glyph-name="L" unicode="L" horiz-adv-x="556" 
d="M16 23q62 5 78.5 28.5t16.5 105.5v353q0 82 -14.5 105t-76.5 29v23h328v-23q-74 -7 -93.5 -30.5t-19.5 -103.5v-384q0 -56 15 -76.5t64 -20.5h25q71 0 102.5 39.5t56.5 150.5h30l-5 -219h-507v23z" />
    <glyph glyph-name="M" unicode="M" horiz-adv-x="902" 
d="M668 574l-234 -579h-30l-257 602v-436q0 -88 15 -111t84 -29v-21h-230v21q66 5 80 27.5t14 109.5v364q0 79 -14.5 97.5t-80.5 24.5v23h242l210 -506l144 359q33 84 48 147h228v-23q-66 -7 -80.5 -26t-14.5 -93v-381q0 -75 15.5 -96t82.5 -27v-21h-310v21q55 5 71.5 28
t16.5 92v433z" />
    <glyph glyph-name="N" unicode="N" horiz-adv-x="707" 
d="M600 520v-528h-43l-411 566v-405q0 -78 17.5 -100.5t92.5 -29.5v-23h-240v23q63 6 78.5 29t15.5 98v368q0 75 -14.5 95t-80.5 29v25h209l340 -477v328q0 77 -17.5 99t-91.5 27v23h234v-23q-57 -6 -73 -29t-16 -95z" />
    <glyph glyph-name="O" unicode="O" horiz-adv-x="715" 
d="M674 330q0 -153 -85 -251t-232 -98q-146 0 -231.5 98.5t-85.5 250.5q0 153 85 251t232 98t232 -98t85 -251zM528 330q0 316 -171 316t-171 -316t171 -316t171 316z" />
    <glyph glyph-name="P" unicode="P" horiz-adv-x="573" 
d="M234 637v-480q0 -82 21 -105t98 -29v-23h-341v23q39 4 58 13.5t29.5 37.5t10.5 83v399q0 47 -19.5 64t-78.5 24v23h301q107 0 172.5 -46.5t65.5 -140.5q0 -103 -75.5 -159t-199.5 -61l-6 24q83 9 116 53.5t33 132.5q0 77 -35 122t-101 45h-49z" />
    <glyph glyph-name="Q" unicode="Q" horiz-adv-x="714" 
d="M673 330q0 -115 -47.5 -199t-135.5 -124q85 -83 157 -125.5t149 -42.5q70 0 125 30l11 -22q-23 -17 -74.5 -34t-106.5 -17q-109 0 -189 41t-194 144h-12q-146 0 -230.5 98.5t-84.5 250.5t85.5 250.5t229.5 98.5q146 0 231.5 -98.5t85.5 -250.5zM527 330q0 315 -171 315
q-169 0 -169 -315t169 -315q171 0 171 315z" />
    <glyph glyph-name="R" unicode="R" horiz-adv-x="666" 
d="M663 24l3 -18q-40 -23 -103 -23q-59 0 -98.5 29.5t-75.5 95.5l-104 191h-51v-141q0 -84 16.5 -107t82.5 -28v-23h-317v23q61 5 77.5 27t16.5 105v372q0 71 -16 90.5t-78 25.5v24h284q114 0 182.5 -47t68.5 -131q0 -72 -38.5 -118.5t-102.5 -65.5l93 -169q35 -62 70 -87
t90 -25zM418 480q0 156 -136 156h-48v-310h57q63 0 95 41.5t32 112.5z" />
    <glyph glyph-name="S" unicode="S" horiz-adv-x="540" 
d="M267 683q75 0 138 -45q10 -8 18 -8q19 0 22 43h30l1 -223h-28q-17 99 -59 150.5t-118 51.5q-59 0 -93.5 -33t-34.5 -83q0 -42 31 -70t114 -60q114 -43 161 -91t47 -129q0 -94 -62 -149.5t-156 -55.5q-81 0 -146 53q-11 11 -20 11q-18 0 -21 -48h-30v228h30
q12 -97 59 -154.5t125 -57.5q61 0 97 32.5t36 86.5q0 44 -34.5 74.5t-127.5 65.5q-99 36 -144 86t-45 132q0 84 59 138.5t151 54.5z" />
    <glyph glyph-name="T" unicode="T" horiz-adv-x="622" 
d="M252 157v478h-47q-71 0 -103.5 -44.5t-44.5 -138.5h-28l1 215h562l1 -215h-27q-14 95 -46 139t-103 44h-41v-478q0 -81 18 -104.5t91 -29.5v-23h-342v23q73 6 91 29.5t18 104.5z" />
    <glyph glyph-name="U" unicode="U" horiz-adv-x="681" 
d="M548 228v268q0 93 -16.5 117t-83.5 31v23h230v-23q-64 -7 -79 -31t-15 -117v-272q0 -114 -55.5 -178t-175.5 -64q-117 0 -182.5 66t-65.5 182v282q0 80 -16.5 103t-76.5 29v23h316v-23q-62 -6 -79.5 -28.5t-17.5 -103.5v-279q0 -215 137 -215q97 0 138.5 53.5t41.5 156.5
z" />
    <glyph glyph-name="V" unicode="V" horiz-adv-x="677" 
d="M386 165l125 343q30 79 19 105t-81 31v23h228v-23q-54 -4 -76 -28.5t-52 -107.5l-191 -523h-35l-203 533q-30 80 -48.5 100.5t-71.5 25.5v23h344v-23q-82 -5 -96 -27.5t13 -92.5z" />
    <glyph glyph-name="W" unicode="W" horiz-adv-x="992" 
d="M710 169l109 341q18 51 18 85q0 25 -19 35t-71 14v23h245v-23q-61 -7 -84.5 -30t-49.5 -102l-172 -527h-39l-145 426l-155 -426h-42l-186 533q-27 78 -47 99.5t-72 26.5v23h329v-23q-49 -2 -66.5 -12.5t-17.5 -36.5q0 -20 16 -71l113 -366l111 301l-21 63q-25 73 -44 95
t-64 27v23h315v-23q-53 -5 -71 -14t-18 -32q0 -15 18 -74z" />
    <glyph glyph-name="X" unicode="X" horiz-adv-x="677" 
d="M2 644v23h313v-23q-58 -4 -67 -23t22 -68l97 -160l96 147q36 55 28.5 77t-68.5 27v23h231v-23q-53 -6 -83.5 -28.5t-72.5 -86.5l-108 -164l132 -205q53 -83 80 -107.5t75 -29.5v-23h-317v23q62 6 67.5 30t-37.5 92l-87 141l-101 -149q-38 -56 -26.5 -81.5t81.5 -32.5v-23
h-250v23q48 7 80.5 32t76.5 89l114 172l-134 212q-42 67 -68.5 88.5t-73.5 27.5z" />
    <glyph glyph-name="Y" unicode="Y" horiz-adv-x="646" 
d="M0 644v23h307v-23q-54 -3 -65 -18t11 -52l127 -216l99 195q26 51 15.5 69t-69.5 22v23h221v-23q-56 -4 -80.5 -22.5t-53.5 -74.5l-116 -223v-169q0 -77 17 -102t82 -30v-23h-322v23q65 5 82.5 30.5t17.5 101.5v154l-155 250q-30 48 -52.5 65t-65.5 20z" />
    <glyph glyph-name="Z" unicode="Z" horiz-adv-x="535" 
d="M35 27l322 609h-100q-91 0 -128 -36t-59 -144h-27l10 213l126 -2h323v-27l-319 -610h117q83 0 121.5 40t57.5 141h28l-11 -212l-150 1h-311v27z" />
    <glyph glyph-name="bracketleft" unicode="[" horiz-adv-x="313" 
d="M304 -100l-240 10q10 232 10 392l-6 443l236 10v-21q-6 0 -17 -1q-35 -2 -50.5 -4t-33.5 -10.5t-24.5 -26t-6.5 -47.5q-5 -188 -5 -342l5 -300q0 -16 2.5 -27.5t6 -19.5t12 -14t14 -9t19.5 -5t22 -3t27 -2t29 -2v-21z" />
    <glyph glyph-name="backslash" unicode="\" horiz-adv-x="437" 
d="M411 0l-24 -12l-365 700l24 12z" />
    <glyph glyph-name="bracketright" unicode="]" horiz-adv-x="313" 
d="M249 -90l-240 -10v21q10 1 29 2t27 2t22 3t19.5 5t14 9t12 14t6 19.5t2.5 27.5q5 146 5 300l-5 342q0 30 -6.5 47.5t-25 26t-33.5 10.5t-50 4q-11 1 -17 1v21l236 -10q-6 -283 -6 -443q0 -71 2.5 -169t4.5 -161z" />
    <glyph glyph-name="asciicircum" unicode="^" horiz-adv-x="500" 
d="M256 703l188 -394h-38l-156 335l-156 -335h-38l188 394h12z" />
    <glyph glyph-name="underscore" unicode="_" horiz-adv-x="500" 
d="M495 -161h-490q-5 0 -5 5v34q0 5 5 5h490q5 0 5 -5v-34q0 -5 -5 -5z" />
    <glyph glyph-name="grave" unicode="`" 
d="M286 526q0 -6 -6 -6t-10 4l-135 77q-22 13 -22 38q0 17 10.5 27t26.5 10q21 0 42 -26l90 -114q4 -8 4 -10z" />
    <glyph glyph-name="a" unicode="a" horiz-adv-x="479" 
d="M281 56q-42 -72 -117 -72q-57 0 -94.5 35.5t-37.5 92.5q0 108 148 142q64 12 98 15v61q0 65 -10.5 94.5t-44.5 29.5q-33 0 -44 -16.5t-19 -71.5q-4 -26 -21.5 -41t-41.5 -15q-22 0 -38 16t-16 38q0 52 60.5 84t127.5 32q82 0 123.5 -30.5t41.5 -106.5v-247q0 -65 28 -65
q22 0 42 43l19 -12q-36 -78 -108 -78q-78 0 -96 72zM156 127q0 -38 15.5 -66t40.5 -28q37 0 66 57v156q-39 -4 -68 -16q-54 -21 -54 -103z" />
    <glyph glyph-name="b" unicode="b" horiz-adv-x="531" 
d="M498 249q0 -122 -59.5 -194.5t-163.5 -72.5q-108 0 -200 45l3 175v341q0 77 -11.5 95.5t-63.5 25.5v18l196 24l8 -6q-11 -81 -11 -217v-426q31 -48 78 -48q36 0 58.5 37.5t30 86t7.5 109.5q0 79 -19.5 136.5t-60.5 57.5q-35 0 -65 -45l-14 14q41 75 115 75
q80 0 126 -65.5t46 -165.5z" />
    <glyph glyph-name="c" unicode="c" horiz-adv-x="431" 
d="M289 365q-6 58 -15 74t-39 16q-77 0 -77 -210q0 -55 9.5 -102t34.5 -82t63 -35q69 0 122 68l18 -18q-65 -94 -165 -94q-99 0 -154.5 67.5t-55.5 175.5q0 106 59 180.5t150 74.5q63 0 114 -31.5t51 -82.5q0 -25 -16.5 -42.5t-39.5 -17.5q-24 0 -40 16.5t-19 42.5z" />
    <glyph glyph-name="d" unicode="d" horiz-adv-x="528" 
d="M219 -16q-95 0 -142 67t-47 176q0 108 59.5 180.5t159.5 72.5q40 0 81 -17v119q0 50 -13 63.5t-67 17.5v18l198 23l8 -6l-9 -217v-363q0 -56 14 -75t68 -21l1 -18l-186 -22l-8 6l-5 54q-46 -58 -112 -58zM330 76v333q-30 45 -74 45q-98 0 -98 -210q0 -41 4.5 -77
t15 -68.5t30.5 -51t47 -18.5q41 0 75 47z" />
    <glyph glyph-name="e" unicode="e" horiz-adv-x="460" 
d="M434 248h-277v-23q0 -201 116 -201q77 0 138 77l17 -16q-68 -101 -186 -101q-99 0 -155.5 66t-56.5 174q0 106 56 181t156 75q93 0 142.5 -63t49.5 -169zM239 454q-40 0 -57.5 -45.5t-23.5 -135.5h149q0 88 -14 134.5t-54 46.5z" />
    <glyph glyph-name="f" unicode="f" horiz-adv-x="323" 
d="M201 435v-311q0 -65 16.5 -82t85.5 -21v-21l-162 2l-126 -2v21q46 4 57 22.5t11 86.5v305h-63v27h63v40q0 98 43.5 155t117.5 57q50 0 89 -25.5t39 -69.5q0 -25 -15.5 -41t-38.5 -16q-24 0 -40 16t-17 40q-1 45 -5.5 57t-17.5 12q-37 0 -37 -121v-104h115v-28z" />
    <glyph glyph-name="g" unicode="g" horiz-adv-x="502" 
d="M295 304q0 152 -72 152q-67 0 -67 -148q0 -144 68 -144q71 0 71 140zM112 -121q0 -48 36.5 -71t96.5 -23q51 0 91 30.5t40 75.5q0 40 -28.5 57t-112.5 30q-100 16 -133 34t-33 56q0 24 22.5 48t49.5 38q-109 48 -109 154q0 79 55 125.5t136 46.5q73 0 116 -31
q49 60 98 60q28 0 47 -16t19 -42q0 -20 -13 -33.5t-32 -13.5q-18 0 -28.5 14t-17 28t-15.5 14q-22 0 -44 -24q28 -22 47 -57t19 -74q0 -76 -56.5 -120.5t-138.5 -44.5q-33 0 -61 7q-16 -14 -16 -31q0 -12 27 -19.5t108 -19.5q106 -17 150.5 -46.5t44.5 -95.5
q0 -76 -75.5 -126t-164.5 -50q-40 0 -76.5 6t-69 19t-52 37t-19.5 56q0 39 43.5 68.5t91.5 32.5l5 -13q-48 -38 -48 -86z" />
    <glyph glyph-name="h" unicode="h" horiz-adv-x="548" 
d="M83 133v439q0 53 -12 69t-61 23v18l189 24l8 -8l-6 -185v-103q44 70 121 70q64 0 106.5 -40.5t42.5 -107.5v-197q0 -71 10 -90t54 -26v-19l-127 2l-112 -2v19q38 5 47.5 25t9.5 99v181q0 49 -17.5 82t-48.5 33q-52 0 -86 -70v-242q0 -66 9.5 -84t47.5 -24v-19l-129 2
l-114 -2v19q46 7 57 25.5t11 88.5z" />
    <glyph glyph-name="i" unicode="i" horiz-adv-x="281" 
d="M203 472v-351q0 -59 10.5 -77t53.5 -25v-19l-121 2l-129 -2v19q45 7 56.5 25t11.5 82v232q0 49 -11.5 62.5t-55.5 16.5v19l182 20zM66 620q0 30 21.5 51t51.5 21t51.5 -21t21.5 -51q0 -29 -22 -50.5t-51 -21.5t-51 21.5t-22 50.5z" />
    <glyph glyph-name="j" unicode="j" horiz-adv-x="272" 
d="M201 472v-450q0 -176 -197 -238l-7 18q56 36 71 77.5t15 131.5v345q0 48 -12 63t-57 18v19l184 20zM66 620q0 30 21.5 51t51.5 21t51.5 -21t21.5 -51q0 -29 -22 -50.5t-51 -21.5q-30 0 -51.5 21.5t-21.5 50.5z" />
    <glyph glyph-name="k" unicode="k" horiz-adv-x="539" 
d="M84 130v455q0 44 -13 58t-58 22v17l189 24l7 -8l-7 -185v-389q0 -60 9.5 -78.5t44.5 -25.5v-20l-105 2l-136 -2v20q43 6 56 26.5t13 83.5zM332 65l-122 189l124 117q26 26 26 45q0 21 -47 25v21h198v-21q-72 -8 -140 -71l-69 -65l129 -193q35 -52 55 -69.5t55 -22.5v-20
h-232v20q47 7 23 45z" />
    <glyph glyph-name="l" unicode="l" horiz-adv-x="284" 
d="M84 130v451q0 47 -11.5 61.5t-56.5 22.5v17l187 24l7 -8l-8 -185v-389q0 -60 11 -78.5t53 -25.5v-20l-126 2l-122 -2v20q43 5 54.5 25t11.5 85z" />
    <glyph glyph-name="m" unicode="m" horiz-adv-x="810" 
d="M202 472v-70q44 78 127 78q91 0 129 -85q50 85 133 85q64 0 103 -41.5t39 -107.5v-198q0 -69 11 -88.5t55 -24.5v-20l-119 2l-121 -2v20q38 5 47 26t9 96v182q0 45 -15.5 78.5t-44.5 33.5q-56 0 -87 -77v-237q0 -60 9.5 -78.5t43.5 -23.5v-20l-107 2l-117 -2v20
q34 5 43 23t9 74v207q0 47 -15 79.5t-44 32.5q-63 0 -88 -84v-230q0 -61 9.5 -78.5t47.5 -23.5v-20l-125 2l-115 -2v20q45 6 54.5 23t9.5 85v228q0 49 -10.5 63t-56.5 18v19l182 20z" />
    <glyph glyph-name="n" unicode="n" horiz-adv-x="543" 
d="M202 472v-66q44 74 120 74q66 0 107 -41.5t41 -110.5v-197q0 -66 9.5 -84.5t50.5 -26.5v-20l-114 2l-119 -2v20q37 7 46 26t9 87v189q0 47 -17 81t-49 34q-50 0 -84 -73v-244q0 -59 8.5 -76.5t47.5 -23.5v-20l-122 2l-119 -2v20q44 6 55 24t11 82v230q0 49 -11.5 63.5
t-56.5 17.5v19l183 20z" />
    <glyph glyph-name="o" unicode="o" horiz-adv-x="501" 
d="M471 231q0 -113 -62.5 -181t-157.5 -68q-96 0 -158.5 68t-62.5 181t63.5 181t157.5 68q95 0 157.5 -68t62.5 -181zM343 231q0 221 -93 221t-93 -221t94 -221q92 0 92 221z" />
    <glyph glyph-name="p" unicode="p" horiz-adv-x="533" 
d="M200 470v-55q43 65 118 65q88 0 135.5 -68t47.5 -173q0 -114 -56 -185.5t-162 -71.5q-46 0 -83 22v-112q0 -60 16 -79t77 -25v-19h-283v19q49 6 60.5 24.5t11.5 85.5v449q0 51 -12 68t-59 22v19l183 20zM278 437q-44 0 -78 -65v-314q29 -49 77 -49q34 0 56.5 33t31 79
t8.5 101q0 41 -4.5 76.5t-15 68t-30 51.5t-45.5 19z" />
    <glyph glyph-name="q" unicode="q" horiz-adv-x="518" 
d="M331 79v315q-22 58 -80 58q-34 0 -56.5 -34t-30 -79t-7.5 -101q0 -86 24 -149t75 -63q44 0 75 53zM449 218v-328q0 -62 11 -78t58 -23v-20h-272v20q57 6 71 22.5t14 80.5v147q-43 -57 -110 -57q-93 0 -142 68t-49 171q0 113 59.5 186t154.5 73q56 0 110 -32l93 27l11 -6
q-9 -64 -9 -251z" />
    <glyph glyph-name="r" unicode="r" horiz-adv-x="404" 
d="M202 472v-82q34 92 113 92q35 0 60 -24t25 -60q0 -28 -18.5 -48.5t-43.5 -20.5q-24 0 -41 17.5t-18 42.5q-3 41 -16 41q-17 0 -33.5 -30.5t-26.5 -78.5v-195q0 -62 16 -80.5t81 -26.5v-19l-167 2l-121 -2v19q47 6 59 24.5t12 83.5v220q0 53 -13 69.5t-63 20.5v19l191 20z
" />
    <glyph glyph-name="s" unicode="s" horiz-adv-x="409" 
d="M201 480q47 0 90 -26q17 -11 23 -11q15 0 19 29h21l-4 -162h-21q-10 70 -43 106.5t-85 36.5q-36 0 -59.5 -21.5t-23.5 -56.5q0 -29 24 -49.5t77 -37.5q87 -29 122 -62.5t35 -92.5q0 -72 -46 -111.5t-125 -39.5q-48 0 -89 24q-22 12 -29 12q-15 0 -18 -28h-21v167h21
q9 -68 46 -108t90 -40q40 0 65.5 19t25.5 55q0 27 -23.5 47t-89.5 43q-75 27 -109.5 62.5t-34.5 95.5q0 67 47.5 108t114.5 41z" />
    <glyph glyph-name="t" unicode="t" horiz-adv-x="336" 
d="M193 612v-150h126v-28l-126 2v-334q0 -81 43 -81q44 0 70 77l19 -8q-32 -108 -119 -108q-65 0 -98.5 34.5t-33.5 97.5v322h-67v26h67v134z" />
    <glyph glyph-name="u" unicode="u" horiz-adv-x="547" 
d="M467 476l5 -4q-6 -42 -6 -250v-120q0 -49 13 -61t70 -16v-19l-189 -18l-5 5l-5 70q-44 -81 -125 -81q-68 0 -108.5 39.5t-40.5 106.5v231q0 49 -12 63t-62 18v19l194 20l3 -4q-4 -38 -4 -335q0 -114 67 -114q53 0 85 80v253q0 49 -12 63t-59 18v19z" />
    <glyph glyph-name="v" unicode="v" horiz-adv-x="501" 
d="M0 442v20l116 -2l144 2v-20q-40 -2 -54 -14.5t-4 -41.5l89 -258l90 244q14 40 2 54t-60 16v20l102 -2l76 2v-20q-41 -4 -58 -18t-31 -52l-143 -390h-32l-156 404q-11 27 -28 39.5t-53 16.5z" />
    <glyph glyph-name="w" unicode="w" horiz-adv-x="771" 
d="M0 442v20l116 -2l129 2v-20q-35 -2 -46.5 -13t-4.5 -30l97 -267l79 206l-18 48q-19 51 -79 56v20l118 -2l124 2v-20q-37 -3 -52.5 -15.5t-7.5 -32.5l101 -266l90 257q11 31 -0.5 42.5t-54.5 14.5v20l99 -2l81 2v-20q-42 -4 -59 -14.5t-27 -39.5l-145 -406h-34l-118 311
l-119 -311h-34l-152 404q-11 29 -28 41.5t-55 14.5z" />
    <glyph glyph-name="x" unicode="x" horiz-adv-x="481" 
d="M9 0v20q37 4 61 22t48 56l72 118l-106 170q-19 31 -35.5 42t-47.5 14v20h239v-20q-41 -2 -50.5 -15t4.5 -29l75 -121l63 108q33 57 -45 57v20h181v-20q-39 -1 -62.5 -16t-43.5 -49l-74 -125l103 -168q19 -33 36.5 -46.5t48.5 -17.5v-20h-234v20q37 1 47.5 12.5t-2.5 30.5
l-78 126l-59 -98q-22 -31 -14 -48.5t57 -22.5v-20h-184z" />
    <glyph glyph-name="y" unicode="y" horiz-adv-x="517" 
d="M431 381l-176 -470q-26 -67 -58 -98t-80 -31q-30 0 -51 17.5t-21 43.5q0 22 15.5 37t37.5 15q18 0 37.5 -22t32.5 -22q19 0 32 16t26 49l24 65l-162 404q-11 27 -31.5 40t-56.5 17v20l125 -2l138 2v-20q-52 -4 -63 -20.5t5 -48.5l99 -248l96 262q10 26 -7 40t-59 15v20
l108 -2l75 2v-20q-37 -2 -55.5 -16t-30.5 -45z" />
    <glyph glyph-name="z" unicode="z" horiz-adv-x="414" 
d="M31 306l9 160l81 -3h261l2 -14l-227 -423h68q69 0 93 22.5t43 100.5h22l-8 -151l-86 2h-261l-2 11l225 426h-77q-53 0 -75.5 -25t-43.5 -106h-24z" />
    <glyph glyph-name="braceleft" unicode="{" horiz-adv-x="349" 
d="M327 -79v-21q-12 0 -35 1q-39 1 -58 2t-46.5 6t-40 13.5t-22 25.5t-9.5 41q0 31 8.5 124.5t8.5 120.5q0 44 -24.5 64t-90.5 20h-10v20h10q66 0 90.5 20t24.5 64q0 27 -8.5 119t-8.5 123t11.5 49.5t42.5 27t52.5 10.5t75.5 3q19 1 29 1v-21q-71 -5 -91 -20t-20 -81
q0 -30 4.5 -111.5t4.5 -109.5q0 -19 -6.5 -33t-13 -21.5t-26 -14t-29 -8.5t-38.5 -7q29 -5 38.5 -7t29 -8.5t26 -14t13 -21.5t6.5 -33q0 -28 -4.5 -111t-4.5 -113q0 -63 18 -77.5t82 -20.5h3.5t3.5 -0.5t4 -0.5z" />
    <glyph glyph-name="bar" unicode="|" horiz-adv-x="227" 
d="M127 -220h-27v1000h27v-1000z" />
    <glyph glyph-name="braceright" unicode="}" horiz-adv-x="349" 
d="M22 -100v21q4 0 11 1q64 6 82 20.5t18 77.5q0 30 -4.5 113t-4.5 111q0 19 6.5 33t13.5 21.5t27 14t29 8.5t38 7q-29 5 -38 7t-29 8.5t-27 14t-13.5 21.5t-6.5 33q0 28 4.5 109.5t4.5 111.5q0 66 -20 81t-91 20v21q115 -4 142 -10q65 -14 70 -70v-11q0 -31 -9 -123
t-9 -119q0 -44 24.5 -64t90.5 -20h10v-20h-10q-66 0 -90.5 -20t-24.5 -64q0 -27 9 -120.5t9 -124.5q0 -20 -5 -35t-19 -24.5t-25 -15t-37.5 -8.5t-41 -3.5t-49.5 -1.5q-23 -1 -35 -1z" />
    <glyph glyph-name="asciitilde" unicode="~" horiz-adv-x="407" 
d="M160 305l102 -32q7 -2 12 -3.5t10 -1.5t8 -0.5t8 1.5t6.5 2.5t7 4.5t7.5 5t9 7.5t10 8.5l17 -12q-33 -84 -103 -63l-100 31q-35 9 -50.5 3t-40.5 -32l-13 9q9 40 39 62.5t71 9.5z" />
    <glyph glyph-name="exclamdown" unicode="&#xa1;" horiz-adv-x="251" 
d="M126 -222q-70 0 -70 60q0 19 25 194t28 213q0 11 9 11h13q9 0 9 -11q3 -39 28 -213.5t25 -193.5q0 -60 -67 -60zM195 412q0 -27 -19.5 -45.5t-46.5 -18.5t-46 18.5t-19 45.5q0 26 19.5 45t45.5 19q27 0 46.5 -19t19.5 -45z" />
    <glyph glyph-name="cent" unicode="&#xa2;" horiz-adv-x="444" 
d="M268 -106h-36l4 89q-93 5 -144 71.5t-51 170.5q0 102 54 174.5t140 79.5l-5 114h37l-5 -114q60 -3 106.5 -34t46.5 -79q0 -25 -16.5 -42.5t-39.5 -17.5q-24 0 -40 16.5t-19 42.5q-6 58 -15 74t-39 16q-77 0 -77 -210q0 -55 9.5 -102t34.5 -82t63 -35q69 0 122 68l18 -18
q-61 -87 -154 -93z" />
    <glyph glyph-name="sterling" unicode="&#xa3;" horiz-adv-x="534" 
d="M33 293v28h80q-33 72 -33 126q0 94 61.5 148t159.5 54q79 0 133.5 -41.5t54.5 -87.5q0 -28 -13 -49.5t-38 -21.5t-41 14t-19 40l-6 37.5t-7.5 32t-13 28.5t-20.5 16t-30 7q-98 0 -98 -150q0 -28 8.5 -59t14.5 -45t23 -49h147v-28h-134q26 -55 26 -105q0 -88 -112 -140v-8
l238 39q29 4 46.5 30.5t21.5 50.5l3 25l22 -2l-19 -183h-469v23q148 3 148 133q0 51 -41 137h-93z" />
    <glyph glyph-name="currency" unicode="&#xa4;" horiz-adv-x="623" 
d="M460 323h-272q0 -43 4 -75h259l-5 -30h-250q31 -194 162 -194q54 0 93.5 27t74.5 81l25 -16q-41 -66 -92 -100.5t-122 -34.5q-111 0 -184.5 64t-95.5 173h-53v30h48q-3 27 -3 58v17h-45v30h47q13 129 89.5 212.5t190.5 83.5q82 0 151.5 -47t69.5 -113q0 -26 -17 -44.5
t-43 -18.5q-24 0 -42 17.5t-21 43.5q-11 79 -29 106t-71 27q-70 0 -104 -74.5t-37 -192.5h277z" />
    <glyph glyph-name="yen" unicode="&#xa5;" horiz-adv-x="619" 
d="M1 615v22h293v-22q-52 -3 -62.5 -17.5t10.5 -49.5l122 -206l94 186q25 49 15 66t-66 21v22h210v-22q-53 -4 -76.5 -21.5t-50.5 -71.5l-104 -199h166v-28h-173v-88h174v-27h-174v-32q0 -73 16 -97t78 -29v-22h-307v22q62 5 79 29t17 97v32h-175v27h175v88h-176v28h158
l-130 211q-30 46 -51 62t-62 19z" />
    <glyph glyph-name="brokenbar" unicode="&#xa6;" horiz-adv-x="227" 
d="M127 -220h-27v361h27v-361zM127 780v-365h-27v365h27z" />
    <glyph glyph-name="section" unicode="&#xa7;" horiz-adv-x="489" 
d="M141 -69q5 -88 70 -88q37 0 66 26.5t29 69.5q0 12 -3.5 24t-14 24.5t-17.5 20.5t-25.5 21.5t-25.5 18.5t-30.5 20t-28.5 18q-35 23 -52 35.5t-42 34t-36 43.5t-11 46q0 58 30 90t68 42q-2 2 -17 16.5t-19 19t-15 18.5t-15 24t-8 25.5t-4 32.5q0 75 61 126t148 51
q81 0 135.5 -32.5t54.5 -79.5q0 -31 -16 -48t-41 -17q-18 0 -30.5 7t-19 20t-9.5 25.5t-6 29.5q-1 5 -1 7q-5 28 -23 45.5t-43 17.5q-40 0 -70.5 -27t-30.5 -77q0 -11 2 -21t8 -19.5t11 -17.5t16 -18t17.5 -16t21 -16.5t21 -15t24 -16t23.5 -15.5q42 -28 57 -39t43 -35.5
t39 -47.5t11 -50q0 -51 -32.5 -91.5t-61.5 -45.5q26 -19 48 -53t22 -66q0 -72 -61.5 -116t-158.5 -44q-78 0 -131 33t-53 81q0 37 16 57t44 20q27 0 45.5 -23.5t20.5 -54.5zM245 286q-75 49 -104 72q-22 -30 -22 -67q0 -33 96 -97q2 -2 4 -3t4.5 -3t4.5 -3l96 -66
q19 24 19 62q0 26 -22 48.5t-76 56.5z" />
    <glyph glyph-name="dieresis" unicode="&#xa8;" 
d="M52 598q0 22 16.5 38t39.5 16t39 -16t16 -38t-16.5 -38.5t-38.5 -16.5q-23 0 -39.5 16.5t-16.5 38.5zM236 598q0 22 16 38t39 16t39 -16t16 -38t-16 -38.5t-39 -16.5t-39 16.5t-16 38.5z" />
    <glyph glyph-name="copyright" unicode="&#xa9;" horiz-adv-x="809" 
d="M761 342q0 -151 -103 -254t-254 -103t-254 103t-103 254t103 254t254 103t254 -103t103 -254zM723 342q0 138 -90.5 230t-228.5 92q-137 0 -227 -92t-90 -230t90 -230t227 -92q138 0 228.5 92t90.5 230zM538 234l21 -14q-58 -86 -146 -86q-91 0 -143.5 58.5t-52.5 149.5
q0 92 53.5 154t138.5 62q59 0 104.5 -30t45.5 -74q0 -16 -11.5 -28.5t-28.5 -12.5q-18 0 -30 11.5t-14 28.5q-7 45 -20.5 61.5t-47.5 16.5q-92 0 -92 -169q0 -192 112 -192q38 0 61.5 14.5t49.5 49.5z" />
    <glyph glyph-name="ordfeminine" unicode="&#xaa;" horiz-adv-x="341" 
d="M196 272q-28 -47 -78 -47q-41 0 -67.5 22.5t-26.5 59.5q0 70 106 93q12 3 23.5 5t23 3.5t16.5 2.5v38q0 42 -6.5 59t-28.5 17t-29 -10t-12 -42q-5 -36 -45 -36q-15 0 -26.5 9.5t-11.5 23.5q0 33 42.5 55t86.5 22q117 0 117 -90v-155q0 -40 19 -40q15 0 26 23l13 -11
q-24 -49 -75 -49q-58 0 -67 47zM115 317q0 -51 36 -51q23 0 42 37v85q-23 -2 -43 -10q-35 -14 -35 -61z" />
    <glyph glyph-name="guillemotleft" unicode="&#xab;" horiz-adv-x="563" 
d="M509 27l-15 -11q-132 129 -234 196v32q107 70 234 198l15 -12q-55 -122 -127 -203q74 -84 127 -200zM292 27l-15 -11q-135 132 -235 199v30q113 71 236 197l14 -12q-57 -124 -127 -202q68 -76 127 -201z" />
    <glyph glyph-name="registered" unicode="&#xae;" horiz-adv-x="809" 
d="M633 163l2 -15q-24 -13 -66 -13q-38 0 -63.5 17.5t-49.5 57.5l-68 105h-34v-73q0 -50 11 -64t54 -17v-16h-206v16q40 3 51 16.5t11 62.5v220q0 42 -10.5 52.5t-51.5 14.5v24h185q75 0 119 -29t44 -85q0 -93 -92 -118l61 -92q26 -38 46 -51t57 -13zM475 433q0 90 -88 90
h-33v-180h38q41 0 62 24t21 66zM761 342q0 -151 -103 -254t-254 -103t-254 103t-103 254t103 254t254 103t254 -103t103 -254zM723 342q0 138 -90.5 230t-228.5 92q-137 0 -227 -92t-90 -230t90 -230t227 -92q138 0 228.5 92t90.5 230z" />
    <glyph glyph-name="macron" unicode="&#xaf;" 
d="M345 580h-290q-5 0 -5 5v30q0 5 5 5h290q5 0 5 -5v-30q0 -5 -5 -5z" />
    <glyph glyph-name="degree" unicode="&#xb0;" horiz-adv-x="316" 
d="M158 629q51 0 86 -34t35 -84q0 -52 -34.5 -85t-86.5 -33q-50 0 -85 33t-35 85q0 50 34.5 84t85.5 34zM158 598q-37 0 -60.5 -24t-23.5 -63t23.5 -63t60.5 -24t60.5 23.5t23.5 63.5q0 39 -23.5 63t-60.5 24z" />
    <glyph glyph-name="plusminus" unicode="&#xb1;" horiz-adv-x="527" 
d="M454 33h-390v31h390v-31zM454 296h-178v-179h-34v179h-178v31h178v178h34v-178h178v-31z" />
    <glyph glyph-name="twosuperior" unicode="&#xb2;" horiz-adv-x="500" 
d="M406 545l-28 -133h-273v16q86 84 112 110q41 42 59.5 84.5t18.5 100.5q0 43 -16 69.5t-43 26.5q-26 0 -36.5 -17.5t-16.5 -70.5q-2 -19 -15 -31t-30 -12q-16 0 -27.5 14t-11.5 32q0 43 44 75.5t97 32.5q65 0 106 -34t41 -96q0 -52 -30.5 -92.5t-116.5 -109.5l-39 -31h115
q28 0 45 15t27 53z" />
    <glyph glyph-name="threesuperior" unicode="&#xb3;" horiz-adv-x="500" 
d="M421 537q0 -65 -53 -97.5t-127 -32.5q-55 0 -99 24.5t-44 64.5q0 20 13 34.5t32 14.5q14 0 26 -10t14 -26q6 -52 17 -66.5t42 -14.5q84 0 84 109q0 83 -63 83q-15 0 -53 -7l-5 24q58 11 81.5 33.5t23.5 67.5q0 84 -64 84q-31 0 -41.5 -14.5t-17.5 -64.5q-2 -15 -14 -25.5
t-28 -10.5q-15 0 -26.5 13.5t-11.5 28.5q0 41 45.5 67.5t97.5 26.5q63 0 106 -23.5t43 -75.5q0 -36 -31.5 -64t-81.5 -42q8 2 16 2q46 0 82.5 -25t36.5 -78z" />
    <glyph glyph-name="acute" unicode="&#xb4;" 
d="M113 526q0 3 5 10l89 114q21 26 42 26q17 0 27.5 -10t10.5 -27q0 -24 -23 -38l-134 -77q-5 -4 -10 -4q-7 0 -7 6z" />
    <glyph glyph-name="mu" unicode="&#xb5;" horiz-adv-x="625" 
d="M510 476l5 -4q-6 -42 -6 -250v-120q0 -62 26 -68q16 -3 50 21l14 -10q-8 -16 -61 -36t-82 -20q-10 0 -18.5 5t-16 15t-11.5 17t-10 20.5t-7 15.5q-44 -80 -125 -80q-35 0 -60 25l-3 -1q9 -27 20 -86t11 -80q0 -13 -23 -24.5t-58 -10.5q-23 0 -36 9v546q0 48 -12.5 62
t-61.5 18v19l194 20l3 -4q-4 -38 -4 -335q0 -114 65 -114q55 0 87 80v254q0 48 -12 62t-59 18v19z" />
    <glyph glyph-name="paragraph" unicode="&#xb6;" horiz-adv-x="509" 
d="M412 0v644h-146v-644h-27v264q-73 0 -135.5 53t-62.5 141q0 92 62 150.5t136 58.5h260v-23h-60v-644h-27z" />
    <glyph glyph-name="periodcentered" unicode="&#xb7;" horiz-adv-x="231" 
d="M50 256q0 27 19 45.5t46 18.5t46.5 -18.5t19.5 -45.5q0 -26 -19.5 -45t-46.5 -19q-26 0 -45.5 19t-19.5 45z" />
    <glyph glyph-name="cedilla" unicode="&#xb8;" 
d="M215 0h25l-31 -47q77 -39 77 -91q0 -38 -28.5 -60.5t-74.5 -22.5q-29 0 -49 10.5t-20 27.5q0 12 6.5 20t15.5 8q14 0 28.5 -21.5t27.5 -21.5q30 0 30 37q0 17 -14 32.5t-51 38.5z" />
    <glyph glyph-name="onesuperior" unicode="&#xb9;" horiz-adv-x="500" 
d="M366 412h-225v18q47 2 59.5 13.5t12.5 38.5v179q0 51 5 94q-43 0 -83 20l4 19q41 -10 62 -6q62 5 92 54l14 -3q-11 -55 -11 -106v-252q0 -18 3 -27t19 -16t48 -8v-18z" />
    <glyph glyph-name="ordmasculine" unicode="&#xba;" horiz-adv-x="348" 
d="M324 385q0 -73 -42.5 -117.5t-105.5 -44.5q-62 0 -105 44.5t-43 117.5t43.5 117.5t104.5 44.5q63 0 105.5 -44.5t42.5 -117.5zM235 385q0 140 -59 140t-59 -140t59 -140t59 140z" />
    <glyph glyph-name="guillemotright" unicode="&#xbb;" horiz-adv-x="563" 
d="M69 16l-15 11q53 116 127 200q-72 81 -127 203l15 12q127 -128 234 -198v-32q-102 -67 -234 -196zM286 16l-15 11q59 125 127 201q-70 78 -127 202l14 12q123 -126 236 -197v-30q-100 -67 -235 -199z" />
    <glyph glyph-name="onequarter" unicode="&#xbc;" horiz-adv-x="653" 
d="M521 -156h-11q-2 35 -9.5 44.5t-28.5 9.5h-25v-64q0 -27 9 -33t50 -8v-16h-211v16q42 2 53.5 7.5t11.5 28.5v69h-171l-4 19l220 294h42v-286h25q20 0 27 9t10 43h12v-133zM360 -75v192l-141 -192h141zM42 228v33l569 123v-33zM434 412h-226v18q47 2 59.5 13.5t12.5 38.5
v179q0 51 5 94q-43 0 -83 20l4 19q41 -10 63 -6q62 5 92 54l14 -3q-11 -55 -11 -106v-252q0 -18 3 -27t19 -16t48 -8v-18z" />
    <glyph glyph-name="onehalf" unicode="&#xbd;" horiz-adv-x="653" 
d="M434 412h-226v18q47 2 59.5 13.5t12.5 38.5v179q0 51 5 94q-43 0 -83 20l4 19q41 -10 63 -6q62 5 92 54l14 -3q-11 -55 -11 -106v-252q0 -18 3 -27t19 -16t48 -8v-18zM517 -99l-29 -133h-273v16q67 64 112 110q41 42 59.5 84.5t18.5 100.5q0 44 -15.5 70t-43.5 26
q-26 0 -36.5 -17.5t-16.5 -70.5q-1 -18 -14 -30.5t-30 -12.5q-16 0 -28 14t-12 32q0 43 44.5 75.5t96.5 32.5q65 0 106 -34t41 -96q0 -50 -30.5 -92t-115.5 -110l-40 -31h115q28 0 45 15t27 53zM42 228v33l569 123v-33z" />
    <glyph glyph-name="threequarters" unicode="&#xbe;" horiz-adv-x="653" 
d="M522 -156h-12q-2 35 -9.5 44.5t-28.5 9.5h-25v-64q0 -27 9.5 -33t50.5 -8v-16h-212v16q42 2 54 7.5t12 28.5v69h-172l-4 19l221 294h41v-286h25q21 0 28 9t9 43h13v-133zM492 537q0 -65 -53.5 -97.5t-126.5 -32.5q-56 0 -100 24.5t-44 64.5q0 20 13 34.5t32 14.5
q15 0 27 -10t13 -26q6 -52 17.5 -66.5t42.5 -14.5q83 0 83 109q0 83 -63 83q-15 0 -53 -7l-4 24q58 11 81 33.5t23 67.5q0 84 -64 84q-30 0 -41 -14.5t-18 -64.5q-2 -15 -13.5 -25.5t-27.5 -10.5q-15 0 -27 13.5t-12 28.5q0 41 45.5 67.5t97.5 26.5q63 0 106 -23.5t43 -75.5
q0 -36 -31.5 -64t-81.5 -42q8 2 16 2q47 0 83.5 -25t36.5 -78zM42 228v33l569 123v-33zM361 -75v192l-142 -192h142z" />
    <glyph glyph-name="questiondown" unicode="&#xbf;" horiz-adv-x="495" 
d="M274 220q0 16 -7 33l29 5q18 -27 18 -48q0 -30 -14 -53.5t-34 -41.5t-40.5 -38.5t-34.5 -55t-14 -80.5q0 -60 21.5 -96.5t63.5 -36.5q35 0 48 25t25 107q3 24 20.5 40t40.5 16q24 0 42 -21.5t18 -46.5q0 -60 -63.5 -105t-134.5 -45q-94 0 -151 46t-57 132q0 47 23 84
t56 59.5t66 41t56 38.5t23 41zM339 412q0 -27 -19 -45.5t-46 -18.5t-46.5 18.5t-19.5 45.5q0 26 19.5 45t46.5 19q26 0 45.5 -19t19.5 -45z" />
    <glyph glyph-name="Agrave" unicode="&#xc0;" horiz-adv-x="667" 
d="M421 133l-27 76h-224l-20 -56q-25 -75 -14 -98.5t73 -32.5v-22h-209v22q47 8 68.5 33t48.5 98l191 529h39l207 -543q28 -74 46 -93t67 -24v-22h-295v22q56 6 65 26.5t-16 84.5zM282 525l-102 -287h204zM377 731q0 -6 -6 -6t-10 4l-135 77q-22 13 -22 38q0 16 10 26.5
t27 10.5q21 0 42 -26l90 -114q4 -8 4 -10z" />
    <glyph glyph-name="Aacute" unicode="&#xc1;" horiz-adv-x="667" 
d="M421 133l-27 76h-224l-20 -56q-25 -75 -14 -98.5t73 -32.5v-22h-209v22q47 8 68.5 33t48.5 98l191 529h39l207 -543q28 -74 46 -93t67 -24v-22h-295v22q56 6 65 26.5t-16 84.5zM282 525l-102 -287h204zM259 731q0 3 5 10l89 114q21 26 42 26q17 0 27.5 -10t10.5 -27
q0 -24 -23 -38l-134 -77q-5 -4 -10 -4q-7 0 -7 6z" />
    <glyph glyph-name="Acircumflex" unicode="&#xc2;" horiz-adv-x="667" 
d="M421 133l-27 76h-224l-20 -56q-25 -75 -14 -98.5t73 -32.5v-22h-209v22q47 8 68.5 33t48.5 98l191 529h39l207 -543q28 -74 46 -93t67 -24v-22h-295v22q56 6 65 26.5t-16 84.5zM282 525l-102 -287h204zM313 881h28q67 -98 121 -146l-11 -14q-65 22 -124 64
q-58 -41 -124 -64l-11 14q67 61 121 146z" />
    <glyph glyph-name="Atilde" unicode="&#xc3;" horiz-adv-x="667" 
d="M421 133l-27 76h-224l-20 -56q-25 -75 -14 -98.5t73 -32.5v-22h-209v22q47 8 68.5 33t48.5 98l191 529h39l207 -543q28 -74 46 -93t67 -24v-22h-295v22q56 6 65 26.5t-16 84.5zM282 525l-102 -287h204zM395 752q-26 0 -73.5 16.5t-71.5 16.5q-40 0 -65 -32l-10 8
q5 40 29.5 68t56.5 28q26 0 73 -16.5t72 -16.5q41 0 65 32l10 -8q-6 -41 -30 -68.5t-56 -27.5z" />
    <glyph glyph-name="Adieresis" unicode="&#xc4;" horiz-adv-x="667" 
d="M421 133l-27 76h-224l-20 -56q-25 -75 -14 -98.5t73 -32.5v-22h-209v22q47 8 68.5 33t48.5 98l191 529h39l207 -543q28 -74 46 -93t67 -24v-22h-295v22q56 6 65 26.5t-16 84.5zM282 525l-102 -287h204zM186 803q0 22 16.5 38t39.5 16t39 -16t16 -38q0 -23 -16.5 -39
t-38.5 -16q-23 0 -39.5 16.5t-16.5 38.5zM370 803q0 22 16 38t39 16t39 -16t16 -38q0 -23 -16 -39t-39 -16t-39 16t-16 39z" />
    <glyph glyph-name="Aring" unicode="&#xc5;" horiz-adv-x="667" 
d="M330 816q37 0 60.5 -25.5t23.5 -58.5q0 -26 -15 -48.5t-41 -31.5l196 -513q28 -74 46 -93t67 -24v-22h-295v22q56 6 65 26.5t-16 84.5l-27 76h-224l-20 -56q-25 -75 -14 -98.5t73 -32.5v-22h-209v22q47 8 68.5 33t48.5 98l181 501q-24 10 -38 31.5t-14 46.5
q0 33 23.5 58.5t60.5 25.5zM282 525l-102 -287h204zM279 732q0 -19 13 -34t33 -16h5q22 0 35.5 14.5t13.5 35.5q0 20 -13.5 35t-35.5 15t-36.5 -15t-14.5 -35z" />
    <glyph glyph-name="AE" unicode="&#xc6;" horiz-adv-x="892" 
d="M722 445h25v-229h-25q-11 66 -28.5 88.5t-63.5 22.5h-74v-187q0 -56 17.5 -83t66.5 -27h39q63 0 93 37.5t48 133.5h30v-201h-505v22q58 5 72.5 29t14.5 105v54h-221l-31 -57q-43 -79 -38 -101t69 -30v-22h-211v22q51 9 78.5 32.5t67.5 98.5l272 514h423l1 -191h-28
q-19 95 -49.5 128t-99.5 33h-109v-282h74q47 0 64.5 17t27.5 73zM225 238h207v396z" />
    <glyph glyph-name="Ccedilla" unicode="&#xc7;" horiz-adv-x="593" 
d="M540 140l26 -18q-43 -69 -96.5 -105t-127.5 -36q-3 0 -8.5 0.5t-7.5 0.5l-19 -29q77 -39 77 -91q0 -38 -28.5 -60.5t-74.5 -22.5q-29 0 -49 10.5t-20 27.5q0 12 6.5 20t15.5 8q13 0 27.5 -21.5t28.5 -21.5q30 0 30 37q0 17 -14 32.5t-51 38.5l47 74q-123 14 -192.5 107.5
t-69.5 233.5q0 153 82 253.5t213 100.5q86 0 158.5 -49t72.5 -118q0 -26 -17.5 -46t-44.5 -20q-25 0 -43.5 18.5t-22.5 45.5q-12 83 -30.5 110.5t-74.5 27.5q-53 0 -87 -41t-47 -103t-13 -146q0 -65 9 -120.5t28 -105t55 -78t86 -28.5q56 0 98 28.5t78 85.5z" />
    <glyph glyph-name="Egrave" unicode="&#xc8;" horiz-adv-x="568" 
d="M400 445h25v-229h-25q-12 66 -29 88.5t-63 22.5h-74v-188q0 -56 17.5 -83t66.5 -27h39q63 0 93 38t49 135h28v-202h-503v22q58 5 72.5 29t14.5 105v396q0 54 -15.5 70t-74.5 23v22h497l1 -190h-27q-19 94 -51 127.5t-102 33.5h-105v-283h74q47 0 64 17t28 73zM371 731
q0 -6 -6 -6t-10 4l-135 77q-22 13 -22 38q0 16 10 26.5t27 10.5q21 0 42 -26l90 -114q4 -8 4 -10z" />
    <glyph glyph-name="Eacute" unicode="&#xc9;" horiz-adv-x="568" 
d="M400 445h25v-229h-25q-12 66 -29 88.5t-63 22.5h-74v-188q0 -56 17.5 -83t66.5 -27h39q63 0 93 38t49 135h28v-202h-503v22q58 5 72.5 29t14.5 105v396q0 54 -15.5 70t-74.5 23v22h497l1 -190h-27q-19 94 -51 127.5t-102 33.5h-105v-283h74q47 0 64 17t28 73zM198 731
q0 3 5 10l89 114q21 26 42 26q17 0 27.5 -10t10.5 -27q0 -24 -23 -38l-134 -77q-5 -4 -10 -4q-7 0 -7 6z" />
    <glyph glyph-name="Ecircumflex" unicode="&#xca;" horiz-adv-x="568" 
d="M400 445h25v-229h-25q-12 66 -29 88.5t-63 22.5h-74v-188q0 -56 17.5 -83t66.5 -27h39q63 0 93 38t49 135h28v-202h-503v22q58 5 72.5 29t14.5 105v396q0 54 -15.5 70t-74.5 23v22h497l1 -190h-27q-19 94 -51 127.5t-102 33.5h-105v-283h74q47 0 64 17t28 73zM271 881h28
q67 -98 121 -146l-11 -14q-65 22 -124 64q-58 -41 -124 -64l-11 14q67 61 121 146z" />
    <glyph glyph-name="Edieresis" unicode="&#xcb;" horiz-adv-x="568" 
d="M400 445h25v-229h-25q-12 66 -29 88.5t-63 22.5h-74v-188q0 -56 17.5 -83t66.5 -27h39q63 0 93 38t49 135h28v-202h-503v22q58 5 72.5 29t14.5 105v396q0 54 -15.5 70t-74.5 23v22h497l1 -190h-27q-19 94 -51 127.5t-102 33.5h-105v-283h74q47 0 64 17t28 73zM140 803
q0 22 16.5 38t39.5 16t39 -16t16 -38q0 -23 -16.5 -39t-38.5 -16q-23 0 -39.5 16.5t-16.5 38.5zM324 803q0 22 16 38t39 16t39 -16t16 -38q0 -23 -16 -39t-39 -16t-39 16t-16 39z" />
    <glyph glyph-name="Igrave" unicode="&#xcc;" horiz-adv-x="354" 
d="M335 644q-64 -5 -80 -28.5t-16 -105.5v-353q0 -81 17 -105t80 -29v-23h-315v23q62 5 78 29t16 105v353q0 82 -15.5 105.5t-78.5 28.5v23h314v-23zM265 731q0 -6 -6 -6t-10 4l-135 77q-22 13 -22 38q0 16 10 26.5t27 10.5q21 0 42 -26l90 -114q4 -8 4 -10z" />
    <glyph glyph-name="Iacute" unicode="&#xcd;" horiz-adv-x="354" 
d="M335 644q-64 -5 -80 -28.5t-16 -105.5v-353q0 -81 17 -105t80 -29v-23h-315v23q62 5 78 29t16 105v353q0 82 -15.5 105.5t-78.5 28.5v23h314v-23zM92 731q0 3 5 10l89 114q21 26 42 26q17 0 27.5 -10t10.5 -27q0 -24 -23 -38l-134 -77q-5 -4 -10 -4q-7 0 -7 6z" />
    <glyph glyph-name="Icircumflex" unicode="&#xce;" horiz-adv-x="354" 
d="M335 644q-64 -5 -80 -28.5t-16 -105.5v-353q0 -81 17 -105t80 -29v-23h-315v23q62 5 78 29t16 105v353q0 82 -15.5 105.5t-78.5 28.5v23h314v-23zM164 881h28q67 -98 121 -146l-11 -14q-65 22 -124 64q-58 -41 -124 -64l-11 14q67 61 121 146z" />
    <glyph glyph-name="Idieresis" unicode="&#xcf;" horiz-adv-x="354" 
d="M335 644q-64 -5 -80 -28.5t-16 -105.5v-353q0 -81 17 -105t80 -29v-23h-315v23q62 5 78 29t16 105v353q0 82 -15.5 105.5t-78.5 28.5v23h314v-23zM31 803q0 22 16.5 38t39.5 16t39 -16t16 -38q0 -23 -16 -39t-39 -16t-39.5 16.5t-16.5 38.5zM215 803q0 22 16 38t39 16
t39 -16t16 -38q0 -23 -16.5 -39t-38.5 -16t-38.5 16t-16.5 39z" />
    <glyph glyph-name="Eth" unicode="&#xd0;" horiz-adv-x="695" 
d="M30 324v34h91v153q0 81 -15 105t-76 29v22h296q152 0 243.5 -90t91.5 -239q0 -145 -88 -241.5t-236 -96.5h-303v24q57 6 72 30t15 104v166h-91zM515 332q0 80 -18.5 146.5t-63.5 113t-111 46.5h-77v-280h96v-34h-96v-164q0 -75 14.5 -103t59.5 -28h21q50 0 85.5 25.5
t54 70.5t27 95.5t8.5 111.5z" />
    <glyph glyph-name="Ntilde" unicode="&#xd1;" horiz-adv-x="707" 
d="M600 520v-528h-43l-411 566v-405q0 -78 17.5 -100.5t92.5 -29.5v-23h-240v23q63 6 78.5 29t15.5 98v368q0 75 -14.5 95t-80.5 29v25h209l340 -477v328q0 77 -17.5 99t-91.5 27v23h234v-23q-57 -6 -73 -29t-16 -95zM421 752q-26 0 -73.5 16.5t-71.5 16.5q-40 0 -65 -32
l-10 8q5 40 29.5 68t56.5 28q26 0 73 -16.5t72 -16.5q41 0 65 32l10 -8q-6 -41 -30 -68.5t-56 -27.5z" />
    <glyph glyph-name="Ograve" unicode="&#xd2;" horiz-adv-x="715" 
d="M674 330q0 -153 -85 -251t-232 -98q-146 0 -231.5 98.5t-85.5 250.5q0 153 85 251t232 98t232 -98t85 -251zM528 330q0 316 -171 316t-171 -316t171 -316t171 316zM443 731q0 -6 -6 -6t-10 4l-135 77q-22 13 -22 38q0 16 10 26.5t27 10.5q21 0 42 -26l90 -114q4 -8 4 -10
z" />
    <glyph glyph-name="Oacute" unicode="&#xd3;" horiz-adv-x="715" 
d="M674 330q0 -153 -85 -251t-232 -98q-146 0 -231.5 98.5t-85.5 250.5q0 153 85 251t232 98t232 -98t85 -251zM528 330q0 316 -171 316t-171 -316t171 -316t171 316zM269 731q0 3 5 10l89 114q21 26 42 26q17 0 27.5 -10t10.5 -27q0 -24 -23 -38l-134 -77q-5 -4 -10 -4
q-7 0 -7 6z" />
    <glyph glyph-name="Ocircumflex" unicode="&#xd4;" horiz-adv-x="715" 
d="M674 330q0 -153 -85 -251t-232 -98q-146 0 -231.5 98.5t-85.5 250.5q0 153 85 251t232 98t232 -98t85 -251zM528 330q0 316 -171 316t-171 -316t171 -316t171 316zM343 881h28q67 -98 121 -146l-11 -14q-65 22 -124 64q-58 -41 -124 -64l-11 14q67 61 121 146z" />
    <glyph glyph-name="Otilde" unicode="&#xd5;" horiz-adv-x="715" 
d="M674 330q0 -153 -85 -251t-232 -98q-146 0 -231.5 98.5t-85.5 250.5q0 153 85 251t232 98t232 -98t85 -251zM528 330q0 316 -171 316t-171 -316t171 -316t171 316zM424 752q-26 0 -73.5 16.5t-71.5 16.5q-40 0 -65 -32l-10 8q5 40 29.5 68t56.5 28q26 0 73 -16.5
t72 -16.5q41 0 65 32l10 -8q-6 -41 -30 -68.5t-56 -27.5z" />
    <glyph glyph-name="Odieresis" unicode="&#xd6;" horiz-adv-x="715" 
d="M674 330q0 -153 -85 -251t-232 -98q-146 0 -231.5 98.5t-85.5 250.5q0 153 85 251t232 98t232 -98t85 -251zM528 330q0 316 -171 316t-171 -316t171 -316t171 316zM209 803q0 22 16.5 38t39.5 16t39 -16t16 -38q0 -23 -16 -39t-39 -16t-39.5 16.5t-16.5 38.5zM393 803
q0 22 16 38t39 16t39 -16t16 -38q0 -23 -16.5 -39t-38.5 -16t-38.5 16t-16.5 39z" />
    <glyph glyph-name="multiply" unicode="&#xd7;" horiz-adv-x="527" 
d="M93 392l24 24l150 -151l152 151l22 -24l-151 -150l150 -149l-25 -24l-149 149l-148 -147l-23 24l148 146z" />
    <glyph glyph-name="Oslash" unicode="&#xd8;" horiz-adv-x="715" 
d="M565 713l-41 -79q72 -44 111 -123.5t39 -180.5q0 -153 -85 -251t-232 -98q-83 0 -151 35l-42 -83l-24 11l44 85q-69 45 -106.5 123.5t-37.5 177.5q0 153 85 251t232 98q78 0 144 -32l40 77zM528 330q0 150 -41 231l-249 -483q43 -64 119 -64q171 0 171 316zM186 330
q0 -145 37 -224l248 482q-43 58 -114 58q-171 0 -171 -316z" />
    <glyph glyph-name="Ugrave" unicode="&#xd9;" horiz-adv-x="681" 
d="M548 228v268q0 93 -16.5 117t-83.5 31v23h230v-23q-64 -7 -79 -31t-15 -117v-272q0 -114 -55.5 -178t-175.5 -64q-117 0 -182.5 66t-65.5 182v282q0 80 -16.5 103t-76.5 29v23h316v-23q-62 -6 -79.5 -28.5t-17.5 -103.5v-279q0 -215 137 -215q97 0 138.5 53.5t41.5 156.5
zM433 731q0 -6 -6 -6t-10 4l-135 77q-22 13 -22 38q0 16 10 26.5t27 10.5q21 0 42 -26l90 -114q4 -8 4 -10z" />
    <glyph glyph-name="Uacute" unicode="&#xda;" horiz-adv-x="681" 
d="M548 228v268q0 93 -16.5 117t-83.5 31v23h230v-23q-64 -7 -79 -31t-15 -117v-272q0 -114 -55.5 -178t-175.5 -64q-117 0 -182.5 66t-65.5 182v282q0 80 -16.5 103t-76.5 29v23h316v-23q-62 -6 -79.5 -28.5t-17.5 -103.5v-279q0 -215 137 -215q97 0 138.5 53.5t41.5 156.5
zM260 731q0 3 5 10l89 114q21 26 42 26q17 0 27.5 -10t10.5 -27q0 -24 -23 -38l-134 -77q-5 -4 -10 -4q-7 0 -7 6z" />
    <glyph glyph-name="Ucircumflex" unicode="&#xdb;" horiz-adv-x="681" 
d="M548 228v268q0 93 -16.5 117t-83.5 31v23h230v-23q-64 -7 -79 -31t-15 -117v-272q0 -114 -55.5 -178t-175.5 -64q-117 0 -182.5 66t-65.5 182v282q0 80 -16.5 103t-76.5 29v23h316v-23q-62 -6 -79.5 -28.5t-17.5 -103.5v-279q0 -215 137 -215q97 0 138.5 53.5t41.5 156.5
zM333 881h28q67 -98 121 -146l-11 -14q-65 22 -124 64q-58 -41 -124 -64l-11 14q67 61 121 146z" />
    <glyph glyph-name="Udieresis" unicode="&#xdc;" horiz-adv-x="681" 
d="M548 228v268q0 93 -16.5 117t-83.5 31v23h230v-23q-64 -7 -79 -31t-15 -117v-272q0 -114 -55.5 -178t-175.5 -64q-117 0 -182.5 66t-65.5 182v282q0 80 -16.5 103t-76.5 29v23h316v-23q-62 -6 -79.5 -28.5t-17.5 -103.5v-279q0 -215 137 -215q97 0 138.5 53.5t41.5 156.5
zM199 803q0 22 16.5 38t39.5 16t39 -16t16 -38q0 -23 -16 -39t-39 -16t-39.5 16.5t-16.5 38.5zM383 803q0 22 16 38t39 16t39 -16t16 -38q0 -23 -16.5 -39t-38.5 -16t-38.5 16t-16.5 39z" />
    <glyph glyph-name="Yacute" unicode="&#xdd;" horiz-adv-x="646" 
d="M0 644v23h307v-23q-54 -3 -65 -18t11 -52l127 -216l99 195q26 51 15.5 69t-69.5 22v23h221v-23q-56 -4 -80.5 -22.5t-53.5 -74.5l-116 -223v-169q0 -77 17 -102t82 -30v-23h-322v23q65 5 82.5 30.5t17.5 101.5v154l-155 250q-30 48 -52.5 65t-65.5 20zM269 731q0 2 4 10
l90 114q21 26 42 26q17 0 27 -10.5t10 -26.5q0 -25 -22 -38l-135 -77q-4 -4 -10 -4t-6 6z" />
    <glyph glyph-name="Thorn" unicode="&#xde;" horiz-adv-x="592" 
d="M335 644q-59 -5 -77 -25t-19 -84l91 2q101 0 163.5 -47t62.5 -138q0 -102 -73.5 -154t-201.5 -58l-9 24q85 9 118.5 50t33.5 128q0 75 -36 119t-100 44h-49v-348q0 -81 17 -105t80 -29v-23h-315v23q62 5 78 29t16 105v353q0 82 -15.5 105.5t-78.5 28.5v23h314v-23z" />
    <glyph glyph-name="germandbls" unicode="&#xdf;" horiz-adv-x="585" 
d="M395 14q31 0 51.5 24t20.5 66q0 72 -90 119q-10 5 -34 17.5t-32 17t-24.5 14.5t-22 16.5t-14 17t-11 21.5t-2.5 25q0 18 9.5 37t19.5 31t26 28.5t21 21.5q45 50 45 112q0 42 -15 71.5t-48 29.5q-36 0 -59 -25t-30 -56t-7 -70v-405q0 -36 2 -56t12.5 -35.5t30.5 -15.5
l1 -20h-239v20q46 1 60.5 22.5t14.5 86.5v337q0 106 73 178t186 72q55 0 93.5 -28t38.5 -77q0 -35 -26 -68t-58 -54t-58 -43t-26 -38q0 -15 21.5 -31.5t69.5 -41.5t59 -31q63 -38 88 -73t25 -89q0 -62 -55.5 -107t-113.5 -46t-109.5 30.5t-51.5 86.5q0 23 14 39.5t35 16.5
q51 0 57 -54q1 -10 2.5 -28.5t2.5 -24.5t4 -17t8 -14.5t13.5 -6.5t21.5 -3z" />
    <glyph glyph-name="agrave" unicode="&#xe0;" horiz-adv-x="479" 
d="M281 56q-42 -72 -117 -72q-57 0 -94.5 35.5t-37.5 92.5q0 108 148 142q64 12 98 15v61q0 65 -10.5 94.5t-44.5 29.5q-33 0 -44 -16.5t-19 -71.5q-4 -26 -21.5 -41t-41.5 -15q-22 0 -38 16t-16 38q0 52 60.5 84t127.5 32q82 0 123.5 -30.5t41.5 -106.5v-247q0 -65 28 -65
q22 0 42 43l19 -12q-36 -78 -108 -78q-78 0 -96 72zM156 127q0 -38 15.5 -66t40.5 -28q37 0 66 57v156q-39 -4 -68 -16q-54 -21 -54 -103zM326 526q0 -6 -6 -6t-10 4l-135 77q-22 13 -22 38q0 17 10.5 27t26.5 10q21 0 42 -26l90 -114q4 -8 4 -10z" />
    <glyph glyph-name="aacute" unicode="&#xe1;" horiz-adv-x="479" 
d="M281 56q-42 -72 -117 -72q-57 0 -94.5 35.5t-37.5 92.5q0 108 148 142q64 12 98 15v61q0 65 -10.5 94.5t-44.5 29.5q-33 0 -44 -16.5t-19 -71.5q-4 -26 -21.5 -41t-41.5 -15q-22 0 -38 16t-16 38q0 52 60.5 84t127.5 32q82 0 123.5 -30.5t41.5 -106.5v-247q0 -65 28 -65
q22 0 42 43l19 -12q-36 -78 -108 -78q-78 0 -96 72zM156 127q0 -38 15.5 -66t40.5 -28q37 0 66 57v156q-39 -4 -68 -16q-54 -21 -54 -103zM153 526q0 3 5 10l89 114q21 26 42 26q17 0 27.5 -10t10.5 -27q0 -24 -23 -38l-134 -77q-5 -4 -10 -4q-7 0 -7 6z" />
    <glyph glyph-name="acircumflex" unicode="&#xe2;" horiz-adv-x="479" 
d="M281 56q-42 -72 -117 -72q-57 0 -94.5 35.5t-37.5 92.5q0 108 148 142q64 12 98 15v61q0 65 -10.5 94.5t-44.5 29.5q-33 0 -44 -16.5t-19 -71.5q-4 -26 -21.5 -41t-41.5 -15q-22 0 -38 16t-16 38q0 52 60.5 84t127.5 32q82 0 123.5 -30.5t41.5 -106.5v-247q0 -65 28 -65
q22 0 42 43l19 -12q-36 -78 -108 -78q-78 0 -96 72zM156 127q0 -38 15.5 -66t40.5 -28q37 0 66 57v156q-39 -4 -68 -16q-54 -21 -54 -103zM226 676h28q67 -98 121 -146l-11 -14q-65 22 -124 64q-58 -41 -124 -64l-11 14q67 61 121 146z" />
    <glyph glyph-name="atilde" unicode="&#xe3;" horiz-adv-x="479" 
d="M281 56q-42 -72 -117 -72q-57 0 -94.5 35.5t-37.5 92.5q0 108 148 142q64 12 98 15v61q0 65 -10.5 94.5t-44.5 29.5q-33 0 -44 -16.5t-19 -71.5q-4 -26 -21.5 -41t-41.5 -15q-22 0 -38 16t-16 38q0 52 60.5 84t127.5 32q82 0 123.5 -30.5t41.5 -106.5v-247q0 -65 28 -65
q22 0 42 43l19 -12q-36 -78 -108 -78q-78 0 -96 72zM156 127q0 -38 15.5 -66t40.5 -28q37 0 66 57v156q-39 -4 -68 -16q-54 -21 -54 -103zM307 547q-26 0 -73.5 16.5t-71.5 16.5q-40 0 -65 -32l-10 8q5 40 29.5 68t56.5 28q26 0 73 -16.5t72 -16.5q41 0 65 32l10 -8
q-6 -41 -30 -68.5t-56 -27.5z" />
    <glyph glyph-name="adieresis" unicode="&#xe4;" horiz-adv-x="479" 
d="M281 56q-42 -72 -117 -72q-57 0 -94.5 35.5t-37.5 92.5q0 108 148 142q64 12 98 15v61q0 65 -10.5 94.5t-44.5 29.5q-33 0 -44 -16.5t-19 -71.5q-4 -26 -21.5 -41t-41.5 -15q-22 0 -38 16t-16 38q0 52 60.5 84t127.5 32q82 0 123.5 -30.5t41.5 -106.5v-247q0 -65 28 -65
q22 0 42 43l19 -12q-36 -78 -108 -78q-78 0 -96 72zM156 127q0 -38 15.5 -66t40.5 -28q37 0 66 57v156q-39 -4 -68 -16q-54 -21 -54 -103zM92 598q0 22 16.5 38t39.5 16t39 -16t16 -38t-16.5 -38.5t-38.5 -16.5q-23 0 -39.5 16.5t-16.5 38.5zM276 598q0 22 16 38t39 16
t39 -16t16 -38t-16 -38.5t-39 -16.5t-39 16.5t-16 38.5z" />
    <glyph glyph-name="aring" unicode="&#xe5;" horiz-adv-x="479" 
d="M281 56q-42 -72 -117 -72q-57 0 -94.5 35.5t-37.5 92.5q0 108 148 142q64 12 98 15v61q0 65 -10.5 94.5t-44.5 29.5q-33 0 -44 -16.5t-19 -71.5q-4 -26 -21.5 -41t-41.5 -15q-22 0 -38 16t-16 38q0 52 60.5 84t127.5 32q82 0 123.5 -30.5t41.5 -106.5v-247q0 -65 28 -65
q22 0 42 43l19 -12q-36 -78 -108 -78q-78 0 -96 72zM156 127q0 -38 15.5 -66t40.5 -28q37 0 66 57v156q-39 -4 -68 -16q-54 -21 -54 -103zM218 672q37 0 60.5 -25.5t23.5 -58.5t-23.5 -58.5t-60.5 -25.5t-60.5 25.5t-23.5 58.5t23.5 58.5t60.5 25.5zM167 588q0 -20 14.5 -35
t36.5 -15t35.5 14.5t13.5 35.5q0 20 -13.5 35t-35.5 15t-36.5 -15t-14.5 -35z" />
    <glyph glyph-name="ae" unicode="&#xe6;" horiz-adv-x="707" 
d="M682 248h-277v-23q0 -201 116 -201q77 0 138 77l17 -16q-70 -101 -187 -101q-123 0 -178 101q-26 -49 -65 -75t-82 -26q-57 0 -94.5 35.5t-37.5 92.5q0 108 148 142q64 12 98 15v61q0 65 -10.5 94.5t-44.5 29.5q-33 0 -44 -16.5t-19 -71.5q-4 -26 -21.5 -41t-41.5 -15
q-22 0 -38 16t-16 38q0 52 60.5 84t127.5 32q96 0 134 -41q52 41 124 41q94 0 143.5 -63t49.5 -169zM486 454q-40 0 -57.5 -45.5t-23.5 -135.5h150q0 57 -4.5 93.5t-20.5 62t-44 25.5zM156 127q0 -38 15.5 -66t40.5 -28q21 0 44.5 21.5t41.5 57.5q-20 52 -20 116v17
q-41 -4 -68 -15q-54 -21 -54 -103z" />
    <glyph glyph-name="ccedilla" unicode="&#xe7;" horiz-adv-x="431" 
d="M289 365q-6 58 -15 74t-39 16q-77 0 -77 -210q0 -55 9.5 -102t34.5 -82t63 -35q69 0 122 68l18 -18q-61 -87 -154 -93l-19 -30q77 -39 77 -91q0 -38 -28.5 -60.5t-74.5 -22.5q-29 0 -49 10.5t-20 27.5q0 12 6.5 20t15.5 8q13 0 28 -21.5t28 -21.5q30 0 30 37
q0 17 -14 32.5t-51 38.5l46 73q-93 4 -144.5 71t-51.5 171q0 106 59 180.5t150 74.5q63 0 114 -31.5t51 -82.5q0 -25 -16.5 -42.5t-39.5 -17.5q-24 0 -40 16.5t-19 42.5z" />
    <glyph glyph-name="egrave" unicode="&#xe8;" horiz-adv-x="460" 
d="M434 248h-277v-23q0 -201 116 -201q77 0 138 77l17 -16q-68 -101 -186 -101q-99 0 -155.5 66t-56.5 174q0 106 56 181t156 75q93 0 142.5 -63t49.5 -169zM239 454q-40 0 -57.5 -45.5t-23.5 -135.5h149q0 88 -14 134.5t-54 46.5zM318 526q0 -6 -6 -6t-10 4l-135 77
q-22 13 -22 38q0 17 10.5 27t26.5 10q21 0 42 -26l90 -114q4 -8 4 -10z" />
    <glyph glyph-name="eacute" unicode="&#xe9;" horiz-adv-x="460" 
d="M434 248h-277v-23q0 -201 116 -201q77 0 138 77l17 -16q-68 -101 -186 -101q-99 0 -155.5 66t-56.5 174q0 106 56 181t156 75q93 0 142.5 -63t49.5 -169zM239 454q-40 0 -57.5 -45.5t-23.5 -135.5h149q0 88 -14 134.5t-54 46.5zM145 526q0 3 5 10l89 114q21 26 42 26
q17 0 27.5 -10t10.5 -27q0 -24 -23 -38l-134 -77q-5 -4 -10 -4q-7 0 -7 6z" />
    <glyph glyph-name="ecircumflex" unicode="&#xea;" horiz-adv-x="460" 
d="M434 248h-277v-23q0 -201 116 -201q77 0 138 77l17 -16q-68 -101 -186 -101q-99 0 -155.5 66t-56.5 174q0 106 56 181t156 75q93 0 142.5 -63t49.5 -169zM239 454q-40 0 -57.5 -45.5t-23.5 -135.5h149q0 88 -14 134.5t-54 46.5zM218 676h28q67 -98 121 -146l-11 -14
q-65 22 -124 64q-58 -41 -124 -64l-11 14q67 61 121 146z" />
    <glyph glyph-name="edieresis" unicode="&#xeb;" horiz-adv-x="460" 
d="M434 248h-277v-23q0 -201 116 -201q77 0 138 77l17 -16q-68 -101 -186 -101q-99 0 -155.5 66t-56.5 174q0 106 56 181t156 75q93 0 142.5 -63t49.5 -169zM239 454q-40 0 -57.5 -45.5t-23.5 -135.5h149q0 88 -14 134.5t-54 46.5zM84 598q0 22 16.5 38t39.5 16t39 -16
t16 -38t-16.5 -38.5t-38.5 -16.5q-23 0 -39.5 16.5t-16.5 38.5zM268 598q0 22 16 38t39 16t39 -16t16 -38t-16 -38.5t-39 -16.5t-39 16.5t-16 38.5z" />
    <glyph glyph-name="igrave" unicode="&#xec;" horiz-adv-x="282" 
d="M203 472v-352q0 -57 12 -75.5t54 -25.5v-19l-123 2l-131 -2v19q46 7 58 25.5t12 81.5v234q0 47 -12.5 61t-56.5 16v19l184 20zM229 526q0 -6 -6 -6t-10 4l-135 77q-22 13 -22 38q0 17 10 27t27 10q21 0 42 -26l90 -114q4 -8 4 -10z" />
    <glyph glyph-name="iacute" unicode="&#xed;" horiz-adv-x="282" 
d="M203 472v-352q0 -57 12 -75.5t54 -25.5v-19l-123 2l-131 -2v19q46 7 58 25.5t12 81.5v234q0 47 -12.5 61t-56.5 16v19l184 20zM55 526q0 3 5 10l89 114q21 26 42 26q17 0 27.5 -10t10.5 -27q0 -24 -23 -38l-134 -77q-5 -4 -10 -4q-7 0 -7 6z" />
    <glyph glyph-name="icircumflex" unicode="&#xee;" horiz-adv-x="282" 
d="M203 472v-352q0 -57 12 -75.5t54 -25.5v-19l-123 2l-131 -2v19q46 7 58 25.5t12 81.5v234q0 47 -12.5 61t-56.5 16v19l184 20zM128 676h28q67 -98 121 -146l-11 -14q-65 22 -124 64q-58 -41 -124 -64l-11 14q67 61 121 146z" />
    <glyph glyph-name="idieresis" unicode="&#xef;" horiz-adv-x="282" 
d="M203 472v-352q0 -57 12 -75.5t54 -25.5v-19l-123 2l-131 -2v19q46 7 58 25.5t12 81.5v234q0 47 -12.5 61t-56.5 16v19l184 20zM-5 598q0 22 16.5 38t39.5 16t39 -16t16 -38t-16 -38.5t-39 -16.5t-39.5 16.5t-16.5 38.5zM179 598q0 22 16 38t39 16t39 -16t16 -38
t-16.5 -38.5t-38.5 -16.5t-38.5 16.5t-16.5 38.5z" />
    <glyph glyph-name="eth" unicode="&#xf0;" horiz-adv-x="496" 
d="M239 486l-28 16l58 101q-22 18 -56 18q-31 0 -42.5 -16.5t-19.5 -77.5q-3 -23 -20 -38.5t-39 -15.5q-23 0 -40 19t-17 42q0 51 53.5 83t119.5 32q39 0 79 -15l46 81l28 -17l-45 -79q70 -42 108 -135t38 -210q0 -125 -64 -206.5t-158 -81.5q-88 0 -149 67.5t-61 154.5
q0 94 53.5 150t124.5 56q93 0 126 -87h4q-7 102 -16.5 159.5t-30.5 90.5zM154 208q0 -193 86 -193q48 0 73 55.5t25 129.5q0 75 -28 129.5t-75 54.5q-42 0 -61.5 -50t-19.5 -126z" />
    <glyph glyph-name="ntilde" unicode="&#xf1;" horiz-adv-x="543" 
d="M202 472v-66q44 74 120 74q66 0 107 -41.5t41 -110.5v-197q0 -66 9.5 -84.5t50.5 -26.5v-20l-114 2l-119 -2v20q37 7 46 26t9 87v189q0 47 -17 81t-49 34q-50 0 -84 -73v-244q0 -59 8.5 -76.5t47.5 -23.5v-20l-122 2l-119 -2v20q44 6 55 24t11 82v230q0 49 -11.5 63.5
t-56.5 17.5v19l183 20zM335 547q-26 0 -73.5 16.5t-71.5 16.5q-40 0 -65 -32l-10 8q5 40 29.5 68t56.5 28q26 0 73 -16.5t72 -16.5q41 0 65 32l10 -8q-6 -41 -30 -68.5t-56 -27.5z" />
    <glyph glyph-name="ograve" unicode="&#xf2;" horiz-adv-x="501" 
d="M471 231q0 -113 -62.5 -181t-157.5 -68q-96 0 -158.5 68t-62.5 181t63.5 181t157.5 68q95 0 157.5 -68t62.5 -181zM343 231q0 221 -93 221t-93 -221t94 -221q92 0 92 221zM337 526q0 -6 -6 -6t-10 4l-135 77q-22 13 -22 38q0 17 10 27t27 10q21 0 42 -26l90 -114
q4 -8 4 -10z" />
    <glyph glyph-name="oacute" unicode="&#xf3;" horiz-adv-x="501" 
d="M471 231q0 -113 -62.5 -181t-157.5 -68q-96 0 -158.5 68t-62.5 181t63.5 181t157.5 68q95 0 157.5 -68t62.5 -181zM343 231q0 221 -93 221t-93 -221t94 -221q92 0 92 221zM164 526q0 3 5 10l89 114q21 26 42 26q17 0 27.5 -10t10.5 -27q0 -24 -23 -38l-134 -77
q-5 -4 -10 -4q-7 0 -7 6z" />
    <glyph glyph-name="ocircumflex" unicode="&#xf4;" horiz-adv-x="501" 
d="M471 231q0 -113 -62.5 -181t-157.5 -68q-96 0 -158.5 68t-62.5 181t63.5 181t157.5 68q95 0 157.5 -68t62.5 -181zM343 231q0 221 -93 221t-93 -221t94 -221q92 0 92 221zM236 676h28q67 -98 121 -146l-11 -14q-65 22 -124 64q-58 -41 -124 -64l-11 14q67 61 121 146z
" />
    <glyph glyph-name="otilde" unicode="&#xf5;" horiz-adv-x="501" 
d="M471 231q0 -113 -62.5 -181t-157.5 -68q-96 0 -158.5 68t-62.5 181t63.5 181t157.5 68q95 0 157.5 -68t62.5 -181zM343 231q0 221 -93 221t-93 -221t94 -221q92 0 92 221zM317 547q-26 0 -73.5 16.5t-71.5 16.5q-40 0 -65 -32l-10 8q5 40 29.5 68t56.5 28q26 0 73 -16.5
t72 -16.5q41 0 65 32l10 -8q-6 -41 -30 -68.5t-56 -27.5z" />
    <glyph glyph-name="odieresis" unicode="&#xf6;" horiz-adv-x="501" 
d="M471 231q0 -113 -62.5 -181t-157.5 -68q-96 0 -158.5 68t-62.5 181t63.5 181t157.5 68q95 0 157.5 -68t62.5 -181zM343 231q0 221 -93 221t-93 -221t94 -221q92 0 92 221zM103 598q0 22 16.5 38t39.5 16t39 -16t16 -38t-16 -38.5t-39 -16.5t-39.5 16.5t-16.5 38.5z
M287 598q0 22 16 38t39 16t39 -16t16 -38t-16.5 -38.5t-38.5 -16.5t-38.5 16.5t-16.5 38.5z" />
    <glyph glyph-name="divide" unicode="&#xf7;" horiz-adv-x="527" 
d="M208 399q0 22 16 38t39 16t39.5 -16t16.5 -38t-16.5 -38.5t-39.5 -16.5t-39 16t-16 39zM208 49q0 22 16 38t39 16t39.5 -16t16.5 -38t-16.5 -38.5t-39.5 -16.5t-39 16t-16 39zM458 211h-390v31h390v-31z" />
    <glyph glyph-name="oslash" unicode="&#xf8;" horiz-adv-x="501" 
d="M446 582l-73 -139q98 -67 98 -212q0 -113 -62.5 -181t-157.5 -68q-57 0 -105 25l-65 -125l-24 11l67 128q-94 68 -94 210q0 113 63.5 181t157.5 68q55 0 100 -24l71 137zM343 231q0 78 -13 130l-151 -291q23 -60 72 -60q92 0 92 221zM157 231q0 -77 11 -125l151 290
q-23 56 -69 56q-93 0 -93 -221z" />
    <glyph glyph-name="ugrave" unicode="&#xf9;" horiz-adv-x="547" 
d="M467 476l5 -4q-6 -42 -6 -250v-120q0 -49 13 -61t70 -16v-19l-189 -18l-5 5l-5 70q-44 -81 -125 -81q-68 0 -108.5 39.5t-40.5 106.5v231q0 49 -12 63t-62 18v19l194 20l3 -4q-4 -38 -4 -335q0 -114 67 -114q53 0 85 80v253q0 49 -12 63t-59 18v19zM359 526q0 -6 -6 -6
t-10 4l-135 77q-22 13 -22 38q0 17 10 27t27 10q21 0 42 -26l90 -114q4 -8 4 -10z" />
    <glyph glyph-name="uacute" unicode="&#xfa;" horiz-adv-x="547" 
d="M467 476l5 -4q-6 -42 -6 -250v-120q0 -49 13 -61t70 -16v-19l-189 -18l-5 5l-5 70q-44 -81 -125 -81q-68 0 -108.5 39.5t-40.5 106.5v231q0 49 -12 63t-62 18v19l194 20l3 -4q-4 -38 -4 -335q0 -114 67 -114q53 0 85 80v253q0 49 -12 63t-59 18v19zM186 526q0 3 5 10
l89 114q21 26 42 26q17 0 27.5 -10t10.5 -27q0 -24 -23 -38l-134 -77q-5 -4 -10 -4q-7 0 -7 6z" />
    <glyph glyph-name="ucircumflex" unicode="&#xfb;" horiz-adv-x="547" 
d="M467 476l5 -4q-6 -42 -6 -250v-120q0 -49 13 -61t70 -16v-19l-189 -18l-5 5l-5 70q-44 -81 -125 -81q-68 0 -108.5 39.5t-40.5 106.5v231q0 49 -12 63t-62 18v19l194 20l3 -4q-4 -38 -4 -335q0 -114 67 -114q53 0 85 80v253q0 49 -12 63t-59 18v19zM259 676h28
q67 -98 121 -146l-11 -14q-65 22 -124 64q-58 -41 -124 -64l-11 14q67 61 121 146z" />
    <glyph glyph-name="udieresis" unicode="&#xfc;" horiz-adv-x="547" 
d="M467 476l5 -4q-6 -42 -6 -250v-120q0 -49 13 -61t70 -16v-19l-189 -18l-5 5l-5 70q-44 -81 -125 -81q-68 0 -108.5 39.5t-40.5 106.5v231q0 49 -12 63t-62 18v19l194 20l3 -4q-4 -38 -4 -335q0 -114 67 -114q53 0 85 80v253q0 49 -12 63t-59 18v19zM125 598q0 22 16.5 38
t39.5 16t39 -16t16 -38t-16 -38.5t-39 -16.5t-39.5 16.5t-16.5 38.5zM309 598q0 22 16 38t39 16t39 -16t16 -38t-16.5 -38.5t-38.5 -16.5t-38.5 16.5t-16.5 38.5z" />
    <glyph glyph-name="yacute" unicode="&#xfd;" horiz-adv-x="517" 
d="M431 381l-176 -470q-26 -67 -58 -98t-80 -31q-30 0 -51 17.5t-21 43.5q0 22 15.5 37t37.5 15q18 0 37.5 -22t32.5 -22q19 0 32 16t26 49l24 65l-162 404q-11 27 -31.5 40t-56.5 17v20l125 -2l138 2v-20q-52 -4 -63 -20.5t5 -48.5l99 -248l96 262q10 26 -7 40t-59 15v20
l108 -2l75 2v-20q-37 -2 -55.5 -16t-30.5 -45zM210 526q0 2 4 10l90 114q21 26 42 26q16 0 26.5 -10t10.5 -27q0 -25 -22 -38l-135 -77q-4 -4 -10 -4t-6 6z" />
    <glyph glyph-name="thorn" unicode="&#xfe;" horiz-adv-x="530" 
d="M199 701v-286q19 29 49.5 47t66.5 18q90 0 137 -68.5t47 -173.5q0 -114 -55.5 -185t-161.5 -71q-47 0 -84 22v-115q0 -58 16 -76.5t78 -24.5v-19h-284v19q50 6 61 23.5t11 83.5v687q0 48 -12 64t-59 21v19l183 20zM278 439q-46 0 -80 -67v-314q30 -48 78 -48
q26 0 45.5 18.5t30 51t15 68t4.5 75.5q0 55 -7 100.5t-29 80.5t-57 35z" />
    <glyph glyph-name="ydieresis" unicode="&#xff;" horiz-adv-x="517" 
d="M255 -89l176 470q12 31 30.5 45t55.5 16v20l-75 -2l-108 2v-20q42 -1 59 -15t7 -40l-96 -262l-99 248q-16 32 -5 48.5t63 20.5v20l-138 -2l-125 2v-20q36 -4 56.5 -17t31.5 -40l162 -404l-24 -65q-13 -33 -26 -49t-32 -16q-13 0 -32.5 22t-37.5 22q-22 0 -37.5 -15
t-15.5 -37q0 -26 21 -43.5t51 -17.5q48 0 80 31t58 98zM132 598q0 22 16.5 38t39.5 16t39 -16t16 -38t-16.5 -38.5t-38.5 -16.5q-23 0 -39.5 16.5t-16.5 38.5zM316 598q0 22 16 38t39 16t39 -16t16 -38t-16 -38.5t-39 -16.5t-39 16.5t-16 38.5z" />
    <glyph glyph-name="dotlessi" unicode="&#x131;" horiz-adv-x="282" 
d="M203 472v-352q0 -57 12 -75.5t54 -25.5v-19l-123 2l-131 -2v19q46 7 58 25.5t12 81.5v234q0 47 -12.5 61t-56.5 16v19l184 20z" />
    <glyph glyph-name="Lslash" unicode="&#x141;" horiz-adv-x="556" 
d="M27 269l-9 33l93 27v181q0 82 -14.5 105t-76.5 29v23h328v-23q-74 -7 -93.5 -30.5t-19.5 -103.5v-144l169 50l9 -33l-178 -53v-204q0 -56 15 -76.5t64 -20.5h25q71 0 102.5 39.5t56.5 150.5h30l-5 -219h-507v23q62 5 78.5 28.5t16.5 105.5v137z" />
    <glyph glyph-name="lslash" unicode="&#x142;" horiz-adv-x="303" 
d="M25 310l-8 30l67 18v223q0 47 -11.5 61.5t-56.5 22.5v17l187 24l7 -8l-8 -185v-124l76 21l8 -30l-84 -23v-233q0 -60 11 -78.5t53 -25.5v-20l-126 2l-122 -2v20q43 5 54.5 25t11.5 85v196z" />
    <glyph glyph-name="OE" unicode="&#x152;" horiz-adv-x="921" 
d="M753 445h25v-229h-25q-12 66 -29 88.5t-63 22.5h-74v-187q0 -56 17.5 -83.5t66.5 -27.5h39q63 0 92.5 38.5t48.5 134.5h29v-202h-404q-55 -19 -119 -19q-146 0 -231.5 98.5t-85.5 250.5q0 153 85 251t232 98q59 0 104 -12h410v-190h-26q-19 94 -51 127.5t-102 33.5h-105
v-283h74q47 0 64 16.5t28 73.5zM357 14q65 0 86 30.5t21 111.5v388q0 58 -24 80t-83 22q-171 0 -171 -316t171 -316z" />
    <glyph glyph-name="oe" unicode="&#x153;" horiz-adv-x="773" 
d="M748 248h-277v-6v-11v-6v-6q2 -195 116 -195q77 0 138 77l17 -16q-68 -101 -186 -101q-95 0 -152 62q-61 -64 -153 -64q-96 0 -158.5 68t-62.5 181t63.5 181t157.5 68q93 0 156 -66q58 66 149 66q93 0 142.5 -63t49.5 -169zM343 231q0 221 -93 221t-93 -221t94 -221
q92 0 92 221zM553 454q-40 0 -57.5 -45.5t-23.5 -135.5h149q0 88 -14 134.5t-54 46.5z" />
    <glyph glyph-name="Scaron" unicode="&#x160;" horiz-adv-x="540" 
d="M267 683q75 0 138 -45q10 -8 18 -8q19 0 22 43h30l1 -223h-28q-17 99 -59 150.5t-118 51.5q-59 0 -93.5 -33t-34.5 -83q0 -42 31 -70t114 -60q114 -43 161 -91t47 -129q0 -94 -62 -149.5t-156 -55.5q-81 0 -146 53q-11 11 -20 11q-18 0 -21 -48h-30v228h30
q12 -97 59 -154.5t125 -57.5q61 0 97 32.5t36 86.5q0 44 -34.5 74.5t-127.5 65.5q-99 36 -144 86t-45 132q0 84 59 138.5t151 54.5zM289 721h-28q-54 85 -121 146l11 14q66 -23 124 -64q59 42 124 64l11 -14q-54 -48 -121 -146z" />
    <glyph glyph-name="scaron" unicode="&#x161;" horiz-adv-x="409" 
d="M201 480q47 0 90 -26q17 -11 23 -11q15 0 19 29h21l-4 -162h-21q-10 70 -43 106.5t-85 36.5q-36 0 -59.5 -21.5t-23.5 -56.5q0 -29 24 -49.5t77 -37.5q87 -29 122 -62.5t35 -92.5q0 -72 -46 -111.5t-125 -39.5q-48 0 -89 24q-22 12 -29 12q-15 0 -18 -28h-21v167h21
q9 -68 46 -108t90 -40q40 0 65.5 19t25.5 55q0 27 -23.5 47t-89.5 43q-75 27 -109.5 62.5t-34.5 95.5q0 67 47.5 108t114.5 41zM221 516h-28q-54 85 -121 146l11 14q66 -23 124 -64q59 42 124 64l11 -14q-54 -48 -121 -146z" />
    <glyph glyph-name="Ydieresis" unicode="&#x178;" horiz-adv-x="646" 
d="M0 644v23h307v-23q-54 -3 -65 -18t11 -52l127 -216l99 195q26 51 15.5 69t-69.5 22v23h221v-23q-56 -4 -80.5 -22.5t-53.5 -74.5l-116 -223v-169q0 -77 17 -102t82 -30v-23h-322v23q65 5 82.5 30.5t17.5 101.5v154l-155 250q-30 48 -52.5 65t-65.5 20zM191 803
q0 22 16.5 38t39.5 16t39 -16t16 -38q0 -23 -16 -39t-39 -16t-39.5 16.5t-16.5 38.5zM375 803q0 22 16 38t39 16t39 -16t16 -38q0 -23 -16.5 -39t-38.5 -16t-38.5 16t-16.5 39z" />
    <glyph glyph-name="Zcaron" unicode="&#x17d;" horiz-adv-x="535" 
d="M35 27l322 609h-100q-91 0 -128 -36t-59 -144h-27l10 213l126 -2h323v-27l-319 -610h117q83 0 121.5 40t57.5 141h28l-11 -212l-150 1h-311v27zM284 721h-28q-54 85 -121 146l11 14q66 -23 124 -64q59 42 124 64l11 -14q-54 -48 -121 -146z" />
    <glyph glyph-name="zcaron" unicode="&#x17e;" horiz-adv-x="414" 
d="M31 306l9 160l81 -3h261l2 -14l-227 -423h68q69 0 93 22.5t43 100.5h22l-8 -151l-86 2h-261l-2 11l225 426h-77q-53 0 -75.5 -25t-43.5 -106h-24zM218 516h-28q-54 85 -121 146l11 14q66 -23 124 -64q59 42 124 64l11 -14q-54 -48 -121 -146z" />
    <glyph glyph-name="florin" unicode="&#x192;" horiz-adv-x="562" 
d="M37 -25l19 7q14 -46 47 -46q18 0 29 16.5t20 68t16 150.5l16 212h-71v31h72q8 108 67.5 171.5t149.5 63.5q59 0 99 -24.5t40 -63.5q0 -23 -11.5 -37.5t-30.5 -14.5q-18 0 -32 12.5t-19 38.5q-8 38 -17 50.5t-32 12.5q-43 0 -67.5 -46t-30.5 -163h121v-31h-122l-21 -267
q-8 -111 -41 -161t-113 -50q-32 0 -56.5 19t-31.5 51z" />
    <glyph glyph-name="circumflex" unicode="&#x2c6;" 
d="M186 676h28q67 -98 121 -146l-11 -14q-65 22 -124 64q-58 -41 -124 -64l-11 14q67 61 121 146z" />
    <glyph glyph-name="caron" unicode="&#x2c7;" 
d="M214 516h-28q-54 85 -121 146l11 14q66 -23 124 -64q59 42 124 64l11 -14q-54 -48 -121 -146z" />
    <glyph glyph-name="breve" unicode="&#x2d8;" 
d="M200 520q-55 0 -87.5 39t-32.5 99h23q14 -64 97 -64q82 0 97 64h22q0 -60 -32.5 -99t-86.5 -39z" />
    <glyph glyph-name="dotaccent" unicode="&#x2d9;" 
d="M145 598q0 22 16 38t39 16t39 -16t16 -38t-16.5 -38.5t-38.5 -16.5t-38.5 16.5t-16.5 38.5z" />
    <glyph glyph-name="ring" unicode="&#x2da;" 
d="M200 682q37 0 60.5 -25.5t23.5 -58.5t-23.5 -58.5t-60.5 -25.5t-60.5 25.5t-23.5 58.5t23.5 58.5t60.5 25.5zM149 598q0 -20 14.5 -35t36.5 -15t35.5 14.5t13.5 35.5q0 20 -13.5 35t-35.5 15t-36.5 -15t-14.5 -35z" />
    <glyph glyph-name="ogonek" unicode="&#x2db;" 
d="M99 -143q0 70 112 143h25q-60 -75 -60 -122q0 -51 45 -51q27 0 56 23l9 -13q-40 -58 -103 -58q-38 0 -61 22t-23 56z" />
    <glyph glyph-name="tilde" unicode="&#x2dc;" 
d="M267 547q-26 0 -73.5 16.5t-71.5 16.5q-40 0 -65 -32l-10 8q5 40 29.5 68t56.5 28q26 0 73 -16.5t72 -16.5q41 0 65 32l10 -8q-6 -41 -30 -68.5t-56 -27.5z" />
    <glyph glyph-name="hungarumlaut" unicode="&#x2dd;" 
d="M34 526q0 2 4 10l90 114q21 26 42 26q16 0 26.5 -10t10.5 -27q0 -25 -22 -38l-135 -77q-4 -4 -10 -4t-6 6zM189 526q0 2 4 10l90 114q21 26 42 26q17 0 27 -10t10 -27q0 -25 -22 -38l-135 -77q-4 -4 -10 -4t-6 6z" />
    <glyph glyph-name="endash" unicode="&#x2013;" horiz-adv-x="500" 
d="M495 239h-490q-5 0 -5 5v34q0 5 5 5h490q5 0 5 -5v-34q0 -5 -5 -5z" />
    <glyph glyph-name="emdash" unicode="&#x2014;" horiz-adv-x="1000" 
d="M1000 278v-34q0 -5 -5 -5h-990q-5 0 -5 5v34q0 5 5 5h990q5 0 5 -5z" />
    <glyph glyph-name="quoteleft" unicode="&#x2018;" horiz-adv-x="221" 
d="M182 735l6 -26q-30 -7 -48.5 -23.5t-18.5 -32.5q0 -20 13 -23q18 -3 32.5 -16.5t14.5 -36.5q0 -25 -16 -41.5t-42 -16.5t-44.5 19t-18.5 48q0 64 32 101.5t90 47.5z" />
    <glyph glyph-name="quoteright" unicode="&#x2019;" horiz-adv-x="232" 
d="M56 519l-6 26q30 6 48 22t18 33q0 20 -13 23q-18 3 -32.5 16.5t-14.5 36.5q0 24 16 41t42 17t44.5 -19.5t18.5 -48.5q0 -63 -32 -100.5t-89 -46.5z" />
    <glyph glyph-name="quotesinglbase" unicode="&#x201a;" horiz-adv-x="219" 
d="M49 -114l-6 26q30 7 48 23t18 32q0 20 -12 23q-18 4 -32.5 17t-14.5 36q0 24 16 41t42 17q25 0 43.5 -19.5t18.5 -48.5q0 -126 -121 -147z" />
    <glyph glyph-name="quotedblleft" unicode="&#x201c;" horiz-adv-x="385" 
d="M346 733l6 -26q-30 -6 -48 -22t-18 -33q0 -20 13 -23q18 -3 32 -16.5t14 -36.5q0 -24 -16 -41t-41 -17q-26 0 -44.5 19.5t-18.5 48.5q0 63 32 100.5t89 46.5zM181 733l6 -26q-30 -6 -48 -22t-18 -33q0 -20 13 -23q18 -3 32 -16.5t14 -36.5q0 -24 -16 -41t-41 -17
q-26 0 -44.5 19.5t-18.5 48.5q0 63 32 100.5t89 46.5z" />
    <glyph glyph-name="quotedblright" unicode="&#x201d;" horiz-adv-x="387" 
d="M56 501l-6 26q30 6 48 22t18 33q0 20 -13 23q-18 3 -32.5 16.5t-14.5 36.5q0 24 16 41t42 17t44.5 -19.5t18.5 -48.5q0 -63 -32 -100.5t-89 -46.5zM210 501l-6 26q30 6 48 22t18 33q0 20 -13 23q-18 3 -32.5 16.5t-14.5 36.5q0 24 16 41t42 17t44.5 -19.5t18.5 -48.5
q0 -63 -32 -100.5t-89 -46.5z" />
    <glyph glyph-name="quotedblbase" unicode="&#x201e;" horiz-adv-x="374" 
d="M49 -113l-5 26q30 7 48 23t18 32q0 20 -13 23q-18 4 -32.5 17t-14.5 36q0 24 16 41t42 17q25 0 44 -19.5t19 -48.5q0 -63 -32 -100t-90 -47zM203 -113l-5 26q30 7 48 23t18 32q0 20 -12 23q-19 4 -33 17t-14 36q0 24 16 41t41 17q26 0 44.5 -19.5t18.5 -48.5
q0 -126 -122 -147z" />
    <glyph glyph-name="dagger" unicode="&#x2020;" horiz-adv-x="498" 
d="M70 502q19 0 67.5 -16t96.5 -22q-6 61 -24 119t-18 68q0 23 16.5 38t41.5 15t41.5 -15t16.5 -38q0 -10 -19 -68t-25 -119q45 5 94.5 22t67.5 17q58 0 58 -55t-58 -55q-18 0 -67.5 16.5t-94.5 21.5q2 -22 20 -88t16 -102q-2 -53 -12 -144.5t-20 -156.5l-9 -64h-19
q-39 245 -44 365q-2 37 16 101t22 89q-49 -6 -96 -22.5t-66 -16.5q-58 0 -58 55t56 55z" />
    <glyph glyph-name="daggerdbl" unicode="&#x2021;" horiz-adv-x="507" 
d="M432 72q-19 0 -67 16t-96 22q6 -62 24 -120t18 -67q0 -23 -16.5 -38t-41.5 -15t-41.5 15t-16.5 38q0 9 18.5 67t24.5 120q-45 -5 -94 -22t-67 -17q-58 0 -58 55t58 55q18 0 66.5 -16.5t93.5 -20.5q-2 12 -17 65t-15 84q0 23 6 49t15 52.5t11 36.5q-49 -6 -95 -22.5
t-65 -16.5q-58 0 -58 55t56 55q19 0 67 -16t96 -22q-6 61 -23.5 119.5t-17.5 67.5q0 23 16.5 38t41.5 15t41.5 -15t16.5 -38q0 -9 -19 -67t-25 -120q45 5 94.5 22t67.5 17q58 0 58 -55t-58 -55q-18 0 -66.5 16.5t-93.5 21.5q1 -7 17 -57.5t16 -79.5q0 -32 -15.5 -83.5
t-17.5 -66.5q48 6 95 22t65 16q58 0 58 -55t-57 -55z" />
    <glyph glyph-name="bullet" unicode="&#x2022;" horiz-adv-x="279" 
d="M40 297q0 39 30 69t70 30q41 0 70 -30t29 -69q0 -40 -29.5 -70t-69.5 -30t-70 29.5t-30 70.5z" />
    <glyph glyph-name="ellipsis" unicode="&#x2026;" horiz-adv-x="699" 
d="M50 49q0 27 19 45.5t46 18.5t46.5 -18.5t19.5 -45.5q0 -26 -19.5 -45t-46.5 -19q-26 0 -45.5 19t-19.5 45zM284 49q0 27 19 45.5t46 18.5t46.5 -18.5t19.5 -45.5q0 -26 -19.5 -45t-46.5 -19q-26 0 -45.5 19t-19.5 45zM518 49q0 27 19.5 45.5t46.5 18.5t46 -18.5t19 -45.5
q0 -26 -19.5 -45t-45.5 -19q-27 0 -46.5 19t-19.5 45z" />
    <glyph glyph-name="perthousand" unicode="&#x2030;" horiz-adv-x="952" 
d="M932 186q0 -69 -42 -115t-105 -46q-70 0 -110 49q-43 -49 -108 -49q-66 0 -106 45t-40 116q0 69 41 113.5t105 44.5q68 0 109 -49q41 49 109 49q64 0 105.5 -44.5t41.5 -113.5zM323 425q0 -69 -42 -115t-105 -46q-66 0 -106 45t-40 116q0 69 41 113.5t105 44.5
t105.5 -44.5t41.5 -113.5zM857 186q0 134 -72 134q-44 0 -57 -33.5t-13 -100.5q0 -65 14.5 -101t55.5 -36t56.5 36t15.5 101zM639 186q0 134 -72 134q-44 0 -57 -33.5t-13 -100.5q0 -65 14.5 -101t55.5 -36q40 0 55.5 34t16.5 96v7zM248 425q0 134 -72 134q-42 0 -56 -35
t-14 -99q0 -65 14.5 -101t55.5 -36t56.5 36t15.5 101zM565 654l-362 -699l-28 14l364 698z" />
    <glyph glyph-name="guilsinglleft" unicode="&#x2039;" horiz-adv-x="346" 
d="M292 27l-15 -11q-135 132 -235 199v30q113 71 236 197l14 -12q-57 -124 -127 -202q68 -76 127 -201z" />
    <glyph glyph-name="guilsinglright" unicode="&#x203a;" horiz-adv-x="345" 
d="M68 16l-14 11q54 119 126 200q-70 78 -126 203l15 12q125 -127 233 -198v-32q-100 -67 -234 -196z" />
    <glyph glyph-name="fraction" unicode="&#x2044;" horiz-adv-x="437" 
d="M415 656l-365 -700l-24 11l365 700z" />
    <glyph glyph-name="Euro" unicode="&#x20ac;" horiz-adv-x="623" 
d="M505 323h-272q0 -43 4 -75h259l-5 -30h-250q31 -194 162 -194q54 0 93.5 27t74.5 81l25 -16q-41 -66 -92 -100.5t-122 -34.5q-111 0 -184.5 64t-95.5 173h-53v30h48q-3 27 -3 58v17h-45v30h47q13 129 89.5 212.5t190.5 83.5q82 0 151.5 -47t69.5 -113q0 -26 -17 -44.5
t-43 -18.5q-24 0 -42 17.5t-21 43.5q-11 79 -29 106t-71 27q-70 0 -104 -74.5t-37 -192.5h277z" />
    <glyph glyph-name="trademark" unicode="&#x2122;" horiz-adv-x="705" 
d="M138 463v187h-19q-28 0 -41 -16.5t-18 -53.5h-11v87h225v-87h-11q-5 38 -17.5 54t-41.5 16h-16v-187q0 -32 7 -40.5t36 -10.5v-12h-137v12q30 2 37 10.5t7 40.5zM473 398l94 231v-172q0 -28 -6.5 -36.5t-28.5 -10.5v-10h124v10q-27 3 -33 10.5t-6 37.5v150q0 29 6 36.5
t32 10.5v12h-94q-8 -31 -19 -59l-59 -141l-80 200h-97v-12q26 -3 31.5 -10t5.5 -38v-150q0 -29 -5.5 -37t-31.5 -10v-10h92v10q-26 2 -31.5 9.5t-6.5 35.5v184l101 -241h12z" />
    <glyph glyph-name="minus" unicode="&#x2212;" horiz-adv-x="527" 
d="M432 268h-330v31h330v-31z" />
    <glyph glyph-name="notequal" unicode="&#x2260;" horiz-adv-x="527" 
d="M448 187h-216l-73 -139l-28 14l67 125h-114v30h130l72 136h-202v30h218l70 130l26 -13l-62 -117h112v-30h-128l-72 -136h200v-30z" />
    <glyph glyph-name="lessequal" unicode="&#x2264;" horiz-adv-x="527" 
d="M459 112l-394 188v12l394 188v-38l-334 -156l334 -156v-38zM462 38h-390v30h390v-30z" />
    <glyph glyph-name="greaterequal" unicode="&#x2265;" horiz-adv-x="527" 
d="M454 300l-394 -188v38l335 156l-335 156v38l394 -188v-12zM457 38h-390v30h390v-30z" />
    <glyph glyph-name="apple" unicode="&#xf8ff;" horiz-adv-x="1053" 
d="M508 446q7 0 15 2v-33q-18 -5 -34 -5t-26.5 10t-10.5 27v69h-42v-102h-50v102h-17v23l17 6v8q0 44 45 44q20 0 29 -2l-3 -32q-1 0 -5 0.5t-7 0.5q-9 0 -9 -9v-8h43l4 41h44v-41h21v-32h-21v-59q0 -10 7 -10zM923 448v-33q-18 -5 -34 -5q-15 0 -25.5 10t-10.5 27v69h-44
v-102h-48v102h-18v23l18 6v8q0 44 44 44q21 0 30 -2l-4 -32q-1 0 -4.5 0.5t-6.5 0.5q-10 0 -11 -9v-8h45l3 41h44v-41h22v-32h-22v-59q0 -10 8 -10q4 0 14 2zM668 550q30 0 52 -18.5t22 -52.5q0 -33 -22 -51t-52 -18q-28 0 -50.5 18t-22.5 51q0 34 22 52.5t51 18.5zM275 550
q30 0 47 -18.5t17 -49.5q0 -2 -0.5 -7t-0.5 -7h-82q2 -23 27 -23q19 0 40 9l10 -29q-25 -15 -59 -15q-31 0 -50 19.5t-19 49.5q0 32 19 51.5t51 19.5zM124 597v-142h75v-41h-125v183h50zM535 414v183h48v-183h-48zM438 162v181q8 3 21 3h2v-184h-23zM662 298v-90
q0 -19 4 -27q6 -3 18 -3h12l2 -14q-15 -3 -22 -3q-21 0 -29 11.5t-8 35.5v80q0 22 2 30q12 5 18 5h4q-1 -4 -1 -25zM214 280q-13 0 -23 -5l-3 11q17 13 32 13q41 0 41 -46v-91h-23v89q0 16 -5.5 22.5t-18.5 6.5zM181 162h-23v89q0 16 -5 22.5t-19 6.5q-12 0 -22 -5
q0 9 -1 12q15 12 30 12q40 0 40 -46v-91zM876 162q-3 -1 -7 -1q-56 0 -56 69q0 56 38 67q-14 -26 -14 -67q0 -52 32 -52q9 0 13 1q-2 -10 -6 -17zM925 231q0 -58 -37 -67q13 34 13 66q0 26 -6.5 39t-25.5 13q-9 0 -13 -1l6 17q3 1 7 1q56 0 56 -68zM606 231q0 -57 -37 -67
q13 34 13 66q0 26 -6.5 39t-25.5 13q-9 0 -13 -1q0 3 6 17q3 1 7 1q56 0 56 -68zM557 162q-3 -1 -7 -1q-56 0 -56 69q0 56 38 67q-14 -26 -14 -67q0 -26 6.5 -39t25.5 -13q8 0 12 1q-2 -12 -5 -17zM357 162q-4 -1 -8 -1q-55 0 -55 69q0 56 37 67q-14 -26 -14 -67
q0 -52 32 -52q9 0 13 1q-1 -3 -2.5 -8.5t-2.5 -8.5zM405 231q0 -58 -36 -67q13 38 13 66q0 26 -6.5 39t-26.5 13q-8 0 -13 -1q3 10 7 17q2 1 6 1q56 0 56 -68zM102 262v-100h-23v135q4 1 20 1q2 -8 2 -18q1 -4 1 -18zM751 277q0 -2 0.5 -7t0.5 -6v-102h-23v135q1 0 8.5 0.5
t9.5 0.5h2q2 -12 2 -21zM666 447q22 0 22 32q0 34 -22 34t-22 -34q0 -32 22 -32zM257 487h36q0 26 -18 26q-8 0 -13 -8.5t-5 -17.5zM759 272q0 7 3 13q10 14 19 14q5 0 15 -4l-5 -21q-10 2 -15 2q-10 0 -17 -4zM672 298h27l-2 -16h-26z" />
    <glyph glyph-name="DEL" horiz-adv-x="0" 
 />
    </font>
</defs>
</svg>
