<?xml version="1.0" standalone="no"?>
<!DOCTYPE svg PUBLIC "-//W3C//DTD SVG 1.1//EN" "http://www.w3.org/Graphics/SVG/1.1/DTD/svg11.dtd" >
<svg xmlns="http://www.w3.org/2000/svg" xmlns:xlink="http://www.w3.org/1999/xlink" version="1.1">
<metadata>
Created by FontForge 20170731 at Tue Mar 15 02:32:55 2011
 By Aleksey,,,
Copyright (c) 2007 by Leftloft / Molotro. All rights reserved.
</metadata>
<defs>
<font id="SolferinoDisplay-LightItalic" horiz-adv-x="500" >
  <font-face 
    font-family="Solferino Display Lt"
    font-weight="300"
    font-style="italic"
    font-stretch="normal"
    units-per-em="1000"
    panose-1="2 0 0 0 0 0 0 0 0 0"
    ascent="759"
    descent="-241"
    x-height="484"
    cap-height="667"
    bbox="-175 -252 1000 962"
    underline-thickness="50"
    underline-position="-200"
    slope="-12"
    unicode-range="U+000D-FB02"
  />
<missing-glyph 
 />
    <glyph glyph-name="fi" unicode="fi" horiz-adv-x="522" 
d="M45 462l2 12h82q18 111 69 168t124 57q46 0 85 -21.5t39 -58.5q0 -21 -14.5 -37t-33.5 -16q-20 0 -34 14t-14 33q0 11 2.5 35.5t2.5 33.5q-12 5 -40 5q-49 0 -72 -47.5t-35 -165.5h51q7 0 57 5t74 5q64 0 64 -72q0 -22 -7 -73l-28 -182q-8 -53 -8 -81q0 -26 6.5 -38
t24.5 -12q27 0 60 43l7 -7q-53 -68 -107 -68q-37 0 -55.5 20.5t-18.5 51.5q0 33 7 73l28 182q7 47 7 81q0 70 -21 70q-7 0 -44 -5t-47 -5h-50q-1 -10 -21 -189.5t-29 -242.5q-16 -112 -61 -174.5t-106 -62.5q-35 0 -68.5 21.5t-33.5 51.5q0 21 15 39t35 18t34.5 -14
t14.5 -34q0 -9 -4.5 -31.5t-4.5 -35.5q7 -3 15 -3q28 0 44.5 37t31.5 133q13 84 32.5 264.5t25.5 222.5h-83z" />
    <glyph glyph-name=".notdef" 
 />
    <glyph glyph-name=".null" horiz-adv-x="0" 
 />
    <glyph glyph-name=".null" horiz-adv-x="0" 
 />
    <glyph glyph-name="nonmarkingreturn" horiz-adv-x="333" 
 />
    <glyph glyph-name="CR" unicode="&#xd;" horiz-adv-x="270" 
 />
    <glyph glyph-name="space" unicode=" " horiz-adv-x="220" 
 />
    <glyph glyph-name="exclam" unicode="!" horiz-adv-x="325" 
d="M210 696q25 0 41.5 -18t16.5 -47q0 -18 -26.5 -126.5t-53.5 -207.5l-26 -99l-7 2q-3 395 -3 431q0 29 16.5 47t41.5 18zM77 47q0 25 18.5 43t43.5 18t43.5 -18t18.5 -43t-18.5 -43.5t-43.5 -18.5t-43.5 18.5t-18.5 43.5z" />
    <glyph glyph-name="quotedbl" unicode="&#x22;" horiz-adv-x="389" 
d="M295 467h-12q-5 29 -15 74t-17 78t-7 43q0 21 12 36t33 15t32.5 -14.5t11.5 -35.5q0 -10 -7 -43t-16.5 -78.5t-14.5 -74.5zM134 467h-12q-5 29 -15 74t-17 78t-7 43q0 21 12 36t33 15t32.5 -14.5t11.5 -35.5q0 -10 -7 -43t-16.5 -78.5t-14.5 -74.5z" />
    <glyph glyph-name="numbersign" unicode="#" horiz-adv-x="528" 
d="M504 435h-108l-31 -215h111v-18h-113l-29 -205h-19l29 205h-196l-29 -205h-19l29 205h-105v18h108l31 215h-111v19h113l25 173h19l-25 -173h196l25 173h19l-25 -173h105v-19zM378 435h-197l-31 -215h197z" />
    <glyph glyph-name="dollar" unicode="$" horiz-adv-x="479" 
d="M305 650q17 0 34 -3l17 86l15 -1l-17 -89q44 -11 81 -43q8 -8 18 -8q20 0 32 49h10l-24 -186l-8 1q-12 148 -112 174l-51 -267q100 -42 135.5 -76.5t35.5 -101.5q0 -85 -57 -143.5t-141 -58.5q-26 0 -45 4l-17 -88h-15l17 92q-48 12 -88 42q-12 8 -19 8q-16 0 -25 -42
h-13l26 191l13 -1q1 -159 109 -185l53 277l-17 7q-75 30 -109.5 71.5t-34.5 101.5q0 79 59.5 134t137.5 55zM406 143q0 49 -28 76.5t-95 55.5l-53 -274q39 -3 42 -3q60 0 97 41.5t37 103.5zM176 506q0 -47 24 -78t86 -58l50 263q-18 2 -30 2q-56 0 -93 -37t-37 -92z" />
    <glyph glyph-name="percent" unicode="%" horiz-adv-x="734" 
d="M560 657l-362 -699l-18 9l364 698zM363 488q0 -69 -42 -117t-105 -48q-66 0 -106 46.5t-40 118.5q0 69 41 115.5t105 46.5t105.5 -46.5t41.5 -115.5zM304 488q0 60 -22.5 104.5t-65.5 44.5q-45 0 -65.5 -43t-20.5 -106t21 -107.5t65 -44.5t66 44.5t22 107.5zM684 149
q0 -69 -42 -117t-105 -48q-66 0 -106 46.5t-40 118.5q0 69 41 115.5t105 46.5t105.5 -46.5t41.5 -115.5zM625 149q0 60 -22.5 104.5t-65.5 44.5q-45 0 -65.5 -43t-20.5 -106t21 -107.5t65 -44.5t66 44.5t22 107.5z" />
    <glyph glyph-name="ampersand" unicode="&#x26;" horiz-adv-x="667" 
d="M550 275q-45 -101 -102 -163q38 -43 63 -61.5t53 -18.5t43 15.5t32 54.5l10 -4q-24 -59 -57 -84.5t-83 -25.5q-69 0 -126 70q-80 -73 -162 -73q-87 0 -136.5 44.5t-49.5 121.5q0 63 45.5 116t114.5 85q-46 102 -46 161q0 63 47.5 105t108.5 42q58 0 98 -35t40 -83
q0 -30 -8.5 -51.5t-34 -42.5t-46.5 -33t-72 -39q76 -156 157 -253q63 70 91 142q15 36 2 50t-68 15v13h177v-13q-45 -3 -60.5 -12t-30.5 -43zM237 4q74 0 135 63q-42 49 -90 127.5t-81 147.5q-72 -53 -72 -183q0 -65 27.5 -110t80.5 -45zM232 540q0 -57 44 -153
q51 31 71.5 60.5t20.5 85.5q0 46 -15 80.5t-48 34.5q-36 0 -54.5 -31.5t-18.5 -76.5z" />
    <glyph glyph-name="quotesingle" unicode="'" horiz-adv-x="155" 
d="M134 467h-12q-5 29 -15 74t-17 78t-7 43q0 21 12 36t33 15t32.5 -14.5t11.5 -35.5q0 -10 -7 -43t-16.5 -78.5t-14.5 -74.5z" />
    <glyph glyph-name="parenleft" unicode="(" horiz-adv-x="384" 
d="M328 -171l-7 -9q-101 69 -164.5 172t-63.5 236q0 171 85 295.5t255 233.5l5 -9q-139 -99 -197 -224.5t-58 -294.5q0 -269 145 -400z" />
    <glyph glyph-name="parenright" unicode=")" horiz-adv-x="384" 
d="M87 758l7 9q101 -69 164.5 -172t63.5 -236q0 -171 -85 -295.5t-255 -233.5l-5 9q139 99 197 224.5t58 294.5q0 269 -145 400z" />
    <glyph glyph-name="asterisk" unicode="*" horiz-adv-x="400" 
d="M170 298q0 4 17.5 47.5t19.5 94.5q-45 -27 -74 -63t-33 -38q-17 -9 -33 -4.5t-24 18.5q-9 13 -4.5 30.5t20.5 26.5q2 1 49.5 7.5t93.5 31.5q-46 25 -92 32.5t-50 9.5q-15 9 -20 26t4 30q8 14 24 18.5t34 -4.5q6 -4 17 -20.5t33 -40t55 -43.5q-2 52 -18.5 95.5t-16.5 47.5
q0 19 12 31.5t28 12.5t28.5 -12.5t12.5 -31.5q0 -3 -18 -47t-19 -96q33 20 55 42.5t33.5 39t18.5 20.5q17 9 33 4.5t24 -18.5q9 -13 4 -30t-20 -26q-7 -4 -27 -5.5t-51 -9t-65 -25.5q45 -25 91.5 -32.5t50.5 -9.5q15 -9 20 -26t-4 -30q-8 -14 -24 -18t-34 5q-7 3 -17.5 19
t-32.5 39.5t-55 43.5q1 -51 18 -94.5t17 -47.5q0 -18 -12 -30.5t-28 -12.5t-28.5 12.5t-12.5 30.5z" />
    <glyph glyph-name="plus" unicode="+" horiz-adv-x="489" 
d="M438 296h-185v-184h-20v184h-185v19h185v185h20v-185h185v-19z" />
    <glyph glyph-name="comma" unicode="," horiz-adv-x="206" 
d="M-12 -138l-3 14q38 11 75.5 40.5t47.5 56.5q-6 4 -30.5 13.5t-39 22.5t-14.5 34q0 25 17 43t41 18q25 0 43.5 -21t18.5 -50q0 -56 -48 -105t-108 -66z" />
    <glyph glyph-name="hyphen" unicode="-" horiz-adv-x="299" 
d="M271 245l-239 -12q-5 -2 -5 4l-2 25q0 5 4 6l239 12q5 2 5 -4l2 -25q0 -5 -4 -6z" />
    <glyph glyph-name="period" unicode="." horiz-adv-x="214" 
d="M25 47q0 25 18.5 43t43.5 18t43.5 -18t18.5 -43t-18.5 -43.5t-43.5 -18.5t-43.5 18.5t-18.5 43.5z" />
    <glyph glyph-name="slash" unicode="/" horiz-adv-x="429" 
d="M409 688l-365 -700l-19 9l365 700z" />
    <glyph glyph-name="zero" unicode="0" horiz-adv-x="481" 
d="M458 380q0 -89 -34 -180.5t-93 -153t-122 -61.5q-60 0 -103.5 38t-63 96t-19.5 128q0 162 81.5 282t167.5 120q82 0 134 -80t52 -189zM371 427q0 45 -3.5 78t-13.5 64.5t-30.5 48.5t-50.5 17q-49 0 -86.5 -54.5t-57.5 -148t-20 -208.5q0 -225 98 -225q78 0 121 119
t43 309z" />
    <glyph glyph-name="one" unicode="1" horiz-adv-x="307" 
d="M273 0h-284l1 13q73 3 90 12t21 44l36 343q8 82 21 136q-57 0 -113 30l2 7q39 -11 79 -11q35 0 62 18.5t55 59.5l11 -4q-23 -77 -32 -156l-44 -424q-4 -34 10 -42.5t86 -12.5z" />
    <glyph glyph-name="two" unicode="2" horiz-adv-x="470" 
d="M437 170l10 -2q-26 -113 -56 -150.5t-81 -37.5q-45 0 -116.5 23t-91.5 23q-17 0 -38 -8t-33 -16l-12 -7l-5 11q112 118 197 190q75 64 107.5 131t32.5 169q0 61 -20.5 101.5t-63.5 40.5q-60 0 -99 -39q0 -17 6.5 -45.5t6.5 -43.5q0 -23 -15 -40.5t-35 -17.5t-34.5 16
t-14.5 38q0 47 62.5 95.5t123.5 48.5q76 0 123.5 -44.5t47.5 -115.5q0 -83 -46 -149t-172 -157q-55 -40 -137 -126q44 22 82 22q35 0 83.5 -7t71.5 -7q86 0 116 104z" />
    <glyph glyph-name="three" unicode="3" horiz-adv-x="490" 
d="M467 191q0 -89 -74 -147.5t-171 -58.5q-64 0 -116 35.5t-52 86.5q0 26 17 44t39 18q20 0 34.5 -18t14.5 -41q0 -20 -14 -49.5t-15 -35.5q38 -27 92 -27q70 0 112 56.5t42 136.5q0 60 -28 95t-78 35q-20 0 -76 -13l-3 13q102 21 140 65t38 122q0 56 -25.5 92t-72.5 36
q-59 0 -93 -32q0 -9 12.5 -36t12.5 -46q0 -17 -16 -36t-34 -19q-20 0 -36 17.5t-16 38.5q0 49 56.5 87.5t114.5 38.5q78 0 130.5 -36t52.5 -105q0 -66 -42.5 -106t-124.5 -65v-2q8 2 26 2q68 0 110.5 -37.5t42.5 -108.5z" />
    <glyph glyph-name="four" unicode="4" horiz-adv-x="467" 
d="M446 94h-9q5 52 -3 69.5t-39 17.5h-61l-14 -108q-4 -38 8.5 -47.5t71.5 -11.5l-1 -14h-261l1 14q62 2 80.5 11t22.5 42l14 114h-244l-2 14l365 453h16l-56 -451h61q31 0 42.5 18t20.5 69h11zM258 197l43 339l-271 -339h228z" />
    <glyph glyph-name="five" unicode="5" horiz-adv-x="448" 
d="M467 682l11 -6q-79 -133 -185 -133q-80 0 -157 23l-36 -195l-5 -28q56 76 147 76q76 0 123.5 -54t47.5 -126q0 -101 -76.5 -177.5t-168.5 -76.5q-56 0 -107 31.5t-51 78.5q0 26 16.5 44t36.5 18q17 0 31 -15.5t14 -33.5q0 -19 -7 -50.5t-7 -39.5q30 -17 74 -17
q71 0 111.5 71.5t40.5 160.5q0 161 -111 161q-40 0 -72 -24.5t-51 -60.5l-17 -29l-13 9q24 51 30 84l47 266l6 4q90 -23 170 -23q59 0 93 14t65 48z" />
    <glyph glyph-name="six" unicode="6" horiz-adv-x="478" 
d="M478 537q0 -20 -15 -37.5t-35 -17.5q-17 0 -28.5 13t-11.5 33q0 16 11 41.5t11 36.5q-8 9 -38 19t-53 10q-33 0 -59 -13.5t-45 -42t-32 -57t-23.5 -73.5t-16 -74.5t-12.5 -77.5h4q55 105 145 105q68 0 115 -48.5t47 -124.5q0 -91 -65 -167t-153 -76q-87 0 -135.5 70.5
t-48.5 164.5q0 107 33 203.5t98.5 160.5t149.5 64q57 0 107 -33.5t50 -78.5zM354 244q0 144 -82 144q-46 0 -82 -35t-52.5 -84t-16.5 -100q0 -169 103 -169q57 0 93.5 76.5t36.5 167.5z" />
    <glyph glyph-name="seven" unicode="7" horiz-adv-x="446" 
d="M503 633l4 -5q-75 -93 -127.5 -164t-72 -101t-65.5 -102q-55 -85 -64 -126q6 -13 36.5 -40.5t30.5 -49.5t-15.5 -41t-35.5 -19q-23 0 -40.5 20.5t-17.5 47.5q0 57 67 172q90 155 229 334h-220q-52 0 -70.5 -16t-44.5 -86l-9 2l57 217l9 -1q-2 -29 5.5 -37.5t37.5 -8.5
h276z" />
    <glyph glyph-name="eight" unicode="8" horiz-adv-x="490" 
d="M448 164q0 -71 -67 -126.5t-144 -55.5q-80 0 -142 47.5t-62 117.5q0 109 155 165q-61 39 -86 73t-25 90q0 71 62.5 123t138.5 52q72 0 127 -46t55 -108q0 -108 -135 -165q69 -36 96 -72t27 -95zM412 496q0 59 -38 100t-97 41q-58 0 -92.5 -36.5t-34.5 -92.5
q0 -58 34 -93.5t128 -77.5q51 24 75.5 61t24.5 98zM373 146q0 51 -43 86.5t-131 73.5q-56 -24 -87.5 -61t-31.5 -96q0 -61 43.5 -107.5t114.5 -46.5q61 0 98 40.5t37 110.5z" />
    <glyph glyph-name="nine" unicode="9" horiz-adv-x="481" 
d="M33 98q0 20 15 37.5t35 17.5q17 0 28.5 -13t11.5 -33q0 -16 -11 -41.5t-11 -36.5q8 -9 38 -19t53 -10q33 0 59 13.5t45 42t32 57t23.5 73.5t16 74.5t12.5 77.5h-4q-55 -105 -145 -105q-68 0 -115 48.5t-47 124.5q0 91 65 167t153 76q87 0 135.5 -70.5t48.5 -164.5
q0 -107 -33 -203.5t-98.5 -160.5t-149.5 -64q-57 0 -107 33.5t-50 78.5zM157 391q0 -144 82 -144q46 0 82 35t52.5 84t16.5 100q0 169 -103 169q-57 0 -93.5 -76.5t-36.5 -167.5z" />
    <glyph glyph-name="colon" unicode=":" horiz-adv-x="214" 
d="M45 397q0 25 18.5 43t43.5 18t43.5 -18t18.5 -43t-18.5 -43.5t-43.5 -18.5t-43.5 18.5t-18.5 43.5zM45 47q0 25 18.5 43t43.5 18t43.5 -18t18.5 -43t-18.5 -43.5t-43.5 -18.5t-43.5 18.5t-18.5 43.5z" />
    <glyph glyph-name="semicolon" unicode=";" horiz-adv-x="198" 
d="M45 397q0 25 18.5 43t43.5 18t43.5 -18t18.5 -43t-18.5 -43.5t-43.5 -18.5t-43.5 18.5t-18.5 43.5zM10 -138l-3 14q38 11 75.5 40.5t47.5 56.5q-6 4 -30.5 13.5t-39 22.5t-14.5 34q0 25 17 43t41 18q25 0 43.5 -21t18.5 -50q0 -56 -48 -105t-108 -66z" />
    <glyph glyph-name="less" unicode="&#x3c;" horiz-adv-x="489" 
d="M447 112l-394 188v12l394 188v-23l-362 -171l362 -170v-24z" />
    <glyph glyph-name="equal" unicode="=" horiz-adv-x="489" 
d="M426 380h-363v18h363v-18zM426 202h-363v18h363v-18z" />
    <glyph glyph-name="greater" unicode="&#x3e;" horiz-adv-x="489" 
d="M439 300l-394 -188v24l362 170l-362 171v23l394 -188v-12z" />
    <glyph glyph-name="question" unicode="?" horiz-adv-x="484" 
d="M233 240q0 -15 3 -33l-13 -6q-10 22 -10 49q0 28 19 56t46.5 52.5t54.5 51.5t46 64.5t19 80.5q0 52 -22 83t-66 31q-60 0 -87 -27q-4 -9 -5.5 -22.5t-4 -36.5t-6.5 -45q-4 -21 -19 -36t-35 -15t-31.5 16.5t-11.5 38.5q0 51 69.5 96t132.5 45q75 0 125 -39.5t50 -112.5
q0 -50 -26 -92t-63.5 -69.5t-75 -49.5t-63.5 -42t-26 -38zM171 47q0 25 18.5 43t43.5 18t43.5 -18t18.5 -43t-18.5 -43.5t-43.5 -18.5t-43.5 18.5t-18.5 43.5z" />
    <glyph glyph-name="at" unicode="@" horiz-adv-x="962" 
d="M405 18q-71 0 -109 53.5t-38 132.5q0 100 72.5 182t158.5 82q70 0 115 -67l78 65l9 -4q-21 -62 -40 -195q-17 -135 -17 -161q0 -39 19.5 -61t49.5 -22q72 0 128 72.5t57 212.5q1 168 -108 270t-284 102q-178 0 -300 -130t-122 -315q0 -192 111.5 -313t296.5 -121
q91 0 162.5 19.5t144.5 60.5l8 -14q-146 -83 -317 -83q-190 0 -307.5 126t-117.5 324q0 125 58.5 231.5t160.5 169t224 62.5q179 0 294 -108.5t115 -282.5q0 -150 -66.5 -226.5t-152.5 -76.5q-56 0 -94 31t-39 89q-22 -44 -61.5 -74.5t-88.5 -30.5zM442 50q40 0 74 40t46 92
l28 177q-5 45 -29.5 69t-62.5 24q-58 0 -102.5 -82.5t-44.5 -168.5q0 -63 22.5 -107t68.5 -44z" />
    <glyph glyph-name="A" unicode="A" horiz-adv-x="568" 
d="M380 133l-20 87h-231l-36 -75q-13 -28 -20 -44.5t-13 -32t-3.5 -23.5t5.5 -14.5t15.5 -9.5t25.5 -4.5t37 -3.5l-1 -13h-194l1 13q53 6 72 25t59 107l244 537h23l123 -543q18 -80 35 -100.5t71 -25.5l-1 -13h-258l1 13q26 2 38.5 3t24 7.5t14 10.5t2.5 21.5t-3 31
t-11 46.5zM286 570l-150 -335h221z" />
    <glyph glyph-name="B" unicode="B" horiz-adv-x="548" 
d="M513 531q0 -62 -45.5 -109t-112.5 -67v-2q71 -11 112 -49t41 -96q0 -91 -72 -149.5t-170 -58.5h-284l1 13q60 5 78 29t28 105l51 419q6 50 -8.5 66t-69.5 22l1 13h263q78 0 132.5 -36t54.5 -100zM245 15q86 0 129 56.5t43 148.5q0 63 -34 92.5t-106 29.5h-76l-29 -243
q-6 -52 8 -68t65 -16zM203 357h81q65 0 100 52.5t35 123.5q0 57 -28 88t-80 31h-72z" />
    <glyph glyph-name="C" unicode="C" horiz-adv-x="530" 
d="M466 133l10 -8q-46 -70 -96 -107t-118 -37q-106 0 -164 79.5t-58 210.5q0 105 38.5 198.5t107.5 151.5t152 58q73 0 126 -41t53 -97q0 -24 -17.5 -47t-39.5 -23t-39 17.5t-17 40.5q0 19 14.5 56.5t14.5 52.5q-33 27 -97 27q-50 0 -89 -35t-61 -91.5t-33 -121t-11 -132.5
q0 -74 13 -133t46.5 -100t82.5 -41q61 0 98.5 28.5t83.5 93.5z" />
    <glyph glyph-name="D" unicode="D" horiz-adv-x="633" 
d="M62 654l1 13h249q132 0 208.5 -75t76.5 -198q0 -98 -39.5 -186.5t-120.5 -148t-186 -59.5h-265l1 13q56 5 74.5 29.5t28.5 104.5l45 373q10 80 -2.5 104.5t-70.5 29.5zM240 651l-61 -503q-10 -76 1.5 -104t61.5 -28h10q85 0 142 55t80.5 137t23.5 184q0 55 -9.5 100
t-30.5 81.5t-59 57t-89 20.5h-70z" />
    <glyph glyph-name="E" unicode="E" horiz-adv-x="526" 
d="M392 443h15l-28 -228h-15q2 70 -11.5 93.5t-59.5 23.5h-93l-25 -206q-7 -56 6.5 -83t62.5 -27h72q63 0 92.5 40.5t52.5 134.5h15l-23 -191h-469l1 13q54 5 74 30.5t30 103.5l51 419q6 50 -9 66t-70 22l1 13h464l-22 -181h-15q-1 92 -19.5 128.5t-82.5 36.5h-148l-37 -303
h93q47 0 65 17.5t32 77.5z" />
    <glyph glyph-name="F" unicode="F" horiz-adv-x="493" 
d="M397 429h12l-28 -228h-12q0 59 -16.5 83t-54.5 24h-100l-20 -161q-10 -80 9.5 -106.5t92.5 -27.5l-1 -13h-295l1 13q54 5 74 30.5t30 103.5l51 419q6 48 -10.5 65t-65.5 23l1 13h448l-23 -191h-13q0 104 -24.5 139.5t-98.5 35.5h-115l-39 -327h100q39 0 62 23.5t35 81.5z
" />
    <glyph glyph-name="G" unicode="G" horiz-adv-x="607" 
d="M406 13l11 114q8 84 -5.5 106.5t-79.5 27.5l1 13h244l-1 -13q-28 -3 -41 -13t-20 -36t-12 -86l-6 -72l6 -42q-116 -31 -203 -31q-127 0 -193.5 80.5t-66.5 212.5q0 104 45.5 198t121.5 150.5t160 56.5q75 0 133 -39t58 -97q0 -24 -19 -48.5t-41 -24.5t-39 17.5t-17 40.5
q0 20 14.5 60t13.5 47q-34 28 -105 28q-57 0 -101.5 -34t-70 -91t-38.5 -122.5t-13 -135.5q0 -121 38.5 -202t121.5 -81q59 0 104 16z" />
    <glyph glyph-name="H" unicode="H" horiz-adv-x="672" 
d="M685 654q-52 -5 -68.5 -28.5t-26.5 -103.5l-47 -377q-10 -79 3 -103t71 -29l-1 -13h-269l1 13q60 5 78 28.5t28 103.5l24 194h-276l-24 -194q-10 -80 3 -103.5t72 -28.5l-1 -13h-259l1 13q52 5 68.5 28.5t26.5 103.5l47 377q10 79 -3 103t-71 29l1 13h269l-1 -13
q-60 -5 -78 -28.5t-28 -103.5l-21 -167h276l21 167q10 80 -3 103.5t-72 28.5l1 13h259z" />
    <glyph glyph-name="I" unicode="I" horiz-adv-x="311" 
d="M334 654q-62 -5 -80 -27t-28 -107l-45 -373q-10 -85 2.5 -107t72.5 -27l-1 -13h-270l1 13q61 5 78.5 26.5t27.5 107.5l45 373q10 86 -1.5 107.5t-70.5 26.5l1 13h269z" />
    <glyph glyph-name="J" unicode="J" horiz-adv-x="297" 
d="M81 63l56 457q10 84 -5.5 106.5t-77.5 27.5l1 13h274l-1 -13q-38 -4 -55 -13t-28.5 -36t-18.5 -85l-53 -438q-12 -97 -58 -154.5t-147 -93.5l-3 10q59 36 82.5 85.5t33.5 133.5z" />
    <glyph glyph-name="K" unicode="K" horiz-adv-x="574" 
d="M323 654q-53 -5 -71 -29.5t-28 -104.5l-45 -373q-10 -80 3.5 -104.5t73.5 -29.5l-1 -13h-268l1 13q56 5 74 28t28 106l45 373q4 35 4 57.5t-3.5 37t-14.5 22.5t-23.5 11.5t-35.5 5.5l1 13h261zM215 322l249 262q37 37 29.5 53t-71.5 17l1 13h208l-1 -13q-49 -2 -75 -14
t-55 -43l-209 -221l133 -229q48 -82 75 -105.5t76 -28.5l-1 -13h-261l1 13q50 6 51.5 30t-35.5 81z" />
    <glyph glyph-name="L" unicode="L" horiz-adv-x="464" 
d="M-21 13q63 5 81.5 27t29.5 107l45 373q10 80 -2.5 104t-70.5 30l1 13h278l-1 -13q-67 -5 -86.5 -29t-29.5 -105l-49 -404q-8 -62 4.5 -81t63.5 -19h44q72 0 107.5 41.5t61.5 143.5h12l-28 -201h-462z" />
    <glyph glyph-name="M" unicode="M" horiz-adv-x="822" 
d="M659 601l-305 -606h-13l-175 617l-58 -467q-11 -86 0 -106t74 -26l-1 -13h-198l1 13q64 5 79 24.5t26 104.5l48 390q10 78 -1.5 97t-73.5 25l1 13h182l152 -548l204 401q34 68 61 147h181l-1 -13q-60 -8 -76 -28t-25 -91l-49 -400q-9 -75 3.5 -95.5t74.5 -26.5l-1 -13
h-260l1 13q49 5 66.5 28t25.5 91z" />
    <glyph glyph-name="N" unicode="N" horiz-adv-x="654" 
d="M583 535l-66 -543l-21 -1l-332 618l-58 -474q-9 -74 4.5 -94.5t81.5 -27.5l-1 -13h-208l1 13q61 6 78 27t26 92l49 400q9 75 -2.5 95t-72.5 26l1 14h182l274 -512l46 377q9 73 -6 95.5t-81 26.5l1 13h205l-1 -13q-58 -5 -74.5 -26.5t-25.5 -92.5z" />
    <glyph glyph-name="O" unicode="O" horiz-adv-x="653" 
d="M356 679q109 0 183 -86.5t74 -208.5q0 -73 -21 -144t-59.5 -129t-99 -94t-132.5 -36q-115 0 -188 85.5t-73 208.5q0 103 40 195.5t113.5 150.5t162.5 58zM355 664q-59 0 -103.5 -39t-68 -102t-34.5 -130t-11 -136q0 -107 43 -184t121 -77q64 0 108.5 41.5t66 111t30 136
t8.5 139.5q0 101 -40 170.5t-120 69.5z" />
    <glyph glyph-name="P" unicode="P" horiz-adv-x="501" 
d="M239 651l-61 -504q-10 -82 7 -105t87 -29l-1 -13h-289l1 13q51 6 73.5 30.5t32.5 103.5l51 419q6 46 -10.5 63.5t-67.5 24.5l1 13h235q99 0 163.5 -38.5t64.5 -120.5q0 -108 -81.5 -172t-208.5 -70l-2 12q91 7 142.5 67.5t51.5 160.5q0 62 -36.5 103.5t-97.5 41.5h-55z
" />
    <glyph glyph-name="Q" unicode="Q" horiz-adv-x="662" 
d="M364 679q109 0 184 -83t75 -207q0 -134 -57.5 -237.5t-159.5 -149.5q152 -177 295 -177q74 0 130 28l4 -9q-18 -14 -68.5 -30t-105.5 -16t-97.5 10t-84.5 36.5t-76 56t-87 82.5q-10 -2 -18 -2q-116 1 -187 85t-71 206q0 162 94 284.5t230 122.5zM363 663q-49 0 -88.5 -27
t-64 -70t-41.5 -99t-24 -111t-7 -109q0 -109 43.5 -179.5t119.5 -70.5q55 0 97 29.5t65.5 74.5t38 106.5t19 115.5t4.5 113q0 63 -14.5 112t-52 82t-95.5 33z" />
    <glyph glyph-name="R" unicode="R" horiz-adv-x="579" 
d="M572 53l7 -7q-55 -59 -110 -59q-47 0 -71.5 27t-38.5 84q-28 116 -42.5 158.5t-31.5 58.5h-86l-20 -167q-11 -88 -0.5 -108t73.5 -27l-1 -13h-259l1 13q55 5 70.5 25.5t25.5 106.5l49 393q9 71 -5 91t-71 26l1 12h239q98 0 159 -42.5t61 -114.5q0 -73 -57.5 -128
t-149.5 -64q53 -7 79.5 -44.5t51.5 -143.5q16 -66 28.5 -91t32.5 -25q24 0 65 39zM240 652l-39 -323h64q79 0 119 53.5t40 137.5q0 67 -33.5 99.5t-91.5 32.5h-59z" />
    <glyph glyph-name="S" unicode="S" horiz-adv-x="526" 
d="M293 683q71 0 132 -52q8 -8 18 -8q21 0 33 50h11l-25 -206l-11 1q-16 201 -159 201q-64 0 -105 -41t-41 -100q0 -48 28.5 -79t100.5 -59q105 -41 144.5 -81.5t39.5 -113.5q0 -89 -66 -151t-158 -62q-74 0 -147 52q-12 8 -20 8q-16 0 -25 -43h-14l27 211l12 -1
q0 -213 166 -213q66 0 108.5 43t42.5 108q0 55 -34.5 88t-121.5 67q-81 32 -118.5 76.5t-37.5 112.5q0 81 69 136.5t151 55.5z" />
    <glyph glyph-name="T" unicode="T" horiz-adv-x="578" 
d="M232 147l61 505h-49q-75 0 -109 -43t-56 -153h-13l26 211h492l-21 -211h-12q-2 108 -25 152t-96 44h-48l-61 -505q-10 -84 4 -106.5t80 -27.5l-1 -13h-289l1 13q67 5 86.5 29t29.5 105z" />
    <glyph glyph-name="U" unicode="U" horiz-adv-x="612" 
d="M495 223l37 300q10 84 -2.5 105t-72.5 26l1 13h195l-1 -13q-59 -5 -75.5 -25.5t-26.5 -105.5l-37 -301q-13 -111 -70 -175.5t-159 -64.5q-100 0 -153 50.5t-53 141.5q0 30 3 51l37 297q10 80 -3 103.5t-66 28.5l1 13h263l-1 -13q-39 -4 -56.5 -12.5t-29.5 -35t-19 -84.5
l-37 -294q-3 -25 -3 -70q0 -67 31 -113t94 -46q175 0 203 224z" />
    <glyph glyph-name="V" unicode="V" horiz-adv-x="547" 
d="M276 105l182 417q37 83 29.5 105t-75.5 27l1 13h204l-1 -13q-59 -6 -80 -27t-60 -105l-238 -537h-20l-116 543q-17 79 -34 100t-68 26l1 13h286l-1 -13q-81 -5 -96.5 -26t1.5 -94z" />
    <glyph glyph-name="W" unicode="W" horiz-adv-x="830" 
d="M569 112l166 410q26 62 26 93q0 20 -18.5 27.5t-63.5 11.5l1 13h215l-1 -13q-62 -7 -85.5 -29t-56.5 -103l-221 -537h-22l-76 424l-204 -424h-22l-106 543q-15 80 -31.5 100.5t-69.5 25.5l1 13h269l-1 -13q-47 -2 -64.5 -13t-17.5 -36q0 -35 6 -71l78 -423l158 321
l-18 96q-17 77 -35 98.5t-68 27.5l1 13h269l-1 -13q-33 -2 -50.5 -5.5t-30 -16t-12.5 -34.5q0 -21 8 -64z" />
    <glyph glyph-name="X" unicode="X" horiz-adv-x="533" 
d="M32 654l1 13h241l-1 -13q-60 -1 -69 -19t14 -66l84 -203l119 193q37 55 34 74.5t-63 20.5l1 13h170l-1 -13q-47 -4 -68 -19.5t-60 -78.5l-126 -203l90 -208q36 -82 55 -103.5t61 -28.5l-1 -13h-251l1 13q60 5 68.5 30.5t-24.5 101.5l-67 158l-127 -204
q-28 -39 -19.5 -59.5t68.5 -26.5l-1 -13h-191l1 13q42 1 69.5 20t59.5 70l133 213l-99 231q-31 71 -46.5 87t-55.5 20z" />
    <glyph glyph-name="Y" unicode="Y" horiz-adv-x="509" 
d="M0 654l1 13h246l-1 -13q-48 -1 -58.5 -14.5t4.5 -47.5l103 -253l146 243q26 44 13 57.5t-78 14.5l1 13h197l-1 -13q-49 -2 -69 -14t-50 -63l-151 -253l-22 -179q-9 -77 4 -102.5t70 -29.5l-1 -13h-270l1 13q59 4 78.5 29.5t28.5 102.5l20 164l-114 268q-19 44 -38.5 60
t-59.5 17z" />
    <glyph glyph-name="Z" unicode="Z" horiz-adv-x="519" 
d="M14 17l402 635h-153q-84 0 -123.5 -37t-71.5 -149h-12l35 206l121 -5h303l-1 -17l-407 -635h174q74 0 113 41t72 145h12l-35 -206l-138 5h-293z" />
    <glyph glyph-name="bracketleft" unicode="[" horiz-adv-x="295" 
d="M262 -100l-203 10q35 233 51 393q8 71 17 181.5t15 185.5l5 75l205 10l-1 -11q-9 -1 -28.5 -3t-28 -3t-24 -4t-23 -8.5t-17 -13.5t-14 -20.5t-6.5 -28.5q-27 -210 -43 -360l-26 -300q-2 -23 3.5 -39.5t13 -25t28 -14.5t33.5 -8t44 -5z" />
    <glyph glyph-name="backslash" unicode="\" horiz-adv-x="429" 
d="M404 -3l-19 -9l-365 700l19 9z" />
    <glyph glyph-name="bracketright" unicode="]" horiz-adv-x="295" 
d="M216 -90l-205 -10l1 11q32 3 45 5t35 8t31.5 14.5t18.5 25t12 39.5q21 150 36 300l33 360q1 14 -1 25.5t-5.5 19t-12 13.5t-15.5 9t-19.5 5.5t-21 3.5t-24 2.5t-24.5 2.5l1 11l203 -10q-40 -282 -57 -442q-7 -71 -15 -169.5t-12 -161.5z" />
    <glyph glyph-name="asciicircum" unicode="^" 
d="M256 703l186 -394h-21l-171 366l-172 -366h-20l186 394h12z" />
    <glyph glyph-name="underscore" unicode="_" horiz-adv-x="465" 
d="M-2 -122l2 19h467l-2 -19h-467z" />
    <glyph glyph-name="grave" unicode="`" horiz-adv-x="444" 
d="M178 585l-7 -10l-171 112q-24 15 -24 48q0 16 12.5 27.5t28.5 11.5q29 0 51 -28z" />
    <glyph glyph-name="a" unicode="a" horiz-adv-x="497" 
d="M44 155q0 80 31 156.5t83.5 124.5t109.5 48q51 0 91 -79l81 75l9 -5q-26 -73 -46 -216l-18 -130q-6 -36 -6 -58q0 -26 5.5 -38.5t22.5 -12.5q11 0 31.5 15.5t29.5 28.5l8 -9q-55 -65 -118 -65q-29 0 -45.5 19t-16.5 46q0 20 4 44q-20 -48 -56 -78.5t-86 -30.5
q-53 0 -83.5 47t-30.5 118zM196 19q80 0 113 157l26 189q-2 56 -17 81t-51 25q-37 0 -69 -53t-48 -125t-16 -138q0 -59 15.5 -97.5t46.5 -38.5z" />
    <glyph glyph-name="b" unicode="b" horiz-adv-x="494" 
d="M78 220l49 362q4 24 4 35q0 27 -13 36.5t-59 15.5l1 13l168 15l5 -11q-21 -65 -53 -317q22 47 58.5 81t77.5 34q62 0 97 -47.5t35 -124.5q0 -133 -68 -227.5t-165 -94.5q-27 0 -47 13t-51 48l-71 -60l-11 4q16 49 43 225zM283 455q-38 0 -68.5 -48t-46.5 -116l-26 -201
q5 -46 20 -66.5t53 -20.5q45 0 79 55.5t49 124t15 129.5q0 143 -75 143z" />
    <glyph glyph-name="c" unicode="c" horiz-adv-x="413" 
d="M380 396q0 -21 -15 -38.5t-37 -17.5q-19 0 -33.5 14.5t-14.5 32.5q0 13 13.5 40t13.5 36q-17 10 -50 10q-38 0 -67.5 -49.5t-42.5 -114t-13 -126.5q0 -71 22 -118.5t72 -47.5q53 0 113 72l8 -8q-37 -43 -72 -67t-80 -24q-70 0 -111.5 51.5t-41.5 127.5q0 120 63 217.5
t150 97.5q46 0 84.5 -24.5t38.5 -63.5z" />
    <glyph glyph-name="d" unicode="d" horiz-adv-x="512" 
d="M355 437l19 146q3 18 3 31q0 26 -17 37.5t-63 19.5v11l179 16l8 -6q-27 -97 -55 -306l-33 -253q-5 -40 -5 -61q0 -25 6.5 -36.5t23.5 -11.5q22 0 60 41l8 -8q-54 -67 -108 -67q-42 0 -58.5 26.5t-16.5 87.5q-24 -52 -54.5 -83t-77.5 -31q-63 0 -96.5 47.5t-33.5 124.5
q0 126 67 224t155 98q45 0 89 -47zM202 19q81 0 119 164l25 197q-6 48 -24.5 69.5t-55.5 21.5q-32 0 -58.5 -31t-41.5 -78.5t-23.5 -99.5t-8.5 -100q0 -143 68 -143z" />
    <glyph glyph-name="e" unicode="e" horiz-adv-x="435" 
d="M395 392q0 -67 -66.5 -97.5t-189.5 -35.5q-5 -40 -5 -92q0 -62 21 -105t64 -43q39 0 69 19.5t65 56.5l8 -8q-85 -97 -171 -97q-74 0 -110 48.5t-36 130.5q0 137 68 226t158 89q54 0 89.5 -24t35.5 -68zM269 471q-47 0 -81.5 -61.5t-46.5 -138.5q85 8 126.5 37t41.5 88
q0 31 -10 53t-30 22z" />
    <glyph glyph-name="f" unicode="f" horiz-adv-x="321" 
d="M45 462l2 12h82q37 225 163 225q40 0 67.5 -19t27.5 -51q0 -20 -15 -36.5t-34 -16.5q-20 0 -34 14t-14 33q0 11 3.5 31t3.5 29q-5 4 -15 4q-28 0 -45 -49t-29 -164h113l-1 -12h-112q-1 -10 -21 -189.5t-29 -242.5q-16 -112 -61 -174.5t-106 -62.5q-35 0 -68.5 21.5
t-33.5 51.5q0 21 15 39t35 18t34.5 -14t14.5 -34q0 -9 -4.5 -31.5t-4.5 -35.5q7 -3 15 -3q28 0 44.5 37t31.5 133q13 84 32.5 264.5t25.5 222.5h-83z" />
    <glyph glyph-name="g" unicode="g" horiz-adv-x="477" 
d="M203 157q48 0 75.5 55.5t27.5 120.5q0 139 -76 139q-43 0 -73.5 -61.5t-30.5 -125.5q0 -52 18.5 -90t58.5 -38zM87 -7l8 -5q-11 -9 -22 -36.5t-11 -41.5q0 -50 29 -82.5t80 -32.5q64 0 112.5 37.5t48.5 86.5q0 30 -44 50t-97 28.5t-97 27.5t-44 48q0 18 28 43t62 40
q-44 20 -71.5 56.5t-27.5 82.5q0 76 59.5 132.5t129.5 56.5q31 0 62.5 -13.5t49.5 -33.5q51 59 83 59q23 0 37.5 -12t14.5 -33q0 -20 -12.5 -34.5t-32.5 -14.5q-14 0 -32 24t-24 27q-11 -6 -26 -23q15 -16 28.5 -47t13.5 -56q0 -81 -52.5 -131.5t-136.5 -50.5q-27 0 -53 10
q-19 -17 -19 -42q0 -13 45 -26t99.5 -24t99.5 -37.5t45 -64.5q0 -50 -40.5 -92.5t-97 -64t-111.5 -21.5q-79 0 -133.5 34.5t-54.5 87.5q0 26 37 54t67 34z" />
    <glyph glyph-name="h" unicode="h" horiz-adv-x="509" 
d="M228 697l6 -8q-23 -75 -56 -320q53 115 127 115q55 0 89 -30.5t34 -83.5q0 -29 -4 -59l-21 -154q-7 -47 -7 -81q0 -26 6 -38t24 -12q27 0 60 43l7 -7q-53 -68 -107 -68q-74 0 -74 72q0 19 7 73l24 176q5 40 5 61q0 95 -47 95q-42 0 -79 -49.5t-53 -114.5l-40 -307h-86
l34 224l48 358q4 24 4 35q0 27 -13.5 37t-58.5 16l1 12z" />
    <glyph glyph-name="i" unicode="i" horiz-adv-x="268" 
d="M124 651q0 24 17.5 42t41.5 18t42 -18t18 -42t-18 -41.5t-42 -17.5t-41.5 17.5t-17.5 41.5zM187 339l-28 -186q-8 -53 -8 -81q0 -26 6.5 -38t24.5 -12q27 0 60 43l7 -7q-53 -68 -107 -68q-37 0 -55.5 20.5t-18.5 51.5q0 33 7 73l28 186q7 47 7 81q0 50 -30 50
q-10 0 -29 -13.5t-31 -29.5l-7 7q20 26 53.5 47t63.5 21q64 0 64 -72q0 -22 -7 -73z" />
    <glyph glyph-name="j" unicode="j" horiz-adv-x="242" 
d="M187 339l-47 -305q-14 -92 -68 -151.5t-155 -100.5l-4 10q69 41 100 96.5t47 158.5l43 274q7 42 7 81q0 50 -30 50q-12 0 -29.5 -13t-30.5 -30l-7 7q20 26 53.5 47t63.5 21q64 0 64 -72q0 -33 -7 -73zM116 651q0 24 17.5 42t41.5 18t42 -18t18 -42t-18 -41.5t-42 -17.5
t-41.5 17.5t-17.5 41.5z" />
    <glyph glyph-name="k" unicode="k" horiz-adv-x="485" 
d="M448 69l7 -7q-19 -28 -50 -50t-61 -22q-74 0 -87 99q-14 104 -22.5 138t-25.5 50q-21 -3 -45 -12l-40 -265h-77l77 571q4 32 4 41q0 31 -14 42t-62 16v10l179 18l4 -7q-26 -83 -70 -413q9 4 45 15q92 114 131 152.5t71 38.5q22 0 35.5 -14.5t13.5 -35.5
q0 -18 -14.5 -31.5t-32.5 -13.5q-20 0 -44 14t-30 14q-26 -16 -115 -125q53 -6 75 -39t41 -148q7 -46 16 -62.5t32 -16.5q25 0 59 43z" />
    <glyph glyph-name="l" unicode="l" horiz-adv-x="262" 
d="M64 148l60 433q3 18 3 31q0 28 -16 41.5t-59 18.5l1 10l170 16l9 -10q-26 -87 -55 -302l-31 -233q-8 -53 -8 -81q0 -26 6.5 -38t24.5 -12q27 0 60 43l7 -7q-53 -68 -107 -68q-37 0 -55.5 20.5t-18.5 51.5q0 28 9 86z" />
    <glyph glyph-name="m" unicode="m" horiz-adv-x="765" 
d="M573 136l26 179q5 35 5 61q0 95 -44 95q-42 0 -76 -47t-53 -117l-39 -307h-87l46 314q6 42 6 60q0 97 -45 97q-42 0 -76 -46t-53 -115l-40 -310h-87l47 321q7 47 7 81q0 50 -30 50q-10 0 -29 -13.5t-31 -29.5l-7 7q20 26 53.5 47t63.5 21q62 0 62 -115q52 115 124 115
q52 0 83.5 -31.5t36.5 -91.5q55 123 128 123q51 0 85.5 -31.5t34.5 -86.5q0 -25 -4 -55l-23 -158q-8 -51 -8 -81q0 -50 32 -50q27 0 60 43l7 -7q-53 -68 -107 -68q-38 0 -57 21t-19 53q0 19 8 72z" />
    <glyph glyph-name="n" unicode="n" horiz-adv-x="519" 
d="M58 0l45 321q7 47 7 81q0 50 -30 50q-10 0 -29 -13.5t-31 -29.5l-7 7q20 26 53.5 47t63.5 21q62 0 62 -115q52 115 124 115q51 0 86.5 -31.5t35.5 -86.5q0 -25 -4 -55l-21 -158q-8 -56 -8 -81q0 -26 6.5 -38t24.5 -12q27 0 60 43l7 -7q-53 -68 -107 -68q-37 0 -55.5 20.5
t-18.5 52.5q0 23 7 72l24 180q5 43 5 61q0 95 -46 95q-42 0 -76 -46t-53 -115l-40 -310h-85z" />
    <glyph glyph-name="o" unicode="o" horiz-adv-x="485" 
d="M267 484q79 0 125.5 -60t46.5 -142q0 -124 -62.5 -207t-160.5 -83q-79 0 -124.5 58t-45.5 140q0 121 63.5 207.5t157.5 86.5zM136 190q0 -82 21 -133.5t58 -51.5q40 0 72 44t47 106.5t15 126.5q0 85 -19.5 137t-60.5 52q-40 0 -71.5 -47t-46.5 -110.5t-15 -123.5z" />
    <glyph glyph-name="p" unicode="p" horiz-adv-x="507" 
d="M148 39l-16 -108q-5 -33 -5 -52q0 -31 13.5 -41t67.5 -15l1 -11l-218 -11l-1 8q26 21 37 41.5t21.5 72.5t26.5 179l30 239q5 40 5 61q0 25 -6 36.5t-24 11.5q-22 0 -60 -41l-9 6q21 26 55.5 47.5t63.5 21.5q40 0 51.5 -22t11.5 -89q25 53 55 82t79 29q63 0 98.5 -52
t35.5 -130q0 -123 -65.5 -217.5t-158.5 -94.5q-48 0 -89 49zM301 465q-42 0 -73 -51.5t-48 -122.5l-25 -202q7 -47 25.5 -66.5t54.5 -19.5q45 0 77.5 53.5t45.5 121t13 134.5q0 153 -70 153z" />
    <glyph glyph-name="q" unicode="q" horiz-adv-x="492" 
d="M209 19q38 0 68.5 49.5t46.5 118.5l26 197q-5 46 -20 66.5t-53 20.5q-45 0 -79 -54t-49 -122t-15 -129q0 -147 75 -147zM314 111q-53 -121 -138 -121q-61 0 -96.5 49.5t-35.5 126.5q0 133 67.5 225.5t165.5 92.5q31 0 48.5 -11.5t50.5 -48.5l70 59l11 -4
q-22 -70 -43 -225l-35 -270q-13 -106 -13 -117q0 -19 8 -29.5t33 -22.5v-12l-228 -7v11q27 10 39.5 15.5t27.5 21.5t20.5 29t15 51t15.5 74.5t17 112.5z" />
    <glyph glyph-name="r" unicode="r" horiz-adv-x="377" 
d="M319 355q-19 0 -33 13.5t-14 31.5q0 11 14.5 37.5t15.5 29.5q-3 3 -12 3q-34 0 -68 -68.5t-45 -150.5l-32 -251h-83l43 321q7 47 7 81q0 50 -30 50q-28 0 -60 -50l-7 7q20 29 53 52t63 23q63 0 63 -70q0 -29 -3 -56q48 126 104 126q31 0 54.5 -19.5t23.5 -48.5
q0 -25 -15.5 -43t-38.5 -18z" />
    <glyph glyph-name="s" unicode="s" horiz-adv-x="432" 
d="M237 484q55 0 101 -27.5t46 -67.5q0 -24 -12 -40t-34 -16q-20 0 -35 12.5t-18 32.5q0 17 5.5 45.5t5.5 34.5q-19 13 -60 13q-38 0 -63 -27t-25 -66q0 -31 18 -50.5t67 -41.5q79 -35 108.5 -63.5t29.5 -80.5q0 -68 -50 -110t-122 -42q-55 0 -105.5 29t-50.5 69
q0 25 16 44.5t38 19.5q21 0 35.5 -14.5t14.5 -35.5q0 -13 -11 -41t-12 -39q28 -19 75 -19q37 0 63 32t26 74q0 34 -20 52t-78 44q-65 29 -94.5 57.5t-29.5 76.5q0 60 53 102.5t118 42.5z" />
    <glyph glyph-name="t" unicode="t" horiz-adv-x="306" 
d="M76 166l41 296h-69v6q69 11 95 34.5t87 131.5l9 -3q-13 -39 -35 -157h117l-2 -12h-117l-41 -313q-7 -61 -7 -77q0 -54 45 -54q35 0 80 45l6 -8q-72 -65 -128 -65q-90 0 -90 87q0 28 9 89z" />
    <glyph glyph-name="u" unicode="u" horiz-adv-x="522" 
d="M448 476l-42 -323q-7 -47 -7 -81q0 -51 28 -51q29 0 60 44l8 -6q-49 -69 -110 -69q-37 0 -52.5 27.5t-15.5 88.5q-24 -54 -51 -85t-69 -31q-54 0 -87.5 32t-33.5 86q0 27 4 55l26 180q5 35 5 59q0 50 -24 50q-27 0 -60 -49l-7 7q20 31 53 52.5t67 21.5q54 0 54 -73
q0 -20 -8 -79l-27 -189q-3 -26 -3 -45q0 -41 11.5 -68t34.5 -27q41 0 73 45.5t51 115.5l41 312h81z" />
    <glyph glyph-name="v" unicode="v" horiz-adv-x="479" 
d="M404 330q-8 12 -43.5 41t-35.5 52q0 24 15.5 42.5t36.5 18.5q23 0 39 -24.5t16 -55.5q0 -50 -29.5 -146t-83.5 -182t-107 -86q-55 0 -88 30.5t-33 87.5q0 30 4 55l27 194q3 24 3 45q0 50 -24 50q-12 0 -30 -15.5t-30 -33.5l-7 7q52 74 110 74q31 0 47.5 -21t16.5 -52
q0 -26 -8 -79l-26 -189q-3 -26 -3 -45q0 -85 56 -85q37 0 76.5 59t64.5 129t36 129z" />
    <glyph glyph-name="w" unicode="w" horiz-adv-x="696" 
d="M371 476h80l-46 -333q-3 -21 -3 -45q0 -85 49 -85q36 0 73.5 59t61.5 128.5t35 129.5q-11 13 -32.5 28t-34 29.5t-12.5 35.5q0 24 15.5 42.5t36.5 18.5q23 0 39 -24.5t16 -55.5q0 -36 -17 -103t-44.5 -137.5t-69 -122t-84.5 -51.5q-58 0 -81.5 39t-23.5 115
q-45 -154 -122 -154q-52 0 -81.5 33t-29.5 85q0 30 4 55l26 194q3 24 3 45q0 50 -24 50q-12 0 -30 -15.5t-30 -33.5l-7 7q52 74 110 74q31 0 47.5 -21t16.5 -52q0 -37 -6 -77l-24 -152q-6 -38 -6 -84q0 -85 48 -85q38 0 73 79.5t50 195.5z" />
    <glyph glyph-name="x" unicode="x" horiz-adv-x="485" 
d="M433 67l7 -8q-55 -65 -115 -65q-23 0 -36 12t-29.5 53t-44.5 135l-46 -102q-45 -98 -91 -98q-21 0 -36.5 15.5t-15.5 35.5q0 18 15 35.5t31 17.5q13 0 36.5 -15t33.5 -15q6 7 14 23t26 55.5t28 60.5q-49 161 -65.5 204t-27.5 43t-31.5 -15.5t-29.5 -28.5l-8 9
q55 65 116 65q19 0 30 -10t29 -53t46 -137l45 102q22 50 43.5 74t51.5 24q23 0 36.5 -14.5t13.5 -37.5q0 -17 -15 -35.5t-32 -18.5q-14 0 -39 14.5t-34 15.5q-12 -18 -65 -137q52 -174 66.5 -210.5t31.5 -36.5q11 0 31 14.5t30 28.5z" />
    <glyph glyph-name="y" unicode="y" horiz-adv-x="464" 
d="M405 334q-8 10 -30 28t-36 33.5t-14 31.5q0 22 16.5 39.5t37.5 17.5q23 0 37.5 -23t14.5 -56q0 -76 -63.5 -199.5t-138.5 -227.5q-82 -114 -122.5 -148t-76.5 -34q-23 0 -39.5 15.5t-16.5 37.5q0 19 15 33t34 17q12 0 29 -8t36.5 -20.5t24.5 -14.5q20 20 50.5 57t45.5 61
l-83 362q-15 67 -24.5 91.5t-20.5 24.5q-27 0 -60 -49l-7 7q52 74 110 74q33 0 49.5 -24.5t33.5 -102.5l63 -292h4q88 141 131 269z" />
    <glyph glyph-name="z" unicode="z" horiz-adv-x="448" 
d="M56 351l-9 6q20 33 31.5 50t29 38.5t35 30.5t36.5 9q30 0 83 -20t73 -20q37 0 87 44l8 -7q-89 -124 -253 -302q-48 -51 -104 -133l2 -2q68 55 108 55q20 0 65.5 -16.5t60.5 -16.5q54 0 102 59l8 -6q-30 -54 -67 -90t-68 -36q-40 0 -89.5 24t-70.5 24q-17 0 -44 -15
t-44 -32l-10 7q8 14 52.5 75.5t51.5 69.5q2 2 56.5 62t104.5 117.5t87 106.5l-2 1q-56 -47 -93 -47q-19 0 -60 10t-56 10q-37 0 -61 -12t-50 -44z" />
    <glyph glyph-name="braceleft" unicode="{" horiz-adv-x="324" 
d="M289 -89l-2 -11q-100 3 -138 14t-38 47q0 32 23 148.5t23 143.5q0 37 -20.5 53t-79.5 16h-10l1 10h10q111 0 122 90q4 28 7.5 120t6.5 122q3 25 13 41t22.5 25.5t40 14.5t51.5 7t71 3l-1 -11q-65 -5 -85 -23.5t-29 -87.5q-3 -29 -10 -110.5t-11 -110.5q-5 -45 -31.5 -60
t-86.5 -23q51 -6 74 -21t23 -48q0 -28 -17 -142t-17 -144q0 -36 13.5 -46.5t74.5 -16.5z" />
    <glyph glyph-name="bar" unicode="|" horiz-adv-x="220" 
d="M120 -220h-20v1000h20v-1000z" />
    <glyph glyph-name="braceright" unicode="}" horiz-adv-x="324" 
d="M61 744l2 11q100 -3 138 -14t38 -47q0 -32 -23 -148.5t-23 -143.5q0 -37 20.5 -53t79.5 -16h10l-1 -10h-10q-111 0 -122 -90q-4 -28 -7.5 -120t-6.5 -122q-3 -25 -13 -41t-22.5 -25.5t-40 -14.5t-51.5 -7t-71 -3l1 11q65 5 85 23.5t29 87.5q3 29 10 110.5t11 110.5
q5 45 31.5 60t86.5 23q-51 6 -74 21t-23 48q0 28 17 142t17 144q0 36 -13.5 46.5t-74.5 16.5z" />
    <glyph glyph-name="asciitilde" unicode="~" 
d="M424 307l18 -4q-14 -48 -33 -72t-58 -24q-32 0 -103 30t-93 30q-29 0 -45 -18t-28 -58l-18 7q14 46 34.5 67.5t56.5 21.5q28 0 97.5 -29.5t98.5 -29.5q17 0 29 5t20.5 18t12.5 24t11 32z" />
    <glyph glyph-name="exclamdown" unicode="&#xa1;" horiz-adv-x="295" 
d="M125 -226q-25 0 -41.5 18t-16.5 47q0 18 26.5 126.5t52.5 207.5l27 99l7 -2q3 -395 3 -431q0 -29 -16.5 -47t-41.5 -18zM258 423q0 -25 -18.5 -43t-43.5 -18t-43.5 18t-18.5 43t18.5 43.5t43.5 18.5q26 0 44 -18.5t18 -43.5z" />
    <glyph glyph-name="cent" unicode="&#xa2;" horiz-adv-x="412" 
d="M231 -129h-24l3 111q-87 5 -133 55.5t-46 146.5q0 112 64.5 201.5t155.5 94.5l-5 113h25l-4 -113q50 -5 88.5 -33t38.5 -70q0 -23 -14 -41.5t-34 -18.5q-19 0 -34.5 16t-15.5 35q0 20 13 45t13 35q-26 19 -64 19q-62 0 -100 -81t-38 -183q0 -76 30 -134.5t88 -58.5
q38 0 62 18t53 58l12 -8q-52 -79 -137 -96z" />
    <glyph glyph-name="sterling" unicode="&#xa3;" horiz-adv-x="499" 
d="M86 330v19h79q-21 65 -21 118q0 72 59.5 127t146.5 55q61 0 116.5 -33.5t55.5 -87.5q0 -25 -17.5 -43t-40.5 -18q-18 0 -34 18t-16 38q0 22 13 51t13 38q-29 20 -93 20q-57 0 -84 -43.5t-27 -109.5q0 -52 25 -130h160v-19h-153q22 -75 22 -112q0 -95 -133 -160v-2
q126 -3 219 -3q45 0 72 23t44 86l13 -2q-13 -90 -46 -140.5t-74 -50.5q-31 0 -128 25.5t-111 25.5t-40.5 -5t-46.5 -10l-20 -5l-3 14q98 40 130 74.5t32 107.5q0 67 -25 134h-87z" />
    <glyph glyph-name="yen" unicode="&#xa5;" horiz-adv-x="573" 
d="M0 620v12h233v-12q-45 -1 -54 -14.5t10 -44.5l138 -239l117 226q21 41 7.5 56t-74.5 16v12h188v-12q-43 -2 -62 -16t-42 -58l-122 -234h166v-15h-168v-94h170v-15h-170v-51q0 -72 15.5 -96.5t69.5 -28.5v-12h-255v12q55 4 70.5 28.5t15.5 96.5v51h-168v15h168v94h-170v15
h158l-139 235q-25 42 -45 57t-57 16z" />
    <glyph glyph-name="brokenbar" unicode="&#xa6;" horiz-adv-x="220" 
d="M120 -220h-20v361h20v-361zM120 780v-365h-20v365h20z" />
    <glyph glyph-name="section" unicode="&#xa7;" 
d="M158 -21q0 -13 -11 -44t-12 -36q19 -21 78 -21q53 0 84 36.5t31 94.5q0 39 -30 71.5t-87 67.5q-70 43 -102 77.5t-32 82.5q0 45 31.5 83t79.5 63q-49 44 -49 106q0 72 58.5 120t132.5 48q55 0 101 -27.5t46 -67.5q0 -24 -12 -40t-34 -16q-21 0 -37 13t-16 32
q0 17 5.5 45.5t5.5 34.5q-19 13 -60 13q-47 0 -82.5 -32.5t-35.5 -82.5q0 -42 24 -73.5t109 -93.5q75 -54 99 -84.5t24 -75.5q0 -87 -107 -138q43 -41 43 -94q0 -72 -55.5 -124t-134.5 -52q-54 0 -106.5 30t-52.5 70q0 24 16.5 44t37.5 20q18 0 32 -15.5t18 -34.5zM296 366
q-60 41 -97 77q-47 -32 -47 -99q0 -35 26.5 -64.5t78.5 -63.5q57 -38 92 -70q53 32 53 95q0 35 -23 59.5t-83 65.5z" />
    <glyph glyph-name="dieresis" unicode="&#xa8;" horiz-adv-x="421" 
d="M97 717q26 0 43 -15.5t17 -41.5t-17.5 -42t-42.5 -16t-42.5 16t-17.5 42t17 41.5t43 15.5zM315 717q26 0 42.5 -15.5t16.5 -41.5t-17 -42t-42 -16q-26 0 -43.5 16t-17.5 42t17.5 41.5t43.5 15.5z" />
    <glyph glyph-name="copyright" unicode="&#xa9;" horiz-adv-x="804" 
d="M759 342q0 -151 -103 -254t-254 -103t-254 103t-103 254t103 254t254 103t254 -103t103 -254zM742 342q0 150 -95.5 246.5t-244.5 96.5q-150 0 -245 -96.5t-95 -246.5t95 -246.5t245 -96.5q149 0 244.5 96.5t95.5 246.5zM535 227l11 -8q-26 -36 -63.5 -60t-77.5 -24
q-92 0 -141.5 57.5t-49.5 150.5q0 83 57 147t130 64q58 0 105 -29.5t47 -71.5q0 -19 -9 -31.5t-24 -12.5q-14 0 -25 12.5t-13 27.5q-7 35 -12.5 51t-22 28.5t-46.5 12.5q-59 0 -86.5 -48t-27.5 -126q0 -85 31 -150t94 -65q34 0 67 20.5t56 54.5z" />
    <glyph glyph-name="ordfeminine" unicode="&#xaa;" horiz-adv-x="450" 
d="M426 349q-43 -46 -84 -46q-34 0 -46.5 19.5t-12.5 56.5q-24 -39 -47.5 -58.5t-56.5 -19.5q-41 0 -68 36t-27 89q0 87 52 154t119 67q42 0 71 -56l73 57l8 -3l-28 -93l-21 -147q-6 -44 -6 -49q0 -9 5 -16.5t11 -7.5q25 0 50 27zM393 231l-2 -12h-333l2 12h333zM306 549
q0 44 -11 65t-42 21q-40 0 -66 -60t-26 -132q0 -40 9.5 -77t32.5 -37q60 0 89 110l6 49q8 44 8 61z" />
    <glyph glyph-name="guillemotleft" unicode="&#xab;" horiz-adv-x="554" 
d="M484 23l-7 -8q-142 153 -217 205v16q133 92 237 205l7 -6q-71 -125 -154 -208q10 -10 20 -21.5t20 -26t17 -24.5t19 -30.5t17.5 -29.5t20 -35.5t20.5 -36.5zM276 22l-8 -7q-129 146 -218 208v13q139 97 238 205l8 -7q-61 -110 -155 -204q29 -29 72 -103.5t63 -104.5z" />
    <glyph glyph-name="registered" unicode="&#xae;" horiz-adv-x="804" 
d="M628 160l2 -13q-22 -10 -51 -10q-42 0 -70.5 17t-54.5 56l-74 114h-38v-84q0 -51 9.5 -64.5t48.5 -16.5v-14h-185v14q37 3 47.5 16t10.5 63v227q0 42 -10.5 54t-47.5 15v16h166q166 0 166 -110q0 -80 -103 -109l78 -113q25 -37 46 -47.5t60 -10.5zM473 433q0 100 -93 100
h-38v-192h38q44 0 68.5 25t24.5 67zM759 342q0 -151 -103 -254t-254 -103t-254 103t-103 254t103 254t254 103t254 -103t103 -254zM742 342q0 150 -95.5 246.5t-244.5 96.5q-150 0 -245 -96.5t-95 -246.5t95 -246.5t245 -96.5q149 0 244.5 96.5t95.5 246.5z" />
    <glyph glyph-name="degree" unicode="&#xb0;" horiz-adv-x="298" 
d="M149 620q46 0 77.5 -32.5t31.5 -76.5q0 -47 -31 -78t-78 -31q-44 0 -76.5 31.5t-32.5 77.5q0 44 31.5 76.5t77.5 32.5zM149 602q-40 0 -64.5 -26t-24.5 -65t24.5 -65t64.5 -26t64.5 25.5t24.5 65.5t-24.5 65.5t-64.5 25.5z" />
    <glyph glyph-name="plusminus" unicode="&#xb1;" horiz-adv-x="489" 
d="M445 41h-390v18h390v-18zM445 296h-185v-184h-20v184h-185v19h185v185h20v-185h185v-19z" />
    <glyph glyph-name="twosuperior" unicode="&#xb2;" 
d="M407 544l-27 -123h-270v12q19 18 62.5 55.5t66.5 60.5q71 72 71 179q0 108 -56 108q-46 0 -60 -18q0 -7 8.5 -36t8.5 -38q0 -16 -14.5 -31.5t-30.5 -15.5q-17 0 -32 16.5t-15 35.5q0 31 45.5 65t90.5 34q53 0 92.5 -34.5t39.5 -86.5q0 -51 -32.5 -90t-110.5 -103l-68 -57
h149q27 0 43 15t29 53z" />
    <glyph glyph-name="threesuperior" unicode="&#xb3;" 
d="M403 543q0 -58 -51 -93.5t-117 -35.5q-42 0 -84 28t-42 59q0 19 13.5 37t30.5 18t28.5 -12.5t11.5 -30.5q0 -10 -8 -34t-9 -31q20 -19 59 -19q45 0 69.5 31.5t24.5 88.5q0 38 -18 58t-50 20q-15 0 -55 -9l-4 13q56 11 81 37t25 71q0 95 -60 95q-19 0 -42 -8t-31 -18
q0 -5 10.5 -29t10.5 -37q0 -14 -13 -27.5t-26 -13.5q-15 0 -29 14t-14 30q0 37 46.5 70t89.5 33q58 0 94.5 -25.5t36.5 -76.5q0 -37 -30 -64.5t-78 -42.5q8 2 16 2q44 0 79 -24t35 -74z" />
    <glyph glyph-name="acute" unicode="&#xb4;" horiz-adv-x="444" 
d="M103 576l-5 7l109 162q23 30 53 30q16 0 27.5 -11.5t11.5 -27.5q0 -32 -26 -50z" />
    <glyph glyph-name="mu" unicode="&#xb5;" horiz-adv-x="627" 
d="M496 476l5 -4q-6 -40 -6 -293v-87q0 -75 28 -75q31 0 46 58l12 -2q-14 -44 -34 -64.5t-62 -20.5q-31 0 -50 24.5t-24 65.5q-20 -41 -56 -68.5t-79 -27.5q-50 0 -78.5 18.5t-47.5 57.5q-1 1 -2 0.5t-3 -1t-3 -0.5q7 -71 24 -123t30 -81.5t13 -50.5q0 -22 -11.5 -38
t-34.5 -16q-19 0 -31 15t-12 36q0 12 5 93t5 112v366q0 47 -15 62.5t-65 17.5v9l165 20l3 -4q-4 -38 -4 -332q0 -50 21 -90.5t60 -40.5q41 0 71.5 27t43.5 69v262q0 47 -15 62.5t-66 17.5v9z" />
    <glyph glyph-name="mu" unicode="&#x3bc;" horiz-adv-x="627" 
d="M496 476l5 -4q-6 -40 -6 -293v-87q0 -75 28 -75q31 0 46 58l12 -2q-14 -44 -34 -64.5t-62 -20.5q-31 0 -50 24.5t-24 65.5q-20 -41 -56 -68.5t-79 -27.5q-50 0 -78.5 18.5t-47.5 57.5q-1 1 -2 0.5t-3 -1t-3 -0.5q7 -71 24 -123t30 -81.5t13 -50.5q0 -22 -11.5 -38
t-34.5 -16q-19 0 -31 15t-12 36q0 12 5 93t5 112v366q0 47 -15 62.5t-65 17.5v9l165 20l3 -4q-4 -38 -4 -332q0 -50 21 -90.5t60 -40.5q41 0 71.5 27t43.5 69v262q0 47 -15 62.5t-66 17.5v9z" />
    <glyph glyph-name="paragraph" unicode="&#xb6;" horiz-adv-x="514" 
d="M422 0v653h-156v-653h-17v257q-78 0 -143.5 53.5t-65.5 148.5q0 93 66 150.5t143 57.5h255v-14h-65v-653h-17z" />
    <glyph glyph-name="periodcentered" unicode="&#xb7;" horiz-adv-x="214" 
d="M45 257q0 25 18.5 43t43.5 18t43.5 -18t18.5 -43t-18.5 -43.5t-43.5 -18.5t-43.5 18.5t-18.5 43.5z" />
    <glyph glyph-name="cedilla" unicode="&#xb8;" horiz-adv-x="833" 
d="M382 -137q0 -35 -32 -60.5t-71 -36t-75 -10.5q-31 0 -52 12t-21 31q0 20 15 35t33 15q17 0 37 -36.5t28 -40.5q64 4 64 56q0 54 -112 60l-4 11l60 98h19l-46 -61q157 -5 157 -73z" />
    <glyph glyph-name="onesuperior" unicode="&#xb9;" 
d="M329 421h-222v12q52 2 67 14t15 38v181q0 52 5 94q-41 0 -83 21l4 9q21 -5 46 -5q28 0 56 16.5t43 43.5l11 -3q-12 -60 -12 -106v-252q0 -18 3 -26.5t19 -16t48 -8.5v-12z" />
    <glyph glyph-name="ordmasculine" unicode="&#xba;" horiz-adv-x="440" 
d="M415 501q0 -80 -55.5 -143t-132.5 -63q-63 0 -103.5 43.5t-40.5 107.5q0 80 51.5 141t127.5 61q64 0 108.5 -42t44.5 -105zM230 307q45 0 75 67.5t30 127.5q0 134 -74 134q-40 0 -69 -63.5t-29 -121.5q0 -144 67 -144zM393 231l-2 -12h-333l2 12h333z" />
    <glyph glyph-name="guillemotright" unicode="&#xbb;" horiz-adv-x="554" 
d="M57 15l-7 8q65 115 154 204q-72 72 -134 208l7 6q139 -151 217 -205v-16q-128 -90 -237 -205zM266 15l-8 7q6 9 22 32.5t21.5 31.5t19 27.5t19.5 28t17.5 23.5t19 24.5t17.5 20.5t19 20q-53 53 -135 204l8 7q130 -144 218 -205v-13q-138 -96 -238 -208z" />
    <glyph glyph-name="onequarter" unicode="&#xbc;" horiz-adv-x="653" 
d="M439 421h-222v12q52 2 67 14t15 38v181q0 52 5 94q-41 0 -83 21l4 9q21 -5 46 -5q28 0 56 16.5t43 43.5l11 -3q-12 -60 -12 -106v-252q0 -18 3 -26.5t19 -16t48 -8.5v-12zM488 -120v-18h-91v-110h-78v110h-160l-3 16l220 324h21v-322h91zM319 -120v211l-141 -211h141z
M86 277v17l245 23l253 32v-16l-252 -29z" />
    <glyph glyph-name="onehalf" unicode="&#xbd;" horiz-adv-x="653" 
d="M62 233v27l529 119v-26zM439 421h-222v12q52 2 67 14t15 38v181q0 52 5 94q-41 0 -83 21l4 9q21 -5 46 -5q28 0 56 16.5t43 43.5l11 -3q-12 -60 -12 -106v-252q0 -18 3 -26.5t19 -16t48 -8.5v-12zM493 -109l-27 -123h-270v12q19 18 62.5 55.5t66.5 60.5q71 72 71 179
q0 108 -56 108q-46 0 -60 -18q0 -7 8.5 -36t8.5 -38q0 -16 -14.5 -31.5t-30.5 -15.5q-17 0 -32 16.5t-15 35.5q0 31 45.5 65t90.5 34q53 0 92.5 -34.5t39.5 -86.5q0 -51 -32.5 -90t-110.5 -103l-68 -57h149q27 0 43 15t29 53z" />
    <glyph glyph-name="threequarters" unicode="&#xbe;" horiz-adv-x="653" 
d="M82 233v27l529 119v-26zM463 543q0 -58 -51 -93.5t-117 -35.5q-42 0 -84 28t-42 59q0 19 13.5 37t30.5 18t28.5 -12.5t11.5 -30.5q0 -10 -8 -34t-9 -31q20 -19 59 -19q45 0 69.5 31.5t24.5 88.5q0 38 -18 58t-50 20q-15 0 -55 -9l-4 13q56 11 81 37t25 71q0 95 -60 95
q-19 0 -42 -8t-31 -18q0 -5 10.5 -29t10.5 -37q0 -14 -13 -27.5t-26 -13.5q-15 0 -29 14t-14 30q0 37 46.5 70t89.5 33q58 0 94.5 -25.5t36.5 -76.5q0 -37 -30 -64.5t-78 -42.5q8 2 16 2q44 0 79 -24t35 -74zM518 -120v-18h-91v-110h-78v110h-160l-3 16l220 324h21v-322h91z
M349 -120v211l-141 -211h141z" />
    <glyph glyph-name="questiondown" unicode="&#xbf;" horiz-adv-x="359" 
d="M256 230q0 15 -3 33l13 6q10 -22 10 -49q0 -28 -19 -56t-46 -52.5t-54.5 -51.5t-46.5 -64.5t-19 -80.5q0 -52 22 -83t66 -31q60 0 87 27q4 9 5.5 22.5t4 36.5t6.5 45q4 21 19 36t35 15t31.5 -16.5t11.5 -38.5q0 -51 -69.5 -96t-132.5 -45q-75 0 -125 39.5t-50 112.5
q0 50 26 92t63.5 69.5t75 49.5t63.5 42t26 38zM318 423q0 -25 -18.5 -43t-43.5 -18t-43.5 18t-18.5 43t18.5 43.5t43.5 18.5q26 0 44 -18.5t18 -43.5z" />
    <glyph glyph-name="Agrave" unicode="&#xc0;" horiz-adv-x="583" 
d="M390 133l-20 87h-231l-36 -75q-13 -28 -20 -44.5t-13 -32t-3.5 -23.5t5.5 -14.5t15.5 -9.5t25.5 -4.5t37 -3.5l-1 -13h-194l1 13q53 6 72 25t59 107l244 537h23l123 -543q18 -80 35 -100.5t71 -25.5l-1 -13h-258l1 13q26 2 38.5 3t24 7.5t14 10.5t2.5 21.5t-3 31
t-11 46.5zM296 570l-150 -335h221zM378 766l-7 -10l-171 112q-24 15 -24 48q0 16 12.5 27.5t28.5 11.5q29 0 51 -28z" />
    <glyph glyph-name="Aacute" unicode="&#xc1;" horiz-adv-x="583" 
d="M390 133l-20 87h-231l-36 -75q-13 -28 -20 -44.5t-13 -32t-3.5 -23.5t5.5 -14.5t15.5 -9.5t25.5 -4.5t37 -3.5l-1 -13h-194l1 13q53 6 72 25t59 107l244 537h23l123 -543q18 -80 35 -100.5t71 -25.5l-1 -13h-258l1 13q26 2 38.5 3t24 7.5t14 10.5t2.5 21.5t-3 31
t-11 46.5zM296 570l-150 -335h221zM290 757l-5 7l109 162q23 30 53 30q16 0 27.5 -11.5t11.5 -27.5q0 -32 -26 -50z" />
    <glyph glyph-name="Acircumflex" unicode="&#xc2;" horiz-adv-x="583" 
d="M390 133l-20 87h-231l-36 -75q-13 -28 -20 -44.5t-13 -32t-3.5 -23.5t5.5 -14.5t15.5 -9.5t25.5 -4.5t37 -3.5l-1 -13h-194l1 13q53 6 72 25t59 107l244 537h23l123 -543q18 -80 35 -100.5t71 -25.5l-1 -13h-258l1 13q26 2 38.5 3t24 7.5t14 10.5t2.5 21.5t-3 31
t-11 46.5zM296 570l-150 -335h221zM357 934l128 -152l-8 -11l-139 73l-159 -83l-7 11l173 162h12z" />
    <glyph glyph-name="Atilde" unicode="&#xc3;" horiz-adv-x="583" 
d="M390 133l-20 87h-231l-36 -75q-13 -28 -20 -44.5t-13 -32t-3.5 -23.5t5.5 -14.5t15.5 -9.5t25.5 -4.5t37 -3.5l-1 -13h-194l1 13q53 6 72 25t59 107l244 537h23l123 -543q18 -80 35 -100.5t71 -25.5l-1 -13h-258l1 13q26 2 38.5 3t24 7.5t14 10.5t2.5 21.5t-3 31
t-11 46.5zM296 570l-150 -335h221zM509 923l10 -4q-38 -126 -104 -126q-27 0 -75 22.5t-73 22.5q-44 0 -70 -51l-12 5q22 64 45.5 90.5t59.5 26.5q28 0 75 -23t73 -23q40 0 71 60z" />
    <glyph glyph-name="Adieresis" unicode="&#xc4;" horiz-adv-x="583" 
d="M390 133l-20 87h-231l-36 -75q-13 -28 -20 -44.5t-13 -32t-3.5 -23.5t5.5 -14.5t15.5 -9.5t25.5 -4.5t37 -3.5l-1 -13h-194l1 13q53 6 72 25t59 107l244 537h23l123 -543q18 -80 35 -100.5t71 -25.5l-1 -13h-258l1 13q26 2 38.5 3t24 7.5t14 10.5t2.5 21.5t-3 31
t-11 46.5zM296 570l-150 -335h221zM234 904q26 0 43 -15.5t17 -41.5t-17.5 -42t-42.5 -16t-42.5 16t-17.5 42t17 41.5t43 15.5zM452 904q26 0 42.5 -15.5t16.5 -41.5t-17 -42t-42 -16q-26 0 -43.5 16t-17.5 42t17.5 41.5t43.5 15.5z" />
    <glyph glyph-name="Aring" unicode="&#xc5;" horiz-adv-x="583" 
d="M390 133l-20 87h-231l-36 -75q-13 -28 -20 -44.5t-13 -32t-3.5 -23.5t5.5 -14.5t15.5 -9.5t25.5 -4.5t37 -3.5l-1 -13h-194l1 13q53 6 72 25t59 107l244 537h23l123 -543q18 -80 35 -100.5t71 -25.5l-1 -13h-258l1 13q26 2 38.5 3t24 7.5t14 10.5t2.5 21.5t-3 31
t-11 46.5zM296 570l-150 -335h221zM462 823q0 -44 -32.5 -76t-76.5 -32q-43 0 -76.5 32.5t-33.5 75.5q0 40 33.5 71.5t76.5 31.5q44 0 76.5 -31t32.5 -72zM442 823q0 34 -25.5 60.5t-63.5 26.5t-62.5 -26.5t-24.5 -60.5q0 -36 24.5 -63.5t62.5 -27.5t63.5 27.5t25.5 63.5z
" />
    <glyph glyph-name="AE" unicode="&#xc6;" horiz-adv-x="864" 
d="M763 443h15l-28 -228h-15q2 69 -11.5 92t-59.5 23h-93l-25 -201q-7 -57 7 -83.5t63 -26.5h72q63 0 92 39.5t52 132.5h15l-23 -191h-469l1 13q54 5 74 30.5t30 103.5l9 73h-231l-50 -75q-26 -40 -31.5 -66t10.5 -39t37.5 -18.5t59.5 -8.5l-1 -13h-263l1 13q58 7 84 27
t82 105l343 522h387l-22 -181h-15q0 90 -19 126t-83 36h-148l-37 -300h93q47 0 65 17.5t32 77.5zM471 238l50 410l-272 -410h222z" />
    <glyph glyph-name="Ccedilla" unicode="&#xc7;" horiz-adv-x="518" 
d="M397 -137q0 -35 -32 -60.5t-71 -36t-75 -10.5q-31 0 -52 12t-21 31q0 20 15 35t33 15q17 0 37 -36.5t28 -40.5q64 4 64 56q0 54 -112 60l-4 11l50 82q-104 2 -160.5 81.5t-56.5 208.5q0 105 38.5 198.5t107.5 151.5t152 58q73 0 126 -41t53 -97q0 -24 -17.5 -47
t-39.5 -23t-39 17.5t-17 40.5q0 19 14.5 56.5t14.5 52.5q-33 27 -97 27q-50 0 -89 -35t-61 -91.5t-33 -121t-11 -132.5q0 -74 13 -133t46.5 -100t82.5 -41q61 0 98.5 28.5t83.5 93.5l10 -8q-44 -67 -91.5 -103.5t-110.5 -39.5l-34 -46q157 -5 157 -73z" />
    <glyph glyph-name="Egrave" unicode="&#xc8;" horiz-adv-x="554" 
d="M431 443h15l-28 -228h-15q2 70 -11.5 93.5t-59.5 23.5h-93l-25 -206q-7 -56 6.5 -83t62.5 -27h72q63 0 92.5 40.5t52.5 134.5h15l-23 -191h-469l1 13q54 5 74 30.5t30 103.5l51 419q6 50 -9 66t-70 22l1 13h464l-22 -181h-15q-1 92 -19.5 128.5t-82.5 36.5h-148l-37 -303
h93q47 0 65 17.5t32 77.5zM398 766l-7 -10l-171 112q-24 15 -24 48q0 16 12.5 27.5t28.5 11.5q29 0 51 -28z" />
    <glyph glyph-name="Eacute" unicode="&#xc9;" horiz-adv-x="554" 
d="M431 443h15l-28 -228h-15q2 70 -11.5 93.5t-59.5 23.5h-93l-25 -206q-7 -56 6.5 -83t62.5 -27h72q63 0 92.5 40.5t52.5 134.5h15l-23 -191h-469l1 13q54 5 74 30.5t30 103.5l51 419q6 50 -9 66t-70 22l1 13h464l-22 -181h-15q-1 92 -19.5 128.5t-82.5 36.5h-148l-37 -303
h93q47 0 65 17.5t32 77.5zM341 757l-5 7l109 162q23 30 53 30q16 0 27.5 -11.5t11.5 -27.5q0 -32 -26 -50z" />
    <glyph glyph-name="Ecircumflex" unicode="&#xca;" horiz-adv-x="554" 
d="M431 443h15l-28 -228h-15q2 70 -11.5 93.5t-59.5 23.5h-93l-25 -206q-7 -56 6.5 -83t62.5 -27h72q63 0 92.5 40.5t52.5 134.5h15l-23 -191h-469l1 13q54 5 74 30.5t30 103.5l51 419q6 50 -9 66t-70 22l1 13h464l-22 -181h-15q-1 92 -19.5 128.5t-82.5 36.5h-148l-37 -303
h93q47 0 65 17.5t32 77.5zM387 934l128 -152l-8 -11l-139 73l-159 -83l-7 11l173 162h12z" />
    <glyph glyph-name="Edieresis" unicode="&#xcb;" horiz-adv-x="554" 
d="M431 443h15l-28 -228h-15q2 70 -11.5 93.5t-59.5 23.5h-93l-25 -206q-7 -56 6.5 -83t62.5 -27h72q63 0 92.5 40.5t52.5 134.5h15l-23 -191h-469l1 13q54 5 74 30.5t30 103.5l51 419q6 50 -9 66t-70 22l1 13h464l-22 -181h-15q-1 92 -19.5 128.5t-82.5 36.5h-148l-37 -303
h93q47 0 65 17.5t32 77.5zM233 904q26 0 43 -15.5t17 -41.5t-17.5 -42t-42.5 -16t-42.5 16t-17.5 42t17 41.5t43 15.5zM451 904q26 0 42.5 -15.5t16.5 -41.5t-17 -42t-42 -16q-26 0 -43.5 16t-17.5 42t17.5 41.5t43.5 15.5z" />
    <glyph glyph-name="Igrave" unicode="&#xcc;" horiz-adv-x="272" 
d="M327 654q-62 -5 -80 -27t-28 -107l-45 -373q-10 -85 2.5 -107t72.5 -27l-1 -13h-270l1 13q61 5 78.5 26.5t27.5 107.5l45 373q10 86 -1.5 107.5t-70.5 26.5l1 13h269zM230 766l-7 -10l-171 112q-24 15 -24 48q0 16 12.5 27.5t28.5 11.5q29 0 51 -28z" />
    <glyph glyph-name="Iacute" unicode="&#xcd;" horiz-adv-x="272" 
d="M327 654q-62 -5 -80 -27t-28 -107l-45 -373q-10 -85 2.5 -107t72.5 -27l-1 -13h-270l1 13q61 5 78.5 26.5t27.5 107.5l45 373q10 86 -1.5 107.5t-70.5 26.5l1 13h269zM141 763l-5 7l109 162q23 30 53 30q16 0 27.5 -11.5t11.5 -27.5q0 -32 -26 -50z" />
    <glyph glyph-name="Icircumflex" unicode="&#xce;" horiz-adv-x="272" 
d="M327 654q-62 -5 -80 -27t-28 -107l-45 -373q-10 -85 2.5 -107t72.5 -27l-1 -13h-270l1 13q61 5 78.5 26.5t27.5 107.5l45 373q10 86 -1.5 107.5t-70.5 26.5l1 13h269zM226 934l128 -152l-8 -11l-139 73l-159 -83l-7 11l173 162h12z" />
    <glyph glyph-name="Idieresis" unicode="&#xcf;" horiz-adv-x="272" 
d="M327 654q-62 -5 -80 -27t-28 -107l-45 -373q-10 -85 2.5 -107t72.5 -27l-1 -13h-270l1 13q61 5 78.5 26.5t27.5 107.5l45 373q10 86 -1.5 107.5t-70.5 26.5l1 13h269zM101 904q26 0 43 -15.5t17 -41.5t-17.5 -42t-42.5 -16t-42.5 16t-17.5 42t17 41.5t43 15.5zM319 904
q26 0 42.5 -15.5t16.5 -41.5t-17 -42t-42 -16q-26 0 -43.5 16t-17.5 42t17.5 41.5t43.5 15.5z" />
    <glyph glyph-name="Eth" unicode="&#xd0;" horiz-adv-x="659" 
d="M69 341l2 16h82l20 163q10 80 -2.5 104.5t-70.5 29.5l1 13h249q132 0 208.5 -75t76.5 -198q0 -98 -39.5 -186.5t-120.5 -148t-186 -59.5h-265l1 13q56 5 74.5 29.5t28.5 104.5l23 194h-82zM278 651l-36 -294h151l-1 -16h-152l-23 -193q-10 -76 1.5 -104t61.5 -28h10
q85 0 142 55t80.5 137t23.5 184q0 55 -9.5 100t-30.5 81.5t-59 57t-89 20.5h-70z" />
    <glyph glyph-name="Ntilde" unicode="&#xd1;" horiz-adv-x="654" 
d="M583 535l-66 -543l-21 -1l-332 618l-58 -474q-9 -74 4.5 -94.5t81.5 -27.5l-1 -13h-208l1 13q61 6 78 27t26 92l49 400q9 75 -2.5 95t-72.5 26l1 14h182l274 -512l46 377q9 73 -6 95.5t-81 26.5l1 13h205l-1 -13q-58 -5 -74.5 -26.5t-25.5 -92.5zM566 933l10 -4
q-38 -126 -104 -126q-27 0 -75 22.5t-73 22.5q-44 0 -70 -51l-12 5q22 64 45.5 90.5t59.5 26.5q29 0 76 -23t72 -23q39 0 71 60z" />
    <glyph glyph-name="Ograve" unicode="&#xd2;" horiz-adv-x="653" 
d="M356 679q109 0 183 -86.5t74 -208.5q0 -73 -21 -144t-59.5 -129t-99 -94t-132.5 -36q-115 0 -188 85.5t-73 208.5q0 103 40 195.5t113.5 150.5t162.5 58zM355 664q-59 0 -103.5 -39t-68 -102t-34.5 -130t-11 -136q0 -107 43 -184t121 -77q64 0 108.5 41.5t66 111t30 136
t8.5 139.5q0 101 -40 170.5t-120 69.5zM382 766l-7 -10l-171 112q-24 15 -24 48q0 16 12.5 27.5t28.5 11.5q29 0 51 -28z" />
    <glyph glyph-name="Oacute" unicode="&#xd3;" horiz-adv-x="653" 
d="M356 679q109 0 183 -86.5t74 -208.5q0 -73 -21 -144t-59.5 -129t-99 -94t-132.5 -36q-115 0 -188 85.5t-73 208.5q0 103 40 195.5t113.5 150.5t162.5 58zM355 664q-59 0 -103.5 -39t-68 -102t-34.5 -130t-11 -136q0 -107 43 -184t121 -77q64 0 108.5 41.5t66 111t30 136
t8.5 139.5q0 101 -40 170.5t-120 69.5zM330 763l-5 7l109 162q23 30 53 30q16 0 27.5 -11.5t11.5 -27.5q0 -32 -26 -50z" />
    <glyph glyph-name="Ocircumflex" unicode="&#xd4;" horiz-adv-x="653" 
d="M356 679q109 0 183 -86.5t74 -208.5q0 -73 -21 -144t-59.5 -129t-99 -94t-132.5 -36q-115 0 -188 85.5t-73 208.5q0 103 40 195.5t113.5 150.5t162.5 58zM355 664q-59 0 -103.5 -39t-68 -102t-34.5 -130t-11 -136q0 -107 43 -184t121 -77q64 0 108.5 41.5t66 111t30 136
t8.5 139.5q0 101 -40 170.5t-120 69.5zM378 934l128 -152l-8 -11l-139 73l-159 -83l-7 11l173 162h12z" />
    <glyph glyph-name="Otilde" unicode="&#xd5;" horiz-adv-x="653" 
d="M356 679q109 0 183 -86.5t74 -208.5q0 -73 -21 -144t-59.5 -129t-99 -94t-132.5 -36q-115 0 -188 85.5t-73 208.5q0 103 40 195.5t113.5 150.5t162.5 58zM355 664q-59 0 -103.5 -39t-68 -102t-34.5 -130t-11 -136q0 -107 43 -184t121 -77q64 0 108.5 41.5t66 111t30 136
t8.5 139.5q0 101 -40 170.5t-120 69.5zM544 923l10 -4q-38 -126 -104 -126q-27 0 -75 22.5t-73 22.5q-44 0 -70 -51l-12 5q22 64 45.5 90.5t59.5 26.5q29 0 76 -23t72 -23q39 0 71 60z" />
    <glyph glyph-name="Odieresis" unicode="&#xd6;" horiz-adv-x="653" 
d="M356 679q109 0 183 -86.5t74 -208.5q0 -73 -21 -144t-59.5 -129t-99 -94t-132.5 -36q-115 0 -188 85.5t-73 208.5q0 103 40 195.5t113.5 150.5t162.5 58zM355 664q-59 0 -103.5 -39t-68 -102t-34.5 -130t-11 -136q0 -107 43 -184t121 -77q64 0 108.5 41.5t66 111t30 136
t8.5 139.5q0 101 -40 170.5t-120 69.5zM245 904q26 0 43 -15.5t17 -41.5t-17.5 -42t-42.5 -16t-42.5 16t-17.5 42t17 41.5t43 15.5zM463 904q26 0 42.5 -15.5t16.5 -41.5t-17 -42t-42 -16q-26 0 -43.5 16t-17.5 42t17.5 41.5t43.5 15.5z" />
    <glyph glyph-name="multiply" unicode="&#xd7;" horiz-adv-x="489" 
d="M85 390l15 16l154 -155l156 156l13 -15l-155 -155l154 -155l-15 -15l-155 154l-154 -154l-14 15l154 154z" />
    <glyph glyph-name="Oslash" unicode="&#xd8;" horiz-adv-x="653" 
d="M356 679q79 0 144 -50l66 162l10 -5l-66 -164q48 -41 75.5 -103.5t27.5 -134.5q0 -73 -21 -144t-59.5 -129t-99 -94t-132.5 -36q-23 0 -48 5l-51 -127l-11 6l50 123q-91 22 -146 101.5t-55 185.5q0 103 40 195.5t113.5 150.5t162.5 58zM355 664q-59 0 -103.5 -39
t-68 -102t-34.5 -130t-11 -136q0 -86 28.5 -155.5t82.5 -94.5l232 575q-42 82 -126 82zM515 424q0 85 -27 145l-228 -566q23 -7 42 -7q64 0 108.5 41.5t66 111t30 136t8.5 139.5z" />
    <glyph glyph-name="Ugrave" unicode="&#xd9;" horiz-adv-x="612" 
d="M495 223l37 300q10 84 -2.5 105t-72.5 26l1 13h195l-1 -13q-59 -5 -75.5 -25.5t-26.5 -105.5l-37 -301q-13 -111 -70 -175.5t-159 -64.5q-100 0 -153 50.5t-53 141.5q0 30 3 51l37 297q10 80 -3 103.5t-66 28.5l1 13h263l-1 -13q-39 -4 -56.5 -12.5t-29.5 -35t-19 -84.5
l-37 -294q-3 -25 -3 -70q0 -67 31 -113t94 -46q175 0 203 224zM352 766l-7 -10l-171 112q-24 15 -24 48q0 16 12.5 27.5t28.5 11.5q29 0 51 -28z" />
    <glyph glyph-name="Uacute" unicode="&#xda;" horiz-adv-x="612" 
d="M495 223l37 300q10 84 -2.5 105t-72.5 26l1 13h195l-1 -13q-59 -5 -75.5 -25.5t-26.5 -105.5l-37 -301q-13 -111 -70 -175.5t-159 -64.5q-100 0 -153 50.5t-53 141.5q0 30 3 51l37 297q10 80 -3 103.5t-66 28.5l1 13h263l-1 -13q-39 -4 -56.5 -12.5t-29.5 -35t-19 -84.5
l-37 -294q-3 -25 -3 -70q0 -67 31 -113t94 -46q175 0 203 224zM352 763l-5 7l109 162q23 30 53 30q16 0 27.5 -11.5t11.5 -27.5q0 -32 -26 -50z" />
    <glyph glyph-name="Ucircumflex" unicode="&#xdb;" horiz-adv-x="612" 
d="M495 223l37 300q10 84 -2.5 105t-72.5 26l1 13h195l-1 -13q-59 -5 -75.5 -25.5t-26.5 -105.5l-37 -301q-13 -111 -70 -175.5t-159 -64.5q-100 0 -153 50.5t-53 141.5q0 30 3 51l37 297q10 80 -3 103.5t-66 28.5l1 13h263l-1 -13q-39 -4 -56.5 -12.5t-29.5 -35t-19 -84.5
l-37 -294q-3 -25 -3 -70q0 -67 31 -113t94 -46q175 0 203 224zM407 934l128 -152l-8 -11l-139 73l-159 -83l-7 11l173 162h12z" />
    <glyph glyph-name="Udieresis" unicode="&#xdc;" horiz-adv-x="612" 
d="M495 223l37 300q10 84 -2.5 105t-72.5 26l1 13h195l-1 -13q-59 -5 -75.5 -25.5t-26.5 -105.5l-37 -301q-13 -111 -70 -175.5t-159 -64.5q-100 0 -153 50.5t-53 141.5q0 30 3 51l37 297q10 80 -3 103.5t-66 28.5l1 13h263l-1 -13q-39 -4 -56.5 -12.5t-29.5 -35t-19 -84.5
l-37 -294q-3 -25 -3 -70q0 -67 31 -113t94 -46q175 0 203 224zM244 904q26 0 43 -15.5t17 -41.5t-17.5 -42t-42.5 -16t-42.5 16t-17.5 42t17 41.5t43 15.5zM462 904q26 0 42.5 -15.5t16.5 -41.5t-17 -42t-42 -16q-26 0 -43.5 16t-17.5 42t17.5 41.5t43.5 15.5z" />
    <glyph glyph-name="Yacute" unicode="&#xdd;" horiz-adv-x="513" 
d="M0 654l1 13h246l-1 -13q-48 -1 -58.5 -14.5t4.5 -47.5l103 -253l146 243q26 44 13 57.5t-78 14.5l1 13h197l-1 -13q-49 -2 -69 -14t-50 -63l-151 -253l-22 -179q-9 -77 4 -102.5t70 -29.5l-1 -13h-270l1 13q59 4 78.5 29.5t28.5 102.5l20 164l-114 268q-19 44 -38.5 60
t-59.5 17zM200 763l-5 7l109 162q23 30 53 30q16 0 27.5 -11.5t11.5 -27.5q0 -32 -26 -50z" />
    <glyph glyph-name="Thorn" unicode="&#xde;" horiz-adv-x="552" 
d="M370 654q-60 -5 -78.5 -25t-28.5 -94q30 2 56 2q230 0 230 -159q0 -108 -81.5 -172t-208.5 -70l-2 12q91 7 142.5 67.5t51.5 160.5q0 62 -36.5 103.5t-97.5 41.5h-55l-45 -374q-10 -85 2.5 -106.5t72.5 -27.5l-1 -13h-270l1 13q61 5 78.5 26.5t27.5 107.5l45 373
q10 86 -1.5 107.5t-70.5 26.5l1 13h269z" />
    <glyph glyph-name="germandbls" unicode="&#xdf;" horiz-adv-x="566" 
d="M343 683q-54 0 -88 -48.5t-45 -140.5q-36 -352 -51 -457q-17 -120 -62.5 -187t-107.5 -67q-35 0 -68.5 21.5t-33.5 51.5q0 21 15 39t35 18t34.5 -14t14.5 -34l-9 -67q6 -3 15 -3q28 0 44.5 37t31.5 133q13 84 33.5 269.5t26.5 227.5h-81l2 12h80q18 101 83 163t135 62
q64 0 110.5 -28t46.5 -77q0 -29 -16 -51t-39 -37.5t-45.5 -31.5t-38.5 -40t-16 -55q0 -27 15.5 -47.5t53.5 -46.5q65 -43 86.5 -67t21.5 -65q0 -68 -53.5 -113.5t-119.5 -45.5q-54 0 -99 28t-45 69q0 24 17 43t38 19q20 0 34 -15t14 -37q0 -13 -10.5 -40t-11.5 -38
q23 -16 63 -16q37 0 63 31.5t26 73.5q0 30 -16 48.5t-69 54.5q-48 33 -65.5 57.5t-17.5 55.5t15 55t37 41.5t43.5 36.5t36.5 51t15 76q0 40 -21.5 67.5t-56.5 27.5z" />
    <glyph glyph-name="agrave" unicode="&#xe0;" horiz-adv-x="497" 
d="M44 155q0 80 31 156.5t83.5 124.5t109.5 48q51 0 91 -79l81 75l9 -5q-26 -73 -46 -216l-18 -130q-6 -36 -6 -58q0 -26 5.5 -38.5t22.5 -12.5q11 0 31.5 15.5t29.5 28.5l8 -9q-55 -65 -118 -65q-29 0 -45.5 19t-16.5 46q0 20 4 44q-20 -48 -56 -78.5t-86 -30.5
q-53 0 -83.5 47t-30.5 118zM196 19q80 0 113 157l26 189q-2 56 -17 81t-51 25q-37 0 -69 -53t-48 -125t-16 -138q0 -59 15.5 -97.5t46.5 -38.5zM327 585l-7 -10l-171 112q-24 15 -24 48q0 16 12.5 27.5t28.5 11.5q29 0 51 -28z" />
    <glyph glyph-name="aacute" unicode="&#xe1;" horiz-adv-x="497" 
d="M44 155q0 80 31 156.5t83.5 124.5t109.5 48q51 0 91 -79l81 75l9 -5q-26 -73 -46 -216l-18 -130q-6 -36 -6 -58q0 -26 5.5 -38.5t22.5 -12.5q11 0 31.5 15.5t29.5 28.5l8 -9q-55 -65 -118 -65q-29 0 -45.5 19t-16.5 46q0 20 4 44q-20 -48 -56 -78.5t-86 -30.5
q-53 0 -83.5 47t-30.5 118zM196 19q80 0 113 157l26 189q-2 56 -17 81t-51 25q-37 0 -69 -53t-48 -125t-16 -138q0 -59 15.5 -97.5t46.5 -38.5zM270 576l-5 7l109 162q23 30 53 30q16 0 27.5 -11.5t11.5 -27.5q0 -32 -26 -50z" />
    <glyph glyph-name="acircumflex" unicode="&#xe2;" horiz-adv-x="497" 
d="M44 155q0 80 31 156.5t83.5 124.5t109.5 48q51 0 91 -79l81 75l9 -5q-26 -73 -46 -216l-18 -130q-6 -36 -6 -58q0 -26 5.5 -38.5t22.5 -12.5q11 0 31.5 15.5t29.5 28.5l8 -9q-55 -65 -118 -65q-29 0 -45.5 19t-16.5 46q0 20 4 44q-20 -48 -56 -78.5t-86 -30.5
q-53 0 -83.5 47t-30.5 118zM196 19q80 0 113 157l26 189q-2 56 -17 81t-51 25q-37 0 -69 -53t-48 -125t-16 -138q0 -59 15.5 -97.5t46.5 -38.5zM303 747l128 -152l-8 -11l-139 73l-159 -83l-7 11l173 162h12z" />
    <glyph glyph-name="atilde" unicode="&#xe3;" horiz-adv-x="497" 
d="M44 155q0 80 31 156.5t83.5 124.5t109.5 48q51 0 91 -79l81 75l9 -5q-26 -73 -46 -216l-18 -130q-6 -36 -6 -58q0 -26 5.5 -38.5t22.5 -12.5q11 0 31.5 15.5t29.5 28.5l8 -9q-55 -65 -118 -65q-29 0 -45.5 19t-16.5 46q0 20 4 44q-20 -48 -56 -78.5t-86 -30.5
q-53 0 -83.5 47t-30.5 118zM196 19q80 0 113 157l26 189q-2 56 -17 81t-51 25q-37 0 -69 -53t-48 -125t-16 -138q0 -59 15.5 -97.5t46.5 -38.5zM454 736l10 -4q-38 -126 -104 -126q-27 0 -75 22.5t-73 22.5q-44 0 -70 -51l-12 5q22 64 45.5 90.5t59.5 26.5q29 0 76 -23
t72 -23q39 0 71 60z" />
    <glyph glyph-name="adieresis" unicode="&#xe4;" horiz-adv-x="497" 
d="M44 155q0 80 31 156.5t83.5 124.5t109.5 48q51 0 91 -79l81 75l9 -5q-26 -73 -46 -216l-18 -130q-6 -36 -6 -58q0 -26 5.5 -38.5t22.5 -12.5q11 0 31.5 15.5t29.5 28.5l8 -9q-55 -65 -118 -65q-29 0 -45.5 19t-16.5 46q0 20 4 44q-20 -48 -56 -78.5t-86 -30.5
q-53 0 -83.5 47t-30.5 118zM196 19q80 0 113 157l26 189q-2 56 -17 81t-51 25q-37 0 -69 -53t-48 -125t-16 -138q0 -59 15.5 -97.5t46.5 -38.5zM179 717q26 0 43 -15.5t17 -41.5t-17.5 -42t-42.5 -16t-42.5 16t-17.5 42t17 41.5t43 15.5zM397 717q26 0 42.5 -15.5
t16.5 -41.5t-17 -42t-42 -16q-26 0 -43.5 16t-17.5 42t17.5 41.5t43.5 15.5z" />
    <glyph glyph-name="aring" unicode="&#xe5;" horiz-adv-x="497" 
d="M44 155q0 80 31 156.5t83.5 124.5t109.5 48q51 0 91 -79l81 75l9 -5q-26 -73 -46 -216l-18 -130q-6 -36 -6 -58q0 -26 5.5 -38.5t22.5 -12.5q11 0 31.5 15.5t29.5 28.5l8 -9q-55 -65 -118 -65q-29 0 -45.5 19t-16.5 46q0 20 4 44q-20 -48 -56 -78.5t-86 -30.5
q-53 0 -83.5 47t-30.5 118zM196 19q80 0 113 157l26 189q-2 56 -17 81t-51 25q-37 0 -69 -53t-48 -125t-16 -138q0 -59 15.5 -97.5t46.5 -38.5zM405 666q0 -44 -32.5 -76t-76.5 -32q-43 0 -76.5 32.5t-33.5 75.5q0 40 33.5 71.5t76.5 31.5q44 0 76.5 -31t32.5 -72zM385 666
q0 34 -25.5 60.5t-63.5 26.5t-62.5 -26.5t-24.5 -60.5q0 -36 24.5 -63.5t62.5 -27.5t63.5 27.5t25.5 63.5z" />
    <glyph glyph-name="ae" unicode="&#xe6;" horiz-adv-x="723" 
d="M671 392q0 -62 -69 -95t-187 -38q-5 -40 -5 -92q0 -61 22 -104.5t63 -43.5q62 0 134 76l8 -8q-85 -97 -171 -97q-57 0 -90.5 33t-48.5 101q-53 -134 -155 -134q-53 0 -84.5 47t-31.5 118q0 123 69.5 226t156.5 103q51 0 91 -79l61 75l9 -2l-9 -43q22 22 53.5 35.5
t58.5 13.5q54 0 89.5 -24t35.5 -68zM585 396q0 31 -10 53t-30 22q-52 0 -84 -57.5t-44 -142.5q82 7 125 39.5t43 85.5zM349 365q0 106 -68 106q-55 0 -95 -105.5t-40 -210.5q0 -58 16.5 -97t47.5 -39q46 0 84 69t38 123q0 11 8.5 74.5t8.5 79.5z" />
    <glyph glyph-name="ccedilla" unicode="&#xe7;" horiz-adv-x="409" 
d="M310 -137q0 -35 -32 -60.5t-71 -36t-75 -10.5q-31 0 -52 12t-21 31q0 20 15 35t33 15q17 0 37 -36.5t28 -40.5q64 4 64 56q0 54 -112 60l-4 11l56 92q-63 7 -99.5 57t-36.5 121q0 120 63 217.5t150 97.5q46 0 84.5 -24.5t38.5 -63.5q0 -21 -15 -38.5t-37 -17.5
q-19 0 -33.5 14.5t-14.5 32.5q0 13 13.5 40t13.5 36q-18 10 -50 10q-38 0 -67.5 -49.5t-42.5 -114t-13 -126.5q0 -71 22 -118.5t72 -47.5q53 0 113 72l8 -8q-37 -43 -72 -67t-80 -24l-40 -54q157 -5 157 -73z" />
    <glyph glyph-name="egrave" unicode="&#xe8;" horiz-adv-x="430" 
d="M392 392q0 -67 -66.5 -97.5t-189.5 -35.5q-5 -40 -5 -92q0 -62 21 -105t64 -43q39 0 69 19.5t65 56.5l8 -8q-85 -97 -171 -97q-74 0 -110 48.5t-36 130.5q0 137 68 226t158 89q54 0 89.5 -24t35.5 -68zM266 471q-47 0 -81.5 -61.5t-46.5 -138.5q85 8 126.5 37t41.5 88
q0 31 -10 53t-30 22zM313 585l-7 -10l-171 112q-24 15 -24 48q0 16 12.5 27.5t28.5 11.5q29 0 51 -28z" />
    <glyph glyph-name="eacute" unicode="&#xe9;" horiz-adv-x="430" 
d="M392 392q0 -67 -66.5 -97.5t-189.5 -35.5q-5 -40 -5 -92q0 -62 21 -105t64 -43q39 0 69 19.5t65 56.5l8 -8q-85 -97 -171 -97q-74 0 -110 48.5t-36 130.5q0 137 68 226t158 89q54 0 89.5 -24t35.5 -68zM266 471q-47 0 -81.5 -61.5t-46.5 -138.5q85 8 126.5 37t41.5 88
q0 31 -10 53t-30 22zM242 576l-5 7l109 162q23 30 53 30q16 0 27.5 -11.5t11.5 -27.5q0 -32 -26 -50z" />
    <glyph glyph-name="ecircumflex" unicode="&#xea;" horiz-adv-x="430" 
d="M392 392q0 -67 -66.5 -97.5t-189.5 -35.5q-5 -40 -5 -92q0 -62 21 -105t64 -43q39 0 69 19.5t65 56.5l8 -8q-85 -97 -171 -97q-74 0 -110 48.5t-36 130.5q0 137 68 226t158 89q54 0 89.5 -24t35.5 -68zM266 471q-47 0 -81.5 -61.5t-46.5 -138.5q85 8 126.5 37t41.5 88
q0 31 -10 53t-30 22zM300 747l128 -152l-8 -11l-139 73l-159 -83l-7 11l173 162h12z" />
    <glyph glyph-name="edieresis" unicode="&#xeb;" horiz-adv-x="430" 
d="M392 392q0 -67 -66.5 -97.5t-189.5 -35.5q-5 -40 -5 -92q0 -62 21 -105t64 -43q39 0 69 19.5t65 56.5l8 -8q-85 -97 -171 -97q-74 0 -110 48.5t-36 130.5q0 137 68 226t158 89q54 0 89.5 -24t35.5 -68zM266 471q-47 0 -81.5 -61.5t-46.5 -138.5q85 8 126.5 37t41.5 88
q0 31 -10 53t-30 22zM176 717q26 0 43 -15.5t17 -41.5t-17.5 -42t-42.5 -16t-42.5 16t-17.5 42t17 41.5t43 15.5zM394 717q26 0 42.5 -15.5t16.5 -41.5t-17 -42t-42 -16q-26 0 -43.5 16t-17.5 42t17.5 41.5t43.5 15.5z" />
    <glyph glyph-name="igrave" unicode="&#xec;" horiz-adv-x="290" 
d="M209 339l-28 -182q-8 -53 -8 -81q0 -26 6.5 -38t24.5 -12q27 0 60 43l7 -7q-53 -68 -107 -68q-37 0 -55.5 20.5t-18.5 51.5q0 33 7 73l28 182q7 47 7 81q0 50 -30 50q-10 0 -29 -13.5t-31 -29.5l-7 7q20 26 53.5 47t63.5 21q64 0 64 -72q0 -22 -7 -73zM223 585l-7 -10
l-171 112q-24 15 -24 48q0 16 12.5 27.5t28.5 11.5q29 0 51 -28z" />
    <glyph glyph-name="iacute" unicode="&#xed;" horiz-adv-x="290" 
d="M209 339l-28 -182q-8 -53 -8 -81q0 -26 6.5 -38t24.5 -12q27 0 60 43l7 -7q-53 -68 -107 -68q-37 0 -55.5 20.5t-18.5 51.5q0 33 7 73l28 182q7 47 7 81q0 50 -30 50q-10 0 -29 -13.5t-31 -29.5l-7 7q20 26 53.5 47t63.5 21q64 0 64 -72q0 -22 -7 -73zM142 576l-5 7
l109 162q23 30 53 30q16 0 27.5 -11.5t11.5 -27.5q0 -32 -26 -50z" />
    <glyph glyph-name="icircumflex" unicode="&#xee;" horiz-adv-x="290" 
d="M209 339l-28 -182q-8 -53 -8 -81q0 -26 6.5 -38t24.5 -12q27 0 60 43l7 -7q-53 -68 -107 -68q-37 0 -55.5 20.5t-18.5 51.5q0 33 7 73l28 182q7 47 7 81q0 50 -30 50q-10 0 -29 -13.5t-31 -29.5l-7 7q20 26 53.5 47t63.5 21q64 0 64 -72q0 -22 -7 -73zM189 747l128 -152
l-8 -11l-139 73l-159 -83l-7 11l173 162h12z" />
    <glyph glyph-name="idieresis" unicode="&#xef;" horiz-adv-x="290" 
d="M209 339l-28 -182q-8 -53 -8 -81q0 -26 6.5 -38t24.5 -12q27 0 60 43l7 -7q-53 -68 -107 -68q-37 0 -55.5 20.5t-18.5 51.5q0 33 7 73l28 182q7 47 7 81q0 50 -30 50q-10 0 -29 -13.5t-31 -29.5l-7 7q20 26 53.5 47t63.5 21q64 0 64 -72q0 -22 -7 -73zM65 717
q26 0 43 -15.5t17 -41.5t-17.5 -42t-42.5 -16t-42.5 16t-17.5 42t17 41.5t43 15.5zM283 717q26 0 42.5 -15.5t16.5 -41.5t-17 -42t-42 -16q-26 0 -43.5 16t-17.5 42t17.5 41.5t43.5 15.5z" />
    <glyph glyph-name="eth" unicode="&#xf0;" horiz-adv-x="493" 
d="M204 559l-9 12l79 62q-44 49 -103 81l7 11q69 -38 113 -77l98 74l11 -13l-95 -72q142 -139 142 -343q0 -125 -63 -212.5t-160 -87.5q-79 0 -124.5 58t-45.5 140q0 119 66.5 205.5t154.5 86.5q49 0 82 -33h4q-15 100 -77 171zM144 192q0 -82 21 -133.5t58 -51.5
q40 0 72 44t47 106.5t15 126.5q0 85 -19.5 136t-60.5 51q-58 0 -95.5 -91t-37.5 -188z" />
    <glyph glyph-name="ntilde" unicode="&#xf1;" horiz-adv-x="519" 
d="M58 0l45 321q7 47 7 81q0 50 -30 50q-10 0 -29 -13.5t-31 -29.5l-7 7q20 26 53.5 47t63.5 21q62 0 62 -115q52 115 124 115q51 0 86.5 -31.5t35.5 -86.5q0 -25 -4 -55l-21 -158q-8 -56 -8 -81q0 -26 6.5 -38t24.5 -12q27 0 60 43l7 -7q-53 -68 -107 -68q-37 0 -55.5 20.5
t-18.5 52.5q0 23 7 72l24 180q5 43 5 61q0 95 -46 95q-42 0 -76 -46t-53 -115l-40 -310h-85zM446 736l10 -4q-38 -126 -104 -126q-27 0 -75 22.5t-73 22.5q-44 0 -70 -51l-12 5q22 64 45.5 90.5t59.5 26.5q29 0 76 -23t72 -23q39 0 71 60z" />
    <glyph glyph-name="ograve" unicode="&#xf2;" horiz-adv-x="485" 
d="M267 484q79 0 125.5 -60t46.5 -142q0 -124 -62.5 -207t-160.5 -83q-79 0 -124.5 58t-45.5 140q0 121 63.5 207.5t157.5 86.5zM136 190q0 -82 21 -133.5t58 -51.5q40 0 72 44t47 106.5t15 126.5q0 85 -19.5 137t-60.5 52q-40 0 -71.5 -47t-46.5 -110.5t-15 -123.5z
M308 585l-7 -10l-171 112q-24 15 -24 48q0 16 12.5 27.5t28.5 11.5q29 0 51 -28z" />
    <glyph glyph-name="oacute" unicode="&#xf3;" horiz-adv-x="485" 
d="M267 484q79 0 125.5 -60t46.5 -142q0 -124 -62.5 -207t-160.5 -83q-79 0 -124.5 58t-45.5 140q0 121 63.5 207.5t157.5 86.5zM136 190q0 -82 21 -133.5t58 -51.5q40 0 72 44t47 106.5t15 126.5q0 85 -19.5 137t-60.5 52q-40 0 -71.5 -47t-46.5 -110.5t-15 -123.5z
M252 576l-5 7l109 162q23 30 53 30q16 0 27.5 -11.5t11.5 -27.5q0 -32 -26 -50z" />
    <glyph glyph-name="ocircumflex" unicode="&#xf4;" horiz-adv-x="485" 
d="M267 484q79 0 125.5 -60t46.5 -142q0 -124 -62.5 -207t-160.5 -83q-79 0 -124.5 58t-45.5 140q0 121 63.5 207.5t157.5 86.5zM136 190q0 -82 21 -133.5t58 -51.5q40 0 72 44t47 106.5t15 126.5q0 85 -19.5 137t-60.5 52q-40 0 -71.5 -47t-46.5 -110.5t-15 -123.5z
M295 747l128 -152l-8 -11l-139 73l-159 -83l-7 11l173 162h12z" />
    <glyph glyph-name="otilde" unicode="&#xf5;" horiz-adv-x="485" 
d="M267 484q79 0 125.5 -60t46.5 -142q0 -124 -62.5 -207t-160.5 -83q-79 0 -124.5 58t-45.5 140q0 121 63.5 207.5t157.5 86.5zM136 190q0 -82 21 -133.5t58 -51.5q40 0 72 44t47 106.5t15 126.5q0 85 -19.5 137t-60.5 52q-40 0 -71.5 -47t-46.5 -110.5t-15 -123.5z
M436 736l10 -4q-38 -126 -104 -126q-27 0 -75 22.5t-73 22.5q-44 0 -70 -51l-12 5q22 64 45.5 90.5t59.5 26.5q29 0 76 -23t72 -23q39 0 71 60z" />
    <glyph glyph-name="odieresis" unicode="&#xf6;" horiz-adv-x="485" 
d="M267 484q79 0 125.5 -60t46.5 -142q0 -124 -62.5 -207t-160.5 -83q-79 0 -124.5 58t-45.5 140q0 121 63.5 207.5t157.5 86.5zM136 190q0 -82 21 -133.5t58 -51.5q40 0 72 44t47 106.5t15 126.5q0 85 -19.5 137t-60.5 52q-40 0 -71.5 -47t-46.5 -110.5t-15 -123.5z
M161 717q26 0 43 -15.5t17 -41.5t-17.5 -42t-42.5 -16t-42.5 16t-17.5 42t17 41.5t43 15.5zM379 717q26 0 42.5 -15.5t16.5 -41.5t-17 -42t-42 -16q-26 0 -43.5 16t-17.5 42t17.5 41.5t43.5 15.5z" />
    <glyph glyph-name="divide" unicode="&#xf7;" horiz-adv-x="489" 
d="M188 397q0 20 14.5 34.5t35.5 14.5t35.5 -14.5t14.5 -34.5q0 -21 -15 -35.5t-35 -14.5q-21 0 -35.5 14.5t-14.5 35.5zM188 47q0 20 14.5 34.5t35.5 14.5t35.5 -14.5t14.5 -34.5q0 -21 -15 -35.5t-35 -14.5q-21 0 -35.5 14.5t-14.5 35.5zM433 216h-390v19h390v-19z" />
    <glyph glyph-name="oslash" unicode="&#xf8;" horiz-adv-x="485" 
d="M267 484q42 0 77 -19l94 217l12 -4l-95 -220q40 -26 62 -74t22 -102q0 -124 -62.5 -207t-160.5 -83q-29 0 -57 10l-86 -200l-13 5l86 199q-48 23 -74 73t-26 111q0 121 63.5 207.5t157.5 86.5zM136 190q0 -96 26 -146l165 381q-21 46 -58 46q-40 0 -71.5 -47
t-46.5 -110.5t-15 -123.5zM349 282q0 77 -16 126l-162 -378q19 -25 44 -25q40 0 72 44t47 106.5t15 126.5z" />
    <glyph glyph-name="ugrave" unicode="&#xf9;" horiz-adv-x="557" 
d="M471 476l-42 -323q-7 -47 -7 -81q0 -51 28 -51q29 0 60 44l8 -6q-49 -69 -110 -69q-37 0 -52.5 27.5t-15.5 88.5q-24 -54 -51 -85t-69 -31q-54 0 -87.5 32t-33.5 86q0 27 4 55l26 180q5 35 5 59q0 50 -24 50q-27 0 -60 -49l-7 7q20 31 53 52.5t67 21.5q54 0 54 -73
q0 -20 -8 -79l-27 -189q-3 -26 -3 -45q0 -41 11.5 -68t34.5 -27q41 0 73 45.5t51 115.5l41 312h81zM338 585l-7 -10l-171 112q-24 15 -24 48q0 16 12.5 27.5t28.5 11.5q29 0 51 -28z" />
    <glyph glyph-name="uacute" unicode="&#xfa;" horiz-adv-x="557" 
d="M471 476l-42 -323q-7 -47 -7 -81q0 -51 28 -51q29 0 60 44l8 -6q-49 -69 -110 -69q-37 0 -52.5 27.5t-15.5 88.5q-24 -54 -51 -85t-69 -31q-54 0 -87.5 32t-33.5 86q0 27 4 55l26 180q5 35 5 59q0 50 -24 50q-27 0 -60 -49l-7 7q20 31 53 52.5t67 21.5q54 0 54 -73
q0 -20 -8 -79l-27 -189q-3 -26 -3 -45q0 -41 11.5 -68t34.5 -27q41 0 73 45.5t51 115.5l41 312h81zM285 576l-5 7l109 162q23 30 53 30q16 0 27.5 -11.5t11.5 -27.5q0 -32 -26 -50z" />
    <glyph glyph-name="ucircumflex" unicode="&#xfb;" horiz-adv-x="557" 
d="M471 476l-42 -323q-7 -47 -7 -81q0 -51 28 -51q29 0 60 44l8 -6q-49 -69 -110 -69q-37 0 -52.5 27.5t-15.5 88.5q-24 -54 -51 -85t-69 -31q-54 0 -87.5 32t-33.5 86q0 27 4 55l26 180q5 35 5 59q0 50 -24 50q-27 0 -60 -49l-7 7q20 31 53 52.5t67 21.5q54 0 54 -73
q0 -20 -8 -79l-27 -189q-3 -26 -3 -45q0 -41 11.5 -68t34.5 -27q41 0 73 45.5t51 115.5l41 312h81zM324 747l128 -152l-8 -11l-139 73l-159 -83l-7 11l173 162h12z" />
    <glyph glyph-name="udieresis" unicode="&#xfc;" horiz-adv-x="557" 
d="M471 476l-42 -323q-7 -47 -7 -81q0 -51 28 -51q29 0 60 44l8 -6q-49 -69 -110 -69q-37 0 -52.5 27.5t-15.5 88.5q-24 -54 -51 -85t-69 -31q-54 0 -87.5 32t-33.5 86q0 27 4 55l26 180q5 35 5 59q0 50 -24 50q-27 0 -60 -49l-7 7q20 31 53 52.5t67 21.5q54 0 54 -73
q0 -20 -8 -79l-27 -189q-3 -26 -3 -45q0 -41 11.5 -68t34.5 -27q41 0 73 45.5t51 115.5l41 312h81zM200 717q26 0 43 -15.5t17 -41.5t-17.5 -42t-42.5 -16t-42.5 16t-17.5 42t17 41.5t43 15.5zM418 717q26 0 42.5 -15.5t16.5 -41.5t-17 -42t-42 -16q-26 0 -43.5 16t-17.5 42
t17.5 41.5t43.5 15.5z" />
    <glyph glyph-name="yacute" unicode="&#xfd;" horiz-adv-x="464" 
d="M405 334q-8 10 -30 28t-36 33.5t-14 31.5q0 22 16.5 39.5t37.5 17.5q23 0 37.5 -23t14.5 -56q0 -76 -63.5 -199.5t-138.5 -227.5q-82 -114 -122.5 -148t-76.5 -34q-23 0 -39.5 15.5t-16.5 37.5q0 19 15 33t34 17q12 0 29 -8t36.5 -20.5t24.5 -14.5q20 20 50.5 57t45.5 61
l-83 362q-15 67 -24.5 91.5t-20.5 24.5q-27 0 -60 -49l-7 7q52 74 110 74q33 0 49.5 -24.5t33.5 -102.5l63 -292h4q88 141 131 269zM158 576l-5 7l109 162q23 30 53 30q16 0 27.5 -11.5t11.5 -27.5q0 -32 -26 -50z" />
    <glyph glyph-name="thorn" unicode="&#xfe;" horiz-adv-x="506" 
d="M231 697l5 -11q-21 -65 -53 -317q51 115 136 115q62 0 97 -52t35 -130q0 -123 -65.5 -215.5t-158.5 -92.5q-48 0 -89 49l-17 -112q-4 -36 -4 -52q0 -31 12.5 -41t61.5 -15l-1 -12l-209 -10l-1 8q26 20 37 41t21 72.5t27 179.5l63 480q0 4 2 17t2 18q0 27 -13.5 37.5
t-56.5 14.5l1 13zM291 465q-42 0 -72.5 -51t-47.5 -123l-26 -198q8 -48 25.5 -67t54.5 -19q45 0 77.5 54.5t45.5 121.5t13 129q0 153 -70 153z" />
    <glyph glyph-name="ydieresis" unicode="&#xff;" horiz-adv-x="464" 
d="M405 334q-8 10 -30 28t-36 33.5t-14 31.5q0 22 16.5 39.5t37.5 17.5q23 0 37.5 -23t14.5 -56q0 -76 -63.5 -199.5t-138.5 -227.5q-82 -114 -122.5 -148t-76.5 -34q-23 0 -39.5 15.5t-16.5 37.5q0 19 15 33t34 17q12 0 29 -8t36.5 -20.5t24.5 -14.5q20 20 50.5 57t45.5 61
l-83 362q-15 67 -24.5 91.5t-20.5 24.5q-27 0 -60 -49l-7 7q52 74 110 74q33 0 49.5 -24.5t33.5 -102.5l63 -292h4q88 141 131 269zM141 717q26 0 43 -15.5t17 -41.5t-17.5 -42t-42.5 -16t-42.5 16t-17.5 42t17 41.5t43 15.5zM359 717q26 0 42.5 -15.5t16.5 -41.5t-17 -42
t-42 -16q-26 0 -43.5 16t-17.5 42t17.5 41.5t43.5 15.5z" />
    <glyph glyph-name="dotlessi" unicode="&#x131;" horiz-adv-x="290" 
d="M209 339l-28 -182q-8 -53 -8 -81q0 -26 6.5 -38t24.5 -12q27 0 60 43l7 -7q-53 -68 -107 -68q-37 0 -55.5 20.5t-18.5 51.5q0 33 7 73l28 182q7 47 7 81q0 50 -30 50q-10 0 -29 -13.5t-31 -29.5l-7 7q20 26 53.5 47t63.5 21q64 0 64 -72q0 -22 -7 -73z" />
    <glyph glyph-name="Lslash" unicode="&#x141;" horiz-adv-x="464" 
d="M29 275l-6 18l88 29l24 198q10 80 -2.5 104t-70.5 30l1 13h278l-1 -13q-67 -5 -86.5 -29t-29.5 -105l-20 -167l173 59l6 -17l-182 -62l-26 -217q-8 -62 4.5 -81t63.5 -19h44q72 0 107.5 41.5t61.5 143.5h12l-28 -201h-462l1 13q63 5 81.5 27t29.5 107l18 155z" />
    <glyph glyph-name="lslash" unicode="&#x142;" horiz-adv-x="262" 
d="M30 316l-4 15l68 22l32 228q3 18 3 31q0 28 -16 41.5t-59 18.5l1 10l170 16l9 -10q-26 -87 -55 -302l-1 -5l87 31l4 -15l-93 -31l-28 -213q-8 -53 -8 -81q0 -26 6.5 -38t24.5 -12q27 0 60 43l7 -7q-53 -68 -107 -68q-37 0 -55.5 20.5t-18.5 51.5q0 28 9 86l26 189z" />
    <glyph glyph-name="OE" unicode="&#x152;" horiz-adv-x="882" 
d="M780 443h15l-28 -228h-15q2 70 -11 93.5t-59 23.5h-93l-24 -195q-7 -61 5.5 -91t62.5 -30h72q62 0 92 41t52 134h15l-23 -191h-393q-54 -19 -110 -19q-122 0 -190.5 80t-68.5 214q0 173 101.5 288.5t243.5 115.5q50 0 105 -12h385l-22 -181h-15q0 91 -18.5 128t-82.5 37
h-148l-37 -303h93q47 0 64.5 17.5t31.5 77.5zM342 -1q71 0 98.5 33.5t37.5 114.5l45 372q10 83 -19 112.5t-84 29.5q-74 0 -131 -58.5t-84.5 -149t-27.5 -195.5q0 -259 165 -259z" />
    <glyph glyph-name="oe" unicode="&#x153;" horiz-adv-x="753" 
d="M435 259q-5 -40 -5 -92q0 -61 22 -104.5t63 -43.5q62 0 134 76l8 -8q-85 -97 -171 -97q-85 0 -115 74q-60 -72 -148 -72q-79 0 -124 58.5t-45 139.5q0 121 63.5 207.5t157.5 86.5q51 0 82 -21t57 -65q78 86 152 86q54 0 89.5 -24t35.5 -68q0 -62 -69 -95t-187 -38zM223 5
q40 0 72 44t47 106.5t15 126.5q0 85 -19.5 137t-60.5 52q-33 0 -59.5 -27.5t-42 -70.5t-23.5 -90.5t-8 -92.5q0 -82 21 -133.5t58 -51.5zM565 471q-52 0 -84 -57.5t-44 -142.5q82 7 125 39.5t43 85.5q0 31 -10 53t-30 22z" />
    <glyph glyph-name="Scaron" unicode="&#x160;" horiz-adv-x="519" 
d="M290 683q71 0 132 -52q8 -8 18 -8q21 0 33 50h11l-25 -206l-11 1q-16 201 -159 201q-64 0 -105 -41t-41 -100q0 -48 28.5 -79t100.5 -59q105 -41 144.5 -81.5t39.5 -113.5q0 -89 -66 -151t-158 -62q-74 0 -147 52q-12 8 -20 8q-16 0 -25 -43h-14l27 211l12 -1
q0 -213 166 -213q66 0 108.5 43t42.5 108q0 55 -34.5 88t-121.5 67q-81 32 -118.5 76.5t-37.5 112.5q0 81 69 136.5t151 55.5zM480 869l-174 -144h-11l-126 143l7 6l136 -65l162 66z" />
    <glyph glyph-name="scaron" unicode="&#x161;" horiz-adv-x="432" 
d="M237 484q55 0 101 -27.5t46 -67.5q0 -24 -12 -40t-34 -16q-20 0 -35 12.5t-18 32.5q0 17 5.5 45.5t5.5 34.5q-19 13 -60 13q-38 0 -63 -27t-25 -66q0 -31 18 -50.5t67 -41.5q79 -35 108.5 -63.5t29.5 -80.5q0 -68 -50 -110t-122 -42q-55 0 -105.5 29t-50.5 69
q0 25 16 44.5t38 19.5q21 0 35.5 -14.5t14.5 -35.5q0 -13 -11 -41t-12 -39q28 -19 75 -19q37 0 63 32t26 74q0 34 -20 52t-78 44q-65 29 -94.5 57.5t-29.5 76.5q0 60 53 102.5t118 42.5zM422 724l-158 -160h-10l-115 159l6 7l124 -72l147 73z" />
    <glyph glyph-name="Ydieresis" unicode="&#x178;" horiz-adv-x="513" 
d="M0 654l1 13h246l-1 -13q-48 -1 -58.5 -14.5t4.5 -47.5l103 -253l146 243q26 44 13 57.5t-78 14.5l1 13h197l-1 -13q-49 -2 -69 -14t-50 -63l-151 -253l-22 -179q-9 -77 4 -102.5t70 -29.5l-1 -13h-270l1 13q59 4 78.5 29.5t28.5 102.5l20 164l-114 268q-19 44 -38.5 60
t-59.5 17zM183 904q26 0 43 -15.5t17 -41.5t-17.5 -42t-42.5 -16t-42.5 16t-17.5 42t17 41.5t43 15.5zM401 904q26 0 42.5 -15.5t16.5 -41.5t-17 -42t-42 -16q-26 0 -43.5 16t-17.5 42t17.5 41.5t43.5 15.5z" />
    <glyph glyph-name="Zcaron" unicode="&#x17d;" horiz-adv-x="508" 
d="M8 17l402 635h-153q-84 0 -123.5 -37t-71.5 -149h-12l35 206l121 -5h303l-1 -17l-407 -635h174q74 0 113 41t72 145h12l-35 -206l-138 5h-293zM465 911l-158 -160h-10l-115 159l6 7l124 -72l147 73z" />
    <glyph glyph-name="zcaron" unicode="&#x17e;" horiz-adv-x="433" 
d="M62 351l-9 6q20 33 31.5 50t29 38.5t35 30.5t36.5 9q30 0 83 -20t73 -20q37 0 87 44l8 -7q-89 -124 -253 -302q-48 -51 -104 -133l2 -2q68 55 108 55q20 0 65.5 -16.5t60.5 -16.5q54 0 102 59l8 -6q-30 -54 -67 -90t-68 -36q-40 0 -89.5 24t-70.5 24q-17 0 -44 -15
t-44 -32l-10 7q8 14 52.5 75.5t51.5 69.5q2 2 56.5 62t104.5 117.5t87 106.5l-2 1q-56 -47 -93 -47q-19 0 -60 10t-56 10q-37 0 -61 -12t-50 -44zM422 724l-158 -160h-10l-115 159l6 7l124 -72l147 73z" />
    <glyph glyph-name="florin" unicode="&#x192;" horiz-adv-x="541" 
d="M27 -27l12 6q7 -28 22.5 -44t34.5 -16t30.5 19.5t20 73.5t17.5 165l18 221h-71v16h72q15 121 65 178t112 57q50 0 86.5 -26t36.5 -61q0 -22 -14 -37.5t-32 -15.5q-21 0 -38 14.5t-17 39.5q0 15 6.5 35t6.5 24q-13 15 -36 15q-40 0 -61 -51.5t-31 -171.5h128v-16h-129
l-22 -247q-12 -138 -47.5 -192t-98.5 -54q-24 0 -43.5 19t-27.5 49z" />
    <glyph glyph-name="circumflex" unicode="&#x2c6;" 
d="M351 747l128 -152l-8 -11l-139 73l-159 -83l-7 11l173 162h12z" />
    <glyph glyph-name="caron" unicode="&#x2c7;" 
d="M473 724l-158 -160h-10l-115 159l6 7l124 -72l147 73z" />
    <glyph glyph-name="ring" unicode="&#x2da;" horiz-adv-x="833" 
d="M408 666q0 -44 -32.5 -76t-76.5 -32q-43 0 -76.5 32.5t-33.5 75.5q0 40 33.5 71.5t76.5 31.5q44 0 76.5 -31t32.5 -72zM388 666q0 34 -25.5 60.5t-63.5 26.5t-62.5 -26.5t-24.5 -60.5q0 -36 24.5 -63.5t62.5 -27.5t63.5 27.5t25.5 63.5z" />
    <glyph glyph-name="ogonek" unicode="&#x2db;" horiz-adv-x="833" 
d="M268 7h13q-26 -17 -44 -46.5t-18 -59.5q0 -23 13 -40.5t33 -17.5q27 0 58 27l4 -6q-19 -23 -50.5 -40t-66.5 -17q-39 0 -63.5 17.5t-24.5 48.5q0 43 45 78t101 56z" />
    <glyph glyph-name="tilde" unicode="&#x2dc;" 
d="M508 736l10 -4q-38 -126 -104 -126q-27 0 -75 22.5t-73 22.5q-44 0 -70 -51l-12 5q22 64 45.5 90.5t59.5 26.5q29 0 76 -23t72 -23q39 0 71 60z" />
    <glyph glyph-name="endash" unicode="&#x2013;" 
d="M495 241h-490q-5 0 -5 5v20q0 5 5 5h490q5 0 5 -5v-20q0 -5 -5 -5z" />
    <glyph glyph-name="emdash" unicode="&#x2014;" horiz-adv-x="1000" 
d="M1000 266v-20q0 -5 -5 -5h-990q-5 0 -5 5v20q0 5 5 5h990q5 0 5 -5z" />
    <glyph glyph-name="quoteleft" unicode="&#x2018;" horiz-adv-x="200" 
d="M221 729l3 -13q-36 -11 -71.5 -39t-45.5 -53q6 -4 29 -13t37 -21.5t14 -32.5q0 -24 -15.5 -41t-39.5 -17q-23 0 -41 20t-18 48q0 53 45.5 99.5t102.5 62.5z" />
    <glyph glyph-name="quoteright" unicode="&#x2019;" horiz-adv-x="198" 
d="M57 497l-2 13q35 10 71 38.5t45 53.5q-6 4 -28.5 13t-36.5 21.5t-14 32.5q0 24 15.5 41t39.5 17q23 0 41 -20t18 -48q0 -53 -45.5 -99.5t-103.5 -62.5z" />
    <glyph glyph-name="quotesinglbase" unicode="&#x201a;" horiz-adv-x="209" 
d="M-10 -131l-2 13q35 10 71 38.5t45 53.5q-6 4 -28.5 13t-36.5 21.5t-14 32.5q0 24 15.5 41t39.5 17q23 0 41 -20t18 -48q0 -53 -45.5 -99.5t-103.5 -62.5z" />
    <glyph glyph-name="quotedblleft" unicode="&#x201c;" horiz-adv-x="358" 
d="M388 729l3 -13q-36 -11 -71.5 -39t-45.5 -53q6 -4 29 -13t37 -21.5t14 -32.5q0 -24 -15.5 -41t-39.5 -17q-23 0 -41 20t-18 48q0 53 45.5 99.5t102.5 62.5zM203 729l3 -13q-36 -11 -71.5 -39t-45.5 -53q6 -4 29 -13t37 -21.5t14 -32.5q0 -24 -15.5 -41t-39.5 -17
q-23 0 -41 20t-18 48q0 53 45.5 99.5t102.5 62.5z" />
    <glyph glyph-name="quotedblright" unicode="&#x201d;" horiz-adv-x="361" 
d="M55 497l-2 13q35 10 71 38.5t45 53.5q-6 4 -28.5 13t-36.5 21.5t-14 32.5q0 24 15.5 41t39.5 17q23 0 41 -20t18 -48q0 -53 -45.5 -99.5t-103.5 -62.5zM235 497l-2 13q35 10 71 38.5t45 53.5q-6 4 -28.5 13t-36.5 21.5t-14 32.5q0 24 15.5 41t39.5 17q23 0 41 -20t18 -48
q0 -53 -45.5 -99.5t-103.5 -62.5z" />
    <glyph glyph-name="quotedblbase" unicode="&#x201e;" horiz-adv-x="395" 
d="M176 -131l-2 13q35 10 71 38.5t45 53.5q-6 4 -28.5 13t-36.5 21.5t-14 32.5q0 24 15.5 41t39.5 17q23 0 41 -20t18 -48q0 -53 -45.5 -99.5t-103.5 -62.5zM-10 -131l-2 13q35 10 71 38.5t45 53.5q-6 4 -28.5 13t-36.5 21.5t-14 32.5q0 24 15.5 41t39.5 17q23 0 41 -20
t18 -48q0 -53 -45.5 -99.5t-103.5 -62.5z" />
    <glyph glyph-name="dagger" unicode="&#x2020;" 
d="M241 475h60l14 113q-3 4 -10 15t-11 17.5t-9 16t-7.5 18t-2.5 17.5q0 27 21.5 61.5t44.5 34.5q19 0 32 -28t13 -66q0 -12 -6.5 -24.5t-13 -20.5t-19.5 -21.5t-18 -19.5l-14 -113h54q7 4 19.5 12t20.5 13t20 9t23 4q23 0 58 -14t35 -33q0 -23 -35.5 -37t-62.5 -14
q-23 0 -78 45h-56l14 -223l-94 -401h-9l4 401l71 223h-58q-51 -45 -82 -45q-25 0 -58.5 15.5t-33.5 33.5t32.5 33t64.5 15q14 0 28.5 -6t21.5 -11t27 -20z" />
    <glyph glyph-name="daggerdbl" unicode="&#x2021;" 
d="M315 89h-60l-14 -113q3 -4 10 -15t11 -17.5t9 -16t7.5 -18t2.5 -17.5q0 -27 -21.5 -61.5t-45.5 -34.5q-18 0 -31 28t-13 66q0 12 6.5 24.5t13 20.5t19.5 21.5t18 19.5l14 113h-54q-7 -4 -19.5 -12t-20.5 -13t-20 -9t-23 -4q-23 0 -58 14t-35 33q0 23 35.5 37t62.5 14
q23 0 78 -45h55l-17 182l75 174h-59q-5 -2 -36 -23.5t-46 -21.5q-25 0 -58.5 15.5t-33.5 33.5t32.5 33t64.5 15q17 0 42.5 -17t34.5 -20h60l14 113q-3 4 -10 15t-11 17.5t-9 16t-7.5 18t-2.5 17.5q0 27 21.5 61.5t45.5 34.5q18 0 31 -28t13 -66q0 -12 -6.5 -24.5t-13 -20.5
t-19.5 -21.5t-18 -19.5l-14 -113h54q12 5 38.5 21.5t44.5 16.5q33 0 63 -13.5t30 -33.5q0 -19 -33 -33.5t-65 -17.5q-13 0 -42 20.5t-36 24.5h-56l16 -174l-70 -182h56q51 45 82 45q25 0 58.5 -15.5t33.5 -34.5q0 -18 -33 -32.5t-64 -14.5q-7 0 -14.5 2t-12 3.5t-13 6.5
t-11.5 6.5t-13.5 9.5t-12.5 9z" />
    <glyph glyph-name="bullet" unicode="&#x2022;" horiz-adv-x="237" 
d="M-7 297q0 51 37 88t89 37q38 0 64.5 -13t38.5 -34t17 -40t5 -38q0 -52 -37 -89t-88 -37q-52 0 -89 37t-37 89z" />
    <glyph glyph-name="ellipsis" unicode="&#x2026;" horiz-adv-x="651" 
d="M45 47q0 25 18.5 43t43.5 18t43.5 -18t18.5 -43t-18.5 -43.5t-43.5 -18.5t-43.5 18.5t-18.5 43.5zM264 47q0 25 18.5 43t43.5 18t43.5 -18t18.5 -43t-18.5 -43.5t-43.5 -18.5q-26 0 -44 18.5t-18 43.5zM482 47q0 25 18.5 43t43.5 18t43.5 -18t18.5 -43t-18.5 -43.5
t-43.5 -18.5q-26 0 -44 18.5t-18 43.5z" />
    <glyph glyph-name="perthousand" unicode="&#x2030;" horiz-adv-x="983" 
d="M963 149q0 -69 -42 -117t-105 -48q-86 0 -125 74q-43 -74 -124 -74q-66 0 -106 46.5t-40 118.5q0 69 41 115.5t105 46.5q83 0 124 -74q41 74 125 74q64 0 105.5 -46.5t41.5 -115.5zM323 488q0 -69 -42 -117t-105 -48q-66 0 -106 46.5t-40 118.5q0 69 41 115.5t105 46.5
t105.5 -46.5t41.5 -115.5zM655 149q0 60 -22.5 104.5t-65.5 44.5q-45 0 -65.5 -43t-20.5 -106t21 -107.5t65 -44.5t66 44.5t22 107.5zM905 149q0 60 -23 104.5t-66 44.5q-45 0 -65.5 -43t-20.5 -106t21 -107.5t65 -44.5t66.5 44.5t22.5 107.5zM264 488q0 60 -22.5 104.5
t-65.5 44.5q-45 0 -65.5 -43t-20.5 -106t21 -107.5t65 -44.5t66 44.5t22 107.5zM560 657l-362 -699l-18 9l364 698z" />
    <glyph glyph-name="guilsinglleft" unicode="&#x2039;" horiz-adv-x="346" 
d="M286 22l-8 -7q-117 130 -228 208v13q111 77 228 205l8 -7q-74 -133 -145 -204q22 -22 43 -51.5t51.5 -78.5t50.5 -78z" />
    <glyph glyph-name="guilsinglright" unicode="&#x203a;" horiz-adv-x="344" 
d="M67 15l-7 8q75 135 144 204q-64 64 -144 208l7 6q121 -132 227 -205v-16q-97 -67 -227 -205z" />
    <glyph glyph-name="fraction" unicode="&#x2044;" horiz-adv-x="226" 
d="M-175 287v17l245 23l253 32v-16l-252 -29z" />
    <glyph glyph-name="fourinferior" unicode="&#x2084;" 
d="M458 -120v-18h-91v-110h-78v110h-160l-3 16l220 324h21v-322h91zM289 -120v211l-141 -211h141z" />
    <glyph glyph-name="Euro" unicode="&#x20ac;" horiz-adv-x="607" 
d="M487 323h-274q-3 -36 -3 -78h266l-2 -16h-262q6 -94 46 -156.5t107 -62.5q114 0 181 114l12 -6q-37 -63 -89.5 -100t-112.5 -37q-110 0 -163.5 63.5t-73.5 184.5h-72v16h72q0 38 4 78h-76v16h77q22 133 103 221.5t186 88.5q73 0 126.5 -39t53.5 -94q0 -25 -15 -46.5
t-37 -21.5t-39 17.5t-17 40.5q0 20 12.5 53.5t13.5 47.5q-34 28 -100 28q-162 0 -196 -296h275z" />
    <glyph glyph-name="trademark" unicode="&#x2122;" horiz-adv-x="641" 
d="M130 457v200h-27q-30 0 -40.5 -17t-12.5 -54h-10l1 81h214v-81h-11q-1 37 -11 54t-40 17h-28v-200q0 -30 7 -37.5t34 -9.5v-10h-115v10q27 2 33 9t6 38zM528 640l-93 -242h-5l-95 247v-191q0 -28 4 -35t26 -9v-10h-74v10q24 2 28.5 9t4.5 35v159q0 31 -4 37t-29 9v8h68
l84 -218l60 159q11 28 19 59h76v-8q-24 -4 -29 -11t-5 -34v-162q0 -28 5.5 -34t31.5 -8v-10h-105v10q21 2 26.5 8.5t5.5 32.5v189z" />
    <glyph glyph-name="minus" unicode="&#x2212;" horiz-adv-x="489" 
d="M412 291h-330v19h330v-19z" />
    <glyph glyph-name="notequal" unicode="&#x2260;" horiz-adv-x="489" 
d="M431 202h-227l-75 -144l-19 9l70 135h-112v18h122l84 160h-206v18h215l69 131l19 -9l-64 -122h124v-18h-134l-83 -160h217v-18z" />
    <glyph glyph-name="lessequal" unicode="&#x2264;" horiz-adv-x="489" 
d="M438 112l-394 188v12l394 188v-23l-362 -171l362 -170v-24zM441 51h-390v18h390v-18z" />
    <glyph glyph-name="greaterequal" unicode="&#x2265;" horiz-adv-x="489" 
d="M441 300l-394 -188v24l362 170l-362 171v23l394 -188v-12zM434 51h-390v18h390v-18z" />
    <glyph glyph-name="fl" unicode="&#xfb02;" horiz-adv-x="533" 
d="M45 462l2 12h82q18 115 72.5 170t130.5 55q55 0 101.5 -33t46.5 -80q0 -15 -9 -64q-60 -300 -60 -450q0 -26 6.5 -38t24.5 -12q27 0 60 43l7 -7q-53 -68 -107 -68q-38 0 -56 21t-18 55q0 11 14 116.5t29 215t16 116.5q5 39 22.5 88t17.5 53q-35 32 -95 32t-86 -43.5
t-38 -169.5h113l-1 -12h-112q-1 -10 -21 -189.5t-29 -242.5q-16 -112 -61 -174.5t-106 -62.5q-35 0 -68.5 21.5t-33.5 51.5q0 21 15 39t35 18t34.5 -14t14.5 -34q0 -9 -4.5 -31.5t-4.5 -35.5q7 -3 15 -3q28 0 44.5 37t31.5 133q13 84 32.5 264.5t25.5 222.5h-83z" />
    <glyph glyph-name="apple" horiz-adv-x="1062" 
d="M508 446q7 0 15 2v-33q-18 -5 -34 -5t-26.5 10t-10.5 27v69h-42v-102h-50v102h-17v23l17 6v8q0 44 45 44q20 0 29 -2l-3 -32q-1 0 -5 0.5t-7 0.5q-9 0 -9 -9v-8h43l4 41h44v-41h21v-32h-21v-59q0 -10 7 -10zM923 448v-33q-18 -5 -34 -5q-15 0 -25.5 10t-10.5 27v69h-44
v-102h-48v102h-18v23l18 6v8q0 44 44 44q21 0 30 -2l-4 -32q-1 0 -4.5 0.5t-6.5 0.5q-10 0 -11 -9v-8h45l3 41h44v-41h22v-32h-22v-59q0 -10 8 -10q4 0 14 2zM668 550q30 0 52 -18.5t22 -52.5q0 -33 -22 -51t-52 -18q-28 0 -50.5 18t-22.5 51q0 34 22 52.5t51 18.5zM275 550
q30 0 47 -18.5t17 -49.5q0 -2 -0.5 -7t-0.5 -7h-82q2 -23 27 -23q19 0 40 9l10 -29q-25 -15 -59 -15q-31 0 -50 19.5t-19 49.5q0 32 19 51.5t51 19.5zM124 597v-142h75v-41h-125v183h50zM535 414v183h48v-183h-48zM438 162v181q8 3 21 3h2v-184h-23zM662 298v-90
q0 -19 4 -27q6 -3 18 -3h12l2 -14q-15 -3 -22 -3q-21 0 -29 11.5t-8 35.5v80q0 22 2 30q12 5 18 5h4q-1 -4 -1 -25zM214 280q-13 0 -23 -5l-3 11q17 13 32 13q41 0 41 -46v-91h-23v89q0 16 -5.5 22.5t-18.5 6.5zM181 162h-23v89q0 16 -5 22.5t-19 6.5q-12 0 -22 -5
q0 9 -1 12q15 12 30 12q40 0 40 -46v-91zM876 162q-3 -1 -7 -1q-56 0 -56 69q0 56 38 67q-14 -26 -14 -67q0 -52 32 -52q9 0 13 1q-2 -10 -6 -17zM925 231q0 -58 -37 -67q13 34 13 66q0 26 -6.5 39t-25.5 13q-9 0 -13 -1l6 17q3 1 7 1q56 0 56 -68zM606 231q0 -57 -37 -67
q13 34 13 66q0 26 -6.5 39t-25.5 13q-9 0 -13 -1q0 3 6 17q3 1 7 1q56 0 56 -68zM557 162q-3 -1 -7 -1q-56 0 -56 69q0 56 38 67q-14 -26 -14 -67q0 -26 6.5 -39t25.5 -13q8 0 12 1q-2 -12 -5 -17zM357 162q-4 -1 -8 -1q-55 0 -55 69q0 56 37 67q-14 -26 -14 -67
q0 -52 32 -52q9 0 13 1q-1 -3 -2.5 -8.5t-2.5 -8.5zM405 231q0 -58 -36 -67q13 38 13 66q0 26 -6.5 39t-26.5 13q-8 0 -13 -1q3 10 7 17q2 1 6 1q56 0 56 -68zM102 262v-100h-23v135q4 1 20 1q2 -8 2 -18q1 -4 1 -18zM751 277q0 -2 0.5 -7t0.5 -6v-102h-23v135q1 0 8.5 0.5
t9.5 0.5h2q2 -12 2 -21zM666 447q22 0 22 32q0 34 -22 34t-22 -34q0 -32 22 -32zM257 487h36q0 26 -18 26q-8 0 -13 -8.5t-5 -17.5zM759 272q0 7 3 13q10 14 19 14q5 0 15 -4l-5 -21q-10 2 -15 2q-10 0 -17 -4zM672 298h27l-2 -16h-26z" />
    <glyph glyph-name="seven.001" horiz-adv-x="446" 
d="M508 635l9 -7q-83 -95 -138 -164t-81 -105.5t-66 -97.5q-50 -75 -61 -122q5 -17 31.5 -45t26.5 -50t-14.5 -40.5t-34.5 -18.5q-23 0 -40 20.5t-17 47.5q0 50 70 170q86 147 255 346q-69 -40 -105 -40q-21 0 -69.5 20t-71.5 20q-83 0 -125 -122l-11 2l59 198l13 -1
l-26 -103q65 98 131 98q27 0 88 -27.5t95 -27.5q31 0 82 49z" />
    </font>
</defs>
</svg>
